{
  "title": "Soy Cordobes",
  "artist": "Rodrigo",
  "bpm": 120,
  "duration": 92.0,
  "audioFile": "",
  "notes": [
    {
      "time": 0.0,
      "note": 76,
      "duration": 0.25,
      "velocity": 100
    },
    {
      "time": 0.25,
      "note": 83,
      "duration": 0.25,
      "velocity": 100
    },
    {
      "time": 0.5,
      "note": 83,
      "duration": 0.25,
      "velocity": 100
    },
    {
      "time": 0.75,
      "note": 83,
      "duration": 0.25,
      "velocity": 100
    },
    {
      "time": 1.0,
      "note": 84,
      "duration": 0.25,
      "velocity": 100
    },
    {
      "time": 1.25,
      "note": 83,
      "duration": 0.25,
      "velocity": 100
    },
    {
      "time": 1.5,
      "note": 84,
      "duration": 0.25,
      "velocity": 100
    },
    {
      "time": 1.75,
      "note": 83,
      "duration": 0.25,
      "velocity": 100
    },
    {
      "time": 2.0,
      "note": 89,
      "duration": 0.375,
      "velocity": 100
    },
    {
      "time": 2.375,
      "note": 86,
      "duration": 0.125,
      "velocity": 100
    },
    {
      "time": 2.5,
      "note": 86,
      "duration": 0.25,
      "velocity": 100
    },
    {
      "time": 2.75,
      "note": 83,
      "duration": 0.25,
      "velocity": 100
    },
    {
      "time": 3.25,
      "note": 83,
      "duration": 0.125,
      "velocity": 100
    },
    {
      "time": 3.375,
      "note": 83,
      "duration": 0.125,
      "velocity": 100
    },
    {
      "time": 3.5,
      "note": 84,
      "duration": 0.25,
      "velocity": 100
    },
    {
      "time": 3.75,
      "note": 83,
      "duration": 0.25,
      "velocity": 100
    },
    {
      "time": 4.0,
      "note": 89,
      "duration": 0.375,
      "velocity": 100
    },
    {
      "time": 4.375,
      "note": 86,
      "duration": 0.125,
      "velocity": 100
    },
    {
      "time": 4.5,
      "note": 86,
      "duration": 0.25,
      "velocity": 100
    },
    {
      "time": 4.75,
      "note": 83,
      "duration": 0.25,
      "velocity": 100
    },
    {
      "time": 5.25,
      "note": 83,
      "duration": 0.125,
      "velocity": 100
    },
    {
      "time": 5.375,
      "note": 83,
      "duration": 0.125,
      "velocity": 100
    },
    {
      "time": 5.5,
      "note": 84,
      "duration": 0.25,
      "velocity": 100
    },
    {
      "time": 5.75,
      "note": 83,
      "duration": 0.25,
      "velocity": 100
    },
    {
      "time": 6.0,
      "note": 83,
      "duration": 0.375,
      "velocity": 100
    },
    {
      "time": 6.375,
      "note": 79,
      "duration": 0.125,
      "velocity": 100
    },
    {
      "time": 6.5,
      "note": 79,
      "duration": 0.25,
      "velocity": 100
    },
    {
      "time": 6.75,
      "note": 76,
      "duration": 0.25,
      "velocity": 100
    },
    {
      "time": 7.0,
      "note": 76,
      "duration": 1.0,
      "velocity": 100
    },
    {
      "time": 8.25,
      "note": 83,
      "duration": 0.25,
      "velocity": 100
    },
    {
      "time": 8.5,
      "note": 83,
      "duration": 0.25,
      "velocity": 100
    },
    {
      "time": 8.75,
      "note": 83,
      "duration": 0.25,
      "velocity": 100
    },
    {
      "time": 9.0,
      "note": 84,
      "duration": 0.25,
      "velocity": 100
    },
    {
      "time": 9.25,
      "note": 83,
      "duration": 0.25,
      "velocity": 100
    },
    {
      "time": 9.5,
      "note": 84,
      "duration": 0.25,
      "velocity": 100
    },
    {
      "time": 9.75,
      "note": 83,
      "duration": 0.25,
      "velocity": 100
    },
    {
      "time": 10.0,
      "note": 89,
      "duration": 0.25,
      "velocity": 100
    },
    {
      "time": 10.25,
      "note": 86,
      "duration": 0.125,
      "velocity": 100
    },
    {
      "time": 10.375,
      "note": 86,
      "duration": 0.25,
      "velocity": 100
    },
    {
      "time": 10.625,
      "note": 83,
      "duration": 0.25,
      "velocity": 100
    },
    {
      "time": 11.0,
      "note": 83,
      "duration": 0.25,
      "velocity": 100
    },
    {
      "time": 11.25,
      "note": 83,
      "duration": 0.125,
      "velocity": 100
    },
    {
      "time": 11.375,
      "note": 84,
      "duration": 0.25,
      "velocity": 100
    },
    {
      "time": 11.625,
      "note": 83,
      "duration": 0.25,
      "velocity": 100
    },
    {
      "time": 11.875,
      "note": 89,
      "duration": 0.25,
      "velocity": 100
    },
    {
      "time": 12.125,
      "note": 86,
      "duration": 0.125,
      "velocity": 100
    },
    {
      "time": 12.25,
      "note": 86,
      "duration": 0.25,
      "velocity": 100
    },
    {
      "time": 12.5,
      "note": 83,
      "duration": 0.25,
      "velocity": 100
    },
    {
      "time": 13.0,
      "note": 83,
      "duration": 0.125,
      "velocity": 100
    },
    {
      "time": 13.125,
      "note": 83,
      "duration": 0.125,
      "velocity": 100
    },
    {
      "time": 13.25,
      "note": 84,
      "duration": 0.25,
      "velocity": 100
    },
    {
      "time": 13.5,
      "note": 86,
      "duration": 0.25,
      "velocity": 100
    },
    {
      "time": 13.75,
      "note": 88,
      "duration": 1.0,
      "velocity": 100
    },
    {
      "time": 14.75,
      "note": 88,
      "duration": 0.25,
      "velocity": 100
    },
    {
      "time": 15.0,
      "note": 83,
      "duration": 0.125,
      "velocity": 100
    },
    {
      "time": 15.125,
      "note": 84,
      "duration": 0.125,
      "velocity": 100
    },
    {
      "time": 15.25,
      "note": 83,
      "duration": 0.125,
      "velocity": 100
    },
    {
      "time": 15.375,
      "note": 81,
      "duration": 0.125,
      "velocity": 100
    },
    {
      "time": 15.5,
      "note": 79,
      "duration": 0.125,
      "velocity": 100
    },
    {
      "time": 15.625,
      "note": 77,
      "duration": 0.125,
      "velocity": 100
    },
    {
      "time": 15.75,
      "note": 76,
      "duration": 0.5,
      "velocity": 100
    },
    {
      "time": 17.0,
      "note": 83,
      "duration": 0.25,
      "velocity": 100
    },
    {
      "time": 17.25,
      "note": 83,
      "duration": 0.25,
      "velocity": 100
    },
    {
      "time": 17.5,
      "note": 83,
      "duration": 0.25,
      "velocity": 100
    },
    {
      "time": 17.75,
      "note": 83,
      "duration": 0.125,
      "velocity": 100
    },
    {
      "time": 17.875,
      "note": 83,
      "duration": 0.25,
      "velocity": 100
    },
    {
      "time": 18.125,
      "note": 83,
      "duration": 0.125,
      "velocity": 100
    },
    {
      "time": 18.25,
      "note": 83,
      "duration": 0.25,
      "velocity": 100
    },
    {
      "time": 18.5,
      "note": 84,
      "duration": 0.25,
      "velocity": 100
    },
    {
      "time": 18.75,
      "note": 83,
      "duration": 0.25,
      "velocity": 100
    },
    {
      "time": 19.0,
      "note": 83,
      "duration": 0.25,
      "velocity": 100
    },
    {
      "time": 19.25,
      "note": 79,
      "duration": 0.25,
      "velocity": 100
    },
    {
      "time": 19.5,
      "note": 79,
      "duration": 0.25,
      "velocity": 100
    },
    {
      "time": 20.0,
      "note": 81,
      "duration": 0.25,
      "velocity": 100
    },
    {
      "time": 20.25,
      "note": 81,
      "duration": 0.25,
      "velocity": 100
    },
    {
      "time": 20.5,
      "note": 81,
      "duration": 0.25,
      "velocity": 100
    },
    {
      "time": 20.75,
      "note": 81,
      "duration": 0.25,
      "velocity": 100
    },
    {
      "time": 21.0,
      "note": 81,
      "duration": 0.25,
      "velocity": 100
    },
    {
      "time": 21.25,
      "note": 83,
      "duration": 0.25,
      "velocity": 100
    },
    {
      "time": 21.5,
      "note": 81,
      "duration": 0.25,
      "velocity": 100
    },
    {
      "time": 22.0,
      "note": 83,
      "duration": 0.25,
      "velocity": 100
    },
    {
      "time": 22.25,
      "note": 83,
      "duration": 0.25,
      "velocity": 100
    },
    {
      "time": 22.5,
      "note": 84,
      "duration": 0.25,
      "velocity": 100
    },
    {
      "time": 22.75,
      "note": 83,
      "duration": 0.25,
      "velocity": 100
    },
    {
      "time": 23.0,
      "note": 81,
      "duration": 0.25,
      "velocity": 100
    },
    {
      "time": 23.5,
      "note": 83,
      "duration": 0.25,
      "velocity": 100
    },
    {
      "time": 23.75,
      "note": 74,
      "duration": 0.5,
      "velocity": 100
    },
    {
      "time": 24.25,
      "note": 83,
      "duration": 0.5,
      "velocity": 100
    },
    {
      "time": 24.25,
      "note": 79,
      "duration": 0.75,
      "velocity": 100
    },
    {
      "time": 25.25,
      "note": 79,
      "duration": 0.25,
      "velocity": 100
    },
    {
      "time": 25.5,
      "note": 79,
      "duration": 0.25,
      "velocity": 100
    },
    {
      "time": 25.75,
      "note": 79,
      "duration": 0.25,
      "velocity": 100
    },
    {
      "time": 26.0,
      "note": 79,
      "duration": 0.25,
      "velocity": 100
    },
    {
      "time": 26.25,
      "note": 83,
      "duration": 0.25,
      "velocity": 100
    },
    {
      "time": 26.5,
      "note": 81,
      "duration": 0.25,
      "velocity": 100
    },
    {
      "time": 26.75,
      "note": 83,
      "duration": 0.25,
      "velocity": 100
    },
    {
      "time": 27.0,
      "note": 81,
      "duration": 0.25,
      "velocity": 100
    },
    {
      "time": 27.25,
      "note": 81,
      "duration": 0.25,
      "velocity": 100
    },
    {
      "time": 27.5,
      "note": 81,
      "duration": 0.25,
      "velocity": 100
    },
    {
      "time": 27.75,
      "note": 83,
      "duration": 0.25,
      "velocity": 100
    },
    {
      "time": 28.25,
      "note": 83,
      "duration": 0.25,
      "velocity": 100
    },
    {
      "time": 28.5,
      "note": 83,
      "duration": 0.25,
      "velocity": 100
    },
    {
      "time": 28.75,
      "note": 83,
      "duration": 0.25,
      "velocity": 100
    },
    {
      "time": 29.0,
      "note": 83,
      "duration": 0.5,
      "velocity": 100
    },
    {
      "time": 29.5,
      "note": 83,
      "duration": 0.25,
      "velocity": 100
    },
    {
      "time": 29.75,
      "note": 83,
      "duration": 0.25,
      "velocity": 100
    },
    {
      "time": 30.0,
      "note": 83,
      "duration": 0.25,
      "velocity": 100
    },
    {
      "time": 30.25,
      "note": 84,
      "duration": 0.25,
      "velocity": 100
    },
    {
      "time": 30.5,
      "note": 83,
      "duration": 0.25,
      "velocity": 100
    },
    {
      "time": 30.75,
      "note": 83,
      "duration": 0.25,
      "velocity": 100
    },
    {
      "time": 31.0,
      "note": 83,
      "duration": 0.5,
      "velocity": 100
    },
    {
      "time": 31.5,
      "note": 79,
      "duration": 0.25,
      "velocity": 100
    },
    {
      "time": 31.75,
      "note": 77,
      "duration": 0.25,
      "velocity": 100
    },
    {
      "time": 32.0,
      "note": 77,
      "duration": 0.25,
      "velocity": 100
    },
    {
      "time": 32.25,
      "note": 79,
      "duration": 0.75,
      "velocity": 100
    },
    {
      "time": 33.25,
      "note": 79,
      "duration": 0.25,
      "velocity": 100
    },
    {
      "time": 33.5,
      "note": 79,
      "duration": 0.125,
      "velocity": 100
    },
    {
      "time": 33.625,
      "note": 79,
      "duration": 0.125,
      "velocity": 100
    },
    {
      "time": 33.75,
      "note": 77,
      "duration": 0.25,
      "velocity": 100
    },
    {
      "time": 34.5,
      "note": 77,
      "duration": 0.25,
      "velocity": 100
    },
    {
      "time": 34.75,
      "note": 77,
      "duration": 0.25,
      "velocity": 100
    },
    {
      "time": 35.0,
      "note": 77,
      "duration": 0.25,
      "velocity": 100
    },
    {
      "time": 35.25,
      "note": 77,
      "duration": 0.25,
      "velocity": 100
    },
    {
      "time": 35.5,
      "note": 79,
      "duration": 0.25,
      "velocity": 100
    },
    {
      "time": 35.75,
      "note": 81,
      "duration": 0.25,
      "velocity": 100
    },
    {
      "time": 36.5,
      "note": 84,
      "duration": 0.25,
      "velocity": 100
    },
    {
      "time": 36.75,
      "note": 84,
      "duration": 0.25,
      "velocity": 100
    },
    {
      "time": 37.0,
      "note": 84,
      "duration": 0.25,
      "velocity": 100
    },
    {
      "time": 37.25,
      "note": 84,
      "duration": 0.25,
      "velocity": 100
    },
    {
      "time": 37.5,
      "note": 84,
      "duration": 0.25,
      "velocity": 100
    },
    {
      "time": 37.75,
      "note": 84,
      "duration": 0.25,
      "velocity": 100
    },
    {
      "time": 38.0,
      "note": 84,
      "duration": 0.25,
      "velocity": 100
    },
    {
      "time": 38.25,
      "note": 83,
      "duration": 0.25,
      "velocity": 100
    },
    {
      "time": 38.5,
      "note": 81,
      "duration": 0.25,
      "velocity": 100
    },
    {
      "time": 38.75,
      "note": 83,
      "duration": 0.25,
      "velocity": 100
    },
    {
      "time": 39.0,
      "note": 83,
      "duration": 1.0,
      "velocity": 100
    },
    {
      "time": 41.25,
      "note": 74,
      "duration": 0.5,
      "velocity": 100
    },
    {
      "time": 41.75,
      "note": 83,
      "duration": 0.5,
      "velocity": 100
    },
    {
      "time": 41.75,
      "note": 83,
      "duration": 0.125,
      "velocity": 100
    },
    {
      "time": 41.875,
      "note": 83,
      "duration": 0.125,
      "velocity": 100
    },
    {
      "time": 42.0,
      "note": 83,
      "duration": 0.25,
      "velocity": 100
    },
    {
      "time": 42.25,
      "note": 83,
      "duration": 0.25,
      "velocity": 100
    },
    {
      "time": 42.5,
      "note": 84,
      "duration": 0.25,
      "velocity": 100
    },
    {
      "time": 42.75,
      "note": 84,
      "duration": 0.25,
      "velocity": 100
    },
    {
      "time": 43.0,
      "note": 84,
      "duration": 0.25,
      "velocity": 100
    },
    {
      "time": 43.25,
      "note": 84,
      "duration": 0.25,
      "velocity": 100
    },
    {
      "time": 43.5,
      "note": 81,
      "duration": 0.25,
      "velocity": 100
    },
    {
      "time": 43.75,
      "note": 77,
      "duration": 0.25,
      "velocity": 100
    },
    {
      "time": 44.0,
      "note": 83,
      "duration": 0.25,
      "velocity": 100
    },
    {
      "time": 44.5,
      "note": 83,
      "duration": 0.25,
      "velocity": 100
    },
    {
      "time": 44.75,
      "note": 83,
      "duration": 0.25,
      "velocity": 100
    },
    {
      "time": 45.0,
      "note": 83,
      "duration": 0.25,
      "velocity": 100
    },
    {
      "time": 45.25,
      "note": 83,
      "duration": 0.25,
      "velocity": 100
    },
    {
      "time": 45.5,
      "note": 81,
      "duration": 0.25,
      "velocity": 100
    },
    {
      "time": 45.75,
      "note": 79,
      "duration": 0.25,
      "velocity": 100
    },
    {
      "time": 46.0,
      "note": 81,
      "duration": 0.25,
      "velocity": 100
    },
    {
      "time": 46.5,
      "note": 81,
      "duration": 0.25,
      "velocity": 100
    },
    {
      "time": 46.75,
      "note": 81,
      "duration": 0.25,
      "velocity": 100
    },
    {
      "time": 47.0,
      "note": 81,
      "duration": 0.25,
      "velocity": 100
    },
    {
      "time": 47.25,
      "note": 81,
      "duration": 0.25,
      "velocity": 100
    },
    {
      "time": 47.5,
      "note": 79,
      "duration": 0.25,
      "velocity": 100
    },
    {
      "time": 47.75,
      "note": 77,
      "duration": 0.25,
      "velocity": 100
    },
    {
      "time": 48.0,
      "note": 77,
      "duration": 0.25,
      "velocity": 100
    },
    {
      "time": 48.25,
      "note": 79,
      "duration": 0.5,
      "velocity": 100
    },
    {
      "time": 49.5,
      "note": 74,
      "duration": 0.5,
      "velocity": 100
    },
    {
      "time": 50.0,
      "note": 83,
      "duration": 0.5,
      "velocity": 100
    },
    {
      "time": 50.0,
      "note": 83,
      "duration": 0.125,
      "velocity": 100
    },
    {
      "time": 50.125,
      "note": 83,
      "duration": 0.125,
      "velocity": 100
    },
    {
      "time": 50.25,
      "note": 83,
      "duration": 0.25,
      "velocity": 100
    },
    {
      "time": 50.5,
      "note": 83,
      "duration": 0.25,
      "velocity": 100
    },
    {
      "time": 50.75,
      "note": 84,
      "duration": 0.25,
      "velocity": 100
    },
    {
      "time": 51.0,
      "note": 84,
      "duration": 0.25,
      "velocity": 100
    },
    {
      "time": 51.25,
      "note": 84,
      "duration": 0.25,
      "velocity": 100
    },
    {
      "time": 51.5,
      "note": 84,
      "duration": 0.25,
      "velocity": 100
    },
    {
      "time": 51.75,
      "note": 81,
      "duration": 0.25,
      "velocity": 100
    },
    {
      "time": 52.0,
      "note": 77,
      "duration": 0.125,
      "velocity": 100
    },
    {
      "time": 52.125,
      "note": 77,
      "duration": 0.125,
      "velocity": 100
    },
    {
      "time": 52.25,
      "note": 83,
      "duration": 0.25,
      "velocity": 100
    },
    {
      "time": 52.75,
      "note": 83,
      "duration": 0.25,
      "velocity": 100
    },
    {
      "time": 53.0,
      "note": 83,
      "duration": 0.25,
      "velocity": 100
    },
    {
      "time": 53.25,
      "note": 83,
      "duration": 0.25,
      "velocity": 100
    },
    {
      "time": 53.5,
      "note": 83,
      "duration": 0.25,
      "velocity": 100
    },
    {
      "time": 53.75,
      "note": 81,
      "duration": 0.25,
      "velocity": 100
    },
    {
      "time": 54.0,
      "note": 79,
      "duration": 0.25,
      "velocity": 100
    },
    {
      "time": 54.25,
      "note": 81,
      "duration": 0.25,
      "velocity": 100
    },
    {
      "time": 54.75,
      "note": 81,
      "duration": 0.25,
      "velocity": 100
    },
    {
      "time": 55.0,
      "note": 81,
      "duration": 0.25,
      "velocity": 100
    },
    {
      "time": 55.25,
      "note": 81,
      "duration": 0.25,
      "velocity": 100
    },
    {
      "time": 55.5,
      "note": 81,
      "duration": 0.25,
      "velocity": 100
    },
    {
      "time": 55.75,
      "note": 79,
      "duration": 0.25,
      "velocity": 100
    },
    {
      "time": 56.0,
      "note": 77,
      "duration": 0.25,
      "velocity": 100
    },
    {
      "time": 56.25,
      "note": 77,
      "duration": 0.25,
      "velocity": 100
    },
    {
      "time": 56.5,
      "note": 76,
      "duration": 0.5,
      "velocity": 100
    },
    {
      "time": 59.0,
      "note": 83,
      "duration": 0.5,
      "velocity": 100
    },
    {
      "time": 59.5,
      "note": 83,
      "duration": 0.5,
      "velocity": 100
    },
    {
      "time": 60.0,
      "note": 83,
      "duration": 0.25,
      "velocity": 100
    },
    {
      "time": 60.25,
      "note": 83,
      "duration": 0.25,
      "velocity": 100
    },
    {
      "time": 60.5,
      "note": 83,
      "duration": 0.5,
      "velocity": 100
    },
    {
      "time": 61.0,
      "note": 77,
      "duration": 0.5,
      "velocity": 100
    },
    {
      "time": 61.5,
      "note": 77,
      "duration": 0.5,
      "velocity": 100
    },
    {
      "time": 62.0,
      "note": 79,
      "duration": 0.5,
      "velocity": 100
    },
    {
      "time": 62.0,
      "note": 81,
      "duration": 0.25,
      "velocity": 100
    },
    {
      "time": 62.25,
      "note": 81,
      "duration": 0.25,
      "velocity": 100
    },
    {
      "time": 61.0,
      "note": 81,
      "duration": 0.25,
      "velocity": 100
    },
    {
      "time": 61.25,
      "note": 81,
      "duration": 0.25,
      "velocity": 100
    },
    {
      "time": 61.5,
      "note": 81,
      "duration": 0.25,
      "velocity": 100
    },
    {
      "time": 61.75,
      "note": 81,
      "duration": 0.25,
      "velocity": 100
    },
    {
      "time": 62.0,
      "note": 81,
      "duration": 0.25,
      "velocity": 100
    },
    {
      "time": 62.25,
      "note": 81,
      "duration": 0.125,
      "velocity": 100
    },
    {
      "time": 62.375,
      "note": 81,
      "duration": 0.125,
      "velocity": 100
    },
    {
      "time": 62.75,
      "note": 81,
      "duration": 0.25,
      "velocity": 100
    },
    {
      "time": 63.0,
      "note": 81,
      "duration": 0.25,
      "velocity": 100
    },
    {
      "time": 63.25,
      "note": 81,
      "duration": 0.25,
      "velocity": 100
    },
    {
      "time": 63.5,
      "note": 79,
      "duration": 0.25,
      "velocity": 100
    },
    {
      "time": 63.75,
      "note": 81,
      "duration": 0.25,
      "velocity": 100
    },
    {
      "time": 63.75,
      "note": 83,
      "duration": 0.25,
      "velocity": 100
    },
    {
      "time": 64.0,
      "note": 83,
      "duration": 0.25,
      "velocity": 100
    },
    {
      "time": 64.25,
      "note": 79,
      "duration": 0.25,
      "velocity": 100
    },
    {
      "time": 64.5,
      "note": 81,
      "duration": 0.25,
      "velocity": 100
    },
    {
      "time": 64.5,
      "note": 83,
      "duration": 0.5,
      "velocity": 100
    },
    {
      "time": 65.0,
      "note": 83,
      "duration": 0.25,
      "velocity": 100
    },
    {
      "time": 65.25,
      "note": 79,
      "duration": 0.25,
      "velocity": 100
    },
    {
      "time": 65.5,
      "note": 81,
      "duration": 0.25,
      "velocity": 100
    },
    {
      "time": 65.5,
      "note": 83,
      "duration": 0.5,
      "velocity": 100
    },
    {
      "time": 66.0,
      "note": 83,
      "duration": 0.5,
      "velocity": 100
    },
    {
      "time": 67.25,
      "note": 83,
      "duration": 0.25,
      "velocity": 100
    },
    {
      "time": 67.5,
      "note": 84,
      "duration": 0.25,
      "velocity": 100
    },
    {
      "time": 67.75,
      "note": 83,
      "duration": 0.25,
      "velocity": 100
    },
    {
      "time": 66.25,
      "note": 71,
      "duration": 0.25,
      "velocity": 100
    },
    {
      "time": 66.5,
      "note": 71,
      "duration": 0.25,
      "velocity": 100
    },
    {
      "time": 66.75,
      "note": 71,
      "duration": 0.25,
      "velocity": 100
    },
    {
      "time": 67.0,
      "note": 72,
      "duration": 0.25,
      "velocity": 100
    },
    {
      "time": 67.25,
      "note": 71,
      "duration": 0.25,
      "velocity": 100
    },
    {
      "time": 67.5,
      "note": 72,
      "duration": 0.25,
      "velocity": 100
    },
    {
      "time": 67.75,
      "note": 71,
      "duration": 0.25,
      "velocity": 100
    },
    {
      "time": 68.0,
      "note": 83,
      "duration": 0.5,
      "velocity": 100
    },
    {
      "time": 68.5,
      "note": 81,
      "duration": 0.25,
      "velocity": 100
    },
    {
      "time": 68.75,
      "note": 83,
      "duration": 0.25,
      "velocity": 100
    },
    {
      "time": 68.25,
      "note": 76,
      "duration": 0.25,
      "velocity": 100
    },
    {
      "time": 68.5,
      "note": 77,
      "duration": 0.25,
      "velocity": 100
    },
    {
      "time": 68.75,
      "note": 79,
      "duration": 0.25,
      "velocity": 100
    },
    {
      "time": 69.0,
      "note": 77,
      "duration": 0.5,
      "velocity": 100
    },
    {
      "time": 69.5,
      "note": 83,
      "duration": 0.5,
      "velocity": 100
    },
    {
      "time": 69.5,
      "note": 81,
      "duration": 0.25,
      "velocity": 100
    },
    {
      "time": 69.75,
      "note": 81,
      "duration": 0.25,
      "velocity": 100
    },
    {
      "time": 70.0,
      "note": 83,
      "duration": 0.25,
      "velocity": 100
    },
    {
      "time": 70.25,
      "note": 83,
      "duration": 1.0,
      "velocity": 100
    },
    {
      "time": 71.5,
      "note": 81,
      "duration": 0.25,
      "velocity": 100
    },
    {
      "time": 71.75,
      "note": 81,
      "duration": 0.125,
      "velocity": 100
    },
    {
      "time": 71.875,
      "note": 83,
      "duration": 0.125,
      "velocity": 100
    },
    {
      "time": 72.0,
      "note": 84,
      "duration": 0.25,
      "velocity": 100
    },
    {
      "time": 72.25,
      "note": 83,
      "duration": 1.0,
      "velocity": 100
    },
    {
      "time": 73.25,
      "note": 89,
      "duration": 1.0,
      "velocity": 100
    },
    {
      "time": 73.25,
      "note": 84,
      "duration": 0.25,
      "velocity": 100
    },
    {
      "time": 73.5,
      "note": 81,
      "duration": 0.25,
      "velocity": 100
    },
    {
      "time": 73.75,
      "note": 81,
      "duration": 0.25,
      "velocity": 100
    },
    {
      "time": 74.0,
      "note": 81,
      "duration": 0.25,
      "velocity": 100
    },
    {
      "time": 72.25,
      "note": 88,
      "duration": 0.25,
      "velocity": 100
    },
    {
      "time": 72.5,
      "note": 83,
      "duration": 0.25,
      "velocity": 100
    },
    {
      "time": 72.75,
      "note": 83,
      "duration": 0.25,
      "velocity": 100
    },
    {
      "time": 73.0,
      "note": 83,
      "duration": 0.25,
      "velocity": 100
    },
    {
      "time": 73.25,
      "note": 83,
      "duration": 0.25,
      "velocity": 100
    },
    {
      "time": 73.5,
      "note": 83,
      "duration": 0.25,
      "velocity": 100
    },
    {
      "time": 73.75,
      "note": 84,
      "duration": 0.25,
      "velocity": 100
    },
    {
      "time": 74.0,
      "note": 83,
      "duration": 0.25,
      "velocity": 100
    },
    {
      "time": 74.25,
      "note": 83,
      "duration": 0.25,
      "velocity": 100
    },
    {
      "time": 74.5,
      "note": 77,
      "duration": 0.25,
      "velocity": 100
    },
    {
      "time": 75.0,
      "note": 77,
      "duration": 0.125,
      "velocity": 100
    },
    {
      "time": 75.125,
      "note": 77,
      "duration": 0.125,
      "velocity": 100
    },
    {
      "time": 75.25,
      "note": 77,
      "duration": 0.25,
      "velocity": 100
    },
    {
      "time": 75.5,
      "note": 77,
      "duration": 0.25,
      "velocity": 100
    },
    {
      "time": 75.75,
      "note": 84,
      "duration": 0.25,
      "velocity": 100
    },
    {
      "time": 76.0,
      "note": 83,
      "duration": 0.25,
      "velocity": 100
    },
    {
      "time": 74.25,
      "note": 83,
      "duration": 0.5,
      "velocity": 100
    },
    {
      "time": 75.5,
      "note": 81,
      "duration": 0.25,
      "velocity": 100
    },
    {
      "time": 75.75,
      "note": 81,
      "duration": 0.125,
      "velocity": 100
    },
    {
      "time": 75.875,
      "note": 83,
      "duration": 0.125,
      "velocity": 100
    },
    {
      "time": 76.0,
      "note": 84,
      "duration": 0.25,
      "velocity": 100
    },
    {
      "time": 76.25,
      "note": 84,
      "duration": 0.25,
      "velocity": 100
    },
    {
      "time": 76.75,
      "note": 81,
      "duration": 0.25,
      "velocity": 100
    },
    {
      "time": 77.0,
      "note": 81,
      "duration": 0.25,
      "velocity": 100
    },
    {
      "time": 77.25,
      "note": 88,
      "duration": 0.25,
      "velocity": 100
    },
    {
      "time": 77.5,
      "note": 88,
      "duration": 0.25,
      "velocity": 100
    },
    {
      "time": 77.75,
      "note": 86,
      "duration": 0.25,
      "velocity": 100
    },
    {
      "time": 78.0,
      "note": 88,
      "duration": 0.25,
      "velocity": 100
    },
    {
      "time": 78.25,
      "note": 88,
      "duration": 0.25,
      "velocity": 100
    },
    {
      "time": 78.5,
      "note": 83,
      "duration": 0.25,
      "velocity": 100
    },
    {
      "time": 78.75,
      "note": 83,
      "duration": 0.25,
      "velocity": 100
    },
    {
      "time": 79.0,
      "note": 83,
      "duration": 0.25,
      "velocity": 100
    },
    {
      "time": 79.25,
      "note": 83,
      "duration": 0.25,
      "velocity": 100
    },
    {
      "time": 79.5,
      "note": 83,
      "duration": 0.25,
      "velocity": 100
    },
    {
      "time": 79.75,
      "note": 84,
      "duration": 0.25,
      "velocity": 100
    },
    {
      "time": 80.0,
      "note": 83,
      "duration": 0.25,
      "velocity": 100
    },
    {
      "time": 80.25,
      "note": 83,
      "duration": 0.125,
      "velocity": 100
    },
    {
      "time": 80.5,
      "note": 83,
      "duration": 0.25,
      "velocity": 100
    },
    {
      "time": 80.75,
      "note": 81,
      "duration": 0.25,
      "velocity": 100
    },
    {
      "time": 81.0,
      "note": 79,
      "duration": 0.25,
      "velocity": 100
    },
    {
      "time": 81.25,
      "note": 79,
      "duration": 0.25,
      "velocity": 100
    },
    {
      "time": 81.5,
      "note": 77,
      "duration": 0.25,
      "velocity": 100
    },
    {
      "time": 81.75,
      "note": 77,
      "duration": 0.25,
      "velocity": 100
    },
    {
      "time": 82.0,
      "note": 79,
      "duration": 0.25,
      "velocity": 100
    },
    {
      "time": 82.25,
      "note": 69,
      "duration": 1.0,
      "velocity": 100
    },
    {
      "time": 83.25,
      "note": 74,
      "duration": 1.0,
      "velocity": 100
    },
    {
      "time": 83.25,
      "note": 83,
      "duration": 0.25,
      "velocity": 100
    },
    {
      "time": 83.5,
      "note": 83,
      "duration": 0.25,
      "velocity": 100
    },
    {
      "time": 83.75,
      "note": 83,
      "duration": 1.0,
      "velocity": 100
    },
    {
      "time": 84.75,
      "note": 84,
      "duration": 1.0,
      "velocity": 100
    },
    {
      "time": 83.5,
      "note": 71,
      "duration": 0.25,
      "velocity": 100
    },
    {
      "time": 83.75,
      "note": 74,
      "duration": 0.25,
      "velocity": 100
    },
    {
      "time": 84.0,
      "note": 71,
      "duration": 0.25,
      "velocity": 100
    },
    {
      "time": 84.25,
      "note": 76,
      "duration": 0.25,
      "velocity": 100
    },
    {
      "time": 84.5,
      "note": 71,
      "duration": 0.25,
      "velocity": 100
    },
    {
      "time": 84.75,
      "note": 77,
      "duration": 0.25,
      "velocity": 100
    },
    {
      "time": 85.0,
      "note": 71,
      "duration": 0.25,
      "velocity": 100
    },
    {
      "time": 85.25,
      "note": 83,
      "duration": 1.0,
      "velocity": 100
    },
    {
      "time": 86.25,
      "note": 84,
      "duration": 1.0,
      "velocity": 100
    },
    {
      "time": 85.25,
      "note": 77,
      "duration": 0.25,
      "velocity": 100
    },
    {
      "time": 85.5,
      "note": 71,
      "duration": 0.25,
      "velocity": 100
    },
    {
      "time": 85.75,
      "note": 79,
      "duration": 0.25,
      "velocity": 100
    },
    {
      "time": 86.0,
      "note": 71,
      "duration": 0.25,
      "velocity": 100
    },
    {
      "time": 86.25,
      "note": 81,
      "duration": 0.25,
      "velocity": 100
    },
    {
      "time": 86.5,
      "note": 71,
      "duration": 0.25,
      "velocity": 100
    },
    {
      "time": 86.75,
      "note": 81,
      "duration": 0.25,
      "velocity": 100
    },
    {
      "time": 87.0,
      "note": 71,
      "duration": 0.375,
      "velocity": 100
    },
    {
      "time": 87.5,
      "note": 81,
      "duration": 0.25,
      "velocity": 100
    },
    {
      "time": 87.75,
      "note": 81,
      "duration": 0.25,
      "velocity": 100
    },
    {
      "time": 88.0,
      "note": 79,
      "duration": 0.25,
      "velocity": 100
    },
    {
      "time": 88.25,
      "note": 81,
      "duration": 0.25,
      "velocity": 100
    },
    {
      "time": 88.5,
      "note": 79,
      "duration": 0.25,
      "velocity": 100
    },
    {
      "time": 88.75,
      "note": 77,
      "duration": 0.25,
      "velocity": 100
    },
    {
      "time": 89.0,
      "note": 76,
      "duration": 0.25,
      "velocity": 100
    },
    {
      "time": 89.25,
      "note": 76,
      "duration": 1.0,
      "velocity": 100
    },
    {
      "time": 90.25,
      "note": 84,
      "duration": 1.0,
      "velocity": 100
    },
    {
      "time": 90.25,
      "note": 83,
      "duration": 0.25,
      "velocity": 100
    },
    {
      "time": 90.5,
      "note": 83,
      "duration": 0.25,
      "velocity": 100
    },
    {
      "time": 90.75,
      "note": 83,
      "duration": 0.25,
      "velocity": 100
    },
    {
      "time": 91.0,
      "note": 84,
      "duration": 0.25,
      "velocity": 100
    },
    {
      "time": 91.25,
      "note": 83,
      "duration": 0.25,
      "velocity": 100
    },
    {
      "time": 91.5,
      "note": 84,
      "duration": 0.25,
      "velocity": 100
    },
    {
      "time": 91.75,
      "note": 83,
      "duration": 0.25,
      "velocity": 100
    }
  ],
  "chords": [
    {
      "time": 0.0,
      "notes": [
        64,
        67,
        71
      ],
      "duration": 2.090909090909091
    },
    {
      "time": 2.090909090909091,
      "notes": [
        71,
        75,
        78
      ],
      "duration": 2.090909090909091
    },
    {
      "time": 4.181818181818182,
      "notes": [
        64,
        67,
        71
      ],
      "duration": 2.090909090909091
    },
    {
      "time": 6.2727272727272725,
      "notes": [
        71,
        75,
        78
      ],
      "duration": 2.090909090909091
    },
    {
      "time": 8.363636363636363,
      "notes": [
        64,
        67,
        71
      ],
      "duration": 2.090909090909091
    },
    {
      "time": 10.454545454545453,
      "notes": [
        64,
        67,
        71
      ],
      "duration": 2.090909090909091
    },
    {
      "time": 12.545454545454545,
      "notes": [
        71,
        75,
        78
      ],
      "duration": 2.090909090909091
    },
    {
      "time": 14.636363636363637,
      "notes": [
        64,
        67,
        71
      ],
      "duration": 2.090909090909091
    },
    {
      "time": 16.727272727272727,
      "notes": [
        71,
        75,
        78
      ],
      "duration": 2.090909090909091
    },
    {
      "time": 18.818181818181817,
      "notes": [
        64,
        67,
        71
      ],
      "duration": 2.090909090909091
    },
    {
      "time": 20.909090909090907,
      "notes": [
        62,
        66,
        69
      ],
      "duration": 2.090909090909091
    },
    {
      "time": 23.0,
      "notes": [
        67,
        71,
        74
      ],
      "duration": 2.090909090909091
    },
    {
      "time": 25.09090909090909,
      "notes": [
        69,
        72,
        76
      ],
      "duration": 2.090909090909091
    },
    {
      "time": 27.18181818181818,
      "notes": [
        71,
        75,
        78
      ],
      "duration": 2.090909090909091
    },
    {
      "time": 29.272727272727273,
      "notes": [
        64,
        67,
        71
      ],
      "duration": 2.090909090909091
    },
    {
      "time": 31.363636363636363,
      "notes": [
        71,
        75,
        78
      ],
      "duration": 2.090909090909091
    },
    {
      "time": 33.45454545454545,
      "notes": [
        64,
        67,
        71
      ],
      "duration": 2.090909090909091
    },
    {
      "time": 35.54545454545455,
      "notes": [
        69,
        72,
        76
      ],
      "duration": 2.090909090909091
    },
    {
      "time": 37.63636363636363,
      "notes": [
        62,
        66,
        69
      ],
      "duration": 2.090909090909091
    },
    {
      "time": 39.72727272727273,
      "notes": [
        67,
        71,
        74
      ],
      "duration": 2.090909090909091
    },
    {
      "time": 41.81818181818181,
      "notes": [
        60,
        64,
        67
      ],
      "duration": 2.090909090909091
    },
    {
      "time": 43.90909090909091,
      "notes": [
        69,
        72,
        76
      ],
      "duration": 2.090909090909091
    },
    {
      "time": 46.0,
      "notes": [
        71,
        75,
        78
      ],
      "duration": 2.090909090909091
    },
    {
      "time": 48.090909090909086,
      "notes": [
        64,
        67,
        71
      ],
      "duration": 2.090909090909091
    },
    {
      "time": 50.18181818181818,
      "notes": [
        71,
        75,
        78
      ],
      "duration": 2.090909090909091
    },
    {
      "time": 52.27272727272727,
      "notes": [
        64,
        67,
        71
      ],
      "duration": 2.090909090909091
    },
    {
      "time": 54.36363636363636,
      "notes": [
        64,
        67,
        71
      ],
      "duration": 2.090909090909091
    },
    {
      "time": 56.45454545454545,
      "notes": [
        64,
        68,
        71
      ],
      "duration": 2.090909090909091
    },
    {
      "time": 58.54545454545455,
      "notes": [
        69,
        72,
        76
      ],
      "duration": 2.090909090909091
    },
    {
      "time": 60.63636363636363,
      "notes": [
        67,
        71,
        74
      ],
      "duration": 2.090909090909091
    },
    {
      "time": 62.72727272727273,
      "notes": [
        69,
        72,
        76
      ],
      "duration": 2.090909090909091
    },
    {
      "time": 64.81818181818181,
      "notes": [
        71,
        75,
        78
      ],
      "duration": 2.090909090909091
    },
    {
      "time": 66.9090909090909,
      "notes": [
        64,
        67,
        71
      ],
      "duration": 2.090909090909091
    },
    {
      "time": 69.0,
      "notes": [
        64,
        68,
        71
      ],
      "duration": 2.090909090909091
    },
    {
      "time": 71.0909090909091,
      "notes": [
        69,
        72,
        76
      ],
      "duration": 2.090909090909091
    },
    {
      "time": 73.18181818181817,
      "notes": [
        62,
        66,
        69
      ],
      "duration": 2.090909090909091
    },
    {
      "time": 75.27272727272727,
      "notes": [
        67,
        71,
        74
      ],
      "duration": 2.090909090909091
    },
    {
      "time": 77.36363636363636,
      "notes": [
        60,
        64,
        67
      ],
      "duration": 2.090909090909091
    },
    {
      "time": 79.45454545454545,
      "notes": [
        69,
        72,
        76
      ],
      "duration": 2.090909090909091
    },
    {
      "time": 81.54545454545455,
      "notes": [
        71,
        75,
        78
      ],
      "duration": 2.090909090909091
    },
    {
      "time": 83.63636363636363,
      "notes": [
        62,
        66,
        69
      ],
      "duration": 2.090909090909091
    },
    {
      "time": 85.72727272727272,
      "notes": [
        64,
        67,
        71
      ],
      "duration": 2.090909090909091
    },
    {
      "time": 87.81818181818181,
      "notes": [
        71,
        75,
        78
      ],
      "duration": 2.090909090909091
    },
    {
      "time": 89.9090909090909,
      "notes": [
        64,
        67,
        71
      ],
      "duration": 2.090909090909091
    }
  ]
}