{
  "title": "Despues de Ti",
  "artist": "Leo Mattioli",
  "bpm": 120,
  "duration": 44.25,
  "audioFile": "",
  "notes": [
    {
      "time": 0.375,
      "note": 79,
      "duration": 0.125,
      "velocity": 100
    },
    {
      "time": 0.5,
      "note": 79,
      "duration": 0.25,
      "velocity": 100
    },
    {
      "time": 0.75,
      "note": 79,
      "duration": 0.25,
      "velocity": 100
    },
    {
      "time": 1.0,
      "note": 84,
      "duration": 0.25,
      "velocity": 100
    },
    {
      "time": 1.25,
      "note": 86,
      "duration": 0.125,
      "velocity": 100
    },
    {
      "time": 1.375,
      "note": 84,
      "duration": 0.125,
      "velocity": 100
    },
    {
      "time": 1.5,
      "note": 84,
      "duration": 0.125,
      "velocity": 100
    },
    {
      "time": 1.625,
      "note": 86,
      "duration": 0.125,
      "velocity": 100
    },
    {
      "time": 1.75,
      "note": 84,
      "duration": 0.25,
      "velocity": 100
    },
    {
      "time": 2.375,
      "note": 79,
      "duration": 0.125,
      "velocity": 100
    },
    {
      "time": 2.5,
      "note": 79,
      "duration": 0.25,
      "velocity": 100
    },
    {
      "time": 2.75,
      "note": 79,
      "duration": 0.25,
      "velocity": 100
    },
    {
      "time": 3.0,
      "note": 84,
      "duration": 0.25,
      "velocity": 100
    },
    {
      "time": 3.25,
      "note": 86,
      "duration": 0.125,
      "velocity": 100
    },
    {
      "time": 3.375,
      "note": 84,
      "duration": 0.125,
      "velocity": 100
    },
    {
      "time": 3.5,
      "note": 84,
      "duration": 0.125,
      "velocity": 100
    },
    {
      "time": 3.625,
      "note": 86,
      "duration": 0.125,
      "velocity": 100
    },
    {
      "time": 3.75,
      "note": 84,
      "duration": 0.25,
      "velocity": 100
    },
    {
      "time": 4.375,
      "note": 81,
      "duration": 0.125,
      "velocity": 100
    },
    {
      "time": 4.5,
      "note": 81,
      "duration": 0.25,
      "velocity": 100
    },
    {
      "time": 4.75,
      "note": 81,
      "duration": 0.25,
      "velocity": 100
    },
    {
      "time": 5.0,
      "note": 86,
      "duration": 0.25,
      "velocity": 100
    },
    {
      "time": 5.25,
      "note": 88,
      "duration": 0.125,
      "velocity": 100
    },
    {
      "time": 5.375,
      "note": 86,
      "duration": 0.125,
      "velocity": 100
    },
    {
      "time": 5.5,
      "note": 86,
      "duration": 0.125,
      "velocity": 100
    },
    {
      "time": 5.625,
      "note": 88,
      "duration": 0.125,
      "velocity": 100
    },
    {
      "time": 5.75,
      "note": 86,
      "duration": 0.25,
      "velocity": 100
    },
    {
      "time": 6.75,
      "note": 86,
      "duration": 0.25,
      "velocity": 100
    },
    {
      "time": 7.0,
      "note": 84,
      "duration": 0.25,
      "velocity": 100
    },
    {
      "time": 7.25,
      "note": 83,
      "duration": 0.25,
      "velocity": 100
    },
    {
      "time": 7.5,
      "note": 84,
      "duration": 0.125,
      "velocity": 100
    },
    {
      "time": 7.625,
      "note": 83,
      "duration": 0.125,
      "velocity": 100
    },
    {
      "time": 7.75,
      "note": 83,
      "duration": 0.125,
      "velocity": 100
    },
    {
      "time": 7.875,
      "note": 84,
      "duration": 0.125,
      "velocity": 100
    },
    {
      "time": 8.0,
      "note": 83,
      "duration": 0.25,
      "velocity": 100
    },
    {
      "time": 8.625,
      "note": 79,
      "duration": 0.125,
      "velocity": 100
    },
    {
      "time": 8.75,
      "note": 79,
      "duration": 0.25,
      "velocity": 100
    },
    {
      "time": 9.0,
      "note": 79,
      "duration": 0.25,
      "velocity": 100
    },
    {
      "time": 9.625,
      "note": 76,
      "duration": 0.5,
      "velocity": 100
    },
    {
      "time": 10.125,
      "note": 79,
      "duration": 0.5,
      "velocity": 100
    },
    {
      "time": 10.125,
      "note": 86,
      "duration": 0.5,
      "velocity": 100
    },
    {
      "time": 10.125,
      "note": 86,
      "duration": 0.25,
      "velocity": 100
    },
    {
      "time": 10.375,
      "note": 84,
      "duration": 0.25,
      "velocity": 100
    },
    {
      "time": 10.625,
      "note": 83,
      "duration": 0.25,
      "velocity": 100
    },
    {
      "time": 10.875,
      "note": 81,
      "duration": 0.125,
      "velocity": 100
    },
    {
      "time": 11.0,
      "note": 83,
      "duration": 0.125,
      "velocity": 100
    },
    {
      "time": 11.125,
      "note": 83,
      "duration": 0.125,
      "velocity": 100
    },
    {
      "time": 11.25,
      "note": 81,
      "duration": 0.25,
      "velocity": 100
    },
    {
      "time": 11.5,
      "note": 79,
      "duration": 0.125,
      "velocity": 100
    },
    {
      "time": 11.625,
      "note": 79,
      "duration": 1.0,
      "velocity": 100
    },
    {
      "time": 12.625,
      "note": 86,
      "duration": 0.125,
      "velocity": 100
    },
    {
      "time": 12.75,
      "note": 84,
      "duration": 0.125,
      "velocity": 100
    },
    {
      "time": 12.875,
      "note": 83,
      "duration": 0.125,
      "velocity": 100
    },
    {
      "time": 13.0,
      "note": 81,
      "duration": 0.125,
      "velocity": 100
    },
    {
      "time": 13.125,
      "note": 83,
      "duration": 0.125,
      "velocity": 100
    },
    {
      "time": 13.25,
      "note": 81,
      "duration": 0.125,
      "velocity": 100
    },
    {
      "time": 13.375,
      "note": 79,
      "duration": 0.125,
      "velocity": 100
    },
    {
      "time": 13.5,
      "note": 77,
      "duration": 0.125,
      "velocity": 100
    },
    {
      "time": 13.625,
      "note": 74,
      "duration": 0.25,
      "velocity": 100
    },
    {
      "time": 13.875,
      "note": 77,
      "duration": 0.25,
      "velocity": 100
    },
    {
      "time": 14.125,
      "note": 81,
      "duration": 0.25,
      "velocity": 100
    },
    {
      "time": 14.25,
      "note": 88,
      "duration": 0.25,
      "velocity": 100
    },
    {
      "time": 14.5,
      "note": 77,
      "duration": 0.125,
      "velocity": 100
    },
    {
      "time": 14.625,
      "note": 81,
      "duration": 0.125,
      "velocity": 100
    },
    {
      "time": 14.875,
      "note": 81,
      "duration": 0.375,
      "velocity": 100
    },
    {
      "time": 15.25,
      "note": 81,
      "duration": 0.125,
      "velocity": 100
    },
    {
      "time": 15.375,
      "note": 81,
      "duration": 0.125,
      "velocity": 100
    },
    {
      "time": 15.5,
      "note": 79,
      "duration": 0.25,
      "velocity": 100
    },
    {
      "time": 15.75,
      "note": 81,
      "duration": 0.125,
      "velocity": 100
    },
    {
      "time": 14.75,
      "note": 74,
      "duration": 0.25,
      "velocity": 100
    },
    {
      "time": 14.875,
      "note": 77,
      "duration": 0.5,
      "velocity": 100
    },
    {
      "time": 15.375,
      "note": 81,
      "duration": 0.5,
      "velocity": 100
    },
    {
      "time": 15.375,
      "note": 79,
      "duration": 1.0,
      "velocity": 100
    },
    {
      "time": 16.75,
      "note": 81,
      "duration": 0.125,
      "velocity": 100
    },
    {
      "time": 16.875,
      "note": 81,
      "duration": 0.125,
      "velocity": 100
    },
    {
      "time": 17.0,
      "note": 83,
      "duration": 0.25,
      "velocity": 100
    },
    {
      "time": 17.25,
      "note": 84,
      "duration": 0.125,
      "velocity": 100
    },
    {
      "time": 17.375,
      "note": 84,
      "duration": 0.125,
      "velocity": 100
    },
    {
      "time": 17.5,
      "note": 83,
      "duration": 0.375,
      "velocity": 100
    },
    {
      "time": 17.875,
      "note": 83,
      "duration": 0.5,
      "velocity": 100
    },
    {
      "time": 18.5,
      "note": 79,
      "duration": 0.125,
      "velocity": 100
    },
    {
      "time": 18.625,
      "note": 79,
      "duration": 0.125,
      "velocity": 100
    },
    {
      "time": 18.75,
      "note": 79,
      "duration": 0.125,
      "velocity": 100
    },
    {
      "time": 18.875,
      "note": 81,
      "duration": 0.375,
      "velocity": 100
    },
    {
      "time": 19.25,
      "note": 83,
      "duration": 0.125,
      "velocity": 100
    },
    {
      "time": 19.625,
      "note": 84,
      "duration": 0.5,
      "velocity": 100
    },
    {
      "time": 20.75,
      "note": 79,
      "duration": 0.125,
      "velocity": 100
    },
    {
      "time": 20.875,
      "note": 79,
      "duration": 0.125,
      "velocity": 100
    },
    {
      "time": 21.0,
      "note": 79,
      "duration": 0.125,
      "velocity": 100
    },
    {
      "time": 21.125,
      "note": 79,
      "duration": 0.125,
      "velocity": 100
    },
    {
      "time": 21.25,
      "note": 79,
      "duration": 0.125,
      "velocity": 100
    },
    {
      "time": 21.375,
      "note": 81,
      "duration": 0.125,
      "velocity": 100
    },
    {
      "time": 21.5,
      "note": 83,
      "duration": 0.125,
      "velocity": 100
    },
    {
      "time": 21.625,
      "note": 84,
      "duration": 0.5,
      "velocity": 100
    },
    {
      "time": 23.25,
      "note": 81,
      "duration": 0.125,
      "velocity": 100
    },
    {
      "time": 23.375,
      "note": 81,
      "duration": 0.125,
      "velocity": 100
    },
    {
      "time": 23.5,
      "note": 84,
      "duration": 0.125,
      "velocity": 100
    },
    {
      "time": 23.625,
      "note": 88,
      "duration": 0.125,
      "velocity": 100
    },
    {
      "time": 23.75,
      "note": 86,
      "duration": 0.25,
      "velocity": 100
    },
    {
      "time": 24.0,
      "note": 86,
      "duration": 0.125,
      "velocity": 100
    },
    {
      "time": 24.125,
      "note": 86,
      "duration": 0.25,
      "velocity": 100
    },
    {
      "time": 24.375,
      "note": 84,
      "duration": 0.125,
      "velocity": 100
    },
    {
      "time": 24.5,
      "note": 84,
      "duration": 0.125,
      "velocity": 100
    },
    {
      "time": 23.625,
      "note": 84,
      "duration": 0.125,
      "velocity": 100
    },
    {
      "time": 23.75,
      "note": 81,
      "duration": 0.375,
      "velocity": 100
    },
    {
      "time": 24.25,
      "note": 81,
      "duration": 0.125,
      "velocity": 100
    },
    {
      "time": 24.375,
      "note": 81,
      "duration": 0.125,
      "velocity": 100
    },
    {
      "time": 24.5,
      "note": 84,
      "duration": 0.125,
      "velocity": 100
    },
    {
      "time": 24.625,
      "note": 88,
      "duration": 0.125,
      "velocity": 100
    },
    {
      "time": 24.75,
      "note": 86,
      "duration": 0.125,
      "velocity": 100
    },
    {
      "time": 24.875,
      "note": 86,
      "duration": 0.125,
      "velocity": 100
    },
    {
      "time": 25.0,
      "note": 86,
      "duration": 0.125,
      "velocity": 100
    },
    {
      "time": 25.125,
      "note": 86,
      "duration": 0.25,
      "velocity": 100
    },
    {
      "time": 25.375,
      "note": 84,
      "duration": 0.125,
      "velocity": 100
    },
    {
      "time": 25.5,
      "note": 84,
      "duration": 0.125,
      "velocity": 100
    },
    {
      "time": 25.625,
      "note": 84,
      "duration": 0.125,
      "velocity": 100
    },
    {
      "time": 25.75,
      "note": 81,
      "duration": 0.375,
      "velocity": 100
    },
    {
      "time": 26.375,
      "note": 74,
      "duration": 0.125,
      "velocity": 100
    },
    {
      "time": 26.5,
      "note": 74,
      "duration": 0.125,
      "velocity": 100
    },
    {
      "time": 26.625,
      "note": 79,
      "duration": 0.125,
      "velocity": 100
    },
    {
      "time": 26.75,
      "note": 79,
      "duration": 0.125,
      "velocity": 100
    },
    {
      "time": 26.875,
      "note": 79,
      "duration": 0.125,
      "velocity": 100
    },
    {
      "time": 27.0,
      "note": 77,
      "duration": 0.125,
      "velocity": 100
    },
    {
      "time": 27.125,
      "note": 79,
      "duration": 0.25,
      "velocity": 100
    },
    {
      "time": 27.375,
      "note": 79,
      "duration": 0.125,
      "velocity": 100
    },
    {
      "time": 27.5,
      "note": 77,
      "duration": 0.125,
      "velocity": 100
    },
    {
      "time": 27.625,
      "note": 79,
      "duration": 0.125,
      "velocity": 100
    },
    {
      "time": 27.75,
      "note": 79,
      "duration": 0.125,
      "velocity": 100
    },
    {
      "time": 27.875,
      "note": 79,
      "duration": 0.125,
      "velocity": 100
    },
    {
      "time": 28.0,
      "note": 77,
      "duration": 0.125,
      "velocity": 100
    },
    {
      "time": 28.125,
      "note": 79,
      "duration": 0.25,
      "velocity": 100
    },
    {
      "time": 28.375,
      "note": 81,
      "duration": 0.25,
      "velocity": 100
    },
    {
      "time": 28.75,
      "note": 79,
      "duration": 0.125,
      "velocity": 100
    },
    {
      "time": 28.875,
      "note": 79,
      "duration": 0.125,
      "velocity": 100
    },
    {
      "time": 29.0,
      "note": 79,
      "duration": 0.125,
      "velocity": 100
    },
    {
      "time": 29.125,
      "note": 81,
      "duration": 0.375,
      "velocity": 100
    },
    {
      "time": 29.5,
      "note": 83,
      "duration": 0.125,
      "velocity": 100
    },
    {
      "time": 29.625,
      "note": 79,
      "duration": 1.0,
      "velocity": 100
    },
    {
      "time": 31.125,
      "note": 79,
      "duration": 0.125,
      "velocity": 100
    },
    {
      "time": 31.25,
      "note": 77,
      "duration": 0.25,
      "velocity": 100
    },
    {
      "time": 31.5,
      "note": 76,
      "duration": 0.125,
      "velocity": 100
    },
    {
      "time": 31.625,
      "note": 88,
      "duration": 0.5,
      "velocity": 100
    },
    {
      "time": 32.125,
      "note": 88,
      "duration": 0.25,
      "velocity": 100
    },
    {
      "time": 32.375,
      "note": 89,
      "duration": 0.25,
      "velocity": 100
    },
    {
      "time": 32.625,
      "note": 91,
      "duration": 0.25,
      "velocity": 100
    },
    {
      "time": 32.875,
      "note": 93,
      "duration": 0.25,
      "velocity": 100
    },
    {
      "time": 31.625,
      "note": 77,
      "duration": 1.0,
      "velocity": 100
    },
    {
      "time": 32.625,
      "note": 93,
      "duration": 0.125,
      "velocity": 100
    },
    {
      "time": 32.75,
      "note": 91,
      "duration": 0.125,
      "velocity": 100
    },
    {
      "time": 32.875,
      "note": 89,
      "duration": 0.125,
      "velocity": 100
    },
    {
      "time": 33.0,
      "note": 91,
      "duration": 0.125,
      "velocity": 100
    },
    {
      "time": 33.125,
      "note": 91,
      "duration": 0.125,
      "velocity": 100
    },
    {
      "time": 33.25,
      "note": 88,
      "duration": 0.25,
      "velocity": 100
    },
    {
      "time": 33.5,
      "note": 84,
      "duration": 0.125,
      "velocity": 100
    },
    {
      "time": 33.625,
      "note": 88,
      "duration": 0.25,
      "velocity": 100
    },
    {
      "time": 32.625,
      "note": 77,
      "duration": 0.5,
      "velocity": 100
    },
    {
      "time": 33.125,
      "note": 77,
      "duration": 0.25,
      "velocity": 100
    },
    {
      "time": 33.375,
      "note": 76,
      "duration": 0.25,
      "velocity": 100
    },
    {
      "time": 33.625,
      "note": 72,
      "duration": 0.25,
      "velocity": 100
    },
    {
      "time": 33.875,
      "note": 84,
      "duration": 0.125,
      "velocity": 100
    },
    {
      "time": 34.0,
      "note": 88,
      "duration": 0.25,
      "velocity": 100
    },
    {
      "time": 34.25,
      "note": 83,
      "duration": 0.125,
      "velocity": 100
    },
    {
      "time": 34.375,
      "note": 81,
      "duration": 0.125,
      "velocity": 100
    },
    {
      "time": 34.5,
      "note": 81,
      "duration": 0.125,
      "velocity": 100
    },
    {
      "time": 34.625,
      "note": 79,
      "duration": 0.125,
      "velocity": 100
    },
    {
      "time": 34.75,
      "note": 81,
      "duration": 0.125,
      "velocity": 100
    },
    {
      "time": 34.875,
      "note": 83,
      "duration": 0.125,
      "velocity": 100
    },
    {
      "time": 33.875,
      "note": 72,
      "duration": 0.25,
      "velocity": 100
    },
    {
      "time": 34.25,
      "note": 74,
      "duration": 0.75,
      "velocity": 100
    },
    {
      "time": 35.0,
      "note": 74,
      "duration": 0.5,
      "velocity": 100
    },
    {
      "time": 36.25,
      "note": 79,
      "duration": 0.125,
      "velocity": 100
    },
    {
      "time": 36.375,
      "note": 77,
      "duration": 0.125,
      "velocity": 100
    },
    {
      "time": 36.5,
      "note": 77,
      "duration": 0.125,
      "velocity": 100
    },
    {
      "time": 36.625,
      "note": 76,
      "duration": 0.125,
      "velocity": 100
    },
    {
      "time": 36.75,
      "note": 76,
      "duration": 0.125,
      "velocity": 100
    },
    {
      "time": 36.875,
      "note": 76,
      "duration": 0.125,
      "velocity": 100
    },
    {
      "time": 37.0,
      "note": 77,
      "duration": 0.125,
      "velocity": 100
    },
    {
      "time": 37.125,
      "note": 79,
      "duration": 0.125,
      "velocity": 100
    },
    {
      "time": 37.25,
      "note": 79,
      "duration": 0.125,
      "velocity": 100
    },
    {
      "time": 37.375,
      "note": 77,
      "duration": 0.125,
      "velocity": 100
    },
    {
      "time": 37.5,
      "note": 76,
      "duration": 0.125,
      "velocity": 100
    },
    {
      "time": 37.625,
      "note": 76,
      "duration": 0.125,
      "velocity": 100
    },
    {
      "time": 37.75,
      "note": 76,
      "duration": 0.5,
      "velocity": 100
    },
    {
      "time": 38.25,
      "note": 79,
      "duration": 0.125,
      "velocity": 100
    },
    {
      "time": 38.375,
      "note": 74,
      "duration": 0.125,
      "velocity": 100
    },
    {
      "time": 38.5,
      "note": 74,
      "duration": 0.125,
      "velocity": 100
    },
    {
      "time": 38.625,
      "note": 74,
      "duration": 0.125,
      "velocity": 100
    },
    {
      "time": 38.75,
      "note": 74,
      "duration": 0.125,
      "velocity": 100
    },
    {
      "time": 38.875,
      "note": 74,
      "duration": 0.125,
      "velocity": 100
    },
    {
      "time": 39.0,
      "note": 77,
      "duration": 0.125,
      "velocity": 100
    },
    {
      "time": 39.125,
      "note": 79,
      "duration": 0.125,
      "velocity": 100
    },
    {
      "time": 39.25,
      "note": 79,
      "duration": 0.125,
      "velocity": 100
    },
    {
      "time": 39.375,
      "note": 74,
      "duration": 0.125,
      "velocity": 100
    },
    {
      "time": 39.5,
      "note": 74,
      "duration": 0.125,
      "velocity": 100
    },
    {
      "time": 39.625,
      "note": 74,
      "duration": 0.125,
      "velocity": 100
    },
    {
      "time": 39.75,
      "note": 74,
      "duration": 0.5,
      "velocity": 100
    },
    {
      "time": 40.375,
      "note": 69,
      "duration": 0.125,
      "velocity": 100
    },
    {
      "time": 40.5,
      "note": 71,
      "duration": 0.125,
      "velocity": 100
    },
    {
      "time": 40.625,
      "note": 72,
      "duration": 0.125,
      "velocity": 100
    },
    {
      "time": 40.75,
      "note": 74,
      "duration": 0.125,
      "velocity": 100
    },
    {
      "time": 40.875,
      "note": 76,
      "duration": 0.25,
      "velocity": 100
    },
    {
      "time": 41.125,
      "note": 76,
      "duration": 0.125,
      "velocity": 100
    },
    {
      "time": 41.25,
      "note": 76,
      "duration": 0.125,
      "velocity": 100
    },
    {
      "time": 41.375,
      "note": 77,
      "duration": 0.25,
      "velocity": 100
    },
    {
      "time": 41.625,
      "note": 76,
      "duration": 0.125,
      "velocity": 100
    },
    {
      "time": 41.75,
      "note": 76,
      "duration": 0.125,
      "velocity": 100
    },
    {
      "time": 41.875,
      "note": 72,
      "duration": 0.25,
      "velocity": 100
    },
    {
      "time": 42.125,
      "note": 72,
      "duration": 0.125,
      "velocity": 100
    },
    {
      "time": 42.25,
      "note": 72,
      "duration": 0.125,
      "velocity": 100
    },
    {
      "time": 42.375,
      "note": 74,
      "duration": 0.375,
      "velocity": 100
    },
    {
      "time": 42.75,
      "note": 74,
      "duration": 0.5,
      "velocity": 100
    },
    {
      "time": 43.25,
      "note": 74,
      "duration": 1.0,
      "velocity": 100
    }
  ],
  "chords": [
    {
      "time": 0.0,
      "notes": [
        60,
        64,
        67
      ],
      "duration": 2.107142857142857
    },
    {
      "time": 2.107142857142857,
      "notes": [
        69,
        72,
        76
      ],
      "duration": 2.107142857142857
    },
    {
      "time": 4.214285714285714,
      "notes": [
        62,
        65,
        69
      ],
      "duration": 2.107142857142857
    },
    {
      "time": 6.321428571428571,
      "notes": [
        67,
        71,
        74
      ],
      "duration": 2.107142857142857
    },
    {
      "time": 8.428571428571429,
      "notes": [
        67,
        71,
        74
      ],
      "duration": 2.107142857142857
    },
    {
      "time": 10.535714285714286,
      "notes": [
        62,
        65,
        69
      ],
      "duration": 2.107142857142857
    },
    {
      "time": 12.642857142857142,
      "notes": [
        67,
        71,
        74
      ],
      "duration": 2.107142857142857
    },
    {
      "time": 14.75,
      "notes": [
        65,
        69,
        72
      ],
      "duration": 2.107142857142857
    },
    {
      "time": 16.857142857142858,
      "notes": [
        67,
        71,
        74
      ],
      "duration": 2.107142857142857
    },
    {
      "time": 18.964285714285715,
      "notes": [
        60,
        64,
        67
      ],
      "duration": 2.107142857142857
    },
    {
      "time": 21.071428571428573,
      "notes": [
        69,
        72,
        76
      ],
      "duration": 2.107142857142857
    },
    {
      "time": 23.17857142857143,
      "notes": [
        62,
        65,
        69,
        72
      ],
      "duration": 2.107142857142857
    },
    {
      "time": 25.285714285714285,
      "notes": [
        65,
        69,
        72
      ],
      "duration": 2.107142857142857
    },
    {
      "time": 27.392857142857142,
      "notes": [
        62,
        65,
        69
      ],
      "duration": 2.107142857142857
    },
    {
      "time": 29.5,
      "notes": [
        67,
        71,
        74
      ],
      "duration": 2.107142857142857
    },
    {
      "time": 31.607142857142858,
      "notes": [
        62,
        65,
        69
      ],
      "duration": 2.107142857142857
    },
    {
      "time": 33.714285714285715,
      "notes": [
        67,
        71,
        74
      ],
      "duration": 2.107142857142857
    },
    {
      "time": 35.82142857142857,
      "notes": [
        60,
        64,
        67
      ],
      "duration": 2.107142857142857
    },
    {
      "time": 37.92857142857143,
      "notes": [
        67,
        71,
        74
      ],
      "duration": 2.107142857142857
    },
    {
      "time": 40.035714285714285,
      "notes": [
        62,
        65,
        69
      ],
      "duration": 2.107142857142857
    },
    {
      "time": 42.142857142857146,
      "notes": [
        67,
        71,
        74
      ],
      "duration": 2.107142857142857
    }
  ]
}