{
  "title": "Sonido Amazonico",
  "artist": "Los Mirlos (Peru)",
  "bpm": 120,
  "duration": 59.625,
  "audioFile": "",
  "notes": [
    {
      "time": 0.25,
      "note": 81,
      "duration": 0.25,
      "velocity": 100
    },
    {
      "time": 0.5,
      "note": 84,
      "duration": 0.25,
      "velocity": 100
    },
    {
      "time": 0.5,
      "note": 88,
      "duration": 0.25,
      "velocity": 100
    },
    {
      "time": 0.0,
      "note": 69,
      "duration": 0.5,
      "velocity": 100
    },
    {
      "time": 0.5,
      "note": 72,
      "duration": 0.25,
      "velocity": 100
    },
    {
      "time": 0.75,
      "note": 76,
      "duration": 0.25,
      "velocity": 100
    },
    {
      "time": 1.0,
      "note": 88,
      "duration": 1.0,
      "velocity": 100
    },
    {
      "time": 1.0,
      "note": 69,
      "duration": 0.5,
      "velocity": 100
    },
    {
      "time": 1.5,
      "note": 81,
      "duration": 0.125,
      "velocity": 100
    },
    {
      "time": 1.625,
      "note": 84,
      "duration": 0.125,
      "velocity": 100
    },
    {
      "time": 1.625,
      "note": 88,
      "duration": 0.125,
      "velocity": 100
    },
    {
      "time": 1.625,
      "note": 81,
      "duration": 0.125,
      "velocity": 100
    },
    {
      "time": 1.75,
      "note": 84,
      "duration": 0.125,
      "velocity": 100
    },
    {
      "time": 1.75,
      "note": 88,
      "duration": 0.125,
      "velocity": 100
    },
    {
      "time": 1.75,
      "note": 81,
      "duration": 0.125,
      "velocity": 100
    },
    {
      "time": 1.875,
      "note": 84,
      "duration": 0.125,
      "velocity": 100
    },
    {
      "time": 1.875,
      "note": 88,
      "duration": 0.125,
      "velocity": 100
    },
    {
      "time": 1.875,
      "note": 72,
      "duration": 0.25,
      "velocity": 100
    },
    {
      "time": 2.125,
      "note": 76,
      "duration": 0.25,
      "velocity": 100
    },
    {
      "time": 2.625,
      "note": 81,
      "duration": 0.25,
      "velocity": 100
    },
    {
      "time": 2.875,
      "note": 84,
      "duration": 0.25,
      "velocity": 100
    },
    {
      "time": 2.875,
      "note": 88,
      "duration": 0.25,
      "velocity": 100
    },
    {
      "time": 2.375,
      "note": 69,
      "duration": 0.5,
      "velocity": 100
    },
    {
      "time": 2.875,
      "note": 72,
      "duration": 0.25,
      "velocity": 100
    },
    {
      "time": 3.125,
      "note": 76,
      "duration": 0.25,
      "velocity": 100
    },
    {
      "time": 3.375,
      "note": 88,
      "duration": 1.0,
      "velocity": 100
    },
    {
      "time": 3.375,
      "note": 69,
      "duration": 0.125,
      "velocity": 100
    },
    {
      "time": 3.5,
      "note": 69,
      "duration": 0.125,
      "velocity": 100
    },
    {
      "time": 3.625,
      "note": 69,
      "duration": 0.125,
      "velocity": 100
    },
    {
      "time": 3.75,
      "note": 69,
      "duration": 0.125,
      "velocity": 100
    },
    {
      "time": 3.875,
      "note": 72,
      "duration": 0.25,
      "velocity": 100
    },
    {
      "time": 4.125,
      "note": 76,
      "duration": 0.25,
      "velocity": 100
    },
    {
      "time": 3.5,
      "note": 81,
      "duration": 0.125,
      "velocity": 100
    },
    {
      "time": 3.625,
      "note": 84,
      "duration": 0.125,
      "velocity": 100
    },
    {
      "time": 3.625,
      "note": 88,
      "duration": 0.125,
      "velocity": 100
    },
    {
      "time": 3.625,
      "note": 81,
      "duration": 0.125,
      "velocity": 100
    },
    {
      "time": 3.75,
      "note": 84,
      "duration": 0.125,
      "velocity": 100
    },
    {
      "time": 3.75,
      "note": 88,
      "duration": 0.125,
      "velocity": 100
    },
    {
      "time": 3.625,
      "note": 88,
      "duration": 1.0,
      "velocity": 100
    },
    {
      "time": 4.625,
      "note": 69,
      "duration": 0.5,
      "velocity": 100
    },
    {
      "time": 5.125,
      "note": 76,
      "duration": 0.25,
      "velocity": 100
    },
    {
      "time": 5.375,
      "note": 77,
      "duration": 0.25,
      "velocity": 100
    },
    {
      "time": 5.625,
      "note": 81,
      "duration": 0.25,
      "velocity": 100
    },
    {
      "time": 5.875,
      "note": 79,
      "duration": 0.25,
      "velocity": 100
    },
    {
      "time": 6.125,
      "note": 77,
      "duration": 0.25,
      "velocity": 100
    },
    {
      "time": 6.375,
      "note": 76,
      "duration": 0.25,
      "velocity": 100
    },
    {
      "time": 6.625,
      "note": 81,
      "duration": 0.5,
      "velocity": 100
    },
    {
      "time": 7.125,
      "note": 72,
      "duration": 0.25,
      "velocity": 100
    },
    {
      "time": 7.375,
      "note": 74,
      "duration": 0.25,
      "velocity": 100
    },
    {
      "time": 7.625,
      "note": 74,
      "duration": 0.125,
      "velocity": 100
    },
    {
      "time": 7.75,
      "note": 76,
      "duration": 0.125,
      "velocity": 100
    },
    {
      "time": 7.875,
      "note": 74,
      "duration": 0.25,
      "velocity": 100
    },
    {
      "time": 8.125,
      "note": 72,
      "duration": 0.25,
      "velocity": 100
    },
    {
      "time": 8.375,
      "note": 76,
      "duration": 0.25,
      "velocity": 100
    },
    {
      "time": 8.625,
      "note": 69,
      "duration": 0.5,
      "velocity": 100
    },
    {
      "time": 9.125,
      "note": 76,
      "duration": 0.25,
      "velocity": 100
    },
    {
      "time": 9.375,
      "note": 77,
      "duration": 0.25,
      "velocity": 100
    },
    {
      "time": 9.625,
      "note": 81,
      "duration": 0.25,
      "velocity": 100
    },
    {
      "time": 9.875,
      "note": 79,
      "duration": 0.25,
      "velocity": 100
    },
    {
      "time": 10.125,
      "note": 77,
      "duration": 0.25,
      "velocity": 100
    },
    {
      "time": 10.375,
      "note": 76,
      "duration": 0.25,
      "velocity": 100
    },
    {
      "time": 10.625,
      "note": 81,
      "duration": 0.5,
      "velocity": 100
    },
    {
      "time": 11.125,
      "note": 72,
      "duration": 0.25,
      "velocity": 100
    },
    {
      "time": 11.375,
      "note": 74,
      "duration": 0.25,
      "velocity": 100
    },
    {
      "time": 11.625,
      "note": 76,
      "duration": 0.25,
      "velocity": 100
    },
    {
      "time": 11.875,
      "note": 74,
      "duration": 0.25,
      "velocity": 100
    },
    {
      "time": 12.125,
      "note": 72,
      "duration": 0.25,
      "velocity": 100
    },
    {
      "time": 12.375,
      "note": 76,
      "duration": 0.25,
      "velocity": 100
    },
    {
      "time": 12.625,
      "note": 69,
      "duration": 0.5,
      "velocity": 100
    },
    {
      "time": 13.125,
      "note": 69,
      "duration": 0.25,
      "velocity": 100
    },
    {
      "time": 13.375,
      "note": 72,
      "duration": 0.25,
      "velocity": 100
    },
    {
      "time": 13.875,
      "note": 74,
      "duration": 0.25,
      "velocity": 100
    },
    {
      "time": 14.125,
      "note": 76,
      "duration": 0.25,
      "velocity": 100
    },
    {
      "time": 14.375,
      "note": 74,
      "duration": 0.25,
      "velocity": 100
    },
    {
      "time": 14.625,
      "note": 72,
      "duration": 0.25,
      "velocity": 100
    },
    {
      "time": 14.875,
      "note": 76,
      "duration": 0.5,
      "velocity": 100
    },
    {
      "time": 15.375,
      "note": 69,
      "duration": 0.25,
      "velocity": 100
    },
    {
      "time": 15.625,
      "note": 72,
      "duration": 0.25,
      "velocity": 100
    },
    {
      "time": 15.875,
      "note": 74,
      "duration": 0.25,
      "velocity": 100
    },
    {
      "time": 16.125,
      "note": 72,
      "duration": 0.25,
      "velocity": 100
    },
    {
      "time": 16.375,
      "note": 69,
      "duration": 0.25,
      "velocity": 100
    },
    {
      "time": 16.625,
      "note": 67,
      "duration": 0.25,
      "velocity": 100
    },
    {
      "time": 16.875,
      "note": 69,
      "duration": 0.5,
      "velocity": 100
    },
    {
      "time": 17.375,
      "note": 69,
      "duration": 0.25,
      "velocity": 100
    },
    {
      "time": 17.625,
      "note": 72,
      "duration": 0.25,
      "velocity": 100
    },
    {
      "time": 18.125,
      "note": 74,
      "duration": 0.25,
      "velocity": 100
    },
    {
      "time": 18.375,
      "note": 76,
      "duration": 0.25,
      "velocity": 100
    },
    {
      "time": 18.625,
      "note": 74,
      "duration": 0.25,
      "velocity": 100
    },
    {
      "time": 18.875,
      "note": 72,
      "duration": 0.25,
      "velocity": 100
    },
    {
      "time": 19.125,
      "note": 76,
      "duration": 0.5,
      "velocity": 100
    },
    {
      "time": 19.625,
      "note": 69,
      "duration": 0.25,
      "velocity": 100
    },
    {
      "time": 19.875,
      "note": 72,
      "duration": 0.25,
      "velocity": 100
    },
    {
      "time": 20.125,
      "note": 74,
      "duration": 0.25,
      "velocity": 100
    },
    {
      "time": 20.375,
      "note": 72,
      "duration": 0.25,
      "velocity": 100
    },
    {
      "time": 20.625,
      "note": 69,
      "duration": 0.25,
      "velocity": 100
    },
    {
      "time": 20.875,
      "note": 67,
      "duration": 0.25,
      "velocity": 100
    },
    {
      "time": 21.125,
      "note": 69,
      "duration": 0.5,
      "velocity": 100
    },
    {
      "time": 21.625,
      "note": 79,
      "duration": 0.25,
      "velocity": 100
    },
    {
      "time": 21.875,
      "note": 81,
      "duration": 0.25,
      "velocity": 100
    },
    {
      "time": 22.125,
      "note": 84,
      "duration": 0.25,
      "velocity": 100
    },
    {
      "time": 22.375,
      "note": 83,
      "duration": 0.25,
      "velocity": 100
    },
    {
      "time": 22.625,
      "note": 81,
      "duration": 0.25,
      "velocity": 100
    },
    {
      "time": 22.875,
      "note": 79,
      "duration": 0.25,
      "velocity": 100
    },
    {
      "time": 23.125,
      "note": 79,
      "duration": 0.5,
      "velocity": 100
    },
    {
      "time": 23.625,
      "note": 76,
      "duration": 0.25,
      "velocity": 100
    },
    {
      "time": 23.875,
      "note": 77,
      "duration": 0.25,
      "velocity": 100
    },
    {
      "time": 24.125,
      "note": 81,
      "duration": 0.25,
      "velocity": 100
    },
    {
      "time": 24.375,
      "note": 79,
      "duration": 0.25,
      "velocity": 100
    },
    {
      "time": 24.625,
      "note": 77,
      "duration": 0.25,
      "velocity": 100
    },
    {
      "time": 24.875,
      "note": 76,
      "duration": 0.25,
      "velocity": 100
    },
    {
      "time": 25.125,
      "note": 76,
      "duration": 0.5,
      "velocity": 100
    },
    {
      "time": 25.625,
      "note": 79,
      "duration": 0.25,
      "velocity": 100
    },
    {
      "time": 25.875,
      "note": 81,
      "duration": 0.25,
      "velocity": 100
    },
    {
      "time": 26.125,
      "note": 84,
      "duration": 0.25,
      "velocity": 100
    },
    {
      "time": 26.375,
      "note": 83,
      "duration": 0.25,
      "velocity": 100
    },
    {
      "time": 26.625,
      "note": 81,
      "duration": 0.25,
      "velocity": 100
    },
    {
      "time": 26.875,
      "note": 79,
      "duration": 0.25,
      "velocity": 100
    },
    {
      "time": 27.125,
      "note": 79,
      "duration": 0.5,
      "velocity": 100
    },
    {
      "time": 27.625,
      "note": 76,
      "duration": 0.25,
      "velocity": 100
    },
    {
      "time": 27.875,
      "note": 77,
      "duration": 0.25,
      "velocity": 100
    },
    {
      "time": 28.125,
      "note": 81,
      "duration": 0.25,
      "velocity": 100
    },
    {
      "time": 28.375,
      "note": 79,
      "duration": 0.25,
      "velocity": 100
    },
    {
      "time": 28.625,
      "note": 77,
      "duration": 0.25,
      "velocity": 100
    },
    {
      "time": 28.875,
      "note": 76,
      "duration": 0.25,
      "velocity": 100
    },
    {
      "time": 29.125,
      "note": 69,
      "duration": 0.5,
      "velocity": 100
    },
    {
      "time": 29.625,
      "note": 69,
      "duration": 0.25,
      "velocity": 100
    },
    {
      "time": 29.875,
      "note": 72,
      "duration": 0.25,
      "velocity": 100
    },
    {
      "time": 30.375,
      "note": 74,
      "duration": 0.25,
      "velocity": 100
    },
    {
      "time": 30.625,
      "note": 76,
      "duration": 0.25,
      "velocity": 100
    },
    {
      "time": 30.875,
      "note": 74,
      "duration": 0.25,
      "velocity": 100
    },
    {
      "time": 31.125,
      "note": 72,
      "duration": 0.25,
      "velocity": 100
    },
    {
      "time": 31.375,
      "note": 76,
      "duration": 0.5,
      "velocity": 100
    },
    {
      "time": 31.875,
      "note": 69,
      "duration": 0.25,
      "velocity": 100
    },
    {
      "time": 32.125,
      "note": 72,
      "duration": 0.25,
      "velocity": 100
    },
    {
      "time": 32.375,
      "note": 74,
      "duration": 0.25,
      "velocity": 100
    },
    {
      "time": 32.625,
      "note": 72,
      "duration": 0.25,
      "velocity": 100
    },
    {
      "time": 32.875,
      "note": 69,
      "duration": 0.25,
      "velocity": 100
    },
    {
      "time": 33.125,
      "note": 67,
      "duration": 0.25,
      "velocity": 100
    },
    {
      "time": 33.375,
      "note": 69,
      "duration": 0.5,
      "velocity": 100
    },
    {
      "time": 33.875,
      "note": 69,
      "duration": 0.25,
      "velocity": 100
    },
    {
      "time": 34.125,
      "note": 72,
      "duration": 0.25,
      "velocity": 100
    },
    {
      "time": 34.375,
      "note": 74,
      "duration": 0.25,
      "velocity": 100
    },
    {
      "time": 34.625,
      "note": 75,
      "duration": 0.25,
      "velocity": 100
    },
    {
      "time": 34.875,
      "note": 74,
      "duration": 0.25,
      "velocity": 100
    },
    {
      "time": 35.125,
      "note": 72,
      "duration": 0.25,
      "velocity": 100
    },
    {
      "time": 35.375,
      "note": 76,
      "duration": 0.5,
      "velocity": 100
    },
    {
      "time": 35.875,
      "note": 69,
      "duration": 0.25,
      "velocity": 100
    },
    {
      "time": 36.125,
      "note": 72,
      "duration": 0.25,
      "velocity": 100
    },
    {
      "time": 36.375,
      "note": 74,
      "duration": 0.25,
      "velocity": 100
    },
    {
      "time": 36.625,
      "note": 72,
      "duration": 0.25,
      "velocity": 100
    },
    {
      "time": 36.875,
      "note": 69,
      "duration": 0.25,
      "velocity": 100
    },
    {
      "time": 37.125,
      "note": 67,
      "duration": 0.25,
      "velocity": 100
    },
    {
      "time": 37.625,
      "note": 69,
      "duration": 0.5,
      "velocity": 100
    },
    {
      "time": 38.125,
      "note": 72,
      "duration": 0.25,
      "velocity": 100
    },
    {
      "time": 38.375,
      "note": 76,
      "duration": 0.25,
      "velocity": 100
    },
    {
      "time": 38.625,
      "note": 81,
      "duration": 0.125,
      "velocity": 100
    },
    {
      "time": 38.75,
      "note": 81,
      "duration": 0.125,
      "velocity": 100
    },
    {
      "time": 38.875,
      "note": 81,
      "duration": 0.125,
      "velocity": 100
    },
    {
      "time": 39.0,
      "note": 81,
      "duration": 0.125,
      "velocity": 100
    },
    {
      "time": 39.125,
      "note": 81,
      "duration": 0.125,
      "velocity": 100
    },
    {
      "time": 39.25,
      "note": 81,
      "duration": 0.125,
      "velocity": 100
    },
    {
      "time": 39.375,
      "note": 81,
      "duration": 0.125,
      "velocity": 100
    },
    {
      "time": 39.5,
      "note": 81,
      "duration": 0.125,
      "velocity": 100
    },
    {
      "time": 39.625,
      "note": 81,
      "duration": 0.125,
      "velocity": 100
    },
    {
      "time": 39.75,
      "note": 81,
      "duration": 0.125,
      "velocity": 100
    },
    {
      "time": 39.875,
      "note": 81,
      "duration": 0.125,
      "velocity": 100
    },
    {
      "time": 40.0,
      "note": 81,
      "duration": 0.125,
      "velocity": 100
    },
    {
      "time": 40.125,
      "note": 81,
      "duration": 0.125,
      "velocity": 100
    },
    {
      "time": 40.25,
      "note": 81,
      "duration": 0.125,
      "velocity": 100
    },
    {
      "time": 40.625,
      "note": 86,
      "duration": 0.5,
      "velocity": 100
    },
    {
      "time": 41.125,
      "note": 86,
      "duration": 0.5,
      "velocity": 100
    },
    {
      "time": 41.625,
      "note": 86,
      "duration": 0.5,
      "velocity": 100
    },
    {
      "time": 42.125,
      "note": 91,
      "duration": 0.25,
      "velocity": 100
    },
    {
      "time": 42.375,
      "note": 91,
      "duration": 0.25,
      "velocity": 100
    },
    {
      "time": 42.125,
      "note": 91,
      "duration": 1.0,
      "velocity": 100
    },
    {
      "time": 43.125,
      "note": 86,
      "duration": 0.25,
      "velocity": 100
    },
    {
      "time": 43.375,
      "note": 86,
      "duration": 0.25,
      "velocity": 100
    },
    {
      "time": 43.625,
      "note": 83,
      "duration": 0.25,
      "velocity": 100
    },
    {
      "time": 43.875,
      "note": 83,
      "duration": 0.25,
      "velocity": 100
    },
    {
      "time": 44.125,
      "note": 79,
      "duration": 0.25,
      "velocity": 100
    },
    {
      "time": 44.375,
      "note": 79,
      "duration": 0.25,
      "velocity": 100
    },
    {
      "time": 44.625,
      "note": 83,
      "duration": 0.25,
      "velocity": 100
    },
    {
      "time": 44.875,
      "note": 83,
      "duration": 0.25,
      "velocity": 100
    },
    {
      "time": 45.125,
      "note": 86,
      "duration": 0.25,
      "velocity": 100
    },
    {
      "time": 45.375,
      "note": 86,
      "duration": 0.25,
      "velocity": 100
    },
    {
      "time": 45.625,
      "note": 91,
      "duration": 0.25,
      "velocity": 100
    },
    {
      "time": 45.875,
      "note": 91,
      "duration": 0.25,
      "velocity": 100
    },
    {
      "time": 45.625,
      "note": 91,
      "duration": 1.0,
      "velocity": 100
    },
    {
      "time": 46.625,
      "note": 86,
      "duration": 0.25,
      "velocity": 100
    },
    {
      "time": 46.875,
      "note": 86,
      "duration": 0.25,
      "velocity": 100
    },
    {
      "time": 47.125,
      "note": 83,
      "duration": 0.25,
      "velocity": 100
    },
    {
      "time": 47.375,
      "note": 83,
      "duration": 0.25,
      "velocity": 100
    },
    {
      "time": 47.625,
      "note": 81,
      "duration": 0.5,
      "velocity": 100
    },
    {
      "time": 48.125,
      "note": 81,
      "duration": 0.25,
      "velocity": 100
    },
    {
      "time": 48.375,
      "note": 83,
      "duration": 0.25,
      "velocity": 100
    },
    {
      "time": 48.625,
      "note": 84,
      "duration": 0.5,
      "velocity": 100
    },
    {
      "time": 49.125,
      "note": 83,
      "duration": 0.5,
      "velocity": 100
    },
    {
      "time": 49.625,
      "note": 81,
      "duration": 0.5,
      "velocity": 100
    },
    {
      "time": 50.125,
      "note": 81,
      "duration": 0.25,
      "velocity": 100
    },
    {
      "time": 50.375,
      "note": 83,
      "duration": 0.25,
      "velocity": 100
    },
    {
      "time": 50.625,
      "note": 84,
      "duration": 0.25,
      "velocity": 100
    },
    {
      "time": 50.875,
      "note": 88,
      "duration": 0.25,
      "velocity": 100
    },
    {
      "time": 51.125,
      "note": 84,
      "duration": 0.25,
      "velocity": 100
    },
    {
      "time": 51.375,
      "note": 83,
      "duration": 0.25,
      "velocity": 100
    },
    {
      "time": 51.625,
      "note": 81,
      "duration": 0.5,
      "velocity": 100
    },
    {
      "time": 52.125,
      "note": 81,
      "duration": 0.25,
      "velocity": 100
    },
    {
      "time": 52.375,
      "note": 83,
      "duration": 0.25,
      "velocity": 100
    },
    {
      "time": 52.625,
      "note": 84,
      "duration": 0.5,
      "velocity": 100
    },
    {
      "time": 53.125,
      "note": 83,
      "duration": 0.5,
      "velocity": 100
    },
    {
      "time": 53.625,
      "note": 81,
      "duration": 0.5,
      "velocity": 100
    },
    {
      "time": 54.125,
      "note": 81,
      "duration": 0.25,
      "velocity": 100
    },
    {
      "time": 54.375,
      "note": 83,
      "duration": 0.25,
      "velocity": 100
    },
    {
      "time": 54.625,
      "note": 84,
      "duration": 0.25,
      "velocity": 100
    },
    {
      "time": 54.875,
      "note": 88,
      "duration": 0.25,
      "velocity": 100
    },
    {
      "time": 55.125,
      "note": 84,
      "duration": 0.25,
      "velocity": 100
    },
    {
      "time": 55.375,
      "note": 83,
      "duration": 0.25,
      "velocity": 100
    },
    {
      "time": 55.625,
      "note": 81,
      "duration": 1.0,
      "velocity": 100
    },
    {
      "time": 56.625,
      "note": 86,
      "duration": 1.0,
      "velocity": 100
    },
    {
      "time": 56.625,
      "note": 81,
      "duration": 1.0,
      "velocity": 100
    },
    {
      "time": 57.625,
      "note": 69,
      "duration": 1.0,
      "velocity": 100
    },
    {
      "time": 58.625,
      "note": 74,
      "duration": 1.0,
      "velocity": 100
    },
    {
      "time": 58.625,
      "note": 77,
      "duration": 1.0,
      "velocity": 100
    },
    {
      "time": 58.625,
      "note": 81,
      "duration": 1.0,
      "velocity": 100
    },
    {
      "time": 58.625,
      "note": 69,
      "duration": 1.0,
      "velocity": 100
    },
    {
      "time": 59.625,
      "note": 74,
      "duration": 1.0,
      "velocity": 100
    },
    {
      "time": 59.625,
      "note": 77,
      "duration": 1.0,
      "velocity": 100
    },
    {
      "time": 59.625,
      "note": 81,
      "duration": 1.0,
      "velocity": 100
    }
  ],
  "chords": [
    {
      "time": 0.0,
      "notes": [
        69,
        72,
        76
      ],
      "duration": 2.8392857142857144
    },
    {
      "time": 2.8392857142857144,
      "notes": [
        69,
        72,
        76
      ],
      "duration": 2.8392857142857144
    },
    {
      "time": 5.678571428571429,
      "notes": [
        64,
        68,
        71
      ],
      "duration": 2.8392857142857144
    },
    {
      "time": 8.517857142857142,
      "notes": [
        69,
        72,
        76
      ],
      "duration": 2.8392857142857144
    },
    {
      "time": 11.357142857142858,
      "notes": [
        64,
        68,
        71
      ],
      "duration": 2.8392857142857144
    },
    {
      "time": 14.196428571428573,
      "notes": [
        65,
        69,
        72
      ],
      "duration": 2.8392857142857144
    },
    {
      "time": 17.035714285714285,
      "notes": [
        69,
        72,
        76
      ],
      "duration": 2.8392857142857144
    },
    {
      "time": 19.875,
      "notes": [
        64,
        68,
        71
      ],
      "duration": 2.8392857142857144
    },
    {
      "time": 22.714285714285715,
      "notes": [
        69,
        72,
        76
      ],
      "duration": 2.8392857142857144
    },
    {
      "time": 25.55357142857143,
      "notes": [
        65,
        69,
        72
      ],
      "duration": 2.8392857142857144
    },
    {
      "time": 28.392857142857146,
      "notes": [
        69,
        72,
        76
      ],
      "duration": 2.8392857142857144
    },
    {
      "time": 31.232142857142858,
      "notes": [
        64,
        68,
        71
      ],
      "duration": 2.8392857142857144
    },
    {
      "time": 34.07142857142857,
      "notes": [
        69,
        72,
        76
      ],
      "duration": 2.8392857142857144
    },
    {
      "time": 36.910714285714285,
      "notes": [
        65,
        69,
        72
      ],
      "duration": 2.8392857142857144
    },
    {
      "time": 39.75,
      "notes": [
        69,
        72,
        76
      ],
      "duration": 2.8392857142857144
    },
    {
      "time": 42.589285714285715,
      "notes": [
        64,
        68,
        71
      ],
      "duration": 2.8392857142857144
    },
    {
      "time": 45.42857142857143,
      "notes": [
        69,
        72,
        76
      ],
      "duration": 2.8392857142857144
    },
    {
      "time": 48.267857142857146,
      "notes": [
        65,
        69,
        72
      ],
      "duration": 2.8392857142857144
    },
    {
      "time": 51.10714285714286,
      "notes": [
        69,
        72,
        76
      ],
      "duration": 2.8392857142857144
    },
    {
      "time": 53.94642857142858,
      "notes": [
        64,
        68,
        71
      ],
      "duration": 2.8392857142857144
    },
    {
      "time": 56.78571428571429,
      "notes": [
        69,
        72,
        76
      ],
      "duration": 2.8392857142857144
    }
  ]
}