{
  "title": "Movidito movidito",
  "artist": "Sebastian",
  "bpm": 120,
  "duration": 56.5,
  "audioFile": "",
  "notes": [
    {
      "time": 0.0,
      "note": 74,
      "duration": 0.375,
      "velocity": 100
    },
    {
      "time": 0.375,
      "note": 79,
      "duration": 0.375,
      "velocity": 100
    },
    {
      "time": 0.375,
      "note": 79,
      "duration": 0.125,
      "velocity": 100
    },
    {
      "time": 0.5,
      "note": 82,
      "duration": 0.125,
      "velocity": 100
    },
    {
      "time": 0.75,
      "note": 74,
      "duration": 0.5,
      "velocity": 100
    },
    {
      "time": 1.25,
      "note": 82,
      "duration": 0.5,
      "velocity": 100
    },
    {
      "time": 1.25,
      "note": 87,
      "duration": 0.5,
      "velocity": 100
    },
    {
      "time": 1.25,
      "note": 82,
      "duration": 0.25,
      "velocity": 100
    },
    {
      "time": 1.5,
      "note": 87,
      "duration": 0.25,
      "velocity": 100
    },
    {
      "time": 1.5,
      "note": 82,
      "duration": 0.25,
      "velocity": 100
    },
    {
      "time": 1.75,
      "note": 86,
      "duration": 0.25,
      "velocity": 100
    },
    {
      "time": 1.75,
      "note": 82,
      "duration": 0.25,
      "velocity": 100
    },
    {
      "time": 2.0,
      "note": 87,
      "duration": 0.25,
      "velocity": 100
    },
    {
      "time": 2.0,
      "note": 82,
      "duration": 0.25,
      "velocity": 100
    },
    {
      "time": 2.25,
      "note": 86,
      "duration": 0.25,
      "velocity": 100
    },
    {
      "time": 2.25,
      "note": 74,
      "duration": 0.375,
      "velocity": 100
    },
    {
      "time": 2.625,
      "note": 77,
      "duration": 0.375,
      "velocity": 100
    },
    {
      "time": 2.625,
      "note": 77,
      "duration": 0.125,
      "velocity": 100
    },
    {
      "time": 2.75,
      "note": 81,
      "duration": 0.125,
      "velocity": 100
    },
    {
      "time": 2.75,
      "note": 77,
      "duration": 0.25,
      "velocity": 100
    },
    {
      "time": 3.0,
      "note": 81,
      "duration": 0.25,
      "velocity": 100
    },
    {
      "time": 3.0,
      "note": 84,
      "duration": 0.25,
      "velocity": 100
    },
    {
      "time": 3.25,
      "note": 87,
      "duration": 0.25,
      "velocity": 100
    },
    {
      "time": 3.25,
      "note": 84,
      "duration": 0.25,
      "velocity": 100
    },
    {
      "time": 3.5,
      "note": 87,
      "duration": 0.25,
      "velocity": 100
    },
    {
      "time": 3.5,
      "note": 82,
      "duration": 0.25,
      "velocity": 100
    },
    {
      "time": 3.75,
      "note": 86,
      "duration": 0.25,
      "velocity": 100
    },
    {
      "time": 3.75,
      "note": 84,
      "duration": 0.25,
      "velocity": 100
    },
    {
      "time": 4.0,
      "note": 87,
      "duration": 0.25,
      "velocity": 100
    },
    {
      "time": 4.0,
      "note": 82,
      "duration": 0.25,
      "velocity": 100
    },
    {
      "time": 4.25,
      "note": 86,
      "duration": 0.25,
      "velocity": 100
    },
    {
      "time": 4.25,
      "note": 84,
      "duration": 1.0,
      "velocity": 100
    },
    {
      "time": 5.25,
      "note": 74,
      "duration": 0.375,
      "velocity": 100
    },
    {
      "time": 5.625,
      "note": 79,
      "duration": 0.375,
      "velocity": 100
    },
    {
      "time": 5.625,
      "note": 79,
      "duration": 0.125,
      "velocity": 100
    },
    {
      "time": 5.75,
      "note": 82,
      "duration": 0.125,
      "velocity": 100
    },
    {
      "time": 6.0,
      "note": 82,
      "duration": 0.25,
      "velocity": 100
    },
    {
      "time": 6.25,
      "note": 88,
      "duration": 0.25,
      "velocity": 100
    },
    {
      "time": 6.25,
      "note": 82,
      "duration": 0.25,
      "velocity": 100
    },
    {
      "time": 6.5,
      "note": 88,
      "duration": 0.25,
      "velocity": 100
    },
    {
      "time": 6.5,
      "note": 82,
      "duration": 0.25,
      "velocity": 100
    },
    {
      "time": 6.75,
      "note": 86,
      "duration": 0.25,
      "velocity": 100
    },
    {
      "time": 6.75,
      "note": 82,
      "duration": 0.25,
      "velocity": 100
    },
    {
      "time": 7.0,
      "note": 88,
      "duration": 0.25,
      "velocity": 100
    },
    {
      "time": 7.0,
      "note": 82,
      "duration": 0.25,
      "velocity": 100
    },
    {
      "time": 7.25,
      "note": 86,
      "duration": 0.25,
      "velocity": 100
    },
    {
      "time": 7.25,
      "note": 74,
      "duration": 0.375,
      "velocity": 100
    },
    {
      "time": 7.625,
      "note": 77,
      "duration": 0.375,
      "velocity": 100
    },
    {
      "time": 7.625,
      "note": 77,
      "duration": 0.125,
      "velocity": 100
    },
    {
      "time": 7.75,
      "note": 81,
      "duration": 0.125,
      "velocity": 100
    },
    {
      "time": 7.75,
      "note": 77,
      "duration": 0.25,
      "velocity": 100
    },
    {
      "time": 8.0,
      "note": 81,
      "duration": 0.25,
      "velocity": 100
    },
    {
      "time": 8.0,
      "note": 84,
      "duration": 0.25,
      "velocity": 100
    },
    {
      "time": 8.25,
      "note": 88,
      "duration": 0.25,
      "velocity": 100
    },
    {
      "time": 8.25,
      "note": 84,
      "duration": 0.25,
      "velocity": 100
    },
    {
      "time": 8.5,
      "note": 88,
      "duration": 0.25,
      "velocity": 100
    },
    {
      "time": 8.5,
      "note": 82,
      "duration": 0.25,
      "velocity": 100
    },
    {
      "time": 8.75,
      "note": 86,
      "duration": 0.25,
      "velocity": 100
    },
    {
      "time": 8.75,
      "note": 84,
      "duration": 0.25,
      "velocity": 100
    },
    {
      "time": 9.0,
      "note": 88,
      "duration": 0.25,
      "velocity": 100
    },
    {
      "time": 9.0,
      "note": 82,
      "duration": 0.25,
      "velocity": 100
    },
    {
      "time": 9.25,
      "note": 86,
      "duration": 0.25,
      "velocity": 100
    },
    {
      "time": 9.25,
      "note": 86,
      "duration": 1.0,
      "velocity": 100
    },
    {
      "time": 10.25,
      "note": 91,
      "duration": 1.0,
      "velocity": 100
    },
    {
      "time": 10.5,
      "note": 86,
      "duration": 0.125,
      "velocity": 100
    },
    {
      "time": 10.625,
      "note": 86,
      "duration": 0.125,
      "velocity": 100
    },
    {
      "time": 10.875,
      "note": 84,
      "duration": 0.125,
      "velocity": 100
    },
    {
      "time": 11.0,
      "note": 82,
      "duration": 0.25,
      "velocity": 100
    },
    {
      "time": 11.25,
      "note": 84,
      "duration": 0.25,
      "velocity": 100
    },
    {
      "time": 11.5,
      "note": 84,
      "duration": 0.125,
      "velocity": 100
    },
    {
      "time": 11.625,
      "note": 84,
      "duration": 0.125,
      "velocity": 100
    },
    {
      "time": 11.875,
      "note": 82,
      "duration": 0.125,
      "velocity": 100
    },
    {
      "time": 12.0,
      "note": 81,
      "duration": 0.25,
      "velocity": 100
    },
    {
      "time": 12.25,
      "note": 82,
      "duration": 0.25,
      "velocity": 100
    },
    {
      "time": 12.5,
      "note": 82,
      "duration": 0.125,
      "velocity": 100
    },
    {
      "time": 12.625,
      "note": 82,
      "duration": 0.125,
      "velocity": 100
    },
    {
      "time": 12.875,
      "note": 81,
      "duration": 0.125,
      "velocity": 100
    },
    {
      "time": 13.0,
      "note": 79,
      "duration": 0.25,
      "velocity": 100
    },
    {
      "time": 13.25,
      "note": 74,
      "duration": 0.375,
      "velocity": 100
    },
    {
      "time": 13.625,
      "note": 77,
      "duration": 0.375,
      "velocity": 100
    },
    {
      "time": 13.625,
      "note": 77,
      "duration": 0.125,
      "velocity": 100
    },
    {
      "time": 13.75,
      "note": 81,
      "duration": 0.125,
      "velocity": 100
    },
    {
      "time": 14.0,
      "note": 72,
      "duration": 0.25,
      "velocity": 100
    },
    {
      "time": 14.25,
      "note": 75,
      "duration": 0.25,
      "velocity": 100
    },
    {
      "time": 14.25,
      "note": 72,
      "duration": 0.25,
      "velocity": 100
    },
    {
      "time": 14.5,
      "note": 75,
      "duration": 0.25,
      "velocity": 100
    },
    {
      "time": 14.5,
      "note": 69,
      "duration": 0.25,
      "velocity": 100
    },
    {
      "time": 14.75,
      "note": 74,
      "duration": 0.25,
      "velocity": 100
    },
    {
      "time": 14.75,
      "note": 72,
      "duration": 0.25,
      "velocity": 100
    },
    {
      "time": 15.0,
      "note": 75,
      "duration": 0.25,
      "velocity": 100
    },
    {
      "time": 15.0,
      "note": 69,
      "duration": 0.25,
      "velocity": 100
    },
    {
      "time": 15.25,
      "note": 74,
      "duration": 0.25,
      "velocity": 100
    },
    {
      "time": 15.25,
      "note": 74,
      "duration": 0.375,
      "velocity": 100
    },
    {
      "time": 15.625,
      "note": 77,
      "duration": 0.375,
      "velocity": 100
    },
    {
      "time": 15.625,
      "note": 77,
      "duration": 0.125,
      "velocity": 100
    },
    {
      "time": 15.75,
      "note": 81,
      "duration": 0.125,
      "velocity": 100
    },
    {
      "time": 16.0,
      "note": 72,
      "duration": 0.25,
      "velocity": 100
    },
    {
      "time": 16.25,
      "note": 75,
      "duration": 0.25,
      "velocity": 100
    },
    {
      "time": 16.25,
      "note": 72,
      "duration": 0.25,
      "velocity": 100
    },
    {
      "time": 16.5,
      "note": 75,
      "duration": 0.25,
      "velocity": 100
    },
    {
      "time": 16.5,
      "note": 69,
      "duration": 0.25,
      "velocity": 100
    },
    {
      "time": 16.75,
      "note": 74,
      "duration": 0.25,
      "velocity": 100
    },
    {
      "time": 16.75,
      "note": 72,
      "duration": 0.25,
      "velocity": 100
    },
    {
      "time": 17.0,
      "note": 75,
      "duration": 0.25,
      "velocity": 100
    },
    {
      "time": 17.0,
      "note": 69,
      "duration": 0.25,
      "velocity": 100
    },
    {
      "time": 17.25,
      "note": 74,
      "duration": 0.25,
      "velocity": 100
    },
    {
      "time": 17.25,
      "note": 84,
      "duration": 1.0,
      "velocity": 100
    },
    {
      "time": 18.25,
      "note": 74,
      "duration": 0.375,
      "velocity": 100
    },
    {
      "time": 18.625,
      "note": 79,
      "duration": 0.375,
      "velocity": 100
    },
    {
      "time": 18.625,
      "note": 79,
      "duration": 0.125,
      "velocity": 100
    },
    {
      "time": 18.75,
      "note": 82,
      "duration": 0.125,
      "velocity": 100
    },
    {
      "time": 19.0,
      "note": 70,
      "duration": 0.25,
      "velocity": 100
    },
    {
      "time": 19.25,
      "note": 76,
      "duration": 0.25,
      "velocity": 100
    },
    {
      "time": 19.25,
      "note": 70,
      "duration": 0.25,
      "velocity": 100
    },
    {
      "time": 19.5,
      "note": 76,
      "duration": 0.25,
      "velocity": 100
    },
    {
      "time": 19.5,
      "note": 86,
      "duration": 0.125,
      "velocity": 100
    },
    {
      "time": 19.625,
      "note": 86,
      "duration": 0.125,
      "velocity": 100
    },
    {
      "time": 17.25,
      "note": 74,
      "duration": 0.375,
      "velocity": 100
    },
    {
      "time": 17.625,
      "note": 77,
      "duration": 0.375,
      "velocity": 100
    },
    {
      "time": 17.625,
      "note": 77,
      "duration": 0.125,
      "velocity": 100
    },
    {
      "time": 17.75,
      "note": 81,
      "duration": 0.125,
      "velocity": 100
    },
    {
      "time": 18.0,
      "note": 72,
      "duration": 0.25,
      "velocity": 100
    },
    {
      "time": 18.25,
      "note": 76,
      "duration": 0.25,
      "velocity": 100
    },
    {
      "time": 18.25,
      "note": 72,
      "duration": 0.25,
      "velocity": 100
    },
    {
      "time": 18.5,
      "note": 76,
      "duration": 0.25,
      "velocity": 100
    },
    {
      "time": 18.5,
      "note": 69,
      "duration": 0.25,
      "velocity": 100
    },
    {
      "time": 18.75,
      "note": 74,
      "duration": 0.25,
      "velocity": 100
    },
    {
      "time": 18.75,
      "note": 72,
      "duration": 0.25,
      "velocity": 100
    },
    {
      "time": 19.0,
      "note": 76,
      "duration": 0.25,
      "velocity": 100
    },
    {
      "time": 19.0,
      "note": 69,
      "duration": 0.25,
      "velocity": 100
    },
    {
      "time": 19.25,
      "note": 74,
      "duration": 0.25,
      "velocity": 100
    },
    {
      "time": 19.25,
      "note": 74,
      "duration": 0.375,
      "velocity": 100
    },
    {
      "time": 19.625,
      "note": 77,
      "duration": 0.375,
      "velocity": 100
    },
    {
      "time": 19.625,
      "note": 77,
      "duration": 0.125,
      "velocity": 100
    },
    {
      "time": 19.75,
      "note": 81,
      "duration": 0.125,
      "velocity": 100
    },
    {
      "time": 20.0,
      "note": 72,
      "duration": 0.25,
      "velocity": 100
    },
    {
      "time": 20.25,
      "note": 76,
      "duration": 0.25,
      "velocity": 100
    },
    {
      "time": 20.25,
      "note": 72,
      "duration": 0.25,
      "velocity": 100
    },
    {
      "time": 20.5,
      "note": 76,
      "duration": 0.25,
      "velocity": 100
    },
    {
      "time": 20.5,
      "note": 69,
      "duration": 0.25,
      "velocity": 100
    },
    {
      "time": 20.75,
      "note": 74,
      "duration": 0.25,
      "velocity": 100
    },
    {
      "time": 20.75,
      "note": 72,
      "duration": 0.25,
      "velocity": 100
    },
    {
      "time": 21.0,
      "note": 76,
      "duration": 0.25,
      "velocity": 100
    },
    {
      "time": 21.0,
      "note": 69,
      "duration": 0.25,
      "velocity": 100
    },
    {
      "time": 21.25,
      "note": 74,
      "duration": 0.25,
      "velocity": 100
    },
    {
      "time": 21.25,
      "note": 79,
      "duration": 0.25,
      "velocity": 100
    },
    {
      "time": 21.5,
      "note": 82,
      "duration": 0.25,
      "velocity": 100
    },
    {
      "time": 21.5,
      "note": 91,
      "duration": 0.25,
      "velocity": 100
    },
    {
      "time": 21.5,
      "note": 79,
      "duration": 0.25,
      "velocity": 100
    },
    {
      "time": 21.75,
      "note": 82,
      "duration": 0.25,
      "velocity": 100
    },
    {
      "time": 21.75,
      "note": 91,
      "duration": 0.25,
      "velocity": 100
    },
    {
      "time": 21.75,
      "note": 79,
      "duration": 0.25,
      "velocity": 100
    },
    {
      "time": 22.0,
      "note": 82,
      "duration": 0.25,
      "velocity": 100
    },
    {
      "time": 22.0,
      "note": 91,
      "duration": 0.25,
      "velocity": 100
    },
    {
      "time": 22.0,
      "note": 79,
      "duration": 0.125,
      "velocity": 100
    },
    {
      "time": 22.125,
      "note": 82,
      "duration": 0.125,
      "velocity": 100
    },
    {
      "time": 22.125,
      "note": 91,
      "duration": 0.125,
      "velocity": 100
    },
    {
      "time": 22.125,
      "note": 79,
      "duration": 0.125,
      "velocity": 100
    },
    {
      "time": 22.25,
      "note": 82,
      "duration": 0.125,
      "velocity": 100
    },
    {
      "time": 22.25,
      "note": 91,
      "duration": 0.125,
      "velocity": 100
    },
    {
      "time": 22.75,
      "note": 86,
      "duration": 0.125,
      "velocity": 100
    },
    {
      "time": 22.875,
      "note": 86,
      "duration": 0.125,
      "velocity": 100
    },
    {
      "time": 23.0,
      "note": 86,
      "duration": 0.25,
      "velocity": 100
    },
    {
      "time": 23.25,
      "note": 84,
      "duration": 1.0,
      "velocity": 100
    },
    {
      "time": 24.25,
      "note": 85,
      "duration": 0.25,
      "velocity": 100
    },
    {
      "time": 24.5,
      "note": 88,
      "duration": 0.25,
      "velocity": 100
    },
    {
      "time": 24.75,
      "note": 88,
      "duration": 0.5,
      "velocity": 100
    },
    {
      "time": 25.25,
      "note": 88,
      "duration": 0.75,
      "velocity": 100
    },
    {
      "time": 23.25,
      "note": 79,
      "duration": 0.25,
      "velocity": 100
    },
    {
      "time": 23.5,
      "note": 82,
      "duration": 0.25,
      "velocity": 100
    },
    {
      "time": 24.0,
      "note": 86,
      "duration": 0.25,
      "velocity": 100
    },
    {
      "time": 24.25,
      "note": 86,
      "duration": 0.125,
      "velocity": 100
    },
    {
      "time": 24.375,
      "note": 86,
      "duration": 0.25,
      "velocity": 100
    },
    {
      "time": 24.625,
      "note": 86,
      "duration": 0.125,
      "velocity": 100
    },
    {
      "time": 24.75,
      "note": 88,
      "duration": 0.25,
      "velocity": 100
    },
    {
      "time": 25.0,
      "note": 86,
      "duration": 0.25,
      "velocity": 100
    },
    {
      "time": 25.25,
      "note": 81,
      "duration": 0.25,
      "velocity": 100
    },
    {
      "time": 25.5,
      "note": 84,
      "duration": 0.25,
      "velocity": 100
    },
    {
      "time": 26.0,
      "note": 86,
      "duration": 0.25,
      "velocity": 100
    },
    {
      "time": 26.25,
      "note": 86,
      "duration": 0.125,
      "velocity": 100
    },
    {
      "time": 26.375,
      "note": 86,
      "duration": 0.25,
      "velocity": 100
    },
    {
      "time": 26.625,
      "note": 86,
      "duration": 0.125,
      "velocity": 100
    },
    {
      "time": 26.75,
      "note": 88,
      "duration": 0.25,
      "velocity": 100
    },
    {
      "time": 27.0,
      "note": 86,
      "duration": 0.25,
      "velocity": 100
    },
    {
      "time": 27.25,
      "note": 79,
      "duration": 0.25,
      "velocity": 100
    },
    {
      "time": 27.5,
      "note": 82,
      "duration": 0.25,
      "velocity": 100
    },
    {
      "time": 28.0,
      "note": 86,
      "duration": 0.125,
      "velocity": 100
    },
    {
      "time": 28.125,
      "note": 86,
      "duration": 0.125,
      "velocity": 100
    },
    {
      "time": 28.25,
      "note": 86,
      "duration": 0.25,
      "velocity": 100
    },
    {
      "time": 28.5,
      "note": 86,
      "duration": 0.25,
      "velocity": 100
    },
    {
      "time": 28.75,
      "note": 88,
      "duration": 0.25,
      "velocity": 100
    },
    {
      "time": 29.0,
      "note": 86,
      "duration": 0.25,
      "velocity": 100
    },
    {
      "time": 29.25,
      "note": 84,
      "duration": 1.0,
      "velocity": 100
    },
    {
      "time": 30.25,
      "note": 81,
      "duration": 0.25,
      "velocity": 100
    },
    {
      "time": 30.5,
      "note": 84,
      "duration": 0.25,
      "velocity": 100
    },
    {
      "time": 31.0,
      "note": 86,
      "duration": 0.25,
      "velocity": 100
    },
    {
      "time": 29.25,
      "note": 79,
      "duration": 0.25,
      "velocity": 100
    },
    {
      "time": 29.5,
      "note": 82,
      "duration": 0.25,
      "velocity": 100
    },
    {
      "time": 30.0,
      "note": 86,
      "duration": 0.125,
      "velocity": 100
    },
    {
      "time": 30.125,
      "note": 86,
      "duration": 0.125,
      "velocity": 100
    },
    {
      "time": 30.25,
      "note": 86,
      "duration": 0.25,
      "velocity": 100
    },
    {
      "time": 30.5,
      "note": 86,
      "duration": 0.25,
      "velocity": 100
    },
    {
      "time": 30.75,
      "note": 86,
      "duration": 0.25,
      "velocity": 100
    },
    {
      "time": 31.0,
      "note": 86,
      "duration": 0.25,
      "velocity": 100
    },
    {
      "time": 31.25,
      "note": 86,
      "duration": 0.375,
      "velocity": 100
    },
    {
      "time": 31.625,
      "note": 86,
      "duration": 0.125,
      "velocity": 100
    },
    {
      "time": 32.0,
      "note": 89,
      "duration": 0.125,
      "velocity": 100
    },
    {
      "time": 32.125,
      "note": 91,
      "duration": 0.125,
      "velocity": 100
    },
    {
      "time": 32.25,
      "note": 89,
      "duration": 0.25,
      "velocity": 100
    },
    {
      "time": 32.5,
      "note": 88,
      "duration": 0.25,
      "velocity": 100
    },
    {
      "time": 32.75,
      "note": 86,
      "duration": 0.25,
      "velocity": 100
    },
    {
      "time": 33.0,
      "note": 84,
      "duration": 0.25,
      "velocity": 100
    },
    {
      "time": 33.25,
      "note": 86,
      "duration": 1.0,
      "velocity": 100
    },
    {
      "time": 34.5,
      "note": 79,
      "duration": 0.25,
      "velocity": 100
    },
    {
      "time": 34.75,
      "note": 86,
      "duration": 0.25,
      "velocity": 100
    },
    {
      "time": 35.0,
      "note": 86,
      "duration": 0.25,
      "velocity": 100
    },
    {
      "time": 35.25,
      "note": 84,
      "duration": 1.0,
      "velocity": 100
    },
    {
      "time": 36.25,
      "note": 82,
      "duration": 0.25,
      "velocity": 100
    },
    {
      "time": 36.5,
      "note": 79,
      "duration": 0.25,
      "velocity": 100
    },
    {
      "time": 36.75,
      "note": 67,
      "duration": 0.125,
      "velocity": 100
    },
    {
      "time": 36.875,
      "note": 69,
      "duration": 0.125,
      "velocity": 100
    },
    {
      "time": 37.0,
      "note": 70,
      "duration": 0.125,
      "velocity": 100
    },
    {
      "time": 37.125,
      "note": 72,
      "duration": 0.125,
      "velocity": 100
    },
    {
      "time": 35.25,
      "note": 82,
      "duration": 0.25,
      "velocity": 100
    },
    {
      "time": 35.5,
      "note": 79,
      "duration": 0.25,
      "velocity": 100
    },
    {
      "time": 35.75,
      "note": 67,
      "duration": 0.125,
      "velocity": 100
    },
    {
      "time": 35.875,
      "note": 69,
      "duration": 0.125,
      "velocity": 100
    },
    {
      "time": 36.0,
      "note": 70,
      "duration": 0.125,
      "velocity": 100
    },
    {
      "time": 36.125,
      "note": 72,
      "duration": 0.125,
      "velocity": 100
    },
    {
      "time": 36.25,
      "note": 74,
      "duration": 0.5,
      "velocity": 100
    },
    {
      "time": 36.75,
      "note": 74,
      "duration": 0.25,
      "velocity": 100
    },
    {
      "time": 37.0,
      "note": 79,
      "duration": 0.25,
      "velocity": 100
    },
    {
      "time": 37.25,
      "note": 82,
      "duration": 0.25,
      "velocity": 100
    },
    {
      "time": 37.5,
      "note": 86,
      "duration": 0.25,
      "velocity": 100
    },
    {
      "time": 37.75,
      "note": 86,
      "duration": 0.5,
      "velocity": 100
    },
    {
      "time": 38.25,
      "note": 76,
      "duration": 0.5,
      "velocity": 100
    },
    {
      "time": 38.75,
      "note": 86,
      "duration": 0.5,
      "velocity": 100
    },
    {
      "time": 38.75,
      "note": 84,
      "duration": 0.5,
      "velocity": 100
    },
    {
      "time": 39.25,
      "note": 82,
      "duration": 0.5,
      "velocity": 100
    },
    {
      "time": 39.75,
      "note": 86,
      "duration": 0.25,
      "velocity": 100
    },
    {
      "time": 40.0,
      "note": 81,
      "duration": 0.75,
      "velocity": 100
    },
    {
      "time": 41.0,
      "note": 74,
      "duration": 0.25,
      "velocity": 100
    },
    {
      "time": 41.25,
      "note": 84,
      "duration": 0.25,
      "velocity": 100
    },
    {
      "time": 41.5,
      "note": 84,
      "duration": 0.25,
      "velocity": 100
    },
    {
      "time": 41.75,
      "note": 84,
      "duration": 1.0,
      "velocity": 100
    },
    {
      "time": 42.75,
      "note": 81,
      "duration": 0.25,
      "velocity": 100
    },
    {
      "time": 43.0,
      "note": 77,
      "duration": 0.25,
      "velocity": 100
    },
    {
      "time": 41.75,
      "note": 81,
      "duration": 0.25,
      "velocity": 100
    },
    {
      "time": 42.0,
      "note": 77,
      "duration": 0.25,
      "velocity": 100
    },
    {
      "time": 43.0,
      "note": 74,
      "duration": 0.25,
      "velocity": 100
    },
    {
      "time": 43.25,
      "note": 77,
      "duration": 0.25,
      "velocity": 100
    },
    {
      "time": 43.5,
      "note": 81,
      "duration": 0.25,
      "velocity": 100
    },
    {
      "time": 43.75,
      "note": 74,
      "duration": 0.5,
      "velocity": 100
    },
    {
      "time": 44.25,
      "note": 84,
      "duration": 0.5,
      "velocity": 100
    },
    {
      "time": 44.25,
      "note": 84,
      "duration": 0.5,
      "velocity": 100
    },
    {
      "time": 44.75,
      "note": 74,
      "duration": 0.5,
      "velocity": 100
    },
    {
      "time": 45.25,
      "note": 84,
      "duration": 0.5,
      "velocity": 100
    },
    {
      "time": 45.25,
      "note": 82,
      "duration": 0.5,
      "velocity": 100
    },
    {
      "time": 43.75,
      "note": 88,
      "duration": 0.25,
      "velocity": 100
    },
    {
      "time": 44.0,
      "note": 86,
      "duration": 0.75,
      "velocity": 100
    },
    {
      "time": 45.0,
      "note": 79,
      "duration": 0.25,
      "velocity": 100
    },
    {
      "time": 45.25,
      "note": 86,
      "duration": 0.25,
      "velocity": 100
    },
    {
      "time": 45.5,
      "note": 86,
      "duration": 0.25,
      "velocity": 100
    },
    {
      "time": 44.0,
      "note": 79,
      "duration": 0.25,
      "velocity": 100
    },
    {
      "time": 44.25,
      "note": 86,
      "duration": 0.125,
      "velocity": 100
    },
    {
      "time": 44.375,
      "note": 84,
      "duration": 0.125,
      "velocity": 100
    },
    {
      "time": 44.5,
      "note": 82,
      "duration": 0.125,
      "velocity": 100
    },
    {
      "time": 44.625,
      "note": 81,
      "duration": 0.125,
      "velocity": 100
    },
    {
      "time": 44.75,
      "note": 84,
      "duration": 1.0,
      "velocity": 100
    },
    {
      "time": 45.75,
      "note": 82,
      "duration": 0.25,
      "velocity": 100
    },
    {
      "time": 46.0,
      "note": 79,
      "duration": 0.25,
      "velocity": 100
    },
    {
      "time": 46.25,
      "note": 67,
      "duration": 0.125,
      "velocity": 100
    },
    {
      "time": 46.375,
      "note": 69,
      "duration": 0.125,
      "velocity": 100
    },
    {
      "time": 46.5,
      "note": 70,
      "duration": 0.125,
      "velocity": 100
    },
    {
      "time": 46.625,
      "note": 72,
      "duration": 0.125,
      "velocity": 100
    },
    {
      "time": 44.75,
      "note": 82,
      "duration": 0.25,
      "velocity": 100
    },
    {
      "time": 45.0,
      "note": 79,
      "duration": 0.25,
      "velocity": 100
    },
    {
      "time": 46.0,
      "note": 74,
      "duration": 0.25,
      "velocity": 100
    },
    {
      "time": 46.25,
      "note": 79,
      "duration": 0.25,
      "velocity": 100
    },
    {
      "time": 46.5,
      "note": 82,
      "duration": 0.25,
      "velocity": 100
    },
    {
      "time": 45.25,
      "note": 67,
      "duration": 0.125,
      "velocity": 100
    },
    {
      "time": 45.375,
      "note": 69,
      "duration": 0.125,
      "velocity": 100
    },
    {
      "time": 45.5,
      "note": 70,
      "duration": 0.125,
      "velocity": 100
    },
    {
      "time": 45.625,
      "note": 72,
      "duration": 0.125,
      "velocity": 100
    },
    {
      "time": 45.75,
      "note": 82,
      "duration": 0.5,
      "velocity": 100
    },
    {
      "time": 46.25,
      "note": 91,
      "duration": 0.5,
      "velocity": 100
    },
    {
      "time": 46.25,
      "note": 91,
      "duration": 0.5,
      "velocity": 100
    },
    {
      "time": 46.75,
      "note": 92,
      "duration": 0.25,
      "velocity": 100
    },
    {
      "time": 47.0,
      "note": 91,
      "duration": 0.5,
      "velocity": 100
    },
    {
      "time": 47.5,
      "note": 89,
      "duration": 0.5,
      "velocity": 100
    },
    {
      "time": 48.0,
      "note": 79,
      "duration": 0.5,
      "velocity": 100
    },
    {
      "time": 48.5,
      "note": 89,
      "duration": 0.5,
      "velocity": 100
    },
    {
      "time": 48.75,
      "note": 88,
      "duration": 0.75,
      "velocity": 100
    },
    {
      "time": 49.75,
      "note": 88,
      "duration": 0.25,
      "velocity": 100
    },
    {
      "time": 50.0,
      "note": 89,
      "duration": 0.25,
      "velocity": 100
    },
    {
      "time": 50.25,
      "note": 88,
      "duration": 0.25,
      "velocity": 100
    },
    {
      "time": 50.75,
      "note": 84,
      "duration": 1.0,
      "velocity": 100
    },
    {
      "time": 51.75,
      "note": 89,
      "duration": 0.25,
      "velocity": 100
    },
    {
      "time": 52.0,
      "note": 88,
      "duration": 0.25,
      "velocity": 100
    },
    {
      "time": 50.5,
      "note": 88,
      "duration": 0.25,
      "velocity": 100
    },
    {
      "time": 50.75,
      "note": 86,
      "duration": 0.25,
      "velocity": 100
    },
    {
      "time": 51.75,
      "note": 74,
      "duration": 0.25,
      "velocity": 100
    },
    {
      "time": 52.0,
      "note": 79,
      "duration": 0.25,
      "velocity": 100
    },
    {
      "time": 52.25,
      "note": 82,
      "duration": 0.25,
      "velocity": 100
    },
    {
      "time": 52.5,
      "note": 86,
      "duration": 0.25,
      "velocity": 100
    },
    {
      "time": 52.75,
      "note": 86,
      "duration": 0.5,
      "velocity": 100
    },
    {
      "time": 53.25,
      "note": 82,
      "duration": 0.25,
      "velocity": 100
    },
    {
      "time": 53.5,
      "note": 81,
      "duration": 0.5,
      "velocity": 100
    },
    {
      "time": 54.0,
      "note": 86,
      "duration": 0.5,
      "velocity": 100
    },
    {
      "time": 54.5,
      "note": 81,
      "duration": 0.25,
      "velocity": 100
    },
    {
      "time": 54.75,
      "note": 79,
      "duration": 0.25,
      "velocity": 100
    },
    {
      "time": 55.25,
      "note": 86,
      "duration": 0.125,
      "velocity": 100
    },
    {
      "time": 55.375,
      "note": 86,
      "duration": 0.125,
      "velocity": 100
    },
    {
      "time": 55.5,
      "note": 86,
      "duration": 0.25,
      "velocity": 100
    },
    {
      "time": 55.75,
      "note": 86,
      "duration": 0.25,
      "velocity": 100
    },
    {
      "time": 56.0,
      "note": 88,
      "duration": 0.25,
      "velocity": 100
    },
    {
      "time": 56.25,
      "note": 86,
      "duration": 0.25,
      "velocity": 100
    }
  ],
  "chords": [
    {
      "time": 0.0,
      "notes": [
        67,
        70,
        74
      ],
      "duration": 1.8833333333333333
    },
    {
      "time": 1.8833333333333333,
      "notes": [
        63,
        67,
        70
      ],
      "duration": 1.8833333333333333
    },
    {
      "time": 3.7666666666666666,
      "notes": [
        62,
        66,
        69
      ],
      "duration": 1.8833333333333333
    },
    {
      "time": 5.65,
      "notes": [
        67,
        70,
        74
      ],
      "duration": 1.8833333333333333
    },
    {
      "time": 7.533333333333333,
      "notes": [
        63,
        67,
        70
      ],
      "duration": 1.8833333333333333
    },
    {
      "time": 9.416666666666666,
      "notes": [
        62,
        66,
        69
      ],
      "duration": 1.8833333333333333
    },
    {
      "time": 11.3,
      "notes": [
        67,
        70,
        74
      ],
      "duration": 1.8833333333333333
    },
    {
      "time": 13.183333333333334,
      "notes": [
        65,
        69,
        72
      ],
      "duration": 1.8833333333333333
    },
    {
      "time": 15.066666666666666,
      "notes": [
        63,
        67,
        70
      ],
      "duration": 1.8833333333333333
    },
    {
      "time": 16.95,
      "notes": [
        62,
        66,
        69
      ],
      "duration": 1.8833333333333333
    },
    {
      "time": 18.833333333333332,
      "notes": [
        67,
        70,
        74
      ],
      "duration": 1.8833333333333333
    },
    {
      "time": 20.716666666666665,
      "notes": [
        63,
        67,
        70
      ],
      "duration": 1.8833333333333333
    },
    {
      "time": 22.6,
      "notes": [
        62,
        66,
        69
      ],
      "duration": 1.8833333333333333
    },
    {
      "time": 24.483333333333334,
      "notes": [
        67,
        70,
        74
      ],
      "duration": 1.8833333333333333
    },
    {
      "time": 26.366666666666667,
      "notes": [
        62,
        66,
        69
      ],
      "duration": 1.8833333333333333
    },
    {
      "time": 28.25,
      "notes": [
        67,
        70,
        74
      ],
      "duration": 1.8833333333333333
    },
    {
      "time": 30.133333333333333,
      "notes": [
        62,
        66,
        69
      ],
      "duration": 1.8833333333333333
    },
    {
      "time": 32.016666666666666,
      "notes": [
        67,
        70,
        74
      ],
      "duration": 1.8833333333333333
    },
    {
      "time": 33.9,
      "notes": [
        62,
        66,
        69
      ],
      "duration": 1.8833333333333333
    },
    {
      "time": 35.78333333333333,
      "notes": [
        67,
        70,
        74
      ],
      "duration": 1.8833333333333333
    },
    {
      "time": 37.666666666666664,
      "notes": [
        62,
        66,
        69
      ],
      "duration": 1.8833333333333333
    },
    {
      "time": 39.55,
      "notes": [
        67,
        70,
        74
      ],
      "duration": 1.8833333333333333
    },
    {
      "time": 41.43333333333333,
      "notes": [
        63,
        67,
        70
      ],
      "duration": 1.8833333333333333
    },
    {
      "time": 43.31666666666666,
      "notes": [
        62,
        66,
        69
      ],
      "duration": 1.8833333333333333
    },
    {
      "time": 45.2,
      "notes": [
        67,
        70,
        74
      ],
      "duration": 1.8833333333333333
    },
    {
      "time": 47.083333333333336,
      "notes": [
        67,
        71,
        74,
        77
      ],
      "duration": 1.8833333333333333
    },
    {
      "time": 48.96666666666667,
      "notes": [
        60,
        63,
        67,
        70
      ],
      "duration": 1.8833333333333333
    },
    {
      "time": 50.85,
      "notes": [
        67,
        70,
        74
      ],
      "duration": 1.8833333333333333
    },
    {
      "time": 52.733333333333334,
      "notes": [
        62,
        66,
        69
      ],
      "duration": 1.8833333333333333
    },
    {
      "time": 54.61666666666667,
      "notes": [
        67,
        70,
        74
      ],
      "duration": 1.8833333333333333
    }
  ]
}