{
  "title": "Yo tomo",
  "artist": "Bersuit Vergarabat",
  "bpm": 120,
  "duration": 67.875,
  "audioFile": "",
  "notes": [
    {
      "time": 0.0,
      "note": 69,
      "duration": 0.125,
      "velocity": 100
    },
    {
      "time": 0.125,
      "note": 69,
      "duration": 0.125,
      "velocity": 100
    },
    {
      "time": 0.25,
      "note": 69,
      "duration": 0.125,
      "velocity": 100
    },
    {
      "time": 0.375,
      "note": 72,
      "duration": 0.125,
      "velocity": 100
    },
    {
      "time": 0.5,
      "note": 74,
      "duration": 0.125,
      "velocity": 100
    },
    {
      "time": 0.625,
      "note": 74,
      "duration": 0.25,
      "velocity": 100
    },
    {
      "time": 0.875,
      "note": 74,
      "duration": 0.125,
      "velocity": 100
    },
    {
      "time": 1.0,
      "note": 72,
      "duration": 0.125,
      "velocity": 100
    },
    {
      "time": 1.125,
      "note": 69,
      "duration": 0.125,
      "velocity": 100
    },
    {
      "time": 1.25,
      "note": 69,
      "duration": 0.125,
      "velocity": 100
    },
    {
      "time": 1.375,
      "note": 69,
      "duration": 0.125,
      "velocity": 100
    },
    {
      "time": 1.5,
      "note": 72,
      "duration": 0.125,
      "velocity": 100
    },
    {
      "time": 1.625,
      "note": 74,
      "duration": 0.125,
      "velocity": 100
    },
    {
      "time": 1.75,
      "note": 74,
      "duration": 0.25,
      "velocity": 100
    },
    {
      "time": 2.0,
      "note": 74,
      "duration": 0.125,
      "velocity": 100
    },
    {
      "time": 2.125,
      "note": 72,
      "duration": 0.125,
      "velocity": 100
    },
    {
      "time": 2.25,
      "note": 69,
      "duration": 0.5,
      "velocity": 100
    },
    {
      "time": 2.75,
      "note": 79,
      "duration": 0.5,
      "velocity": 100
    },
    {
      "time": 3.25,
      "note": 84,
      "duration": 0.5,
      "velocity": 100
    },
    {
      "time": 3.25,
      "note": 81,
      "duration": 1.0,
      "velocity": 100
    },
    {
      "time": 4.25,
      "note": 86,
      "duration": 1.0,
      "velocity": 100
    },
    {
      "time": 4.25,
      "note": 69,
      "duration": 0.125,
      "velocity": 100
    },
    {
      "time": 4.375,
      "note": 69,
      "duration": 0.125,
      "velocity": 100
    },
    {
      "time": 4.5,
      "note": 69,
      "duration": 0.125,
      "velocity": 100
    },
    {
      "time": 4.625,
      "note": 72,
      "duration": 0.125,
      "velocity": 100
    },
    {
      "time": 4.75,
      "note": 74,
      "duration": 0.125,
      "velocity": 100
    },
    {
      "time": 4.875,
      "note": 74,
      "duration": 0.25,
      "velocity": 100
    },
    {
      "time": 5.125,
      "note": 74,
      "duration": 0.125,
      "velocity": 100
    },
    {
      "time": 5.25,
      "note": 72,
      "duration": 0.125,
      "velocity": 100
    },
    {
      "time": 5.375,
      "note": 69,
      "duration": 0.125,
      "velocity": 100
    },
    {
      "time": 5.5,
      "note": 69,
      "duration": 0.125,
      "velocity": 100
    },
    {
      "time": 5.625,
      "note": 69,
      "duration": 0.125,
      "velocity": 100
    },
    {
      "time": 5.75,
      "note": 72,
      "duration": 0.125,
      "velocity": 100
    },
    {
      "time": 5.875,
      "note": 74,
      "duration": 0.125,
      "velocity": 100
    },
    {
      "time": 6.0,
      "note": 74,
      "duration": 0.25,
      "velocity": 100
    },
    {
      "time": 6.25,
      "note": 74,
      "duration": 0.125,
      "velocity": 100
    },
    {
      "time": 6.375,
      "note": 72,
      "duration": 0.125,
      "velocity": 100
    },
    {
      "time": 6.5,
      "note": 69,
      "duration": 0.5,
      "velocity": 100
    },
    {
      "time": 7.0,
      "note": 81,
      "duration": 0.5,
      "velocity": 100
    },
    {
      "time": 7.5,
      "note": 86,
      "duration": 0.5,
      "velocity": 100
    },
    {
      "time": 7.5,
      "note": 83,
      "duration": 1.0,
      "velocity": 100
    },
    {
      "time": 8.5,
      "note": 88,
      "duration": 1.0,
      "velocity": 100
    },
    {
      "time": 8.5,
      "note": 84,
      "duration": 0.125,
      "velocity": 100
    },
    {
      "time": 8.625,
      "note": 83,
      "duration": 0.125,
      "velocity": 100
    },
    {
      "time": 8.75,
      "note": 81,
      "duration": 0.125,
      "velocity": 100
    },
    {
      "time": 8.875,
      "note": 84,
      "duration": 0.125,
      "velocity": 100
    },
    {
      "time": 9.0,
      "note": 83,
      "duration": 0.125,
      "velocity": 100
    },
    {
      "time": 9.125,
      "note": 81,
      "duration": 0.125,
      "velocity": 100
    },
    {
      "time": 9.25,
      "note": 84,
      "duration": 0.125,
      "velocity": 100
    },
    {
      "time": 9.375,
      "note": 83,
      "duration": 0.125,
      "velocity": 100
    },
    {
      "time": 9.5,
      "note": 81,
      "duration": 0.125,
      "velocity": 100
    },
    {
      "time": 9.625,
      "note": 84,
      "duration": 0.125,
      "velocity": 100
    },
    {
      "time": 9.75,
      "note": 83,
      "duration": 0.125,
      "velocity": 100
    },
    {
      "time": 9.875,
      "note": 81,
      "duration": 0.125,
      "velocity": 100
    },
    {
      "time": 10.0,
      "note": 84,
      "duration": 0.125,
      "velocity": 100
    },
    {
      "time": 10.125,
      "note": 83,
      "duration": 0.125,
      "velocity": 100
    },
    {
      "time": 10.25,
      "note": 81,
      "duration": 0.125,
      "velocity": 100
    },
    {
      "time": 10.375,
      "note": 76,
      "duration": 0.125,
      "velocity": 100
    },
    {
      "time": 10.5,
      "note": 77,
      "duration": 0.75,
      "velocity": 100
    },
    {
      "time": 11.25,
      "note": 76,
      "duration": 0.08333333333333333,
      "velocity": 100
    },
    {
      "time": 11.333333333333334,
      "note": 77,
      "duration": 0.08333333333333333,
      "velocity": 100
    },
    {
      "time": 11.416666666666666,
      "note": 76,
      "duration": 0.08333333333333333,
      "velocity": 100
    },
    {
      "time": 11.5,
      "note": 74,
      "duration": 1.0,
      "velocity": 100
    },
    {
      "time": 12.5,
      "note": 83,
      "duration": 0.125,
      "velocity": 100
    },
    {
      "time": 12.625,
      "note": 79,
      "duration": 0.125,
      "velocity": 100
    },
    {
      "time": 12.75,
      "note": 76,
      "duration": 0.125,
      "velocity": 100
    },
    {
      "time": 12.875,
      "note": 83,
      "duration": 0.125,
      "velocity": 100
    },
    {
      "time": 13.0,
      "note": 79,
      "duration": 0.125,
      "velocity": 100
    },
    {
      "time": 13.125,
      "note": 76,
      "duration": 0.125,
      "velocity": 100
    },
    {
      "time": 13.25,
      "note": 83,
      "duration": 0.125,
      "velocity": 100
    },
    {
      "time": 13.375,
      "note": 79,
      "duration": 0.125,
      "velocity": 100
    },
    {
      "time": 13.5,
      "note": 76,
      "duration": 0.125,
      "velocity": 100
    },
    {
      "time": 13.625,
      "note": 83,
      "duration": 0.125,
      "velocity": 100
    },
    {
      "time": 13.75,
      "note": 79,
      "duration": 0.125,
      "velocity": 100
    },
    {
      "time": 13.875,
      "note": 76,
      "duration": 0.125,
      "velocity": 100
    },
    {
      "time": 14.0,
      "note": 83,
      "duration": 0.125,
      "velocity": 100
    },
    {
      "time": 14.125,
      "note": 79,
      "duration": 0.125,
      "velocity": 100
    },
    {
      "time": 14.25,
      "note": 76,
      "duration": 0.125,
      "velocity": 100
    },
    {
      "time": 14.375,
      "note": 84,
      "duration": 0.125,
      "velocity": 100
    },
    {
      "time": 14.5,
      "note": 83,
      "duration": 0.5,
      "velocity": 100
    },
    {
      "time": 15.0,
      "note": 81,
      "duration": 0.25,
      "velocity": 100
    },
    {
      "time": 15.25,
      "note": 83,
      "duration": 0.125,
      "velocity": 100
    },
    {
      "time": 15.375,
      "note": 84,
      "duration": 0.125,
      "velocity": 100
    },
    {
      "time": 15.5,
      "note": 84,
      "duration": 1.0,
      "velocity": 100
    },
    {
      "time": 16.75,
      "note": 84,
      "duration": 0.125,
      "velocity": 100
    },
    {
      "time": 16.875,
      "note": 83,
      "duration": 0.125,
      "velocity": 100
    },
    {
      "time": 17.0,
      "note": 81,
      "duration": 0.125,
      "velocity": 100
    },
    {
      "time": 17.125,
      "note": 84,
      "duration": 0.125,
      "velocity": 100
    },
    {
      "time": 17.25,
      "note": 83,
      "duration": 0.125,
      "velocity": 100
    },
    {
      "time": 17.375,
      "note": 81,
      "duration": 0.125,
      "velocity": 100
    },
    {
      "time": 17.5,
      "note": 84,
      "duration": 0.125,
      "velocity": 100
    },
    {
      "time": 17.625,
      "note": 83,
      "duration": 0.125,
      "velocity": 100
    },
    {
      "time": 17.75,
      "note": 81,
      "duration": 0.125,
      "velocity": 100
    },
    {
      "time": 17.875,
      "note": 84,
      "duration": 0.125,
      "velocity": 100
    },
    {
      "time": 18.0,
      "note": 83,
      "duration": 0.125,
      "velocity": 100
    },
    {
      "time": 18.125,
      "note": 81,
      "duration": 0.125,
      "velocity": 100
    },
    {
      "time": 18.25,
      "note": 84,
      "duration": 0.125,
      "velocity": 100
    },
    {
      "time": 18.375,
      "note": 83,
      "duration": 0.125,
      "velocity": 100
    },
    {
      "time": 18.5,
      "note": 81,
      "duration": 0.125,
      "velocity": 100
    },
    {
      "time": 18.625,
      "note": 83,
      "duration": 0.125,
      "velocity": 100
    },
    {
      "time": 18.75,
      "note": 86,
      "duration": 0.375,
      "velocity": 100
    },
    {
      "time": 19.125,
      "note": 84,
      "duration": 0.125,
      "velocity": 100
    },
    {
      "time": 19.25,
      "note": 84,
      "duration": 0.125,
      "velocity": 100
    },
    {
      "time": 19.375,
      "note": 83,
      "duration": 0.25,
      "velocity": 100
    },
    {
      "time": 19.625,
      "note": 84,
      "duration": 0.125,
      "velocity": 100
    },
    {
      "time": 19.75,
      "note": 86,
      "duration": 1.0,
      "velocity": 100
    },
    {
      "time": 20.75,
      "note": 88,
      "duration": 0.25,
      "velocity": 100
    },
    {
      "time": 21.0,
      "note": 86,
      "duration": 0.125,
      "velocity": 100
    },
    {
      "time": 21.125,
      "note": 84,
      "duration": 0.125,
      "velocity": 100
    },
    {
      "time": 21.25,
      "note": 86,
      "duration": 0.25,
      "velocity": 100
    },
    {
      "time": 21.5,
      "note": 84,
      "duration": 0.125,
      "velocity": 100
    },
    {
      "time": 21.625,
      "note": 83,
      "duration": 0.125,
      "velocity": 100
    },
    {
      "time": 21.75,
      "note": 84,
      "duration": 0.25,
      "velocity": 100
    },
    {
      "time": 22.0,
      "note": 83,
      "duration": 0.125,
      "velocity": 100
    },
    {
      "time": 22.125,
      "note": 81,
      "duration": 0.125,
      "velocity": 100
    },
    {
      "time": 22.25,
      "note": 83,
      "duration": 0.25,
      "velocity": 100
    },
    {
      "time": 22.5,
      "note": 81,
      "duration": 0.125,
      "velocity": 100
    },
    {
      "time": 22.625,
      "note": 79,
      "duration": 0.125,
      "velocity": 100
    },
    {
      "time": 22.75,
      "note": 81,
      "duration": 0.5,
      "velocity": 100
    },
    {
      "time": 23.5,
      "note": 76,
      "duration": 0.125,
      "velocity": 100
    },
    {
      "time": 23.625,
      "note": 77,
      "duration": 0.125,
      "velocity": 100
    },
    {
      "time": 23.75,
      "note": 76,
      "duration": 0.75,
      "velocity": 100
    },
    {
      "time": 24.5,
      "note": 81,
      "duration": 0.25,
      "velocity": 100
    },
    {
      "time": 24.75,
      "note": 81,
      "duration": 0.25,
      "velocity": 100
    },
    {
      "time": 25.0,
      "note": 81,
      "duration": 0.125,
      "velocity": 100
    },
    {
      "time": 25.125,
      "note": 83,
      "duration": 0.125,
      "velocity": 100
    },
    {
      "time": 25.25,
      "note": 84,
      "duration": 0.375,
      "velocity": 100
    },
    {
      "time": 25.625,
      "note": 81,
      "duration": 0.125,
      "velocity": 100
    },
    {
      "time": 25.75,
      "note": 81,
      "duration": 0.125,
      "velocity": 100
    },
    {
      "time": 25.875,
      "note": 81,
      "duration": 0.25,
      "velocity": 100
    },
    {
      "time": 26.125,
      "note": 83,
      "duration": 0.125,
      "velocity": 100
    },
    {
      "time": 26.25,
      "note": 84,
      "duration": 0.375,
      "velocity": 100
    },
    {
      "time": 26.625,
      "note": 83,
      "duration": 0.125,
      "velocity": 100
    },
    {
      "time": 26.75,
      "note": 83,
      "duration": 0.125,
      "velocity": 100
    },
    {
      "time": 26.875,
      "note": 83,
      "duration": 0.25,
      "velocity": 100
    },
    {
      "time": 27.125,
      "note": 84,
      "duration": 0.125,
      "velocity": 100
    },
    {
      "time": 27.25,
      "note": 86,
      "duration": 0.375,
      "velocity": 100
    },
    {
      "time": 27.625,
      "note": 83,
      "duration": 0.125,
      "velocity": 100
    },
    {
      "time": 27.75,
      "note": 83,
      "duration": 0.125,
      "velocity": 100
    },
    {
      "time": 27.875,
      "note": 83,
      "duration": 0.25,
      "velocity": 100
    },
    {
      "time": 28.125,
      "note": 84,
      "duration": 0.125,
      "velocity": 100
    },
    {
      "time": 28.25,
      "note": 86,
      "duration": 0.375,
      "velocity": 100
    },
    {
      "time": 28.625,
      "note": 83,
      "duration": 0.125,
      "velocity": 100
    },
    {
      "time": 28.75,
      "note": 83,
      "duration": 0.25,
      "velocity": 100
    },
    {
      "time": 29.0,
      "note": 84,
      "duration": 0.125,
      "velocity": 100
    },
    {
      "time": 29.125,
      "note": 86,
      "duration": 0.125,
      "velocity": 100
    },
    {
      "time": 29.25,
      "note": 86,
      "duration": 0.125,
      "velocity": 100
    },
    {
      "time": 29.375,
      "note": 86,
      "duration": 0.375,
      "velocity": 100
    },
    {
      "time": 30.125,
      "note": 76,
      "duration": 0.25,
      "velocity": 100
    },
    {
      "time": 30.375,
      "note": 83,
      "duration": 0.25,
      "velocity": 100
    },
    {
      "time": 30.375,
      "note": 86,
      "duration": 0.25,
      "velocity": 100
    },
    {
      "time": 30.625,
      "note": 84,
      "duration": 0.125,
      "velocity": 100
    },
    {
      "time": 30.75,
      "note": 83,
      "duration": 0.125,
      "velocity": 100
    },
    {
      "time": 30.875,
      "note": 81,
      "duration": 0.5,
      "velocity": 100
    },
    {
      "time": 31.625,
      "note": 88,
      "duration": 0.125,
      "velocity": 100
    },
    {
      "time": 31.75,
      "note": 89,
      "duration": 0.125,
      "velocity": 100
    },
    {
      "time": 31.875,
      "note": 88,
      "duration": 0.5,
      "velocity": 100
    },
    {
      "time": 32.75,
      "note": 81,
      "duration": 0.125,
      "velocity": 100
    },
    {
      "time": 32.875,
      "note": 88,
      "duration": 0.75,
      "velocity": 100
    },
    {
      "time": 33.625,
      "note": 84,
      "duration": 0.5,
      "velocity": 100
    },
    {
      "time": 34.125,
      "note": 84,
      "duration": 0.5,
      "velocity": 100
    },
    {
      "time": 33.125,
      "note": 88,
      "duration": 0.125,
      "velocity": 100
    },
    {
      "time": 33.25,
      "note": 88,
      "duration": 0.125,
      "velocity": 100
    },
    {
      "time": 33.375,
      "note": 88,
      "duration": 0.25,
      "velocity": 100
    },
    {
      "time": 33.625,
      "note": 86,
      "duration": 0.125,
      "velocity": 100
    },
    {
      "time": 33.75,
      "note": 84,
      "duration": 0.125,
      "velocity": 100
    },
    {
      "time": 32.875,
      "note": 72,
      "duration": 0.25,
      "velocity": 100
    },
    {
      "time": 33.125,
      "note": 72,
      "duration": 0.25,
      "velocity": 100
    },
    {
      "time": 33.375,
      "note": 71,
      "duration": 0.25,
      "velocity": 100
    },
    {
      "time": 33.375,
      "note": 72,
      "duration": 0.5,
      "velocity": 100
    },
    {
      "time": 33.875,
      "note": 86,
      "duration": 0.375,
      "velocity": 100
    },
    {
      "time": 34.25,
      "note": 83,
      "duration": 0.125,
      "velocity": 100
    },
    {
      "time": 34.375,
      "note": 83,
      "duration": 0.5,
      "velocity": 100
    },
    {
      "time": 34.625,
      "note": 71,
      "duration": 0.125,
      "velocity": 100
    },
    {
      "time": 34.75,
      "note": 72,
      "duration": 0.125,
      "velocity": 100
    },
    {
      "time": 35.625,
      "note": 83,
      "duration": 0.125,
      "velocity": 100
    },
    {
      "time": 35.75,
      "note": 83,
      "duration": 0.125,
      "velocity": 100
    },
    {
      "time": 34.875,
      "note": 74,
      "duration": 0.25,
      "velocity": 100
    },
    {
      "time": 35.125,
      "note": 74,
      "duration": 0.25,
      "velocity": 100
    },
    {
      "time": 35.375,
      "note": 72,
      "duration": 0.25,
      "velocity": 100
    },
    {
      "time": 35.375,
      "note": 74,
      "duration": 0.5,
      "velocity": 100
    },
    {
      "time": 35.875,
      "note": 86,
      "duration": 0.375,
      "velocity": 100
    },
    {
      "time": 36.25,
      "note": 83,
      "duration": 0.125,
      "velocity": 100
    },
    {
      "time": 36.375,
      "note": 83,
      "duration": 0.5,
      "velocity": 100
    },
    {
      "time": 36.625,
      "note": 74,
      "duration": 0.125,
      "velocity": 100
    },
    {
      "time": 36.75,
      "note": 76,
      "duration": 0.125,
      "velocity": 100
    },
    {
      "time": 36.875,
      "note": 77,
      "duration": 0.25,
      "velocity": 100
    },
    {
      "time": 37.125,
      "note": 77,
      "duration": 0.25,
      "velocity": 100
    },
    {
      "time": 37.375,
      "note": 76,
      "duration": 0.25,
      "velocity": 100
    },
    {
      "time": 37.125,
      "note": 88,
      "duration": 0.25,
      "velocity": 100
    },
    {
      "time": 37.375,
      "note": 89,
      "duration": 0.125,
      "velocity": 100
    },
    {
      "time": 37.5,
      "note": 88,
      "duration": 0.25,
      "velocity": 100
    },
    {
      "time": 37.75,
      "note": 86,
      "duration": 0.25,
      "velocity": 100
    },
    {
      "time": 37.5,
      "note": 77,
      "duration": 0.5,
      "velocity": 100
    },
    {
      "time": 38.0,
      "note": 88,
      "duration": 1.0,
      "velocity": 100
    },
    {
      "time": 38.0,
      "note": 81,
      "duration": 0.375,
      "velocity": 100
    },
    {
      "time": 38.375,
      "note": 79,
      "duration": 0.125,
      "velocity": 100
    },
    {
      "time": 38.5,
      "note": 79,
      "duration": 0.25,
      "velocity": 100
    },
    {
      "time": 38.75,
      "note": 77,
      "duration": 0.25,
      "velocity": 100
    },
    {
      "time": 39.0,
      "note": 76,
      "duration": 1.0,
      "velocity": 100
    },
    {
      "time": 40.0,
      "note": 77,
      "duration": 0.125,
      "velocity": 100
    },
    {
      "time": 40.125,
      "note": 81,
      "duration": 0.125,
      "velocity": 100
    },
    {
      "time": 40.125,
      "note": 77,
      "duration": 0.25,
      "velocity": 100
    },
    {
      "time": 40.375,
      "note": 81,
      "duration": 0.25,
      "velocity": 100
    },
    {
      "time": 40.375,
      "note": 79,
      "duration": 0.125,
      "velocity": 100
    },
    {
      "time": 40.5,
      "note": 83,
      "duration": 0.125,
      "velocity": 100
    },
    {
      "time": 40.5,
      "note": 81,
      "duration": 0.5,
      "velocity": 100
    },
    {
      "time": 41.0,
      "note": 84,
      "duration": 0.5,
      "velocity": 100
    },
    {
      "time": 41.0,
      "note": 77,
      "duration": 0.125,
      "velocity": 100
    },
    {
      "time": 41.125,
      "note": 81,
      "duration": 0.125,
      "velocity": 100
    },
    {
      "time": 41.125,
      "note": 77,
      "duration": 0.25,
      "velocity": 100
    },
    {
      "time": 41.375,
      "note": 81,
      "duration": 0.25,
      "velocity": 100
    },
    {
      "time": 41.375,
      "note": 79,
      "duration": 0.125,
      "velocity": 100
    },
    {
      "time": 41.5,
      "note": 83,
      "duration": 0.125,
      "velocity": 100
    },
    {
      "time": 41.5,
      "note": 81,
      "duration": 0.5,
      "velocity": 100
    },
    {
      "time": 42.0,
      "note": 84,
      "duration": 0.5,
      "velocity": 100
    },
    {
      "time": 42.0,
      "note": 79,
      "duration": 0.125,
      "velocity": 100
    },
    {
      "time": 42.125,
      "note": 83,
      "duration": 0.125,
      "velocity": 100
    },
    {
      "time": 42.125,
      "note": 79,
      "duration": 0.25,
      "velocity": 100
    },
    {
      "time": 42.375,
      "note": 83,
      "duration": 0.25,
      "velocity": 100
    },
    {
      "time": 42.375,
      "note": 81,
      "duration": 0.125,
      "velocity": 100
    },
    {
      "time": 42.5,
      "note": 84,
      "duration": 0.125,
      "velocity": 100
    },
    {
      "time": 42.5,
      "note": 83,
      "duration": 0.25,
      "velocity": 100
    },
    {
      "time": 42.75,
      "note": 86,
      "duration": 0.25,
      "velocity": 100
    },
    {
      "time": 42.75,
      "note": 79,
      "duration": 0.125,
      "velocity": 100
    },
    {
      "time": 42.875,
      "note": 83,
      "duration": 0.125,
      "velocity": 100
    },
    {
      "time": 42.875,
      "note": 79,
      "duration": 0.125,
      "velocity": 100
    },
    {
      "time": 43.0,
      "note": 83,
      "duration": 0.125,
      "velocity": 100
    },
    {
      "time": 43.0,
      "note": 79,
      "duration": 0.25,
      "velocity": 100
    },
    {
      "time": 43.25,
      "note": 83,
      "duration": 0.25,
      "velocity": 100
    },
    {
      "time": 43.25,
      "note": 81,
      "duration": 0.125,
      "velocity": 100
    },
    {
      "time": 43.375,
      "note": 84,
      "duration": 0.125,
      "velocity": 100
    },
    {
      "time": 43.375,
      "note": 83,
      "duration": 0.5,
      "velocity": 100
    },
    {
      "time": 43.875,
      "note": 86,
      "duration": 0.5,
      "velocity": 100
    },
    {
      "time": 44.0,
      "note": 79,
      "duration": 0.25,
      "velocity": 100
    },
    {
      "time": 44.25,
      "note": 83,
      "duration": 0.25,
      "velocity": 100
    },
    {
      "time": 44.25,
      "note": 79,
      "duration": 0.125,
      "velocity": 100
    },
    {
      "time": 44.375,
      "note": 83,
      "duration": 0.125,
      "velocity": 100
    },
    {
      "time": 44.375,
      "note": 79,
      "duration": 0.25,
      "velocity": 100
    },
    {
      "time": 44.625,
      "note": 83,
      "duration": 0.25,
      "velocity": 100
    },
    {
      "time": 44.625,
      "note": 79,
      "duration": 0.125,
      "velocity": 100
    },
    {
      "time": 44.75,
      "note": 83,
      "duration": 0.125,
      "velocity": 100
    },
    {
      "time": 44.75,
      "note": 83,
      "duration": 0.125,
      "velocity": 100
    },
    {
      "time": 44.875,
      "note": 86,
      "duration": 0.125,
      "velocity": 100
    },
    {
      "time": 45.0,
      "note": 83,
      "duration": 0.25,
      "velocity": 100
    },
    {
      "time": 45.25,
      "note": 86,
      "duration": 0.25,
      "velocity": 100
    },
    {
      "time": 45.25,
      "note": 83,
      "duration": 0.125,
      "velocity": 100
    },
    {
      "time": 45.375,
      "note": 86,
      "duration": 0.125,
      "velocity": 100
    },
    {
      "time": 45.375,
      "note": 81,
      "duration": 0.25,
      "velocity": 100
    },
    {
      "time": 45.625,
      "note": 84,
      "duration": 0.25,
      "velocity": 100
    },
    {
      "time": 45.625,
      "note": 79,
      "duration": 0.25,
      "velocity": 100
    },
    {
      "time": 45.875,
      "note": 83,
      "duration": 0.25,
      "velocity": 100
    },
    {
      "time": 45.875,
      "note": 81,
      "duration": 0.375,
      "velocity": 100
    },
    {
      "time": 46.25,
      "note": 84,
      "duration": 0.375,
      "velocity": 100
    },
    {
      "time": 46.25,
      "note": 79,
      "duration": 0.125,
      "velocity": 100
    },
    {
      "time": 46.375,
      "note": 83,
      "duration": 0.125,
      "velocity": 100
    },
    {
      "time": 46.375,
      "note": 79,
      "duration": 0.25,
      "velocity": 100
    },
    {
      "time": 46.625,
      "note": 83,
      "duration": 0.25,
      "velocity": 100
    },
    {
      "time": 46.625,
      "note": 77,
      "duration": 0.25,
      "velocity": 100
    },
    {
      "time": 46.875,
      "note": 81,
      "duration": 0.25,
      "velocity": 100
    },
    {
      "time": 46.875,
      "note": 76,
      "duration": 1.0,
      "velocity": 100
    },
    {
      "time": 47.875,
      "note": 79,
      "duration": 1.0,
      "velocity": 100
    },
    {
      "time": 47.875,
      "note": 69,
      "duration": 0.375,
      "velocity": 100
    },
    {
      "time": 48.25,
      "note": 69,
      "duration": 0.125,
      "velocity": 100
    },
    {
      "time": 48.375,
      "note": 72,
      "duration": 0.125,
      "velocity": 100
    },
    {
      "time": 48.5,
      "note": 76,
      "duration": 0.125,
      "velocity": 100
    },
    {
      "time": 48.625,
      "note": 72,
      "duration": 0.125,
      "velocity": 100
    },
    {
      "time": 48.75,
      "note": 76,
      "duration": 0.125,
      "velocity": 100
    },
    {
      "time": 48.875,
      "note": 69,
      "duration": 0.375,
      "velocity": 100
    },
    {
      "time": 49.25,
      "note": 69,
      "duration": 0.125,
      "velocity": 100
    },
    {
      "time": 49.375,
      "note": 72,
      "duration": 0.125,
      "velocity": 100
    },
    {
      "time": 49.5,
      "note": 76,
      "duration": 0.125,
      "velocity": 100
    },
    {
      "time": 49.625,
      "note": 72,
      "duration": 0.125,
      "velocity": 100
    },
    {
      "time": 49.75,
      "note": 76,
      "duration": 0.125,
      "velocity": 100
    },
    {
      "time": 49.875,
      "note": 69,
      "duration": 0.375,
      "velocity": 100
    },
    {
      "time": 50.25,
      "note": 69,
      "duration": 0.125,
      "velocity": 100
    },
    {
      "time": 50.375,
      "note": 74,
      "duration": 0.5,
      "velocity": 100
    },
    {
      "time": 49.875,
      "note": 69,
      "duration": 0.375,
      "velocity": 100
    },
    {
      "time": 50.25,
      "note": 69,
      "duration": 0.125,
      "velocity": 100
    },
    {
      "time": 50.375,
      "note": 74,
      "duration": 0.5,
      "velocity": 100
    },
    {
      "time": 49.875,
      "note": 77,
      "duration": 0.125,
      "velocity": 100
    },
    {
      "time": 50.0,
      "note": 76,
      "duration": 0.125,
      "velocity": 100
    },
    {
      "time": 50.125,
      "note": 77,
      "duration": 0.125,
      "velocity": 100
    },
    {
      "time": 50.125,
      "note": 76,
      "duration": 0.25,
      "velocity": 100
    },
    {
      "time": 50.625,
      "note": 76,
      "duration": 0.125,
      "velocity": 100
    },
    {
      "time": 50.75,
      "note": 77,
      "duration": 0.125,
      "velocity": 100
    },
    {
      "time": 50.75,
      "note": 76,
      "duration": 0.125,
      "velocity": 100
    },
    {
      "time": 50.875,
      "note": 74,
      "duration": 0.5,
      "velocity": 100
    },
    {
      "time": 51.375,
      "note": 74,
      "duration": 0.125,
      "velocity": 100
    },
    {
      "time": 51.5,
      "note": 76,
      "duration": 0.125,
      "velocity": 100
    },
    {
      "time": 51.625,
      "note": 74,
      "duration": 0.125,
      "velocity": 100
    },
    {
      "time": 51.75,
      "note": 72,
      "duration": 0.125,
      "velocity": 100
    },
    {
      "time": 51.875,
      "note": 69,
      "duration": 0.25,
      "velocity": 100
    },
    {
      "time": 52.125,
      "note": 69,
      "duration": 0.125,
      "velocity": 100
    },
    {
      "time": 52.25,
      "note": 71,
      "duration": 0.125,
      "velocity": 100
    },
    {
      "time": 52.375,
      "note": 72,
      "duration": 0.25,
      "velocity": 100
    },
    {
      "time": 52.625,
      "note": 74,
      "duration": 0.25,
      "velocity": 100
    },
    {
      "time": 52.875,
      "note": 76,
      "duration": 0.25,
      "velocity": 100
    },
    {
      "time": 53.125,
      "note": 76,
      "duration": 0.5,
      "velocity": 100
    },
    {
      "time": 53.625,
      "note": 84,
      "duration": 0.5,
      "velocity": 100
    },
    {
      "time": 52.875,
      "note": 76,
      "duration": 0.75,
      "velocity": 100
    },
    {
      "time": 53.125,
      "note": 77,
      "duration": 1.0,
      "velocity": 100
    },
    {
      "time": 54.375,
      "note": 84,
      "duration": 0.25,
      "velocity": 100
    },
    {
      "time": 54.625,
      "note": 84,
      "duration": 0.25,
      "velocity": 100
    },
    {
      "time": 54.875,
      "note": 84,
      "duration": 0.25,
      "velocity": 100
    },
    {
      "time": 55.125,
      "note": 84,
      "duration": 0.25,
      "velocity": 100
    },
    {
      "time": 55.125,
      "note": 71,
      "duration": 0.25,
      "velocity": 100
    },
    {
      "time": 55.75,
      "note": 86,
      "duration": 0.125,
      "velocity": 100
    },
    {
      "time": 55.875,
      "note": 86,
      "duration": 0.25,
      "velocity": 100
    },
    {
      "time": 56.125,
      "note": 86,
      "duration": 0.125,
      "velocity": 100
    },
    {
      "time": 56.25,
      "note": 86,
      "duration": 0.125,
      "velocity": 100
    },
    {
      "time": 56.375,
      "note": 86,
      "duration": 0.375,
      "velocity": 100
    },
    {
      "time": 56.75,
      "note": 86,
      "duration": 0.125,
      "velocity": 100
    },
    {
      "time": 56.875,
      "note": 86,
      "duration": 0.5,
      "velocity": 100
    },
    {
      "time": 56.375,
      "note": 77,
      "duration": 0.75,
      "velocity": 100
    },
    {
      "time": 57.125,
      "note": 76,
      "duration": 0.25,
      "velocity": 100
    },
    {
      "time": 57.75,
      "note": 83,
      "duration": 0.125,
      "velocity": 100
    },
    {
      "time": 57.875,
      "note": 86,
      "duration": 0.25,
      "velocity": 100
    },
    {
      "time": 58.125,
      "note": 84,
      "duration": 0.125,
      "velocity": 100
    },
    {
      "time": 58.25,
      "note": 83,
      "duration": 0.125,
      "velocity": 100
    },
    {
      "time": 57.375,
      "note": 74,
      "duration": 1.0,
      "velocity": 100
    },
    {
      "time": 58.625,
      "note": 69,
      "duration": 0.25,
      "velocity": 100
    },
    {
      "time": 58.375,
      "note": 86,
      "duration": 0.25,
      "velocity": 100
    },
    {
      "time": 58.625,
      "note": 83,
      "duration": 0.75,
      "velocity": 100
    },
    {
      "time": 59.75,
      "note": 83,
      "duration": 0.125,
      "velocity": 100
    },
    {
      "time": 59.875,
      "note": 86,
      "duration": 0.25,
      "velocity": 100
    },
    {
      "time": 60.125,
      "note": 84,
      "duration": 0.125,
      "velocity": 100
    },
    {
      "time": 60.25,
      "note": 83,
      "duration": 0.125,
      "velocity": 100
    },
    {
      "time": 60.375,
      "note": 88,
      "duration": 0.5,
      "velocity": 100
    },
    {
      "time": 60.875,
      "note": 84,
      "duration": 0.75,
      "velocity": 100
    },
    {
      "time": 60.375,
      "note": 72,
      "duration": 1.0,
      "velocity": 100
    },
    {
      "time": 61.375,
      "note": 69,
      "duration": 0.75,
      "velocity": 100
    },
    {
      "time": 62.125,
      "note": 71,
      "duration": 0.25,
      "velocity": 100
    },
    {
      "time": 62.375,
      "note": 72,
      "duration": 0.5,
      "velocity": 100
    },
    {
      "time": 62.875,
      "note": 69,
      "duration": 0.5,
      "velocity": 100
    },
    {
      "time": 63.375,
      "note": 74,
      "duration": 0.375,
      "velocity": 100
    },
    {
      "time": 63.75,
      "note": 72,
      "duration": 0.25,
      "velocity": 100
    },
    {
      "time": 64.0,
      "note": 74,
      "duration": 0.25,
      "velocity": 100
    },
    {
      "time": 64.25,
      "note": 71,
      "duration": 0.125,
      "velocity": 100
    },
    {
      "time": 64.375,
      "note": 72,
      "duration": 0.125,
      "velocity": 100
    },
    {
      "time": 64.5,
      "note": 74,
      "duration": 0.125,
      "velocity": 100
    },
    {
      "time": 64.625,
      "note": 74,
      "duration": 1.0,
      "velocity": 100
    },
    {
      "time": 65.625,
      "note": 77,
      "duration": 0.5,
      "velocity": 100
    },
    {
      "time": 66.125,
      "note": 74,
      "duration": 0.125,
      "velocity": 100
    },
    {
      "time": 66.25,
      "note": 72,
      "duration": 0.125,
      "velocity": 100
    },
    {
      "time": 66.375,
      "note": 74,
      "duration": 0.25,
      "velocity": 100
    },
    {
      "time": 66.625,
      "note": 72,
      "duration": 0.125,
      "velocity": 100
    },
    {
      "time": 66.75,
      "note": 71,
      "duration": 0.125,
      "velocity": 100
    },
    {
      "time": 66.375,
      "note": 72,
      "duration": 0.25,
      "velocity": 100
    },
    {
      "time": 66.625,
      "note": 71,
      "duration": 0.125,
      "velocity": 100
    },
    {
      "time": 66.75,
      "note": 69,
      "duration": 0.125,
      "velocity": 100
    },
    {
      "time": 66.875,
      "note": 71,
      "duration": 0.5,
      "velocity": 100
    },
    {
      "time": 66.375,
      "note": 69,
      "duration": 0.75,
      "velocity": 100
    },
    {
      "time": 67.125,
      "note": 77,
      "duration": 0.25,
      "velocity": 100
    },
    {
      "time": 67.375,
      "note": 77,
      "duration": 0.125,
      "velocity": 100
    },
    {
      "time": 67.75,
      "note": 81,
      "duration": 0.125,
      "velocity": 100
    }
  ],
  "chords": [
    {
      "time": 0.0,
      "notes": [
        69,
        72,
        76
      ],
      "duration": 2.0568181818181817
    },
    {
      "time": 2.0568181818181817,
      "notes": [
        62,
        65,
        69
      ],
      "duration": 2.0568181818181817
    },
    {
      "time": 4.113636363636363,
      "notes": [
        64,
        68,
        71
      ],
      "duration": 2.0568181818181817
    },
    {
      "time": 6.170454545454545,
      "notes": [
        69,
        72,
        76
      ],
      "duration": 2.0568181818181817
    },
    {
      "time": 8.227272727272727,
      "notes": [
        69,
        72,
        76
      ],
      "duration": 2.0568181818181817
    },
    {
      "time": 10.284090909090908,
      "notes": [
        64,
        68,
        71,
        74
      ],
      "duration": 2.0568181818181817
    },
    {
      "time": 12.34090909090909,
      "notes": [
        69,
        72,
        76
      ],
      "duration": 2.0568181818181817
    },
    {
      "time": 14.397727272727272,
      "notes": [
        69,
        72,
        76
      ],
      "duration": 2.0568181818181817
    },
    {
      "time": 16.454545454545453,
      "notes": [
        62,
        65,
        69
      ],
      "duration": 2.0568181818181817
    },
    {
      "time": 18.511363636363633,
      "notes": [
        64,
        68,
        71
      ],
      "duration": 2.0568181818181817
    },
    {
      "time": 20.568181818181817,
      "notes": [
        69,
        72,
        76
      ],
      "duration": 2.0568181818181817
    },
    {
      "time": 22.625,
      "notes": [
        69,
        72,
        76
      ],
      "duration": 2.0568181818181817
    },
    {
      "time": 24.68181818181818,
      "notes": [
        64,
        68,
        71,
        74
      ],
      "duration": 2.0568181818181817
    },
    {
      "time": 26.73863636363636,
      "notes": [
        69,
        72,
        76
      ],
      "duration": 2.0568181818181817
    },
    {
      "time": 28.795454545454543,
      "notes": [
        64,
        68,
        71,
        74
      ],
      "duration": 2.0568181818181817
    },
    {
      "time": 30.852272727272727,
      "notes": [
        69,
        72,
        76
      ],
      "duration": 2.0568181818181817
    },
    {
      "time": 32.90909090909091,
      "notes": [
        62,
        65,
        69
      ],
      "duration": 2.0568181818181817
    },
    {
      "time": 34.965909090909086,
      "notes": [
        64,
        68,
        71,
        74
      ],
      "duration": 2.0568181818181817
    },
    {
      "time": 37.022727272727266,
      "notes": [
        69,
        72,
        76
      ],
      "duration": 2.0568181818181817
    },
    {
      "time": 39.07954545454545,
      "notes": [
        64,
        68,
        71,
        74
      ],
      "duration": 2.0568181818181817
    },
    {
      "time": 41.13636363636363,
      "notes": [
        69,
        72,
        76
      ],
      "duration": 2.0568181818181817
    },
    {
      "time": 43.19318181818181,
      "notes": [
        62,
        65,
        69
      ],
      "duration": 2.0568181818181817
    },
    {
      "time": 45.25,
      "notes": [
        64,
        68,
        71,
        74
      ],
      "duration": 2.0568181818181817
    },
    {
      "time": 47.30681818181818,
      "notes": [
        69,
        72,
        76
      ],
      "duration": 2.0568181818181817
    },
    {
      "time": 49.36363636363636,
      "notes": [
        64,
        68,
        71,
        74
      ],
      "duration": 2.0568181818181817
    },
    {
      "time": 51.42045454545454,
      "notes": [
        69,
        72,
        76
      ],
      "duration": 2.0568181818181817
    },
    {
      "time": 53.47727272727272,
      "notes": [
        62,
        65,
        69
      ],
      "duration": 2.0568181818181817
    },
    {
      "time": 55.53409090909091,
      "notes": [
        64,
        68,
        71,
        74
      ],
      "duration": 2.0568181818181817
    },
    {
      "time": 57.590909090909086,
      "notes": [
        69,
        72,
        76
      ],
      "duration": 2.0568181818181817
    },
    {
      "time": 59.647727272727266,
      "notes": [
        62,
        65,
        69
      ],
      "duration": 2.0568181818181817
    },
    {
      "time": 61.70454545454545,
      "notes": [
        64,
        68,
        71,
        74
      ],
      "duration": 2.0568181818181817
    },
    {
      "time": 63.76136363636363,
      "notes": [
        69,
        72,
        76
      ],
      "duration": 2.0568181818181817
    },
    {
      "time": 65.81818181818181,
      "notes": [
        64,
        68,
        71,
        74
      ],
      "duration": 2.0568181818181817
    }
  ]
}