{
  "title": "Porque te amo",
  "artist": "La Cumbia",
  "bpm": 120,
  "duration": 56.5,
  "audioFile": "",
  "notes": [
    {
      "time": 0.5,
      "note": 57,
      "duration": 0.125,
      "velocity": 100
    },
    {
      "time": 0.625,
      "note": 52,
      "duration": 0.125,
      "velocity": 100
    },
    {
      "time": 0.75,
      "note": 48,
      "duration": 0.125,
      "velocity": 100
    },
    {
      "time": 0.875,
      "note": 57,
      "duration": 0.125,
      "velocity": 100
    },
    {
      "time": 1.0,
      "note": 57,
      "duration": 0.125,
      "velocity": 100
    },
    {
      "time": 1.125,
      "note": 52,
      "duration": 0.25,
      "velocity": 100
    },
    {
      "time": 1.375,
      "note": 45,
      "duration": 0.125,
      "velocity": 100
    },
    {
      "time": 1.5,
      "note": 45,
      "duration": 0.125,
      "velocity": 100
    },
    {
      "time": 1.625,
      "note": 53,
      "duration": 0.25,
      "velocity": 100
    },
    {
      "time": 1.875,
      "note": 53,
      "duration": 0.125,
      "velocity": 100
    },
    {
      "time": 2.0,
      "note": 53,
      "duration": 0.25,
      "velocity": 100
    },
    {
      "time": 2.25,
      "note": 53,
      "duration": 0.25,
      "velocity": 100
    },
    {
      "time": 2.5,
      "note": 57,
      "duration": 0.125,
      "velocity": 100
    },
    {
      "time": 2.625,
      "note": 52,
      "duration": 0.125,
      "velocity": 100
    },
    {
      "time": 2.75,
      "note": 48,
      "duration": 0.125,
      "velocity": 100
    },
    {
      "time": 2.875,
      "note": 57,
      "duration": 0.125,
      "velocity": 100
    },
    {
      "time": 3.0,
      "note": 57,
      "duration": 0.125,
      "velocity": 100
    },
    {
      "time": 3.125,
      "note": 52,
      "duration": 0.25,
      "velocity": 100
    },
    {
      "time": 3.375,
      "note": 45,
      "duration": 0.125,
      "velocity": 100
    },
    {
      "time": 3.5,
      "note": 45,
      "duration": 0.125,
      "velocity": 100
    },
    {
      "time": 3.625,
      "note": 53,
      "duration": 0.25,
      "velocity": 100
    },
    {
      "time": 3.875,
      "note": 53,
      "duration": 0.125,
      "velocity": 100
    },
    {
      "time": 4.0,
      "note": 53,
      "duration": 0.125,
      "velocity": 100
    },
    {
      "time": 4.125,
      "note": 53,
      "duration": 0.125,
      "velocity": 100
    },
    {
      "time": 4.25,
      "note": 53,
      "duration": 0.25,
      "velocity": 100
    },
    {
      "time": 4.5,
      "note": 53,
      "duration": 0.25,
      "velocity": 100
    },
    {
      "time": 5.125,
      "note": 89,
      "duration": 1.0,
      "velocity": 100
    },
    {
      "time": 6.125,
      "note": 81,
      "duration": 0.125,
      "velocity": 100
    },
    {
      "time": 6.25,
      "note": 79,
      "duration": 0.125,
      "velocity": 100
    },
    {
      "time": 6.375,
      "note": 79,
      "duration": 0.125,
      "velocity": 100
    },
    {
      "time": 6.5,
      "note": 77,
      "duration": 0.125,
      "velocity": 100
    },
    {
      "time": 6.625,
      "note": 89,
      "duration": 0.25,
      "velocity": 100
    },
    {
      "time": 6.875,
      "note": 84,
      "duration": 0.25,
      "velocity": 100
    },
    {
      "time": 7.125,
      "note": 81,
      "duration": 0.125,
      "velocity": 100
    },
    {
      "time": 7.25,
      "note": 79,
      "duration": 0.125,
      "velocity": 100
    },
    {
      "time": 7.375,
      "note": 79,
      "duration": 0.125,
      "velocity": 100
    },
    {
      "time": 7.5,
      "note": 77,
      "duration": 0.125,
      "velocity": 100
    },
    {
      "time": 7.625,
      "note": 89,
      "duration": 0.25,
      "velocity": 100
    },
    {
      "time": 7.875,
      "note": 84,
      "duration": 0.25,
      "velocity": 100
    },
    {
      "time": 8.125,
      "note": 81,
      "duration": 0.125,
      "velocity": 100
    },
    {
      "time": 8.25,
      "note": 79,
      "duration": 0.125,
      "velocity": 100
    },
    {
      "time": 8.375,
      "note": 79,
      "duration": 0.125,
      "velocity": 100
    },
    {
      "time": 8.5,
      "note": 77,
      "duration": 0.125,
      "velocity": 100
    },
    {
      "time": 8.625,
      "note": 81,
      "duration": 0.125,
      "velocity": 100
    },
    {
      "time": 8.75,
      "note": 79,
      "duration": 0.125,
      "velocity": 100
    },
    {
      "time": 8.875,
      "note": 77,
      "duration": 0.125,
      "velocity": 100
    },
    {
      "time": 9.0,
      "note": 88,
      "duration": 0.125,
      "velocity": 100
    },
    {
      "time": 8.125,
      "note": 79,
      "duration": 0.125,
      "velocity": 100
    },
    {
      "time": 8.25,
      "note": 79,
      "duration": 0.125,
      "velocity": 100
    },
    {
      "time": 8.375,
      "note": 77,
      "duration": 0.125,
      "velocity": 100
    },
    {
      "time": 8.5,
      "note": 76,
      "duration": 0.125,
      "velocity": 100
    },
    {
      "time": 8.625,
      "note": 88,
      "duration": 0.25,
      "velocity": 100
    },
    {
      "time": 8.875,
      "note": 82,
      "duration": 0.25,
      "velocity": 100
    },
    {
      "time": 9.125,
      "note": 79,
      "duration": 0.125,
      "velocity": 100
    },
    {
      "time": 9.25,
      "note": 79,
      "duration": 0.125,
      "velocity": 100
    },
    {
      "time": 9.375,
      "note": 77,
      "duration": 0.125,
      "velocity": 100
    },
    {
      "time": 9.5,
      "note": 76,
      "duration": 0.125,
      "velocity": 100
    },
    {
      "time": 9.625,
      "note": 88,
      "duration": 0.25,
      "velocity": 100
    },
    {
      "time": 9.875,
      "note": 82,
      "duration": 0.25,
      "velocity": 100
    },
    {
      "time": 10.125,
      "note": 79,
      "duration": 0.125,
      "velocity": 100
    },
    {
      "time": 10.25,
      "note": 79,
      "duration": 0.125,
      "velocity": 100
    },
    {
      "time": 10.375,
      "note": 77,
      "duration": 0.125,
      "velocity": 100
    },
    {
      "time": 10.5,
      "note": 76,
      "duration": 0.125,
      "velocity": 100
    },
    {
      "time": 10.625,
      "note": 88,
      "duration": 0.25,
      "velocity": 100
    },
    {
      "time": 10.875,
      "note": 82,
      "duration": 0.25,
      "velocity": 100
    },
    {
      "time": 11.125,
      "note": 59,
      "duration": 1.0,
      "velocity": 100
    },
    {
      "time": 12.125,
      "note": 47,
      "duration": 0.125,
      "velocity": 100
    },
    {
      "time": 12.25,
      "note": 47,
      "duration": 0.125,
      "velocity": 100
    },
    {
      "time": 12.375,
      "note": 45,
      "duration": 0.125,
      "velocity": 100
    },
    {
      "time": 12.5,
      "note": 43,
      "duration": 0.125,
      "velocity": 100
    },
    {
      "time": 12.625,
      "note": 47,
      "duration": 0.125,
      "velocity": 100
    },
    {
      "time": 12.75,
      "note": 47,
      "duration": 0.125,
      "velocity": 100
    },
    {
      "time": 12.875,
      "note": 45,
      "duration": 0.125,
      "velocity": 100
    },
    {
      "time": 13.0,
      "note": 52,
      "duration": 0.125,
      "velocity": 100
    },
    {
      "time": 13.625,
      "note": 57,
      "duration": 0.25,
      "velocity": 100
    },
    {
      "time": 13.875,
      "note": 52,
      "duration": 0.25,
      "velocity": 100
    },
    {
      "time": 13.125,
      "note": 48,
      "duration": 0.125,
      "velocity": 100
    },
    {
      "time": 13.25,
      "note": 47,
      "duration": 0.125,
      "velocity": 100
    },
    {
      "time": 13.375,
      "note": 47,
      "duration": 0.125,
      "velocity": 100
    },
    {
      "time": 13.5,
      "note": 45,
      "duration": 0.125,
      "velocity": 100
    },
    {
      "time": 13.625,
      "note": 47,
      "duration": 0.125,
      "velocity": 100
    },
    {
      "time": 13.75,
      "note": 47,
      "duration": 0.125,
      "velocity": 100
    },
    {
      "time": 13.875,
      "note": 45,
      "duration": 0.125,
      "velocity": 100
    },
    {
      "time": 14.0,
      "note": 43,
      "duration": 0.125,
      "velocity": 100
    },
    {
      "time": 14.125,
      "note": 43,
      "duration": 0.5,
      "velocity": 100
    },
    {
      "time": 14.625,
      "note": 52,
      "duration": 0.5,
      "velocity": 100
    },
    {
      "time": 14.625,
      "note": 45,
      "duration": 0.25,
      "velocity": 100
    },
    {
      "time": 14.875,
      "note": 45,
      "duration": 0.125,
      "velocity": 100
    },
    {
      "time": 15.5,
      "note": 50,
      "duration": 0.25,
      "velocity": 100
    },
    {
      "time": 15.75,
      "note": 52,
      "duration": 0.25,
      "velocity": 100
    },
    {
      "time": 16.0,
      "note": 52,
      "duration": 0.25,
      "velocity": 100
    },
    {
      "time": 15.0,
      "note": 47,
      "duration": 0.25,
      "velocity": 100
    },
    {
      "time": 15.25,
      "note": 48,
      "duration": 0.25,
      "velocity": 100
    },
    {
      "time": 15.5,
      "note": 52,
      "duration": 0.5,
      "velocity": 100
    },
    {
      "time": 16.0,
      "note": 52,
      "duration": 0.125,
      "velocity": 100
    },
    {
      "time": 16.125,
      "note": 52,
      "duration": 0.125,
      "velocity": 100
    },
    {
      "time": 16.25,
      "note": 52,
      "duration": 0.25,
      "velocity": 100
    },
    {
      "time": 16.5,
      "note": 48,
      "duration": 0.125,
      "velocity": 100
    },
    {
      "time": 16.75,
      "note": 43,
      "duration": 0.125,
      "velocity": 100
    },
    {
      "time": 16.875,
      "note": 48,
      "duration": 0.125,
      "velocity": 100
    },
    {
      "time": 17.0,
      "note": 50,
      "duration": 0.125,
      "velocity": 100
    },
    {
      "time": 16.625,
      "note": 55,
      "duration": 0.125,
      "velocity": 100
    },
    {
      "time": 16.75,
      "note": 52,
      "duration": 0.125,
      "velocity": 100
    },
    {
      "time": 16.875,
      "note": 52,
      "duration": 0.25,
      "velocity": 100
    },
    {
      "time": 17.125,
      "note": 48,
      "duration": 0.125,
      "velocity": 100
    },
    {
      "time": 17.25,
      "note": 52,
      "duration": 0.125,
      "velocity": 100
    },
    {
      "time": 17.375,
      "note": 50,
      "duration": 0.125,
      "velocity": 100
    },
    {
      "time": 17.5,
      "note": 48,
      "duration": 0.125,
      "velocity": 100
    },
    {
      "time": 17.625,
      "note": 52,
      "duration": 0.125,
      "velocity": 100
    },
    {
      "time": 17.75,
      "note": 52,
      "duration": 0.5,
      "velocity": 100
    },
    {
      "time": 18.25,
      "note": 43,
      "duration": 0.25,
      "velocity": 100
    },
    {
      "time": 18.5,
      "note": 43,
      "duration": 0.125,
      "velocity": 100
    },
    {
      "time": 18.625,
      "note": 48,
      "duration": 0.125,
      "velocity": 100
    },
    {
      "time": 18.75,
      "note": 48,
      "duration": 0.125,
      "velocity": 100
    },
    {
      "time": 18.875,
      "note": 52,
      "duration": 0.25,
      "velocity": 100
    },
    {
      "time": 19.125,
      "note": 52,
      "duration": 0.125,
      "velocity": 100
    },
    {
      "time": 19.25,
      "note": 52,
      "duration": 0.125,
      "velocity": 100
    },
    {
      "time": 19.375,
      "note": 50,
      "duration": 0.25,
      "velocity": 100
    },
    {
      "time": 19.625,
      "note": 50,
      "duration": 0.125,
      "velocity": 100
    },
    {
      "time": 19.75,
      "note": 50,
      "duration": 0.125,
      "velocity": 100
    },
    {
      "time": 19.875,
      "note": 52,
      "duration": 0.25,
      "velocity": 100
    },
    {
      "time": 20.125,
      "note": 52,
      "duration": 0.125,
      "velocity": 100
    },
    {
      "time": 20.25,
      "note": 52,
      "duration": 0.25,
      "velocity": 100
    },
    {
      "time": 20.5,
      "note": 50,
      "duration": 0.25,
      "velocity": 100
    },
    {
      "time": 21.0,
      "note": 48,
      "duration": 0.125,
      "velocity": 100
    },
    {
      "time": 21.125,
      "note": 47,
      "duration": 0.125,
      "velocity": 100
    },
    {
      "time": 21.25,
      "note": 45,
      "duration": 0.25,
      "velocity": 100
    },
    {
      "time": 21.5,
      "note": 48,
      "duration": 0.125,
      "velocity": 100
    },
    {
      "time": 21.625,
      "note": 48,
      "duration": 0.125,
      "velocity": 100
    },
    {
      "time": 21.75,
      "note": 48,
      "duration": 0.125,
      "velocity": 100
    },
    {
      "time": 21.875,
      "note": 50,
      "duration": 0.25,
      "velocity": 100
    },
    {
      "time": 22.125,
      "note": 50,
      "duration": 0.125,
      "velocity": 100
    },
    {
      "time": 22.25,
      "note": 50,
      "duration": 0.125,
      "velocity": 100
    },
    {
      "time": 22.375,
      "note": 48,
      "duration": 0.375,
      "velocity": 100
    },
    {
      "time": 22.75,
      "note": 50,
      "duration": 0.25,
      "velocity": 100
    },
    {
      "time": 23.0,
      "note": 48,
      "duration": 0.25,
      "velocity": 100
    },
    {
      "time": 23.25,
      "note": 52,
      "duration": 0.5,
      "velocity": 100
    },
    {
      "time": 23.75,
      "note": 52,
      "duration": 0.25,
      "velocity": 100
    },
    {
      "time": 24.0,
      "note": 50,
      "duration": 0.125,
      "velocity": 100
    },
    {
      "time": 24.125,
      "note": 48,
      "duration": 0.125,
      "velocity": 100
    },
    {
      "time": 24.25,
      "note": 50,
      "duration": 0.5,
      "velocity": 100
    },
    {
      "time": 24.875,
      "note": 43,
      "duration": 0.125,
      "velocity": 100
    },
    {
      "time": 25.0,
      "note": 48,
      "duration": 0.125,
      "velocity": 100
    },
    {
      "time": 25.125,
      "note": 50,
      "duration": 0.125,
      "velocity": 100
    },
    {
      "time": 25.25,
      "note": 50,
      "duration": 0.125,
      "velocity": 100
    },
    {
      "time": 25.375,
      "note": 48,
      "duration": 0.375,
      "velocity": 100
    },
    {
      "time": 25.875,
      "note": 43,
      "duration": 0.125,
      "velocity": 100
    },
    {
      "time": 26.0,
      "note": 43,
      "duration": 0.125,
      "velocity": 100
    },
    {
      "time": 26.125,
      "note": 43,
      "duration": 0.125,
      "velocity": 100
    },
    {
      "time": 26.25,
      "note": 52,
      "duration": 0.125,
      "velocity": 100
    },
    {
      "time": 26.375,
      "note": 52,
      "duration": 0.125,
      "velocity": 100
    },
    {
      "time": 26.5,
      "note": 52,
      "duration": 0.125,
      "velocity": 100
    },
    {
      "time": 26.625,
      "note": 52,
      "duration": 0.125,
      "velocity": 100
    },
    {
      "time": 26.75,
      "note": 52,
      "duration": 0.125,
      "velocity": 100
    },
    {
      "time": 26.875,
      "note": 48,
      "duration": 0.25,
      "velocity": 100
    },
    {
      "time": 27.125,
      "note": 50,
      "duration": 0.125,
      "velocity": 100
    },
    {
      "time": 27.25,
      "note": 50,
      "duration": 1.0,
      "velocity": 100
    },
    {
      "time": 29.125,
      "note": 43,
      "duration": 0.125,
      "velocity": 100
    },
    {
      "time": 29.5,
      "note": 52,
      "duration": 0.125,
      "velocity": 100
    },
    {
      "time": 29.625,
      "note": 52,
      "duration": 0.125,
      "velocity": 100
    },
    {
      "time": 29.75,
      "note": 52,
      "duration": 0.125,
      "velocity": 100
    },
    {
      "time": 29.875,
      "note": 50,
      "duration": 0.125,
      "velocity": 100
    },
    {
      "time": 30.0,
      "note": 52,
      "duration": 0.125,
      "velocity": 100
    },
    {
      "time": 30.125,
      "note": 52,
      "duration": 0.125,
      "velocity": 100
    },
    {
      "time": 30.25,
      "note": 53,
      "duration": 0.125,
      "velocity": 100
    },
    {
      "time": 30.375,
      "note": 55,
      "duration": 0.125,
      "velocity": 100
    },
    {
      "time": 30.5,
      "note": 55,
      "duration": 0.5,
      "velocity": 100
    },
    {
      "time": 31.125,
      "note": 55,
      "duration": 0.125,
      "velocity": 100
    },
    {
      "time": 31.25,
      "note": 57,
      "duration": 0.125,
      "velocity": 100
    },
    {
      "time": 31.375,
      "note": 55,
      "duration": 0.125,
      "velocity": 100
    },
    {
      "time": 32.0,
      "note": 48,
      "duration": 0.125,
      "velocity": 100
    },
    {
      "time": 32.125,
      "note": 48,
      "duration": 0.125,
      "velocity": 100
    },
    {
      "time": 32.25,
      "note": 48,
      "duration": 0.125,
      "velocity": 100
    },
    {
      "time": 32.375,
      "note": 45,
      "duration": 0.125,
      "velocity": 100
    },
    {
      "time": 32.5,
      "note": 48,
      "duration": 0.125,
      "velocity": 100
    },
    {
      "time": 32.625,
      "note": 48,
      "duration": 0.125,
      "velocity": 100
    },
    {
      "time": 32.75,
      "note": 50,
      "duration": 0.125,
      "velocity": 100
    },
    {
      "time": 32.875,
      "note": 48,
      "duration": 0.125,
      "velocity": 100
    },
    {
      "time": 33.0,
      "note": 48,
      "duration": 0.5,
      "velocity": 100
    },
    {
      "time": 33.625,
      "note": 43,
      "duration": 0.125,
      "velocity": 100
    },
    {
      "time": 33.75,
      "note": 55,
      "duration": 0.125,
      "velocity": 100
    },
    {
      "time": 33.75,
      "note": 43,
      "duration": 0.125,
      "velocity": 100
    },
    {
      "time": 33.875,
      "note": 53,
      "duration": 0.125,
      "velocity": 100
    },
    {
      "time": 33.875,
      "note": 43,
      "duration": 0.125,
      "velocity": 100
    },
    {
      "time": 34.0,
      "note": 52,
      "duration": 0.125,
      "velocity": 100
    },
    {
      "time": 34.0,
      "note": 53,
      "duration": 0.5,
      "velocity": 100
    },
    {
      "time": 34.5,
      "note": 53,
      "duration": 0.25,
      "velocity": 100
    },
    {
      "time": 34.75,
      "note": 55,
      "duration": 0.125,
      "velocity": 100
    },
    {
      "time": 34.875,
      "note": 53,
      "duration": 0.125,
      "velocity": 100
    },
    {
      "time": 35.0,
      "note": 52,
      "duration": 0.5,
      "velocity": 100
    },
    {
      "time": 35.5,
      "note": 52,
      "duration": 0.25,
      "velocity": 100
    },
    {
      "time": 35.75,
      "note": 53,
      "duration": 0.125,
      "velocity": 100
    },
    {
      "time": 35.875,
      "note": 52,
      "duration": 0.125,
      "velocity": 100
    },
    {
      "time": 36.0,
      "note": 50,
      "duration": 0.5,
      "velocity": 100
    },
    {
      "time": 36.5,
      "note": 50,
      "duration": 0.25,
      "velocity": 100
    },
    {
      "time": 36.75,
      "note": 53,
      "duration": 0.25,
      "velocity": 100
    },
    {
      "time": 37.0,
      "note": 53,
      "duration": 0.25,
      "velocity": 100
    },
    {
      "time": 37.25,
      "note": 52,
      "duration": 0.25,
      "velocity": 100
    },
    {
      "time": 37.5,
      "note": 52,
      "duration": 0.5,
      "velocity": 100
    },
    {
      "time": 38.5,
      "note": 91,
      "duration": 1.0,
      "velocity": 100
    },
    {
      "time": 40.0,
      "note": 88,
      "duration": 0.125,
      "velocity": 100
    },
    {
      "time": 40.125,
      "note": 88,
      "duration": 0.125,
      "velocity": 100
    },
    {
      "time": 40.25,
      "note": 86,
      "duration": 0.25,
      "velocity": 100
    },
    {
      "time": 40.5,
      "note": 84,
      "duration": 0.25,
      "velocity": 100
    },
    {
      "time": 40.75,
      "note": 88,
      "duration": 0.125,
      "velocity": 100
    },
    {
      "time": 40.875,
      "note": 88,
      "duration": 0.125,
      "velocity": 100
    },
    {
      "time": 41.0,
      "note": 88,
      "duration": 0.125,
      "velocity": 100
    },
    {
      "time": 41.125,
      "note": 89,
      "duration": 0.125,
      "velocity": 100
    },
    {
      "time": 41.25,
      "note": 89,
      "duration": 0.25,
      "velocity": 100
    },
    {
      "time": 41.5,
      "note": 89,
      "duration": 0.125,
      "velocity": 100
    },
    {
      "time": 41.625,
      "note": 88,
      "duration": 0.375,
      "velocity": 100
    },
    {
      "time": 42.125,
      "note": 84,
      "duration": 0.125,
      "velocity": 100
    },
    {
      "time": 42.25,
      "note": 84,
      "duration": 0.125,
      "velocity": 100
    },
    {
      "time": 42.375,
      "note": 84,
      "duration": 0.125,
      "velocity": 100
    },
    {
      "time": 42.5,
      "note": 83,
      "duration": 0.25,
      "velocity": 100
    },
    {
      "time": 42.75,
      "note": 88,
      "duration": 0.125,
      "velocity": 100
    },
    {
      "time": 42.875,
      "note": 88,
      "duration": 0.125,
      "velocity": 100
    },
    {
      "time": 43.0,
      "note": 88,
      "duration": 0.125,
      "velocity": 100
    },
    {
      "time": 43.125,
      "note": 88,
      "duration": 0.125,
      "velocity": 100
    },
    {
      "time": 43.25,
      "note": 89,
      "duration": 0.125,
      "velocity": 100
    },
    {
      "time": 43.375,
      "note": 89,
      "duration": 0.125,
      "velocity": 100
    },
    {
      "time": 43.5,
      "note": 89,
      "duration": 0.125,
      "velocity": 100
    },
    {
      "time": 43.625,
      "note": 88,
      "duration": 0.375,
      "velocity": 100
    },
    {
      "time": 44.125,
      "note": 83,
      "duration": 0.25,
      "velocity": 100
    },
    {
      "time": 44.375,
      "note": 84,
      "duration": 0.125,
      "velocity": 100
    },
    {
      "time": 44.5,
      "note": 86,
      "duration": 0.25,
      "velocity": 100
    },
    {
      "time": 44.75,
      "note": 84,
      "duration": 0.125,
      "velocity": 100
    },
    {
      "time": 44.875,
      "note": 86,
      "duration": 0.125,
      "velocity": 100
    },
    {
      "time": 45.0,
      "note": 86,
      "duration": 0.25,
      "velocity": 100
    },
    {
      "time": 45.25,
      "note": 84,
      "duration": 0.125,
      "velocity": 100
    },
    {
      "time": 45.375,
      "note": 86,
      "duration": 0.125,
      "velocity": 100
    },
    {
      "time": 45.5,
      "note": 55,
      "duration": 0.25,
      "velocity": 100
    },
    {
      "time": 45.75,
      "note": 53,
      "duration": 0.125,
      "velocity": 100
    },
    {
      "time": 45.875,
      "note": 52,
      "duration": 0.125,
      "velocity": 100
    },
    {
      "time": 46.0,
      "note": 52,
      "duration": 0.125,
      "velocity": 100
    },
    {
      "time": 46.125,
      "note": 52,
      "duration": 0.125,
      "velocity": 100
    },
    {
      "time": 46.25,
      "note": 48,
      "duration": 0.25,
      "velocity": 100
    },
    {
      "time": 46.5,
      "note": 52,
      "duration": 0.375,
      "velocity": 100
    },
    {
      "time": 46.875,
      "note": 50,
      "duration": 0.125,
      "velocity": 100
    },
    {
      "time": 47.0,
      "note": 50,
      "duration": 0.5,
      "velocity": 100
    },
    {
      "time": 47.5,
      "note": 57,
      "duration": 0.125,
      "velocity": 100
    },
    {
      "time": 47.625,
      "note": 55,
      "duration": 0.375,
      "velocity": 100
    },
    {
      "time": 48.125,
      "note": 52,
      "duration": 0.125,
      "velocity": 100
    },
    {
      "time": 48.25,
      "note": 53,
      "duration": 0.125,
      "velocity": 100
    },
    {
      "time": 48.375,
      "note": 52,
      "duration": 0.125,
      "velocity": 100
    },
    {
      "time": 48.5,
      "note": 53,
      "duration": 0.25,
      "velocity": 100
    },
    {
      "time": 48.75,
      "note": 52,
      "duration": 0.125,
      "velocity": 100
    },
    {
      "time": 48.875,
      "note": 53,
      "duration": 0.125,
      "velocity": 100
    },
    {
      "time": 49.0,
      "note": 53,
      "duration": 0.125,
      "velocity": 100
    },
    {
      "time": 49.125,
      "note": 52,
      "duration": 0.25,
      "velocity": 100
    },
    {
      "time": 49.375,
      "note": 53,
      "duration": 0.125,
      "velocity": 100
    },
    {
      "time": 49.5,
      "note": 53,
      "duration": 0.25,
      "velocity": 100
    },
    {
      "time": 49.75,
      "note": 52,
      "duration": 0.25,
      "velocity": 100
    },
    {
      "time": 50.0,
      "note": 50,
      "duration": 0.25,
      "velocity": 100
    },
    {
      "time": 50.25,
      "note": 48,
      "duration": 0.25,
      "velocity": 100
    },
    {
      "time": 50.5,
      "note": 52,
      "duration": 0.25,
      "velocity": 100
    },
    {
      "time": 50.75,
      "note": 50,
      "duration": 0.125,
      "velocity": 100
    },
    {
      "time": 50.875,
      "note": 50,
      "duration": 0.125,
      "velocity": 100
    },
    {
      "time": 51.0,
      "note": 50,
      "duration": 0.125,
      "velocity": 100
    },
    {
      "time": 51.125,
      "note": 52,
      "duration": 0.25,
      "velocity": 100
    },
    {
      "time": 51.375,
      "note": 53,
      "duration": 0.125,
      "velocity": 100
    },
    {
      "time": 51.5,
      "note": 53,
      "duration": 0.5,
      "velocity": 100
    },
    {
      "time": 52.0,
      "note": 45,
      "duration": 0.125,
      "velocity": 100
    },
    {
      "time": 52.125,
      "note": 47,
      "duration": 0.125,
      "velocity": 100
    },
    {
      "time": 52.25,
      "note": 45,
      "duration": 0.25,
      "velocity": 100
    },
    {
      "time": 52.5,
      "note": 53,
      "duration": 0.5,
      "velocity": 100
    },
    {
      "time": 53.0,
      "note": 53,
      "duration": 0.25,
      "velocity": 100
    },
    {
      "time": 53.25,
      "note": 55,
      "duration": 0.125,
      "velocity": 100
    },
    {
      "time": 53.375,
      "note": 53,
      "duration": 0.125,
      "velocity": 100
    },
    {
      "time": 53.5,
      "note": 52,
      "duration": 0.5,
      "velocity": 100
    },
    {
      "time": 54.0,
      "note": 52,
      "duration": 0.25,
      "velocity": 100
    },
    {
      "time": 54.25,
      "note": 53,
      "duration": 0.125,
      "velocity": 100
    },
    {
      "time": 54.375,
      "note": 52,
      "duration": 0.125,
      "velocity": 100
    },
    {
      "time": 54.5,
      "note": 50,
      "duration": 0.5,
      "velocity": 100
    },
    {
      "time": 55.0,
      "note": 50,
      "duration": 0.25,
      "velocity": 100
    },
    {
      "time": 55.25,
      "note": 53,
      "duration": 0.25,
      "velocity": 100
    },
    {
      "time": 55.5,
      "note": 52,
      "duration": 0.5,
      "velocity": 100
    },
    {
      "time": 56.0,
      "note": 52,
      "duration": 0.125,
      "velocity": 100
    },
    {
      "time": 56.125,
      "note": 45,
      "duration": 0.125,
      "velocity": 100
    },
    {
      "time": 56.25,
      "note": 47,
      "duration": 0.125,
      "velocity": 100
    },
    {
      "time": 56.375,
      "note": 45,
      "duration": 0.125,
      "velocity": 100
    }
  ],
  "chords": [
    {
      "time": 0.0,
      "notes": [
        66,
        69,
        73
      ],
      "duration": 2.173076923076923
    },
    {
      "time": 2.173076923076923,
      "notes": [
        64,
        68,
        71,
        74
      ],
      "duration": 2.173076923076923
    },
    {
      "time": 4.346153846153846,
      "notes": [
        66,
        69,
        73
      ],
      "duration": 2.173076923076923
    },
    {
      "time": 6.519230769230768,
      "notes": [
        66,
        69,
        73
      ],
      "duration": 2.173076923076923
    },
    {
      "time": 8.692307692307692,
      "notes": [
        69,
        73,
        76
      ],
      "duration": 2.173076923076923
    },
    {
      "time": 10.865384615384615,
      "notes": [
        64,
        68,
        71,
        74
      ],
      "duration": 2.173076923076923
    },
    {
      "time": 13.038461538461537,
      "notes": [
        62,
        66,
        69
      ],
      "duration": 2.173076923076923
    },
    {
      "time": 15.21153846153846,
      "notes": [
        69,
        73,
        76
      ],
      "duration": 2.173076923076923
    },
    {
      "time": 17.384615384615383,
      "notes": [
        62,
        66,
        69
      ],
      "duration": 2.173076923076923
    },
    {
      "time": 19.557692307692307,
      "notes": [
        69,
        73,
        76
      ],
      "duration": 2.173076923076923
    },
    {
      "time": 21.73076923076923,
      "notes": [
        64,
        68,
        71,
        74
      ],
      "duration": 2.173076923076923
    },
    {
      "time": 23.903846153846153,
      "notes": [
        61,
        64,
        68
      ],
      "duration": 2.173076923076923
    },
    {
      "time": 26.076923076923073,
      "notes": [
        66,
        69,
        73
      ],
      "duration": 2.173076923076923
    },
    {
      "time": 28.249999999999996,
      "notes": [
        62,
        66,
        69
      ],
      "duration": 2.173076923076923
    },
    {
      "time": 30.42307692307692,
      "notes": [
        61,
        64,
        68
      ],
      "duration": 2.173076923076923
    },
    {
      "time": 32.59615384615385,
      "notes": [
        71,
        74,
        78
      ],
      "duration": 2.173076923076923
    },
    {
      "time": 34.76923076923077,
      "notes": [
        64,
        68,
        71,
        74
      ],
      "duration": 2.173076923076923
    },
    {
      "time": 36.942307692307686,
      "notes": [
        69,
        73,
        76
      ],
      "duration": 2.173076923076923
    },
    {
      "time": 39.11538461538461,
      "notes": [
        62,
        66,
        69
      ],
      "duration": 2.173076923076923
    },
    {
      "time": 41.28846153846153,
      "notes": [
        64,
        68,
        71,
        74
      ],
      "duration": 2.173076923076923
    },
    {
      "time": 43.46153846153846,
      "notes": [
        62,
        66,
        69
      ],
      "duration": 2.173076923076923
    },
    {
      "time": 45.63461538461538,
      "notes": [
        64,
        68,
        71,
        74
      ],
      "duration": 2.173076923076923
    },
    {
      "time": 47.80769230769231,
      "notes": [
        62,
        66,
        69
      ],
      "duration": 2.173076923076923
    },
    {
      "time": 49.980769230769226,
      "notes": [
        61,
        64,
        68
      ],
      "duration": 2.173076923076923
    },
    {
      "time": 52.153846153846146,
      "notes": [
        71,
        74,
        78
      ],
      "duration": 2.173076923076923
    },
    {
      "time": 54.32692307692307,
      "notes": [
        64,
        68,
        71,
        74
      ],
      "duration": 2.173076923076923
    }
  ]
}