{
  "title": "La pagaras",
  "artist": "La Nueva Luna",
  "bpm": 120,
  "duration": 51.375,
  "audioFile": "",
  "notes": [
    {
      "time": 0.125,
      "note": 86,
      "duration": 0.16666666666666666,
      "velocity": 100
    },
    {
      "time": 0.29166666666666663,
      "note": 86,
      "duration": 0.08333333333333333,
      "velocity": 100
    },
    {
      "time": 0.37499999999999994,
      "note": 94,
      "duration": 0.125,
      "velocity": 100
    },
    {
      "time": 0.49999999999999994,
      "note": 91,
      "duration": 0.125,
      "velocity": 100
    },
    {
      "time": 0.625,
      "note": 94,
      "duration": 0.125,
      "velocity": 100
    },
    {
      "time": 0.75,
      "note": 91,
      "duration": 0.125,
      "velocity": 100
    },
    {
      "time": 0.875,
      "note": 86,
      "duration": 0.25,
      "velocity": 100
    },
    {
      "time": 1.125,
      "note": 86,
      "duration": 0.125,
      "velocity": 100
    },
    {
      "time": 1.25,
      "note": 86,
      "duration": 0.125,
      "velocity": 100
    },
    {
      "time": 1.375,
      "note": 84,
      "duration": 0.25,
      "velocity": 100
    },
    {
      "time": 1.625,
      "note": 86,
      "duration": 0.25,
      "velocity": 100
    },
    {
      "time": 1.625,
      "note": 86,
      "duration": 0.125,
      "velocity": 100
    },
    {
      "time": 1.75,
      "note": 94,
      "duration": 0.125,
      "velocity": 100
    },
    {
      "time": 1.875,
      "note": 91,
      "duration": 0.375,
      "velocity": 100
    },
    {
      "time": 2.25,
      "note": 86,
      "duration": 0.125,
      "velocity": 100
    },
    {
      "time": 2.375,
      "note": 94,
      "duration": 0.125,
      "velocity": 100
    },
    {
      "time": 2.5,
      "note": 91,
      "duration": 0.125,
      "velocity": 100
    },
    {
      "time": 2.625,
      "note": 94,
      "duration": 0.125,
      "velocity": 100
    },
    {
      "time": 2.75,
      "note": 91,
      "duration": 0.125,
      "velocity": 100
    },
    {
      "time": 2.875,
      "note": 86,
      "duration": 0.25,
      "velocity": 100
    },
    {
      "time": 3.125,
      "note": 86,
      "duration": 0.125,
      "velocity": 100
    },
    {
      "time": 3.25,
      "note": 86,
      "duration": 0.125,
      "velocity": 100
    },
    {
      "time": 3.5,
      "note": 86,
      "duration": 0.125,
      "velocity": 100
    },
    {
      "time": 3.625,
      "note": 86,
      "duration": 0.125,
      "velocity": 100
    },
    {
      "time": 3.75,
      "note": 94,
      "duration": 0.125,
      "velocity": 100
    },
    {
      "time": 3.875,
      "note": 91,
      "duration": 0.375,
      "velocity": 100
    },
    {
      "time": 4.25,
      "note": 86,
      "duration": 0.125,
      "velocity": 100
    },
    {
      "time": 4.375,
      "note": 94,
      "duration": 0.125,
      "velocity": 100
    },
    {
      "time": 4.5,
      "note": 91,
      "duration": 0.125,
      "velocity": 100
    },
    {
      "time": 4.625,
      "note": 94,
      "duration": 0.125,
      "velocity": 100
    },
    {
      "time": 4.75,
      "note": 91,
      "duration": 0.125,
      "velocity": 100
    },
    {
      "time": 4.875,
      "note": 86,
      "duration": 0.25,
      "velocity": 100
    },
    {
      "time": 5.125,
      "note": 86,
      "duration": 0.125,
      "velocity": 100
    },
    {
      "time": 5.25,
      "note": 86,
      "duration": 0.125,
      "velocity": 100
    },
    {
      "time": 5.5,
      "note": 86,
      "duration": 0.125,
      "velocity": 100
    },
    {
      "time": 5.625,
      "note": 86,
      "duration": 0.125,
      "velocity": 100
    },
    {
      "time": 5.75,
      "note": 94,
      "duration": 0.125,
      "velocity": 100
    },
    {
      "time": 5.875,
      "note": 91,
      "duration": 0.375,
      "velocity": 100
    },
    {
      "time": 6.25,
      "note": 86,
      "duration": 0.125,
      "velocity": 100
    },
    {
      "time": 6.375,
      "note": 94,
      "duration": 0.125,
      "velocity": 100
    },
    {
      "time": 6.5,
      "note": 91,
      "duration": 0.125,
      "velocity": 100
    },
    {
      "time": 6.625,
      "note": 94,
      "duration": 0.125,
      "velocity": 100
    },
    {
      "time": 6.75,
      "note": 91,
      "duration": 0.125,
      "velocity": 100
    },
    {
      "time": 6.875,
      "note": 86,
      "duration": 0.25,
      "velocity": 100
    },
    {
      "time": 7.125,
      "note": 86,
      "duration": 0.125,
      "velocity": 100
    },
    {
      "time": 7.25,
      "note": 86,
      "duration": 0.125,
      "velocity": 100
    },
    {
      "time": 7.5,
      "note": 86,
      "duration": 0.125,
      "velocity": 100
    },
    {
      "time": 7.625,
      "note": 86,
      "duration": 0.125,
      "velocity": 100
    },
    {
      "time": 7.75,
      "note": 94,
      "duration": 0.125,
      "velocity": 100
    },
    {
      "time": 7.875,
      "note": 91,
      "duration": 1.0,
      "velocity": 100
    },
    {
      "time": 8.875,
      "note": 91,
      "duration": 1.0,
      "velocity": 100
    },
    {
      "time": 10.0,
      "note": 82,
      "duration": 0.125,
      "velocity": 100
    },
    {
      "time": 10.125,
      "note": 81,
      "duration": 0.125,
      "velocity": 100
    },
    {
      "time": 10.25,
      "note": 79,
      "duration": 0.125,
      "velocity": 100
    },
    {
      "time": 10.375,
      "note": 82,
      "duration": 0.125,
      "velocity": 100
    },
    {
      "time": 10.5,
      "note": 81,
      "duration": 0.125,
      "velocity": 100
    },
    {
      "time": 10.625,
      "note": 79,
      "duration": 0.125,
      "velocity": 100
    },
    {
      "time": 10.75,
      "note": 77,
      "duration": 0.125,
      "velocity": 100
    },
    {
      "time": 11.0,
      "note": 81,
      "duration": 0.125,
      "velocity": 100
    },
    {
      "time": 11.125,
      "note": 79,
      "duration": 0.125,
      "velocity": 100
    },
    {
      "time": 11.25,
      "note": 77,
      "duration": 0.125,
      "velocity": 100
    },
    {
      "time": 11.375,
      "note": 81,
      "duration": 0.125,
      "velocity": 100
    },
    {
      "time": 11.5,
      "note": 79,
      "duration": 0.125,
      "velocity": 100
    },
    {
      "time": 11.625,
      "note": 77,
      "duration": 0.125,
      "velocity": 100
    },
    {
      "time": 11.75,
      "note": 79,
      "duration": 0.125,
      "velocity": 100
    },
    {
      "time": 12.0,
      "note": 82,
      "duration": 0.125,
      "velocity": 100
    },
    {
      "time": 12.125,
      "note": 81,
      "duration": 0.125,
      "velocity": 100
    },
    {
      "time": 12.25,
      "note": 79,
      "duration": 0.0625,
      "velocity": 100
    },
    {
      "time": 12.3125,
      "note": 79,
      "duration": 0.0625,
      "velocity": 100
    },
    {
      "time": 12.375,
      "note": 82,
      "duration": 0.125,
      "velocity": 100
    },
    {
      "time": 12.5,
      "note": 81,
      "duration": 0.125,
      "velocity": 100
    },
    {
      "time": 12.625,
      "note": 79,
      "duration": 0.125,
      "velocity": 100
    },
    {
      "time": 12.75,
      "note": 82,
      "duration": 0.125,
      "velocity": 100
    },
    {
      "time": 12.375,
      "note": 82,
      "duration": 0.125,
      "velocity": 100
    },
    {
      "time": 12.5,
      "note": 84,
      "duration": 0.125,
      "velocity": 100
    },
    {
      "time": 12.625,
      "note": 82,
      "duration": 0.125,
      "velocity": 100
    },
    {
      "time": 12.75,
      "note": 79,
      "duration": 0.125,
      "velocity": 100
    },
    {
      "time": 11.875,
      "note": 86,
      "duration": 0.125,
      "velocity": 100
    },
    {
      "time": 12.0,
      "note": 87,
      "duration": 0.125,
      "velocity": 100
    },
    {
      "time": 12.125,
      "note": 84,
      "duration": 0.125,
      "velocity": 100
    },
    {
      "time": 12.25,
      "note": 86,
      "duration": 0.125,
      "velocity": 100
    },
    {
      "time": 12.375,
      "note": 84,
      "duration": 1.0,
      "velocity": 100
    },
    {
      "time": 13.5,
      "note": 94,
      "duration": 0.125,
      "velocity": 100
    },
    {
      "time": 13.625,
      "note": 94,
      "duration": 0.125,
      "velocity": 100
    },
    {
      "time": 13.75,
      "note": 91,
      "duration": 0.125,
      "velocity": 100
    },
    {
      "time": 13.875,
      "note": 94,
      "duration": 0.125,
      "velocity": 100
    },
    {
      "time": 14.0,
      "note": 93,
      "duration": 0.125,
      "velocity": 100
    },
    {
      "time": 14.125,
      "note": 91,
      "duration": 0.125,
      "velocity": 100
    },
    {
      "time": 14.25,
      "note": 89,
      "duration": 0.125,
      "velocity": 100
    },
    {
      "time": 14.875,
      "note": 93,
      "duration": 0.125,
      "velocity": 100
    },
    {
      "time": 15.0,
      "note": 91,
      "duration": 0.125,
      "velocity": 100
    },
    {
      "time": 15.125,
      "note": 89,
      "duration": 0.125,
      "velocity": 100
    },
    {
      "time": 15.25,
      "note": 93,
      "duration": 0.125,
      "velocity": 100
    },
    {
      "time": 15.375,
      "note": 91,
      "duration": 0.125,
      "velocity": 100
    },
    {
      "time": 15.5,
      "note": 89,
      "duration": 0.125,
      "velocity": 100
    },
    {
      "time": 15.625,
      "note": 91,
      "duration": 0.125,
      "velocity": 100
    },
    {
      "time": 14.625,
      "note": 94,
      "duration": 0.125,
      "velocity": 100
    },
    {
      "time": 14.75,
      "note": 94,
      "duration": 0.125,
      "velocity": 100
    },
    {
      "time": 14.875,
      "note": 91,
      "duration": 0.125,
      "velocity": 100
    },
    {
      "time": 15.0,
      "note": 94,
      "duration": 0.125,
      "velocity": 100
    },
    {
      "time": 15.125,
      "note": 94,
      "duration": 0.125,
      "velocity": 100
    },
    {
      "time": 15.25,
      "note": 91,
      "duration": 0.125,
      "velocity": 100
    },
    {
      "time": 15.375,
      "note": 94,
      "duration": 0.125,
      "velocity": 100
    },
    {
      "time": 15.5,
      "note": 98,
      "duration": 0.125,
      "velocity": 100
    },
    {
      "time": 15.625,
      "note": 100,
      "duration": 0.125,
      "velocity": 100
    },
    {
      "time": 15.75,
      "note": 96,
      "duration": 0.125,
      "velocity": 100
    },
    {
      "time": 15.875,
      "note": 98,
      "duration": 0.125,
      "velocity": 100
    },
    {
      "time": 16.0,
      "note": 94,
      "duration": 0.125,
      "velocity": 100
    },
    {
      "time": 16.125,
      "note": 96,
      "duration": 0.125,
      "velocity": 100
    },
    {
      "time": 16.25,
      "note": 94,
      "duration": 0.125,
      "velocity": 100
    },
    {
      "time": 16.375,
      "note": 91,
      "duration": 0.125,
      "velocity": 100
    },
    {
      "time": 16.875,
      "note": 91,
      "duration": 0.0625,
      "velocity": 100
    },
    {
      "time": 16.9375,
      "note": 91,
      "duration": 0.0625,
      "velocity": 100
    },
    {
      "time": 17.0,
      "note": 91,
      "duration": 0.125,
      "velocity": 100
    },
    {
      "time": 17.125,
      "note": 103,
      "duration": 0.125,
      "velocity": 100
    },
    {
      "time": 17.25,
      "note": 91,
      "duration": 0.25,
      "velocity": 100
    },
    {
      "time": 17.5,
      "note": 84,
      "duration": 1.0,
      "velocity": 100
    },
    {
      "time": 17.5,
      "note": 86,
      "duration": 0.125,
      "velocity": 100
    },
    {
      "time": 17.625,
      "note": 84,
      "duration": 0.25,
      "velocity": 100
    },
    {
      "time": 17.875,
      "note": 86,
      "duration": 0.125,
      "velocity": 100
    },
    {
      "time": 18.0,
      "note": 86,
      "duration": 0.5,
      "velocity": 100
    },
    {
      "time": 19.125,
      "note": 79,
      "duration": 0.25,
      "velocity": 100
    },
    {
      "time": 19.375,
      "note": 79,
      "duration": 0.125,
      "velocity": 100
    },
    {
      "time": 19.5,
      "note": 84,
      "duration": 0.125,
      "velocity": 100
    },
    {
      "time": 19.625,
      "note": 84,
      "duration": 0.125,
      "velocity": 100
    },
    {
      "time": 19.75,
      "note": 84,
      "duration": 0.125,
      "velocity": 100
    },
    {
      "time": 19.875,
      "note": 84,
      "duration": 0.125,
      "velocity": 100
    },
    {
      "time": 20.0,
      "note": 84,
      "duration": 0.25,
      "velocity": 100
    },
    {
      "time": 20.25,
      "note": 86,
      "duration": 0.125,
      "velocity": 100
    },
    {
      "time": 20.375,
      "note": 88,
      "duration": 0.125,
      "velocity": 100
    },
    {
      "time": 20.5,
      "note": 88,
      "duration": 0.125,
      "velocity": 100
    },
    {
      "time": 20.625,
      "note": 84,
      "duration": 0.25,
      "velocity": 100
    },
    {
      "time": 21.0,
      "note": 88,
      "duration": 0.125,
      "velocity": 100
    },
    {
      "time": 21.125,
      "note": 84,
      "duration": 0.25,
      "velocity": 100
    },
    {
      "time": 21.375,
      "note": 86,
      "duration": 0.125,
      "velocity": 100
    },
    {
      "time": 21.5,
      "note": 86,
      "duration": 1.0,
      "velocity": 100
    },
    {
      "time": 22.5,
      "note": 84,
      "duration": 1.0,
      "velocity": 100
    },
    {
      "time": 22.5,
      "note": 84,
      "duration": 0.125,
      "velocity": 100
    },
    {
      "time": 22.625,
      "note": 84,
      "duration": 0.125,
      "velocity": 100
    },
    {
      "time": 22.75,
      "note": 84,
      "duration": 0.125,
      "velocity": 100
    },
    {
      "time": 22.875,
      "note": 84,
      "duration": 0.125,
      "velocity": 100
    },
    {
      "time": 23.0,
      "note": 84,
      "duration": 0.25,
      "velocity": 100
    },
    {
      "time": 23.25,
      "note": 86,
      "duration": 0.125,
      "velocity": 100
    },
    {
      "time": 23.375,
      "note": 88,
      "duration": 0.125,
      "velocity": 100
    },
    {
      "time": 23.5,
      "note": 88,
      "duration": 0.5,
      "velocity": 100
    },
    {
      "time": 24.0,
      "note": 84,
      "duration": 0.5,
      "velocity": 100
    },
    {
      "time": 23.5,
      "note": 88,
      "duration": 0.125,
      "velocity": 100
    },
    {
      "time": 23.625,
      "note": 88,
      "duration": 0.125,
      "velocity": 100
    },
    {
      "time": 23.75,
      "note": 88,
      "duration": 0.125,
      "velocity": 100
    },
    {
      "time": 23.875,
      "note": 88,
      "duration": 0.125,
      "velocity": 100
    },
    {
      "time": 24.0,
      "note": 88,
      "duration": 0.16666666666666666,
      "velocity": 100
    },
    {
      "time": 24.166666666666668,
      "note": 86,
      "duration": 0.16666666666666666,
      "velocity": 100
    },
    {
      "time": 24.333333333333332,
      "note": 84,
      "duration": 0.16666666666666666,
      "velocity": 100
    },
    {
      "time": 24.5,
      "note": 86,
      "duration": 0.16666666666666666,
      "velocity": 100
    },
    {
      "time": 24.666666666666668,
      "note": 84,
      "duration": 0.16666666666666666,
      "velocity": 100
    },
    {
      "time": 24.833333333333332,
      "note": 82,
      "duration": 0.16666666666666666,
      "velocity": 100
    },
    {
      "time": 25.0,
      "note": 81,
      "duration": 0.16666666666666666,
      "velocity": 100
    },
    {
      "time": 25.166666666666668,
      "note": 82,
      "duration": 0.16666666666666666,
      "velocity": 100
    },
    {
      "time": 25.333333333333332,
      "note": 81,
      "duration": 0.16666666666666666,
      "velocity": 100
    },
    {
      "time": 25.5,
      "note": 82,
      "duration": 0.16666666666666666,
      "velocity": 100
    },
    {
      "time": 25.666666666666668,
      "note": 81,
      "duration": 0.16666666666666666,
      "velocity": 100
    },
    {
      "time": 25.833333333333332,
      "note": 79,
      "duration": 0.16666666666666666,
      "velocity": 100
    },
    {
      "time": 26.0,
      "note": 79,
      "duration": 0.5,
      "velocity": 100
    },
    {
      "time": 26.5,
      "note": 84,
      "duration": 1.0,
      "velocity": 100
    },
    {
      "time": 28.0,
      "note": 81,
      "duration": 0.25,
      "velocity": 100
    },
    {
      "time": 28.25,
      "note": 88,
      "duration": 0.125,
      "velocity": 100
    },
    {
      "time": 28.375,
      "note": 86,
      "duration": 0.125,
      "velocity": 100
    },
    {
      "time": 27.625,
      "note": 77,
      "duration": 0.25,
      "velocity": 100
    },
    {
      "time": 27.875,
      "note": 77,
      "duration": 0.125,
      "velocity": 100
    },
    {
      "time": 28.0,
      "note": 86,
      "duration": 0.25,
      "velocity": 100
    },
    {
      "time": 28.25,
      "note": 79,
      "duration": 0.125,
      "velocity": 100
    },
    {
      "time": 28.375,
      "note": 77,
      "duration": 0.125,
      "velocity": 100
    },
    {
      "time": 28.5,
      "note": 77,
      "duration": 0.125,
      "velocity": 100
    },
    {
      "time": 28.625,
      "note": 84,
      "duration": 0.125,
      "velocity": 100
    },
    {
      "time": 28.75,
      "note": 88,
      "duration": 0.125,
      "velocity": 100
    },
    {
      "time": 28.875,
      "note": 86,
      "duration": 0.125,
      "velocity": 100
    },
    {
      "time": 29.0,
      "note": 86,
      "duration": 0.25,
      "velocity": 100
    },
    {
      "time": 29.25,
      "note": 77,
      "duration": 0.125,
      "velocity": 100
    },
    {
      "time": 29.375,
      "note": 77,
      "duration": 0.125,
      "velocity": 100
    },
    {
      "time": 29.5,
      "note": 77,
      "duration": 0.125,
      "velocity": 100
    },
    {
      "time": 29.625,
      "note": 79,
      "duration": 0.125,
      "velocity": 100
    },
    {
      "time": 29.75,
      "note": 86,
      "duration": 0.125,
      "velocity": 100
    },
    {
      "time": 29.875,
      "note": 84,
      "duration": 0.125,
      "velocity": 100
    },
    {
      "time": 30.0,
      "note": 84,
      "duration": 0.125,
      "velocity": 100
    },
    {
      "time": 30.125,
      "note": 88,
      "duration": 0.25,
      "velocity": 100
    },
    {
      "time": 30.375,
      "note": 77,
      "duration": 0.125,
      "velocity": 100
    },
    {
      "time": 30.5,
      "note": 76,
      "duration": 0.125,
      "velocity": 100
    },
    {
      "time": 30.625,
      "note": 82,
      "duration": 0.125,
      "velocity": 100
    },
    {
      "time": 30.75,
      "note": 81,
      "duration": 0.125,
      "velocity": 100
    },
    {
      "time": 30.875,
      "note": 79,
      "duration": 0.125,
      "velocity": 100
    },
    {
      "time": 31.0,
      "note": 81,
      "duration": 0.25,
      "velocity": 100
    },
    {
      "time": 31.25,
      "note": 77,
      "duration": 0.125,
      "velocity": 100
    },
    {
      "time": 31.375,
      "note": 81,
      "duration": 0.25,
      "velocity": 100
    },
    {
      "time": 31.625,
      "note": 82,
      "duration": 0.125,
      "velocity": 100
    },
    {
      "time": 31.75,
      "note": 81,
      "duration": 0.125,
      "velocity": 100
    },
    {
      "time": 31.875,
      "note": 82,
      "duration": 0.125,
      "velocity": 100
    },
    {
      "time": 32.0,
      "note": 86,
      "duration": 0.125,
      "velocity": 100
    },
    {
      "time": 32.375,
      "note": 84,
      "duration": 1.0,
      "velocity": 100
    },
    {
      "time": 32.125,
      "note": 82,
      "duration": 0.5,
      "velocity": 100
    },
    {
      "time": 32.625,
      "note": 86,
      "duration": 0.5,
      "velocity": 100
    },
    {
      "time": 33.125,
      "note": 89,
      "duration": 1.0,
      "velocity": 100
    },
    {
      "time": 34.125,
      "note": 89,
      "duration": 0.375,
      "velocity": 100
    },
    {
      "time": 34.5,
      "note": 86,
      "duration": 0.125,
      "velocity": 100
    },
    {
      "time": 34.625,
      "note": 86,
      "duration": 0.125,
      "velocity": 100
    },
    {
      "time": 34.75,
      "note": 88,
      "duration": 0.25,
      "velocity": 100
    },
    {
      "time": 35.0,
      "note": 86,
      "duration": 0.125,
      "velocity": 100
    },
    {
      "time": 35.125,
      "note": 84,
      "duration": 1.0,
      "velocity": 100
    },
    {
      "time": 36.75,
      "note": 77,
      "duration": 0.125,
      "velocity": 100
    },
    {
      "time": 36.875,
      "note": 77,
      "duration": 0.125,
      "velocity": 100
    },
    {
      "time": 37.0,
      "note": 77,
      "duration": 0.125,
      "velocity": 100
    },
    {
      "time": 37.125,
      "note": 84,
      "duration": 1.0,
      "velocity": 100
    },
    {
      "time": 37.125,
      "note": 88,
      "duration": 0.125,
      "velocity": 100
    },
    {
      "time": 37.25,
      "note": 86,
      "duration": 0.25,
      "velocity": 100
    },
    {
      "time": 37.5,
      "note": 84,
      "duration": 0.125,
      "velocity": 100
    },
    {
      "time": 37.625,
      "note": 84,
      "duration": 0.125,
      "velocity": 100
    },
    {
      "time": 37.75,
      "note": 86,
      "duration": 0.25,
      "velocity": 100
    },
    {
      "time": 38.0,
      "note": 84,
      "duration": 0.125,
      "velocity": 100
    },
    {
      "time": 38.125,
      "note": 86,
      "duration": 0.25,
      "velocity": 100
    },
    {
      "time": 38.375,
      "note": 84,
      "duration": 0.125,
      "velocity": 100
    },
    {
      "time": 38.5,
      "note": 82,
      "duration": 0.125,
      "velocity": 100
    },
    {
      "time": 38.625,
      "note": 82,
      "duration": 0.5,
      "velocity": 100
    },
    {
      "time": 40.625,
      "note": 86,
      "duration": 0.5,
      "velocity": 100
    },
    {
      "time": 41.125,
      "note": 82,
      "duration": 0.5,
      "velocity": 100
    },
    {
      "time": 41.625,
      "note": 86,
      "duration": 0.5,
      "velocity": 100
    },
    {
      "time": 42.125,
      "note": 84,
      "duration": 1.0,
      "velocity": 100
    },
    {
      "time": 42.125,
      "note": 89,
      "duration": 0.375,
      "velocity": 100
    },
    {
      "time": 42.5,
      "note": 86,
      "duration": 0.125,
      "velocity": 100
    },
    {
      "time": 42.625,
      "note": 86,
      "duration": 0.125,
      "velocity": 100
    },
    {
      "time": 42.75,
      "note": 88,
      "duration": 0.25,
      "velocity": 100
    },
    {
      "time": 43.0,
      "note": 86,
      "duration": 0.125,
      "velocity": 100
    },
    {
      "time": 43.125,
      "note": 84,
      "duration": 1.0,
      "velocity": 100
    },
    {
      "time": 44.75,
      "note": 77,
      "duration": 0.125,
      "velocity": 100
    },
    {
      "time": 44.875,
      "note": 77,
      "duration": 0.125,
      "velocity": 100
    },
    {
      "time": 45.0,
      "note": 77,
      "duration": 0.125,
      "velocity": 100
    },
    {
      "time": 45.125,
      "note": 82,
      "duration": 0.125,
      "velocity": 100
    },
    {
      "time": 45.25,
      "note": 82,
      "duration": 0.125,
      "velocity": 100
    },
    {
      "time": 45.375,
      "note": 82,
      "duration": 0.125,
      "velocity": 100
    },
    {
      "time": 45.5,
      "note": 82,
      "duration": 0.125,
      "velocity": 100
    },
    {
      "time": 45.625,
      "note": 82,
      "duration": 0.125,
      "velocity": 100
    },
    {
      "time": 45.75,
      "note": 88,
      "duration": 0.25,
      "velocity": 100
    },
    {
      "time": 46.0,
      "note": 88,
      "duration": 0.125,
      "velocity": 100
    },
    {
      "time": 46.125,
      "note": 84,
      "duration": 1.0,
      "velocity": 100
    },
    {
      "time": 46.125,
      "note": 82,
      "duration": 0.375,
      "velocity": 100
    },
    {
      "time": 46.5,
      "note": 81,
      "duration": 0.125,
      "velocity": 100
    },
    {
      "time": 46.625,
      "note": 81,
      "duration": 0.25,
      "velocity": 100
    },
    {
      "time": 46.875,
      "note": 79,
      "duration": 0.25,
      "velocity": 100
    },
    {
      "time": 48.625,
      "note": 81,
      "duration": 0.25,
      "velocity": 100
    },
    {
      "time": 48.875,
      "note": 84,
      "duration": 0.25,
      "velocity": 100
    },
    {
      "time": 49.125,
      "note": 84,
      "duration": 0.125,
      "velocity": 100
    },
    {
      "time": 49.25,
      "note": 88,
      "duration": 0.25,
      "velocity": 100
    },
    {
      "time": 49.5,
      "note": 82,
      "duration": 0.125,
      "velocity": 100
    },
    {
      "time": 49.625,
      "note": 82,
      "duration": 0.125,
      "velocity": 100
    },
    {
      "time": 49.75,
      "note": 81,
      "duration": 0.25,
      "velocity": 100
    },
    {
      "time": 50.0,
      "note": 77,
      "duration": 0.125,
      "velocity": 100
    },
    {
      "time": 50.125,
      "note": 74,
      "duration": 0.125,
      "velocity": 100
    },
    {
      "time": 50.25,
      "note": 74,
      "duration": 0.125,
      "velocity": 100
    },
    {
      "time": 50.375,
      "note": 79,
      "duration": 0.125,
      "velocity": 100
    },
    {
      "time": 50.375,
      "note": 74,
      "duration": 0.5,
      "velocity": 100
    },
    {
      "time": 50.875,
      "note": 79,
      "duration": 0.5,
      "velocity": 100
    }
  ],
  "chords": [
    {
      "time": 0.0,
      "notes": [
        67,
        70,
        74
      ],
      "duration": 1.9759615384615385
    },
    {
      "time": 1.9759615384615385,
      "notes": [
        67,
        70,
        74
      ],
      "duration": 1.9759615384615385
    },
    {
      "time": 3.951923076923077,
      "notes": [
        65,
        69,
        72
      ],
      "duration": 1.9759615384615385
    },
    {
      "time": 5.927884615384616,
      "notes": [
        67,
        70,
        74
      ],
      "duration": 1.9759615384615385
    },
    {
      "time": 7.903846153846154,
      "notes": [
        65,
        69,
        72
      ],
      "duration": 1.9759615384615385
    },
    {
      "time": 9.879807692307693,
      "notes": [
        67,
        70,
        74
      ],
      "duration": 1.9759615384615385
    },
    {
      "time": 11.855769230769232,
      "notes": [
        65,
        69,
        72
      ],
      "duration": 1.9759615384615385
    },
    {
      "time": 13.83173076923077,
      "notes": [
        67,
        70,
        74
      ],
      "duration": 1.9759615384615385
    },
    {
      "time": 15.807692307692308,
      "notes": [
        65,
        69,
        72
      ],
      "duration": 1.9759615384615385
    },
    {
      "time": 17.783653846153847,
      "notes": [
        67,
        70,
        74
      ],
      "duration": 1.9759615384615385
    },
    {
      "time": 19.759615384615387,
      "notes": [
        67,
        70,
        74
      ],
      "duration": 1.9759615384615385
    },
    {
      "time": 21.735576923076923,
      "notes": [
        65,
        69,
        72
      ],
      "duration": 1.9759615384615385
    },
    {
      "time": 23.711538461538463,
      "notes": [
        67,
        70,
        74
      ],
      "duration": 1.9759615384615385
    },
    {
      "time": 25.6875,
      "notes": [
        65,
        69,
        72
      ],
      "duration": 1.9759615384615385
    },
    {
      "time": 27.66346153846154,
      "notes": [
        67,
        70,
        74
      ],
      "duration": 1.9759615384615385
    },
    {
      "time": 29.639423076923077,
      "notes": [
        65,
        69,
        72
      ],
      "duration": 1.9759615384615385
    },
    {
      "time": 31.615384615384617,
      "notes": [
        67,
        70,
        74
      ],
      "duration": 1.9759615384615385
    },
    {
      "time": 33.59134615384615,
      "notes": [
        65,
        69,
        72
      ],
      "duration": 1.9759615384615385
    },
    {
      "time": 35.56730769230769,
      "notes": [
        67,
        70,
        74
      ],
      "duration": 1.9759615384615385
    },
    {
      "time": 37.54326923076923,
      "notes": [
        67,
        70,
        74
      ],
      "duration": 1.9759615384615385
    },
    {
      "time": 39.519230769230774,
      "notes": [
        65,
        69,
        72
      ],
      "duration": 1.9759615384615385
    },
    {
      "time": 41.49519230769231,
      "notes": [
        67,
        70,
        74
      ],
      "duration": 1.9759615384615385
    },
    {
      "time": 43.47115384615385,
      "notes": [
        65,
        69,
        72
      ],
      "duration": 1.9759615384615385
    },
    {
      "time": 45.44711538461539,
      "notes": [
        63,
        67,
        70
      ],
      "duration": 1.9759615384615385
    },
    {
      "time": 47.42307692307693,
      "notes": [
        62,
        66,
        69,
        72
      ],
      "duration": 1.9759615384615385
    },
    {
      "time": 49.39903846153847,
      "notes": [
        67,
        70,
        74
      ],
      "duration": 1.9759615384615385
    }
  ]
}