{
  "title": "La danza de los mirlos",
  "artist": "Los Mirlos (Peru)",
  "bpm": 120,
  "duration": 40.625,
  "audioFile": "",
  "notes": [
    {
      "time": 0.0,
      "note": 69,
      "duration": 0.125,
      "velocity": 100
    },
    {
      "time": 0.125,
      "note": 69,
      "duration": 0.125,
      "velocity": 100
    },
    {
      "time": 0.25,
      "note": 69,
      "duration": 0.125,
      "velocity": 100
    },
    {
      "time": 0.375,
      "note": 69,
      "duration": 0.125,
      "velocity": 100
    },
    {
      "time": 0.5,
      "note": 72,
      "duration": 0.25,
      "velocity": 100
    },
    {
      "time": 0.75,
      "note": 74,
      "duration": 0.125,
      "velocity": 100
    },
    {
      "time": 0.875,
      "note": 76,
      "duration": 0.125,
      "velocity": 100
    },
    {
      "time": 1.0,
      "note": 76,
      "duration": 0.125,
      "velocity": 100
    },
    {
      "time": 1.125,
      "note": 76,
      "duration": 0.125,
      "velocity": 100
    },
    {
      "time": 1.25,
      "note": 76,
      "duration": 0.125,
      "velocity": 100
    },
    {
      "time": 1.375,
      "note": 76,
      "duration": 0.125,
      "velocity": 100
    },
    {
      "time": 1.5,
      "note": 71,
      "duration": 0.25,
      "velocity": 100
    },
    {
      "time": 1.75,
      "note": 74,
      "duration": 0.125,
      "velocity": 100
    },
    {
      "time": 1.875,
      "note": 76,
      "duration": 0.125,
      "velocity": 100
    },
    {
      "time": 2.0,
      "note": 69,
      "duration": 0.125,
      "velocity": 100
    },
    {
      "time": 2.125,
      "note": 69,
      "duration": 0.125,
      "velocity": 100
    },
    {
      "time": 2.25,
      "note": 69,
      "duration": 0.125,
      "velocity": 100
    },
    {
      "time": 2.375,
      "note": 69,
      "duration": 0.125,
      "velocity": 100
    },
    {
      "time": 2.5,
      "note": 72,
      "duration": 0.25,
      "velocity": 100
    },
    {
      "time": 2.75,
      "note": 74,
      "duration": 0.125,
      "velocity": 100
    },
    {
      "time": 2.875,
      "note": 76,
      "duration": 0.125,
      "velocity": 100
    },
    {
      "time": 3.0,
      "note": 76,
      "duration": 0.125,
      "velocity": 100
    },
    {
      "time": 3.125,
      "note": 76,
      "duration": 0.125,
      "velocity": 100
    },
    {
      "time": 3.25,
      "note": 76,
      "duration": 0.125,
      "velocity": 100
    },
    {
      "time": 3.375,
      "note": 76,
      "duration": 0.125,
      "velocity": 100
    },
    {
      "time": 3.5,
      "note": 71,
      "duration": 0.25,
      "velocity": 100
    },
    {
      "time": 3.75,
      "note": 74,
      "duration": 0.125,
      "velocity": 100
    },
    {
      "time": 3.875,
      "note": 76,
      "duration": 0.125,
      "velocity": 100
    },
    {
      "time": 4.0,
      "note": 69,
      "duration": 0.25,
      "velocity": 100
    },
    {
      "time": 4.375,
      "note": 81,
      "duration": 0.125,
      "velocity": 100
    },
    {
      "time": 4.5,
      "note": 84,
      "duration": 0.125,
      "velocity": 100
    },
    {
      "time": 4.625,
      "note": 88,
      "duration": 0.125,
      "velocity": 100
    },
    {
      "time": 4.75,
      "note": 88,
      "duration": 0.125,
      "velocity": 100
    },
    {
      "time": 4.875,
      "note": 88,
      "duration": 0.125,
      "velocity": 100
    },
    {
      "time": 5.0,
      "note": 91,
      "duration": 0.5,
      "velocity": 100
    },
    {
      "time": 5.5,
      "note": 83,
      "duration": 0.25,
      "velocity": 100
    },
    {
      "time": 5.75,
      "note": 86,
      "duration": 0.125,
      "velocity": 100
    },
    {
      "time": 5.875,
      "note": 84,
      "duration": 0.125,
      "velocity": 100
    },
    {
      "time": 6.0,
      "note": 81,
      "duration": 0.25,
      "velocity": 100
    },
    {
      "time": 6.25,
      "note": 84,
      "duration": 0.125,
      "velocity": 100
    },
    {
      "time": 6.375,
      "note": 81,
      "duration": 0.125,
      "velocity": 100
    },
    {
      "time": 6.5,
      "note": 84,
      "duration": 0.125,
      "velocity": 100
    },
    {
      "time": 6.625,
      "note": 88,
      "duration": 0.125,
      "velocity": 100
    },
    {
      "time": 6.75,
      "note": 88,
      "duration": 0.125,
      "velocity": 100
    },
    {
      "time": 6.875,
      "note": 88,
      "duration": 0.125,
      "velocity": 100
    },
    {
      "time": 7.0,
      "note": 91,
      "duration": 0.5,
      "velocity": 100
    },
    {
      "time": 7.5,
      "note": 83,
      "duration": 0.25,
      "velocity": 100
    },
    {
      "time": 7.75,
      "note": 86,
      "duration": 0.25,
      "velocity": 100
    },
    {
      "time": 8.0,
      "note": 81,
      "duration": 0.25,
      "velocity": 100
    },
    {
      "time": 8.25,
      "note": 84,
      "duration": 0.125,
      "velocity": 100
    },
    {
      "time": 8.375,
      "note": 81,
      "duration": 0.125,
      "velocity": 100
    },
    {
      "time": 8.5,
      "note": 84,
      "duration": 0.125,
      "velocity": 100
    },
    {
      "time": 8.625,
      "note": 88,
      "duration": 0.125,
      "velocity": 100
    },
    {
      "time": 8.75,
      "note": 91,
      "duration": 0.125,
      "velocity": 100
    },
    {
      "time": 8.875,
      "note": 89,
      "duration": 0.125,
      "velocity": 100
    },
    {
      "time": 9.0,
      "note": 89,
      "duration": 0.125,
      "velocity": 100
    },
    {
      "time": 9.125,
      "note": 88,
      "duration": 0.125,
      "velocity": 100
    },
    {
      "time": 9.25,
      "note": 86,
      "duration": 0.125,
      "velocity": 100
    },
    {
      "time": 9.375,
      "note": 84,
      "duration": 0.125,
      "velocity": 100
    },
    {
      "time": 9.5,
      "note": 83,
      "duration": 0.125,
      "velocity": 100
    },
    {
      "time": 9.625,
      "note": 86,
      "duration": 0.125,
      "velocity": 100
    },
    {
      "time": 9.75,
      "note": 84,
      "duration": 0.125,
      "velocity": 100
    },
    {
      "time": 9.875,
      "note": 83,
      "duration": 0.125,
      "velocity": 100
    },
    {
      "time": 10.0,
      "note": 81,
      "duration": 0.25,
      "velocity": 100
    },
    {
      "time": 10.25,
      "note": 84,
      "duration": 0.125,
      "velocity": 100
    },
    {
      "time": 10.375,
      "note": 81,
      "duration": 0.125,
      "velocity": 100
    },
    {
      "time": 10.5,
      "note": 84,
      "duration": 0.125,
      "velocity": 100
    },
    {
      "time": 10.625,
      "note": 88,
      "duration": 0.125,
      "velocity": 100
    },
    {
      "time": 10.75,
      "note": 91,
      "duration": 0.125,
      "velocity": 100
    },
    {
      "time": 10.875,
      "note": 89,
      "duration": 0.125,
      "velocity": 100
    },
    {
      "time": 11.0,
      "note": 89,
      "duration": 0.125,
      "velocity": 100
    },
    {
      "time": 11.125,
      "note": 88,
      "duration": 0.125,
      "velocity": 100
    },
    {
      "time": 11.25,
      "note": 86,
      "duration": 0.125,
      "velocity": 100
    },
    {
      "time": 11.375,
      "note": 84,
      "duration": 0.125,
      "velocity": 100
    },
    {
      "time": 11.5,
      "note": 83,
      "duration": 0.125,
      "velocity": 100
    },
    {
      "time": 11.625,
      "note": 86,
      "duration": 0.125,
      "velocity": 100
    },
    {
      "time": 11.75,
      "note": 84,
      "duration": 0.125,
      "velocity": 100
    },
    {
      "time": 11.875,
      "note": 83,
      "duration": 0.125,
      "velocity": 100
    },
    {
      "time": 12.0,
      "note": 81,
      "duration": 0.25,
      "velocity": 100
    },
    {
      "time": 12.25,
      "note": 84,
      "duration": 0.125,
      "velocity": 100
    },
    {
      "time": 12.375,
      "note": 81,
      "duration": 0.125,
      "velocity": 100
    },
    {
      "time": 12.5,
      "note": 84,
      "duration": 0.125,
      "velocity": 100
    },
    {
      "time": 12.625,
      "note": 88,
      "duration": 0.125,
      "velocity": 100
    },
    {
      "time": 12.75,
      "note": 91,
      "duration": 0.125,
      "velocity": 100
    },
    {
      "time": 12.875,
      "note": 89,
      "duration": 0.125,
      "velocity": 100
    },
    {
      "time": 13.0,
      "note": 89,
      "duration": 0.125,
      "velocity": 100
    },
    {
      "time": 13.125,
      "note": 88,
      "duration": 0.125,
      "velocity": 100
    },
    {
      "time": 13.25,
      "note": 86,
      "duration": 0.125,
      "velocity": 100
    },
    {
      "time": 13.375,
      "note": 84,
      "duration": 0.125,
      "velocity": 100
    },
    {
      "time": 13.5,
      "note": 83,
      "duration": 0.125,
      "velocity": 100
    },
    {
      "time": 13.625,
      "note": 86,
      "duration": 0.125,
      "velocity": 100
    },
    {
      "time": 13.75,
      "note": 84,
      "duration": 0.125,
      "velocity": 100
    },
    {
      "time": 13.875,
      "note": 83,
      "duration": 0.125,
      "velocity": 100
    },
    {
      "time": 14.0,
      "note": 81,
      "duration": 0.375,
      "velocity": 100
    },
    {
      "time": 14.375,
      "note": 76,
      "duration": 0.125,
      "velocity": 100
    },
    {
      "time": 14.5,
      "note": 81,
      "duration": 0.125,
      "velocity": 100
    },
    {
      "time": 14.625,
      "note": 84,
      "duration": 0.125,
      "velocity": 100
    },
    {
      "time": 14.75,
      "note": 86,
      "duration": 0.125,
      "velocity": 100
    },
    {
      "time": 14.875,
      "note": 88,
      "duration": 0.125,
      "velocity": 100
    },
    {
      "time": 15.0,
      "note": 79,
      "duration": 0.125,
      "velocity": 100
    },
    {
      "time": 15.125,
      "note": 83,
      "duration": 0.125,
      "velocity": 100
    },
    {
      "time": 15.25,
      "note": 88,
      "duration": 0.125,
      "velocity": 100
    },
    {
      "time": 15.375,
      "note": 88,
      "duration": 0.125,
      "velocity": 100
    },
    {
      "time": 15.5,
      "note": 83,
      "duration": 0.25,
      "velocity": 100
    },
    {
      "time": 15.75,
      "note": 86,
      "duration": 0.125,
      "velocity": 100
    },
    {
      "time": 15.875,
      "note": 84,
      "duration": 0.125,
      "velocity": 100
    },
    {
      "time": 16.0,
      "note": 81,
      "duration": 0.25,
      "velocity": 100
    },
    {
      "time": 16.25,
      "note": 84,
      "duration": 0.125,
      "velocity": 100
    },
    {
      "time": 16.375,
      "note": 76,
      "duration": 0.125,
      "velocity": 100
    },
    {
      "time": 16.5,
      "note": 81,
      "duration": 0.125,
      "velocity": 100
    },
    {
      "time": 16.625,
      "note": 84,
      "duration": 0.125,
      "velocity": 100
    },
    {
      "time": 16.75,
      "note": 86,
      "duration": 0.125,
      "velocity": 100
    },
    {
      "time": 16.875,
      "note": 88,
      "duration": 0.125,
      "velocity": 100
    },
    {
      "time": 17.0,
      "note": 79,
      "duration": 0.125,
      "velocity": 100
    },
    {
      "time": 17.125,
      "note": 83,
      "duration": 0.125,
      "velocity": 100
    },
    {
      "time": 17.25,
      "note": 88,
      "duration": 0.125,
      "velocity": 100
    },
    {
      "time": 17.375,
      "note": 88,
      "duration": 0.125,
      "velocity": 100
    },
    {
      "time": 17.5,
      "note": 83,
      "duration": 0.25,
      "velocity": 100
    },
    {
      "time": 17.75,
      "note": 86,
      "duration": 0.125,
      "velocity": 100
    },
    {
      "time": 17.875,
      "note": 84,
      "duration": 0.125,
      "velocity": 100
    },
    {
      "time": 18.0,
      "note": 81,
      "duration": 0.25,
      "velocity": 100
    },
    {
      "time": 18.25,
      "note": 84,
      "duration": 0.125,
      "velocity": 100
    },
    {
      "time": 18.375,
      "note": 76,
      "duration": 0.125,
      "velocity": 100
    },
    {
      "time": 18.5,
      "note": 81,
      "duration": 0.125,
      "velocity": 100
    },
    {
      "time": 18.625,
      "note": 84,
      "duration": 0.125,
      "velocity": 100
    },
    {
      "time": 18.75,
      "note": 86,
      "duration": 0.125,
      "velocity": 100
    },
    {
      "time": 18.875,
      "note": 88,
      "duration": 0.125,
      "velocity": 100
    },
    {
      "time": 19.0,
      "note": 79,
      "duration": 0.125,
      "velocity": 100
    },
    {
      "time": 19.125,
      "note": 83,
      "duration": 0.125,
      "velocity": 100
    },
    {
      "time": 19.25,
      "note": 88,
      "duration": 0.125,
      "velocity": 100
    },
    {
      "time": 19.375,
      "note": 88,
      "duration": 0.125,
      "velocity": 100
    },
    {
      "time": 19.5,
      "note": 83,
      "duration": 0.25,
      "velocity": 100
    },
    {
      "time": 19.75,
      "note": 86,
      "duration": 0.125,
      "velocity": 100
    },
    {
      "time": 19.875,
      "note": 84,
      "duration": 0.125,
      "velocity": 100
    },
    {
      "time": 20.0,
      "note": 81,
      "duration": 0.375,
      "velocity": 100
    },
    {
      "time": 20.375,
      "note": 76,
      "duration": 0.125,
      "velocity": 100
    },
    {
      "time": 20.5,
      "note": 81,
      "duration": 0.125,
      "velocity": 100
    },
    {
      "time": 20.625,
      "note": 84,
      "duration": 0.125,
      "velocity": 100
    },
    {
      "time": 20.75,
      "note": 86,
      "duration": 0.125,
      "velocity": 100
    },
    {
      "time": 20.875,
      "note": 88,
      "duration": 0.125,
      "velocity": 100
    },
    {
      "time": 21.0,
      "note": 79,
      "duration": 0.125,
      "velocity": 100
    },
    {
      "time": 21.125,
      "note": 83,
      "duration": 0.125,
      "velocity": 100
    },
    {
      "time": 21.25,
      "note": 88,
      "duration": 0.125,
      "velocity": 100
    },
    {
      "time": 21.375,
      "note": 88,
      "duration": 0.125,
      "velocity": 100
    },
    {
      "time": 21.5,
      "note": 83,
      "duration": 0.25,
      "velocity": 100
    },
    {
      "time": 21.75,
      "note": 86,
      "duration": 0.125,
      "velocity": 100
    },
    {
      "time": 21.875,
      "note": 84,
      "duration": 0.125,
      "velocity": 100
    },
    {
      "time": 22.0,
      "note": 81,
      "duration": 0.375,
      "velocity": 100
    },
    {
      "time": 22.375,
      "note": 81,
      "duration": 0.125,
      "velocity": 100
    },
    {
      "time": 22.5,
      "note": 84,
      "duration": 0.25,
      "velocity": 100
    },
    {
      "time": 22.75,
      "note": 81,
      "duration": 0.125,
      "velocity": 100
    },
    {
      "time": 22.875,
      "note": 79,
      "duration": 0.125,
      "velocity": 100
    },
    {
      "time": 23.0,
      "note": 79,
      "duration": 0.125,
      "velocity": 100
    },
    {
      "time": 23.125,
      "note": 79,
      "duration": 0.125,
      "velocity": 100
    },
    {
      "time": 23.25,
      "note": 79,
      "duration": 0.125,
      "velocity": 100
    },
    {
      "time": 23.375,
      "note": 79,
      "duration": 0.125,
      "velocity": 100
    },
    {
      "time": 23.5,
      "note": 83,
      "duration": 0.125,
      "velocity": 100
    },
    {
      "time": 23.625,
      "note": 86,
      "duration": 0.125,
      "velocity": 100
    },
    {
      "time": 23.75,
      "note": 83,
      "duration": 0.125,
      "velocity": 100
    },
    {
      "time": 23.875,
      "note": 79,
      "duration": 0.125,
      "velocity": 100
    },
    {
      "time": 24.0,
      "note": 81,
      "duration": 0.375,
      "velocity": 100
    },
    {
      "time": 24.375,
      "note": 81,
      "duration": 0.125,
      "velocity": 100
    },
    {
      "time": 24.5,
      "note": 84,
      "duration": 0.25,
      "velocity": 100
    },
    {
      "time": 24.75,
      "note": 81,
      "duration": 0.125,
      "velocity": 100
    },
    {
      "time": 24.875,
      "note": 84,
      "duration": 0.125,
      "velocity": 100
    },
    {
      "time": 25.0,
      "note": 79,
      "duration": 0.125,
      "velocity": 100
    },
    {
      "time": 25.125,
      "note": 79,
      "duration": 0.125,
      "velocity": 100
    },
    {
      "time": 25.25,
      "note": 79,
      "duration": 0.125,
      "velocity": 100
    },
    {
      "time": 25.375,
      "note": 79,
      "duration": 0.125,
      "velocity": 100
    },
    {
      "time": 25.5,
      "note": 83,
      "duration": 0.125,
      "velocity": 100
    },
    {
      "time": 25.625,
      "note": 86,
      "duration": 0.125,
      "velocity": 100
    },
    {
      "time": 25.75,
      "note": 83,
      "duration": 0.125,
      "velocity": 100
    },
    {
      "time": 25.875,
      "note": 79,
      "duration": 0.125,
      "velocity": 100
    },
    {
      "time": 26.25,
      "note": 81,
      "duration": 0.125,
      "velocity": 100
    },
    {
      "time": 26.375,
      "note": 81,
      "duration": 0.125,
      "velocity": 100
    },
    {
      "time": 26.5,
      "note": 81,
      "duration": 0.125,
      "velocity": 100
    },
    {
      "time": 26.625,
      "note": 81,
      "duration": 0.125,
      "velocity": 100
    },
    {
      "time": 26.75,
      "note": 84,
      "duration": 0.25,
      "velocity": 100
    },
    {
      "time": 27.0,
      "note": 81,
      "duration": 0.125,
      "velocity": 100
    },
    {
      "time": 27.125,
      "note": 84,
      "duration": 0.125,
      "velocity": 100
    },
    {
      "time": 27.25,
      "note": 79,
      "duration": 0.125,
      "velocity": 100
    },
    {
      "time": 27.375,
      "note": 79,
      "duration": 0.125,
      "velocity": 100
    },
    {
      "time": 27.5,
      "note": 79,
      "duration": 0.125,
      "velocity": 100
    },
    {
      "time": 27.625,
      "note": 79,
      "duration": 0.125,
      "velocity": 100
    },
    {
      "time": 27.75,
      "note": 83,
      "duration": 0.125,
      "velocity": 100
    },
    {
      "time": 27.875,
      "note": 86,
      "duration": 0.125,
      "velocity": 100
    },
    {
      "time": 28.0,
      "note": 83,
      "duration": 0.125,
      "velocity": 100
    },
    {
      "time": 28.125,
      "note": 79,
      "duration": 0.125,
      "velocity": 100
    },
    {
      "time": 28.25,
      "note": 81,
      "duration": 0.125,
      "velocity": 100
    },
    {
      "time": 28.375,
      "note": 81,
      "duration": 0.125,
      "velocity": 100
    },
    {
      "time": 28.5,
      "note": 81,
      "duration": 0.125,
      "velocity": 100
    },
    {
      "time": 28.625,
      "note": 81,
      "duration": 0.125,
      "velocity": 100
    },
    {
      "time": 28.75,
      "note": 84,
      "duration": 0.25,
      "velocity": 100
    },
    {
      "time": 29.0,
      "note": 81,
      "duration": 0.125,
      "velocity": 100
    },
    {
      "time": 29.125,
      "note": 84,
      "duration": 0.125,
      "velocity": 100
    },
    {
      "time": 29.25,
      "note": 79,
      "duration": 0.125,
      "velocity": 100
    },
    {
      "time": 29.375,
      "note": 79,
      "duration": 0.125,
      "velocity": 100
    },
    {
      "time": 29.5,
      "note": 79,
      "duration": 0.125,
      "velocity": 100
    },
    {
      "time": 29.625,
      "note": 79,
      "duration": 0.125,
      "velocity": 100
    },
    {
      "time": 29.75,
      "note": 83,
      "duration": 0.125,
      "velocity": 100
    },
    {
      "time": 29.875,
      "note": 86,
      "duration": 0.125,
      "velocity": 100
    },
    {
      "time": 30.0,
      "note": 83,
      "duration": 0.125,
      "velocity": 100
    },
    {
      "time": 30.125,
      "note": 79,
      "duration": 0.125,
      "velocity": 100
    },
    {
      "time": 30.25,
      "note": 81,
      "duration": 0.375,
      "velocity": 100
    },
    {
      "time": 30.625,
      "note": 77,
      "duration": 0.5,
      "velocity": 100
    },
    {
      "time": 31.125,
      "note": 81,
      "duration": 0.5,
      "velocity": 100
    },
    {
      "time": 31.125,
      "note": 88,
      "duration": 0.5,
      "velocity": 100
    },
    {
      "time": 31.125,
      "note": 93,
      "duration": 0.25,
      "velocity": 100
    },
    {
      "time": 31.375,
      "note": 88,
      "duration": 0.125,
      "velocity": 100
    },
    {
      "time": 31.5,
      "note": 93,
      "duration": 0.125,
      "velocity": 100
    },
    {
      "time": 31.625,
      "note": 91,
      "duration": 0.125,
      "velocity": 100
    },
    {
      "time": 31.75,
      "note": 91,
      "duration": 0.125,
      "velocity": 100
    },
    {
      "time": 31.875,
      "note": 91,
      "duration": 0.125,
      "velocity": 100
    },
    {
      "time": 32.0,
      "note": 86,
      "duration": 0.125,
      "velocity": 100
    },
    {
      "time": 32.125,
      "note": 91,
      "duration": 0.25,
      "velocity": 100
    },
    {
      "time": 32.375,
      "note": 86,
      "duration": 0.125,
      "velocity": 100
    },
    {
      "time": 32.5,
      "note": 91,
      "duration": 0.125,
      "velocity": 100
    },
    {
      "time": 32.625,
      "note": 93,
      "duration": 0.125,
      "velocity": 100
    },
    {
      "time": 32.75,
      "note": 93,
      "duration": 0.125,
      "velocity": 100
    },
    {
      "time": 32.875,
      "note": 93,
      "duration": 0.125,
      "velocity": 100
    },
    {
      "time": 33.0,
      "note": 88,
      "duration": 0.125,
      "velocity": 100
    },
    {
      "time": 33.125,
      "note": 93,
      "duration": 0.25,
      "velocity": 100
    },
    {
      "time": 33.375,
      "note": 88,
      "duration": 0.125,
      "velocity": 100
    },
    {
      "time": 33.5,
      "note": 93,
      "duration": 0.125,
      "velocity": 100
    },
    {
      "time": 33.625,
      "note": 91,
      "duration": 0.125,
      "velocity": 100
    },
    {
      "time": 33.75,
      "note": 91,
      "duration": 0.125,
      "velocity": 100
    },
    {
      "time": 33.875,
      "note": 91,
      "duration": 0.125,
      "velocity": 100
    },
    {
      "time": 34.0,
      "note": 86,
      "duration": 0.125,
      "velocity": 100
    },
    {
      "time": 34.125,
      "note": 91,
      "duration": 0.25,
      "velocity": 100
    },
    {
      "time": 34.375,
      "note": 86,
      "duration": 0.125,
      "velocity": 100
    },
    {
      "time": 34.5,
      "note": 91,
      "duration": 0.125,
      "velocity": 100
    },
    {
      "time": 34.625,
      "note": 93,
      "duration": 0.125,
      "velocity": 100
    },
    {
      "time": 34.75,
      "note": 93,
      "duration": 0.125,
      "velocity": 100
    },
    {
      "time": 34.875,
      "note": 93,
      "duration": 0.125,
      "velocity": 100
    },
    {
      "time": 35.0,
      "note": 88,
      "duration": 0.125,
      "velocity": 100
    },
    {
      "time": 35.125,
      "note": 93,
      "duration": 0.25,
      "velocity": 100
    },
    {
      "time": 35.375,
      "note": 88,
      "duration": 0.125,
      "velocity": 100
    },
    {
      "time": 35.5,
      "note": 93,
      "duration": 0.125,
      "velocity": 100
    },
    {
      "time": 35.625,
      "note": 91,
      "duration": 0.125,
      "velocity": 100
    },
    {
      "time": 35.75,
      "note": 91,
      "duration": 0.125,
      "velocity": 100
    },
    {
      "time": 35.875,
      "note": 91,
      "duration": 0.125,
      "velocity": 100
    },
    {
      "time": 36.0,
      "note": 86,
      "duration": 0.125,
      "velocity": 100
    },
    {
      "time": 36.125,
      "note": 91,
      "duration": 0.25,
      "velocity": 100
    },
    {
      "time": 36.375,
      "note": 86,
      "duration": 0.125,
      "velocity": 100
    },
    {
      "time": 36.5,
      "note": 91,
      "duration": 0.125,
      "velocity": 100
    },
    {
      "time": 36.625,
      "note": 93,
      "duration": 0.125,
      "velocity": 100
    },
    {
      "time": 36.75,
      "note": 93,
      "duration": 0.125,
      "velocity": 100
    },
    {
      "time": 36.875,
      "note": 93,
      "duration": 0.125,
      "velocity": 100
    },
    {
      "time": 37.0,
      "note": 88,
      "duration": 0.125,
      "velocity": 100
    },
    {
      "time": 37.125,
      "note": 93,
      "duration": 0.25,
      "velocity": 100
    },
    {
      "time": 37.375,
      "note": 88,
      "duration": 0.125,
      "velocity": 100
    },
    {
      "time": 37.5,
      "note": 93,
      "duration": 0.125,
      "velocity": 100
    },
    {
      "time": 37.625,
      "note": 91,
      "duration": 0.125,
      "velocity": 100
    },
    {
      "time": 37.75,
      "note": 91,
      "duration": 0.125,
      "velocity": 100
    },
    {
      "time": 37.875,
      "note": 91,
      "duration": 0.125,
      "velocity": 100
    },
    {
      "time": 38.0,
      "note": 86,
      "duration": 0.125,
      "velocity": 100
    },
    {
      "time": 38.125,
      "note": 91,
      "duration": 0.25,
      "velocity": 100
    },
    {
      "time": 38.375,
      "note": 86,
      "duration": 0.125,
      "velocity": 100
    },
    {
      "time": 38.5,
      "note": 91,
      "duration": 0.125,
      "velocity": 100
    },
    {
      "time": 38.625,
      "note": 88,
      "duration": 1.0,
      "velocity": 100
    },
    {
      "time": 39.625,
      "note": 93,
      "duration": 1.0,
      "velocity": 100
    },
    {
      "time": 39.625,
      "note": 83,
      "duration": 1.0,
      "velocity": 100
    },
    {
      "time": 40.625,
      "note": 88,
      "duration": 1.0,
      "velocity": 100
    }
  ],
  "chords": [
    {
      "time": 0.0,
      "notes": [
        69,
        72,
        76
      ],
      "duration": 1.8465909090909092
    },
    {
      "time": 1.8465909090909092,
      "notes": [
        64,
        68,
        71,
        74
      ],
      "duration": 1.8465909090909092
    },
    {
      "time": 3.6931818181818183,
      "notes": [
        69,
        72,
        76
      ],
      "duration": 1.8465909090909092
    },
    {
      "time": 5.5397727272727275,
      "notes": [
        64,
        68,
        71,
        74
      ],
      "duration": 1.8465909090909092
    },
    {
      "time": 7.386363636363637,
      "notes": [
        69,
        72,
        76
      ],
      "duration": 1.8465909090909092
    },
    {
      "time": 9.232954545454547,
      "notes": [
        67,
        71,
        74
      ],
      "duration": 1.8465909090909092
    },
    {
      "time": 11.079545454545455,
      "notes": [
        69,
        72,
        76
      ],
      "duration": 1.8465909090909092
    },
    {
      "time": 12.926136363636363,
      "notes": [
        67,
        71,
        74
      ],
      "duration": 1.8465909090909092
    },
    {
      "time": 14.772727272727273,
      "notes": [
        69,
        72,
        76
      ],
      "duration": 1.8465909090909092
    },
    {
      "time": 16.619318181818183,
      "notes": [
        67,
        71,
        74
      ],
      "duration": 1.8465909090909092
    },
    {
      "time": 18.465909090909093,
      "notes": [
        69,
        72,
        76
      ],
      "duration": 1.8465909090909092
    },
    {
      "time": 20.3125,
      "notes": [
        67,
        71,
        74
      ],
      "duration": 1.8465909090909092
    },
    {
      "time": 22.15909090909091,
      "notes": [
        69,
        72,
        76
      ],
      "duration": 1.8465909090909092
    },
    {
      "time": 24.00568181818182,
      "notes": [
        67,
        71,
        74
      ],
      "duration": 1.8465909090909092
    },
    {
      "time": 25.852272727272727,
      "notes": [
        69,
        72,
        76
      ],
      "duration": 1.8465909090909092
    },
    {
      "time": 27.698863636363637,
      "notes": [
        67,
        71,
        74
      ],
      "duration": 1.8465909090909092
    },
    {
      "time": 29.545454545454547,
      "notes": [
        69,
        72,
        76
      ],
      "duration": 1.8465909090909092
    },
    {
      "time": 31.392045454545457,
      "notes": [
        67,
        71,
        74
      ],
      "duration": 1.8465909090909092
    },
    {
      "time": 33.23863636363637,
      "notes": [
        69,
        72,
        76
      ],
      "duration": 1.8465909090909092
    },
    {
      "time": 35.08522727272727,
      "notes": [
        67,
        71,
        74
      ],
      "duration": 1.8465909090909092
    },
    {
      "time": 36.93181818181819,
      "notes": [
        69,
        72,
        76
      ],
      "duration": 1.8465909090909092
    },
    {
      "time": 38.77840909090909,
      "notes": [
        64,
        68,
        71,
        74
      ],
      "duration": 1.8465909090909092
    }
  ]
}