{
  "title": "Himno del Cucumelo",
  "artist": "Las Manos de Filippi",
  "bpm": 120,
  "duration": 41.25,
  "audioFile": "",
  "notes": [
    {
      "time": 0.375,
      "note": 75,
      "duration": 0.25,
      "velocity": 100
    },
    {
      "time": 0.625,
      "note": 75,
      "duration": 0.125,
      "velocity": 100
    },
    {
      "time": 0.75,
      "note": 79,
      "duration": 0.125,
      "velocity": 100
    },
    {
      "time": 0.875,
      "note": 84,
      "duration": 0.125,
      "velocity": 100
    },
    {
      "time": 1.0,
      "note": 87,
      "duration": 0.125,
      "velocity": 100
    },
    {
      "time": 1.125,
      "note": 84,
      "duration": 0.125,
      "velocity": 100
    },
    {
      "time": 1.25,
      "note": 79,
      "duration": 0.125,
      "velocity": 100
    },
    {
      "time": 1.375,
      "note": 75,
      "duration": 0.25,
      "velocity": 100
    },
    {
      "time": 1.625,
      "note": 79,
      "duration": 0.125,
      "velocity": 100
    },
    {
      "time": 1.375,
      "note": 75,
      "duration": 0.25,
      "velocity": 100
    },
    {
      "time": 1.625,
      "note": 79,
      "duration": 0.125,
      "velocity": 100
    },
    {
      "time": 1.75,
      "note": 84,
      "duration": 0.125,
      "velocity": 100
    },
    {
      "time": 1.875,
      "note": 87,
      "duration": 0.125,
      "velocity": 100
    },
    {
      "time": 2.0,
      "note": 84,
      "duration": 0.125,
      "velocity": 100
    },
    {
      "time": 2.125,
      "note": 79,
      "duration": 0.125,
      "velocity": 100
    },
    {
      "time": 2.25,
      "note": 74,
      "duration": 0.25,
      "velocity": 100
    },
    {
      "time": 2.5,
      "note": 74,
      "duration": 0.125,
      "velocity": 100
    },
    {
      "time": 2.625,
      "note": 79,
      "duration": 0.0625,
      "velocity": 100
    },
    {
      "time": 2.6875,
      "note": 82,
      "duration": 0.125,
      "velocity": 100
    },
    {
      "time": 2.8125,
      "note": 86,
      "duration": 0.125,
      "velocity": 100
    },
    {
      "time": 2.9375,
      "note": 82,
      "duration": 0.125,
      "velocity": 100
    },
    {
      "time": 3.0625,
      "note": 79,
      "duration": 0.125,
      "velocity": 100
    },
    {
      "time": 3.1875,
      "note": 74,
      "duration": 0.25,
      "velocity": 100
    },
    {
      "time": 3.4375,
      "note": 74,
      "duration": 0.125,
      "velocity": 100
    },
    {
      "time": 3.5625,
      "note": 79,
      "duration": 0.0625,
      "velocity": 100
    },
    {
      "time": 3.625,
      "note": 82,
      "duration": 0.125,
      "velocity": 100
    },
    {
      "time": 3.75,
      "note": 86,
      "duration": 0.125,
      "velocity": 100
    },
    {
      "time": 3.875,
      "note": 82,
      "duration": 0.125,
      "velocity": 100
    },
    {
      "time": 4.0,
      "note": 79,
      "duration": 0.125,
      "velocity": 100
    },
    {
      "time": 4.125,
      "note": 75,
      "duration": 0.25,
      "velocity": 100
    },
    {
      "time": 4.375,
      "note": 75,
      "duration": 0.125,
      "velocity": 100
    },
    {
      "time": 4.5,
      "note": 79,
      "duration": 0.125,
      "velocity": 100
    },
    {
      "time": 4.625,
      "note": 84,
      "duration": 0.125,
      "velocity": 100
    },
    {
      "time": 4.75,
      "note": 87,
      "duration": 0.125,
      "velocity": 100
    },
    {
      "time": 4.875,
      "note": 84,
      "duration": 0.125,
      "velocity": 100
    },
    {
      "time": 5.0,
      "note": 79,
      "duration": 0.125,
      "velocity": 100
    },
    {
      "time": 5.25,
      "note": 75,
      "duration": 0.25,
      "velocity": 100
    },
    {
      "time": 5.5,
      "note": 75,
      "duration": 0.125,
      "velocity": 100
    },
    {
      "time": 5.625,
      "note": 79,
      "duration": 0.125,
      "velocity": 100
    },
    {
      "time": 5.75,
      "note": 84,
      "duration": 0.125,
      "velocity": 100
    },
    {
      "time": 5.875,
      "note": 87,
      "duration": 0.125,
      "velocity": 100
    },
    {
      "time": 6.0,
      "note": 84,
      "duration": 0.125,
      "velocity": 100
    },
    {
      "time": 6.125,
      "note": 79,
      "duration": 0.125,
      "velocity": 100
    },
    {
      "time": 6.25,
      "note": 86,
      "duration": 0.25,
      "velocity": 100
    },
    {
      "time": 6.5,
      "note": 84,
      "duration": 0.25,
      "velocity": 100
    },
    {
      "time": 6.75,
      "note": 83,
      "duration": 0.25,
      "velocity": 100
    },
    {
      "time": 7.0,
      "note": 81,
      "duration": 0.25,
      "velocity": 100
    },
    {
      "time": 7.25,
      "note": 79,
      "duration": 0.25,
      "velocity": 100
    },
    {
      "time": 7.5,
      "note": 77,
      "duration": 0.25,
      "velocity": 100
    },
    {
      "time": 7.75,
      "note": 77,
      "duration": 0.125,
      "velocity": 100
    },
    {
      "time": 7.875,
      "note": 75,
      "duration": 0.25,
      "velocity": 100
    },
    {
      "time": 8.125,
      "note": 77,
      "duration": 0.125,
      "velocity": 100
    },
    {
      "time": 8.25,
      "note": 79,
      "duration": 1.0,
      "velocity": 100
    },
    {
      "time": 9.25,
      "note": 79,
      "duration": 1.0,
      "velocity": 100
    },
    {
      "time": 10.25,
      "note": 79,
      "duration": 0.25,
      "velocity": 100
    },
    {
      "time": 10.5,
      "note": 77,
      "duration": 0.25,
      "velocity": 100
    },
    {
      "time": 10.75,
      "note": 87,
      "duration": 0.25,
      "velocity": 100
    },
    {
      "time": 11.0,
      "note": 86,
      "duration": 0.25,
      "velocity": 100
    },
    {
      "time": 11.25,
      "note": 84,
      "duration": 1.0,
      "velocity": 100
    },
    {
      "time": 12.25,
      "note": 72,
      "duration": 0.375,
      "velocity": 100
    },
    {
      "time": 12.625,
      "note": 75,
      "duration": 0.125,
      "velocity": 100
    },
    {
      "time": 12.75,
      "note": 79,
      "duration": 0.25,
      "velocity": 100
    },
    {
      "time": 13.0,
      "note": 81,
      "duration": 0.25,
      "velocity": 100
    },
    {
      "time": 13.25,
      "note": 79,
      "duration": 0.5,
      "velocity": 100
    },
    {
      "time": 13.75,
      "note": 77,
      "duration": 0.5,
      "velocity": 100
    },
    {
      "time": 14.375,
      "note": 81,
      "duration": 0.25,
      "velocity": 100
    },
    {
      "time": 14.625,
      "note": 81,
      "duration": 0.125,
      "velocity": 100
    },
    {
      "time": 14.75,
      "note": 81,
      "duration": 0.25,
      "velocity": 100
    },
    {
      "time": 15.0,
      "note": 79,
      "duration": 0.25,
      "velocity": 100
    },
    {
      "time": 15.25,
      "note": 81,
      "duration": 0.25,
      "velocity": 100
    },
    {
      "time": 15.5,
      "note": 79,
      "duration": 0.25,
      "velocity": 100
    },
    {
      "time": 15.75,
      "note": 79,
      "duration": 0.5,
      "velocity": 100
    },
    {
      "time": 16.375,
      "note": 82,
      "duration": 0.25,
      "velocity": 100
    },
    {
      "time": 16.625,
      "note": 82,
      "duration": 0.125,
      "velocity": 100
    },
    {
      "time": 16.75,
      "note": 82,
      "duration": 0.25,
      "velocity": 100
    },
    {
      "time": 17.0,
      "note": 81,
      "duration": 0.25,
      "velocity": 100
    },
    {
      "time": 17.25,
      "note": 79,
      "duration": 1.0,
      "velocity": 100
    },
    {
      "time": 18.375,
      "note": 79,
      "duration": 0.125,
      "velocity": 100
    },
    {
      "time": 18.5,
      "note": 79,
      "duration": 0.125,
      "velocity": 100
    },
    {
      "time": 18.625,
      "note": 79,
      "duration": 0.125,
      "velocity": 100
    },
    {
      "time": 18.75,
      "note": 79,
      "duration": 0.25,
      "velocity": 100
    },
    {
      "time": 19.0,
      "note": 79,
      "duration": 0.25,
      "velocity": 100
    },
    {
      "time": 19.25,
      "note": 84,
      "duration": 0.5,
      "velocity": 100
    },
    {
      "time": 20.375,
      "note": 84,
      "duration": 0.25,
      "velocity": 100
    },
    {
      "time": 20.625,
      "note": 84,
      "duration": 0.125,
      "velocity": 100
    },
    {
      "time": 20.75,
      "note": 84,
      "duration": 0.25,
      "velocity": 100
    },
    {
      "time": 21.0,
      "note": 84,
      "duration": 0.25,
      "velocity": 100
    },
    {
      "time": 21.25,
      "note": 86,
      "duration": 0.375,
      "velocity": 100
    },
    {
      "time": 21.625,
      "note": 83,
      "duration": 0.125,
      "velocity": 100
    },
    {
      "time": 22.0,
      "note": 74,
      "duration": 0.5,
      "velocity": 100
    },
    {
      "time": 22.5,
      "note": 83,
      "duration": 0.5,
      "velocity": 100
    },
    {
      "time": 22.5,
      "note": 86,
      "duration": 0.25,
      "velocity": 100
    },
    {
      "time": 22.75,
      "note": 86,
      "duration": 0.25,
      "velocity": 100
    },
    {
      "time": 23.0,
      "note": 84,
      "duration": 0.25,
      "velocity": 100
    },
    {
      "time": 23.25,
      "note": 83,
      "duration": 0.25,
      "velocity": 100
    },
    {
      "time": 23.5,
      "note": 84,
      "duration": 0.375,
      "velocity": 100
    },
    {
      "time": 23.875,
      "note": 84,
      "duration": 0.125,
      "velocity": 100
    },
    {
      "time": 24.625,
      "note": 84,
      "duration": 0.25,
      "velocity": 100
    },
    {
      "time": 24.875,
      "note": 84,
      "duration": 0.125,
      "velocity": 100
    },
    {
      "time": 25.0,
      "note": 84,
      "duration": 0.25,
      "velocity": 100
    },
    {
      "time": 25.25,
      "note": 84,
      "duration": 0.25,
      "velocity": 100
    },
    {
      "time": 25.5,
      "note": 86,
      "duration": 0.375,
      "velocity": 100
    },
    {
      "time": 25.875,
      "note": 83,
      "duration": 0.125,
      "velocity": 100
    },
    {
      "time": 26.25,
      "note": 74,
      "duration": 0.5,
      "velocity": 100
    },
    {
      "time": 26.75,
      "note": 83,
      "duration": 0.5,
      "velocity": 100
    },
    {
      "time": 26.75,
      "note": 86,
      "duration": 0.25,
      "velocity": 100
    },
    {
      "time": 27.0,
      "note": 86,
      "duration": 0.25,
      "velocity": 100
    },
    {
      "time": 27.25,
      "note": 84,
      "duration": 0.25,
      "velocity": 100
    },
    {
      "time": 27.5,
      "note": 83,
      "duration": 0.25,
      "velocity": 100
    },
    {
      "time": 28.0,
      "note": 84,
      "duration": 0.375,
      "velocity": 100
    },
    {
      "time": 28.375,
      "note": 79,
      "duration": 0.125,
      "velocity": 100
    },
    {
      "time": 28.5,
      "note": 84,
      "duration": 0.125,
      "velocity": 100
    },
    {
      "time": 28.625,
      "note": 84,
      "duration": 0.25,
      "velocity": 100
    },
    {
      "time": 28.875,
      "note": 79,
      "duration": 0.125,
      "velocity": 100
    },
    {
      "time": 29.0,
      "note": 84,
      "duration": 0.125,
      "velocity": 100
    },
    {
      "time": 29.125,
      "note": 84,
      "duration": 0.25,
      "velocity": 100
    },
    {
      "time": 29.375,
      "note": 84,
      "duration": 0.125,
      "velocity": 100
    },
    {
      "time": 29.5,
      "note": 84,
      "duration": 0.25,
      "velocity": 100
    },
    {
      "time": 29.75,
      "note": 84,
      "duration": 0.125,
      "velocity": 100
    },
    {
      "time": 29.875,
      "note": 82,
      "duration": 0.125,
      "velocity": 100
    },
    {
      "time": 30.25,
      "note": 82,
      "duration": 0.25,
      "velocity": 100
    },
    {
      "time": 30.5,
      "note": 82,
      "duration": 0.125,
      "velocity": 100
    },
    {
      "time": 30.625,
      "note": 82,
      "duration": 0.125,
      "velocity": 100
    },
    {
      "time": 30.75,
      "note": 82,
      "duration": 0.125,
      "velocity": 100
    },
    {
      "time": 30.875,
      "note": 82,
      "duration": 0.125,
      "velocity": 100
    },
    {
      "time": 31.0,
      "note": 82,
      "duration": 0.125,
      "velocity": 100
    },
    {
      "time": 30.0,
      "note": 81,
      "duration": 1.0,
      "velocity": 100
    },
    {
      "time": 31.0,
      "note": 84,
      "duration": 1.0,
      "velocity": 100
    },
    {
      "time": 30.125,
      "note": 84,
      "duration": 0.25,
      "velocity": 100
    },
    {
      "time": 30.375,
      "note": 79,
      "duration": 0.125,
      "velocity": 100
    },
    {
      "time": 30.5,
      "note": 84,
      "duration": 0.125,
      "velocity": 100
    },
    {
      "time": 30.625,
      "note": 84,
      "duration": 0.25,
      "velocity": 100
    },
    {
      "time": 30.875,
      "note": 79,
      "duration": 0.125,
      "velocity": 100
    },
    {
      "time": 31.0,
      "note": 84,
      "duration": 0.125,
      "velocity": 100
    },
    {
      "time": 31.125,
      "note": 84,
      "duration": 0.25,
      "velocity": 100
    },
    {
      "time": 31.375,
      "note": 79,
      "duration": 0.125,
      "velocity": 100
    },
    {
      "time": 31.5,
      "note": 84,
      "duration": 0.25,
      "velocity": 100
    },
    {
      "time": 31.75,
      "note": 84,
      "duration": 0.125,
      "velocity": 100
    },
    {
      "time": 31.875,
      "note": 83,
      "duration": 0.125,
      "velocity": 100
    },
    {
      "time": 32.125,
      "note": 83,
      "duration": 0.25,
      "velocity": 100
    },
    {
      "time": 32.375,
      "note": 83,
      "duration": 0.125,
      "velocity": 100
    },
    {
      "time": 32.5,
      "note": 83,
      "duration": 0.125,
      "velocity": 100
    },
    {
      "time": 32.625,
      "note": 83,
      "duration": 0.125,
      "velocity": 100
    },
    {
      "time": 32.75,
      "note": 83,
      "duration": 0.125,
      "velocity": 100
    },
    {
      "time": 32.875,
      "note": 83,
      "duration": 0.125,
      "velocity": 100
    },
    {
      "time": 32.875,
      "note": 77,
      "duration": 0.125,
      "velocity": 100
    },
    {
      "time": 33.25,
      "note": 77,
      "duration": 1.0,
      "velocity": 100
    },
    {
      "time": 34.25,
      "note": 87,
      "duration": 1.0,
      "velocity": 100
    },
    {
      "time": 33.25,
      "note": 81,
      "duration": 0.125,
      "velocity": 100
    },
    {
      "time": 33.375,
      "note": 77,
      "duration": 0.25,
      "velocity": 100
    },
    {
      "time": 33.625,
      "note": 84,
      "duration": 0.125,
      "velocity": 100
    },
    {
      "time": 33.75,
      "note": 84,
      "duration": 0.375,
      "velocity": 100
    },
    {
      "time": 34.125,
      "note": 75,
      "duration": 0.125,
      "velocity": 100
    },
    {
      "time": 34.25,
      "note": 79,
      "duration": 0.125,
      "velocity": 100
    },
    {
      "time": 34.375,
      "note": 77,
      "duration": 0.25,
      "velocity": 100
    },
    {
      "time": 34.625,
      "note": 75,
      "duration": 0.125,
      "velocity": 100
    },
    {
      "time": 34.75,
      "note": 79,
      "duration": 0.125,
      "velocity": 100
    },
    {
      "time": 34.875,
      "note": 77,
      "duration": 0.25,
      "velocity": 100
    },
    {
      "time": 35.125,
      "note": 75,
      "duration": 0.125,
      "velocity": 100
    },
    {
      "time": 35.25,
      "note": 79,
      "duration": 0.125,
      "velocity": 100
    },
    {
      "time": 35.375,
      "note": 75,
      "duration": 0.25,
      "velocity": 100
    },
    {
      "time": 35.625,
      "note": 84,
      "duration": 0.125,
      "velocity": 100
    },
    {
      "time": 35.75,
      "note": 84,
      "duration": 0.5,
      "velocity": 100
    },
    {
      "time": 36.25,
      "note": 74,
      "duration": 0.25,
      "velocity": 100
    },
    {
      "time": 36.5,
      "note": 75,
      "duration": 0.25,
      "velocity": 100
    },
    {
      "time": 36.75,
      "note": 77,
      "duration": 0.25,
      "velocity": 100
    },
    {
      "time": 37.0,
      "note": 79,
      "duration": 0.25,
      "velocity": 100
    },
    {
      "time": 37.25,
      "note": 81,
      "duration": 0.25,
      "velocity": 100
    },
    {
      "time": 37.5,
      "note": 83,
      "duration": 0.25,
      "velocity": 100
    },
    {
      "time": 37.75,
      "note": 84,
      "duration": 0.25,
      "velocity": 100
    },
    {
      "time": 38.0,
      "note": 86,
      "duration": 0.25,
      "velocity": 100
    },
    {
      "time": 38.25,
      "note": 87,
      "duration": 0.5,
      "velocity": 100
    },
    {
      "time": 39.0,
      "note": 75,
      "duration": 0.125,
      "velocity": 100
    },
    {
      "time": 39.125,
      "note": 79,
      "duration": 0.125,
      "velocity": 100
    },
    {
      "time": 39.125,
      "note": 81,
      "duration": 0.125,
      "velocity": 100
    },
    {
      "time": 39.125,
      "note": 84,
      "duration": 0.125,
      "velocity": 100
    },
    {
      "time": 39.125,
      "note": 86,
      "duration": 0.125,
      "velocity": 100
    },
    {
      "time": 39.125,
      "note": 75,
      "duration": 0.125,
      "velocity": 100
    },
    {
      "time": 39.25,
      "note": 79,
      "duration": 0.125,
      "velocity": 100
    },
    {
      "time": 39.25,
      "note": 81,
      "duration": 0.125,
      "velocity": 100
    },
    {
      "time": 39.25,
      "note": 84,
      "duration": 0.125,
      "velocity": 100
    },
    {
      "time": 39.25,
      "note": 86,
      "duration": 0.125,
      "velocity": 100
    },
    {
      "time": 39.25,
      "note": 75,
      "duration": 0.5,
      "velocity": 100
    },
    {
      "time": 39.75,
      "note": 79,
      "duration": 0.5,
      "velocity": 100
    },
    {
      "time": 39.75,
      "note": 81,
      "duration": 0.5,
      "velocity": 100
    },
    {
      "time": 39.75,
      "note": 84,
      "duration": 0.5,
      "velocity": 100
    },
    {
      "time": 39.75,
      "note": 86,
      "duration": 0.5,
      "velocity": 100
    },
    {
      "time": 39.75,
      "note": 75,
      "duration": 0.375,
      "velocity": 100
    },
    {
      "time": 40.125,
      "note": 79,
      "duration": 0.375,
      "velocity": 100
    },
    {
      "time": 40.125,
      "note": 81,
      "duration": 0.375,
      "velocity": 100
    },
    {
      "time": 40.125,
      "note": 84,
      "duration": 0.375,
      "velocity": 100
    },
    {
      "time": 40.125,
      "note": 86,
      "duration": 0.375,
      "velocity": 100
    },
    {
      "time": 40.125,
      "note": 77,
      "duration": 0.125,
      "velocity": 100
    },
    {
      "time": 40.25,
      "note": 75,
      "duration": 0.5,
      "velocity": 100
    },
    {
      "time": 40.75,
      "note": 79,
      "duration": 0.5,
      "velocity": 100
    },
    {
      "time": 40.75,
      "note": 84,
      "duration": 0.5,
      "velocity": 100
    }
  ],
  "chords": [
    {
      "time": 0.0,
      "notes": [
        60,
        63,
        67
      ],
      "duration": 1.875
    },
    {
      "time": 1.875,
      "notes": [
        67,
        71,
        74,
        77
      ],
      "duration": 1.875
    },
    {
      "time": 3.75,
      "notes": [
        60,
        63,
        67
      ],
      "duration": 1.875
    },
    {
      "time": 5.625,
      "notes": [
        67,
        71,
        74,
        77
      ],
      "duration": 1.875
    },
    {
      "time": 7.5,
      "notes": [
        60,
        63,
        67
      ],
      "duration": 1.875
    },
    {
      "time": 9.375,
      "notes": [
        60,
        63,
        67
      ],
      "duration": 1.875
    },
    {
      "time": 11.25,
      "notes": [
        67,
        71,
        74,
        77
      ],
      "duration": 1.875
    },
    {
      "time": 13.125,
      "notes": [
        60,
        63,
        67
      ],
      "duration": 1.875
    },
    {
      "time": 15.0,
      "notes": [
        67,
        71,
        74,
        77
      ],
      "duration": 1.875
    },
    {
      "time": 16.875,
      "notes": [
        60,
        63,
        67
      ],
      "duration": 1.875
    },
    {
      "time": 18.75,
      "notes": [
        67,
        71,
        74,
        77
      ],
      "duration": 1.875
    },
    {
      "time": 20.625,
      "notes": [
        60,
        63,
        67
      ],
      "duration": 1.875
    },
    {
      "time": 22.5,
      "notes": [
        67,
        71,
        74,
        77
      ],
      "duration": 1.875
    },
    {
      "time": 24.375,
      "notes": [
        60,
        63,
        67
      ],
      "duration": 1.875
    },
    {
      "time": 26.25,
      "notes": [
        67,
        71,
        74,
        77
      ],
      "duration": 1.875
    },
    {
      "time": 28.125,
      "notes": [
        60,
        63,
        67
      ],
      "duration": 1.875
    },
    {
      "time": 30.0,
      "notes": [
        67,
        71,
        74,
        77
      ],
      "duration": 1.875
    },
    {
      "time": 31.875,
      "notes": [
        60,
        63,
        67
      ],
      "duration": 1.875
    },
    {
      "time": 33.75,
      "notes": [
        65,
        68,
        72
      ],
      "duration": 1.875
    },
    {
      "time": 35.625,
      "notes": [
        60,
        63,
        67
      ],
      "duration": 1.875
    },
    {
      "time": 37.5,
      "notes": [
        67,
        71,
        74,
        77
      ],
      "duration": 1.875
    },
    {
      "time": 39.375,
      "notes": [
        60,
        63,
        67
      ],
      "duration": 1.875
    }
  ]
}