{
  "title": "Se te ve la tanga",
  "artist": "Damas Gratis",
  "bpm": 120,
  "duration": 66.25,
  "audioFile": "",
  "notes": [
    {
      "time": 0.0,
      "note": 74,
      "duration": 0.25,
      "velocity": 100
    },
    {
      "time": 0.25,
      "note": 74,
      "duration": 0.125,
      "velocity": 100
    },
    {
      "time": 0.375,
      "note": 74,
      "duration": 0.125,
      "velocity": 100
    },
    {
      "time": 0.5,
      "note": 77,
      "duration": 0.25,
      "velocity": 100
    },
    {
      "time": 0.75,
      "note": 77,
      "duration": 0.125,
      "velocity": 100
    },
    {
      "time": 0.875,
      "note": 77,
      "duration": 0.125,
      "velocity": 100
    },
    {
      "time": 1.0,
      "note": 81,
      "duration": 0.25,
      "velocity": 100
    },
    {
      "time": 1.25,
      "note": 81,
      "duration": 0.125,
      "velocity": 100
    },
    {
      "time": 1.375,
      "note": 81,
      "duration": 0.125,
      "velocity": 100
    },
    {
      "time": 1.5,
      "note": 86,
      "duration": 0.25,
      "velocity": 100
    },
    {
      "time": 1.75,
      "note": 86,
      "duration": 0.125,
      "velocity": 100
    },
    {
      "time": 1.875,
      "note": 86,
      "duration": 0.125,
      "velocity": 100
    },
    {
      "time": 2.0,
      "note": 89,
      "duration": 0.5,
      "velocity": 100
    },
    {
      "time": 2.5,
      "note": 89,
      "duration": 0.125,
      "velocity": 100
    },
    {
      "time": 2.625,
      "note": 86,
      "duration": 0.375,
      "velocity": 100
    },
    {
      "time": 3.0,
      "note": 86,
      "duration": 0.5,
      "velocity": 100
    },
    {
      "time": 3.625,
      "note": 74,
      "duration": 0.125,
      "velocity": 100
    },
    {
      "time": 3.75,
      "note": 74,
      "duration": 0.125,
      "velocity": 100
    },
    {
      "time": 3.875,
      "note": 74,
      "duration": 0.125,
      "velocity": 100
    },
    {
      "time": 4.0,
      "note": 77,
      "duration": 0.5,
      "velocity": 100
    },
    {
      "time": 4.5,
      "note": 74,
      "duration": 0.5,
      "velocity": 100
    },
    {
      "time": 5.0,
      "note": 74,
      "duration": 0.5,
      "velocity": 100
    },
    {
      "time": 5.5,
      "note": 74,
      "duration": 0.25,
      "velocity": 100
    },
    {
      "time": 5.75,
      "note": 74,
      "duration": 0.125,
      "velocity": 100
    },
    {
      "time": 5.875,
      "note": 74,
      "duration": 0.125,
      "velocity": 100
    },
    {
      "time": 6.25,
      "note": 77,
      "duration": 0.25,
      "velocity": 100
    },
    {
      "time": 6.5,
      "note": 77,
      "duration": 0.125,
      "velocity": 100
    },
    {
      "time": 6.625,
      "note": 77,
      "duration": 0.125,
      "velocity": 100
    },
    {
      "time": 6.75,
      "note": 81,
      "duration": 0.25,
      "velocity": 100
    },
    {
      "time": 7.0,
      "note": 81,
      "duration": 0.125,
      "velocity": 100
    },
    {
      "time": 7.125,
      "note": 81,
      "duration": 0.125,
      "velocity": 100
    },
    {
      "time": 7.25,
      "note": 77,
      "duration": 0.25,
      "velocity": 100
    },
    {
      "time": 7.5,
      "note": 74,
      "duration": 0.25,
      "velocity": 100
    },
    {
      "time": 7.75,
      "note": 77,
      "duration": 0.125,
      "velocity": 100
    },
    {
      "time": 7.875,
      "note": 81,
      "duration": 0.125,
      "velocity": 100
    },
    {
      "time": 8.0,
      "note": 72,
      "duration": 0.25,
      "velocity": 100
    },
    {
      "time": 8.25,
      "note": 74,
      "duration": 0.25,
      "velocity": 100
    },
    {
      "time": 8.5,
      "note": 74,
      "duration": 0.125,
      "velocity": 100
    },
    {
      "time": 8.625,
      "note": 74,
      "duration": 0.125,
      "velocity": 100
    },
    {
      "time": 8.75,
      "note": 77,
      "duration": 0.125,
      "velocity": 100
    },
    {
      "time": 8.875,
      "note": 81,
      "duration": 0.125,
      "velocity": 100
    },
    {
      "time": 9.0,
      "note": 72,
      "duration": 0.25,
      "velocity": 100
    },
    {
      "time": 9.25,
      "note": 74,
      "duration": 0.25,
      "velocity": 100
    },
    {
      "time": 9.5,
      "note": 74,
      "duration": 0.125,
      "velocity": 100
    },
    {
      "time": 9.625,
      "note": 74,
      "duration": 0.125,
      "velocity": 100
    },
    {
      "time": 9.75,
      "note": 77,
      "duration": 0.125,
      "velocity": 100
    },
    {
      "time": 9.875,
      "note": 81,
      "duration": 0.125,
      "velocity": 100
    },
    {
      "time": 10.0,
      "note": 72,
      "duration": 0.25,
      "velocity": 100
    },
    {
      "time": 10.25,
      "note": 74,
      "duration": 0.25,
      "velocity": 100
    },
    {
      "time": 10.5,
      "note": 74,
      "duration": 0.125,
      "velocity": 100
    },
    {
      "time": 10.625,
      "note": 74,
      "duration": 0.125,
      "velocity": 100
    },
    {
      "time": 10.75,
      "note": 74,
      "duration": 0.25,
      "velocity": 100
    },
    {
      "time": 11.0,
      "note": 74,
      "duration": 0.125,
      "velocity": 100
    },
    {
      "time": 11.125,
      "note": 74,
      "duration": 0.125,
      "velocity": 100
    },
    {
      "time": 11.25,
      "note": 74,
      "duration": 0.5,
      "velocity": 100
    },
    {
      "time": 12.75,
      "note": 89,
      "duration": 0.125,
      "velocity": 100
    },
    {
      "time": 12.875,
      "note": 88,
      "duration": 0.125,
      "velocity": 100
    },
    {
      "time": 13.0,
      "note": 86,
      "duration": 0.125,
      "velocity": 100
    },
    {
      "time": 13.125,
      "note": 81,
      "duration": 0.125,
      "velocity": 100
    },
    {
      "time": 13.25,
      "note": 84,
      "duration": 0.25,
      "velocity": 100
    },
    {
      "time": 13.5,
      "note": 86,
      "duration": 0.125,
      "velocity": 100
    },
    {
      "time": 13.625,
      "note": 81,
      "duration": 0.125,
      "velocity": 100
    },
    {
      "time": 13.75,
      "note": 84,
      "duration": 0.25,
      "velocity": 100
    },
    {
      "time": 14.0,
      "note": 86,
      "duration": 0.125,
      "velocity": 100
    },
    {
      "time": 14.125,
      "note": 81,
      "duration": 0.125,
      "velocity": 100
    },
    {
      "time": 14.25,
      "note": 84,
      "duration": 0.25,
      "velocity": 100
    },
    {
      "time": 14.5,
      "note": 86,
      "duration": 0.125,
      "velocity": 100
    },
    {
      "time": 14.625,
      "note": 81,
      "duration": 0.125,
      "velocity": 100
    },
    {
      "time": 14.75,
      "note": 89,
      "duration": 0.125,
      "velocity": 100
    },
    {
      "time": 14.875,
      "note": 88,
      "duration": 0.125,
      "velocity": 100
    },
    {
      "time": 15.0,
      "note": 86,
      "duration": 0.125,
      "velocity": 100
    },
    {
      "time": 15.125,
      "note": 81,
      "duration": 0.125,
      "velocity": 100
    },
    {
      "time": 15.25,
      "note": 84,
      "duration": 0.25,
      "velocity": 100
    },
    {
      "time": 15.5,
      "note": 86,
      "duration": 0.125,
      "velocity": 100
    },
    {
      "time": 15.625,
      "note": 81,
      "duration": 0.125,
      "velocity": 100
    },
    {
      "time": 15.75,
      "note": 84,
      "duration": 0.25,
      "velocity": 100
    },
    {
      "time": 16.0,
      "note": 86,
      "duration": 0.125,
      "velocity": 100
    },
    {
      "time": 16.125,
      "note": 81,
      "duration": 0.125,
      "velocity": 100
    },
    {
      "time": 16.25,
      "note": 76,
      "duration": 0.5,
      "velocity": 100
    },
    {
      "time": 16.75,
      "note": 84,
      "duration": 0.5,
      "velocity": 100
    },
    {
      "time": 16.75,
      "note": 86,
      "duration": 0.75,
      "velocity": 100
    },
    {
      "time": 17.5,
      "note": 72,
      "duration": 0.25,
      "velocity": 100
    },
    {
      "time": 17.75,
      "note": 72,
      "duration": 0.125,
      "velocity": 100
    },
    {
      "time": 17.875,
      "note": 72,
      "duration": 0.125,
      "velocity": 100
    },
    {
      "time": 18.0,
      "note": 76,
      "duration": 0.25,
      "velocity": 100
    },
    {
      "time": 18.25,
      "note": 76,
      "duration": 0.125,
      "velocity": 100
    },
    {
      "time": 18.375,
      "note": 76,
      "duration": 0.125,
      "velocity": 100
    },
    {
      "time": 18.5,
      "note": 79,
      "duration": 0.25,
      "velocity": 100
    },
    {
      "time": 18.75,
      "note": 79,
      "duration": 0.125,
      "velocity": 100
    },
    {
      "time": 18.875,
      "note": 79,
      "duration": 0.125,
      "velocity": 100
    },
    {
      "time": 19.0,
      "note": 79,
      "duration": 0.125,
      "velocity": 100
    },
    {
      "time": 19.125,
      "note": 82,
      "duration": 0.125,
      "velocity": 100
    },
    {
      "time": 19.25,
      "note": 84,
      "duration": 0.25,
      "velocity": 100
    },
    {
      "time": 19.5,
      "note": 72,
      "duration": 0.25,
      "velocity": 100
    },
    {
      "time": 19.75,
      "note": 72,
      "duration": 0.125,
      "velocity": 100
    },
    {
      "time": 19.875,
      "note": 72,
      "duration": 0.125,
      "velocity": 100
    },
    {
      "time": 20.0,
      "note": 76,
      "duration": 0.25,
      "velocity": 100
    },
    {
      "time": 20.25,
      "note": 76,
      "duration": 0.125,
      "velocity": 100
    },
    {
      "time": 20.375,
      "note": 76,
      "duration": 0.125,
      "velocity": 100
    },
    {
      "time": 20.5,
      "note": 79,
      "duration": 0.25,
      "velocity": 100
    },
    {
      "time": 20.75,
      "note": 79,
      "duration": 0.125,
      "velocity": 100
    },
    {
      "time": 20.875,
      "note": 79,
      "duration": 0.125,
      "velocity": 100
    },
    {
      "time": 21.0,
      "note": 79,
      "duration": 0.125,
      "velocity": 100
    },
    {
      "time": 21.125,
      "note": 82,
      "duration": 0.125,
      "velocity": 100
    },
    {
      "time": 21.25,
      "note": 84,
      "duration": 0.25,
      "velocity": 100
    },
    {
      "time": 21.875,
      "note": 79,
      "duration": 0.125,
      "velocity": 100
    },
    {
      "time": 22.0,
      "note": 84,
      "duration": 0.125,
      "velocity": 100
    },
    {
      "time": 22.125,
      "note": 88,
      "duration": 0.125,
      "velocity": 100
    },
    {
      "time": 22.25,
      "note": 84,
      "duration": 0.125,
      "velocity": 100
    },
    {
      "time": 22.375,
      "note": 79,
      "duration": 0.125,
      "velocity": 100
    },
    {
      "time": 22.5,
      "note": 84,
      "duration": 0.5,
      "velocity": 100
    },
    {
      "time": 23.0,
      "note": 86,
      "duration": 0.5,
      "velocity": 100
    },
    {
      "time": 23.5,
      "note": 86,
      "duration": 0.5,
      "velocity": 100
    },
    {
      "time": 24.0,
      "note": 69,
      "duration": 0.5,
      "velocity": 100
    },
    {
      "time": 24.5,
      "note": 89,
      "duration": 0.375,
      "velocity": 100
    },
    {
      "time": 24.875,
      "note": 89,
      "duration": 0.125,
      "velocity": 100
    },
    {
      "time": 25.0,
      "note": 89,
      "duration": 0.125,
      "velocity": 100
    },
    {
      "time": 25.125,
      "note": 89,
      "duration": 0.125,
      "velocity": 100
    },
    {
      "time": 25.25,
      "note": 91,
      "duration": 0.125,
      "velocity": 100
    },
    {
      "time": 25.375,
      "note": 89,
      "duration": 0.125,
      "velocity": 100
    },
    {
      "time": 25.5,
      "note": 88,
      "duration": 0.375,
      "velocity": 100
    },
    {
      "time": 25.875,
      "note": 84,
      "duration": 0.125,
      "velocity": 100
    },
    {
      "time": 26.0,
      "note": 84,
      "duration": 0.5,
      "velocity": 100
    },
    {
      "time": 26.5,
      "note": 82,
      "duration": 0.375,
      "velocity": 100
    },
    {
      "time": 26.875,
      "note": 82,
      "duration": 0.125,
      "velocity": 100
    },
    {
      "time": 27.0,
      "note": 82,
      "duration": 0.125,
      "velocity": 100
    },
    {
      "time": 27.125,
      "note": 82,
      "duration": 0.125,
      "velocity": 100
    },
    {
      "time": 27.25,
      "note": 81,
      "duration": 0.125,
      "velocity": 100
    },
    {
      "time": 27.375,
      "note": 79,
      "duration": 0.125,
      "velocity": 100
    },
    {
      "time": 27.5,
      "note": 81,
      "duration": 0.5,
      "velocity": 100
    },
    {
      "time": 28.0,
      "note": 79,
      "duration": 0.25,
      "velocity": 100
    },
    {
      "time": 28.25,
      "note": 81,
      "duration": 0.125,
      "velocity": 100
    },
    {
      "time": 28.375,
      "note": 81,
      "duration": 0.125,
      "velocity": 100
    },
    {
      "time": 28.75,
      "note": 82,
      "duration": 0.375,
      "velocity": 100
    },
    {
      "time": 29.125,
      "note": 82,
      "duration": 0.125,
      "velocity": 100
    },
    {
      "time": 29.25,
      "note": 82,
      "duration": 0.125,
      "velocity": 100
    },
    {
      "time": 29.375,
      "note": 82,
      "duration": 0.25,
      "velocity": 100
    },
    {
      "time": 29.625,
      "note": 86,
      "duration": 0.125,
      "velocity": 100
    },
    {
      "time": 29.75,
      "note": 84,
      "duration": 0.25,
      "velocity": 100
    },
    {
      "time": 30.0,
      "note": 82,
      "duration": 0.125,
      "velocity": 100
    },
    {
      "time": 30.125,
      "note": 84,
      "duration": 0.125,
      "velocity": 100
    },
    {
      "time": 30.5,
      "note": 79,
      "duration": 0.125,
      "velocity": 100
    },
    {
      "time": 30.625,
      "note": 79,
      "duration": 0.125,
      "velocity": 100
    },
    {
      "time": 30.75,
      "note": 81,
      "duration": 0.375,
      "velocity": 100
    },
    {
      "time": 31.125,
      "note": 84,
      "duration": 0.125,
      "velocity": 100
    },
    {
      "time": 31.25,
      "note": 84,
      "duration": 0.125,
      "velocity": 100
    },
    {
      "time": 31.375,
      "note": 81,
      "duration": 0.25,
      "velocity": 100
    },
    {
      "time": 31.625,
      "note": 79,
      "duration": 0.125,
      "velocity": 100
    },
    {
      "time": 31.75,
      "note": 77,
      "duration": 0.5,
      "velocity": 100
    },
    {
      "time": 32.5,
      "note": 81,
      "duration": 0.125,
      "velocity": 100
    },
    {
      "time": 32.625,
      "note": 81,
      "duration": 0.125,
      "velocity": 100
    },
    {
      "time": 32.75,
      "note": 81,
      "duration": 0.375,
      "velocity": 100
    },
    {
      "time": 33.125,
      "note": 84,
      "duration": 0.125,
      "velocity": 100
    },
    {
      "time": 33.25,
      "note": 84,
      "duration": 0.125,
      "velocity": 100
    },
    {
      "time": 33.375,
      "note": 81,
      "duration": 0.25,
      "velocity": 100
    },
    {
      "time": 33.625,
      "note": 84,
      "duration": 0.125,
      "velocity": 100
    },
    {
      "time": 33.75,
      "note": 86,
      "duration": 1.0,
      "velocity": 100
    },
    {
      "time": 34.75,
      "note": 72,
      "duration": 0.25,
      "velocity": 100
    },
    {
      "time": 35.0,
      "note": 72,
      "duration": 0.125,
      "velocity": 100
    },
    {
      "time": 35.125,
      "note": 72,
      "duration": 0.125,
      "velocity": 100
    },
    {
      "time": 35.25,
      "note": 76,
      "duration": 0.25,
      "velocity": 100
    },
    {
      "time": 35.5,
      "note": 76,
      "duration": 0.125,
      "velocity": 100
    },
    {
      "time": 35.625,
      "note": 76,
      "duration": 0.125,
      "velocity": 100
    },
    {
      "time": 35.75,
      "note": 79,
      "duration": 0.25,
      "velocity": 100
    },
    {
      "time": 36.0,
      "note": 79,
      "duration": 0.125,
      "velocity": 100
    },
    {
      "time": 36.125,
      "note": 79,
      "duration": 0.125,
      "velocity": 100
    },
    {
      "time": 36.25,
      "note": 79,
      "duration": 0.125,
      "velocity": 100
    },
    {
      "time": 36.375,
      "note": 82,
      "duration": 0.125,
      "velocity": 100
    },
    {
      "time": 36.5,
      "note": 84,
      "duration": 0.25,
      "velocity": 100
    },
    {
      "time": 36.75,
      "note": 72,
      "duration": 0.25,
      "velocity": 100
    },
    {
      "time": 37.0,
      "note": 72,
      "duration": 0.125,
      "velocity": 100
    },
    {
      "time": 37.125,
      "note": 72,
      "duration": 0.125,
      "velocity": 100
    },
    {
      "time": 37.25,
      "note": 76,
      "duration": 0.25,
      "velocity": 100
    },
    {
      "time": 37.5,
      "note": 76,
      "duration": 0.125,
      "velocity": 100
    },
    {
      "time": 37.625,
      "note": 76,
      "duration": 0.125,
      "velocity": 100
    },
    {
      "time": 37.75,
      "note": 79,
      "duration": 0.25,
      "velocity": 100
    },
    {
      "time": 38.0,
      "note": 79,
      "duration": 0.125,
      "velocity": 100
    },
    {
      "time": 38.125,
      "note": 79,
      "duration": 0.125,
      "velocity": 100
    },
    {
      "time": 38.25,
      "note": 79,
      "duration": 0.125,
      "velocity": 100
    },
    {
      "time": 38.375,
      "note": 82,
      "duration": 0.125,
      "velocity": 100
    },
    {
      "time": 38.5,
      "note": 84,
      "duration": 0.25,
      "velocity": 100
    },
    {
      "time": 39.125,
      "note": 79,
      "duration": 0.125,
      "velocity": 100
    },
    {
      "time": 39.25,
      "note": 84,
      "duration": 0.125,
      "velocity": 100
    },
    {
      "time": 39.375,
      "note": 88,
      "duration": 0.125,
      "velocity": 100
    },
    {
      "time": 39.5,
      "note": 84,
      "duration": 0.125,
      "velocity": 100
    },
    {
      "time": 39.625,
      "note": 79,
      "duration": 0.125,
      "velocity": 100
    },
    {
      "time": 39.75,
      "note": 84,
      "duration": 0.5,
      "velocity": 100
    },
    {
      "time": 40.25,
      "note": 86,
      "duration": 0.5,
      "velocity": 100
    },
    {
      "time": 40.75,
      "note": 86,
      "duration": 0.5,
      "velocity": 100
    },
    {
      "time": 41.25,
      "note": 69,
      "duration": 0.5,
      "velocity": 100
    },
    {
      "time": 41.75,
      "note": 86,
      "duration": 0.25,
      "velocity": 100
    },
    {
      "time": 42.0,
      "note": 86,
      "duration": 0.125,
      "velocity": 100
    },
    {
      "time": 42.125,
      "note": 81,
      "duration": 0.125,
      "velocity": 100
    },
    {
      "time": 42.25,
      "note": 81,
      "duration": 0.5,
      "velocity": 100
    },
    {
      "time": 42.75,
      "note": 86,
      "duration": 0.125,
      "velocity": 100
    },
    {
      "time": 42.875,
      "note": 81,
      "duration": 0.125,
      "velocity": 100
    },
    {
      "time": 43.0,
      "note": 77,
      "duration": 0.125,
      "velocity": 100
    },
    {
      "time": 43.125,
      "note": 81,
      "duration": 0.125,
      "velocity": 100
    },
    {
      "time": 43.25,
      "note": 86,
      "duration": 0.125,
      "velocity": 100
    },
    {
      "time": 43.375,
      "note": 81,
      "duration": 0.125,
      "velocity": 100
    },
    {
      "time": 43.5,
      "note": 77,
      "duration": 0.125,
      "velocity": 100
    },
    {
      "time": 43.625,
      "note": 81,
      "duration": 0.125,
      "velocity": 100
    },
    {
      "time": 43.75,
      "note": 86,
      "duration": 0.375,
      "velocity": 100
    },
    {
      "time": 44.125,
      "note": 86,
      "duration": 0.125,
      "velocity": 100
    },
    {
      "time": 44.25,
      "note": 86,
      "duration": 0.25,
      "velocity": 100
    },
    {
      "time": 44.5,
      "note": 81,
      "duration": 0.25,
      "velocity": 100
    },
    {
      "time": 44.75,
      "note": 84,
      "duration": 0.25,
      "velocity": 100
    },
    {
      "time": 45.0,
      "note": 82,
      "duration": 0.125,
      "velocity": 100
    },
    {
      "time": 45.125,
      "note": 84,
      "duration": 0.125,
      "velocity": 100
    },
    {
      "time": 45.25,
      "note": 84,
      "duration": 0.5,
      "velocity": 100
    },
    {
      "time": 45.25,
      "note": 88,
      "duration": 0.125,
      "velocity": 100
    },
    {
      "time": 45.375,
      "note": 91,
      "duration": 0.125,
      "velocity": 100
    },
    {
      "time": 45.5,
      "note": 88,
      "duration": 0.25,
      "velocity": 100
    },
    {
      "time": 45.75,
      "note": 89,
      "duration": 0.125,
      "velocity": 100
    },
    {
      "time": 45.875,
      "note": 84,
      "duration": 0.25,
      "velocity": 100
    },
    {
      "time": 46.125,
      "note": 79,
      "duration": 0.125,
      "velocity": 100
    },
    {
      "time": 46.25,
      "note": 82,
      "duration": 0.125,
      "velocity": 100
    },
    {
      "time": 46.375,
      "note": 84,
      "duration": 0.125,
      "velocity": 100
    },
    {
      "time": 46.5,
      "note": 82,
      "duration": 0.125,
      "velocity": 100
    },
    {
      "time": 46.625,
      "note": 79,
      "duration": 0.125,
      "velocity": 100
    },
    {
      "time": 46.75,
      "note": 82,
      "duration": 0.125,
      "velocity": 100
    },
    {
      "time": 46.875,
      "note": 84,
      "duration": 0.5,
      "velocity": 100
    },
    {
      "time": 47.375,
      "note": 88,
      "duration": 0.125,
      "velocity": 100
    },
    {
      "time": 47.5,
      "note": 91,
      "duration": 0.125,
      "velocity": 100
    },
    {
      "time": 47.625,
      "note": 84,
      "duration": 0.25,
      "velocity": 100
    },
    {
      "time": 47.875,
      "note": 88,
      "duration": 0.25,
      "velocity": 100
    },
    {
      "time": 47.875,
      "note": 89,
      "duration": 0.125,
      "velocity": 100
    },
    {
      "time": 48.125,
      "note": 84,
      "duration": 0.125,
      "velocity": 100
    },
    {
      "time": 48.25,
      "note": 84,
      "duration": 0.125,
      "velocity": 100
    },
    {
      "time": 48.375,
      "note": 84,
      "duration": 0.125,
      "velocity": 100
    },
    {
      "time": 48.5,
      "note": 88,
      "duration": 0.25,
      "velocity": 100
    },
    {
      "time": 48.75,
      "note": 84,
      "duration": 0.25,
      "velocity": 100
    },
    {
      "time": 49.0,
      "note": 86,
      "duration": 0.25,
      "velocity": 100
    },
    {
      "time": 49.25,
      "note": 84,
      "duration": 0.125,
      "velocity": 100
    },
    {
      "time": 49.375,
      "note": 86,
      "duration": 0.125,
      "velocity": 100
    },
    {
      "time": 49.5,
      "note": 86,
      "duration": 0.5,
      "velocity": 100
    },
    {
      "time": 50.625,
      "note": 81,
      "duration": 0.125,
      "velocity": 100
    },
    {
      "time": 50.75,
      "note": 81,
      "duration": 0.125,
      "velocity": 100
    },
    {
      "time": 50.875,
      "note": 81,
      "duration": 0.125,
      "velocity": 100
    },
    {
      "time": 51.0,
      "note": 86,
      "duration": 0.375,
      "velocity": 100
    },
    {
      "time": 51.375,
      "note": 89,
      "duration": 0.125,
      "velocity": 100
    },
    {
      "time": 51.625,
      "note": 88,
      "duration": 0.25,
      "velocity": 100
    },
    {
      "time": 51.875,
      "note": 84,
      "duration": 0.125,
      "velocity": 100
    },
    {
      "time": 52.0,
      "note": 86,
      "duration": 0.125,
      "velocity": 100
    },
    {
      "time": 52.125,
      "note": 84,
      "duration": 0.25,
      "velocity": 100
    },
    {
      "time": 52.375,
      "note": 86,
      "duration": 0.125,
      "velocity": 100
    },
    {
      "time": 52.5,
      "note": 86,
      "duration": 0.5,
      "velocity": 100
    },
    {
      "time": 52.5,
      "note": 86,
      "duration": 0.125,
      "velocity": 100
    },
    {
      "time": 52.625,
      "note": 84,
      "duration": 0.25,
      "velocity": 100
    },
    {
      "time": 52.875,
      "note": 88,
      "duration": 0.25,
      "velocity": 100
    },
    {
      "time": 52.875,
      "note": 84,
      "duration": 0.125,
      "velocity": 100
    },
    {
      "time": 53.0,
      "note": 86,
      "duration": 1.0,
      "velocity": 100
    },
    {
      "time": 54.0,
      "note": 74,
      "duration": 0.5,
      "velocity": 100
    },
    {
      "time": 54.5,
      "note": 81,
      "duration": 0.25,
      "velocity": 100
    },
    {
      "time": 54.75,
      "note": 77,
      "duration": 0.25,
      "velocity": 100
    },
    {
      "time": 55.25,
      "note": 74,
      "duration": 1.0,
      "velocity": 100
    },
    {
      "time": 55.5,
      "note": 81,
      "duration": 0.125,
      "velocity": 100
    },
    {
      "time": 55.625,
      "note": 81,
      "duration": 0.125,
      "velocity": 100
    },
    {
      "time": 55.75,
      "note": 81,
      "duration": 0.25,
      "velocity": 100
    },
    {
      "time": 56.0,
      "note": 81,
      "duration": 0.125,
      "velocity": 100
    },
    {
      "time": 56.125,
      "note": 79,
      "duration": 0.125,
      "velocity": 100
    },
    {
      "time": 56.25,
      "note": 81,
      "duration": 0.25,
      "velocity": 100
    },
    {
      "time": 56.5,
      "note": 81,
      "duration": 0.125,
      "velocity": 100
    },
    {
      "time": 56.625,
      "note": 79,
      "duration": 0.125,
      "velocity": 100
    },
    {
      "time": 56.75,
      "note": 81,
      "duration": 0.25,
      "velocity": 100
    },
    {
      "time": 57.0,
      "note": 81,
      "duration": 0.125,
      "velocity": 100
    },
    {
      "time": 57.125,
      "note": 79,
      "duration": 0.125,
      "velocity": 100
    },
    {
      "time": 57.25,
      "note": 81,
      "duration": 0.25,
      "velocity": 100
    },
    {
      "time": 57.5,
      "note": 81,
      "duration": 0.125,
      "velocity": 100
    },
    {
      "time": 57.625,
      "note": 79,
      "duration": 0.125,
      "velocity": 100
    },
    {
      "time": 57.75,
      "note": 81,
      "duration": 0.125,
      "velocity": 100
    },
    {
      "time": 57.875,
      "note": 81,
      "duration": 0.125,
      "velocity": 100
    },
    {
      "time": 58.0,
      "note": 81,
      "duration": 0.125,
      "velocity": 100
    },
    {
      "time": 58.125,
      "note": 79,
      "duration": 0.125,
      "velocity": 100
    },
    {
      "time": 58.25,
      "note": 81,
      "duration": 0.25,
      "velocity": 100
    },
    {
      "time": 58.5,
      "note": 79,
      "duration": 0.125,
      "velocity": 100
    },
    {
      "time": 58.625,
      "note": 81,
      "duration": 0.125,
      "velocity": 100
    },
    {
      "time": 58.75,
      "note": 81,
      "duration": 0.125,
      "velocity": 100
    },
    {
      "time": 58.875,
      "note": 89,
      "duration": 0.125,
      "velocity": 100
    },
    {
      "time": 59.0,
      "note": 86,
      "duration": 0.125,
      "velocity": 100
    },
    {
      "time": 59.125,
      "note": 84,
      "duration": 0.125,
      "velocity": 100
    },
    {
      "time": 59.5,
      "note": 86,
      "duration": 0.125,
      "velocity": 100
    },
    {
      "time": 59.625,
      "note": 86,
      "duration": 0.125,
      "velocity": 100
    },
    {
      "time": 59.75,
      "note": 89,
      "duration": 0.25,
      "velocity": 100
    },
    {
      "time": 60.0,
      "note": 86,
      "duration": 0.125,
      "velocity": 100
    },
    {
      "time": 60.125,
      "note": 81,
      "duration": 0.125,
      "velocity": 100
    },
    {
      "time": 60.25,
      "note": 84,
      "duration": 0.5,
      "velocity": 100
    },
    {
      "time": 60.75,
      "note": 88,
      "duration": 0.125,
      "velocity": 100
    },
    {
      "time": 60.875,
      "note": 84,
      "duration": 0.125,
      "velocity": 100
    },
    {
      "time": 61.0,
      "note": 84,
      "duration": 0.25,
      "velocity": 100
    },
    {
      "time": 61.25,
      "note": 84,
      "duration": 1.0,
      "velocity": 100
    },
    {
      "time": 61.25,
      "note": 84,
      "duration": 0.25,
      "velocity": 100
    },
    {
      "time": 61.5,
      "note": 84,
      "duration": 0.125,
      "velocity": 100
    },
    {
      "time": 61.625,
      "note": 84,
      "duration": 0.125,
      "velocity": 100
    },
    {
      "time": 61.75,
      "note": 88,
      "duration": 0.25,
      "velocity": 100
    },
    {
      "time": 62.0,
      "note": 84,
      "duration": 0.125,
      "velocity": 100
    },
    {
      "time": 62.125,
      "note": 82,
      "duration": 0.125,
      "velocity": 100
    },
    {
      "time": 62.25,
      "note": 84,
      "duration": 0.25,
      "velocity": 100
    },
    {
      "time": 62.5,
      "note": 84,
      "duration": 0.125,
      "velocity": 100
    },
    {
      "time": 62.625,
      "note": 84,
      "duration": 0.125,
      "velocity": 100
    },
    {
      "time": 62.75,
      "note": 88,
      "duration": 0.25,
      "velocity": 100
    },
    {
      "time": 63.0,
      "note": 84,
      "duration": 0.125,
      "velocity": 100
    },
    {
      "time": 63.125,
      "note": 82,
      "duration": 0.125,
      "velocity": 100
    },
    {
      "time": 63.25,
      "note": 84,
      "duration": 0.5,
      "velocity": 100
    },
    {
      "time": 63.75,
      "note": 88,
      "duration": 0.125,
      "velocity": 100
    },
    {
      "time": 63.875,
      "note": 84,
      "duration": 0.125,
      "velocity": 100
    },
    {
      "time": 64.0,
      "note": 84,
      "duration": 0.25,
      "velocity": 100
    },
    {
      "time": 64.375,
      "note": 84,
      "duration": 0.125,
      "velocity": 100
    },
    {
      "time": 64.5,
      "note": 84,
      "duration": 0.125,
      "velocity": 100
    },
    {
      "time": 64.625,
      "note": 84,
      "duration": 0.125,
      "velocity": 100
    },
    {
      "time": 64.75,
      "note": 88,
      "duration": 0.125,
      "velocity": 100
    },
    {
      "time": 64.875,
      "note": 88,
      "duration": 0.125,
      "velocity": 100
    },
    {
      "time": 65.0,
      "note": 86,
      "duration": 0.125,
      "velocity": 100
    },
    {
      "time": 65.125,
      "note": 84,
      "duration": 0.125,
      "velocity": 100
    },
    {
      "time": 65.25,
      "note": 86,
      "duration": 1.0,
      "velocity": 100
    }
  ],
  "chords": [
    {
      "time": 0.0,
      "notes": [
        62,
        65,
        69
      ],
      "duration": 3.0113636363636362
    },
    {
      "time": 3.0113636363636362,
      "notes": [
        62,
        65,
        69
      ],
      "duration": 3.0113636363636362
    },
    {
      "time": 6.0227272727272725,
      "notes": [
        60,
        64,
        67
      ],
      "duration": 3.0113636363636362
    },
    {
      "time": 9.034090909090908,
      "notes": [
        62,
        65,
        69
      ],
      "duration": 3.0113636363636362
    },
    {
      "time": 12.045454545454545,
      "notes": [
        62,
        65,
        69
      ],
      "duration": 3.0113636363636362
    },
    {
      "time": 15.056818181818182,
      "notes": [
        60,
        64,
        67
      ],
      "duration": 3.0113636363636362
    },
    {
      "time": 18.068181818181817,
      "notes": [
        67,
        70,
        74
      ],
      "duration": 3.0113636363636362
    },
    {
      "time": 21.079545454545453,
      "notes": [
        62,
        65,
        69
      ],
      "duration": 3.0113636363636362
    },
    {
      "time": 24.09090909090909,
      "notes": [
        70,
        74,
        77
      ],
      "duration": 3.0113636363636362
    },
    {
      "time": 27.102272727272727,
      "notes": [
        60,
        64,
        67
      ],
      "duration": 3.0113636363636362
    },
    {
      "time": 30.113636363636363,
      "notes": [
        69,
        72,
        76
      ],
      "duration": 3.0113636363636362
    },
    {
      "time": 33.125,
      "notes": [
        62,
        65,
        69
      ],
      "duration": 3.0113636363636362
    },
    {
      "time": 36.13636363636363,
      "notes": [
        69,
        72,
        76
      ],
      "duration": 3.0113636363636362
    },
    {
      "time": 39.14772727272727,
      "notes": [
        60,
        64,
        67
      ],
      "duration": 3.0113636363636362
    },
    {
      "time": 42.15909090909091,
      "notes": [
        62,
        65,
        69
      ],
      "duration": 3.0113636363636362
    },
    {
      "time": 45.17045454545455,
      "notes": [
        62,
        65,
        69
      ],
      "duration": 3.0113636363636362
    },
    {
      "time": 48.18181818181818,
      "notes": [
        60,
        64,
        67
      ],
      "duration": 3.0113636363636362
    },
    {
      "time": 51.19318181818181,
      "notes": [
        62,
        65,
        69
      ],
      "duration": 3.0113636363636362
    },
    {
      "time": 54.20454545454545,
      "notes": [
        60,
        64,
        67
      ],
      "duration": 3.0113636363636362
    },
    {
      "time": 57.215909090909086,
      "notes": [
        62,
        65,
        69
      ],
      "duration": 3.0113636363636362
    },
    {
      "time": 60.22727272727273,
      "notes": [
        60,
        64,
        67
      ],
      "duration": 3.0113636363636362
    },
    {
      "time": 63.23863636363636,
      "notes": [
        62,
        65,
        69
      ],
      "duration": 3.0113636363636362
    }
  ]
}