{
  "title": "Todos los Domingos",
  "artist": "La Sonora Palacios",
  "bpm": 120,
  "duration": 29.0,
  "audioFile": "",
  "notes": [
    {
      "time": 0.0,
      "note": 74,
      "duration": 0.125,
      "velocity": 100
    },
    {
      "time": 0.125,
      "note": 74,
      "duration": 0.125,
      "velocity": 100
    },
    {
      "time": 0.25,
      "note": 77,
      "duration": 0.125,
      "velocity": 100
    },
    {
      "time": 0.375,
      "note": 77,
      "duration": 0.125,
      "velocity": 100
    },
    {
      "time": 0.5,
      "note": 77,
      "duration": 0.125,
      "velocity": 100
    },
    {
      "time": 0.625,
      "note": 77,
      "duration": 0.125,
      "velocity": 100
    },
    {
      "time": 0.75,
      "note": 81,
      "duration": 0.125,
      "velocity": 100
    },
    {
      "time": 0.875,
      "note": 81,
      "duration": 0.125,
      "velocity": 100
    },
    {
      "time": 1.0,
      "note": 81,
      "duration": 0.125,
      "velocity": 100
    },
    {
      "time": 1.125,
      "note": 81,
      "duration": 0.125,
      "velocity": 100
    },
    {
      "time": 1.25,
      "note": 86,
      "duration": 0.125,
      "velocity": 100
    },
    {
      "time": 1.375,
      "note": 81,
      "duration": 0.25,
      "velocity": 100
    },
    {
      "time": 1.625,
      "note": 77,
      "duration": 0.125,
      "velocity": 100
    },
    {
      "time": 1.75,
      "note": 81,
      "duration": 0.25,
      "velocity": 100
    },
    {
      "time": 2.0,
      "note": 81,
      "duration": 0.125,
      "velocity": 100
    },
    {
      "time": 2.125,
      "note": 81,
      "duration": 0.125,
      "velocity": 100
    },
    {
      "time": 2.25,
      "note": 81,
      "duration": 0.125,
      "velocity": 100
    },
    {
      "time": 2.375,
      "note": 79,
      "duration": 0.25,
      "velocity": 100
    },
    {
      "time": 2.625,
      "note": 76,
      "duration": 0.125,
      "velocity": 100
    },
    {
      "time": 2.25,
      "note": 82,
      "duration": 0.125,
      "velocity": 100
    },
    {
      "time": 2.375,
      "note": 81,
      "duration": 0.375,
      "velocity": 100
    },
    {
      "time": 3.0,
      "note": 74,
      "duration": 0.125,
      "velocity": 100
    },
    {
      "time": 3.125,
      "note": 74,
      "duration": 0.125,
      "velocity": 100
    },
    {
      "time": 3.25,
      "note": 77,
      "duration": 0.125,
      "velocity": 100
    },
    {
      "time": 3.375,
      "note": 77,
      "duration": 0.125,
      "velocity": 100
    },
    {
      "time": 3.5,
      "note": 77,
      "duration": 0.125,
      "velocity": 100
    },
    {
      "time": 3.625,
      "note": 77,
      "duration": 0.125,
      "velocity": 100
    },
    {
      "time": 3.75,
      "note": 81,
      "duration": 0.125,
      "velocity": 100
    },
    {
      "time": 3.875,
      "note": 81,
      "duration": 0.125,
      "velocity": 100
    },
    {
      "time": 4.0,
      "note": 81,
      "duration": 0.125,
      "velocity": 100
    },
    {
      "time": 4.125,
      "note": 81,
      "duration": 0.125,
      "velocity": 100
    },
    {
      "time": 4.25,
      "note": 86,
      "duration": 0.125,
      "velocity": 100
    },
    {
      "time": 4.375,
      "note": 81,
      "duration": 0.25,
      "velocity": 100
    },
    {
      "time": 4.625,
      "note": 77,
      "duration": 0.125,
      "velocity": 100
    },
    {
      "time": 4.75,
      "note": 81,
      "duration": 0.25,
      "velocity": 100
    },
    {
      "time": 5.0,
      "note": 81,
      "duration": 0.125,
      "velocity": 100
    },
    {
      "time": 5.125,
      "note": 81,
      "duration": 0.125,
      "velocity": 100
    },
    {
      "time": 5.25,
      "note": 81,
      "duration": 0.125,
      "velocity": 100
    },
    {
      "time": 5.375,
      "note": 79,
      "duration": 0.25,
      "velocity": 100
    },
    {
      "time": 5.625,
      "note": 76,
      "duration": 0.125,
      "velocity": 100
    },
    {
      "time": 5.75,
      "note": 82,
      "duration": 0.25,
      "velocity": 100
    },
    {
      "time": 6.0,
      "note": 82,
      "duration": 0.125,
      "velocity": 100
    },
    {
      "time": 6.125,
      "note": 82,
      "duration": 0.125,
      "velocity": 100
    },
    {
      "time": 6.25,
      "note": 82,
      "duration": 0.125,
      "velocity": 100
    },
    {
      "time": 6.375,
      "note": 81,
      "duration": 0.375,
      "velocity": 100
    },
    {
      "time": 7.0,
      "note": 84,
      "duration": 0.125,
      "velocity": 100
    },
    {
      "time": 7.125,
      "note": 84,
      "duration": 0.125,
      "velocity": 100
    },
    {
      "time": 7.5,
      "note": 84,
      "duration": 0.25,
      "velocity": 100
    },
    {
      "time": 7.75,
      "note": 79,
      "duration": 0.125,
      "velocity": 100
    },
    {
      "time": 7.875,
      "note": 79,
      "duration": 0.125,
      "velocity": 100
    },
    {
      "time": 8.0,
      "note": 79,
      "duration": 0.25,
      "velocity": 100
    },
    {
      "time": 8.25,
      "note": 86,
      "duration": 0.125,
      "velocity": 100
    },
    {
      "time": 8.375,
      "note": 86,
      "duration": 0.125,
      "velocity": 100
    },
    {
      "time": 8.5,
      "note": 86,
      "duration": 0.25,
      "velocity": 100
    },
    {
      "time": 8.75,
      "note": 81,
      "duration": 0.25,
      "velocity": 100
    },
    {
      "time": 9.0,
      "note": 81,
      "duration": 0.125,
      "velocity": 100
    },
    {
      "time": 9.25,
      "note": 84,
      "duration": 0.125,
      "velocity": 100
    },
    {
      "time": 9.375,
      "note": 84,
      "duration": 0.125,
      "velocity": 100
    },
    {
      "time": 9.5,
      "note": 84,
      "duration": 0.125,
      "velocity": 100
    },
    {
      "time": 9.625,
      "note": 84,
      "duration": 0.125,
      "velocity": 100
    },
    {
      "time": 9.75,
      "note": 79,
      "duration": 0.125,
      "velocity": 100
    },
    {
      "time": 9.875,
      "note": 79,
      "duration": 0.125,
      "velocity": 100
    },
    {
      "time": 10.0,
      "note": 79,
      "duration": 0.125,
      "velocity": 100
    },
    {
      "time": 10.125,
      "note": 79,
      "duration": 0.125,
      "velocity": 100
    },
    {
      "time": 10.25,
      "note": 86,
      "duration": 0.125,
      "velocity": 100
    },
    {
      "time": 10.375,
      "note": 86,
      "duration": 0.125,
      "velocity": 100
    },
    {
      "time": 10.5,
      "note": 86,
      "duration": 0.25,
      "velocity": 100
    },
    {
      "time": 10.75,
      "note": 81,
      "duration": 0.25,
      "velocity": 100
    },
    {
      "time": 11.25,
      "note": 81,
      "duration": 0.125,
      "velocity": 100
    },
    {
      "time": 11.375,
      "note": 81,
      "duration": 0.125,
      "velocity": 100
    },
    {
      "time": 11.5,
      "note": 84,
      "duration": 0.125,
      "velocity": 100
    },
    {
      "time": 11.625,
      "note": 84,
      "duration": 0.25,
      "velocity": 100
    },
    {
      "time": 11.875,
      "note": 84,
      "duration": 0.125,
      "velocity": 100
    },
    {
      "time": 12.0,
      "note": 84,
      "duration": 0.25,
      "velocity": 100
    },
    {
      "time": 12.25,
      "note": 84,
      "duration": 0.125,
      "velocity": 100
    },
    {
      "time": 12.375,
      "note": 86,
      "duration": 0.125,
      "velocity": 100
    },
    {
      "time": 12.5,
      "note": 86,
      "duration": 0.375,
      "velocity": 100
    },
    {
      "time": 12.875,
      "note": 81,
      "duration": 0.125,
      "velocity": 100
    },
    {
      "time": 13.0,
      "note": 86,
      "duration": 0.25,
      "velocity": 100
    },
    {
      "time": 13.25,
      "note": 81,
      "duration": 0.125,
      "velocity": 100
    },
    {
      "time": 13.375,
      "note": 81,
      "duration": 0.125,
      "velocity": 100
    },
    {
      "time": 13.5,
      "note": 81,
      "duration": 0.125,
      "velocity": 100
    },
    {
      "time": 13.625,
      "note": 79,
      "duration": 0.25,
      "velocity": 100
    },
    {
      "time": 13.875,
      "note": 76,
      "duration": 0.125,
      "velocity": 100
    },
    {
      "time": 14.0,
      "note": 81,
      "duration": 0.25,
      "velocity": 100
    },
    {
      "time": 14.25,
      "note": 77,
      "duration": 0.125,
      "velocity": 100
    },
    {
      "time": 14.375,
      "note": 74,
      "duration": 0.125,
      "velocity": 100
    },
    {
      "time": 14.5,
      "note": 74,
      "duration": 0.5,
      "velocity": 100
    },
    {
      "time": 15.25,
      "note": 81,
      "duration": 0.125,
      "velocity": 100
    },
    {
      "time": 15.375,
      "note": 81,
      "duration": 0.125,
      "velocity": 100
    },
    {
      "time": 15.75,
      "note": 84,
      "duration": 0.125,
      "velocity": 100
    },
    {
      "time": 15.875,
      "note": 84,
      "duration": 0.25,
      "velocity": 100
    },
    {
      "time": 16.125,
      "note": 84,
      "duration": 0.125,
      "velocity": 100
    },
    {
      "time": 16.25,
      "note": 84,
      "duration": 0.25,
      "velocity": 100
    },
    {
      "time": 16.5,
      "note": 84,
      "duration": 0.125,
      "velocity": 100
    },
    {
      "time": 16.625,
      "note": 86,
      "duration": 0.125,
      "velocity": 100
    },
    {
      "time": 16.75,
      "note": 86,
      "duration": 0.375,
      "velocity": 100
    },
    {
      "time": 17.125,
      "note": 81,
      "duration": 0.125,
      "velocity": 100
    },
    {
      "time": 17.25,
      "note": 86,
      "duration": 0.25,
      "velocity": 100
    },
    {
      "time": 17.5,
      "note": 81,
      "duration": 0.125,
      "velocity": 100
    },
    {
      "time": 17.625,
      "note": 81,
      "duration": 0.125,
      "velocity": 100
    },
    {
      "time": 17.75,
      "note": 81,
      "duration": 0.125,
      "velocity": 100
    },
    {
      "time": 17.875,
      "note": 79,
      "duration": 0.25,
      "velocity": 100
    },
    {
      "time": 18.125,
      "note": 76,
      "duration": 0.125,
      "velocity": 100
    },
    {
      "time": 18.25,
      "note": 81,
      "duration": 0.25,
      "velocity": 100
    },
    {
      "time": 18.5,
      "note": 77,
      "duration": 0.125,
      "velocity": 100
    },
    {
      "time": 18.625,
      "note": 74,
      "duration": 0.125,
      "velocity": 100
    },
    {
      "time": 18.75,
      "note": 74,
      "duration": 0.5,
      "velocity": 100
    },
    {
      "time": 19.25,
      "note": 81,
      "duration": 0.25,
      "velocity": 100
    },
    {
      "time": 19.5,
      "note": 77,
      "duration": 0.25,
      "velocity": 100
    },
    {
      "time": 20.0,
      "note": 74,
      "duration": 0.375,
      "velocity": 100
    },
    {
      "time": 20.375,
      "note": 81,
      "duration": 0.125,
      "velocity": 100
    },
    {
      "time": 20.5,
      "note": 86,
      "duration": 0.125,
      "velocity": 100
    },
    {
      "time": 20.625,
      "note": 86,
      "duration": 0.125,
      "velocity": 100
    },
    {
      "time": 20.75,
      "note": 86,
      "duration": 0.125,
      "velocity": 100
    },
    {
      "time": 20.875,
      "note": 86,
      "duration": 0.125,
      "velocity": 100
    },
    {
      "time": 21.0,
      "note": 86,
      "duration": 0.125,
      "velocity": 100
    },
    {
      "time": 21.125,
      "note": 86,
      "duration": 0.125,
      "velocity": 100
    },
    {
      "time": 21.25,
      "note": 81,
      "duration": 0.125,
      "velocity": 100
    },
    {
      "time": 21.375,
      "note": 81,
      "duration": 0.125,
      "velocity": 100
    },
    {
      "time": 21.5,
      "note": 86,
      "duration": 0.25,
      "velocity": 100
    },
    {
      "time": 21.75,
      "note": 81,
      "duration": 0.125,
      "velocity": 100
    },
    {
      "time": 21.875,
      "note": 81,
      "duration": 0.125,
      "velocity": 100
    },
    {
      "time": 22.0,
      "note": 81,
      "duration": 0.125,
      "velocity": 100
    },
    {
      "time": 22.125,
      "note": 79,
      "duration": 0.375,
      "velocity": 100
    },
    {
      "time": 22.5,
      "note": 84,
      "duration": 0.125,
      "velocity": 100
    },
    {
      "time": 22.625,
      "note": 84,
      "duration": 0.125,
      "velocity": 100
    },
    {
      "time": 22.75,
      "note": 84,
      "duration": 0.125,
      "velocity": 100
    },
    {
      "time": 22.875,
      "note": 84,
      "duration": 0.125,
      "velocity": 100
    },
    {
      "time": 23.0,
      "note": 84,
      "duration": 0.25,
      "velocity": 100
    },
    {
      "time": 23.25,
      "note": 81,
      "duration": 0.125,
      "velocity": 100
    },
    {
      "time": 23.375,
      "note": 86,
      "duration": 0.125,
      "velocity": 100
    },
    {
      "time": 23.5,
      "note": 86,
      "duration": 0.125,
      "velocity": 100
    },
    {
      "time": 23.625,
      "note": 86,
      "duration": 0.125,
      "velocity": 100
    },
    {
      "time": 23.75,
      "note": 86,
      "duration": 0.125,
      "velocity": 100
    },
    {
      "time": 23.875,
      "note": 86,
      "duration": 0.125,
      "velocity": 100
    },
    {
      "time": 24.0,
      "note": 86,
      "duration": 0.25,
      "velocity": 100
    },
    {
      "time": 24.25,
      "note": 81,
      "duration": 0.125,
      "velocity": 100
    },
    {
      "time": 24.375,
      "note": 81,
      "duration": 0.125,
      "velocity": 100
    },
    {
      "time": 24.5,
      "note": 86,
      "duration": 0.125,
      "velocity": 100
    },
    {
      "time": 24.625,
      "note": 86,
      "duration": 0.125,
      "velocity": 100
    },
    {
      "time": 24.75,
      "note": 86,
      "duration": 0.125,
      "velocity": 100
    },
    {
      "time": 24.875,
      "note": 86,
      "duration": 0.125,
      "velocity": 100
    },
    {
      "time": 25.0,
      "note": 86,
      "duration": 0.125,
      "velocity": 100
    },
    {
      "time": 25.125,
      "note": 86,
      "duration": 0.125,
      "velocity": 100
    },
    {
      "time": 25.25,
      "note": 81,
      "duration": 0.125,
      "velocity": 100
    },
    {
      "time": 25.375,
      "note": 81,
      "duration": 0.125,
      "velocity": 100
    },
    {
      "time": 25.5,
      "note": 86,
      "duration": 0.25,
      "velocity": 100
    },
    {
      "time": 25.75,
      "note": 81,
      "duration": 0.125,
      "velocity": 100
    },
    {
      "time": 25.875,
      "note": 81,
      "duration": 0.125,
      "velocity": 100
    },
    {
      "time": 26.0,
      "note": 81,
      "duration": 0.125,
      "velocity": 100
    },
    {
      "time": 26.125,
      "note": 79,
      "duration": 0.25,
      "velocity": 100
    },
    {
      "time": 26.375,
      "note": 84,
      "duration": 0.125,
      "velocity": 100
    },
    {
      "time": 26.5,
      "note": 84,
      "duration": 0.125,
      "velocity": 100
    },
    {
      "time": 26.625,
      "note": 84,
      "duration": 0.125,
      "velocity": 100
    },
    {
      "time": 26.75,
      "note": 84,
      "duration": 0.125,
      "velocity": 100
    },
    {
      "time": 26.875,
      "note": 84,
      "duration": 0.125,
      "velocity": 100
    },
    {
      "time": 27.0,
      "note": 84,
      "duration": 0.25,
      "velocity": 100
    },
    {
      "time": 27.25,
      "note": 81,
      "duration": 0.125,
      "velocity": 100
    },
    {
      "time": 27.375,
      "note": 86,
      "duration": 0.125,
      "velocity": 100
    },
    {
      "time": 27.5,
      "note": 86,
      "duration": 0.125,
      "velocity": 100
    },
    {
      "time": 27.625,
      "note": 86,
      "duration": 0.125,
      "velocity": 100
    },
    {
      "time": 27.75,
      "note": 86,
      "duration": 0.125,
      "velocity": 100
    },
    {
      "time": 27.875,
      "note": 86,
      "duration": 0.125,
      "velocity": 100
    },
    {
      "time": 28.0,
      "note": 86,
      "duration": 0.25,
      "velocity": 100
    },
    {
      "time": 28.25,
      "note": 81,
      "duration": 0.25,
      "velocity": 100
    },
    {
      "time": 28.5,
      "note": 86,
      "duration": 0.125,
      "velocity": 100
    },
    {
      "time": 28.625,
      "note": 86,
      "duration": 0.125,
      "velocity": 100
    },
    {
      "time": 28.75,
      "note": 86,
      "duration": 0.125,
      "velocity": 100
    },
    {
      "time": 28.875,
      "note": 86,
      "duration": 0.125,
      "velocity": 100
    }
  ],
  "chords": [
    {
      "time": 0.0,
      "notes": [
        62,
        65,
        69
      ],
      "duration": 1.45
    },
    {
      "time": 1.45,
      "notes": [
        69,
        73,
        76,
        79
      ],
      "duration": 1.45
    },
    {
      "time": 2.9,
      "notes": [
        62,
        65,
        69
      ],
      "duration": 1.45
    },
    {
      "time": 4.35,
      "notes": [
        69,
        73,
        76,
        79
      ],
      "duration": 1.45
    },
    {
      "time": 5.8,
      "notes": [
        60,
        64,
        67
      ],
      "duration": 1.45
    },
    {
      "time": 7.25,
      "notes": [
        62,
        65,
        69
      ],
      "duration": 1.45
    },
    {
      "time": 8.7,
      "notes": [
        60,
        64,
        67
      ],
      "duration": 1.45
    },
    {
      "time": 10.15,
      "notes": [
        62,
        65,
        69
      ],
      "duration": 1.45
    },
    {
      "time": 11.6,
      "notes": [
        69,
        73,
        76
      ],
      "duration": 1.45
    },
    {
      "time": 13.049999999999999,
      "notes": [
        62,
        65,
        69
      ],
      "duration": 1.45
    },
    {
      "time": 14.5,
      "notes": [
        69,
        73,
        76,
        79
      ],
      "duration": 1.45
    },
    {
      "time": 15.95,
      "notes": [
        62,
        65,
        69
      ],
      "duration": 1.45
    },
    {
      "time": 17.4,
      "notes": [
        69,
        73,
        76
      ],
      "duration": 1.45
    },
    {
      "time": 18.849999999999998,
      "notes": [
        62,
        65,
        69
      ],
      "duration": 1.45
    },
    {
      "time": 20.3,
      "notes": [
        69,
        73,
        76,
        79
      ],
      "duration": 1.45
    },
    {
      "time": 21.75,
      "notes": [
        62,
        65,
        69
      ],
      "duration": 1.45
    },
    {
      "time": 23.2,
      "notes": [
        69,
        73,
        76
      ],
      "duration": 1.45
    },
    {
      "time": 24.65,
      "notes": [
        62,
        65,
        69
      ],
      "duration": 1.45
    },
    {
      "time": 26.099999999999998,
      "notes": [
        69,
        73,
        76
      ],
      "duration": 1.45
    },
    {
      "time": 27.55,
      "notes": [
        62,
        65,
        69
      ],
      "duration": 1.45
    }
  ]
}