{
  "title": "Andrea",
  "artist": "Pibes Chorros",
  "bpm": 120,
  "duration": 27.5,
  "audioFile": "",
  "notes": [
    {
      "time": 0.0,
      "note": 72,
      "duration": 0.25,
      "velocity": 100
    },
    {
      "time": 0.25,
      "note": 72,
      "duration": 0.25,
      "velocity": 100
    },
    {
      "time": 0.5,
      "note": 67,
      "duration": 0.25,
      "velocity": 100
    },
    {
      "time": 0.75,
      "note": 67,
      "duration": 0.25,
      "velocity": 100
    },
    {
      "time": 1.0,
      "note": 72,
      "duration": 0.25,
      "velocity": 100
    },
    {
      "time": 1.25,
      "note": 72,
      "duration": 0.25,
      "velocity": 100
    },
    {
      "time": 1.5,
      "note": 75,
      "duration": 0.125,
      "velocity": 100
    },
    {
      "time": 1.625,
      "note": 79,
      "duration": 0.125,
      "velocity": 100
    },
    {
      "time": 1.75,
      "note": 75,
      "duration": 0.125,
      "velocity": 100
    },
    {
      "time": 1.875,
      "note": 74,
      "duration": 0.125,
      "velocity": 100
    },
    {
      "time": 2.0,
      "note": 72,
      "duration": 0.25,
      "velocity": 100
    },
    {
      "time": 2.25,
      "note": 72,
      "duration": 0.25,
      "velocity": 100
    },
    {
      "time": 2.5,
      "note": 67,
      "duration": 0.25,
      "velocity": 100
    },
    {
      "time": 2.75,
      "note": 67,
      "duration": 0.25,
      "velocity": 100
    },
    {
      "time": 3.0,
      "note": 72,
      "duration": 0.25,
      "velocity": 100
    },
    {
      "time": 3.25,
      "note": 72,
      "duration": 0.25,
      "velocity": 100
    },
    {
      "time": 3.5,
      "note": 75,
      "duration": 0.125,
      "velocity": 100
    },
    {
      "time": 3.625,
      "note": 79,
      "duration": 0.125,
      "velocity": 100
    },
    {
      "time": 3.75,
      "note": 75,
      "duration": 0.125,
      "velocity": 100
    },
    {
      "time": 3.875,
      "note": 74,
      "duration": 0.125,
      "velocity": 100
    },
    {
      "time": 4.0,
      "note": 77,
      "duration": 1.0,
      "velocity": 100
    },
    {
      "time": 5.0,
      "note": 87,
      "duration": 1.0,
      "velocity": 100
    },
    {
      "time": 4.0,
      "note": 79,
      "duration": 0.25,
      "velocity": 100
    },
    {
      "time": 4.25,
      "note": 79,
      "duration": 0.25,
      "velocity": 100
    },
    {
      "time": 4.5,
      "note": 72,
      "duration": 0.25,
      "velocity": 100
    },
    {
      "time": 4.75,
      "note": 72,
      "duration": 0.25,
      "velocity": 100
    },
    {
      "time": 5.0,
      "note": 67,
      "duration": 0.125,
      "velocity": 100
    },
    {
      "time": 5.125,
      "note": 67,
      "duration": 0.125,
      "velocity": 100
    },
    {
      "time": 5.25,
      "note": 67,
      "duration": 0.25,
      "velocity": 100
    },
    {
      "time": 5.5,
      "note": 72,
      "duration": 0.125,
      "velocity": 100
    },
    {
      "time": 5.625,
      "note": 72,
      "duration": 0.125,
      "velocity": 100
    },
    {
      "time": 5.75,
      "note": 72,
      "duration": 0.125,
      "velocity": 100
    },
    {
      "time": 5.875,
      "note": 75,
      "duration": 0.125,
      "velocity": 100
    },
    {
      "time": 6.0,
      "note": 79,
      "duration": 0.375,
      "velocity": 100
    },
    {
      "time": 6.375,
      "note": 74,
      "duration": 0.125,
      "velocity": 100
    },
    {
      "time": 6.5,
      "note": 72,
      "duration": 0.25,
      "velocity": 100
    },
    {
      "time": 6.75,
      "note": 72,
      "duration": 0.25,
      "velocity": 100
    },
    {
      "time": 7.25,
      "note": 81,
      "duration": 2.0,
      "velocity": 100
    },
    {
      "time": 7.25,
      "note": 84,
      "duration": 0.25,
      "velocity": 100
    },
    {
      "time": 7.5,
      "note": 84,
      "duration": 0.25,
      "velocity": 100
    },
    {
      "time": 7.625,
      "note": 79,
      "duration": 0.5,
      "velocity": 100
    },
    {
      "time": 7.75,
      "note": 75,
      "duration": 0.125,
      "velocity": 100
    },
    {
      "time": 7.875,
      "note": 79,
      "duration": 0.125,
      "velocity": 100
    },
    {
      "time": 8.0,
      "note": 75,
      "duration": 0.125,
      "velocity": 100
    },
    {
      "time": 8.125,
      "note": 74,
      "duration": 0.125,
      "velocity": 100
    },
    {
      "time": 8.625,
      "note": 84,
      "duration": 0.125,
      "velocity": 100
    },
    {
      "time": 8.75,
      "note": 87,
      "duration": 0.125,
      "velocity": 100
    },
    {
      "time": 8.875,
      "note": 87,
      "duration": 0.125,
      "velocity": 100
    },
    {
      "time": 9.0,
      "note": 84,
      "duration": 0.125,
      "velocity": 100
    },
    {
      "time": 9.125,
      "note": 84,
      "duration": 0.125,
      "velocity": 100
    },
    {
      "time": 9.25,
      "note": 79,
      "duration": 0.25,
      "velocity": 100
    },
    {
      "time": 9.5,
      "note": 79,
      "duration": 0.25,
      "velocity": 100
    },
    {
      "time": 9.75,
      "note": 77,
      "duration": 0.25,
      "velocity": 100
    },
    {
      "time": 10.0,
      "note": 74,
      "duration": 0.125,
      "velocity": 100
    },
    {
      "time": 10.125,
      "note": 71,
      "duration": 0.125,
      "velocity": 100
    },
    {
      "time": 10.75,
      "note": 91,
      "duration": 0.25,
      "velocity": 100
    },
    {
      "time": 11.0,
      "note": 86,
      "duration": 0.25,
      "velocity": 100
    },
    {
      "time": 10.25,
      "note": 67,
      "duration": 1.0,
      "velocity": 100
    },
    {
      "time": 11.25,
      "note": 83,
      "duration": 0.25,
      "velocity": 100
    },
    {
      "time": 11.5,
      "note": 83,
      "duration": 0.25,
      "velocity": 100
    },
    {
      "time": 11.625,
      "note": 77,
      "duration": 0.125,
      "velocity": 100
    },
    {
      "time": 11.75,
      "note": 74,
      "duration": 0.125,
      "velocity": 100
    },
    {
      "time": 11.875,
      "note": 77,
      "duration": 0.125,
      "velocity": 100
    },
    {
      "time": 12.0,
      "note": 74,
      "duration": 0.125,
      "velocity": 100
    },
    {
      "time": 12.125,
      "note": 71,
      "duration": 0.125,
      "velocity": 100
    },
    {
      "time": 12.625,
      "note": 86,
      "duration": 0.125,
      "velocity": 100
    },
    {
      "time": 12.75,
      "note": 89,
      "duration": 0.25,
      "velocity": 100
    },
    {
      "time": 13.0,
      "note": 89,
      "duration": 0.125,
      "velocity": 100
    },
    {
      "time": 13.125,
      "note": 91,
      "duration": 0.125,
      "velocity": 100
    },
    {
      "time": 12.25,
      "note": 67,
      "duration": 0.5,
      "velocity": 100
    },
    {
      "time": 12.75,
      "note": 84,
      "duration": 0.5,
      "velocity": 100
    },
    {
      "time": 13.25,
      "note": 79,
      "duration": 0.25,
      "velocity": 100
    },
    {
      "time": 13.5,
      "note": 75,
      "duration": 0.125,
      "velocity": 100
    },
    {
      "time": 13.625,
      "note": 74,
      "duration": 0.125,
      "velocity": 100
    },
    {
      "time": 14.0,
      "note": 72,
      "duration": 0.25,
      "velocity": 100
    },
    {
      "time": 14.25,
      "note": 84,
      "duration": 0.125,
      "velocity": 100
    },
    {
      "time": 14.0,
      "note": 91,
      "duration": 0.375,
      "velocity": 100
    },
    {
      "time": 14.375,
      "note": 91,
      "duration": 0.125,
      "velocity": 100
    },
    {
      "time": 14.5,
      "note": 91,
      "duration": 0.5,
      "velocity": 100
    },
    {
      "time": 15.25,
      "note": 86,
      "duration": 0.125,
      "velocity": 100
    },
    {
      "time": 15.375,
      "note": 87,
      "duration": 0.125,
      "velocity": 100
    },
    {
      "time": 15.5,
      "note": 89,
      "duration": 0.25,
      "velocity": 100
    },
    {
      "time": 15.75,
      "note": 89,
      "duration": 0.125,
      "velocity": 100
    },
    {
      "time": 15.875,
      "note": 91,
      "duration": 0.125,
      "velocity": 100
    },
    {
      "time": 16.0,
      "note": 84,
      "duration": 0.25,
      "velocity": 100
    },
    {
      "time": 16.25,
      "note": 84,
      "duration": 0.25,
      "velocity": 100
    },
    {
      "time": 17.375,
      "note": 84,
      "duration": 0.125,
      "velocity": 100
    },
    {
      "time": 17.5,
      "note": 87,
      "duration": 0.25,
      "velocity": 100
    },
    {
      "time": 17.75,
      "note": 84,
      "duration": 0.125,
      "velocity": 100
    },
    {
      "time": 17.875,
      "note": 87,
      "duration": 0.125,
      "velocity": 100
    },
    {
      "time": 17.0,
      "note": 79,
      "duration": 0.125,
      "velocity": 100
    },
    {
      "time": 17.125,
      "note": 81,
      "duration": 0.125,
      "velocity": 100
    },
    {
      "time": 17.25,
      "note": 79,
      "duration": 0.125,
      "velocity": 100
    },
    {
      "time": 17.375,
      "note": 77,
      "duration": 0.125,
      "velocity": 100
    },
    {
      "time": 17.5,
      "note": 91,
      "duration": 0.25,
      "velocity": 100
    },
    {
      "time": 17.75,
      "note": 89,
      "duration": 0.125,
      "velocity": 100
    },
    {
      "time": 17.875,
      "note": 91,
      "duration": 0.125,
      "velocity": 100
    },
    {
      "time": 18.0,
      "note": 91,
      "duration": 0.5,
      "velocity": 100
    },
    {
      "time": 18.75,
      "note": 86,
      "duration": 0.125,
      "velocity": 100
    },
    {
      "time": 18.875,
      "note": 87,
      "duration": 0.125,
      "velocity": 100
    },
    {
      "time": 19.0,
      "note": 89,
      "duration": 0.25,
      "velocity": 100
    },
    {
      "time": 19.25,
      "note": 89,
      "duration": 0.125,
      "velocity": 100
    },
    {
      "time": 19.375,
      "note": 91,
      "duration": 0.125,
      "velocity": 100
    },
    {
      "time": 19.5,
      "note": 84,
      "duration": 0.5,
      "velocity": 100
    },
    {
      "time": 20.5,
      "note": 81,
      "duration": 2.0,
      "velocity": 100
    },
    {
      "time": 20.5,
      "note": 79,
      "duration": 0.375,
      "velocity": 100
    },
    {
      "time": 20.875,
      "note": 77,
      "duration": 0.125,
      "velocity": 100
    },
    {
      "time": 21.0,
      "note": 79,
      "duration": 0.375,
      "velocity": 100
    },
    {
      "time": 21.375,
      "note": 77,
      "duration": 0.125,
      "velocity": 100
    },
    {
      "time": 21.5,
      "note": 79,
      "duration": 0.25,
      "velocity": 100
    },
    {
      "time": 21.75,
      "note": 83,
      "duration": 0.125,
      "velocity": 100
    },
    {
      "time": 21.875,
      "note": 83,
      "duration": 0.125,
      "velocity": 100
    },
    {
      "time": 22.0,
      "note": 86,
      "duration": 0.25,
      "velocity": 100
    },
    {
      "time": 22.25,
      "note": 84,
      "duration": 0.125,
      "velocity": 100
    },
    {
      "time": 22.375,
      "note": 83,
      "duration": 0.125,
      "velocity": 100
    },
    {
      "time": 22.5,
      "note": 86,
      "duration": 0.375,
      "velocity": 100
    },
    {
      "time": 22.875,
      "note": 84,
      "duration": 0.125,
      "velocity": 100
    },
    {
      "time": 23.0,
      "note": 84,
      "duration": 0.5,
      "velocity": 100
    },
    {
      "time": 23.75,
      "note": 84,
      "duration": 0.125,
      "velocity": 100
    },
    {
      "time": 23.875,
      "note": 84,
      "duration": 0.125,
      "velocity": 100
    },
    {
      "time": 24.0,
      "note": 87,
      "duration": 0.25,
      "velocity": 100
    },
    {
      "time": 24.25,
      "note": 79,
      "duration": 0.125,
      "velocity": 100
    },
    {
      "time": 24.375,
      "note": 79,
      "duration": 0.125,
      "velocity": 100
    },
    {
      "time": 24.5,
      "note": 79,
      "duration": 0.375,
      "velocity": 100
    },
    {
      "time": 24.875,
      "note": 77,
      "duration": 0.125,
      "velocity": 100
    },
    {
      "time": 25.0,
      "note": 79,
      "duration": 0.375,
      "velocity": 100
    },
    {
      "time": 25.375,
      "note": 77,
      "duration": 0.125,
      "velocity": 100
    },
    {
      "time": 25.5,
      "note": 79,
      "duration": 0.125,
      "velocity": 100
    },
    {
      "time": 25.625,
      "note": 83,
      "duration": 0.125,
      "velocity": 100
    },
    {
      "time": 25.75,
      "note": 83,
      "duration": 0.125,
      "velocity": 100
    },
    {
      "time": 25.875,
      "note": 83,
      "duration": 0.125,
      "velocity": 100
    },
    {
      "time": 26.0,
      "note": 86,
      "duration": 0.125,
      "velocity": 100
    },
    {
      "time": 26.125,
      "note": 86,
      "duration": 0.125,
      "velocity": 100
    },
    {
      "time": 26.25,
      "note": 84,
      "duration": 0.125,
      "velocity": 100
    },
    {
      "time": 26.375,
      "note": 83,
      "duration": 0.125,
      "velocity": 100
    },
    {
      "time": 26.5,
      "note": 84,
      "duration": 1.0,
      "velocity": 100
    }
  ],
  "chords": [
    {
      "time": 0.0,
      "notes": [
        60,
        63,
        67
      ],
      "duration": 2.2916666666666665
    },
    {
      "time": 2.2916666666666665,
      "notes": [
        60,
        63,
        67
      ],
      "duration": 2.2916666666666665
    },
    {
      "time": 4.583333333333333,
      "notes": [
        67,
        71,
        74
      ],
      "duration": 2.2916666666666665
    },
    {
      "time": 6.875,
      "notes": [
        60,
        63,
        67
      ],
      "duration": 2.2916666666666665
    },
    {
      "time": 9.166666666666666,
      "notes": [
        67,
        71,
        74
      ],
      "duration": 2.2916666666666665
    },
    {
      "time": 11.458333333333332,
      "notes": [
        60,
        63,
        67
      ],
      "duration": 2.2916666666666665
    },
    {
      "time": 13.75,
      "notes": [
        67,
        71,
        74
      ],
      "duration": 2.2916666666666665
    },
    {
      "time": 16.041666666666664,
      "notes": [
        60,
        63,
        67
      ],
      "duration": 2.2916666666666665
    },
    {
      "time": 18.333333333333332,
      "notes": [
        67,
        71,
        74
      ],
      "duration": 2.2916666666666665
    },
    {
      "time": 20.625,
      "notes": [
        60,
        63,
        67
      ],
      "duration": 2.2916666666666665
    },
    {
      "time": 22.916666666666664,
      "notes": [
        67,
        71,
        74
      ],
      "duration": 2.2916666666666665
    },
    {
      "time": 25.208333333333332,
      "notes": [
        60,
        63,
        67
      ],
      "duration": 2.2916666666666665
    }
  ]
}