{
  "title": "Te vas",
  "artist": "arr. Americo",
  "bpm": 120,
  "duration": 51.875,
  "audioFile": "",
  "notes": [
    {
      "time": 0.0,
      "note": 84,
      "duration": 0.125,
      "velocity": 100
    },
    {
      "time": 0.125,
      "note": 84,
      "duration": 0.125,
      "velocity": 100
    },
    {
      "time": 0.25,
      "note": 84,
      "duration": 0.125,
      "velocity": 100
    },
    {
      "time": 0.375,
      "note": 84,
      "duration": 0.125,
      "velocity": 100
    },
    {
      "time": 0.5,
      "note": 83,
      "duration": 0.25,
      "velocity": 100
    },
    {
      "time": 0.75,
      "note": 81,
      "duration": 0.25,
      "velocity": 100
    },
    {
      "time": 1.0,
      "note": 84,
      "duration": 0.5,
      "velocity": 100
    },
    {
      "time": 1.125,
      "note": 77,
      "duration": 0.125,
      "velocity": 100
    },
    {
      "time": 1.25,
      "note": 81,
      "duration": 0.125,
      "velocity": 100
    },
    {
      "time": 1.375,
      "note": 83,
      "duration": 0.125,
      "velocity": 100
    },
    {
      "time": 1.5,
      "note": 84,
      "duration": 0.5,
      "velocity": 100
    },
    {
      "time": 2.0,
      "note": 84,
      "duration": 0.125,
      "velocity": 100
    },
    {
      "time": 2.125,
      "note": 84,
      "duration": 0.125,
      "velocity": 100
    },
    {
      "time": 2.25,
      "note": 84,
      "duration": 0.125,
      "velocity": 100
    },
    {
      "time": 2.375,
      "note": 84,
      "duration": 0.125,
      "velocity": 100
    },
    {
      "time": 2.5,
      "note": 83,
      "duration": 0.25,
      "velocity": 100
    },
    {
      "time": 2.75,
      "note": 81,
      "duration": 0.25,
      "velocity": 100
    },
    {
      "time": 3.0,
      "note": 84,
      "duration": 0.5,
      "velocity": 100
    },
    {
      "time": 3.125,
      "note": 77,
      "duration": 0.125,
      "velocity": 100
    },
    {
      "time": 3.25,
      "note": 81,
      "duration": 0.125,
      "velocity": 100
    },
    {
      "time": 3.375,
      "note": 83,
      "duration": 0.125,
      "velocity": 100
    },
    {
      "time": 3.5,
      "note": 84,
      "duration": 0.5,
      "velocity": 100
    },
    {
      "time": 4.0,
      "note": 84,
      "duration": 0.125,
      "velocity": 100
    },
    {
      "time": 4.125,
      "note": 84,
      "duration": 0.125,
      "velocity": 100
    },
    {
      "time": 4.25,
      "note": 84,
      "duration": 0.125,
      "velocity": 100
    },
    {
      "time": 4.375,
      "note": 84,
      "duration": 0.125,
      "velocity": 100
    },
    {
      "time": 4.5,
      "note": 83,
      "duration": 0.25,
      "velocity": 100
    },
    {
      "time": 4.75,
      "note": 81,
      "duration": 0.25,
      "velocity": 100
    },
    {
      "time": 5.0,
      "note": 83,
      "duration": 0.5,
      "velocity": 100
    },
    {
      "time": 5.125,
      "note": 76,
      "duration": 0.125,
      "velocity": 100
    },
    {
      "time": 5.25,
      "note": 79,
      "duration": 0.125,
      "velocity": 100
    },
    {
      "time": 5.375,
      "note": 81,
      "duration": 0.125,
      "velocity": 100
    },
    {
      "time": 5.5,
      "note": 83,
      "duration": 0.5,
      "velocity": 100
    },
    {
      "time": 6.0,
      "note": 82,
      "duration": 0.125,
      "velocity": 100
    },
    {
      "time": 6.125,
      "note": 82,
      "duration": 0.125,
      "velocity": 100
    },
    {
      "time": 6.25,
      "note": 82,
      "duration": 0.125,
      "velocity": 100
    },
    {
      "time": 6.375,
      "note": 82,
      "duration": 0.125,
      "velocity": 100
    },
    {
      "time": 6.5,
      "note": 81,
      "duration": 0.25,
      "velocity": 100
    },
    {
      "time": 6.75,
      "note": 79,
      "duration": 0.25,
      "velocity": 100
    },
    {
      "time": 6.0,
      "note": 84,
      "duration": 0.125,
      "velocity": 100
    },
    {
      "time": 6.125,
      "note": 84,
      "duration": 0.125,
      "velocity": 100
    },
    {
      "time": 6.25,
      "note": 84,
      "duration": 0.125,
      "velocity": 100
    },
    {
      "time": 6.375,
      "note": 84,
      "duration": 0.125,
      "velocity": 100
    },
    {
      "time": 6.5,
      "note": 82,
      "duration": 0.25,
      "velocity": 100
    },
    {
      "time": 6.75,
      "note": 81,
      "duration": 0.25,
      "velocity": 100
    },
    {
      "time": 7.0,
      "note": 84,
      "duration": 0.125,
      "velocity": 100
    },
    {
      "time": 7.125,
      "note": 84,
      "duration": 0.125,
      "velocity": 100
    },
    {
      "time": 7.25,
      "note": 84,
      "duration": 0.125,
      "velocity": 100
    },
    {
      "time": 7.375,
      "note": 84,
      "duration": 0.125,
      "velocity": 100
    },
    {
      "time": 7.5,
      "note": 74,
      "duration": 0.5,
      "velocity": 100
    },
    {
      "time": 8.0,
      "note": 82,
      "duration": 0.5,
      "velocity": 100
    },
    {
      "time": 7.125,
      "note": 72,
      "duration": 0.25,
      "velocity": 100
    },
    {
      "time": 7.375,
      "note": 76,
      "duration": 0.25,
      "velocity": 100
    },
    {
      "time": 7.375,
      "note": 72,
      "duration": 0.125,
      "velocity": 100
    },
    {
      "time": 7.5,
      "note": 76,
      "duration": 0.125,
      "velocity": 100
    },
    {
      "time": 7.5,
      "note": 71,
      "duration": 0.25,
      "velocity": 100
    },
    {
      "time": 7.75,
      "note": 74,
      "duration": 0.25,
      "velocity": 100
    },
    {
      "time": 7.75,
      "note": 69,
      "duration": 0.25,
      "velocity": 100
    },
    {
      "time": 8.0,
      "note": 72,
      "duration": 0.25,
      "velocity": 100
    },
    {
      "time": 8.0,
      "note": 69,
      "duration": 0.25,
      "velocity": 100
    },
    {
      "time": 8.25,
      "note": 72,
      "duration": 0.25,
      "velocity": 100
    },
    {
      "time": 8.25,
      "note": 67,
      "duration": 0.25,
      "velocity": 100
    },
    {
      "time": 8.5,
      "note": 71,
      "duration": 0.25,
      "velocity": 100
    },
    {
      "time": 8.75,
      "note": 67,
      "duration": 0.125,
      "velocity": 100
    },
    {
      "time": 8.875,
      "note": 71,
      "duration": 0.125,
      "velocity": 100
    },
    {
      "time": 8.875,
      "note": 71,
      "duration": 0.125,
      "velocity": 100
    },
    {
      "time": 9.0,
      "note": 74,
      "duration": 0.125,
      "velocity": 100
    },
    {
      "time": 9.125,
      "note": 71,
      "duration": 0.25,
      "velocity": 100
    },
    {
      "time": 9.375,
      "note": 74,
      "duration": 0.25,
      "velocity": 100
    },
    {
      "time": 9.375,
      "note": 71,
      "duration": 0.125,
      "velocity": 100
    },
    {
      "time": 9.5,
      "note": 74,
      "duration": 0.125,
      "velocity": 100
    },
    {
      "time": 9.5,
      "note": 69,
      "duration": 0.25,
      "velocity": 100
    },
    {
      "time": 9.75,
      "note": 72,
      "duration": 0.25,
      "velocity": 100
    },
    {
      "time": 9.75,
      "note": 67,
      "duration": 0.25,
      "velocity": 100
    },
    {
      "time": 10.0,
      "note": 71,
      "duration": 0.25,
      "velocity": 100
    },
    {
      "time": 10.0,
      "note": 71,
      "duration": 0.25,
      "velocity": 100
    },
    {
      "time": 10.25,
      "note": 74,
      "duration": 0.25,
      "velocity": 100
    },
    {
      "time": 10.25,
      "note": 69,
      "duration": 0.25,
      "velocity": 100
    },
    {
      "time": 10.5,
      "note": 72,
      "duration": 0.25,
      "velocity": 100
    },
    {
      "time": 10.5,
      "note": 69,
      "duration": 0.25,
      "velocity": 100
    },
    {
      "time": 10.75,
      "note": 72,
      "duration": 0.25,
      "velocity": 100
    },
    {
      "time": 10.75,
      "note": 71,
      "duration": 0.125,
      "velocity": 100
    },
    {
      "time": 10.875,
      "note": 74,
      "duration": 0.125,
      "velocity": 100
    },
    {
      "time": 10.875,
      "note": 72,
      "duration": 0.125,
      "velocity": 100
    },
    {
      "time": 11.0,
      "note": 76,
      "duration": 0.125,
      "velocity": 100
    },
    {
      "time": 11.0,
      "note": 72,
      "duration": 1.0,
      "velocity": 100
    },
    {
      "time": 12.0,
      "note": 76,
      "duration": 1.0,
      "velocity": 100
    },
    {
      "time": 12.0,
      "note": 84,
      "duration": 0.125,
      "velocity": 100
    },
    {
      "time": 12.125,
      "note": 84,
      "duration": 0.125,
      "velocity": 100
    },
    {
      "time": 12.25,
      "note": 84,
      "duration": 0.125,
      "velocity": 100
    },
    {
      "time": 12.375,
      "note": 84,
      "duration": 0.125,
      "velocity": 100
    },
    {
      "time": 12.5,
      "note": 83,
      "duration": 0.25,
      "velocity": 100
    },
    {
      "time": 12.75,
      "note": 81,
      "duration": 0.25,
      "velocity": 100
    },
    {
      "time": 13.5,
      "note": 81,
      "duration": 0.25,
      "velocity": 100
    },
    {
      "time": 13.75,
      "note": 81,
      "duration": 0.25,
      "velocity": 100
    },
    {
      "time": 13.0,
      "note": 84,
      "duration": 0.5,
      "velocity": 100
    },
    {
      "time": 13.5,
      "note": 83,
      "duration": 0.5,
      "velocity": 100
    },
    {
      "time": 14.0,
      "note": 81,
      "duration": 0.5,
      "velocity": 100
    },
    {
      "time": 14.5,
      "note": 81,
      "duration": 0.125,
      "velocity": 100
    },
    {
      "time": 14.625,
      "note": 79,
      "duration": 0.25,
      "velocity": 100
    },
    {
      "time": 14.875,
      "note": 77,
      "duration": 0.125,
      "velocity": 100
    },
    {
      "time": 15.0,
      "note": 77,
      "duration": 0.25,
      "velocity": 100
    },
    {
      "time": 15.25,
      "note": 76,
      "duration": 0.25,
      "velocity": 100
    },
    {
      "time": 16.0,
      "note": 84,
      "duration": 0.125,
      "velocity": 100
    },
    {
      "time": 16.125,
      "note": 84,
      "duration": 0.125,
      "velocity": 100
    },
    {
      "time": 16.25,
      "note": 84,
      "duration": 0.125,
      "velocity": 100
    },
    {
      "time": 16.375,
      "note": 84,
      "duration": 0.125,
      "velocity": 100
    },
    {
      "time": 16.5,
      "note": 83,
      "duration": 0.25,
      "velocity": 100
    },
    {
      "time": 16.75,
      "note": 81,
      "duration": 0.25,
      "velocity": 100
    },
    {
      "time": 17.5,
      "note": 81,
      "duration": 0.25,
      "velocity": 100
    },
    {
      "time": 17.75,
      "note": 81,
      "duration": 0.25,
      "velocity": 100
    },
    {
      "time": 17.0,
      "note": 84,
      "duration": 0.5,
      "velocity": 100
    },
    {
      "time": 17.5,
      "note": 83,
      "duration": 0.5,
      "velocity": 100
    },
    {
      "time": 18.0,
      "note": 81,
      "duration": 0.5,
      "velocity": 100
    },
    {
      "time": 18.5,
      "note": 81,
      "duration": 0.125,
      "velocity": 100
    },
    {
      "time": 18.625,
      "note": 79,
      "duration": 0.25,
      "velocity": 100
    },
    {
      "time": 18.875,
      "note": 77,
      "duration": 0.125,
      "velocity": 100
    },
    {
      "time": 19.0,
      "note": 77,
      "duration": 0.25,
      "velocity": 100
    },
    {
      "time": 19.25,
      "note": 76,
      "duration": 0.25,
      "velocity": 100
    },
    {
      "time": 20.0,
      "note": 81,
      "duration": 0.125,
      "velocity": 100
    },
    {
      "time": 20.125,
      "note": 81,
      "duration": 0.125,
      "velocity": 100
    },
    {
      "time": 20.25,
      "note": 81,
      "duration": 0.125,
      "velocity": 100
    },
    {
      "time": 20.375,
      "note": 81,
      "duration": 0.125,
      "velocity": 100
    },
    {
      "time": 20.5,
      "note": 81,
      "duration": 0.25,
      "velocity": 100
    },
    {
      "time": 20.75,
      "note": 83,
      "duration": 0.125,
      "velocity": 100
    },
    {
      "time": 20.875,
      "note": 84,
      "duration": 0.125,
      "velocity": 100
    },
    {
      "time": 21.0,
      "note": 84,
      "duration": 0.125,
      "velocity": 100
    },
    {
      "time": 21.125,
      "note": 81,
      "duration": 0.375,
      "velocity": 100
    },
    {
      "time": 21.625,
      "note": 84,
      "duration": 0.25,
      "velocity": 100
    },
    {
      "time": 21.875,
      "note": 84,
      "duration": 0.125,
      "velocity": 100
    },
    {
      "time": 22.0,
      "note": 83,
      "duration": 0.16666666666666666,
      "velocity": 100
    },
    {
      "time": 22.166666666666668,
      "note": 83,
      "duration": 0.16666666666666666,
      "velocity": 100
    },
    {
      "time": 22.333333333333332,
      "note": 83,
      "duration": 0.16666666666666666,
      "velocity": 100
    },
    {
      "time": 22.5,
      "note": 81,
      "duration": 0.25,
      "velocity": 100
    },
    {
      "time": 22.75,
      "note": 79,
      "duration": 0.25,
      "velocity": 100
    },
    {
      "time": 23.0,
      "note": 84,
      "duration": 0.5,
      "velocity": 100
    },
    {
      "time": 24.0,
      "note": 74,
      "duration": 0.125,
      "velocity": 100
    },
    {
      "time": 24.125,
      "note": 74,
      "duration": 0.125,
      "velocity": 100
    },
    {
      "time": 24.25,
      "note": 76,
      "duration": 0.125,
      "velocity": 100
    },
    {
      "time": 24.375,
      "note": 77,
      "duration": 0.125,
      "velocity": 100
    },
    {
      "time": 24.5,
      "note": 77,
      "duration": 0.125,
      "velocity": 100
    },
    {
      "time": 24.625,
      "note": 76,
      "duration": 0.125,
      "velocity": 100
    },
    {
      "time": 24.75,
      "note": 74,
      "duration": 0.125,
      "velocity": 100
    },
    {
      "time": 24.875,
      "note": 84,
      "duration": 0.125,
      "velocity": 100
    },
    {
      "time": 25.0,
      "note": 84,
      "duration": 0.125,
      "velocity": 100
    },
    {
      "time": 25.125,
      "note": 81,
      "duration": 0.375,
      "velocity": 100
    },
    {
      "time": 25.75,
      "note": 81,
      "duration": 0.5,
      "velocity": 100
    },
    {
      "time": 26.25,
      "note": 82,
      "duration": 0.25,
      "velocity": 100
    },
    {
      "time": 26.5,
      "note": 82,
      "duration": 0.25,
      "velocity": 100
    },
    {
      "time": 26.75,
      "note": 82,
      "duration": 0.125,
      "velocity": 100
    },
    {
      "time": 26.875,
      "note": 81,
      "duration": 0.25,
      "velocity": 100
    },
    {
      "time": 27.125,
      "note": 79,
      "duration": 0.125,
      "velocity": 100
    },
    {
      "time": 26.25,
      "note": 81,
      "duration": 0.5,
      "velocity": 100
    },
    {
      "time": 27.5,
      "note": 79,
      "duration": 0.125,
      "velocity": 100
    },
    {
      "time": 27.625,
      "note": 79,
      "duration": 0.125,
      "velocity": 100
    },
    {
      "time": 27.75,
      "note": 79,
      "duration": 0.125,
      "velocity": 100
    },
    {
      "time": 27.875,
      "note": 79,
      "duration": 0.125,
      "velocity": 100
    },
    {
      "time": 28.0,
      "note": 77,
      "duration": 0.25,
      "velocity": 100
    },
    {
      "time": 28.25,
      "note": 76,
      "duration": 0.125,
      "velocity": 100
    },
    {
      "time": 28.375,
      "note": 81,
      "duration": 0.125,
      "velocity": 100
    },
    {
      "time": 28.5,
      "note": 81,
      "duration": 0.125,
      "velocity": 100
    },
    {
      "time": 28.625,
      "note": 79,
      "duration": 0.375,
      "velocity": 100
    },
    {
      "time": 29.25,
      "note": 77,
      "duration": 0.25,
      "velocity": 100
    },
    {
      "time": 29.5,
      "note": 77,
      "duration": 0.16666666666666666,
      "velocity": 100
    },
    {
      "time": 29.666666666666668,
      "note": 77,
      "duration": 0.16666666666666666,
      "velocity": 100
    },
    {
      "time": 29.833333333333332,
      "note": 77,
      "duration": 0.16666666666666666,
      "velocity": 100
    },
    {
      "time": 30.0,
      "note": 76,
      "duration": 0.25,
      "velocity": 100
    },
    {
      "time": 30.25,
      "note": 74,
      "duration": 0.125,
      "velocity": 100
    },
    {
      "time": 30.375,
      "note": 76,
      "duration": 0.125,
      "velocity": 100
    },
    {
      "time": 30.5,
      "note": 76,
      "duration": 0.5,
      "velocity": 100
    },
    {
      "time": 31.5,
      "note": 77,
      "duration": 0.125,
      "velocity": 100
    },
    {
      "time": 31.625,
      "note": 77,
      "duration": 0.125,
      "velocity": 100
    },
    {
      "time": 31.75,
      "note": 77,
      "duration": 0.125,
      "velocity": 100
    },
    {
      "time": 31.875,
      "note": 77,
      "duration": 0.125,
      "velocity": 100
    },
    {
      "time": 32.0,
      "note": 76,
      "duration": 0.25,
      "velocity": 100
    },
    {
      "time": 32.25,
      "note": 74,
      "duration": 0.25,
      "velocity": 100
    },
    {
      "time": 32.5,
      "note": 72,
      "duration": 0.5,
      "velocity": 100
    },
    {
      "time": 33.25,
      "note": 71,
      "duration": 0.25,
      "velocity": 100
    },
    {
      "time": 33.75,
      "note": 71,
      "duration": 0.25,
      "velocity": 100
    },
    {
      "time": 34.0,
      "note": 74,
      "duration": 0.25,
      "velocity": 100
    },
    {
      "time": 34.25,
      "note": 72,
      "duration": 0.25,
      "velocity": 100
    },
    {
      "time": 34.5,
      "note": 71,
      "duration": 0.25,
      "velocity": 100
    },
    {
      "time": 34.75,
      "note": 72,
      "duration": 0.5,
      "velocity": 100
    },
    {
      "time": 35.75,
      "note": 77,
      "duration": 0.125,
      "velocity": 100
    },
    {
      "time": 35.875,
      "note": 77,
      "duration": 0.125,
      "velocity": 100
    },
    {
      "time": 36.0,
      "note": 77,
      "duration": 0.125,
      "velocity": 100
    },
    {
      "time": 36.125,
      "note": 77,
      "duration": 0.125,
      "velocity": 100
    },
    {
      "time": 36.25,
      "note": 76,
      "duration": 0.25,
      "velocity": 100
    },
    {
      "time": 36.5,
      "note": 74,
      "duration": 0.25,
      "velocity": 100
    },
    {
      "time": 36.75,
      "note": 84,
      "duration": 0.5,
      "velocity": 100
    },
    {
      "time": 37.5,
      "note": 74,
      "duration": 0.5,
      "velocity": 100
    },
    {
      "time": 38.0,
      "note": 83,
      "duration": 0.5,
      "velocity": 100
    },
    {
      "time": 38.0,
      "note": 83,
      "duration": 0.125,
      "velocity": 100
    },
    {
      "time": 38.125,
      "note": 83,
      "duration": 0.25,
      "velocity": 100
    },
    {
      "time": 38.375,
      "note": 81,
      "duration": 0.125,
      "velocity": 100
    },
    {
      "time": 38.5,
      "note": 81,
      "duration": 0.25,
      "velocity": 100
    },
    {
      "time": 38.75,
      "note": 79,
      "duration": 0.125,
      "velocity": 100
    },
    {
      "time": 38.875,
      "note": 81,
      "duration": 0.125,
      "velocity": 100
    },
    {
      "time": 39.0,
      "note": 81,
      "duration": 1.0,
      "velocity": 100
    },
    {
      "time": 40.0,
      "note": 81,
      "duration": 0.25,
      "velocity": 100
    },
    {
      "time": 40.25,
      "note": 84,
      "duration": 0.25,
      "velocity": 100
    },
    {
      "time": 40.5,
      "note": 84,
      "duration": 0.25,
      "velocity": 100
    },
    {
      "time": 40.75,
      "note": 83,
      "duration": 0.25,
      "velocity": 100
    },
    {
      "time": 41.0,
      "note": 81,
      "duration": 0.5,
      "velocity": 100
    },
    {
      "time": 41.875,
      "note": 74,
      "duration": 0.5,
      "velocity": 100
    },
    {
      "time": 42.375,
      "note": 77,
      "duration": 0.5,
      "velocity": 100
    },
    {
      "time": 42.375,
      "note": 84,
      "duration": 0.5,
      "velocity": 100
    },
    {
      "time": 42.375,
      "note": 84,
      "duration": 0.375,
      "velocity": 100
    },
    {
      "time": 42.75,
      "note": 81,
      "duration": 0.125,
      "velocity": 100
    },
    {
      "time": 42.875,
      "note": 84,
      "duration": 0.375,
      "velocity": 100
    },
    {
      "time": 43.25,
      "note": 89,
      "duration": 0.125,
      "velocity": 100
    },
    {
      "time": 43.375,
      "note": 88,
      "duration": 1.0,
      "velocity": 100
    },
    {
      "time": 44.375,
      "note": 88,
      "duration": 0.25,
      "velocity": 100
    },
    {
      "time": 44.625,
      "note": 88,
      "duration": 0.25,
      "velocity": 100
    },
    {
      "time": 44.875,
      "note": 88,
      "duration": 0.16666666666666666,
      "velocity": 100
    },
    {
      "time": 45.041666666666664,
      "note": 86,
      "duration": 0.16666666666666666,
      "velocity": 100
    },
    {
      "time": 45.208333333333336,
      "note": 84,
      "duration": 0.16666666666666666,
      "velocity": 100
    },
    {
      "time": 45.375,
      "note": 86,
      "duration": 0.25,
      "velocity": 100
    },
    {
      "time": 45.625,
      "note": 83,
      "duration": 0.25,
      "velocity": 100
    },
    {
      "time": 45.875,
      "note": 74,
      "duration": 0.5,
      "velocity": 100
    },
    {
      "time": 46.375,
      "note": 83,
      "duration": 0.5,
      "velocity": 100
    },
    {
      "time": 45.375,
      "note": 86,
      "duration": 0.25,
      "velocity": 100
    },
    {
      "time": 45.625,
      "note": 83,
      "duration": 0.25,
      "velocity": 100
    },
    {
      "time": 45.875,
      "note": 84,
      "duration": 0.25,
      "velocity": 100
    },
    {
      "time": 46.125,
      "note": 83,
      "duration": 0.25,
      "velocity": 100
    },
    {
      "time": 46.375,
      "note": 76,
      "duration": 0.5,
      "velocity": 100
    },
    {
      "time": 46.875,
      "note": 84,
      "duration": 0.5,
      "velocity": 100
    },
    {
      "time": 47.125,
      "note": 84,
      "duration": 0.5,
      "velocity": 100
    },
    {
      "time": 47.625,
      "note": 84,
      "duration": 0.5,
      "velocity": 100
    },
    {
      "time": 48.125,
      "note": 83,
      "duration": 0.5,
      "velocity": 100
    },
    {
      "time": 48.625,
      "note": 83,
      "duration": 0.5,
      "velocity": 100
    },
    {
      "time": 49.375,
      "note": 86,
      "duration": 0.25,
      "velocity": 100
    },
    {
      "time": 49.625,
      "note": 86,
      "duration": 0.25,
      "velocity": 100
    },
    {
      "time": 49.875,
      "note": 86,
      "duration": 0.25,
      "velocity": 100
    },
    {
      "time": 50.125,
      "note": 83,
      "duration": 0.25,
      "velocity": 100
    },
    {
      "time": 50.375,
      "note": 84,
      "duration": 0.25,
      "velocity": 100
    },
    {
      "time": 50.625,
      "note": 83,
      "duration": 0.25,
      "velocity": 100
    },
    {
      "time": 50.875,
      "note": 81,
      "duration": 0.5,
      "velocity": 100
    },
    {
      "time": 51.375,
      "note": 84,
      "duration": 0.5,
      "velocity": 100
    }
  ],
  "chords": [
    {
      "time": 0.0,
      "notes": [
        69,
        72,
        76
      ],
      "duration": 1.2351190476190477
    },
    {
      "time": 1.2351190476190477,
      "notes": [
        65,
        69,
        72
      ],
      "duration": 1.2351190476190477
    },
    {
      "time": 2.4702380952380953,
      "notes": [
        69,
        72,
        76
      ],
      "duration": 1.2351190476190477
    },
    {
      "time": 3.7053571428571432,
      "notes": [
        64,
        68,
        71
      ],
      "duration": 1.2351190476190477
    },
    {
      "time": 4.940476190476191,
      "notes": [
        69,
        72,
        76
      ],
      "duration": 1.2351190476190477
    },
    {
      "time": 6.175595238095238,
      "notes": [
        69,
        72,
        76
      ],
      "duration": 1.2351190476190477
    },
    {
      "time": 7.4107142857142865,
      "notes": [
        64,
        68,
        71
      ],
      "duration": 1.2351190476190477
    },
    {
      "time": 8.645833333333334,
      "notes": [
        69,
        72,
        76
      ],
      "duration": 1.2351190476190477
    },
    {
      "time": 9.880952380952381,
      "notes": [
        69,
        72,
        76
      ],
      "duration": 1.2351190476190477
    },
    {
      "time": 11.116071428571429,
      "notes": [
        69,
        72,
        76
      ],
      "duration": 1.2351190476190477
    },
    {
      "time": 12.351190476190476,
      "notes": [
        65,
        69,
        72
      ],
      "duration": 1.2351190476190477
    },
    {
      "time": 13.586309523809524,
      "notes": [
        67,
        71,
        74
      ],
      "duration": 1.2351190476190477
    },
    {
      "time": 14.821428571428573,
      "notes": [
        60,
        64,
        67
      ],
      "duration": 1.2351190476190477
    },
    {
      "time": 16.05654761904762,
      "notes": [
        69,
        72,
        76
      ],
      "duration": 1.2351190476190477
    },
    {
      "time": 17.291666666666668,
      "notes": [
        65,
        69,
        72
      ],
      "duration": 1.2351190476190477
    },
    {
      "time": 18.526785714285715,
      "notes": [
        67,
        71,
        74
      ],
      "duration": 1.2351190476190477
    },
    {
      "time": 19.761904761904763,
      "notes": [
        60,
        64,
        67
      ],
      "duration": 1.2351190476190477
    },
    {
      "time": 20.99702380952381,
      "notes": [
        69,
        72,
        76
      ],
      "duration": 1.2351190476190477
    },
    {
      "time": 22.232142857142858,
      "notes": [
        67,
        71,
        74
      ],
      "duration": 1.2351190476190477
    },
    {
      "time": 23.467261904761905,
      "notes": [
        60,
        64,
        67
      ],
      "duration": 1.2351190476190477
    },
    {
      "time": 24.702380952380953,
      "notes": [
        62,
        65,
        69
      ],
      "duration": 1.2351190476190477
    },
    {
      "time": 25.9375,
      "notes": [
        69,
        72,
        76
      ],
      "duration": 1.2351190476190477
    },
    {
      "time": 27.172619047619047,
      "notes": [
        64,
        68,
        71
      ],
      "duration": 1.2351190476190477
    },
    {
      "time": 28.407738095238095,
      "notes": [
        69,
        72,
        76
      ],
      "duration": 1.2351190476190477
    },
    {
      "time": 29.642857142857146,
      "notes": [
        60,
        64,
        67
      ],
      "duration": 1.2351190476190477
    },
    {
      "time": 30.877976190476193,
      "notes": [
        67,
        71,
        74
      ],
      "duration": 1.2351190476190477
    },
    {
      "time": 32.11309523809524,
      "notes": [
        62,
        65,
        69
      ],
      "duration": 1.2351190476190477
    },
    {
      "time": 33.348214285714285,
      "notes": [
        69,
        72,
        76
      ],
      "duration": 1.2351190476190477
    },
    {
      "time": 34.583333333333336,
      "notes": [
        62,
        65,
        69
      ],
      "duration": 1.2351190476190477
    },
    {
      "time": 35.81845238095238,
      "notes": [
        69,
        72,
        76
      ],
      "duration": 1.2351190476190477
    },
    {
      "time": 37.05357142857143,
      "notes": [
        67,
        71,
        74
      ],
      "duration": 1.2351190476190477
    },
    {
      "time": 38.288690476190474,
      "notes": [
        69,
        72,
        76
      ],
      "duration": 1.2351190476190477
    },
    {
      "time": 39.523809523809526,
      "notes": [
        62,
        65,
        69
      ],
      "duration": 1.2351190476190477
    },
    {
      "time": 40.75892857142858,
      "notes": [
        69,
        72,
        76
      ],
      "duration": 1.2351190476190477
    },
    {
      "time": 41.99404761904762,
      "notes": [
        67,
        71,
        74
      ],
      "duration": 1.2351190476190477
    },
    {
      "time": 43.22916666666667,
      "notes": [
        69,
        72,
        76
      ],
      "duration": 1.2351190476190477
    },
    {
      "time": 44.464285714285715,
      "notes": [
        65,
        69,
        72
      ],
      "duration": 1.2351190476190477
    },
    {
      "time": 45.699404761904766,
      "notes": [
        60,
        64,
        67
      ],
      "duration": 1.2351190476190477
    },
    {
      "time": 46.93452380952381,
      "notes": [
        64,
        68,
        71,
        74
      ],
      "duration": 1.2351190476190477
    },
    {
      "time": 48.16964285714286,
      "notes": [
        69,
        72,
        76
      ],
      "duration": 1.2351190476190477
    },
    {
      "time": 49.404761904761905,
      "notes": [
        64,
        68,
        71,
        74
      ],
      "duration": 1.2351190476190477
    },
    {
      "time": 50.639880952380956,
      "notes": [
        69,
        72,
        76
      ],
      "duration": 1.2351190476190477
    }
  ]
}