{
  "title": "Duraznito",
  "artist": "Pibes Chorros",
  "bpm": 120,
  "duration": 48.25,
  "audioFile": "",
  "notes": [
    {
      "time": 0.375,
      "note": 74,
      "duration": 0.125,
      "velocity": 100
    },
    {
      "time": 0.5,
      "note": 74,
      "duration": 0.125,
      "velocity": 100
    },
    {
      "time": 0.625,
      "note": 74,
      "duration": 0.125,
      "velocity": 100
    },
    {
      "time": 0.75,
      "note": 77,
      "duration": 0.125,
      "velocity": 100
    },
    {
      "time": 0.875,
      "note": 81,
      "duration": 0.125,
      "velocity": 100
    },
    {
      "time": 1.0,
      "note": 84,
      "duration": 0.25,
      "velocity": 100
    },
    {
      "time": 1.25,
      "note": 84,
      "duration": 0.125,
      "velocity": 100
    },
    {
      "time": 1.375,
      "note": 81,
      "duration": 0.125,
      "velocity": 100
    },
    {
      "time": 1.5,
      "note": 84,
      "duration": 0.25,
      "velocity": 100
    },
    {
      "time": 1.75,
      "note": 84,
      "duration": 0.25,
      "velocity": 100
    },
    {
      "time": 2.0,
      "note": 86,
      "duration": 0.375,
      "velocity": 100
    },
    {
      "time": 2.375,
      "note": 74,
      "duration": 0.125,
      "velocity": 100
    },
    {
      "time": 2.5,
      "note": 74,
      "duration": 0.125,
      "velocity": 100
    },
    {
      "time": 2.625,
      "note": 74,
      "duration": 0.125,
      "velocity": 100
    },
    {
      "time": 2.75,
      "note": 77,
      "duration": 0.125,
      "velocity": 100
    },
    {
      "time": 2.875,
      "note": 81,
      "duration": 0.125,
      "velocity": 100
    },
    {
      "time": 3.0,
      "note": 84,
      "duration": 0.25,
      "velocity": 100
    },
    {
      "time": 3.25,
      "note": 84,
      "duration": 0.125,
      "velocity": 100
    },
    {
      "time": 3.375,
      "note": 81,
      "duration": 0.125,
      "velocity": 100
    },
    {
      "time": 3.5,
      "note": 84,
      "duration": 0.25,
      "velocity": 100
    },
    {
      "time": 3.75,
      "note": 84,
      "duration": 0.25,
      "velocity": 100
    },
    {
      "time": 4.0,
      "note": 86,
      "duration": 0.375,
      "velocity": 100
    },
    {
      "time": 4.375,
      "note": 74,
      "duration": 0.125,
      "velocity": 100
    },
    {
      "time": 4.5,
      "note": 74,
      "duration": 0.125,
      "velocity": 100
    },
    {
      "time": 4.625,
      "note": 74,
      "duration": 0.125,
      "velocity": 100
    },
    {
      "time": 4.75,
      "note": 77,
      "duration": 0.125,
      "velocity": 100
    },
    {
      "time": 4.875,
      "note": 81,
      "duration": 0.125,
      "velocity": 100
    },
    {
      "time": 5.0,
      "note": 84,
      "duration": 0.25,
      "velocity": 100
    },
    {
      "time": 5.25,
      "note": 84,
      "duration": 0.125,
      "velocity": 100
    },
    {
      "time": 5.375,
      "note": 81,
      "duration": 0.125,
      "velocity": 100
    },
    {
      "time": 5.5,
      "note": 84,
      "duration": 0.25,
      "velocity": 100
    },
    {
      "time": 5.75,
      "note": 86,
      "duration": 0.125,
      "velocity": 100
    },
    {
      "time": 5.875,
      "note": 81,
      "duration": 0.125,
      "velocity": 100
    },
    {
      "time": 6.25,
      "note": 81,
      "duration": 0.5,
      "velocity": 100
    },
    {
      "time": 6.0,
      "note": 74,
      "duration": 0.5,
      "velocity": 100
    },
    {
      "time": 6.5,
      "note": 86,
      "duration": 0.125,
      "velocity": 100
    },
    {
      "time": 6.625,
      "note": 89,
      "duration": 0.125,
      "velocity": 100
    },
    {
      "time": 6.75,
      "note": 86,
      "duration": 0.125,
      "velocity": 100
    },
    {
      "time": 6.875,
      "note": 89,
      "duration": 0.125,
      "velocity": 100
    },
    {
      "time": 6.0,
      "note": 86,
      "duration": 0.25,
      "velocity": 100
    },
    {
      "time": 6.25,
      "note": 89,
      "duration": 0.25,
      "velocity": 100
    },
    {
      "time": 6.5,
      "note": 86,
      "duration": 0.125,
      "velocity": 100
    },
    {
      "time": 6.625,
      "note": 89,
      "duration": 0.125,
      "velocity": 100
    },
    {
      "time": 6.75,
      "note": 86,
      "duration": 0.125,
      "velocity": 100
    },
    {
      "time": 6.875,
      "note": 89,
      "duration": 0.125,
      "velocity": 100
    },
    {
      "time": 7.0,
      "note": 84,
      "duration": 0.25,
      "velocity": 100
    },
    {
      "time": 7.25,
      "note": 88,
      "duration": 0.25,
      "velocity": 100
    },
    {
      "time": 7.5,
      "note": 81,
      "duration": 0.125,
      "velocity": 100
    },
    {
      "time": 7.625,
      "note": 81,
      "duration": 0.125,
      "velocity": 100
    },
    {
      "time": 7.75,
      "note": 84,
      "duration": 0.125,
      "velocity": 100
    },
    {
      "time": 7.875,
      "note": 88,
      "duration": 0.125,
      "velocity": 100
    },
    {
      "time": 8.0,
      "note": 86,
      "duration": 0.25,
      "velocity": 100
    },
    {
      "time": 8.25,
      "note": 89,
      "duration": 0.25,
      "velocity": 100
    },
    {
      "time": 8.5,
      "note": 81,
      "duration": 0.125,
      "velocity": 100
    },
    {
      "time": 8.625,
      "note": 81,
      "duration": 0.125,
      "velocity": 100
    },
    {
      "time": 8.75,
      "note": 84,
      "duration": 0.125,
      "velocity": 100
    },
    {
      "time": 8.875,
      "note": 88,
      "duration": 0.125,
      "velocity": 100
    },
    {
      "time": 9.0,
      "note": 86,
      "duration": 1.0,
      "velocity": 100
    },
    {
      "time": 10.0,
      "note": 86,
      "duration": 0.5,
      "velocity": 100
    },
    {
      "time": 10.5,
      "note": 77,
      "duration": 0.25,
      "velocity": 100
    },
    {
      "time": 10.75,
      "note": 76,
      "duration": 0.25,
      "velocity": 100
    },
    {
      "time": 11.0,
      "note": 74,
      "duration": 0.5,
      "velocity": 100
    },
    {
      "time": 11.75,
      "note": 81,
      "duration": 0.125,
      "velocity": 100
    },
    {
      "time": 11.875,
      "note": 81,
      "duration": 0.125,
      "velocity": 100
    },
    {
      "time": 12.0,
      "note": 86,
      "duration": 0.5,
      "velocity": 100
    },
    {
      "time": 12.5,
      "note": 86,
      "duration": 0.25,
      "velocity": 100
    },
    {
      "time": 12.75,
      "note": 86,
      "duration": 0.125,
      "velocity": 100
    },
    {
      "time": 12.875,
      "note": 89,
      "duration": 0.125,
      "velocity": 100
    },
    {
      "time": 13.0,
      "note": 89,
      "duration": 0.375,
      "velocity": 100
    },
    {
      "time": 13.375,
      "note": 88,
      "duration": 0.125,
      "velocity": 100
    },
    {
      "time": 13.5,
      "note": 86,
      "duration": 0.25,
      "velocity": 100
    },
    {
      "time": 13.75,
      "note": 88,
      "duration": 0.125,
      "velocity": 100
    },
    {
      "time": 13.875,
      "note": 84,
      "duration": 0.125,
      "velocity": 100
    },
    {
      "time": 14.0,
      "note": 84,
      "duration": 0.25,
      "velocity": 100
    },
    {
      "time": 14.25,
      "note": 79,
      "duration": 0.75,
      "velocity": 100
    },
    {
      "time": 14.75,
      "note": 84,
      "duration": 0.125,
      "velocity": 100
    },
    {
      "time": 14.875,
      "note": 84,
      "duration": 0.125,
      "velocity": 100
    },
    {
      "time": 15.0,
      "note": 82,
      "duration": 0.375,
      "velocity": 100
    },
    {
      "time": 15.375,
      "note": 82,
      "duration": 0.125,
      "velocity": 100
    },
    {
      "time": 15.5,
      "note": 82,
      "duration": 0.25,
      "velocity": 100
    },
    {
      "time": 15.75,
      "note": 82,
      "duration": 0.125,
      "velocity": 100
    },
    {
      "time": 15.875,
      "note": 82,
      "duration": 0.125,
      "velocity": 100
    },
    {
      "time": 16.0,
      "note": 82,
      "duration": 0.375,
      "velocity": 100
    },
    {
      "time": 16.375,
      "note": 81,
      "duration": 0.125,
      "velocity": 100
    },
    {
      "time": 16.5,
      "note": 79,
      "duration": 0.25,
      "velocity": 100
    },
    {
      "time": 16.75,
      "note": 82,
      "duration": 0.125,
      "velocity": 100
    },
    {
      "time": 16.875,
      "note": 81,
      "duration": 0.125,
      "velocity": 100
    },
    {
      "time": 17.0,
      "note": 81,
      "duration": 0.25,
      "velocity": 100
    },
    {
      "time": 17.25,
      "note": 77,
      "duration": 0.75,
      "velocity": 100
    },
    {
      "time": 18.75,
      "note": 77,
      "duration": 0.125,
      "velocity": 100
    },
    {
      "time": 18.875,
      "note": 77,
      "duration": 0.125,
      "velocity": 100
    },
    {
      "time": 19.0,
      "note": 79,
      "duration": 0.5,
      "velocity": 100
    },
    {
      "time": 19.5,
      "note": 79,
      "duration": 0.25,
      "velocity": 100
    },
    {
      "time": 19.75,
      "note": 79,
      "duration": 0.125,
      "velocity": 100
    },
    {
      "time": 19.875,
      "note": 89,
      "duration": 0.125,
      "velocity": 100
    },
    {
      "time": 20.0,
      "note": 89,
      "duration": 0.375,
      "velocity": 100
    },
    {
      "time": 20.375,
      "note": 88,
      "duration": 0.125,
      "velocity": 100
    },
    {
      "time": 20.5,
      "note": 86,
      "duration": 0.25,
      "velocity": 100
    },
    {
      "time": 20.75,
      "note": 88,
      "duration": 0.125,
      "velocity": 100
    },
    {
      "time": 20.875,
      "note": 86,
      "duration": 0.125,
      "velocity": 100
    },
    {
      "time": 21.0,
      "note": 86,
      "duration": 0.25,
      "velocity": 100
    },
    {
      "time": 21.25,
      "note": 81,
      "duration": 0.25,
      "velocity": 100
    },
    {
      "time": 21.625,
      "note": 89,
      "duration": 0.125,
      "velocity": 100
    },
    {
      "time": 21.75,
      "note": 88,
      "duration": 0.125,
      "velocity": 100
    },
    {
      "time": 21.875,
      "note": 88,
      "duration": 0.25,
      "velocity": 100
    },
    {
      "time": 21.5,
      "note": 81,
      "duration": 0.5,
      "velocity": 100
    },
    {
      "time": 22.75,
      "note": 74,
      "duration": 0.125,
      "velocity": 100
    },
    {
      "time": 22.875,
      "note": 74,
      "duration": 0.125,
      "velocity": 100
    },
    {
      "time": 23.0,
      "note": 82,
      "duration": 0.25,
      "velocity": 100
    },
    {
      "time": 23.25,
      "note": 82,
      "duration": 0.25,
      "velocity": 100
    },
    {
      "time": 23.5,
      "note": 82,
      "duration": 0.5,
      "velocity": 100
    },
    {
      "time": 24.375,
      "note": 76,
      "duration": 0.5,
      "velocity": 100
    },
    {
      "time": 24.875,
      "note": 82,
      "duration": 0.5,
      "velocity": 100
    },
    {
      "time": 24.875,
      "note": 82,
      "duration": 0.125,
      "velocity": 100
    },
    {
      "time": 25.0,
      "note": 82,
      "duration": 0.125,
      "velocity": 100
    },
    {
      "time": 25.125,
      "note": 84,
      "duration": 0.125,
      "velocity": 100
    },
    {
      "time": 25.25,
      "note": 82,
      "duration": 0.125,
      "velocity": 100
    },
    {
      "time": 25.375,
      "note": 81,
      "duration": 1.0,
      "velocity": 100
    },
    {
      "time": 25.375,
      "note": 93,
      "duration": 0.25,
      "velocity": 100
    },
    {
      "time": 25.625,
      "note": 91,
      "duration": 0.25,
      "velocity": 100
    },
    {
      "time": 25.875,
      "note": 89,
      "duration": 0.25,
      "velocity": 100
    },
    {
      "time": 26.125,
      "note": 88,
      "duration": 0.25,
      "velocity": 100
    },
    {
      "time": 26.375,
      "note": 93,
      "duration": 0.5,
      "velocity": 100
    },
    {
      "time": 26.625,
      "note": 86,
      "duration": 0.125,
      "velocity": 100
    },
    {
      "time": 26.75,
      "note": 86,
      "duration": 0.125,
      "velocity": 100
    },
    {
      "time": 26.875,
      "note": 86,
      "duration": 0.125,
      "velocity": 100
    },
    {
      "time": 27.0,
      "note": 86,
      "duration": 0.125,
      "velocity": 100
    },
    {
      "time": 27.125,
      "note": 86,
      "duration": 0.125,
      "velocity": 100
    },
    {
      "time": 27.25,
      "note": 84,
      "duration": 0.375,
      "velocity": 100
    },
    {
      "time": 27.625,
      "note": 79,
      "duration": 0.125,
      "velocity": 100
    },
    {
      "time": 27.875,
      "note": 79,
      "duration": 0.5,
      "velocity": 100
    },
    {
      "time": 27.25,
      "note": 82,
      "duration": 0.375,
      "velocity": 100
    },
    {
      "time": 27.625,
      "note": 82,
      "duration": 0.125,
      "velocity": 100
    },
    {
      "time": 27.75,
      "note": 82,
      "duration": 0.125,
      "velocity": 100
    },
    {
      "time": 27.875,
      "note": 81,
      "duration": 0.25,
      "velocity": 100
    },
    {
      "time": 28.125,
      "note": 82,
      "duration": 0.125,
      "velocity": 100
    },
    {
      "time": 28.25,
      "note": 82,
      "duration": 0.375,
      "velocity": 100
    },
    {
      "time": 28.625,
      "note": 84,
      "duration": 0.125,
      "velocity": 100
    },
    {
      "time": 28.75,
      "note": 84,
      "duration": 0.5,
      "velocity": 100
    },
    {
      "time": 29.625,
      "note": 76,
      "duration": 0.5,
      "velocity": 100
    },
    {
      "time": 30.125,
      "note": 79,
      "duration": 0.5,
      "velocity": 100
    },
    {
      "time": 30.125,
      "note": 86,
      "duration": 0.5,
      "velocity": 100
    },
    {
      "time": 30.125,
      "note": 86,
      "duration": 0.125,
      "velocity": 100
    },
    {
      "time": 30.25,
      "note": 86,
      "duration": 0.125,
      "velocity": 100
    },
    {
      "time": 30.375,
      "note": 86,
      "duration": 0.125,
      "velocity": 100
    },
    {
      "time": 30.5,
      "note": 86,
      "duration": 0.125,
      "velocity": 100
    },
    {
      "time": 30.625,
      "note": 84,
      "duration": 0.375,
      "velocity": 100
    },
    {
      "time": 31.0,
      "note": 79,
      "duration": 0.125,
      "velocity": 100
    },
    {
      "time": 31.25,
      "note": 79,
      "duration": 0.25,
      "velocity": 100
    },
    {
      "time": 31.5,
      "note": 81,
      "duration": 0.125,
      "velocity": 100
    },
    {
      "time": 31.625,
      "note": 82,
      "duration": 0.375,
      "velocity": 100
    },
    {
      "time": 32.0,
      "note": 82,
      "duration": 0.125,
      "velocity": 100
    },
    {
      "time": 32.125,
      "note": 82,
      "duration": 0.125,
      "velocity": 100
    },
    {
      "time": 32.25,
      "note": 81,
      "duration": 0.25,
      "velocity": 100
    },
    {
      "time": 32.5,
      "note": 82,
      "duration": 0.125,
      "velocity": 100
    },
    {
      "time": 32.625,
      "note": 82,
      "duration": 0.375,
      "velocity": 100
    },
    {
      "time": 33.0,
      "note": 84,
      "duration": 0.125,
      "velocity": 100
    },
    {
      "time": 33.125,
      "note": 84,
      "duration": 0.5,
      "velocity": 100
    },
    {
      "time": 33.875,
      "note": 79,
      "duration": 0.125,
      "velocity": 100
    },
    {
      "time": 34.0,
      "note": 79,
      "duration": 0.125,
      "velocity": 100
    },
    {
      "time": 34.125,
      "note": 79,
      "duration": 0.125,
      "velocity": 100
    },
    {
      "time": 34.25,
      "note": 79,
      "duration": 0.125,
      "velocity": 100
    },
    {
      "time": 34.375,
      "note": 81,
      "duration": 0.125,
      "velocity": 100
    },
    {
      "time": 34.5,
      "note": 82,
      "duration": 0.375,
      "velocity": 100
    },
    {
      "time": 34.875,
      "note": 79,
      "duration": 0.125,
      "velocity": 100
    },
    {
      "time": 35.0,
      "note": 79,
      "duration": 0.25,
      "velocity": 100
    },
    {
      "time": 35.25,
      "note": 79,
      "duration": 0.25,
      "velocity": 100
    },
    {
      "time": 35.5,
      "note": 89,
      "duration": 0.375,
      "velocity": 100
    },
    {
      "time": 35.875,
      "note": 88,
      "duration": 0.125,
      "velocity": 100
    },
    {
      "time": 36.0,
      "note": 86,
      "duration": 0.125,
      "velocity": 100
    },
    {
      "time": 36.125,
      "note": 88,
      "duration": 0.25,
      "velocity": 100
    },
    {
      "time": 36.375,
      "note": 86,
      "duration": 0.125,
      "velocity": 100
    },
    {
      "time": 36.5,
      "note": 86,
      "duration": 0.125,
      "velocity": 100
    },
    {
      "time": 36.625,
      "note": 81,
      "duration": 0.375,
      "velocity": 100
    },
    {
      "time": 37.875,
      "note": 77,
      "duration": 0.125,
      "velocity": 100
    },
    {
      "time": 38.0,
      "note": 77,
      "duration": 0.125,
      "velocity": 100
    },
    {
      "time": 38.125,
      "note": 77,
      "duration": 0.125,
      "velocity": 100
    },
    {
      "time": 38.25,
      "note": 76,
      "duration": 0.125,
      "velocity": 100
    },
    {
      "time": 38.375,
      "note": 74,
      "duration": 0.125,
      "velocity": 100
    },
    {
      "time": 38.5,
      "note": 82,
      "duration": 0.25,
      "velocity": 100
    },
    {
      "time": 38.75,
      "note": 82,
      "duration": 0.25,
      "velocity": 100
    },
    {
      "time": 39.0,
      "note": 82,
      "duration": 0.5,
      "velocity": 100
    },
    {
      "time": 39.75,
      "note": 86,
      "duration": 0.125,
      "velocity": 100
    },
    {
      "time": 39.875,
      "note": 86,
      "duration": 0.125,
      "velocity": 100
    },
    {
      "time": 40.0,
      "note": 86,
      "duration": 0.125,
      "velocity": 100
    },
    {
      "time": 40.125,
      "note": 86,
      "duration": 0.125,
      "velocity": 100
    },
    {
      "time": 40.25,
      "note": 88,
      "duration": 0.125,
      "velocity": 100
    },
    {
      "time": 40.375,
      "note": 86,
      "duration": 0.125,
      "velocity": 100
    },
    {
      "time": 40.5,
      "note": 86,
      "duration": 0.375,
      "velocity": 100
    },
    {
      "time": 40.875,
      "note": 84,
      "duration": 0.125,
      "velocity": 100
    },
    {
      "time": 41.0,
      "note": 84,
      "duration": 0.5,
      "velocity": 100
    },
    {
      "time": 41.875,
      "note": 76,
      "duration": 0.5,
      "velocity": 100
    },
    {
      "time": 42.375,
      "note": 79,
      "duration": 0.5,
      "velocity": 100
    },
    {
      "time": 42.375,
      "note": 86,
      "duration": 0.5,
      "velocity": 100
    },
    {
      "time": 42.375,
      "note": 86,
      "duration": 0.125,
      "velocity": 100
    },
    {
      "time": 42.5,
      "note": 86,
      "duration": 0.125,
      "velocity": 100
    },
    {
      "time": 42.625,
      "note": 88,
      "duration": 0.125,
      "velocity": 100
    },
    {
      "time": 42.75,
      "note": 86,
      "duration": 0.125,
      "velocity": 100
    },
    {
      "time": 42.875,
      "note": 86,
      "duration": 0.25,
      "velocity": 100
    },
    {
      "time": 43.125,
      "note": 84,
      "duration": 0.125,
      "velocity": 100
    },
    {
      "time": 43.25,
      "note": 88,
      "duration": 0.125,
      "velocity": 100
    },
    {
      "time": 43.375,
      "note": 88,
      "duration": 0.5,
      "velocity": 100
    },
    {
      "time": 43.875,
      "note": 88,
      "duration": 0.5,
      "velocity": 100
    },
    {
      "time": 44.375,
      "note": 88,
      "duration": 0.5,
      "velocity": 100
    },
    {
      "time": 45.25,
      "note": 77,
      "duration": 0.5,
      "velocity": 100
    },
    {
      "time": 45.75,
      "note": 81,
      "duration": 0.5,
      "velocity": 100
    },
    {
      "time": 45.75,
      "note": 88,
      "duration": 0.5,
      "velocity": 100
    },
    {
      "time": 45.75,
      "note": 89,
      "duration": 0.25,
      "velocity": 100
    },
    {
      "time": 46.0,
      "note": 88,
      "duration": 0.25,
      "velocity": 100
    },
    {
      "time": 46.25,
      "note": 89,
      "duration": 0.25,
      "velocity": 100
    },
    {
      "time": 46.5,
      "note": 88,
      "duration": 0.125,
      "velocity": 100
    },
    {
      "time": 46.625,
      "note": 86,
      "duration": 0.125,
      "velocity": 100
    },
    {
      "time": 46.75,
      "note": 86,
      "duration": 0.5,
      "velocity": 100
    },
    {
      "time": 47.25,
      "note": 86,
      "duration": 0.5,
      "velocity": 100
    },
    {
      "time": 47.75,
      "note": 86,
      "duration": 0.5,
      "velocity": 100
    }
  ],
  "chords": [
    {
      "time": 0.0,
      "notes": [
        62,
        65,
        69
      ],
      "duration": 1.6637931034482758
    },
    {
      "time": 1.6637931034482758,
      "notes": [
        69,
        73,
        76
      ],
      "duration": 1.6637931034482758
    },
    {
      "time": 3.3275862068965516,
      "notes": [
        62,
        65,
        69
      ],
      "duration": 1.6637931034482758
    },
    {
      "time": 4.991379310344827,
      "notes": [
        69,
        73,
        76
      ],
      "duration": 1.6637931034482758
    },
    {
      "time": 6.655172413793103,
      "notes": [
        62,
        65,
        69
      ],
      "duration": 1.6637931034482758
    },
    {
      "time": 8.318965517241379,
      "notes": [
        69,
        73,
        76
      ],
      "duration": 1.6637931034482758
    },
    {
      "time": 9.982758620689655,
      "notes": [
        62,
        65,
        69
      ],
      "duration": 1.6637931034482758
    },
    {
      "time": 11.64655172413793,
      "notes": [
        69,
        73,
        76
      ],
      "duration": 1.6637931034482758
    },
    {
      "time": 13.310344827586206,
      "notes": [
        62,
        65,
        69
      ],
      "duration": 1.6637931034482758
    },
    {
      "time": 14.974137931034482,
      "notes": [
        69,
        73,
        76
      ],
      "duration": 1.6637931034482758
    },
    {
      "time": 16.637931034482758,
      "notes": [
        62,
        65,
        69
      ],
      "duration": 1.6637931034482758
    },
    {
      "time": 18.301724137931032,
      "notes": [
        62,
        65,
        69
      ],
      "duration": 1.6637931034482758
    },
    {
      "time": 19.96551724137931,
      "notes": [
        60,
        64,
        67
      ],
      "duration": 1.6637931034482758
    },
    {
      "time": 21.629310344827587,
      "notes": [
        62,
        65,
        69
      ],
      "duration": 1.6637931034482758
    },
    {
      "time": 23.29310344827586,
      "notes": [
        65,
        69,
        72
      ],
      "duration": 1.6637931034482758
    },
    {
      "time": 24.956896551724135,
      "notes": [
        67,
        70,
        74
      ],
      "duration": 1.6637931034482758
    },
    {
      "time": 26.620689655172413,
      "notes": [
        62,
        65,
        69
      ],
      "duration": 1.6637931034482758
    },
    {
      "time": 28.28448275862069,
      "notes": [
        70,
        74,
        77
      ],
      "duration": 1.6637931034482758
    },
    {
      "time": 29.948275862068964,
      "notes": [
        69,
        73,
        76
      ],
      "duration": 1.6637931034482758
    },
    {
      "time": 31.61206896551724,
      "notes": [
        60,
        64,
        67
      ],
      "duration": 1.6637931034482758
    },
    {
      "time": 33.275862068965516,
      "notes": [
        65,
        69,
        72
      ],
      "duration": 1.6637931034482758
    },
    {
      "time": 34.939655172413794,
      "notes": [
        60,
        64,
        67
      ],
      "duration": 1.6637931034482758
    },
    {
      "time": 36.603448275862064,
      "notes": [
        65,
        69,
        72
      ],
      "duration": 1.6637931034482758
    },
    {
      "time": 38.26724137931034,
      "notes": [
        67,
        70,
        74
      ],
      "duration": 1.6637931034482758
    },
    {
      "time": 39.93103448275862,
      "notes": [
        62,
        65,
        69
      ],
      "duration": 1.6637931034482758
    },
    {
      "time": 41.5948275862069,
      "notes": [
        70,
        74,
        77
      ],
      "duration": 1.6637931034482758
    },
    {
      "time": 43.258620689655174,
      "notes": [
        69,
        73,
        76
      ],
      "duration": 1.6637931034482758
    },
    {
      "time": 44.922413793103445,
      "notes": [
        69,
        73,
        76
      ],
      "duration": 1.6637931034482758
    },
    {
      "time": 46.58620689655172,
      "notes": [
        62,
        65,
        69
      ],
      "duration": 1.6637931034482758
    }
  ]
}