{
  "title": "Amores como el nuestro",
  "artist": "Arr. Los Charros",
  "bpm": 120,
  "duration": 39.875,
  "audioFile": "",
  "notes": [
    {
      "time": 0.0,
      "note": 81,
      "duration": 0.125,
      "velocity": 100
    },
    {
      "time": 0.125,
      "note": 83,
      "duration": 0.125,
      "velocity": 100
    },
    {
      "time": 0.25,
      "note": 84,
      "duration": 0.125,
      "velocity": 100
    },
    {
      "time": 0.375,
      "note": 81,
      "duration": 0.125,
      "velocity": 100
    },
    {
      "time": 0.5,
      "note": 88,
      "duration": 0.5,
      "velocity": 100
    },
    {
      "time": 1.0,
      "note": 86,
      "duration": 0.25,
      "velocity": 100
    },
    {
      "time": 1.25,
      "note": 84,
      "duration": 0.25,
      "velocity": 100
    },
    {
      "time": 1.5,
      "note": 83,
      "duration": 0.5,
      "velocity": 100
    },
    {
      "time": 2.0,
      "note": 79,
      "duration": 0.125,
      "velocity": 100
    },
    {
      "time": 2.125,
      "note": 81,
      "duration": 0.125,
      "velocity": 100
    },
    {
      "time": 2.25,
      "note": 83,
      "duration": 0.125,
      "velocity": 100
    },
    {
      "time": 2.375,
      "note": 79,
      "duration": 0.125,
      "velocity": 100
    },
    {
      "time": 2.5,
      "note": 86,
      "duration": 0.5,
      "velocity": 100
    },
    {
      "time": 3.0,
      "note": 84,
      "duration": 0.25,
      "velocity": 100
    },
    {
      "time": 3.25,
      "note": 83,
      "duration": 0.25,
      "velocity": 100
    },
    {
      "time": 3.5,
      "note": 81,
      "duration": 0.5,
      "velocity": 100
    },
    {
      "time": 4.0,
      "note": 81,
      "duration": 0.125,
      "velocity": 100
    },
    {
      "time": 4.125,
      "note": 83,
      "duration": 0.125,
      "velocity": 100
    },
    {
      "time": 4.25,
      "note": 84,
      "duration": 0.125,
      "velocity": 100
    },
    {
      "time": 4.375,
      "note": 81,
      "duration": 0.125,
      "velocity": 100
    },
    {
      "time": 4.5,
      "note": 88,
      "duration": 0.5,
      "velocity": 100
    },
    {
      "time": 5.0,
      "note": 86,
      "duration": 0.25,
      "velocity": 100
    },
    {
      "time": 5.25,
      "note": 84,
      "duration": 0.25,
      "velocity": 100
    },
    {
      "time": 5.5,
      "note": 83,
      "duration": 0.5,
      "velocity": 100
    },
    {
      "time": 6.0,
      "note": 79,
      "duration": 0.125,
      "velocity": 100
    },
    {
      "time": 6.125,
      "note": 81,
      "duration": 0.125,
      "velocity": 100
    },
    {
      "time": 6.25,
      "note": 83,
      "duration": 0.125,
      "velocity": 100
    },
    {
      "time": 6.375,
      "note": 79,
      "duration": 0.125,
      "velocity": 100
    },
    {
      "time": 6.5,
      "note": 86,
      "duration": 0.5,
      "velocity": 100
    },
    {
      "time": 7.0,
      "note": 84,
      "duration": 0.25,
      "velocity": 100
    },
    {
      "time": 7.25,
      "note": 83,
      "duration": 0.25,
      "velocity": 100
    },
    {
      "time": 7.5,
      "note": 81,
      "duration": 0.5,
      "velocity": 100
    },
    {
      "time": 8.0,
      "note": 81,
      "duration": 0.125,
      "velocity": 100
    },
    {
      "time": 8.125,
      "note": 83,
      "duration": 0.125,
      "velocity": 100
    },
    {
      "time": 8.25,
      "note": 84,
      "duration": 0.125,
      "velocity": 100
    },
    {
      "time": 8.375,
      "note": 81,
      "duration": 0.125,
      "velocity": 100
    },
    {
      "time": 8.5,
      "note": 86,
      "duration": 0.5,
      "velocity": 100
    },
    {
      "time": 9.0,
      "note": 84,
      "duration": 0.25,
      "velocity": 100
    },
    {
      "time": 9.25,
      "note": 83,
      "duration": 0.25,
      "velocity": 100
    },
    {
      "time": 9.5,
      "note": 81,
      "duration": 0.125,
      "velocity": 100
    },
    {
      "time": 9.625,
      "note": 81,
      "duration": 0.25,
      "velocity": 100
    },
    {
      "time": 9.875,
      "note": 81,
      "duration": 0.125,
      "velocity": 100
    },
    {
      "time": 10.125,
      "note": 79,
      "duration": 0.125,
      "velocity": 100
    },
    {
      "time": 10.25,
      "note": 81,
      "duration": 0.25,
      "velocity": 100
    },
    {
      "time": 10.875,
      "note": 76,
      "duration": 0.125,
      "velocity": 100
    },
    {
      "time": 11.0,
      "note": 84,
      "duration": 0.125,
      "velocity": 100
    },
    {
      "time": 11.125,
      "note": 84,
      "duration": 0.125,
      "velocity": 100
    },
    {
      "time": 11.25,
      "note": 84,
      "duration": 0.125,
      "velocity": 100
    },
    {
      "time": 11.375,
      "note": 84,
      "duration": 0.125,
      "velocity": 100
    },
    {
      "time": 11.5,
      "note": 84,
      "duration": 0.125,
      "velocity": 100
    },
    {
      "time": 11.625,
      "note": 84,
      "duration": 0.125,
      "velocity": 100
    },
    {
      "time": 11.75,
      "note": 84,
      "duration": 0.125,
      "velocity": 100
    },
    {
      "time": 11.875,
      "note": 84,
      "duration": 0.125,
      "velocity": 100
    },
    {
      "time": 12.0,
      "note": 84,
      "duration": 0.125,
      "velocity": 100
    },
    {
      "time": 12.125,
      "note": 84,
      "duration": 0.125,
      "velocity": 100
    },
    {
      "time": 12.25,
      "note": 84,
      "duration": 0.125,
      "velocity": 100
    },
    {
      "time": 12.375,
      "note": 83,
      "duration": 0.125,
      "velocity": 100
    },
    {
      "time": 12.5,
      "note": 83,
      "duration": 0.25,
      "velocity": 100
    },
    {
      "time": 12.75,
      "note": 81,
      "duration": 0.125,
      "velocity": 100
    },
    {
      "time": 12.875,
      "note": 79,
      "duration": 0.125,
      "velocity": 100
    },
    {
      "time": 12.75,
      "note": 71,
      "duration": 0.25,
      "velocity": 100
    },
    {
      "time": 13.0,
      "note": 74,
      "duration": 0.25,
      "velocity": 100
    },
    {
      "time": 13.0,
      "note": 74,
      "duration": 0.25,
      "velocity": 100
    },
    {
      "time": 13.25,
      "note": 79,
      "duration": 0.25,
      "velocity": 100
    },
    {
      "time": 13.25,
      "note": 71,
      "duration": 0.125,
      "velocity": 100
    },
    {
      "time": 13.375,
      "note": 74,
      "duration": 0.125,
      "velocity": 100
    },
    {
      "time": 13.375,
      "note": 79,
      "duration": 0.125,
      "velocity": 100
    },
    {
      "time": 13.5,
      "note": 83,
      "duration": 0.125,
      "velocity": 100
    },
    {
      "time": 13.625,
      "note": 83,
      "duration": 0.25,
      "velocity": 100
    },
    {
      "time": 13.875,
      "note": 83,
      "duration": 0.25,
      "velocity": 100
    },
    {
      "time": 14.125,
      "note": 86,
      "duration": 0.25,
      "velocity": 100
    },
    {
      "time": 14.25,
      "note": 83,
      "duration": 0.125,
      "velocity": 100
    },
    {
      "time": 14.375,
      "note": 86,
      "duration": 0.125,
      "velocity": 100
    },
    {
      "time": 14.375,
      "note": 81,
      "duration": 0.125,
      "velocity": 100
    },
    {
      "time": 14.5,
      "note": 84,
      "duration": 0.125,
      "velocity": 100
    },
    {
      "time": 14.5,
      "note": 79,
      "duration": 0.125,
      "velocity": 100
    },
    {
      "time": 14.625,
      "note": 83,
      "duration": 0.125,
      "velocity": 100
    },
    {
      "time": 15.0,
      "note": 76,
      "duration": 0.125,
      "velocity": 100
    },
    {
      "time": 15.125,
      "note": 84,
      "duration": 0.125,
      "velocity": 100
    },
    {
      "time": 15.25,
      "note": 84,
      "duration": 0.125,
      "velocity": 100
    },
    {
      "time": 15.375,
      "note": 84,
      "duration": 0.125,
      "velocity": 100
    },
    {
      "time": 15.5,
      "note": 84,
      "duration": 0.125,
      "velocity": 100
    },
    {
      "time": 14.625,
      "note": 81,
      "duration": 0.5,
      "velocity": 100
    },
    {
      "time": 15.125,
      "note": 84,
      "duration": 0.5,
      "velocity": 100
    },
    {
      "time": 15.125,
      "note": 84,
      "duration": 0.125,
      "velocity": 100
    },
    {
      "time": 15.25,
      "note": 84,
      "duration": 0.125,
      "velocity": 100
    },
    {
      "time": 15.375,
      "note": 84,
      "duration": 0.125,
      "velocity": 100
    },
    {
      "time": 15.5,
      "note": 84,
      "duration": 0.125,
      "velocity": 100
    },
    {
      "time": 15.625,
      "note": 84,
      "duration": 0.25,
      "velocity": 100
    },
    {
      "time": 15.875,
      "note": 88,
      "duration": 0.125,
      "velocity": 100
    },
    {
      "time": 16.0,
      "note": 86,
      "duration": 0.125,
      "velocity": 100
    },
    {
      "time": 16.125,
      "note": 86,
      "duration": 1.0,
      "velocity": 100
    },
    {
      "time": 16.125,
      "note": 86,
      "duration": 0.125,
      "velocity": 100
    },
    {
      "time": 16.25,
      "note": 86,
      "duration": 0.125,
      "velocity": 100
    },
    {
      "time": 16.375,
      "note": 83,
      "duration": 0.125,
      "velocity": 100
    },
    {
      "time": 16.5,
      "note": 81,
      "duration": 0.25,
      "velocity": 100
    },
    {
      "time": 16.75,
      "note": 84,
      "duration": 0.25,
      "velocity": 100
    },
    {
      "time": 17.0,
      "note": 81,
      "duration": 0.25,
      "velocity": 100
    },
    {
      "time": 17.25,
      "note": 74,
      "duration": 0.125,
      "velocity": 100
    },
    {
      "time": 17.375,
      "note": 81,
      "duration": 1.0,
      "velocity": 100
    },
    {
      "time": 17.875,
      "note": 83,
      "duration": 0.25,
      "velocity": 100
    },
    {
      "time": 18.125,
      "note": 83,
      "duration": 0.25,
      "velocity": 100
    },
    {
      "time": 18.375,
      "note": 83,
      "duration": 0.25,
      "velocity": 100
    },
    {
      "time": 17.375,
      "note": 79,
      "duration": 1.0,
      "velocity": 100
    },
    {
      "time": 18.375,
      "note": 86,
      "duration": 0.5,
      "velocity": 100
    },
    {
      "time": 18.875,
      "note": 86,
      "duration": 0.25,
      "velocity": 100
    },
    {
      "time": 19.125,
      "note": 84,
      "duration": 0.25,
      "velocity": 100
    },
    {
      "time": 19.375,
      "note": 84,
      "duration": 0.25,
      "velocity": 100
    },
    {
      "time": 19.625,
      "note": 83,
      "duration": 0.25,
      "velocity": 100
    },
    {
      "time": 19.875,
      "note": 81,
      "duration": 0.5,
      "velocity": 100
    },
    {
      "time": 20.625,
      "note": 72,
      "duration": 0.125,
      "velocity": 100
    },
    {
      "time": 20.75,
      "note": 74,
      "duration": 0.125,
      "velocity": 100
    },
    {
      "time": 20.875,
      "note": 77,
      "duration": 0.5,
      "velocity": 100
    },
    {
      "time": 21.375,
      "note": 72,
      "duration": 0.25,
      "velocity": 100
    },
    {
      "time": 21.875,
      "note": 86,
      "duration": 0.25,
      "velocity": 100
    },
    {
      "time": 22.125,
      "note": 86,
      "duration": 0.25,
      "velocity": 100
    },
    {
      "time": 22.375,
      "note": 86,
      "duration": 0.25,
      "velocity": 100
    },
    {
      "time": 21.625,
      "note": 74,
      "duration": 1.0,
      "velocity": 100
    },
    {
      "time": 22.625,
      "note": 89,
      "duration": 0.5,
      "velocity": 100
    },
    {
      "time": 23.125,
      "note": 89,
      "duration": 0.25,
      "velocity": 100
    },
    {
      "time": 23.375,
      "note": 88,
      "duration": 0.25,
      "velocity": 100
    },
    {
      "time": 23.625,
      "note": 88,
      "duration": 0.25,
      "velocity": 100
    },
    {
      "time": 23.875,
      "note": 86,
      "duration": 0.25,
      "velocity": 100
    },
    {
      "time": 24.125,
      "note": 84,
      "duration": 0.5,
      "velocity": 100
    },
    {
      "time": 24.875,
      "note": 72,
      "duration": 0.125,
      "velocity": 100
    },
    {
      "time": 25.0,
      "note": 74,
      "duration": 0.125,
      "velocity": 100
    },
    {
      "time": 25.125,
      "note": 77,
      "duration": 0.5,
      "velocity": 100
    },
    {
      "time": 25.625,
      "note": 74,
      "duration": 0.25,
      "velocity": 100
    },
    {
      "time": 26.125,
      "note": 88,
      "duration": 0.25,
      "velocity": 100
    },
    {
      "time": 26.375,
      "note": 88,
      "duration": 0.25,
      "velocity": 100
    },
    {
      "time": 26.625,
      "note": 88,
      "duration": 0.25,
      "velocity": 100
    },
    {
      "time": 25.875,
      "note": 76,
      "duration": 1.0,
      "velocity": 100
    },
    {
      "time": 26.875,
      "note": 91,
      "duration": 0.5,
      "velocity": 100
    },
    {
      "time": 27.375,
      "note": 91,
      "duration": 0.25,
      "velocity": 100
    },
    {
      "time": 27.625,
      "note": 91,
      "duration": 0.25,
      "velocity": 100
    },
    {
      "time": 27.875,
      "note": 91,
      "duration": 0.25,
      "velocity": 100
    },
    {
      "time": 28.125,
      "note": 89,
      "duration": 0.125,
      "velocity": 100
    },
    {
      "time": 28.25,
      "note": 88,
      "duration": 0.125,
      "velocity": 100
    },
    {
      "time": 28.375,
      "note": 86,
      "duration": 0.375,
      "velocity": 100
    },
    {
      "time": 28.75,
      "note": 88,
      "duration": 0.125,
      "velocity": 100
    },
    {
      "time": 28.125,
      "note": 69,
      "duration": 0.25,
      "velocity": 100
    },
    {
      "time": 28.375,
      "note": 74,
      "duration": 0.25,
      "velocity": 100
    },
    {
      "time": 28.625,
      "note": 76,
      "duration": 0.25,
      "velocity": 100
    },
    {
      "time": 28.875,
      "note": 89,
      "duration": 1.0,
      "velocity": 100
    },
    {
      "time": 28.875,
      "note": 77,
      "duration": 0.25,
      "velocity": 100
    },
    {
      "time": 29.125,
      "note": 76,
      "duration": 0.25,
      "velocity": 100
    },
    {
      "time": 29.375,
      "note": 74,
      "duration": 0.25,
      "velocity": 100
    },
    {
      "time": 29.625,
      "note": 72,
      "duration": 0.25,
      "velocity": 100
    },
    {
      "time": 30.375,
      "note": 86,
      "duration": 0.25,
      "velocity": 100
    },
    {
      "time": 30.625,
      "note": 86,
      "duration": 0.25,
      "velocity": 100
    },
    {
      "time": 30.875,
      "note": 86,
      "duration": 0.25,
      "velocity": 100
    },
    {
      "time": 29.875,
      "note": 71,
      "duration": 1.0,
      "velocity": 100
    },
    {
      "time": 30.875,
      "note": 89,
      "duration": 0.5,
      "velocity": 100
    },
    {
      "time": 31.375,
      "note": 89,
      "duration": 0.25,
      "velocity": 100
    },
    {
      "time": 31.625,
      "note": 88,
      "duration": 0.25,
      "velocity": 100
    },
    {
      "time": 31.875,
      "note": 88,
      "duration": 0.25,
      "velocity": 100
    },
    {
      "time": 32.125,
      "note": 86,
      "duration": 0.125,
      "velocity": 100
    },
    {
      "time": 32.25,
      "note": 84,
      "duration": 0.125,
      "velocity": 100
    },
    {
      "time": 32.375,
      "note": 84,
      "duration": 0.5,
      "velocity": 100
    },
    {
      "time": 32.125,
      "note": 67,
      "duration": 0.25,
      "velocity": 100
    },
    {
      "time": 32.375,
      "note": 72,
      "duration": 0.25,
      "velocity": 100
    },
    {
      "time": 32.625,
      "note": 74,
      "duration": 0.25,
      "velocity": 100
    },
    {
      "time": 32.875,
      "note": 84,
      "duration": 0.5,
      "velocity": 100
    },
    {
      "time": 32.875,
      "note": 76,
      "duration": 0.25,
      "velocity": 100
    },
    {
      "time": 33.125,
      "note": 74,
      "duration": 0.25,
      "velocity": 100
    },
    {
      "time": 33.375,
      "note": 72,
      "duration": 0.25,
      "velocity": 100
    },
    {
      "time": 33.625,
      "note": 71,
      "duration": 0.25,
      "velocity": 100
    },
    {
      "time": 34.125,
      "note": 83,
      "duration": 0.25,
      "velocity": 100
    },
    {
      "time": 34.375,
      "note": 83,
      "duration": 0.25,
      "velocity": 100
    },
    {
      "time": 34.625,
      "note": 83,
      "duration": 0.25,
      "velocity": 100
    },
    {
      "time": 34.875,
      "note": 88,
      "duration": 0.5,
      "velocity": 100
    },
    {
      "time": 35.375,
      "note": 86,
      "duration": 0.25,
      "velocity": 100
    },
    {
      "time": 35.625,
      "note": 86,
      "duration": 0.25,
      "velocity": 100
    },
    {
      "time": 35.875,
      "note": 86,
      "duration": 0.25,
      "velocity": 100
    },
    {
      "time": 36.125,
      "note": 84,
      "duration": 0.125,
      "velocity": 100
    },
    {
      "time": 36.25,
      "note": 83,
      "duration": 0.125,
      "velocity": 100
    },
    {
      "time": 36.375,
      "note": 81,
      "duration": 0.375,
      "velocity": 100
    },
    {
      "time": 36.75,
      "note": 83,
      "duration": 0.125,
      "velocity": 100
    },
    {
      "time": 36.875,
      "note": 84,
      "duration": 1.0,
      "velocity": 100
    },
    {
      "time": 37.125,
      "note": 72,
      "duration": 0.125,
      "velocity": 100
    },
    {
      "time": 37.25,
      "note": 74,
      "duration": 0.125,
      "velocity": 100
    },
    {
      "time": 37.375,
      "note": 76,
      "duration": 0.25,
      "velocity": 100
    },
    {
      "time": 37.625,
      "note": 72,
      "duration": 0.25,
      "velocity": 100
    },
    {
      "time": 38.75,
      "note": 83,
      "duration": 0.125,
      "velocity": 100
    },
    {
      "time": 37.875,
      "note": 74,
      "duration": 1.0,
      "velocity": 100
    },
    {
      "time": 38.875,
      "note": 83,
      "duration": 0.125,
      "velocity": 100
    },
    {
      "time": 39.0,
      "note": 83,
      "duration": 0.25,
      "velocity": 100
    },
    {
      "time": 39.25,
      "note": 83,
      "duration": 0.125,
      "velocity": 100
    },
    {
      "time": 39.375,
      "note": 81,
      "duration": 0.375,
      "velocity": 100
    },
    {
      "time": 39.75,
      "note": 79,
      "duration": 0.125,
      "velocity": 100
    },
    {
      "time": 39.875,
      "note": 81,
      "duration": 1.0,
      "velocity": 100
    }
  ],
  "chords": [
    {
      "time": 0.0,
      "notes": [
        69,
        72,
        76
      ],
      "duration": 1.595
    },
    {
      "time": 1.595,
      "notes": [
        67,
        71,
        74
      ],
      "duration": 1.595
    },
    {
      "time": 3.19,
      "notes": [
        69,
        72,
        76
      ],
      "duration": 1.595
    },
    {
      "time": 4.785,
      "notes": [
        67,
        71,
        74
      ],
      "duration": 1.595
    },
    {
      "time": 6.38,
      "notes": [
        69,
        72,
        76
      ],
      "duration": 1.595
    },
    {
      "time": 7.975,
      "notes": [
        69,
        72,
        76
      ],
      "duration": 1.595
    },
    {
      "time": 9.57,
      "notes": [
        69,
        72,
        76
      ],
      "duration": 1.595
    },
    {
      "time": 11.165,
      "notes": [
        67,
        71,
        74
      ],
      "duration": 1.595
    },
    {
      "time": 12.76,
      "notes": [
        69,
        72,
        76
      ],
      "duration": 1.595
    },
    {
      "time": 14.355,
      "notes": [
        67,
        71,
        74
      ],
      "duration": 1.595
    },
    {
      "time": 15.95,
      "notes": [
        69,
        72,
        76
      ],
      "duration": 1.595
    },
    {
      "time": 17.544999999999998,
      "notes": [
        64,
        68,
        71,
        74
      ],
      "duration": 1.595
    },
    {
      "time": 19.14,
      "notes": [
        65,
        69,
        72
      ],
      "duration": 1.595
    },
    {
      "time": 20.735,
      "notes": [
        67,
        71,
        74
      ],
      "duration": 1.595
    },
    {
      "time": 22.33,
      "notes": [
        60,
        64,
        67
      ],
      "duration": 1.595
    },
    {
      "time": 23.925,
      "notes": [
        69,
        73,
        76
      ],
      "duration": 1.595
    },
    {
      "time": 25.52,
      "notes": [
        62,
        65,
        69
      ],
      "duration": 1.595
    },
    {
      "time": 27.115,
      "notes": [
        67,
        71,
        74,
        77
      ],
      "duration": 1.595
    },
    {
      "time": 28.71,
      "notes": [
        60,
        64,
        67
      ],
      "duration": 1.595
    },
    {
      "time": 30.305,
      "notes": [
        64,
        68,
        71,
        74
      ],
      "duration": 1.595
    },
    {
      "time": 31.9,
      "notes": [
        65,
        69,
        72
      ],
      "duration": 1.595
    },
    {
      "time": 33.495,
      "notes": [
        67,
        71,
        74
      ],
      "duration": 1.595
    },
    {
      "time": 35.089999999999996,
      "notes": [
        62,
        66,
        69
      ],
      "duration": 1.595
    },
    {
      "time": 36.685,
      "notes": [
        60,
        64,
        67
      ],
      "duration": 1.595
    },
    {
      "time": 38.28,
      "notes": [
        69,
        72,
        76
      ],
      "duration": 1.595
    }
  ]
}