{
  "title": "No es mi despedida",
  "artist": "Gilda",
  "bpm": 120,
  "duration": 41.25,
  "audioFile": "",
  "notes": [
    {
      "time": 0.0,
      "note": 86,
      "duration": 0.125,
      "velocity": 100
    },
    {
      "time": 0.125,
      "note": 84,
      "duration": 0.125,
      "velocity": 100
    },
    {
      "time": 0.25,
      "note": 83,
      "duration": 0.25,
      "velocity": 100
    },
    {
      "time": 0.5,
      "note": 83,
      "duration": 0.25,
      "velocity": 100
    },
    {
      "time": 0.875,
      "note": 83,
      "duration": 0.125,
      "velocity": 100
    },
    {
      "time": 1.0,
      "note": 86,
      "duration": 0.125,
      "velocity": 100
    },
    {
      "time": 1.125,
      "note": 86,
      "duration": 0.125,
      "velocity": 100
    },
    {
      "time": 1.25,
      "note": 83,
      "duration": 0.125,
      "velocity": 100
    },
    {
      "time": 1.375,
      "note": 83,
      "duration": 0.125,
      "velocity": 100
    },
    {
      "time": 1.5,
      "note": 86,
      "duration": 0.25,
      "velocity": 100
    },
    {
      "time": 1.75,
      "note": 89,
      "duration": 0.125,
      "velocity": 100
    },
    {
      "time": 1.875,
      "note": 88,
      "duration": 0.125,
      "velocity": 100
    },
    {
      "time": 2.0,
      "note": 88,
      "duration": 1.0,
      "velocity": 100
    },
    {
      "time": 3.0,
      "note": 81,
      "duration": 0.125,
      "velocity": 100
    },
    {
      "time": 3.125,
      "note": 84,
      "duration": 0.125,
      "velocity": 100
    },
    {
      "time": 3.25,
      "note": 88,
      "duration": 0.125,
      "velocity": 100
    },
    {
      "time": 3.375,
      "note": 93,
      "duration": 0.125,
      "velocity": 100
    },
    {
      "time": 3.5,
      "note": 81,
      "duration": 0.125,
      "velocity": 100
    },
    {
      "time": 3.625,
      "note": 84,
      "duration": 0.125,
      "velocity": 100
    },
    {
      "time": 3.75,
      "note": 88,
      "duration": 0.125,
      "velocity": 100
    },
    {
      "time": 3.875,
      "note": 93,
      "duration": 0.125,
      "velocity": 100
    },
    {
      "time": 4.0,
      "note": 81,
      "duration": 0.125,
      "velocity": 100
    },
    {
      "time": 4.125,
      "note": 84,
      "duration": 0.125,
      "velocity": 100
    },
    {
      "time": 4.25,
      "note": 88,
      "duration": 0.125,
      "velocity": 100
    },
    {
      "time": 4.375,
      "note": 93,
      "duration": 0.125,
      "velocity": 100
    },
    {
      "time": 4.5,
      "note": 81,
      "duration": 0.125,
      "velocity": 100
    },
    {
      "time": 4.625,
      "note": 84,
      "duration": 0.125,
      "velocity": 100
    },
    {
      "time": 4.75,
      "note": 88,
      "duration": 0.125,
      "velocity": 100
    },
    {
      "time": 5.375,
      "note": 81,
      "duration": 0.125,
      "velocity": 100
    },
    {
      "time": 5.5,
      "note": 86,
      "duration": 0.125,
      "velocity": 100
    },
    {
      "time": 5.625,
      "note": 89,
      "duration": 0.125,
      "velocity": 100
    },
    {
      "time": 5.75,
      "note": 93,
      "duration": 0.125,
      "velocity": 100
    },
    {
      "time": 5.875,
      "note": 93,
      "duration": 0.125,
      "velocity": 100
    },
    {
      "time": 6.0,
      "note": 93,
      "duration": 0.125,
      "velocity": 100
    },
    {
      "time": 6.125,
      "note": 93,
      "duration": 0.125,
      "velocity": 100
    },
    {
      "time": 6.25,
      "note": 93,
      "duration": 0.125,
      "velocity": 100
    },
    {
      "time": 6.375,
      "note": 93,
      "duration": 0.125,
      "velocity": 100
    },
    {
      "time": 6.5,
      "note": 93,
      "duration": 0.125,
      "velocity": 100
    },
    {
      "time": 6.625,
      "note": 93,
      "duration": 0.125,
      "velocity": 100
    },
    {
      "time": 6.75,
      "note": 93,
      "duration": 0.25,
      "velocity": 100
    },
    {
      "time": 7.0,
      "note": 95,
      "duration": 0.125,
      "velocity": 100
    },
    {
      "time": 7.125,
      "note": 93,
      "duration": 0.125,
      "velocity": 100
    },
    {
      "time": 7.375,
      "note": 81,
      "duration": 0.125,
      "velocity": 100
    },
    {
      "time": 7.5,
      "note": 84,
      "duration": 0.125,
      "velocity": 100
    },
    {
      "time": 7.625,
      "note": 88,
      "duration": 0.125,
      "velocity": 100
    },
    {
      "time": 7.75,
      "note": 91,
      "duration": 0.125,
      "velocity": 100
    },
    {
      "time": 7.875,
      "note": 91,
      "duration": 0.125,
      "velocity": 100
    },
    {
      "time": 8.0,
      "note": 91,
      "duration": 0.125,
      "velocity": 100
    },
    {
      "time": 8.125,
      "note": 91,
      "duration": 0.125,
      "velocity": 100
    },
    {
      "time": 8.25,
      "note": 91,
      "duration": 0.125,
      "velocity": 100
    },
    {
      "time": 8.375,
      "note": 91,
      "duration": 0.125,
      "velocity": 100
    },
    {
      "time": 8.5,
      "note": 91,
      "duration": 0.125,
      "velocity": 100
    },
    {
      "time": 8.625,
      "note": 91,
      "duration": 0.125,
      "velocity": 100
    },
    {
      "time": 8.75,
      "note": 91,
      "duration": 0.25,
      "velocity": 100
    },
    {
      "time": 9.0,
      "note": 88,
      "duration": 0.125,
      "velocity": 100
    },
    {
      "time": 9.125,
      "note": 89,
      "duration": 0.125,
      "velocity": 100
    },
    {
      "time": 9.375,
      "note": 77,
      "duration": 0.125,
      "velocity": 100
    },
    {
      "time": 9.5,
      "note": 83,
      "duration": 0.125,
      "velocity": 100
    },
    {
      "time": 9.625,
      "note": 86,
      "duration": 0.125,
      "velocity": 100
    },
    {
      "time": 9.75,
      "note": 89,
      "duration": 0.125,
      "velocity": 100
    },
    {
      "time": 9.875,
      "note": 89,
      "duration": 0.125,
      "velocity": 100
    },
    {
      "time": 10.0,
      "note": 89,
      "duration": 0.125,
      "velocity": 100
    },
    {
      "time": 10.125,
      "note": 89,
      "duration": 0.125,
      "velocity": 100
    },
    {
      "time": 10.25,
      "note": 89,
      "duration": 0.125,
      "velocity": 100
    },
    {
      "time": 10.375,
      "note": 89,
      "duration": 0.125,
      "velocity": 100
    },
    {
      "time": 10.5,
      "note": 89,
      "duration": 0.125,
      "velocity": 100
    },
    {
      "time": 10.625,
      "note": 89,
      "duration": 0.125,
      "velocity": 100
    },
    {
      "time": 10.75,
      "note": 89,
      "duration": 0.25,
      "velocity": 100
    },
    {
      "time": 11.0,
      "note": 86,
      "duration": 0.125,
      "velocity": 100
    },
    {
      "time": 11.125,
      "note": 88,
      "duration": 0.125,
      "velocity": 100
    },
    {
      "time": 11.25,
      "note": 88,
      "duration": 0.5,
      "velocity": 100
    },
    {
      "time": 11.75,
      "note": 88,
      "duration": 0.125,
      "velocity": 100
    },
    {
      "time": 11.875,
      "note": 86,
      "duration": 0.125,
      "velocity": 100
    },
    {
      "time": 12.0,
      "note": 88,
      "duration": 0.125,
      "velocity": 100
    },
    {
      "time": 12.125,
      "note": 86,
      "duration": 0.125,
      "velocity": 100
    },
    {
      "time": 12.25,
      "note": 84,
      "duration": 1.0,
      "velocity": 100
    },
    {
      "time": 13.25,
      "note": 77,
      "duration": 0.25,
      "velocity": 100
    },
    {
      "time": 13.5,
      "note": 81,
      "duration": 0.125,
      "velocity": 100
    },
    {
      "time": 13.625,
      "note": 86,
      "duration": 0.125,
      "velocity": 100
    },
    {
      "time": 13.75,
      "note": 86,
      "duration": 0.125,
      "velocity": 100
    },
    {
      "time": 13.875,
      "note": 81,
      "duration": 0.25,
      "velocity": 100
    },
    {
      "time": 14.125,
      "note": 74,
      "duration": 0.125,
      "velocity": 100
    },
    {
      "time": 14.25,
      "note": 77,
      "duration": 0.25,
      "velocity": 100
    },
    {
      "time": 14.5,
      "note": 72,
      "duration": 0.25,
      "velocity": 100
    },
    {
      "time": 14.75,
      "note": 74,
      "duration": 0.25,
      "velocity": 100
    },
    {
      "time": 15.0,
      "note": 76,
      "duration": 0.25,
      "velocity": 100
    },
    {
      "time": 15.5,
      "note": 77,
      "duration": 0.375,
      "velocity": 100
    },
    {
      "time": 15.875,
      "note": 76,
      "duration": 0.125,
      "velocity": 100
    },
    {
      "time": 16.0,
      "note": 77,
      "duration": 0.125,
      "velocity": 100
    },
    {
      "time": 16.125,
      "note": 76,
      "duration": 0.125,
      "velocity": 100
    },
    {
      "time": 16.25,
      "note": 77,
      "duration": 0.125,
      "velocity": 100
    },
    {
      "time": 16.375,
      "note": 74,
      "duration": 0.125,
      "velocity": 100
    },
    {
      "time": 16.5,
      "note": 76,
      "duration": 1.0,
      "velocity": 100
    },
    {
      "time": 17.625,
      "note": 79,
      "duration": 0.25,
      "velocity": 100
    },
    {
      "time": 17.875,
      "note": 79,
      "duration": 0.125,
      "velocity": 100
    },
    {
      "time": 18.0,
      "note": 79,
      "duration": 0.125,
      "velocity": 100
    },
    {
      "time": 18.125,
      "note": 79,
      "duration": 0.25,
      "velocity": 100
    },
    {
      "time": 18.375,
      "note": 79,
      "duration": 0.125,
      "velocity": 100
    },
    {
      "time": 18.5,
      "note": 79,
      "duration": 0.375,
      "velocity": 100
    },
    {
      "time": 18.875,
      "note": 77,
      "duration": 0.125,
      "velocity": 100
    },
    {
      "time": 19.0,
      "note": 77,
      "duration": 0.25,
      "velocity": 100
    },
    {
      "time": 19.25,
      "note": 69,
      "duration": 0.25,
      "velocity": 100
    },
    {
      "time": 19.125,
      "note": 91,
      "duration": 0.25,
      "velocity": 100
    },
    {
      "time": 19.375,
      "note": 95,
      "duration": 0.25,
      "velocity": 100
    },
    {
      "time": 19.375,
      "note": 89,
      "duration": 0.25,
      "velocity": 100
    },
    {
      "time": 19.625,
      "note": 93,
      "duration": 0.25,
      "velocity": 100
    },
    {
      "time": 19.625,
      "note": 77,
      "duration": 0.375,
      "velocity": 100
    },
    {
      "time": 20.0,
      "note": 76,
      "duration": 0.125,
      "velocity": 100
    },
    {
      "time": 20.125,
      "note": 77,
      "duration": 0.125,
      "velocity": 100
    },
    {
      "time": 20.25,
      "note": 76,
      "duration": 0.125,
      "velocity": 100
    },
    {
      "time": 20.375,
      "note": 77,
      "duration": 0.125,
      "velocity": 100
    },
    {
      "time": 20.5,
      "note": 74,
      "duration": 0.125,
      "velocity": 100
    },
    {
      "time": 20.625,
      "note": 76,
      "duration": 0.375,
      "velocity": 100
    },
    {
      "time": 21.0,
      "note": 76,
      "duration": 0.125,
      "velocity": 100
    },
    {
      "time": 21.125,
      "note": 76,
      "duration": 0.5,
      "velocity": 100
    },
    {
      "time": 21.75,
      "note": 79,
      "duration": 0.25,
      "velocity": 100
    },
    {
      "time": 22.0,
      "note": 79,
      "duration": 0.125,
      "velocity": 100
    },
    {
      "time": 22.125,
      "note": 79,
      "duration": 0.125,
      "velocity": 100
    },
    {
      "time": 22.25,
      "note": 79,
      "duration": 0.25,
      "velocity": 100
    },
    {
      "time": 22.5,
      "note": 79,
      "duration": 0.125,
      "velocity": 100
    },
    {
      "time": 22.625,
      "note": 79,
      "duration": 0.375,
      "velocity": 100
    },
    {
      "time": 23.0,
      "note": 77,
      "duration": 0.125,
      "velocity": 100
    },
    {
      "time": 23.125,
      "note": 77,
      "duration": 0.25,
      "velocity": 100
    },
    {
      "time": 23.375,
      "note": 69,
      "duration": 0.25,
      "velocity": 100
    },
    {
      "time": 23.0,
      "note": 86,
      "duration": 0.125,
      "velocity": 100
    },
    {
      "time": 23.25,
      "note": 88,
      "duration": 0.25,
      "velocity": 100
    },
    {
      "time": 23.5,
      "note": 91,
      "duration": 0.25,
      "velocity": 100
    },
    {
      "time": 23.5,
      "note": 86,
      "duration": 0.25,
      "velocity": 100
    },
    {
      "time": 23.75,
      "note": 89,
      "duration": 0.25,
      "velocity": 100
    },
    {
      "time": 23.75,
      "note": 77,
      "duration": 0.375,
      "velocity": 100
    },
    {
      "time": 24.125,
      "note": 76,
      "duration": 0.125,
      "velocity": 100
    },
    {
      "time": 24.25,
      "note": 77,
      "duration": 0.125,
      "velocity": 100
    },
    {
      "time": 24.375,
      "note": 76,
      "duration": 0.125,
      "velocity": 100
    },
    {
      "time": 24.5,
      "note": 77,
      "duration": 0.125,
      "velocity": 100
    },
    {
      "time": 24.625,
      "note": 74,
      "duration": 0.125,
      "velocity": 100
    },
    {
      "time": 24.75,
      "note": 76,
      "duration": 0.375,
      "velocity": 100
    },
    {
      "time": 25.125,
      "note": 74,
      "duration": 0.125,
      "velocity": 100
    },
    {
      "time": 25.25,
      "note": 76,
      "duration": 0.125,
      "velocity": 100
    },
    {
      "time": 25.375,
      "note": 74,
      "duration": 0.125,
      "velocity": 100
    },
    {
      "time": 25.5,
      "note": 76,
      "duration": 0.125,
      "velocity": 100
    },
    {
      "time": 25.625,
      "note": 72,
      "duration": 0.125,
      "velocity": 100
    },
    {
      "time": 25.75,
      "note": 74,
      "duration": 0.25,
      "velocity": 100
    },
    {
      "time": 26.0,
      "note": 74,
      "duration": 0.25,
      "velocity": 100
    },
    {
      "time": 26.25,
      "note": 74,
      "duration": 0.125,
      "velocity": 100
    },
    {
      "time": 26.375,
      "note": 71,
      "duration": 0.25,
      "velocity": 100
    },
    {
      "time": 26.625,
      "note": 74,
      "duration": 0.125,
      "velocity": 100
    },
    {
      "time": 26.75,
      "note": 86,
      "duration": 0.5,
      "velocity": 100
    },
    {
      "time": 26.75,
      "note": 77,
      "duration": 0.25,
      "velocity": 100
    },
    {
      "time": 27.0,
      "note": 76,
      "duration": 0.25,
      "velocity": 100
    },
    {
      "time": 27.25,
      "note": 74,
      "duration": 0.25,
      "velocity": 100
    },
    {
      "time": 27.5,
      "note": 72,
      "duration": 0.25,
      "velocity": 100
    },
    {
      "time": 28.0,
      "note": 74,
      "duration": 0.25,
      "velocity": 100
    },
    {
      "time": 28.25,
      "note": 74,
      "duration": 0.25,
      "velocity": 100
    },
    {
      "time": 28.5,
      "note": 74,
      "duration": 0.125,
      "velocity": 100
    },
    {
      "time": 28.625,
      "note": 71,
      "duration": 0.25,
      "velocity": 100
    },
    {
      "time": 28.875,
      "note": 74,
      "duration": 0.125,
      "velocity": 100
    },
    {
      "time": 28.0,
      "note": 83,
      "duration": 1.0,
      "velocity": 100
    },
    {
      "time": 29.0,
      "note": 91,
      "duration": 0.5,
      "velocity": 100
    },
    {
      "time": 29.5,
      "note": 89,
      "duration": 0.5,
      "velocity": 100
    },
    {
      "time": 29.0,
      "note": 77,
      "duration": 0.25,
      "velocity": 100
    },
    {
      "time": 29.25,
      "note": 76,
      "duration": 0.25,
      "velocity": 100
    },
    {
      "time": 29.5,
      "note": 76,
      "duration": 0.125,
      "velocity": 100
    },
    {
      "time": 29.625,
      "note": 74,
      "duration": 0.25,
      "velocity": 100
    },
    {
      "time": 29.875,
      "note": 76,
      "duration": 0.125,
      "velocity": 100
    },
    {
      "time": 30.0,
      "note": 88,
      "duration": 1.0,
      "velocity": 100
    },
    {
      "time": 30.0,
      "note": 76,
      "duration": 1.0,
      "velocity": 100
    },
    {
      "time": 31.0,
      "note": 76,
      "duration": 0.5,
      "velocity": 100
    },
    {
      "time": 31.75,
      "note": 69,
      "duration": 0.25,
      "velocity": 100
    },
    {
      "time": 32.25,
      "note": 77,
      "duration": 0.75,
      "velocity": 100
    },
    {
      "time": 33.0,
      "note": 81,
      "duration": 0.25,
      "velocity": 100
    },
    {
      "time": 33.25,
      "note": 76,
      "duration": 1.0,
      "velocity": 100
    },
    {
      "time": 34.25,
      "note": 74,
      "duration": 0.75,
      "velocity": 100
    },
    {
      "time": 35.0,
      "note": 77,
      "duration": 0.25,
      "velocity": 100
    },
    {
      "time": 35.75,
      "note": 72,
      "duration": 0.25,
      "velocity": 100
    },
    {
      "time": 36.0,
      "note": 71,
      "duration": 0.125,
      "velocity": 100
    },
    {
      "time": 36.125,
      "note": 69,
      "duration": 0.125,
      "velocity": 100
    },
    {
      "time": 36.25,
      "note": 69,
      "duration": 0.5,
      "velocity": 100
    },
    {
      "time": 36.75,
      "note": 79,
      "duration": 0.75,
      "velocity": 100
    },
    {
      "time": 37.5,
      "note": 74,
      "duration": 0.5,
      "velocity": 100
    },
    {
      "time": 38.0,
      "note": 83,
      "duration": 0.5,
      "velocity": 100
    },
    {
      "time": 38.0,
      "note": 77,
      "duration": 0.75,
      "velocity": 100
    },
    {
      "time": 38.75,
      "note": 71,
      "duration": 0.25,
      "velocity": 100
    },
    {
      "time": 39.0,
      "note": 76,
      "duration": 0.5,
      "velocity": 100
    },
    {
      "time": 39.5,
      "note": 74,
      "duration": 0.25,
      "velocity": 100
    },
    {
      "time": 39.75,
      "note": 76,
      "duration": 0.25,
      "velocity": 100
    },
    {
      "time": 39.75,
      "note": 81,
      "duration": 0.125,
      "velocity": 100
    },
    {
      "time": 39.875,
      "note": 84,
      "duration": 0.125,
      "velocity": 100
    },
    {
      "time": 39.875,
      "note": 84,
      "duration": 0.25,
      "velocity": 100
    },
    {
      "time": 40.125,
      "note": 88,
      "duration": 0.25,
      "velocity": 100
    },
    {
      "time": 40.125,
      "note": 84,
      "duration": 0.25,
      "velocity": 100
    },
    {
      "time": 40.375,
      "note": 88,
      "duration": 0.25,
      "velocity": 100
    },
    {
      "time": 40.375,
      "note": 84,
      "duration": 0.25,
      "velocity": 100
    },
    {
      "time": 40.625,
      "note": 88,
      "duration": 0.25,
      "velocity": 100
    },
    {
      "time": 40.625,
      "note": 88,
      "duration": 0.25,
      "velocity": 100
    },
    {
      "time": 40.875,
      "note": 93,
      "duration": 0.25,
      "velocity": 100
    },
    {
      "time": 40.125,
      "note": 76,
      "duration": 0.25,
      "velocity": 100
    },
    {
      "time": 40.375,
      "note": 72,
      "duration": 0.25,
      "velocity": 100
    },
    {
      "time": 40.625,
      "note": 74,
      "duration": 0.25,
      "velocity": 100
    },
    {
      "time": 40.875,
      "note": 76,
      "duration": 0.25,
      "velocity": 100
    },
    {
      "time": 40.75,
      "note": 88,
      "duration": 0.25,
      "velocity": 100
    },
    {
      "time": 41.0,
      "note": 93,
      "duration": 0.25,
      "velocity": 100
    },
    {
      "time": 41.0,
      "note": 88,
      "duration": 0.25,
      "velocity": 100
    },
    {
      "time": 41.25,
      "note": 93,
      "duration": 0.25,
      "velocity": 100
    }
  ],
  "chords": [
    {
      "time": 0.0,
      "notes": [
        71,
        74,
        78
      ],
      "duration": 1.5277777777777777
    },
    {
      "time": 1.5277777777777777,
      "notes": [
        69,
        73,
        76
      ],
      "duration": 1.5277777777777777
    },
    {
      "time": 3.0555555555555554,
      "notes": [
        62,
        66,
        69
      ],
      "duration": 1.5277777777777777
    },
    {
      "time": 4.583333333333333,
      "notes": [
        69,
        73,
        76
      ],
      "duration": 1.5277777777777777
    },
    {
      "time": 6.111111111111111,
      "notes": [
        71,
        74,
        78
      ],
      "duration": 1.5277777777777777
    },
    {
      "time": 7.638888888888888,
      "notes": [
        69,
        73,
        76
      ],
      "duration": 1.5277777777777777
    },
    {
      "time": 9.166666666666666,
      "notes": [
        62,
        66,
        69
      ],
      "duration": 1.5277777777777777
    },
    {
      "time": 10.694444444444443,
      "notes": [
        62,
        66,
        69
      ],
      "duration": 1.5277777777777777
    },
    {
      "time": 12.222222222222221,
      "notes": [
        69,
        73,
        76
      ],
      "duration": 1.5277777777777777
    },
    {
      "time": 13.75,
      "notes": [
        67,
        71,
        74
      ],
      "duration": 1.5277777777777777
    },
    {
      "time": 15.277777777777777,
      "notes": [
        62,
        66,
        69
      ],
      "duration": 1.5277777777777777
    },
    {
      "time": 16.805555555555554,
      "notes": [
        69,
        73,
        76
      ],
      "duration": 1.5277777777777777
    },
    {
      "time": 18.333333333333332,
      "notes": [
        67,
        71,
        74
      ],
      "duration": 1.5277777777777777
    },
    {
      "time": 19.86111111111111,
      "notes": [
        62,
        66,
        69
      ],
      "duration": 1.5277777777777777
    },
    {
      "time": 21.388888888888886,
      "notes": [
        62,
        66,
        69
      ],
      "duration": 1.5277777777777777
    },
    {
      "time": 22.916666666666664,
      "notes": [
        69,
        73,
        76
      ],
      "duration": 1.5277777777777777
    },
    {
      "time": 24.444444444444443,
      "notes": [
        71,
        74,
        78
      ],
      "duration": 1.5277777777777777
    },
    {
      "time": 25.97222222222222,
      "notes": [
        67,
        71,
        74
      ],
      "duration": 1.5277777777777777
    },
    {
      "time": 27.5,
      "notes": [
        69,
        73,
        76,
        79
      ],
      "duration": 1.5277777777777777
    },
    {
      "time": 29.027777777777775,
      "notes": [
        62,
        66,
        69
      ],
      "duration": 1.5277777777777777
    },
    {
      "time": 30.555555555555554,
      "notes": [
        69,
        73,
        76
      ],
      "duration": 1.5277777777777777
    },
    {
      "time": 32.08333333333333,
      "notes": [
        71,
        74,
        78
      ],
      "duration": 1.5277777777777777
    },
    {
      "time": 33.61111111111111,
      "notes": [
        66,
        69,
        73
      ],
      "duration": 1.5277777777777777
    },
    {
      "time": 35.138888888888886,
      "notes": [
        64,
        67,
        71
      ],
      "duration": 1.5277777777777777
    },
    {
      "time": 36.666666666666664,
      "notes": [
        71,
        75,
        78
      ],
      "duration": 1.5277777777777777
    },
    {
      "time": 38.19444444444444,
      "notes": [
        64,
        67,
        71
      ],
      "duration": 1.5277777777777777
    },
    {
      "time": 39.72222222222222,
      "notes": [
        69,
        73,
        76
      ],
      "duration": 1.5277777777777777
    }
  ]
}