{
  "title": "ú",
  "artist": "Pega la vuelta",
  "bpm": 120,
  "duration": 28.875,
  "audioFile": "",
  "notes": [
    {
      "time": 0.0,
      "note": 40,
      "duration": 0.5,
      "velocity": 100
    },
    {
      "time": 0.5,
      "note": 43,
      "duration": 0.125,
      "velocity": 100
    },
    {
      "time": 0.625,
      "note": 45,
      "duration": 0.125,
      "velocity": 100
    },
    {
      "time": 0.75,
      "note": 47,
      "duration": 0.125,
      "velocity": 100
    },
    {
      "time": 0.75,
      "note": 40,
      "duration": 0.125,
      "velocity": 100
    },
    {
      "time": 0.875,
      "note": 40,
      "duration": 0.125,
      "velocity": 100
    },
    {
      "time": 1.0,
      "note": 40,
      "duration": 0.25,
      "velocity": 100
    },
    {
      "time": 1.25,
      "note": 40,
      "duration": 0.125,
      "velocity": 100
    },
    {
      "time": 1.375,
      "note": 43,
      "duration": 0.125,
      "velocity": 100
    },
    {
      "time": 1.5,
      "note": 43,
      "duration": 0.125,
      "velocity": 100
    },
    {
      "time": 1.625,
      "note": 45,
      "duration": 0.125,
      "velocity": 100
    },
    {
      "time": 1.625,
      "note": 47,
      "duration": 0.25,
      "velocity": 100
    },
    {
      "time": 1.875,
      "note": 38,
      "duration": 0.25,
      "velocity": 100
    },
    {
      "time": 2.125,
      "note": 38,
      "duration": 0.125,
      "velocity": 100
    },
    {
      "time": 2.25,
      "note": 38,
      "duration": 0.125,
      "velocity": 100
    },
    {
      "time": 2.375,
      "note": 41,
      "duration": 0.125,
      "velocity": 100
    },
    {
      "time": 2.5,
      "note": 43,
      "duration": 0.125,
      "velocity": 100
    },
    {
      "time": 2.625,
      "note": 45,
      "duration": 0.125,
      "velocity": 100
    },
    {
      "time": 2.625,
      "note": 38,
      "duration": 0.125,
      "velocity": 100
    },
    {
      "time": 2.75,
      "note": 38,
      "duration": 0.125,
      "velocity": 100
    },
    {
      "time": 2.875,
      "note": 38,
      "duration": 0.25,
      "velocity": 100
    },
    {
      "time": 3.125,
      "note": 38,
      "duration": 0.125,
      "velocity": 100
    },
    {
      "time": 3.25,
      "note": 41,
      "duration": 0.125,
      "velocity": 100
    },
    {
      "time": 3.375,
      "note": 41,
      "duration": 0.125,
      "velocity": 100
    },
    {
      "time": 3.5,
      "note": 43,
      "duration": 0.125,
      "velocity": 100
    },
    {
      "time": 3.625,
      "note": 41,
      "duration": 0.125,
      "velocity": 100
    },
    {
      "time": 3.75,
      "note": 40,
      "duration": 0.25,
      "velocity": 100
    },
    {
      "time": 4.0,
      "note": 40,
      "duration": 0.125,
      "velocity": 100
    },
    {
      "time": 4.125,
      "note": 40,
      "duration": 0.125,
      "velocity": 100
    },
    {
      "time": 4.25,
      "note": 43,
      "duration": 0.125,
      "velocity": 100
    },
    {
      "time": 4.375,
      "note": 45,
      "duration": 0.125,
      "velocity": 100
    },
    {
      "time": 4.375,
      "note": 47,
      "duration": 0.25,
      "velocity": 100
    },
    {
      "time": 4.625,
      "note": 40,
      "duration": 0.125,
      "velocity": 100
    },
    {
      "time": 4.75,
      "note": 40,
      "duration": 0.375,
      "velocity": 100
    },
    {
      "time": 5.125,
      "note": 40,
      "duration": 0.125,
      "velocity": 100
    },
    {
      "time": 5.25,
      "note": 40,
      "duration": 0.125,
      "velocity": 100
    },
    {
      "time": 5.375,
      "note": 40,
      "duration": 0.25,
      "velocity": 100
    },
    {
      "time": 5.625,
      "note": 40,
      "duration": 0.125,
      "velocity": 100
    },
    {
      "time": 5.75,
      "note": 40,
      "duration": 0.375,
      "velocity": 100
    },
    {
      "time": 6.125,
      "note": 47,
      "duration": 0.125,
      "velocity": 100
    },
    {
      "time": 6.25,
      "note": 45,
      "duration": 0.25,
      "velocity": 100
    },
    {
      "time": 6.5,
      "note": 43,
      "duration": 0.125,
      "velocity": 100
    },
    {
      "time": 6.625,
      "note": 45,
      "duration": 0.125,
      "velocity": 100
    },
    {
      "time": 6.75,
      "note": 45,
      "duration": 0.125,
      "velocity": 100
    },
    {
      "time": 6.875,
      "note": 47,
      "duration": 0.125,
      "velocity": 100
    },
    {
      "time": 7.0,
      "note": 45,
      "duration": 0.125,
      "velocity": 100
    },
    {
      "time": 7.125,
      "note": 43,
      "duration": 0.125,
      "velocity": 100
    },
    {
      "time": 7.25,
      "note": 47,
      "duration": 0.25,
      "velocity": 100
    },
    {
      "time": 7.5,
      "note": 45,
      "duration": 0.25,
      "velocity": 100
    },
    {
      "time": 7.75,
      "note": 45,
      "duration": 0.375,
      "velocity": 100
    },
    {
      "time": 8.125,
      "note": 45,
      "duration": 0.125,
      "velocity": 100
    },
    {
      "time": 8.25,
      "note": 43,
      "duration": 0.25,
      "velocity": 100
    },
    {
      "time": 8.5,
      "note": 41,
      "duration": 0.125,
      "velocity": 100
    },
    {
      "time": 8.625,
      "note": 43,
      "duration": 0.125,
      "velocity": 100
    },
    {
      "time": 8.75,
      "note": 43,
      "duration": 0.125,
      "velocity": 100
    },
    {
      "time": 8.875,
      "note": 45,
      "duration": 0.125,
      "velocity": 100
    },
    {
      "time": 9.0,
      "note": 43,
      "duration": 0.125,
      "velocity": 100
    },
    {
      "time": 9.125,
      "note": 41,
      "duration": 0.125,
      "velocity": 100
    },
    {
      "time": 9.25,
      "note": 45,
      "duration": 0.25,
      "velocity": 100
    },
    {
      "time": 9.5,
      "note": 43,
      "duration": 0.25,
      "velocity": 100
    },
    {
      "time": 9.75,
      "note": 43,
      "duration": 0.375,
      "velocity": 100
    },
    {
      "time": 10.125,
      "note": 43,
      "duration": 0.125,
      "velocity": 100
    },
    {
      "time": 10.25,
      "note": 43,
      "duration": 0.125,
      "velocity": 100
    },
    {
      "time": 10.375,
      "note": 43,
      "duration": 0.25,
      "velocity": 100
    },
    {
      "time": 10.625,
      "note": 43,
      "duration": 0.125,
      "velocity": 100
    },
    {
      "time": 10.875,
      "note": 50,
      "duration": 0.25,
      "velocity": 100
    },
    {
      "time": 11.125,
      "note": 53,
      "duration": 0.25,
      "velocity": 100
    },
    {
      "time": 11.125,
      "note": 50,
      "duration": 0.125,
      "velocity": 100
    },
    {
      "time": 11.25,
      "note": 53,
      "duration": 0.125,
      "velocity": 100
    },
    {
      "time": 11.25,
      "note": 50,
      "duration": 0.25,
      "velocity": 100
    },
    {
      "time": 11.5,
      "note": 55,
      "duration": 0.25,
      "velocity": 100
    },
    {
      "time": 11.5,
      "note": 47,
      "duration": 0.25,
      "velocity": 100
    },
    {
      "time": 11.75,
      "note": 57,
      "duration": 0.25,
      "velocity": 100
    },
    {
      "time": 11.75,
      "note": 47,
      "duration": 0.5,
      "velocity": 100
    },
    {
      "time": 12.25,
      "note": 59,
      "duration": 0.5,
      "velocity": 100
    },
    {
      "time": 12.25,
      "note": 50,
      "duration": 0.125,
      "velocity": 100
    },
    {
      "time": 12.375,
      "note": 50,
      "duration": 0.25,
      "velocity": 100
    },
    {
      "time": 12.625,
      "note": 50,
      "duration": 0.125,
      "velocity": 100
    },
    {
      "time": 12.75,
      "note": 50,
      "duration": 0.125,
      "velocity": 100
    },
    {
      "time": 12.875,
      "note": 50,
      "duration": 0.25,
      "velocity": 100
    },
    {
      "time": 13.125,
      "note": 47,
      "duration": 0.125,
      "velocity": 100
    },
    {
      "time": 13.25,
      "note": 47,
      "duration": 0.125,
      "velocity": 100
    },
    {
      "time": 13.375,
      "note": 45,
      "duration": 0.25,
      "velocity": 100
    },
    {
      "time": 13.625,
      "note": 43,
      "duration": 0.125,
      "velocity": 100
    },
    {
      "time": 13.75,
      "note": 43,
      "duration": 0.375,
      "velocity": 100
    },
    {
      "time": 14.125,
      "note": 40,
      "duration": 0.125,
      "velocity": 100
    },
    {
      "time": 14.25,
      "note": 43,
      "duration": 0.25,
      "velocity": 100
    },
    {
      "time": 14.5,
      "note": 47,
      "duration": 0.25,
      "velocity": 100
    },
    {
      "time": 14.75,
      "note": 52,
      "duration": 0.5,
      "velocity": 100
    },
    {
      "time": 15.25,
      "note": 55,
      "duration": 1.0,
      "velocity": 100
    },
    {
      "time": 14.75,
      "note": 45,
      "duration": 1.0,
      "velocity": 100
    },
    {
      "time": 15.25,
      "note": 50,
      "duration": 0.125,
      "velocity": 100
    },
    {
      "time": 15.375,
      "note": 50,
      "duration": 0.25,
      "velocity": 100
    },
    {
      "time": 15.625,
      "note": 52,
      "duration": 0.125,
      "velocity": 100
    },
    {
      "time": 15.75,
      "note": 52,
      "duration": 0.125,
      "velocity": 100
    },
    {
      "time": 15.875,
      "note": 52,
      "duration": 0.125,
      "velocity": 100
    },
    {
      "time": 16.0,
      "note": 50,
      "duration": 0.125,
      "velocity": 100
    },
    {
      "time": 16.125,
      "note": 50,
      "duration": 0.125,
      "velocity": 100
    },
    {
      "time": 16.25,
      "note": 47,
      "duration": 0.25,
      "velocity": 100
    },
    {
      "time": 16.5,
      "note": 45,
      "duration": 0.125,
      "velocity": 100
    },
    {
      "time": 16.625,
      "note": 43,
      "duration": 0.125,
      "velocity": 100
    },
    {
      "time": 16.75,
      "note": 43,
      "duration": 0.125,
      "velocity": 100
    },
    {
      "time": 16.875,
      "note": 43,
      "duration": 0.25,
      "velocity": 100
    },
    {
      "time": 17.125,
      "note": 40,
      "duration": 0.125,
      "velocity": 100
    },
    {
      "time": 17.25,
      "note": 47,
      "duration": 0.25,
      "velocity": 100
    },
    {
      "time": 17.5,
      "note": 45,
      "duration": 0.25,
      "velocity": 100
    },
    {
      "time": 17.75,
      "note": 52,
      "duration": 0.5,
      "velocity": 100
    },
    {
      "time": 18.25,
      "note": 55,
      "duration": 1.0,
      "velocity": 100
    },
    {
      "time": 17.75,
      "note": 45,
      "duration": 1.0,
      "velocity": 100
    },
    {
      "time": 17.75,
      "note": 55,
      "duration": 0.25,
      "velocity": 100
    },
    {
      "time": 18.0,
      "note": 55,
      "duration": 0.25,
      "velocity": 100
    },
    {
      "time": 18.25,
      "note": 55,
      "duration": 0.5,
      "velocity": 100
    },
    {
      "time": 18.75,
      "note": 53,
      "duration": 0.375,
      "velocity": 100
    },
    {
      "time": 19.125,
      "note": 52,
      "duration": 0.125,
      "velocity": 100
    },
    {
      "time": 19.25,
      "note": 50,
      "duration": 0.5,
      "velocity": 100
    },
    {
      "time": 19.75,
      "note": 52,
      "duration": 1.0,
      "velocity": 100
    },
    {
      "time": 20.75,
      "note": 55,
      "duration": 0.375,
      "velocity": 100
    },
    {
      "time": 21.125,
      "note": 53,
      "duration": 0.125,
      "velocity": 100
    },
    {
      "time": 21.25,
      "note": 52,
      "duration": 0.375,
      "velocity": 100
    },
    {
      "time": 21.625,
      "note": 47,
      "duration": 0.125,
      "velocity": 100
    },
    {
      "time": 21.75,
      "note": 52,
      "duration": 0.125,
      "velocity": 100
    },
    {
      "time": 21.875,
      "note": 53,
      "duration": 0.25,
      "velocity": 100
    },
    {
      "time": 22.125,
      "note": 55,
      "duration": 0.125,
      "velocity": 100
    },
    {
      "time": 22.25,
      "note": 55,
      "duration": 0.5,
      "velocity": 100
    },
    {
      "time": 22.75,
      "note": 53,
      "duration": 0.375,
      "velocity": 100
    },
    {
      "time": 23.125,
      "note": 52,
      "duration": 0.125,
      "velocity": 100
    },
    {
      "time": 23.25,
      "note": 50,
      "duration": 0.375,
      "velocity": 100
    },
    {
      "time": 23.625,
      "note": 45,
      "duration": 0.125,
      "velocity": 100
    },
    {
      "time": 23.75,
      "note": 50,
      "duration": 0.125,
      "velocity": 100
    },
    {
      "time": 23.875,
      "note": 52,
      "duration": 0.16666666666666666,
      "velocity": 100
    },
    {
      "time": 24.041666666666668,
      "note": 53,
      "duration": 0.08333333333333333,
      "velocity": 100
    },
    {
      "time": 24.125,
      "note": 53,
      "duration": 0.5,
      "velocity": 100
    },
    {
      "time": 24.875,
      "note": 50,
      "duration": 0.25,
      "velocity": 100
    },
    {
      "time": 25.125,
      "note": 52,
      "duration": 0.125,
      "velocity": 100
    },
    {
      "time": 25.25,
      "note": 53,
      "duration": 0.125,
      "velocity": 100
    },
    {
      "time": 25.375,
      "note": 53,
      "duration": 0.25,
      "velocity": 100
    },
    {
      "time": 25.625,
      "note": 55,
      "duration": 0.125,
      "velocity": 100
    },
    {
      "time": 25.75,
      "note": 53,
      "duration": 0.125,
      "velocity": 100
    },
    {
      "time": 25.875,
      "note": 52,
      "duration": 1.0,
      "velocity": 100
    },
    {
      "time": 26.875,
      "note": 52,
      "duration": 0.75,
      "velocity": 100
    },
    {
      "time": 27.625,
      "note": 50,
      "duration": 0.25,
      "velocity": 100
    },
    {
      "time": 27.875,
      "note": 52,
      "duration": 1.0,
      "velocity": 100
    }
  ],
  "chords": [
    {
      "time": 0.0,
      "notes": [
        61,
        64,
        68
      ],
      "duration": 1.44375
    },
    {
      "time": 1.44375,
      "notes": [
        71,
        75,
        78
      ],
      "duration": 1.44375
    },
    {
      "time": 2.8875,
      "notes": [
        61,
        64,
        68
      ],
      "duration": 1.44375
    },
    {
      "time": 4.331250000000001,
      "notes": [
        61,
        64,
        68
      ],
      "duration": 1.44375
    },
    {
      "time": 5.775,
      "notes": [
        71,
        75,
        78
      ],
      "duration": 1.44375
    },
    {
      "time": 7.21875,
      "notes": [
        71,
        75,
        78,
        81
      ],
      "duration": 1.44375
    },
    {
      "time": 8.662500000000001,
      "notes": [
        64,
        68,
        71
      ],
      "duration": 1.44375
    },
    {
      "time": 10.106250000000001,
      "notes": [
        71,
        75,
        78
      ],
      "duration": 1.44375
    },
    {
      "time": 11.55,
      "notes": [
        69,
        73,
        76
      ],
      "duration": 1.44375
    },
    {
      "time": 12.99375,
      "notes": [
        71,
        75,
        78
      ],
      "duration": 1.44375
    },
    {
      "time": 14.4375,
      "notes": [
        64,
        68,
        71
      ],
      "duration": 1.44375
    },
    {
      "time": 15.881250000000001,
      "notes": [
        71,
        75,
        78
      ],
      "duration": 1.44375
    },
    {
      "time": 17.325000000000003,
      "notes": [
        69,
        73,
        76
      ],
      "duration": 1.44375
    },
    {
      "time": 18.76875,
      "notes": [
        71,
        75,
        78
      ],
      "duration": 1.44375
    },
    {
      "time": 20.212500000000002,
      "notes": [
        69,
        73,
        76
      ],
      "duration": 1.44375
    },
    {
      "time": 21.65625,
      "notes": [
        71,
        75,
        78
      ],
      "duration": 1.44375
    },
    {
      "time": 23.1,
      "notes": [
        61,
        64,
        68
      ],
      "duration": 1.44375
    },
    {
      "time": 24.543750000000003,
      "notes": [
        61,
        64,
        68
      ],
      "duration": 1.44375
    },
    {
      "time": 25.9875,
      "notes": [
        71,
        75,
        78
      ],
      "duration": 1.44375
    },
    {
      "time": 27.431250000000002,
      "notes": [
        61,
        64,
        68
      ],
      "duration": 1.44375
    }
  ]
}