{
  "title": "Hoy volvi a verte",
  "artist": "El Retutu",
  "bpm": 120,
  "duration": 25.0,
  "audioFile": "",
  "notes": [
    {
      "time": 0.0,
      "note": 86,
      "duration": 0.125,
      "velocity": 100
    },
    {
      "time": 0.125,
      "note": 84,
      "duration": 0.125,
      "velocity": 100
    },
    {
      "time": 0.25,
      "note": 82,
      "duration": 0.125,
      "velocity": 100
    },
    {
      "time": 0.375,
      "note": 79,
      "duration": 0.125,
      "velocity": 100
    },
    {
      "time": 0.5,
      "note": 79,
      "duration": 0.5,
      "velocity": 100
    },
    {
      "time": 1.125,
      "note": 79,
      "duration": 0.125,
      "velocity": 100
    },
    {
      "time": 1.25,
      "note": 82,
      "duration": 0.125,
      "velocity": 100
    },
    {
      "time": 1.375,
      "note": 84,
      "duration": 0.125,
      "velocity": 100
    },
    {
      "time": 1.5,
      "note": 86,
      "duration": 0.125,
      "velocity": 100
    },
    {
      "time": 1.625,
      "note": 84,
      "duration": 0.125,
      "velocity": 100
    },
    {
      "time": 1.75,
      "note": 82,
      "duration": 0.125,
      "velocity": 100
    },
    {
      "time": 1.875,
      "note": 84,
      "duration": 0.125,
      "velocity": 100
    },
    {
      "time": 2.0,
      "note": 86,
      "duration": 0.125,
      "velocity": 100
    },
    {
      "time": 2.125,
      "note": 84,
      "duration": 0.125,
      "velocity": 100
    },
    {
      "time": 2.25,
      "note": 82,
      "duration": 0.125,
      "velocity": 100
    },
    {
      "time": 2.375,
      "note": 79,
      "duration": 0.125,
      "velocity": 100
    },
    {
      "time": 2.5,
      "note": 79,
      "duration": 0.5,
      "velocity": 100
    },
    {
      "time": 3.0,
      "note": 79,
      "duration": 1.0,
      "velocity": 100
    },
    {
      "time": 4.0,
      "note": 84,
      "duration": 1.0,
      "velocity": 100
    },
    {
      "time": 4.0,
      "note": 77,
      "duration": 0.125,
      "velocity": 100
    },
    {
      "time": 4.125,
      "note": 77,
      "duration": 0.125,
      "velocity": 100
    },
    {
      "time": 4.25,
      "note": 82,
      "duration": 0.125,
      "velocity": 100
    },
    {
      "time": 4.375,
      "note": 84,
      "duration": 0.125,
      "velocity": 100
    },
    {
      "time": 4.5,
      "note": 86,
      "duration": 0.125,
      "velocity": 100
    },
    {
      "time": 4.625,
      "note": 84,
      "duration": 0.125,
      "velocity": 100
    },
    {
      "time": 4.75,
      "note": 82,
      "duration": 0.125,
      "velocity": 100
    },
    {
      "time": 4.875,
      "note": 86,
      "duration": 0.125,
      "velocity": 100
    },
    {
      "time": 5.0,
      "note": 84,
      "duration": 0.5,
      "velocity": 100
    },
    {
      "time": 5.625,
      "note": 82,
      "duration": 0.125,
      "velocity": 100
    },
    {
      "time": 5.75,
      "note": 84,
      "duration": 0.125,
      "velocity": 100
    },
    {
      "time": 5.875,
      "note": 82,
      "duration": 0.125,
      "velocity": 100
    },
    {
      "time": 6.0,
      "note": 81,
      "duration": 1.0,
      "velocity": 100
    },
    {
      "time": 7.0,
      "note": 81,
      "duration": 0.5,
      "velocity": 100
    },
    {
      "time": 7.5,
      "note": 86,
      "duration": 0.125,
      "velocity": 100
    },
    {
      "time": 7.625,
      "note": 86,
      "duration": 0.125,
      "velocity": 100
    },
    {
      "time": 7.75,
      "note": 86,
      "duration": 0.125,
      "velocity": 100
    },
    {
      "time": 7.875,
      "note": 86,
      "duration": 0.125,
      "velocity": 100
    },
    {
      "time": 8.0,
      "note": 84,
      "duration": 0.25,
      "velocity": 100
    },
    {
      "time": 8.25,
      "note": 82,
      "duration": 0.125,
      "velocity": 100
    },
    {
      "time": 8.375,
      "note": 79,
      "duration": 0.125,
      "velocity": 100
    },
    {
      "time": 8.5,
      "note": 79,
      "duration": 0.25,
      "velocity": 100
    },
    {
      "time": 8.75,
      "note": 86,
      "duration": 0.25,
      "velocity": 100
    },
    {
      "time": 9.0,
      "note": 84,
      "duration": 0.25,
      "velocity": 100
    },
    {
      "time": 9.25,
      "note": 84,
      "duration": 0.125,
      "velocity": 100
    },
    {
      "time": 9.375,
      "note": 84,
      "duration": 0.125,
      "velocity": 100
    },
    {
      "time": 9.5,
      "note": 84,
      "duration": 0.125,
      "velocity": 100
    },
    {
      "time": 9.625,
      "note": 84,
      "duration": 0.125,
      "velocity": 100
    },
    {
      "time": 9.75,
      "note": 84,
      "duration": 0.125,
      "velocity": 100
    },
    {
      "time": 9.875,
      "note": 82,
      "duration": 0.125,
      "velocity": 100
    },
    {
      "time": 10.0,
      "note": 84,
      "duration": 0.25,
      "velocity": 100
    },
    {
      "time": 10.25,
      "note": 82,
      "duration": 0.25,
      "velocity": 100
    },
    {
      "time": 10.5,
      "note": 82,
      "duration": 0.25,
      "velocity": 100
    },
    {
      "time": 10.75,
      "note": 86,
      "duration": 0.25,
      "velocity": 100
    },
    {
      "time": 11.0,
      "note": 84,
      "duration": 0.25,
      "velocity": 100
    },
    {
      "time": 11.25,
      "note": 84,
      "duration": 0.125,
      "velocity": 100
    },
    {
      "time": 11.375,
      "note": 84,
      "duration": 0.125,
      "velocity": 100
    },
    {
      "time": 11.5,
      "note": 84,
      "duration": 0.125,
      "velocity": 100
    },
    {
      "time": 11.625,
      "note": 84,
      "duration": 0.125,
      "velocity": 100
    },
    {
      "time": 11.75,
      "note": 84,
      "duration": 0.125,
      "velocity": 100
    },
    {
      "time": 11.875,
      "note": 82,
      "duration": 0.125,
      "velocity": 100
    },
    {
      "time": 12.0,
      "note": 84,
      "duration": 1.0,
      "velocity": 100
    },
    {
      "time": 12.0,
      "note": 84,
      "duration": 0.25,
      "velocity": 100
    },
    {
      "time": 12.25,
      "note": 82,
      "duration": 0.08333333333333333,
      "velocity": 100
    },
    {
      "time": 12.333333333333334,
      "note": 82,
      "duration": 0.08333333333333333,
      "velocity": 100
    },
    {
      "time": 12.416666666666666,
      "note": 82,
      "duration": 0.08333333333333333,
      "velocity": 100
    },
    {
      "time": 12.5,
      "note": 82,
      "duration": 0.125,
      "velocity": 100
    },
    {
      "time": 12.625,
      "note": 82,
      "duration": 0.125,
      "velocity": 100
    },
    {
      "time": 12.75,
      "note": 82,
      "duration": 0.125,
      "velocity": 100
    },
    {
      "time": 12.875,
      "note": 82,
      "duration": 0.125,
      "velocity": 100
    },
    {
      "time": 13.0,
      "note": 82,
      "duration": 0.125,
      "velocity": 100
    },
    {
      "time": 13.125,
      "note": 82,
      "duration": 0.125,
      "velocity": 100
    },
    {
      "time": 13.25,
      "note": 82,
      "duration": 0.125,
      "velocity": 100
    },
    {
      "time": 13.375,
      "note": 82,
      "duration": 0.125,
      "velocity": 100
    },
    {
      "time": 13.5,
      "note": 82,
      "duration": 0.125,
      "velocity": 100
    },
    {
      "time": 13.625,
      "note": 82,
      "duration": 0.125,
      "velocity": 100
    },
    {
      "time": 13.75,
      "note": 82,
      "duration": 0.125,
      "velocity": 100
    },
    {
      "time": 13.875,
      "note": 82,
      "duration": 0.125,
      "velocity": 100
    },
    {
      "time": 14.0,
      "note": 77,
      "duration": 0.5,
      "velocity": 100
    },
    {
      "time": 14.5,
      "note": 86,
      "duration": 0.125,
      "velocity": 100
    },
    {
      "time": 14.625,
      "note": 86,
      "duration": 0.125,
      "velocity": 100
    },
    {
      "time": 14.75,
      "note": 86,
      "duration": 0.125,
      "velocity": 100
    },
    {
      "time": 14.875,
      "note": 86,
      "duration": 0.125,
      "velocity": 100
    },
    {
      "time": 15.0,
      "note": 77,
      "duration": 0.5,
      "velocity": 100
    },
    {
      "time": 16.0,
      "note": 84,
      "duration": 1.0,
      "velocity": 100
    },
    {
      "time": 17.0,
      "note": 82,
      "duration": 0.125,
      "velocity": 100
    },
    {
      "time": 17.125,
      "note": 79,
      "duration": 0.125,
      "velocity": 100
    },
    {
      "time": 17.25,
      "note": 82,
      "duration": 0.125,
      "velocity": 100
    },
    {
      "time": 17.375,
      "note": 79,
      "duration": 0.125,
      "velocity": 100
    },
    {
      "time": 17.5,
      "note": 82,
      "duration": 0.125,
      "velocity": 100
    },
    {
      "time": 17.625,
      "note": 79,
      "duration": 0.125,
      "velocity": 100
    },
    {
      "time": 17.75,
      "note": 82,
      "duration": 0.125,
      "velocity": 100
    },
    {
      "time": 17.875,
      "note": 79,
      "duration": 0.125,
      "velocity": 100
    },
    {
      "time": 18.0,
      "note": 82,
      "duration": 0.25,
      "velocity": 100
    },
    {
      "time": 18.25,
      "note": 82,
      "duration": 0.25,
      "velocity": 100
    },
    {
      "time": 18.5,
      "note": 82,
      "duration": 0.25,
      "velocity": 100
    },
    {
      "time": 18.875,
      "note": 79,
      "duration": 0.125,
      "velocity": 100
    },
    {
      "time": 19.0,
      "note": 82,
      "duration": 0.125,
      "velocity": 100
    },
    {
      "time": 19.125,
      "note": 79,
      "duration": 0.125,
      "velocity": 100
    },
    {
      "time": 19.25,
      "note": 82,
      "duration": 0.125,
      "velocity": 100
    },
    {
      "time": 19.375,
      "note": 79,
      "duration": 0.125,
      "velocity": 100
    },
    {
      "time": 19.5,
      "note": 82,
      "duration": 0.125,
      "velocity": 100
    },
    {
      "time": 19.625,
      "note": 79,
      "duration": 0.125,
      "velocity": 100
    },
    {
      "time": 19.75,
      "note": 82,
      "duration": 0.125,
      "velocity": 100
    },
    {
      "time": 19.875,
      "note": 79,
      "duration": 0.125,
      "velocity": 100
    },
    {
      "time": 20.0,
      "note": 82,
      "duration": 0.25,
      "velocity": 100
    },
    {
      "time": 20.25,
      "note": 82,
      "duration": 0.125,
      "velocity": 100
    },
    {
      "time": 20.375,
      "note": 82,
      "duration": 0.125,
      "velocity": 100
    },
    {
      "time": 20.5,
      "note": 79,
      "duration": 0.25,
      "velocity": 100
    },
    {
      "time": 20.875,
      "note": 79,
      "duration": 0.125,
      "velocity": 100
    },
    {
      "time": 21.0,
      "note": 82,
      "duration": 0.125,
      "velocity": 100
    },
    {
      "time": 21.125,
      "note": 79,
      "duration": 0.125,
      "velocity": 100
    },
    {
      "time": 21.25,
      "note": 82,
      "duration": 0.125,
      "velocity": 100
    },
    {
      "time": 21.375,
      "note": 79,
      "duration": 0.125,
      "velocity": 100
    },
    {
      "time": 21.5,
      "note": 82,
      "duration": 0.125,
      "velocity": 100
    },
    {
      "time": 21.625,
      "note": 79,
      "duration": 0.125,
      "velocity": 100
    },
    {
      "time": 21.75,
      "note": 82,
      "duration": 0.125,
      "velocity": 100
    },
    {
      "time": 21.875,
      "note": 79,
      "duration": 0.125,
      "velocity": 100
    },
    {
      "time": 22.0,
      "note": 82,
      "duration": 0.5,
      "velocity": 100
    },
    {
      "time": 22.5,
      "note": 79,
      "duration": 0.25,
      "velocity": 100
    },
    {
      "time": 22.875,
      "note": 79,
      "duration": 0.125,
      "velocity": 100
    },
    {
      "time": 23.0,
      "note": 86,
      "duration": 0.125,
      "velocity": 100
    },
    {
      "time": 23.125,
      "note": 86,
      "duration": 0.125,
      "velocity": 100
    },
    {
      "time": 23.25,
      "note": 86,
      "duration": 0.125,
      "velocity": 100
    },
    {
      "time": 23.375,
      "note": 86,
      "duration": 0.125,
      "velocity": 100
    },
    {
      "time": 23.5,
      "note": 84,
      "duration": 0.125,
      "velocity": 100
    },
    {
      "time": 23.625,
      "note": 84,
      "duration": 0.125,
      "velocity": 100
    },
    {
      "time": 23.75,
      "note": 84,
      "duration": 0.125,
      "velocity": 100
    },
    {
      "time": 23.875,
      "note": 84,
      "duration": 0.125,
      "velocity": 100
    },
    {
      "time": 24.0,
      "note": 77,
      "duration": 0.5,
      "velocity": 100
    }
  ],
  "chords": [
    {
      "time": 0.0,
      "notes": [
        67,
        70,
        74
      ],
      "duration": 1.25
    },
    {
      "time": 1.25,
      "notes": [
        63,
        67,
        70
      ],
      "duration": 1.25
    },
    {
      "time": 2.5,
      "notes": [
        65,
        69,
        72
      ],
      "duration": 1.25
    },
    {
      "time": 3.75,
      "notes": [
        67,
        70,
        74
      ],
      "duration": 1.25
    },
    {
      "time": 5.0,
      "notes": [
        63,
        67,
        70
      ],
      "duration": 1.25
    },
    {
      "time": 6.25,
      "notes": [
        70,
        74,
        77
      ],
      "duration": 1.25
    },
    {
      "time": 7.5,
      "notes": [
        65,
        69,
        72
      ],
      "duration": 1.25
    },
    {
      "time": 8.75,
      "notes": [
        67,
        70,
        74
      ],
      "duration": 1.25
    },
    {
      "time": 10.0,
      "notes": [
        63,
        67,
        70
      ],
      "duration": 1.25
    },
    {
      "time": 11.25,
      "notes": [
        70,
        74,
        77
      ],
      "duration": 1.25
    },
    {
      "time": 12.5,
      "notes": [
        65,
        69,
        72
      ],
      "duration": 1.25
    },
    {
      "time": 13.75,
      "notes": [
        65,
        69,
        72
      ],
      "duration": 1.25
    },
    {
      "time": 15.0,
      "notes": [
        67,
        70,
        74
      ],
      "duration": 1.25
    },
    {
      "time": 16.25,
      "notes": [
        63,
        67,
        70
      ],
      "duration": 1.25
    },
    {
      "time": 17.5,
      "notes": [
        70,
        74,
        77
      ],
      "duration": 1.25
    },
    {
      "time": 18.75,
      "notes": [
        65,
        69,
        72
      ],
      "duration": 1.25
    },
    {
      "time": 20.0,
      "notes": [
        67,
        70,
        74
      ],
      "duration": 1.25
    },
    {
      "time": 21.25,
      "notes": [
        63,
        67,
        70
      ],
      "duration": 1.25
    },
    {
      "time": 22.5,
      "notes": [
        70,
        74,
        77
      ],
      "duration": 1.25
    },
    {
      "time": 23.75,
      "notes": [
        65,
        69,
        72
      ],
      "duration": 1.25
    }
  ]
}