{
  "title": "El gran Senor",
  "artist": "Los Autenticos Decadentes",
  "bpm": 120,
  "duration": 65.0,
  "audioFile": "",
  "notes": [
    {
      "time": 0.25,
      "note": 91,
      "duration": 1.0,
      "velocity": 100
    },
    {
      "time": 1.375,
      "note": 89,
      "duration": 0.25,
      "velocity": 100
    },
    {
      "time": 1.625,
      "note": 88,
      "duration": 0.125,
      "velocity": 100
    },
    {
      "time": 1.75,
      "note": 86,
      "duration": 0.375,
      "velocity": 100
    },
    {
      "time": 2.125,
      "note": 84,
      "duration": 0.125,
      "velocity": 100
    },
    {
      "time": 2.25,
      "note": 86,
      "duration": 0.375,
      "velocity": 100
    },
    {
      "time": 2.625,
      "note": 84,
      "duration": 0.125,
      "velocity": 100
    },
    {
      "time": 2.75,
      "note": 86,
      "duration": 0.375,
      "velocity": 100
    },
    {
      "time": 3.125,
      "note": 88,
      "duration": 0.125,
      "velocity": 100
    },
    {
      "time": 3.25,
      "note": 89,
      "duration": 0.125,
      "velocity": 100
    },
    {
      "time": 3.375,
      "note": 88,
      "duration": 0.125,
      "velocity": 100
    },
    {
      "time": 3.5,
      "note": 86,
      "duration": 0.25,
      "velocity": 100
    },
    {
      "time": 4.25,
      "note": 84,
      "duration": 0.375,
      "velocity": 100
    },
    {
      "time": 4.625,
      "note": 89,
      "duration": 0.125,
      "velocity": 100
    },
    {
      "time": 5.625,
      "note": 74,
      "duration": 0.5,
      "velocity": 100
    },
    {
      "time": 6.125,
      "note": 77,
      "duration": 0.5,
      "velocity": 100
    },
    {
      "time": 6.125,
      "note": 84,
      "duration": 0.5,
      "velocity": 100
    },
    {
      "time": 6.125,
      "note": 84,
      "duration": 0.125,
      "velocity": 100
    },
    {
      "time": 6.25,
      "note": 86,
      "duration": 0.125,
      "velocity": 100
    },
    {
      "time": 6.375,
      "note": 84,
      "duration": 0.25,
      "velocity": 100
    },
    {
      "time": 6.625,
      "note": 84,
      "duration": 0.375,
      "velocity": 100
    },
    {
      "time": 7.0,
      "note": 83,
      "duration": 0.125,
      "velocity": 100
    },
    {
      "time": 7.75,
      "note": 86,
      "duration": 0.25,
      "velocity": 100
    },
    {
      "time": 8.0,
      "note": 84,
      "duration": 0.125,
      "velocity": 100
    },
    {
      "time": 8.125,
      "note": 86,
      "duration": 0.375,
      "velocity": 100
    },
    {
      "time": 8.5,
      "note": 84,
      "duration": 0.125,
      "velocity": 100
    },
    {
      "time": 6.625,
      "note": 91,
      "duration": 1.0,
      "velocity": 100
    },
    {
      "time": 7.625,
      "note": 86,
      "duration": 0.375,
      "velocity": 100
    },
    {
      "time": 8.0,
      "note": 84,
      "duration": 0.125,
      "velocity": 100
    },
    {
      "time": 9.25,
      "note": 89,
      "duration": 0.25,
      "velocity": 100
    },
    {
      "time": 9.5,
      "note": 88,
      "duration": 0.125,
      "velocity": 100
    },
    {
      "time": 7.125,
      "note": 67,
      "duration": 1.0,
      "velocity": 100
    },
    {
      "time": 8.125,
      "note": 74,
      "duration": 1.0,
      "velocity": 100
    },
    {
      "time": 9.125,
      "note": 77,
      "duration": 0.5,
      "velocity": 100
    },
    {
      "time": 9.625,
      "note": 74,
      "duration": 0.5,
      "velocity": 100
    },
    {
      "time": 10.125,
      "note": 77,
      "duration": 0.75,
      "velocity": 100
    },
    {
      "time": 10.875,
      "note": 77,
      "duration": 0.5,
      "velocity": 100
    },
    {
      "time": 11.375,
      "note": 72,
      "duration": 0.25,
      "velocity": 100
    },
    {
      "time": 11.625,
      "note": 72,
      "duration": 0.25,
      "velocity": 100
    },
    {
      "time": 12.125,
      "note": 91,
      "duration": 1.0,
      "velocity": 100
    },
    {
      "time": 13.125,
      "note": 81,
      "duration": 0.5,
      "velocity": 100
    },
    {
      "time": 13.625,
      "note": 72,
      "duration": 0.5,
      "velocity": 100
    },
    {
      "time": 14.125,
      "note": 81,
      "duration": 0.5,
      "velocity": 100
    },
    {
      "time": 14.625,
      "note": 72,
      "duration": 0.25,
      "velocity": 100
    },
    {
      "time": 14.875,
      "note": 72,
      "duration": 0.25,
      "velocity": 100
    },
    {
      "time": 15.125,
      "note": 71,
      "duration": 0.25,
      "velocity": 100
    },
    {
      "time": 15.375,
      "note": 79,
      "duration": 0.125,
      "velocity": 100
    },
    {
      "time": 15.5,
      "note": 79,
      "duration": 0.125,
      "velocity": 100
    },
    {
      "time": 16.625,
      "note": 77,
      "duration": 0.25,
      "velocity": 100
    },
    {
      "time": 16.875,
      "note": 77,
      "duration": 0.25,
      "velocity": 100
    },
    {
      "time": 17.125,
      "note": 79,
      "duration": 0.5,
      "velocity": 100
    },
    {
      "time": 17.625,
      "note": 77,
      "duration": 0.125,
      "velocity": 100
    },
    {
      "time": 17.75,
      "note": 77,
      "duration": 0.125,
      "velocity": 100
    },
    {
      "time": 17.875,
      "note": 77,
      "duration": 0.125,
      "velocity": 100
    },
    {
      "time": 18.0,
      "note": 77,
      "duration": 0.125,
      "velocity": 100
    },
    {
      "time": 18.125,
      "note": 79,
      "duration": 0.5,
      "velocity": 100
    },
    {
      "time": 18.625,
      "note": 72,
      "duration": 0.25,
      "velocity": 100
    },
    {
      "time": 18.875,
      "note": 72,
      "duration": 0.25,
      "velocity": 100
    },
    {
      "time": 19.625,
      "note": 72,
      "duration": 0.25,
      "velocity": 100
    },
    {
      "time": 19.875,
      "note": 81,
      "duration": 0.125,
      "velocity": 100
    },
    {
      "time": 20.0,
      "note": 81,
      "duration": 0.125,
      "velocity": 100
    },
    {
      "time": 21.125,
      "note": 72,
      "duration": 0.25,
      "velocity": 100
    },
    {
      "time": 21.375,
      "note": 72,
      "duration": 0.25,
      "velocity": 100
    },
    {
      "time": 21.625,
      "note": 89,
      "duration": 1.0,
      "velocity": 100
    },
    {
      "time": 22.625,
      "note": 91,
      "duration": 1.0,
      "velocity": 100
    },
    {
      "time": 23.625,
      "note": 81,
      "duration": 0.5,
      "velocity": 100
    },
    {
      "time": 24.125,
      "note": 72,
      "duration": 0.25,
      "velocity": 100
    },
    {
      "time": 24.375,
      "note": 72,
      "duration": 0.25,
      "velocity": 100
    },
    {
      "time": 24.625,
      "note": 81,
      "duration": 0.5,
      "velocity": 100
    },
    {
      "time": 25.125,
      "note": 72,
      "duration": 0.25,
      "velocity": 100
    },
    {
      "time": 25.375,
      "note": 72,
      "duration": 0.25,
      "velocity": 100
    },
    {
      "time": 25.625,
      "note": 71,
      "duration": 0.25,
      "velocity": 100
    },
    {
      "time": 25.875,
      "note": 79,
      "duration": 0.125,
      "velocity": 100
    },
    {
      "time": 26.0,
      "note": 79,
      "duration": 0.125,
      "velocity": 100
    },
    {
      "time": 27.125,
      "note": 77,
      "duration": 0.125,
      "velocity": 100
    },
    {
      "time": 27.25,
      "note": 77,
      "duration": 0.125,
      "velocity": 100
    },
    {
      "time": 27.375,
      "note": 77,
      "duration": 0.125,
      "velocity": 100
    },
    {
      "time": 27.5,
      "note": 77,
      "duration": 0.25,
      "velocity": 100
    },
    {
      "time": 27.75,
      "note": 77,
      "duration": 0.125,
      "velocity": 100
    },
    {
      "time": 26.125,
      "note": 79,
      "duration": 0.5,
      "velocity": 100
    },
    {
      "time": 26.625,
      "note": 77,
      "duration": 0.125,
      "velocity": 100
    },
    {
      "time": 26.75,
      "note": 77,
      "duration": 0.125,
      "velocity": 100
    },
    {
      "time": 26.875,
      "note": 77,
      "duration": 0.125,
      "velocity": 100
    },
    {
      "time": 27.0,
      "note": 77,
      "duration": 0.25,
      "velocity": 100
    },
    {
      "time": 27.25,
      "note": 77,
      "duration": 0.125,
      "velocity": 100
    },
    {
      "time": 27.375,
      "note": 79,
      "duration": 0.5,
      "velocity": 100
    },
    {
      "time": 27.875,
      "note": 72,
      "duration": 0.25,
      "velocity": 100
    },
    {
      "time": 28.125,
      "note": 72,
      "duration": 0.25,
      "velocity": 100
    },
    {
      "time": 28.875,
      "note": 72,
      "duration": 0.25,
      "velocity": 100
    },
    {
      "time": 29.125,
      "note": 81,
      "duration": 0.125,
      "velocity": 100
    },
    {
      "time": 29.25,
      "note": 81,
      "duration": 0.125,
      "velocity": 100
    },
    {
      "time": 31.25,
      "note": 86,
      "duration": 0.25,
      "velocity": 100
    },
    {
      "time": 31.5,
      "note": 84,
      "duration": 0.125,
      "velocity": 100
    },
    {
      "time": 31.875,
      "note": 91,
      "duration": 1.0,
      "velocity": 100
    },
    {
      "time": 32.875,
      "note": 83,
      "duration": 0.375,
      "velocity": 100
    },
    {
      "time": 33.25,
      "note": 72,
      "duration": 0.125,
      "velocity": 100
    },
    {
      "time": 33.375,
      "note": 74,
      "duration": 0.375,
      "velocity": 100
    },
    {
      "time": 33.75,
      "note": 77,
      "duration": 0.125,
      "velocity": 100
    },
    {
      "time": 33.875,
      "note": 83,
      "duration": 0.375,
      "velocity": 100
    },
    {
      "time": 34.25,
      "note": 84,
      "duration": 0.125,
      "velocity": 100
    },
    {
      "time": 34.375,
      "note": 86,
      "duration": 0.125,
      "velocity": 100
    },
    {
      "time": 34.5,
      "note": 84,
      "duration": 0.125,
      "velocity": 100
    },
    {
      "time": 34.625,
      "note": 83,
      "duration": 0.25,
      "velocity": 100
    },
    {
      "time": 35.375,
      "note": 81,
      "duration": 0.375,
      "velocity": 100
    },
    {
      "time": 35.75,
      "note": 84,
      "duration": 0.125,
      "velocity": 100
    },
    {
      "time": 36.75,
      "note": 81,
      "duration": 0.125,
      "velocity": 100
    },
    {
      "time": 36.875,
      "note": 81,
      "duration": 0.125,
      "velocity": 100
    },
    {
      "time": 37.0,
      "note": 83,
      "duration": 0.125,
      "velocity": 100
    },
    {
      "time": 37.125,
      "note": 81,
      "duration": 0.25,
      "velocity": 100
    },
    {
      "time": 37.375,
      "note": 79,
      "duration": 0.375,
      "velocity": 100
    },
    {
      "time": 37.75,
      "note": 83,
      "duration": 0.125,
      "velocity": 100
    },
    {
      "time": 38.0,
      "note": 81,
      "duration": 0.25,
      "velocity": 100
    },
    {
      "time": 38.25,
      "note": 79,
      "duration": 0.125,
      "velocity": 100
    },
    {
      "time": 38.375,
      "note": 81,
      "duration": 0.375,
      "velocity": 100
    },
    {
      "time": 38.75,
      "note": 79,
      "duration": 0.125,
      "velocity": 100
    },
    {
      "time": 37.875,
      "note": 77,
      "duration": 0.375,
      "velocity": 100
    },
    {
      "time": 38.25,
      "note": 84,
      "duration": 0.125,
      "velocity": 100
    },
    {
      "time": 38.375,
      "note": 84,
      "duration": 0.5,
      "velocity": 100
    },
    {
      "time": 39.5,
      "note": 89,
      "duration": 0.25,
      "velocity": 100
    },
    {
      "time": 39.75,
      "note": 88,
      "duration": 0.125,
      "velocity": 100
    },
    {
      "time": 39.875,
      "note": 91,
      "duration": 1.0,
      "velocity": 100
    },
    {
      "time": 40.875,
      "note": 86,
      "duration": 0.375,
      "velocity": 100
    },
    {
      "time": 41.25,
      "note": 84,
      "duration": 0.125,
      "velocity": 100
    },
    {
      "time": 41.375,
      "note": 86,
      "duration": 0.375,
      "velocity": 100
    },
    {
      "time": 41.75,
      "note": 84,
      "duration": 0.125,
      "velocity": 100
    },
    {
      "time": 41.875,
      "note": 86,
      "duration": 0.375,
      "velocity": 100
    },
    {
      "time": 42.25,
      "note": 88,
      "duration": 0.125,
      "velocity": 100
    },
    {
      "time": 42.375,
      "note": 89,
      "duration": 0.125,
      "velocity": 100
    },
    {
      "time": 42.5,
      "note": 88,
      "duration": 0.125,
      "velocity": 100
    },
    {
      "time": 42.625,
      "note": 86,
      "duration": 0.25,
      "velocity": 100
    },
    {
      "time": 43.375,
      "note": 84,
      "duration": 0.75,
      "velocity": 100
    },
    {
      "time": 44.125,
      "note": 89,
      "duration": 0.5,
      "velocity": 100
    },
    {
      "time": 45.5,
      "note": 74,
      "duration": 0.5,
      "velocity": 100
    },
    {
      "time": 46.0,
      "note": 77,
      "duration": 0.5,
      "velocity": 100
    },
    {
      "time": 46.0,
      "note": 84,
      "duration": 0.5,
      "velocity": 100
    },
    {
      "time": 46.0,
      "note": 84,
      "duration": 0.125,
      "velocity": 100
    },
    {
      "time": 46.125,
      "note": 86,
      "duration": 0.125,
      "velocity": 100
    },
    {
      "time": 46.25,
      "note": 84,
      "duration": 0.25,
      "velocity": 100
    },
    {
      "time": 46.5,
      "note": 84,
      "duration": 0.375,
      "velocity": 100
    },
    {
      "time": 46.875,
      "note": 83,
      "duration": 0.125,
      "velocity": 100
    },
    {
      "time": 47.625,
      "note": 79,
      "duration": 0.25,
      "velocity": 100
    },
    {
      "time": 47.875,
      "note": 79,
      "duration": 0.125,
      "velocity": 100
    },
    {
      "time": 48.0,
      "note": 81,
      "duration": 0.25,
      "velocity": 100
    },
    {
      "time": 48.25,
      "note": 77,
      "duration": 0.125,
      "velocity": 100
    },
    {
      "time": 48.375,
      "note": 79,
      "duration": 0.125,
      "velocity": 100
    },
    {
      "time": 46.5,
      "note": 79,
      "duration": 0.125,
      "velocity": 100
    },
    {
      "time": 46.625,
      "note": 77,
      "duration": 0.375,
      "velocity": 100
    },
    {
      "time": 47.0,
      "note": 77,
      "duration": 0.5,
      "velocity": 100
    },
    {
      "time": 48.0,
      "note": 72,
      "duration": 0.25,
      "velocity": 100
    },
    {
      "time": 48.25,
      "note": 72,
      "duration": 0.25,
      "velocity": 100
    },
    {
      "time": 46.5,
      "note": 79,
      "duration": 0.125,
      "velocity": 100
    },
    {
      "time": 46.625,
      "note": 77,
      "duration": 0.375,
      "velocity": 100
    },
    {
      "time": 47.0,
      "note": 77,
      "duration": 0.5,
      "velocity": 100
    },
    {
      "time": 47.5,
      "note": 72,
      "duration": 0.125,
      "velocity": 100
    },
    {
      "time": 47.625,
      "note": 77,
      "duration": 0.125,
      "velocity": 100
    },
    {
      "time": 47.75,
      "note": 81,
      "duration": 0.125,
      "velocity": 100
    },
    {
      "time": 46.875,
      "note": 89,
      "duration": 1.0,
      "velocity": 100
    },
    {
      "time": 47.875,
      "note": 91,
      "duration": 1.0,
      "velocity": 100
    },
    {
      "time": 48.875,
      "note": 84,
      "duration": 0.25,
      "velocity": 100
    },
    {
      "time": 49.125,
      "note": 81,
      "duration": 0.25,
      "velocity": 100
    },
    {
      "time": 49.375,
      "note": 84,
      "duration": 0.25,
      "velocity": 100
    },
    {
      "time": 49.625,
      "note": 81,
      "duration": 0.125,
      "velocity": 100
    },
    {
      "time": 49.75,
      "note": 84,
      "duration": 0.125,
      "velocity": 100
    },
    {
      "time": 49.875,
      "note": 84,
      "duration": 0.125,
      "velocity": 100
    },
    {
      "time": 50.0,
      "note": 81,
      "duration": 0.25,
      "velocity": 100
    },
    {
      "time": 50.25,
      "note": 84,
      "duration": 0.125,
      "velocity": 100
    },
    {
      "time": 50.375,
      "note": 86,
      "duration": 0.25,
      "velocity": 100
    },
    {
      "time": 50.625,
      "note": 84,
      "duration": 0.25,
      "velocity": 100
    },
    {
      "time": 50.875,
      "note": 84,
      "duration": 0.5,
      "velocity": 100
    },
    {
      "time": 51.375,
      "note": 81,
      "duration": 0.25,
      "velocity": 100
    },
    {
      "time": 51.625,
      "note": 81,
      "duration": 0.5,
      "velocity": 100
    },
    {
      "time": 52.125,
      "note": 77,
      "duration": 0.125,
      "velocity": 100
    },
    {
      "time": 52.25,
      "note": 77,
      "duration": 0.25,
      "velocity": 100
    },
    {
      "time": 52.5,
      "note": 77,
      "duration": 1.0,
      "velocity": 100
    },
    {
      "time": 53.5,
      "note": 72,
      "duration": 0.125,
      "velocity": 100
    },
    {
      "time": 53.625,
      "note": 77,
      "duration": 0.25,
      "velocity": 100
    },
    {
      "time": 53.875,
      "note": 81,
      "duration": 0.25,
      "velocity": 100
    },
    {
      "time": 51.625,
      "note": 81,
      "duration": 1.0,
      "velocity": 100
    },
    {
      "time": 52.625,
      "note": 84,
      "duration": 0.5,
      "velocity": 100
    },
    {
      "time": 53.125,
      "note": 81,
      "duration": 0.25,
      "velocity": 100
    },
    {
      "time": 53.375,
      "note": 84,
      "duration": 0.25,
      "velocity": 100
    },
    {
      "time": 53.625,
      "note": 84,
      "duration": 0.5,
      "velocity": 100
    },
    {
      "time": 54.125,
      "note": 81,
      "duration": 0.5,
      "velocity": 100
    },
    {
      "time": 54.625,
      "note": 84,
      "duration": 0.5,
      "velocity": 100
    },
    {
      "time": 55.125,
      "note": 84,
      "duration": 0.25,
      "velocity": 100
    },
    {
      "time": 55.375,
      "note": 86,
      "duration": 0.25,
      "velocity": 100
    },
    {
      "time": 55.625,
      "note": 81,
      "duration": 0.25,
      "velocity": 100
    },
    {
      "time": 55.875,
      "note": 84,
      "duration": 0.25,
      "velocity": 100
    },
    {
      "time": 55.875,
      "note": 84,
      "duration": 0.5,
      "velocity": 100
    },
    {
      "time": 56.375,
      "note": 77,
      "duration": 0.25,
      "velocity": 100
    },
    {
      "time": 56.625,
      "note": 81,
      "duration": 0.25,
      "velocity": 100
    },
    {
      "time": 56.625,
      "note": 84,
      "duration": 0.25,
      "velocity": 100
    },
    {
      "time": 56.875,
      "note": 81,
      "duration": 0.125,
      "velocity": 100
    },
    {
      "time": 57.0,
      "note": 84,
      "duration": 0.125,
      "velocity": 100
    },
    {
      "time": 57.0,
      "note": 81,
      "duration": 0.5,
      "velocity": 100
    },
    {
      "time": 57.5,
      "note": 84,
      "duration": 0.5,
      "velocity": 100
    },
    {
      "time": 57.5,
      "note": 81,
      "duration": 0.125,
      "velocity": 100
    },
    {
      "time": 57.625,
      "note": 84,
      "duration": 0.125,
      "velocity": 100
    },
    {
      "time": 57.625,
      "note": 72,
      "duration": 0.125,
      "velocity": 100
    },
    {
      "time": 57.75,
      "note": 77,
      "duration": 0.125,
      "velocity": 100
    },
    {
      "time": 57.875,
      "note": 81,
      "duration": 0.125,
      "velocity": 100
    },
    {
      "time": 58.0,
      "note": 47,
      "duration": 0.125,
      "velocity": 100
    },
    {
      "time": 58.125,
      "note": 45,
      "duration": 0.375,
      "velocity": 100
    },
    {
      "time": 58.5,
      "note": 45,
      "duration": 0.5,
      "velocity": 100
    },
    {
      "time": 62.0,
      "note": 45,
      "duration": 0.25,
      "velocity": 100
    },
    {
      "time": 62.25,
      "note": 45,
      "duration": 0.25,
      "velocity": 100
    },
    {
      "time": 62.625,
      "note": 45,
      "duration": 0.125,
      "velocity": 100
    },
    {
      "time": 62.75,
      "note": 45,
      "duration": 0.125,
      "velocity": 100
    },
    {
      "time": 62.875,
      "note": 45,
      "duration": 0.125,
      "velocity": 100
    },
    {
      "time": 63.0,
      "note": 48,
      "duration": 0.25,
      "velocity": 100
    },
    {
      "time": 63.25,
      "note": 45,
      "duration": 0.125,
      "velocity": 100
    },
    {
      "time": 63.375,
      "note": 48,
      "duration": 0.125,
      "velocity": 100
    },
    {
      "time": 63.625,
      "note": 50,
      "duration": 0.25,
      "velocity": 100
    },
    {
      "time": 63.875,
      "note": 45,
      "duration": 0.125,
      "velocity": 100
    },
    {
      "time": 64.125,
      "note": 45,
      "duration": 0.25,
      "velocity": 100
    },
    {
      "time": 64.375,
      "note": 48,
      "duration": 0.125,
      "velocity": 100
    },
    {
      "time": 64.625,
      "note": 50,
      "duration": 0.25,
      "velocity": 100
    },
    {
      "time": 64.875,
      "note": 48,
      "duration": 0.125,
      "velocity": 100
    },
    {
      "time": 65.0,
      "note": 89,
      "duration": 1.0,
      "velocity": 100
    },
    {
      "time": 66.0,
      "note": 79,
      "duration": 0.25,
      "velocity": 100
    },
    {
      "time": 66.25,
      "note": 79,
      "duration": 0.125,
      "velocity": 100
    },
    {
      "time": 66.375,
      "note": 79,
      "duration": 0.125,
      "velocity": 100
    },
    {
      "time": 66.625,
      "note": 81,
      "duration": 0.25,
      "velocity": 100
    },
    {
      "time": 66.875,
      "note": 83,
      "duration": 0.125,
      "velocity": 100
    },
    {
      "time": 65.0,
      "note": 79,
      "duration": 0.25,
      "velocity": 100
    },
    {
      "time": 65.25,
      "note": 77,
      "duration": 0.125,
      "velocity": 100
    },
    {
      "time": 65.375,
      "note": 77,
      "duration": 0.125,
      "velocity": 100
    },
    {
      "time": 65.625,
      "note": 77,
      "duration": 0.25,
      "velocity": 100
    },
    {
      "time": 65.875,
      "note": 77,
      "duration": 0.125,
      "velocity": 100
    },
    {
      "time": 66.125,
      "note": 77,
      "duration": 0.25,
      "velocity": 100
    },
    {
      "time": 66.375,
      "note": 79,
      "duration": 0.125,
      "velocity": 100
    },
    {
      "time": 66.625,
      "note": 81,
      "duration": 0.5,
      "velocity": 100
    },
    {
      "time": 65.5,
      "note": 77,
      "duration": 0.25,
      "velocity": 100
    },
    {
      "time": 65.75,
      "note": 77,
      "duration": 0.125,
      "velocity": 100
    },
    {
      "time": 65.875,
      "note": 77,
      "duration": 0.125,
      "velocity": 100
    },
    {
      "time": 66.125,
      "note": 81,
      "duration": 0.25,
      "velocity": 100
    },
    {
      "time": 66.375,
      "note": 84,
      "duration": 0.125,
      "velocity": 100
    },
    {
      "time": 66.5,
      "note": 84,
      "duration": 0.5,
      "velocity": 100
    }
  ],
  "chords": [
    {
      "time": 0.0,
      "notes": [
        71,
        74,
        78
      ],
      "duration": 2.7083333333333335
    },
    {
      "time": 2.7083333333333335,
      "notes": [
        66,
        69,
        73
      ],
      "duration": 2.7083333333333335
    },
    {
      "time": 5.416666666666667,
      "notes": [
        61,
        65,
        68,
        71
      ],
      "duration": 2.7083333333333335
    },
    {
      "time": 8.125,
      "notes": [
        66,
        69,
        73
      ],
      "duration": 2.7083333333333335
    },
    {
      "time": 10.833333333333334,
      "notes": [
        66,
        69,
        73
      ],
      "duration": 2.7083333333333335
    },
    {
      "time": 13.541666666666668,
      "notes": [
        66,
        69,
        73
      ],
      "duration": 2.7083333333333335
    },
    {
      "time": 16.25,
      "notes": [
        61,
        65,
        68,
        71
      ],
      "duration": 2.7083333333333335
    },
    {
      "time": 18.958333333333336,
      "notes": [
        66,
        69,
        73
      ],
      "duration": 2.7083333333333335
    },
    {
      "time": 21.666666666666668,
      "notes": [
        61,
        65,
        68,
        71
      ],
      "duration": 2.7083333333333335
    },
    {
      "time": 24.375,
      "notes": [
        66,
        69,
        73
      ],
      "duration": 2.7083333333333335
    },
    {
      "time": 27.083333333333336,
      "notes": [
        66,
        70,
        73,
        76
      ],
      "duration": 2.7083333333333335
    },
    {
      "time": 29.791666666666668,
      "notes": [
        71,
        74,
        78
      ],
      "duration": 2.7083333333333335
    },
    {
      "time": 32.5,
      "notes": [
        66,
        69,
        73
      ],
      "duration": 2.7083333333333335
    },
    {
      "time": 35.208333333333336,
      "notes": [
        61,
        65,
        68,
        71
      ],
      "duration": 2.7083333333333335
    },
    {
      "time": 37.91666666666667,
      "notes": [
        66,
        69,
        73
      ],
      "duration": 2.7083333333333335
    },
    {
      "time": 40.625,
      "notes": [
        71,
        74,
        78
      ],
      "duration": 2.7083333333333335
    },
    {
      "time": 43.333333333333336,
      "notes": [
        66,
        69,
        73
      ],
      "duration": 2.7083333333333335
    },
    {
      "time": 46.04166666666667,
      "notes": [
        61,
        65,
        68,
        71
      ],
      "duration": 2.7083333333333335
    },
    {
      "time": 48.75,
      "notes": [
        66,
        69,
        73
      ],
      "duration": 2.7083333333333335
    },
    {
      "time": 51.458333333333336,
      "notes": [
        66,
        69,
        73
      ],
      "duration": 2.7083333333333335
    },
    {
      "time": 54.16666666666667,
      "notes": [
        61,
        65,
        68,
        71
      ],
      "duration": 2.7083333333333335
    },
    {
      "time": 56.875,
      "notes": [
        66,
        69,
        73
      ],
      "duration": 2.7083333333333335
    },
    {
      "time": 59.583333333333336,
      "notes": [
        61,
        65,
        68,
        71
      ],
      "duration": 2.7083333333333335
    },
    {
      "time": 62.29166666666667,
      "notes": [
        66,
        69,
        73
      ],
      "duration": 2.7083333333333335
    }
  ]
}