{
  "title": "Noches vacias",
  "artist": "Gilda",
  "bpm": 120,
  "duration": 37.375,
  "audioFile": "",
  "notes": [
    {
      "time": 0.125,
      "note": 75,
      "duration": 0.5,
      "velocity": 100
    },
    {
      "time": 0.625,
      "note": 82,
      "duration": 0.5,
      "velocity": 100
    },
    {
      "time": 0.625,
      "note": 86,
      "duration": 0.125,
      "velocity": 100
    },
    {
      "time": 0.75,
      "note": 86,
      "duration": 0.25,
      "velocity": 100
    },
    {
      "time": 1.0,
      "note": 82,
      "duration": 0.125,
      "velocity": 100
    },
    {
      "time": 1.125,
      "note": 84,
      "duration": 0.125,
      "velocity": 100
    },
    {
      "time": 1.25,
      "note": 84,
      "duration": 0.25,
      "velocity": 100
    },
    {
      "time": 1.5,
      "note": 86,
      "duration": 0.125,
      "velocity": 100
    },
    {
      "time": 1.625,
      "note": 84,
      "duration": 0.25,
      "velocity": 100
    },
    {
      "time": 1.875,
      "note": 82,
      "duration": 0.25,
      "velocity": 100
    },
    {
      "time": 2.125,
      "note": 82,
      "duration": 0.25,
      "velocity": 100
    },
    {
      "time": 2.5,
      "note": 82,
      "duration": 0.125,
      "velocity": 100
    },
    {
      "time": 2.625,
      "note": 86,
      "duration": 0.125,
      "velocity": 100
    },
    {
      "time": 2.75,
      "note": 86,
      "duration": 0.25,
      "velocity": 100
    },
    {
      "time": 3.0,
      "note": 82,
      "duration": 0.125,
      "velocity": 100
    },
    {
      "time": 3.125,
      "note": 84,
      "duration": 0.125,
      "velocity": 100
    },
    {
      "time": 3.25,
      "note": 84,
      "duration": 0.25,
      "velocity": 100
    },
    {
      "time": 3.5,
      "note": 86,
      "duration": 0.125,
      "velocity": 100
    },
    {
      "time": 3.625,
      "note": 77,
      "duration": 0.25,
      "velocity": 100
    },
    {
      "time": 3.875,
      "note": 79,
      "duration": 0.25,
      "velocity": 100
    },
    {
      "time": 4.125,
      "note": 79,
      "duration": 0.25,
      "velocity": 100
    },
    {
      "time": 4.5,
      "note": 79,
      "duration": 0.125,
      "velocity": 100
    },
    {
      "time": 4.625,
      "note": 82,
      "duration": 0.125,
      "velocity": 100
    },
    {
      "time": 4.75,
      "note": 82,
      "duration": 0.25,
      "velocity": 100
    },
    {
      "time": 5.0,
      "note": 82,
      "duration": 0.125,
      "velocity": 100
    },
    {
      "time": 5.125,
      "note": 79,
      "duration": 0.125,
      "velocity": 100
    },
    {
      "time": 5.25,
      "note": 79,
      "duration": 0.25,
      "velocity": 100
    },
    {
      "time": 5.5,
      "note": 82,
      "duration": 0.125,
      "velocity": 100
    },
    {
      "time": 5.625,
      "note": 79,
      "duration": 0.25,
      "velocity": 100
    },
    {
      "time": 5.875,
      "note": 77,
      "duration": 0.25,
      "velocity": 100
    },
    {
      "time": 6.125,
      "note": 77,
      "duration": 0.375,
      "velocity": 100
    },
    {
      "time": 6.5,
      "note": 77,
      "duration": 0.125,
      "velocity": 100
    },
    {
      "time": 6.625,
      "note": 77,
      "duration": 0.125,
      "velocity": 100
    },
    {
      "time": 6.75,
      "note": 77,
      "duration": 0.25,
      "velocity": 100
    },
    {
      "time": 7.0,
      "note": 77,
      "duration": 0.125,
      "velocity": 100
    },
    {
      "time": 7.125,
      "note": 86,
      "duration": 0.125,
      "velocity": 100
    },
    {
      "time": 7.25,
      "note": 77,
      "duration": 0.25,
      "velocity": 100
    },
    {
      "time": 7.5,
      "note": 86,
      "duration": 0.125,
      "velocity": 100
    },
    {
      "time": 7.625,
      "note": 84,
      "duration": 0.25,
      "velocity": 100
    },
    {
      "time": 7.875,
      "note": 82,
      "duration": 0.25,
      "velocity": 100
    },
    {
      "time": 8.125,
      "note": 84,
      "duration": 1.0,
      "velocity": 100
    },
    {
      "time": 9.125,
      "note": 88,
      "duration": 1.0,
      "velocity": 100
    },
    {
      "time": 8.125,
      "note": 84,
      "duration": 0.125,
      "velocity": 100
    },
    {
      "time": 8.25,
      "note": 88,
      "duration": 0.125,
      "velocity": 100
    },
    {
      "time": 8.25,
      "note": 84,
      "duration": 0.25,
      "velocity": 100
    },
    {
      "time": 8.5,
      "note": 88,
      "duration": 0.25,
      "velocity": 100
    },
    {
      "time": 8.5,
      "note": 86,
      "duration": 0.125,
      "velocity": 100
    },
    {
      "time": 8.625,
      "note": 89,
      "duration": 0.125,
      "velocity": 100
    },
    {
      "time": 8.625,
      "note": 84,
      "duration": 0.25,
      "velocity": 100
    },
    {
      "time": 8.875,
      "note": 88,
      "duration": 0.25,
      "velocity": 100
    },
    {
      "time": 8.875,
      "note": 82,
      "duration": 0.25,
      "velocity": 100
    },
    {
      "time": 9.125,
      "note": 86,
      "duration": 0.25,
      "velocity": 100
    },
    {
      "time": 9.125,
      "note": 82,
      "duration": 0.25,
      "velocity": 100
    },
    {
      "time": 9.375,
      "note": 86,
      "duration": 0.25,
      "velocity": 100
    },
    {
      "time": 9.5,
      "note": 82,
      "duration": 0.125,
      "velocity": 100
    },
    {
      "time": 9.625,
      "note": 86,
      "duration": 0.125,
      "velocity": 100
    },
    {
      "time": 9.625,
      "note": 86,
      "duration": 0.125,
      "velocity": 100
    },
    {
      "time": 9.75,
      "note": 89,
      "duration": 0.125,
      "velocity": 100
    },
    {
      "time": 9.75,
      "note": 86,
      "duration": 0.25,
      "velocity": 100
    },
    {
      "time": 10.0,
      "note": 89,
      "duration": 0.25,
      "velocity": 100
    },
    {
      "time": 10.0,
      "note": 82,
      "duration": 0.125,
      "velocity": 100
    },
    {
      "time": 10.125,
      "note": 86,
      "duration": 0.125,
      "velocity": 100
    },
    {
      "time": 10.125,
      "note": 84,
      "duration": 0.125,
      "velocity": 100
    },
    {
      "time": 10.25,
      "note": 88,
      "duration": 0.125,
      "velocity": 100
    },
    {
      "time": 10.25,
      "note": 84,
      "duration": 0.25,
      "velocity": 100
    },
    {
      "time": 10.5,
      "note": 88,
      "duration": 0.25,
      "velocity": 100
    },
    {
      "time": 10.5,
      "note": 86,
      "duration": 0.125,
      "velocity": 100
    },
    {
      "time": 10.625,
      "note": 89,
      "duration": 0.125,
      "velocity": 100
    },
    {
      "time": 10.625,
      "note": 82,
      "duration": 0.25,
      "velocity": 100
    },
    {
      "time": 10.875,
      "note": 86,
      "duration": 0.25,
      "velocity": 100
    },
    {
      "time": 10.875,
      "note": 82,
      "duration": 0.25,
      "velocity": 100
    },
    {
      "time": 11.125,
      "note": 88,
      "duration": 0.25,
      "velocity": 100
    },
    {
      "time": 11.125,
      "note": 82,
      "duration": 0.25,
      "velocity": 100
    },
    {
      "time": 11.375,
      "note": 87,
      "duration": 0.25,
      "velocity": 100
    },
    {
      "time": 11.5,
      "note": 82,
      "duration": 0.125,
      "velocity": 100
    },
    {
      "time": 11.625,
      "note": 87,
      "duration": 0.125,
      "velocity": 100
    },
    {
      "time": 11.625,
      "note": 87,
      "duration": 0.125,
      "velocity": 100
    },
    {
      "time": 11.75,
      "note": 91,
      "duration": 0.125,
      "velocity": 100
    },
    {
      "time": 11.75,
      "note": 87,
      "duration": 0.25,
      "velocity": 100
    },
    {
      "time": 12.0,
      "note": 91,
      "duration": 0.25,
      "velocity": 100
    },
    {
      "time": 12.0,
      "note": 87,
      "duration": 0.125,
      "velocity": 100
    },
    {
      "time": 12.125,
      "note": 91,
      "duration": 0.125,
      "velocity": 100
    },
    {
      "time": 12.125,
      "note": 82,
      "duration": 0.125,
      "velocity": 100
    },
    {
      "time": 12.25,
      "note": 87,
      "duration": 0.125,
      "velocity": 100
    },
    {
      "time": 12.25,
      "note": 82,
      "duration": 0.25,
      "velocity": 100
    },
    {
      "time": 12.5,
      "note": 87,
      "duration": 0.25,
      "velocity": 100
    },
    {
      "time": 12.5,
      "note": 87,
      "duration": 0.125,
      "velocity": 100
    },
    {
      "time": 12.625,
      "note": 91,
      "duration": 0.125,
      "velocity": 100
    },
    {
      "time": 12.625,
      "note": 82,
      "duration": 0.25,
      "velocity": 100
    },
    {
      "time": 12.875,
      "note": 87,
      "duration": 0.25,
      "velocity": 100
    },
    {
      "time": 12.875,
      "note": 84,
      "duration": 0.25,
      "velocity": 100
    },
    {
      "time": 13.125,
      "note": 89,
      "duration": 0.25,
      "velocity": 100
    },
    {
      "time": 13.125,
      "note": 84,
      "duration": 0.25,
      "velocity": 100
    },
    {
      "time": 13.375,
      "note": 89,
      "duration": 0.25,
      "velocity": 100
    },
    {
      "time": 13.5,
      "note": 77,
      "duration": 0.125,
      "velocity": 100
    },
    {
      "time": 13.625,
      "note": 81,
      "duration": 0.125,
      "velocity": 100
    },
    {
      "time": 13.625,
      "note": 77,
      "duration": 0.125,
      "velocity": 100
    },
    {
      "time": 13.75,
      "note": 81,
      "duration": 0.125,
      "velocity": 100
    },
    {
      "time": 13.75,
      "note": 77,
      "duration": 0.25,
      "velocity": 100
    },
    {
      "time": 14.0,
      "note": 81,
      "duration": 0.25,
      "velocity": 100
    },
    {
      "time": 14.0,
      "note": 77,
      "duration": 0.125,
      "velocity": 100
    },
    {
      "time": 14.125,
      "note": 81,
      "duration": 0.125,
      "velocity": 100
    },
    {
      "time": 14.125,
      "note": 86,
      "duration": 0.125,
      "velocity": 100
    },
    {
      "time": 14.25,
      "note": 89,
      "duration": 0.125,
      "velocity": 100
    },
    {
      "time": 14.25,
      "note": 77,
      "duration": 0.125,
      "velocity": 100
    },
    {
      "time": 14.375,
      "note": 82,
      "duration": 0.125,
      "velocity": 100
    },
    {
      "time": 14.375,
      "note": 82,
      "duration": 0.125,
      "velocity": 100
    },
    {
      "time": 14.5,
      "note": 86,
      "duration": 0.125,
      "velocity": 100
    },
    {
      "time": 14.5,
      "note": 86,
      "duration": 0.125,
      "velocity": 100
    },
    {
      "time": 14.625,
      "note": 89,
      "duration": 0.125,
      "velocity": 100
    },
    {
      "time": 14.625,
      "note": 84,
      "duration": 0.25,
      "velocity": 100
    },
    {
      "time": 14.875,
      "note": 87,
      "duration": 0.25,
      "velocity": 100
    },
    {
      "time": 14.875,
      "note": 82,
      "duration": 0.25,
      "velocity": 100
    },
    {
      "time": 15.125,
      "note": 86,
      "duration": 0.25,
      "velocity": 100
    },
    {
      "time": 15.5,
      "note": 79,
      "duration": 0.5,
      "velocity": 100
    },
    {
      "time": 16.0,
      "note": 82,
      "duration": 0.5,
      "velocity": 100
    },
    {
      "time": 16.0,
      "note": 89,
      "duration": 0.5,
      "velocity": 100
    },
    {
      "time": 16.0,
      "note": 89,
      "duration": 0.125,
      "velocity": 100
    },
    {
      "time": 16.125,
      "note": 89,
      "duration": 0.25,
      "velocity": 100
    },
    {
      "time": 16.375,
      "note": 89,
      "duration": 0.125,
      "velocity": 100
    },
    {
      "time": 16.5,
      "note": 89,
      "duration": 0.125,
      "velocity": 100
    },
    {
      "time": 16.625,
      "note": 89,
      "duration": 0.25,
      "velocity": 100
    },
    {
      "time": 16.875,
      "note": 89,
      "duration": 0.125,
      "velocity": 100
    },
    {
      "time": 17.0,
      "note": 88,
      "duration": 0.25,
      "velocity": 100
    },
    {
      "time": 17.25,
      "note": 86,
      "duration": 0.25,
      "velocity": 100
    },
    {
      "time": 17.5,
      "note": 86,
      "duration": 0.25,
      "velocity": 100
    },
    {
      "time": 17.875,
      "note": 89,
      "duration": 0.125,
      "velocity": 100
    },
    {
      "time": 18.0,
      "note": 89,
      "duration": 0.125,
      "velocity": 100
    },
    {
      "time": 18.125,
      "note": 89,
      "duration": 0.25,
      "velocity": 100
    },
    {
      "time": 18.375,
      "note": 89,
      "duration": 0.125,
      "velocity": 100
    },
    {
      "time": 18.5,
      "note": 89,
      "duration": 0.125,
      "velocity": 100
    },
    {
      "time": 18.625,
      "note": 89,
      "duration": 0.25,
      "velocity": 100
    },
    {
      "time": 18.875,
      "note": 89,
      "duration": 0.125,
      "velocity": 100
    },
    {
      "time": 19.0,
      "note": 94,
      "duration": 0.25,
      "velocity": 100
    },
    {
      "time": 19.25,
      "note": 91,
      "duration": 0.25,
      "velocity": 100
    },
    {
      "time": 19.5,
      "note": 91,
      "duration": 0.25,
      "velocity": 100
    },
    {
      "time": 19.875,
      "note": 91,
      "duration": 0.125,
      "velocity": 100
    },
    {
      "time": 20.0,
      "note": 91,
      "duration": 0.125,
      "velocity": 100
    },
    {
      "time": 20.125,
      "note": 91,
      "duration": 0.25,
      "velocity": 100
    },
    {
      "time": 20.375,
      "note": 91,
      "duration": 0.125,
      "velocity": 100
    },
    {
      "time": 20.5,
      "note": 91,
      "duration": 0.125,
      "velocity": 100
    },
    {
      "time": 20.625,
      "note": 91,
      "duration": 0.25,
      "velocity": 100
    },
    {
      "time": 20.875,
      "note": 91,
      "duration": 0.125,
      "velocity": 100
    },
    {
      "time": 21.0,
      "note": 91,
      "duration": 0.25,
      "velocity": 100
    },
    {
      "time": 21.25,
      "note": 89,
      "duration": 0.25,
      "velocity": 100
    },
    {
      "time": 21.5,
      "note": 89,
      "duration": 0.25,
      "velocity": 100
    },
    {
      "time": 21.875,
      "note": 89,
      "duration": 0.125,
      "velocity": 100
    },
    {
      "time": 22.0,
      "note": 89,
      "duration": 0.125,
      "velocity": 100
    },
    {
      "time": 22.125,
      "note": 89,
      "duration": 0.25,
      "velocity": 100
    },
    {
      "time": 22.375,
      "note": 89,
      "duration": 0.125,
      "velocity": 100
    },
    {
      "time": 22.5,
      "note": 89,
      "duration": 0.125,
      "velocity": 100
    },
    {
      "time": 22.625,
      "note": 84,
      "duration": 0.25,
      "velocity": 100
    },
    {
      "time": 22.875,
      "note": 84,
      "duration": 0.125,
      "velocity": 100
    },
    {
      "time": 23.0,
      "note": 88,
      "duration": 0.25,
      "velocity": 100
    },
    {
      "time": 23.25,
      "note": 86,
      "duration": 0.25,
      "velocity": 100
    },
    {
      "time": 23.5,
      "note": 82,
      "duration": 0.375,
      "velocity": 100
    },
    {
      "time": 23.875,
      "note": 89,
      "duration": 0.125,
      "velocity": 100
    },
    {
      "time": 24.0,
      "note": 89,
      "duration": 0.125,
      "velocity": 100
    },
    {
      "time": 24.125,
      "note": 89,
      "duration": 0.25,
      "velocity": 100
    },
    {
      "time": 24.375,
      "note": 89,
      "duration": 0.125,
      "velocity": 100
    },
    {
      "time": 24.625,
      "note": 84,
      "duration": 0.5,
      "velocity": 100
    },
    {
      "time": 25.125,
      "note": 86,
      "duration": 0.5,
      "velocity": 100
    },
    {
      "time": 24.5,
      "note": 84,
      "duration": 1.0,
      "velocity": 100
    },
    {
      "time": 25.5,
      "note": 88,
      "duration": 1.0,
      "velocity": 100
    },
    {
      "time": 24.5,
      "note": 74,
      "duration": 0.5,
      "velocity": 100
    },
    {
      "time": 25.0,
      "note": 77,
      "duration": 0.5,
      "velocity": 100
    },
    {
      "time": 25.5,
      "note": 81,
      "duration": 0.5,
      "velocity": 100
    },
    {
      "time": 25.5,
      "note": 84,
      "duration": 0.25,
      "velocity": 100
    },
    {
      "time": 25.75,
      "note": 84,
      "duration": 0.25,
      "velocity": 100
    },
    {
      "time": 26.0,
      "note": 77,
      "duration": 0.5,
      "velocity": 100
    },
    {
      "time": 26.5,
      "note": 81,
      "duration": 0.5,
      "velocity": 100
    },
    {
      "time": 26.5,
      "note": 74,
      "duration": 0.5,
      "velocity": 100
    },
    {
      "time": 27.0,
      "note": 74,
      "duration": 0.5,
      "velocity": 100
    },
    {
      "time": 27.5,
      "note": 77,
      "duration": 0.25,
      "velocity": 100
    },
    {
      "time": 27.75,
      "note": 81,
      "duration": 0.25,
      "velocity": 100
    },
    {
      "time": 27.75,
      "note": 84,
      "duration": 0.125,
      "velocity": 100
    },
    {
      "time": 27.875,
      "note": 84,
      "duration": 0.25,
      "velocity": 100
    },
    {
      "time": 28.125,
      "note": 77,
      "duration": 0.5,
      "velocity": 100
    },
    {
      "time": 28.625,
      "note": 81,
      "duration": 0.5,
      "velocity": 100
    },
    {
      "time": 28.625,
      "note": 74,
      "duration": 0.5,
      "velocity": 100
    },
    {
      "time": 29.125,
      "note": 74,
      "duration": 0.5,
      "velocity": 100
    },
    {
      "time": 29.625,
      "note": 77,
      "duration": 0.5,
      "velocity": 100
    },
    {
      "time": 30.125,
      "note": 81,
      "duration": 0.5,
      "velocity": 100
    },
    {
      "time": 30.125,
      "note": 84,
      "duration": 0.25,
      "velocity": 100
    },
    {
      "time": 30.375,
      "note": 84,
      "duration": 0.25,
      "velocity": 100
    },
    {
      "time": 30.625,
      "note": 77,
      "duration": 0.5,
      "velocity": 100
    },
    {
      "time": 31.125,
      "note": 81,
      "duration": 0.5,
      "velocity": 100
    },
    {
      "time": 31.125,
      "note": 74,
      "duration": 0.5,
      "velocity": 100
    },
    {
      "time": 31.625,
      "note": 74,
      "duration": 0.5,
      "velocity": 100
    },
    {
      "time": 32.125,
      "note": 81,
      "duration": 0.125,
      "velocity": 100
    },
    {
      "time": 32.25,
      "note": 84,
      "duration": 0.125,
      "velocity": 100
    },
    {
      "time": 32.375,
      "note": 84,
      "duration": 0.25,
      "velocity": 100
    },
    {
      "time": 32.625,
      "note": 81,
      "duration": 0.25,
      "velocity": 100
    },
    {
      "time": 32.875,
      "note": 74,
      "duration": 0.5,
      "velocity": 100
    },
    {
      "time": 33.375,
      "note": 74,
      "duration": 0.5,
      "velocity": 100
    },
    {
      "time": 33.875,
      "note": 81,
      "duration": 0.25,
      "velocity": 100
    },
    {
      "time": 34.125,
      "note": 84,
      "duration": 0.25,
      "velocity": 100
    },
    {
      "time": 34.375,
      "note": 84,
      "duration": 0.25,
      "velocity": 100
    },
    {
      "time": 34.625,
      "note": 81,
      "duration": 0.25,
      "velocity": 100
    },
    {
      "time": 34.875,
      "note": 74,
      "duration": 0.5,
      "velocity": 100
    },
    {
      "time": 35.375,
      "note": 74,
      "duration": 0.25,
      "velocity": 100
    },
    {
      "time": 35.625,
      "note": 84,
      "duration": 0.25,
      "velocity": 100
    },
    {
      "time": 35.875,
      "note": 88,
      "duration": 0.25,
      "velocity": 100
    },
    {
      "time": 36.125,
      "note": 88,
      "duration": 0.5,
      "velocity": 100
    },
    {
      "time": 36.625,
      "note": 84,
      "duration": 0.5,
      "velocity": 100
    },
    {
      "time": 37.125,
      "note": 74,
      "duration": 0.25,
      "velocity": 100
    },
    {
      "time": 37.375,
      "note": 74,
      "duration": 0.25,
      "velocity": 100
    },
    {
      "time": 37.625,
      "note": 84,
      "duration": 0.5,
      "velocity": 100
    },
    {
      "time": 38.125,
      "note": 88,
      "duration": 0.5,
      "velocity": 100
    }
  ],
  "chords": [
    {
      "time": 0.0,
      "notes": [
        70,
        74,
        77
      ],
      "duration": 2.875
    },
    {
      "time": 2.875,
      "notes": [
        63,
        67,
        70
      ],
      "duration": 2.875
    },
    {
      "time": 5.75,
      "notes": [
        65,
        69,
        72,
        75
      ],
      "duration": 2.875
    },
    {
      "time": 8.625,
      "notes": [
        70,
        74,
        77
      ],
      "duration": 2.875
    },
    {
      "time": 11.5,
      "notes": [
        63,
        67,
        70
      ],
      "duration": 2.875
    },
    {
      "time": 14.375,
      "notes": [
        65,
        69,
        72,
        75
      ],
      "duration": 2.875
    },
    {
      "time": 17.25,
      "notes": [
        70,
        74,
        77
      ],
      "duration": 2.875
    },
    {
      "time": 20.125,
      "notes": [
        63,
        67,
        70
      ],
      "duration": 2.875
    },
    {
      "time": 23.0,
      "notes": [
        65,
        69,
        72,
        75
      ],
      "duration": 2.875
    },
    {
      "time": 25.875,
      "notes": [
        70,
        74,
        77
      ],
      "duration": 2.875
    },
    {
      "time": 28.75,
      "notes": [
        60,
        64,
        67
      ],
      "duration": 2.875
    },
    {
      "time": 31.625,
      "notes": [
        65,
        69,
        72
      ],
      "duration": 2.875
    },
    {
      "time": 34.5,
      "notes": [
        67,
        71,
        74,
        77
      ],
      "duration": 2.875
    }
  ]
}