{
  "title": "No podre olvidarte",
  "artist": "Grupo Red",
  "bpm": 120,
  "duration": 42.0,
  "audioFile": "",
  "notes": [
    {
      "time": 0.0,
      "note": 72,
      "duration": 0.125,
      "velocity": 100
    },
    {
      "time": 0.125,
      "note": 75,
      "duration": 0.125,
      "velocity": 100
    },
    {
      "time": 0.25,
      "note": 72,
      "duration": 0.125,
      "velocity": 100
    },
    {
      "time": 0.375,
      "note": 75,
      "duration": 0.125,
      "velocity": 100
    },
    {
      "time": 0.5,
      "note": 72,
      "duration": 0.125,
      "velocity": 100
    },
    {
      "time": 0.625,
      "note": 75,
      "duration": 0.125,
      "velocity": 100
    },
    {
      "time": 0.75,
      "note": 72,
      "duration": 0.125,
      "velocity": 100
    },
    {
      "time": 0.875,
      "note": 75,
      "duration": 0.125,
      "velocity": 100
    },
    {
      "time": 1.0,
      "note": 79,
      "duration": 0.125,
      "velocity": 100
    },
    {
      "time": 1.125,
      "note": 84,
      "duration": 0.125,
      "velocity": 100
    },
    {
      "time": 1.125,
      "note": 79,
      "duration": 0.125,
      "velocity": 100
    },
    {
      "time": 1.25,
      "note": 84,
      "duration": 0.125,
      "velocity": 100
    },
    {
      "time": 1.25,
      "note": 79,
      "duration": 0.125,
      "velocity": 100
    },
    {
      "time": 1.375,
      "note": 84,
      "duration": 0.125,
      "velocity": 100
    },
    {
      "time": 1.375,
      "note": 79,
      "duration": 0.125,
      "velocity": 100
    },
    {
      "time": 1.5,
      "note": 84,
      "duration": 0.125,
      "velocity": 100
    },
    {
      "time": 1.5,
      "note": 84,
      "duration": 0.25,
      "velocity": 100
    },
    {
      "time": 1.75,
      "note": 87,
      "duration": 0.25,
      "velocity": 100
    },
    {
      "time": 1.75,
      "note": 79,
      "duration": 0.25,
      "velocity": 100
    },
    {
      "time": 2.0,
      "note": 84,
      "duration": 0.25,
      "velocity": 100
    },
    {
      "time": 2.0,
      "note": 72,
      "duration": 0.125,
      "velocity": 100
    },
    {
      "time": 2.125,
      "note": 75,
      "duration": 0.125,
      "velocity": 100
    },
    {
      "time": 2.25,
      "note": 72,
      "duration": 0.125,
      "velocity": 100
    },
    {
      "time": 2.375,
      "note": 75,
      "duration": 0.125,
      "velocity": 100
    },
    {
      "time": 2.5,
      "note": 72,
      "duration": 0.125,
      "velocity": 100
    },
    {
      "time": 2.625,
      "note": 75,
      "duration": 0.125,
      "velocity": 100
    },
    {
      "time": 2.75,
      "note": 72,
      "duration": 0.125,
      "velocity": 100
    },
    {
      "time": 2.875,
      "note": 75,
      "duration": 0.125,
      "velocity": 100
    },
    {
      "time": 3.0,
      "note": 82,
      "duration": 0.125,
      "velocity": 100
    },
    {
      "time": 3.125,
      "note": 86,
      "duration": 0.125,
      "velocity": 100
    },
    {
      "time": 3.125,
      "note": 82,
      "duration": 0.125,
      "velocity": 100
    },
    {
      "time": 3.25,
      "note": 86,
      "duration": 0.125,
      "velocity": 100
    },
    {
      "time": 3.25,
      "note": 82,
      "duration": 0.125,
      "velocity": 100
    },
    {
      "time": 3.375,
      "note": 86,
      "duration": 0.125,
      "velocity": 100
    },
    {
      "time": 3.375,
      "note": 82,
      "duration": 0.125,
      "velocity": 100
    },
    {
      "time": 3.5,
      "note": 86,
      "duration": 0.125,
      "velocity": 100
    },
    {
      "time": 3.5,
      "note": 86,
      "duration": 0.25,
      "velocity": 100
    },
    {
      "time": 3.75,
      "note": 89,
      "duration": 0.25,
      "velocity": 100
    },
    {
      "time": 3.75,
      "note": 82,
      "duration": 0.25,
      "velocity": 100
    },
    {
      "time": 4.0,
      "note": 86,
      "duration": 0.25,
      "velocity": 100
    },
    {
      "time": 4.0,
      "note": 77,
      "duration": 0.125,
      "velocity": 100
    },
    {
      "time": 4.125,
      "note": 81,
      "duration": 0.125,
      "velocity": 100
    },
    {
      "time": 4.25,
      "note": 77,
      "duration": 0.125,
      "velocity": 100
    },
    {
      "time": 4.375,
      "note": 81,
      "duration": 0.125,
      "velocity": 100
    },
    {
      "time": 4.5,
      "note": 77,
      "duration": 0.125,
      "velocity": 100
    },
    {
      "time": 4.625,
      "note": 81,
      "duration": 0.125,
      "velocity": 100
    },
    {
      "time": 4.75,
      "note": 77,
      "duration": 0.125,
      "velocity": 100
    },
    {
      "time": 4.875,
      "note": 81,
      "duration": 0.125,
      "velocity": 100
    },
    {
      "time": 5.0,
      "note": 82,
      "duration": 0.125,
      "velocity": 100
    },
    {
      "time": 5.125,
      "note": 86,
      "duration": 0.125,
      "velocity": 100
    },
    {
      "time": 5.125,
      "note": 82,
      "duration": 0.125,
      "velocity": 100
    },
    {
      "time": 5.25,
      "note": 86,
      "duration": 0.125,
      "velocity": 100
    },
    {
      "time": 5.25,
      "note": 82,
      "duration": 0.125,
      "velocity": 100
    },
    {
      "time": 5.375,
      "note": 86,
      "duration": 0.125,
      "velocity": 100
    },
    {
      "time": 5.375,
      "note": 82,
      "duration": 0.125,
      "velocity": 100
    },
    {
      "time": 5.5,
      "note": 86,
      "duration": 0.125,
      "velocity": 100
    },
    {
      "time": 5.5,
      "note": 86,
      "duration": 0.25,
      "velocity": 100
    },
    {
      "time": 5.75,
      "note": 89,
      "duration": 0.25,
      "velocity": 100
    },
    {
      "time": 5.75,
      "note": 82,
      "duration": 0.25,
      "velocity": 100
    },
    {
      "time": 6.0,
      "note": 86,
      "duration": 0.25,
      "velocity": 100
    },
    {
      "time": 6.0,
      "note": 77,
      "duration": 0.125,
      "velocity": 100
    },
    {
      "time": 6.125,
      "note": 81,
      "duration": 0.125,
      "velocity": 100
    },
    {
      "time": 6.25,
      "note": 77,
      "duration": 0.125,
      "velocity": 100
    },
    {
      "time": 6.375,
      "note": 81,
      "duration": 0.125,
      "velocity": 100
    },
    {
      "time": 6.5,
      "note": 77,
      "duration": 0.125,
      "velocity": 100
    },
    {
      "time": 6.625,
      "note": 81,
      "duration": 0.125,
      "velocity": 100
    },
    {
      "time": 6.75,
      "note": 77,
      "duration": 0.125,
      "velocity": 100
    },
    {
      "time": 6.875,
      "note": 81,
      "duration": 0.125,
      "velocity": 100
    },
    {
      "time": 7.0,
      "note": 82,
      "duration": 0.125,
      "velocity": 100
    },
    {
      "time": 7.125,
      "note": 86,
      "duration": 0.125,
      "velocity": 100
    },
    {
      "time": 7.125,
      "note": 82,
      "duration": 0.125,
      "velocity": 100
    },
    {
      "time": 7.25,
      "note": 86,
      "duration": 0.125,
      "velocity": 100
    },
    {
      "time": 7.25,
      "note": 82,
      "duration": 0.125,
      "velocity": 100
    },
    {
      "time": 7.375,
      "note": 86,
      "duration": 0.125,
      "velocity": 100
    },
    {
      "time": 7.375,
      "note": 82,
      "duration": 0.125,
      "velocity": 100
    },
    {
      "time": 7.5,
      "note": 86,
      "duration": 0.125,
      "velocity": 100
    },
    {
      "time": 7.5,
      "note": 86,
      "duration": 0.25,
      "velocity": 100
    },
    {
      "time": 7.75,
      "note": 89,
      "duration": 0.25,
      "velocity": 100
    },
    {
      "time": 7.75,
      "note": 82,
      "duration": 0.25,
      "velocity": 100
    },
    {
      "time": 8.0,
      "note": 86,
      "duration": 0.25,
      "velocity": 100
    },
    {
      "time": 8.0,
      "note": 84,
      "duration": 0.25,
      "velocity": 100
    },
    {
      "time": 8.25,
      "note": 87,
      "duration": 0.25,
      "velocity": 100
    },
    {
      "time": 8.25,
      "note": 82,
      "duration": 0.125,
      "velocity": 100
    },
    {
      "time": 8.375,
      "note": 86,
      "duration": 0.125,
      "velocity": 100
    },
    {
      "time": 8.375,
      "note": 79,
      "duration": 0.125,
      "velocity": 100
    },
    {
      "time": 8.5,
      "note": 84,
      "duration": 0.125,
      "velocity": 100
    },
    {
      "time": 8.5,
      "note": 79,
      "duration": 0.125,
      "velocity": 100
    },
    {
      "time": 8.625,
      "note": 84,
      "duration": 0.125,
      "velocity": 100
    },
    {
      "time": 8.625,
      "note": 84,
      "duration": 0.125,
      "velocity": 100
    },
    {
      "time": 8.75,
      "note": 87,
      "duration": 0.125,
      "velocity": 100
    },
    {
      "time": 8.75,
      "note": 82,
      "duration": 0.25,
      "velocity": 100
    },
    {
      "time": 9.0,
      "note": 86,
      "duration": 0.25,
      "velocity": 100
    },
    {
      "time": 9.0,
      "note": 82,
      "duration": 1.0,
      "velocity": 100
    },
    {
      "time": 10.0,
      "note": 86,
      "duration": 1.0,
      "velocity": 100
    },
    {
      "time": 10.0,
      "note": 82,
      "duration": 1.0,
      "velocity": 100
    },
    {
      "time": 11.0,
      "note": 86,
      "duration": 1.0,
      "velocity": 100
    },
    {
      "time": 11.0,
      "note": 84,
      "duration": 0.25,
      "velocity": 100
    },
    {
      "time": 11.25,
      "note": 87,
      "duration": 0.125,
      "velocity": 100
    },
    {
      "time": 11.375,
      "note": 87,
      "duration": 0.125,
      "velocity": 100
    },
    {
      "time": 11.5,
      "note": 87,
      "duration": 0.25,
      "velocity": 100
    },
    {
      "time": 11.75,
      "note": 84,
      "duration": 0.25,
      "velocity": 100
    },
    {
      "time": 12.0,
      "note": 84,
      "duration": 0.5,
      "velocity": 100
    },
    {
      "time": 12.5,
      "note": 84,
      "duration": 0.125,
      "velocity": 100
    },
    {
      "time": 12.625,
      "note": 84,
      "duration": 0.25,
      "velocity": 100
    },
    {
      "time": 12.875,
      "note": 82,
      "duration": 0.125,
      "velocity": 100
    },
    {
      "time": 13.0,
      "note": 84,
      "duration": 0.25,
      "velocity": 100
    },
    {
      "time": 13.25,
      "note": 87,
      "duration": 0.125,
      "velocity": 100
    },
    {
      "time": 13.375,
      "note": 87,
      "duration": 0.125,
      "velocity": 100
    },
    {
      "time": 13.5,
      "note": 87,
      "duration": 0.25,
      "velocity": 100
    },
    {
      "time": 13.75,
      "note": 84,
      "duration": 0.25,
      "velocity": 100
    },
    {
      "time": 14.0,
      "note": 84,
      "duration": 0.5,
      "velocity": 100
    },
    {
      "time": 14.5,
      "note": 84,
      "duration": 0.125,
      "velocity": 100
    },
    {
      "time": 14.625,
      "note": 84,
      "duration": 0.25,
      "velocity": 100
    },
    {
      "time": 14.875,
      "note": 87,
      "duration": 0.125,
      "velocity": 100
    },
    {
      "time": 14.0,
      "note": 72,
      "duration": 0.25,
      "velocity": 100
    },
    {
      "time": 14.25,
      "note": 74,
      "duration": 0.125,
      "velocity": 100
    },
    {
      "time": 14.375,
      "note": 75,
      "duration": 0.125,
      "velocity": 100
    },
    {
      "time": 14.5,
      "note": 87,
      "duration": 0.125,
      "velocity": 100
    },
    {
      "time": 14.625,
      "note": 86,
      "duration": 0.125,
      "velocity": 100
    },
    {
      "time": 14.75,
      "note": 84,
      "duration": 0.125,
      "velocity": 100
    },
    {
      "time": 14.875,
      "note": 82,
      "duration": 0.125,
      "velocity": 100
    },
    {
      "time": 15.0,
      "note": 82,
      "duration": 0.5,
      "velocity": 100
    },
    {
      "time": 15.5,
      "note": 82,
      "duration": 0.5,
      "velocity": 100
    },
    {
      "time": 16.0,
      "note": 82,
      "duration": 0.125,
      "velocity": 100
    },
    {
      "time": 16.125,
      "note": 82,
      "duration": 0.25,
      "velocity": 100
    },
    {
      "time": 16.375,
      "note": 82,
      "duration": 0.125,
      "velocity": 100
    },
    {
      "time": 15.5,
      "note": 75,
      "duration": 0.25,
      "velocity": 100
    },
    {
      "time": 15.75,
      "note": 77,
      "duration": 0.125,
      "velocity": 100
    },
    {
      "time": 15.875,
      "note": 79,
      "duration": 0.125,
      "velocity": 100
    },
    {
      "time": 16.0,
      "note": 86,
      "duration": 0.125,
      "velocity": 100
    },
    {
      "time": 16.125,
      "note": 86,
      "duration": 0.125,
      "velocity": 100
    },
    {
      "time": 16.25,
      "note": 86,
      "duration": 0.125,
      "velocity": 100
    },
    {
      "time": 16.375,
      "note": 87,
      "duration": 0.125,
      "velocity": 100
    },
    {
      "time": 16.5,
      "note": 87,
      "duration": 0.375,
      "velocity": 100
    },
    {
      "time": 16.875,
      "note": 86,
      "duration": 0.125,
      "velocity": 100
    },
    {
      "time": 16.0,
      "note": 77,
      "duration": 0.25,
      "velocity": 100
    },
    {
      "time": 16.25,
      "note": 79,
      "duration": 0.125,
      "velocity": 100
    },
    {
      "time": 16.375,
      "note": 81,
      "duration": 0.125,
      "velocity": 100
    },
    {
      "time": 16.5,
      "note": 81,
      "duration": 0.125,
      "velocity": 100
    },
    {
      "time": 16.625,
      "note": 77,
      "duration": 0.125,
      "velocity": 100
    },
    {
      "time": 16.75,
      "note": 75,
      "duration": 0.25,
      "velocity": 100
    },
    {
      "time": 17.0,
      "note": 86,
      "duration": 1.0,
      "velocity": 100
    },
    {
      "time": 18.0,
      "note": 86,
      "duration": 1.0,
      "velocity": 100
    },
    {
      "time": 19.0,
      "note": 86,
      "duration": 0.25,
      "velocity": 100
    },
    {
      "time": 19.25,
      "note": 87,
      "duration": 0.125,
      "velocity": 100
    },
    {
      "time": 19.375,
      "note": 87,
      "duration": 0.125,
      "velocity": 100
    },
    {
      "time": 19.5,
      "note": 87,
      "duration": 0.125,
      "velocity": 100
    },
    {
      "time": 19.625,
      "note": 86,
      "duration": 0.375,
      "velocity": 100
    },
    {
      "time": 20.0,
      "note": 86,
      "duration": 0.5,
      "velocity": 100
    },
    {
      "time": 20.5,
      "note": 86,
      "duration": 0.5,
      "velocity": 100
    },
    {
      "time": 21.0,
      "note": 87,
      "duration": 0.25,
      "velocity": 100
    },
    {
      "time": 21.25,
      "note": 89,
      "duration": 0.125,
      "velocity": 100
    },
    {
      "time": 21.375,
      "note": 89,
      "duration": 0.125,
      "velocity": 100
    },
    {
      "time": 21.5,
      "note": 89,
      "duration": 0.125,
      "velocity": 100
    },
    {
      "time": 21.625,
      "note": 87,
      "duration": 0.375,
      "velocity": 100
    },
    {
      "time": 22.0,
      "note": 87,
      "duration": 0.5,
      "velocity": 100
    },
    {
      "time": 22.5,
      "note": 87,
      "duration": 0.25,
      "velocity": 100
    },
    {
      "time": 22.75,
      "note": 87,
      "duration": 0.25,
      "velocity": 100
    },
    {
      "time": 23.0,
      "note": 91,
      "duration": 0.25,
      "velocity": 100
    },
    {
      "time": 23.25,
      "note": 89,
      "duration": 0.125,
      "velocity": 100
    },
    {
      "time": 23.375,
      "note": 87,
      "duration": 0.125,
      "velocity": 100
    },
    {
      "time": 23.5,
      "note": 87,
      "duration": 0.125,
      "velocity": 100
    },
    {
      "time": 23.625,
      "note": 89,
      "duration": 0.125,
      "velocity": 100
    },
    {
      "time": 23.75,
      "note": 86,
      "duration": 0.25,
      "velocity": 100
    },
    {
      "time": 24.0,
      "note": 86,
      "duration": 1.0,
      "velocity": 100
    },
    {
      "time": 24.0,
      "note": 86,
      "duration": 0.75,
      "velocity": 100
    },
    {
      "time": 24.75,
      "note": 72,
      "duration": 0.125,
      "velocity": 100
    },
    {
      "time": 24.875,
      "note": 79,
      "duration": 0.125,
      "velocity": 100
    },
    {
      "time": 24.875,
      "note": 75,
      "duration": 0.125,
      "velocity": 100
    },
    {
      "time": 25.0,
      "note": 84,
      "duration": 0.125,
      "velocity": 100
    },
    {
      "time": 25.0,
      "note": 79,
      "duration": 0.25,
      "velocity": 100
    },
    {
      "time": 25.25,
      "note": 87,
      "duration": 0.25,
      "velocity": 100
    },
    {
      "time": 25.25,
      "note": 77,
      "duration": 0.125,
      "velocity": 100
    },
    {
      "time": 25.375,
      "note": 86,
      "duration": 0.125,
      "velocity": 100
    },
    {
      "time": 25.375,
      "note": 75,
      "duration": 0.125,
      "velocity": 100
    },
    {
      "time": 25.5,
      "note": 84,
      "duration": 0.125,
      "velocity": 100
    },
    {
      "time": 25.5,
      "note": 75,
      "duration": 0.25,
      "velocity": 100
    },
    {
      "time": 25.75,
      "note": 84,
      "duration": 0.25,
      "velocity": 100
    },
    {
      "time": 25.75,
      "note": 70,
      "duration": 0.125,
      "velocity": 100
    },
    {
      "time": 25.875,
      "note": 77,
      "duration": 0.125,
      "velocity": 100
    },
    {
      "time": 25.875,
      "note": 74,
      "duration": 0.125,
      "velocity": 100
    },
    {
      "time": 26.0,
      "note": 82,
      "duration": 0.125,
      "velocity": 100
    },
    {
      "time": 26.0,
      "note": 77,
      "duration": 0.25,
      "velocity": 100
    },
    {
      "time": 26.25,
      "note": 86,
      "duration": 0.25,
      "velocity": 100
    },
    {
      "time": 26.25,
      "note": 75,
      "duration": 0.125,
      "velocity": 100
    },
    {
      "time": 26.375,
      "note": 84,
      "duration": 0.125,
      "velocity": 100
    },
    {
      "time": 26.375,
      "note": 74,
      "duration": 0.125,
      "velocity": 100
    },
    {
      "time": 26.5,
      "note": 82,
      "duration": 0.125,
      "velocity": 100
    },
    {
      "time": 26.5,
      "note": 74,
      "duration": 0.25,
      "velocity": 100
    },
    {
      "time": 26.75,
      "note": 82,
      "duration": 0.25,
      "velocity": 100
    },
    {
      "time": 26.75,
      "note": 77,
      "duration": 0.125,
      "velocity": 100
    },
    {
      "time": 26.875,
      "note": 84,
      "duration": 0.125,
      "velocity": 100
    },
    {
      "time": 26.875,
      "note": 81,
      "duration": 0.125,
      "velocity": 100
    },
    {
      "time": 27.0,
      "note": 89,
      "duration": 0.125,
      "velocity": 100
    },
    {
      "time": 27.0,
      "note": 84,
      "duration": 0.25,
      "velocity": 100
    },
    {
      "time": 27.25,
      "note": 93,
      "duration": 0.25,
      "velocity": 100
    },
    {
      "time": 27.25,
      "note": 82,
      "duration": 0.125,
      "velocity": 100
    },
    {
      "time": 27.375,
      "note": 91,
      "duration": 0.125,
      "velocity": 100
    },
    {
      "time": 27.375,
      "note": 81,
      "duration": 0.125,
      "velocity": 100
    },
    {
      "time": 27.5,
      "note": 89,
      "duration": 0.125,
      "velocity": 100
    },
    {
      "time": 27.5,
      "note": 81,
      "duration": 0.25,
      "velocity": 100
    },
    {
      "time": 27.75,
      "note": 89,
      "duration": 0.25,
      "velocity": 100
    },
    {
      "time": 27.75,
      "note": 81,
      "duration": 0.125,
      "velocity": 100
    },
    {
      "time": 27.875,
      "note": 89,
      "duration": 0.125,
      "velocity": 100
    },
    {
      "time": 27.875,
      "note": 84,
      "duration": 0.125,
      "velocity": 100
    },
    {
      "time": 28.0,
      "note": 93,
      "duration": 0.125,
      "velocity": 100
    },
    {
      "time": 28.0,
      "note": 82,
      "duration": 0.25,
      "velocity": 100
    },
    {
      "time": 28.25,
      "note": 91,
      "duration": 0.25,
      "velocity": 100
    },
    {
      "time": 28.25,
      "note": 81,
      "duration": 0.125,
      "velocity": 100
    },
    {
      "time": 28.375,
      "note": 89,
      "duration": 0.125,
      "velocity": 100
    },
    {
      "time": 28.375,
      "note": 79,
      "duration": 0.125,
      "velocity": 100
    },
    {
      "time": 28.5,
      "note": 87,
      "duration": 0.125,
      "velocity": 100
    },
    {
      "time": 28.5,
      "note": 79,
      "duration": 0.25,
      "velocity": 100
    },
    {
      "time": 28.75,
      "note": 87,
      "duration": 0.25,
      "velocity": 100
    },
    {
      "time": 28.75,
      "note": 72,
      "duration": 0.125,
      "velocity": 100
    },
    {
      "time": 28.875,
      "note": 79,
      "duration": 0.125,
      "velocity": 100
    },
    {
      "time": 28.875,
      "note": 75,
      "duration": 0.125,
      "velocity": 100
    },
    {
      "time": 29.0,
      "note": 84,
      "duration": 0.125,
      "velocity": 100
    },
    {
      "time": 29.0,
      "note": 84,
      "duration": 1.0,
      "velocity": 100
    },
    {
      "time": 30.0,
      "note": 82,
      "duration": 0.25,
      "velocity": 100
    },
    {
      "time": 30.25,
      "note": 91,
      "duration": 0.25,
      "velocity": 100
    },
    {
      "time": 30.25,
      "note": 94,
      "duration": 0.25,
      "velocity": 100
    },
    {
      "time": 30.25,
      "note": 81,
      "duration": 0.125,
      "velocity": 100
    },
    {
      "time": 30.375,
      "note": 89,
      "duration": 0.125,
      "velocity": 100
    },
    {
      "time": 30.375,
      "note": 79,
      "duration": 0.125,
      "velocity": 100
    },
    {
      "time": 30.5,
      "note": 88,
      "duration": 0.125,
      "velocity": 100
    },
    {
      "time": 30.5,
      "note": 79,
      "duration": 0.125,
      "velocity": 100
    },
    {
      "time": 30.625,
      "note": 88,
      "duration": 0.125,
      "velocity": 100
    },
    {
      "time": 30.625,
      "note": 81,
      "duration": 0.125,
      "velocity": 100
    },
    {
      "time": 30.75,
      "note": 89,
      "duration": 0.125,
      "velocity": 100
    },
    {
      "time": 30.75,
      "note": 77,
      "duration": 0.25,
      "velocity": 100
    },
    {
      "time": 31.0,
      "note": 86,
      "duration": 0.25,
      "velocity": 100
    },
    {
      "time": 31.0,
      "note": 77,
      "duration": 1.0,
      "velocity": 100
    },
    {
      "time": 32.0,
      "note": 86,
      "duration": 1.0,
      "velocity": 100
    },
    {
      "time": 32.0,
      "note": 77,
      "duration": 1.0,
      "velocity": 100
    },
    {
      "time": 33.0,
      "note": 86,
      "duration": 1.0,
      "velocity": 100
    },
    {
      "time": 33.0,
      "note": 77,
      "duration": 1.0,
      "velocity": 100
    },
    {
      "time": 34.0,
      "note": 87,
      "duration": 1.0,
      "velocity": 100
    },
    {
      "time": 33.0,
      "note": 86,
      "duration": 0.125,
      "velocity": 100
    },
    {
      "time": 33.125,
      "note": 84,
      "duration": 0.125,
      "velocity": 100
    },
    {
      "time": 33.25,
      "note": 82,
      "duration": 0.25,
      "velocity": 100
    },
    {
      "time": 33.5,
      "note": 82,
      "duration": 0.5,
      "velocity": 100
    },
    {
      "time": 34.0,
      "note": 86,
      "duration": 0.125,
      "velocity": 100
    },
    {
      "time": 34.125,
      "note": 86,
      "duration": 0.125,
      "velocity": 100
    },
    {
      "time": 34.25,
      "note": 86,
      "duration": 0.125,
      "velocity": 100
    },
    {
      "time": 34.375,
      "note": 86,
      "duration": 0.125,
      "velocity": 100
    },
    {
      "time": 34.5,
      "note": 86,
      "duration": 0.125,
      "velocity": 100
    },
    {
      "time": 34.625,
      "note": 87,
      "duration": 0.25,
      "velocity": 100
    },
    {
      "time": 34.875,
      "note": 86,
      "duration": 0.125,
      "velocity": 100
    },
    {
      "time": 35.0,
      "note": 87,
      "duration": 0.125,
      "velocity": 100
    },
    {
      "time": 35.125,
      "note": 86,
      "duration": 0.125,
      "velocity": 100
    },
    {
      "time": 35.25,
      "note": 84,
      "duration": 0.25,
      "velocity": 100
    },
    {
      "time": 35.5,
      "note": 84,
      "duration": 0.5,
      "velocity": 100
    },
    {
      "time": 36.0,
      "note": 87,
      "duration": 0.125,
      "velocity": 100
    },
    {
      "time": 36.125,
      "note": 91,
      "duration": 0.25,
      "velocity": 100
    },
    {
      "time": 36.375,
      "note": 91,
      "duration": 0.125,
      "velocity": 100
    },
    {
      "time": 36.5,
      "note": 91,
      "duration": 0.125,
      "velocity": 100
    },
    {
      "time": 36.625,
      "note": 89,
      "duration": 0.25,
      "velocity": 100
    },
    {
      "time": 36.875,
      "note": 87,
      "duration": 0.125,
      "velocity": 100
    },
    {
      "time": 37.0,
      "note": 86,
      "duration": 0.125,
      "velocity": 100
    },
    {
      "time": 37.125,
      "note": 84,
      "duration": 0.125,
      "velocity": 100
    },
    {
      "time": 37.25,
      "note": 82,
      "duration": 0.25,
      "velocity": 100
    },
    {
      "time": 37.5,
      "note": 82,
      "duration": 0.375,
      "velocity": 100
    },
    {
      "time": 37.875,
      "note": 81,
      "duration": 0.125,
      "velocity": 100
    },
    {
      "time": 38.0,
      "note": 81,
      "duration": 0.125,
      "velocity": 100
    },
    {
      "time": 38.125,
      "note": 89,
      "duration": 0.125,
      "velocity": 100
    },
    {
      "time": 38.25,
      "note": 89,
      "duration": 0.125,
      "velocity": 100
    },
    {
      "time": 38.375,
      "note": 89,
      "duration": 0.125,
      "velocity": 100
    },
    {
      "time": 38.5,
      "note": 89,
      "duration": 0.125,
      "velocity": 100
    },
    {
      "time": 38.625,
      "note": 87,
      "duration": 0.25,
      "velocity": 100
    },
    {
      "time": 38.875,
      "note": 86,
      "duration": 0.125,
      "velocity": 100
    },
    {
      "time": 39.0,
      "note": 87,
      "duration": 0.75,
      "velocity": 100
    },
    {
      "time": 39.75,
      "note": 89,
      "duration": 0.125,
      "velocity": 100
    },
    {
      "time": 39.875,
      "note": 87,
      "duration": 0.125,
      "velocity": 100
    },
    {
      "time": 40.0,
      "note": 86,
      "duration": 1.0,
      "velocity": 100
    },
    {
      "time": 41.0,
      "note": 86,
      "duration": 1.0,
      "velocity": 100
    }
  ],
  "chords": [
    {
      "time": 0.0,
      "notes": [
        60,
        63,
        67
      ],
      "duration": 1.4
    },
    {
      "time": 1.4,
      "notes": [
        70,
        74,
        77
      ],
      "duration": 1.4
    },
    {
      "time": 2.8,
      "notes": [
        65,
        68,
        72
      ],
      "duration": 1.4
    },
    {
      "time": 4.199999999999999,
      "notes": [
        70,
        74,
        77
      ],
      "duration": 1.4
    },
    {
      "time": 5.6,
      "notes": [
        60,
        63,
        67
      ],
      "duration": 1.4
    },
    {
      "time": 7.0,
      "notes": [
        70,
        74,
        77
      ],
      "duration": 1.4
    },
    {
      "time": 8.399999999999999,
      "notes": [
        60,
        63,
        67
      ],
      "duration": 1.4
    },
    {
      "time": 9.799999999999999,
      "notes": [
        70,
        74,
        77
      ],
      "duration": 1.4
    },
    {
      "time": 11.2,
      "notes": [
        68,
        72,
        75
      ],
      "duration": 1.4
    },
    {
      "time": 12.6,
      "notes": [
        63,
        67,
        70
      ],
      "duration": 1.4
    },
    {
      "time": 14.0,
      "notes": [
        70,
        74,
        77
      ],
      "duration": 1.4
    },
    {
      "time": 15.399999999999999,
      "notes": [
        70,
        74,
        77
      ],
      "duration": 1.4
    },
    {
      "time": 16.799999999999997,
      "notes": [
        69,
        73,
        76
      ],
      "duration": 1.4
    },
    {
      "time": 18.2,
      "notes": [
        68,
        72,
        75
      ],
      "duration": 1.4
    },
    {
      "time": 19.599999999999998,
      "notes": [
        60,
        63,
        67
      ],
      "duration": 1.4
    },
    {
      "time": 21.0,
      "notes": [
        70,
        74,
        77
      ],
      "duration": 1.4
    },
    {
      "time": 22.4,
      "notes": [
        65,
        69,
        72
      ],
      "duration": 1.4
    },
    {
      "time": 23.799999999999997,
      "notes": [
        60,
        63,
        67
      ],
      "duration": 1.4
    },
    {
      "time": 25.2,
      "notes": [
        70,
        74,
        77
      ],
      "duration": 1.4
    },
    {
      "time": 26.599999999999998,
      "notes": [
        65,
        68,
        72
      ],
      "duration": 1.4
    },
    {
      "time": 28.0,
      "notes": [
        63,
        67,
        70
      ],
      "duration": 1.4
    },
    {
      "time": 29.4,
      "notes": [
        63,
        67,
        70
      ],
      "duration": 1.4
    },
    {
      "time": 30.799999999999997,
      "notes": [
        63,
        67,
        70
      ],
      "duration": 1.4
    },
    {
      "time": 32.199999999999996,
      "notes": [
        70,
        74,
        77
      ],
      "duration": 1.4
    },
    {
      "time": 33.599999999999994,
      "notes": [
        60,
        63,
        67
      ],
      "duration": 1.4
    },
    {
      "time": 35.0,
      "notes": [
        63,
        67,
        70
      ],
      "duration": 1.4
    },
    {
      "time": 36.4,
      "notes": [
        70,
        74,
        77
      ],
      "duration": 1.4
    },
    {
      "time": 37.8,
      "notes": [
        65,
        68,
        72
      ],
      "duration": 1.4
    },
    {
      "time": 39.199999999999996,
      "notes": [
        63,
        67,
        70
      ],
      "duration": 1.4
    },
    {
      "time": 40.599999999999994,
      "notes": [
        70,
        74,
        77
      ],
      "duration": 1.4
    }
  ]
}