{
  "title": "Esa malvada",
  "artist": "Volcan",
  "bpm": 120,
  "duration": 28.375,
  "audioFile": "",
  "notes": [
    {
      "time": 0.125,
      "note": 77,
      "duration": 0.125,
      "velocity": 100
    },
    {
      "time": 0.25,
      "note": 81,
      "duration": 0.125,
      "velocity": 100
    },
    {
      "time": 0.375,
      "note": 84,
      "duration": 0.125,
      "velocity": 100
    },
    {
      "time": 0.5,
      "note": 84,
      "duration": 0.125,
      "velocity": 100
    },
    {
      "time": 0.625,
      "note": 77,
      "duration": 0.125,
      "velocity": 100
    },
    {
      "time": 0.75,
      "note": 81,
      "duration": 0.125,
      "velocity": 100
    },
    {
      "time": 0.875,
      "note": 84,
      "duration": 0.125,
      "velocity": 100
    },
    {
      "time": 1.0,
      "note": 86,
      "duration": 0.125,
      "velocity": 100
    },
    {
      "time": 1.125,
      "note": 77,
      "duration": 0.125,
      "velocity": 100
    },
    {
      "time": 1.25,
      "note": 82,
      "duration": 0.125,
      "velocity": 100
    },
    {
      "time": 1.375,
      "note": 86,
      "duration": 0.125,
      "velocity": 100
    },
    {
      "time": 1.5,
      "note": 88,
      "duration": 0.375,
      "velocity": 100
    },
    {
      "time": 1.875,
      "note": 79,
      "duration": 0.125,
      "velocity": 100
    },
    {
      "time": 2.0,
      "note": 79,
      "duration": 0.125,
      "velocity": 100
    },
    {
      "time": 2.125,
      "note": 84,
      "duration": 0.125,
      "velocity": 100
    },
    {
      "time": 2.25,
      "note": 88,
      "duration": 0.125,
      "velocity": 100
    },
    {
      "time": 2.375,
      "note": 84,
      "duration": 0.125,
      "velocity": 100
    },
    {
      "time": 2.5,
      "note": 86,
      "duration": 0.375,
      "velocity": 100
    },
    {
      "time": 2.875,
      "note": 77,
      "duration": 0.125,
      "velocity": 100
    },
    {
      "time": 3.0,
      "note": 77,
      "duration": 0.125,
      "velocity": 100
    },
    {
      "time": 3.125,
      "note": 82,
      "duration": 0.125,
      "velocity": 100
    },
    {
      "time": 3.25,
      "note": 86,
      "duration": 0.125,
      "velocity": 100
    },
    {
      "time": 3.375,
      "note": 82,
      "duration": 0.125,
      "velocity": 100
    },
    {
      "time": 3.5,
      "note": 84,
      "duration": 0.25,
      "velocity": 100
    },
    {
      "time": 3.75,
      "note": 81,
      "duration": 0.25,
      "velocity": 100
    },
    {
      "time": 4.125,
      "note": 77,
      "duration": 0.125,
      "velocity": 100
    },
    {
      "time": 4.25,
      "note": 81,
      "duration": 0.125,
      "velocity": 100
    },
    {
      "time": 4.375,
      "note": 84,
      "duration": 0.125,
      "velocity": 100
    },
    {
      "time": 3.5,
      "note": 81,
      "duration": 0.375,
      "velocity": 100
    },
    {
      "time": 3.875,
      "note": 81,
      "duration": 0.125,
      "velocity": 100
    },
    {
      "time": 4.125,
      "note": 79,
      "duration": 0.125,
      "velocity": 100
    },
    {
      "time": 4.25,
      "note": 77,
      "duration": 0.25,
      "velocity": 100
    },
    {
      "time": 4.625,
      "note": 81,
      "duration": 0.25,
      "velocity": 100
    },
    {
      "time": 4.875,
      "note": 79,
      "duration": 0.125,
      "velocity": 100
    },
    {
      "time": 5.0,
      "note": 77,
      "duration": 0.5,
      "velocity": 100
    },
    {
      "time": 5.875,
      "note": 81,
      "duration": 0.125,
      "velocity": 100
    },
    {
      "time": 6.125,
      "note": 79,
      "duration": 0.125,
      "velocity": 100
    },
    {
      "time": 6.25,
      "note": 77,
      "duration": 0.125,
      "velocity": 100
    },
    {
      "time": 6.375,
      "note": 79,
      "duration": 0.125,
      "velocity": 100
    },
    {
      "time": 6.5,
      "note": 77,
      "duration": 0.5,
      "velocity": 100
    },
    {
      "time": 7.25,
      "note": 81,
      "duration": 0.25,
      "velocity": 100
    },
    {
      "time": 7.5,
      "note": 81,
      "duration": 0.25,
      "velocity": 100
    },
    {
      "time": 6.75,
      "note": 93,
      "duration": 0.125,
      "velocity": 100
    },
    {
      "time": 6.875,
      "note": 93,
      "duration": 0.125,
      "velocity": 100
    },
    {
      "time": 7.0,
      "note": 96,
      "duration": 0.125,
      "velocity": 100
    },
    {
      "time": 7.125,
      "note": 94,
      "duration": 0.125,
      "velocity": 100
    },
    {
      "time": 7.25,
      "note": 94,
      "duration": 0.125,
      "velocity": 100
    },
    {
      "time": 6.5,
      "note": 81,
      "duration": 0.375,
      "velocity": 100
    },
    {
      "time": 6.875,
      "note": 77,
      "duration": 0.125,
      "velocity": 100
    },
    {
      "time": 7.0,
      "note": 77,
      "duration": 0.5,
      "velocity": 100
    },
    {
      "time": 7.625,
      "note": 81,
      "duration": 0.125,
      "velocity": 100
    },
    {
      "time": 7.75,
      "note": 81,
      "duration": 0.125,
      "velocity": 100
    },
    {
      "time": 7.875,
      "note": 81,
      "duration": 0.125,
      "velocity": 100
    },
    {
      "time": 8.0,
      "note": 84,
      "duration": 0.125,
      "velocity": 100
    },
    {
      "time": 8.125,
      "note": 82,
      "duration": 0.25,
      "velocity": 100
    },
    {
      "time": 8.375,
      "note": 81,
      "duration": 0.125,
      "velocity": 100
    },
    {
      "time": 8.75,
      "note": 91,
      "duration": 0.125,
      "velocity": 100
    },
    {
      "time": 8.875,
      "note": 91,
      "duration": 0.125,
      "velocity": 100
    },
    {
      "time": 9.0,
      "note": 94,
      "duration": 0.125,
      "velocity": 100
    },
    {
      "time": 9.125,
      "note": 93,
      "duration": 0.125,
      "velocity": 100
    },
    {
      "time": 9.25,
      "note": 94,
      "duration": 0.125,
      "velocity": 100
    },
    {
      "time": 9.375,
      "note": 93,
      "duration": 0.125,
      "velocity": 100
    },
    {
      "time": 8.5,
      "note": 79,
      "duration": 1.0,
      "velocity": 100
    },
    {
      "time": 9.5,
      "note": 91,
      "duration": 1.0,
      "velocity": 100
    },
    {
      "time": 9.625,
      "note": 82,
      "duration": 0.25,
      "velocity": 100
    },
    {
      "time": 9.875,
      "note": 82,
      "duration": 0.125,
      "velocity": 100
    },
    {
      "time": 10.0,
      "note": 82,
      "duration": 0.125,
      "velocity": 100
    },
    {
      "time": 10.125,
      "note": 81,
      "duration": 0.25,
      "velocity": 100
    },
    {
      "time": 10.375,
      "note": 79,
      "duration": 0.125,
      "velocity": 100
    },
    {
      "time": 10.75,
      "note": 91,
      "duration": 0.125,
      "velocity": 100
    },
    {
      "time": 10.875,
      "note": 91,
      "duration": 0.125,
      "velocity": 100
    },
    {
      "time": 11.0,
      "note": 94,
      "duration": 0.125,
      "velocity": 100
    },
    {
      "time": 11.125,
      "note": 93,
      "duration": 0.125,
      "velocity": 100
    },
    {
      "time": 11.25,
      "note": 94,
      "duration": 0.125,
      "velocity": 100
    },
    {
      "time": 11.375,
      "note": 93,
      "duration": 0.125,
      "velocity": 100
    },
    {
      "time": 10.5,
      "note": 82,
      "duration": 0.375,
      "velocity": 100
    },
    {
      "time": 10.875,
      "note": 79,
      "duration": 0.125,
      "velocity": 100
    },
    {
      "time": 11.0,
      "note": 79,
      "duration": 0.5,
      "velocity": 100
    },
    {
      "time": 11.5,
      "note": 91,
      "duration": 1.0,
      "velocity": 100
    },
    {
      "time": 11.625,
      "note": 82,
      "duration": 0.125,
      "velocity": 100
    },
    {
      "time": 11.75,
      "note": 82,
      "duration": 0.125,
      "velocity": 100
    },
    {
      "time": 11.875,
      "note": 82,
      "duration": 0.125,
      "velocity": 100
    },
    {
      "time": 12.0,
      "note": 86,
      "duration": 0.125,
      "velocity": 100
    },
    {
      "time": 12.125,
      "note": 84,
      "duration": 0.25,
      "velocity": 100
    },
    {
      "time": 12.375,
      "note": 82,
      "duration": 0.125,
      "velocity": 100
    },
    {
      "time": 13.0,
      "note": 96,
      "duration": 0.125,
      "velocity": 100
    },
    {
      "time": 13.125,
      "note": 94,
      "duration": 0.125,
      "velocity": 100
    },
    {
      "time": 13.25,
      "note": 94,
      "duration": 0.125,
      "velocity": 100
    },
    {
      "time": 12.75,
      "note": 93,
      "duration": 0.125,
      "velocity": 100
    },
    {
      "time": 12.875,
      "note": 93,
      "duration": 0.125,
      "velocity": 100
    },
    {
      "time": 12.5,
      "note": 81,
      "duration": 0.5,
      "velocity": 100
    },
    {
      "time": 13.625,
      "note": 81,
      "duration": 0.25,
      "velocity": 100
    },
    {
      "time": 13.875,
      "note": 81,
      "duration": 0.125,
      "velocity": 100
    },
    {
      "time": 14.0,
      "note": 81,
      "duration": 0.125,
      "velocity": 100
    },
    {
      "time": 14.125,
      "note": 79,
      "duration": 0.25,
      "velocity": 100
    },
    {
      "time": 14.375,
      "note": 77,
      "duration": 0.125,
      "velocity": 100
    },
    {
      "time": 14.5,
      "note": 81,
      "duration": 0.375,
      "velocity": 100
    },
    {
      "time": 14.875,
      "note": 77,
      "duration": 0.125,
      "velocity": 100
    },
    {
      "time": 15.0,
      "note": 77,
      "duration": 0.5,
      "velocity": 100
    },
    {
      "time": 15.0,
      "note": 93,
      "duration": 0.25,
      "velocity": 100
    },
    {
      "time": 15.25,
      "note": 88,
      "duration": 0.25,
      "velocity": 100
    },
    {
      "time": 16.125,
      "note": 81,
      "duration": 0.125,
      "velocity": 100
    },
    {
      "time": 16.25,
      "note": 81,
      "duration": 0.125,
      "velocity": 100
    },
    {
      "time": 16.375,
      "note": 81,
      "duration": 0.125,
      "velocity": 100
    },
    {
      "time": 15.5,
      "note": 76,
      "duration": 0.5,
      "velocity": 100
    },
    {
      "time": 16.0,
      "note": 84,
      "duration": 0.5,
      "velocity": 100
    },
    {
      "time": 16.0,
      "note": 82,
      "duration": 0.75,
      "velocity": 100
    },
    {
      "time": 15.625,
      "note": 77,
      "duration": 0.125,
      "velocity": 100
    },
    {
      "time": 15.75,
      "note": 86,
      "duration": 0.125,
      "velocity": 100
    },
    {
      "time": 15.875,
      "note": 86,
      "duration": 0.125,
      "velocity": 100
    },
    {
      "time": 16.0,
      "note": 86,
      "duration": 0.125,
      "velocity": 100
    },
    {
      "time": 16.125,
      "note": 84,
      "duration": 0.25,
      "velocity": 100
    },
    {
      "time": 16.375,
      "note": 82,
      "duration": 0.125,
      "velocity": 100
    },
    {
      "time": 17.0,
      "note": 93,
      "duration": 0.25,
      "velocity": 100
    },
    {
      "time": 17.25,
      "note": 91,
      "duration": 0.25,
      "velocity": 100
    },
    {
      "time": 16.5,
      "note": 84,
      "duration": 0.375,
      "velocity": 100
    },
    {
      "time": 16.875,
      "note": 81,
      "duration": 0.125,
      "velocity": 100
    },
    {
      "time": 17.0,
      "note": 81,
      "duration": 0.5,
      "velocity": 100
    },
    {
      "time": 17.5,
      "note": 91,
      "duration": 0.5,
      "velocity": 100
    },
    {
      "time": 17.625,
      "note": 82,
      "duration": 0.25,
      "velocity": 100
    },
    {
      "time": 17.875,
      "note": 82,
      "duration": 0.125,
      "velocity": 100
    },
    {
      "time": 18.0,
      "note": 82,
      "duration": 0.125,
      "velocity": 100
    },
    {
      "time": 18.125,
      "note": 81,
      "duration": 0.25,
      "velocity": 100
    },
    {
      "time": 18.375,
      "note": 79,
      "duration": 0.125,
      "velocity": 100
    },
    {
      "time": 19.0,
      "note": 74,
      "duration": 0.5,
      "velocity": 100
    },
    {
      "time": 19.5,
      "note": 77,
      "duration": 0.5,
      "velocity": 100
    },
    {
      "time": 19.5,
      "note": 84,
      "duration": 0.5,
      "velocity": 100
    },
    {
      "time": 18.5,
      "note": 77,
      "duration": 0.375,
      "velocity": 100
    },
    {
      "time": 18.5,
      "note": 86,
      "duration": 0.125,
      "velocity": 100
    },
    {
      "time": 18.625,
      "note": 86,
      "duration": 0.25,
      "velocity": 100
    },
    {
      "time": 18.875,
      "note": 84,
      "duration": 0.125,
      "velocity": 100
    },
    {
      "time": 19.0,
      "note": 86,
      "duration": 0.25,
      "velocity": 100
    },
    {
      "time": 19.25,
      "note": 84,
      "duration": 0.25,
      "velocity": 100
    },
    {
      "time": 19.5,
      "note": 86,
      "duration": 0.125,
      "velocity": 100
    },
    {
      "time": 19.625,
      "note": 86,
      "duration": 0.25,
      "velocity": 100
    },
    {
      "time": 19.875,
      "note": 84,
      "duration": 0.125,
      "velocity": 100
    },
    {
      "time": 20.0,
      "note": 86,
      "duration": 0.125,
      "velocity": 100
    },
    {
      "time": 20.125,
      "note": 86,
      "duration": 0.25,
      "velocity": 100
    },
    {
      "time": 20.375,
      "note": 84,
      "duration": 0.125,
      "velocity": 100
    },
    {
      "time": 20.5,
      "note": 86,
      "duration": 0.125,
      "velocity": 100
    },
    {
      "time": 20.625,
      "note": 86,
      "duration": 0.25,
      "velocity": 100
    },
    {
      "time": 20.875,
      "note": 84,
      "duration": 0.125,
      "velocity": 100
    },
    {
      "time": 21.0,
      "note": 89,
      "duration": 0.125,
      "velocity": 100
    },
    {
      "time": 21.125,
      "note": 88,
      "duration": 0.25,
      "velocity": 100
    },
    {
      "time": 21.375,
      "note": 86,
      "duration": 0.125,
      "velocity": 100
    },
    {
      "time": 21.5,
      "note": 86,
      "duration": 0.125,
      "velocity": 100
    },
    {
      "time": 21.625,
      "note": 84,
      "duration": 0.25,
      "velocity": 100
    },
    {
      "time": 21.875,
      "note": 84,
      "duration": 0.125,
      "velocity": 100
    },
    {
      "time": 22.0,
      "note": 86,
      "duration": 0.25,
      "velocity": 100
    },
    {
      "time": 22.25,
      "note": 86,
      "duration": 0.125,
      "velocity": 100
    },
    {
      "time": 22.375,
      "note": 84,
      "duration": 0.125,
      "velocity": 100
    },
    {
      "time": 22.5,
      "note": 86,
      "duration": 0.25,
      "velocity": 100
    },
    {
      "time": 22.75,
      "note": 86,
      "duration": 0.125,
      "velocity": 100
    },
    {
      "time": 22.875,
      "note": 84,
      "duration": 0.125,
      "velocity": 100
    },
    {
      "time": 23.0,
      "note": 89,
      "duration": 0.125,
      "velocity": 100
    },
    {
      "time": 23.125,
      "note": 88,
      "duration": 0.25,
      "velocity": 100
    },
    {
      "time": 23.375,
      "note": 86,
      "duration": 0.125,
      "velocity": 100
    },
    {
      "time": 23.5,
      "note": 86,
      "duration": 0.125,
      "velocity": 100
    },
    {
      "time": 23.625,
      "note": 84,
      "duration": 0.25,
      "velocity": 100
    },
    {
      "time": 23.875,
      "note": 84,
      "duration": 0.125,
      "velocity": 100
    },
    {
      "time": 24.0,
      "note": 86,
      "duration": 0.25,
      "velocity": 100
    },
    {
      "time": 24.25,
      "note": 86,
      "duration": 0.125,
      "velocity": 100
    },
    {
      "time": 24.375,
      "note": 84,
      "duration": 0.125,
      "velocity": 100
    },
    {
      "time": 24.5,
      "note": 86,
      "duration": 0.25,
      "velocity": 100
    },
    {
      "time": 24.75,
      "note": 86,
      "duration": 0.125,
      "velocity": 100
    },
    {
      "time": 24.875,
      "note": 84,
      "duration": 0.125,
      "velocity": 100
    },
    {
      "time": 25.0,
      "note": 89,
      "duration": 0.125,
      "velocity": 100
    },
    {
      "time": 25.125,
      "note": 88,
      "duration": 0.25,
      "velocity": 100
    },
    {
      "time": 25.375,
      "note": 86,
      "duration": 0.125,
      "velocity": 100
    },
    {
      "time": 25.5,
      "note": 86,
      "duration": 0.125,
      "velocity": 100
    },
    {
      "time": 25.625,
      "note": 84,
      "duration": 0.375,
      "velocity": 100
    },
    {
      "time": 26.125,
      "note": 76,
      "duration": 0.125,
      "velocity": 100
    },
    {
      "time": 26.25,
      "note": 84,
      "duration": 0.125,
      "velocity": 100
    },
    {
      "time": 26.375,
      "note": 84,
      "duration": 0.125,
      "velocity": 100
    },
    {
      "time": 26.5,
      "note": 84,
      "duration": 0.125,
      "velocity": 100
    },
    {
      "time": 26.625,
      "note": 82,
      "duration": 0.25,
      "velocity": 100
    },
    {
      "time": 26.875,
      "note": 81,
      "duration": 0.125,
      "velocity": 100
    },
    {
      "time": 27.0,
      "note": 82,
      "duration": 0.25,
      "velocity": 100
    },
    {
      "time": 27.25,
      "note": 79,
      "duration": 0.25,
      "velocity": 100
    },
    {
      "time": 27.5,
      "note": 77,
      "duration": 0.5,
      "velocity": 100
    },
    {
      "time": 28.125,
      "note": 77,
      "duration": 0.125,
      "velocity": 100
    },
    {
      "time": 28.25,
      "note": 84,
      "duration": 0.125,
      "velocity": 100
    }
  ],
  "chords": [
    {
      "time": 0.0,
      "notes": [
        65,
        69,
        72
      ],
      "duration": 1.3511904761904763
    },
    {
      "time": 1.3511904761904763,
      "notes": [
        70,
        74,
        77
      ],
      "duration": 1.3511904761904763
    },
    {
      "time": 2.7023809523809526,
      "notes": [
        60,
        64,
        67
      ],
      "duration": 1.3511904761904763
    },
    {
      "time": 4.053571428571429,
      "notes": [
        70,
        74,
        77
      ],
      "duration": 1.3511904761904763
    },
    {
      "time": 5.404761904761905,
      "notes": [
        65,
        69,
        72
      ],
      "duration": 1.3511904761904763
    },
    {
      "time": 6.755952380952381,
      "notes": [
        65,
        69,
        72
      ],
      "duration": 1.3511904761904763
    },
    {
      "time": 8.107142857142858,
      "notes": [
        60,
        64,
        67
      ],
      "duration": 1.3511904761904763
    },
    {
      "time": 9.458333333333334,
      "notes": [
        70,
        74,
        77
      ],
      "duration": 1.3511904761904763
    },
    {
      "time": 10.80952380952381,
      "notes": [
        60,
        64,
        67
      ],
      "duration": 1.3511904761904763
    },
    {
      "time": 12.160714285714286,
      "notes": [
        65,
        69,
        72
      ],
      "duration": 1.3511904761904763
    },
    {
      "time": 13.511904761904763,
      "notes": [
        65,
        69,
        72,
        75
      ],
      "duration": 1.3511904761904763
    },
    {
      "time": 14.863095238095239,
      "notes": [
        70,
        74,
        77
      ],
      "duration": 1.3511904761904763
    },
    {
      "time": 16.214285714285715,
      "notes": [
        65,
        69,
        72
      ],
      "duration": 1.3511904761904763
    },
    {
      "time": 17.56547619047619,
      "notes": [
        60,
        64,
        67,
        70
      ],
      "duration": 1.3511904761904763
    },
    {
      "time": 18.916666666666668,
      "notes": [
        65,
        69,
        72
      ],
      "duration": 1.3511904761904763
    },
    {
      "time": 20.267857142857146,
      "notes": [
        60,
        64,
        67
      ],
      "duration": 1.3511904761904763
    },
    {
      "time": 21.61904761904762,
      "notes": [
        65,
        69,
        72
      ],
      "duration": 1.3511904761904763
    },
    {
      "time": 22.970238095238095,
      "notes": [
        60,
        64,
        67
      ],
      "duration": 1.3511904761904763
    },
    {
      "time": 24.321428571428573,
      "notes": [
        62,
        66,
        69
      ],
      "duration": 1.3511904761904763
    },
    {
      "time": 25.67261904761905,
      "notes": [
        60,
        64,
        67
      ],
      "duration": 1.3511904761904763
    },
    {
      "time": 27.023809523809526,
      "notes": [
        65,
        69,
        72
      ],
      "duration": 1.3511904761904763
    }
  ]
}