{
  "title": "La danza del tablon",
  "artist": "Guachin",
  "bpm": 120,
  "duration": 46.0,
  "audioFile": "",
  "notes": [
    {
      "time": 0.25,
      "note": 74,
      "duration": 0.125,
      "velocity": 100
    },
    {
      "time": 0.375,
      "note": 77,
      "duration": 0.125,
      "velocity": 100
    },
    {
      "time": 0.375,
      "note": 81,
      "duration": 0.125,
      "velocity": 100
    },
    {
      "time": 0.375,
      "note": 74,
      "duration": 0.125,
      "velocity": 100
    },
    {
      "time": 0.5,
      "note": 77,
      "duration": 0.125,
      "velocity": 100
    },
    {
      "time": 0.5,
      "note": 81,
      "duration": 0.125,
      "velocity": 100
    },
    {
      "time": 0.75,
      "note": 74,
      "duration": 0.125,
      "velocity": 100
    },
    {
      "time": 0.875,
      "note": 77,
      "duration": 0.125,
      "velocity": 100
    },
    {
      "time": 0.875,
      "note": 81,
      "duration": 0.125,
      "velocity": 100
    },
    {
      "time": 0.875,
      "note": 74,
      "duration": 0.125,
      "velocity": 100
    },
    {
      "time": 1.0,
      "note": 77,
      "duration": 0.125,
      "velocity": 100
    },
    {
      "time": 1.0,
      "note": 81,
      "duration": 0.125,
      "velocity": 100
    },
    {
      "time": 1.25,
      "note": 74,
      "duration": 0.125,
      "velocity": 100
    },
    {
      "time": 1.375,
      "note": 79,
      "duration": 0.125,
      "velocity": 100
    },
    {
      "time": 1.375,
      "note": 83,
      "duration": 0.125,
      "velocity": 100
    },
    {
      "time": 1.375,
      "note": 74,
      "duration": 0.125,
      "velocity": 100
    },
    {
      "time": 1.5,
      "note": 79,
      "duration": 0.125,
      "velocity": 100
    },
    {
      "time": 1.5,
      "note": 83,
      "duration": 0.125,
      "velocity": 100
    },
    {
      "time": 1.75,
      "note": 76,
      "duration": 0.125,
      "velocity": 100
    },
    {
      "time": 1.875,
      "note": 81,
      "duration": 0.125,
      "velocity": 100
    },
    {
      "time": 1.875,
      "note": 85,
      "duration": 0.125,
      "velocity": 100
    },
    {
      "time": 1.875,
      "note": 76,
      "duration": 0.125,
      "velocity": 100
    },
    {
      "time": 2.0,
      "note": 81,
      "duration": 0.125,
      "velocity": 100
    },
    {
      "time": 2.0,
      "note": 85,
      "duration": 0.125,
      "velocity": 100
    },
    {
      "time": 2.25,
      "note": 74,
      "duration": 0.125,
      "velocity": 100
    },
    {
      "time": 2.375,
      "note": 77,
      "duration": 0.125,
      "velocity": 100
    },
    {
      "time": 2.375,
      "note": 81,
      "duration": 0.125,
      "velocity": 100
    },
    {
      "time": 2.375,
      "note": 74,
      "duration": 0.125,
      "velocity": 100
    },
    {
      "time": 2.5,
      "note": 77,
      "duration": 0.125,
      "velocity": 100
    },
    {
      "time": 2.5,
      "note": 81,
      "duration": 0.125,
      "velocity": 100
    },
    {
      "time": 2.75,
      "note": 74,
      "duration": 0.125,
      "velocity": 100
    },
    {
      "time": 2.875,
      "note": 77,
      "duration": 0.125,
      "velocity": 100
    },
    {
      "time": 2.875,
      "note": 81,
      "duration": 0.125,
      "velocity": 100
    },
    {
      "time": 2.875,
      "note": 74,
      "duration": 0.125,
      "velocity": 100
    },
    {
      "time": 3.0,
      "note": 77,
      "duration": 0.125,
      "velocity": 100
    },
    {
      "time": 3.0,
      "note": 81,
      "duration": 0.125,
      "velocity": 100
    },
    {
      "time": 3.25,
      "note": 74,
      "duration": 0.125,
      "velocity": 100
    },
    {
      "time": 3.375,
      "note": 79,
      "duration": 0.125,
      "velocity": 100
    },
    {
      "time": 3.375,
      "note": 83,
      "duration": 0.125,
      "velocity": 100
    },
    {
      "time": 3.375,
      "note": 74,
      "duration": 0.125,
      "velocity": 100
    },
    {
      "time": 3.5,
      "note": 79,
      "duration": 0.125,
      "velocity": 100
    },
    {
      "time": 3.5,
      "note": 83,
      "duration": 0.125,
      "velocity": 100
    },
    {
      "time": 3.75,
      "note": 76,
      "duration": 0.125,
      "velocity": 100
    },
    {
      "time": 3.875,
      "note": 81,
      "duration": 0.125,
      "velocity": 100
    },
    {
      "time": 3.875,
      "note": 85,
      "duration": 0.125,
      "velocity": 100
    },
    {
      "time": 3.875,
      "note": 76,
      "duration": 0.125,
      "velocity": 100
    },
    {
      "time": 4.0,
      "note": 81,
      "duration": 0.125,
      "velocity": 100
    },
    {
      "time": 4.0,
      "note": 85,
      "duration": 0.125,
      "velocity": 100
    },
    {
      "time": 4.0,
      "note": 86,
      "duration": 0.125,
      "velocity": 100
    },
    {
      "time": 4.125,
      "note": 89,
      "duration": 0.125,
      "velocity": 100
    },
    {
      "time": 4.25,
      "note": 86,
      "duration": 0.125,
      "velocity": 100
    },
    {
      "time": 4.375,
      "note": 89,
      "duration": 0.125,
      "velocity": 100
    },
    {
      "time": 4.5,
      "note": 93,
      "duration": 0.125,
      "velocity": 100
    },
    {
      "time": 4.625,
      "note": 89,
      "duration": 0.125,
      "velocity": 100
    },
    {
      "time": 4.75,
      "note": 86,
      "duration": 0.125,
      "velocity": 100
    },
    {
      "time": 4.875,
      "note": 89,
      "duration": 0.125,
      "velocity": 100
    },
    {
      "time": 5.0,
      "note": 81,
      "duration": 0.125,
      "velocity": 100
    },
    {
      "time": 5.125,
      "note": 84,
      "duration": 0.125,
      "velocity": 100
    },
    {
      "time": 5.25,
      "note": 81,
      "duration": 0.125,
      "velocity": 100
    },
    {
      "time": 5.375,
      "note": 84,
      "duration": 0.125,
      "velocity": 100
    },
    {
      "time": 5.5,
      "note": 88,
      "duration": 0.125,
      "velocity": 100
    },
    {
      "time": 5.625,
      "note": 91,
      "duration": 0.125,
      "velocity": 100
    },
    {
      "time": 5.75,
      "note": 88,
      "duration": 0.125,
      "velocity": 100
    },
    {
      "time": 5.875,
      "note": 84,
      "duration": 0.125,
      "velocity": 100
    },
    {
      "time": 6.0,
      "note": 86,
      "duration": 0.125,
      "velocity": 100
    },
    {
      "time": 6.125,
      "note": 89,
      "duration": 0.125,
      "velocity": 100
    },
    {
      "time": 6.25,
      "note": 86,
      "duration": 0.125,
      "velocity": 100
    },
    {
      "time": 6.375,
      "note": 89,
      "duration": 0.125,
      "velocity": 100
    },
    {
      "time": 6.5,
      "note": 93,
      "duration": 0.125,
      "velocity": 100
    },
    {
      "time": 6.625,
      "note": 89,
      "duration": 0.125,
      "velocity": 100
    },
    {
      "time": 6.75,
      "note": 86,
      "duration": 0.125,
      "velocity": 100
    },
    {
      "time": 6.875,
      "note": 89,
      "duration": 0.125,
      "velocity": 100
    },
    {
      "time": 7.0,
      "note": 81,
      "duration": 0.125,
      "velocity": 100
    },
    {
      "time": 7.125,
      "note": 84,
      "duration": 0.125,
      "velocity": 100
    },
    {
      "time": 7.25,
      "note": 81,
      "duration": 0.125,
      "velocity": 100
    },
    {
      "time": 7.375,
      "note": 84,
      "duration": 0.125,
      "velocity": 100
    },
    {
      "time": 7.5,
      "note": 88,
      "duration": 0.125,
      "velocity": 100
    },
    {
      "time": 7.625,
      "note": 91,
      "duration": 0.125,
      "velocity": 100
    },
    {
      "time": 7.75,
      "note": 88,
      "duration": 0.125,
      "velocity": 100
    },
    {
      "time": 7.875,
      "note": 84,
      "duration": 0.125,
      "velocity": 100
    },
    {
      "time": 8.0,
      "note": 74,
      "duration": 0.125,
      "velocity": 100
    },
    {
      "time": 8.125,
      "note": 77,
      "duration": 0.125,
      "velocity": 100
    },
    {
      "time": 8.25,
      "note": 74,
      "duration": 0.125,
      "velocity": 100
    },
    {
      "time": 8.375,
      "note": 77,
      "duration": 0.125,
      "velocity": 100
    },
    {
      "time": 8.5,
      "note": 81,
      "duration": 0.125,
      "velocity": 100
    },
    {
      "time": 8.625,
      "note": 77,
      "duration": 0.125,
      "velocity": 100
    },
    {
      "time": 8.75,
      "note": 74,
      "duration": 0.125,
      "velocity": 100
    },
    {
      "time": 8.875,
      "note": 77,
      "duration": 0.125,
      "velocity": 100
    },
    {
      "time": 9.0,
      "note": 69,
      "duration": 0.125,
      "velocity": 100
    },
    {
      "time": 9.125,
      "note": 72,
      "duration": 0.125,
      "velocity": 100
    },
    {
      "time": 9.25,
      "note": 69,
      "duration": 0.125,
      "velocity": 100
    },
    {
      "time": 9.375,
      "note": 72,
      "duration": 0.125,
      "velocity": 100
    },
    {
      "time": 9.5,
      "note": 76,
      "duration": 0.125,
      "velocity": 100
    },
    {
      "time": 9.625,
      "note": 79,
      "duration": 0.125,
      "velocity": 100
    },
    {
      "time": 9.75,
      "note": 76,
      "duration": 0.125,
      "velocity": 100
    },
    {
      "time": 9.875,
      "note": 72,
      "duration": 0.125,
      "velocity": 100
    },
    {
      "time": 10.0,
      "note": 74,
      "duration": 0.125,
      "velocity": 100
    },
    {
      "time": 10.125,
      "note": 77,
      "duration": 0.125,
      "velocity": 100
    },
    {
      "time": 10.25,
      "note": 74,
      "duration": 0.125,
      "velocity": 100
    },
    {
      "time": 10.375,
      "note": 77,
      "duration": 0.125,
      "velocity": 100
    },
    {
      "time": 10.5,
      "note": 81,
      "duration": 0.125,
      "velocity": 100
    },
    {
      "time": 10.625,
      "note": 77,
      "duration": 0.125,
      "velocity": 100
    },
    {
      "time": 10.75,
      "note": 74,
      "duration": 0.125,
      "velocity": 100
    },
    {
      "time": 10.875,
      "note": 77,
      "duration": 0.125,
      "velocity": 100
    },
    {
      "time": 11.0,
      "note": 69,
      "duration": 0.125,
      "velocity": 100
    },
    {
      "time": 11.125,
      "note": 72,
      "duration": 0.125,
      "velocity": 100
    },
    {
      "time": 11.25,
      "note": 69,
      "duration": 0.125,
      "velocity": 100
    },
    {
      "time": 11.375,
      "note": 72,
      "duration": 0.125,
      "velocity": 100
    },
    {
      "time": 11.5,
      "note": 76,
      "duration": 0.125,
      "velocity": 100
    },
    {
      "time": 11.625,
      "note": 79,
      "duration": 0.125,
      "velocity": 100
    },
    {
      "time": 11.75,
      "note": 76,
      "duration": 0.125,
      "velocity": 100
    },
    {
      "time": 11.875,
      "note": 72,
      "duration": 0.125,
      "velocity": 100
    },
    {
      "time": 12.0,
      "note": 74,
      "duration": 1.0,
      "velocity": 100
    },
    {
      "time": 13.0,
      "note": 74,
      "duration": 0.5,
      "velocity": 100
    },
    {
      "time": 14.0,
      "note": 74,
      "duration": 0.5,
      "velocity": 100
    },
    {
      "time": 14.5,
      "note": 81,
      "duration": 0.25,
      "velocity": 100
    },
    {
      "time": 14.75,
      "note": 77,
      "duration": 0.25,
      "velocity": 100
    },
    {
      "time": 15.0,
      "note": 74,
      "duration": 0.5,
      "velocity": 100
    },
    {
      "time": 15.5,
      "note": 77,
      "duration": 0.125,
      "velocity": 100
    },
    {
      "time": 15.625,
      "note": 76,
      "duration": 0.125,
      "velocity": 100
    },
    {
      "time": 15.75,
      "note": 77,
      "duration": 0.125,
      "velocity": 100
    },
    {
      "time": 15.875,
      "note": 76,
      "duration": 0.125,
      "velocity": 100
    },
    {
      "time": 16.0,
      "note": 74,
      "duration": 0.5,
      "velocity": 100
    },
    {
      "time": 16.5,
      "note": 81,
      "duration": 0.25,
      "velocity": 100
    },
    {
      "time": 16.75,
      "note": 77,
      "duration": 0.25,
      "velocity": 100
    },
    {
      "time": 17.0,
      "note": 74,
      "duration": 0.5,
      "velocity": 100
    },
    {
      "time": 17.5,
      "note": 77,
      "duration": 0.125,
      "velocity": 100
    },
    {
      "time": 17.625,
      "note": 76,
      "duration": 0.125,
      "velocity": 100
    },
    {
      "time": 17.75,
      "note": 77,
      "duration": 0.125,
      "velocity": 100
    },
    {
      "time": 17.875,
      "note": 76,
      "duration": 0.125,
      "velocity": 100
    },
    {
      "time": 18.0,
      "note": 74,
      "duration": 0.5,
      "velocity": 100
    },
    {
      "time": 18.5,
      "note": 93,
      "duration": 0.25,
      "velocity": 100
    },
    {
      "time": 18.75,
      "note": 89,
      "duration": 0.25,
      "velocity": 100
    },
    {
      "time": 19.0,
      "note": 86,
      "duration": 0.5,
      "velocity": 100
    },
    {
      "time": 19.5,
      "note": 89,
      "duration": 0.125,
      "velocity": 100
    },
    {
      "time": 19.625,
      "note": 88,
      "duration": 0.125,
      "velocity": 100
    },
    {
      "time": 19.75,
      "note": 89,
      "duration": 0.125,
      "velocity": 100
    },
    {
      "time": 19.875,
      "note": 88,
      "duration": 0.125,
      "velocity": 100
    },
    {
      "time": 20.0,
      "note": 86,
      "duration": 0.5,
      "velocity": 100
    },
    {
      "time": 20.5,
      "note": 93,
      "duration": 0.25,
      "velocity": 100
    },
    {
      "time": 20.75,
      "note": 89,
      "duration": 0.25,
      "velocity": 100
    },
    {
      "time": 21.0,
      "note": 86,
      "duration": 0.5,
      "velocity": 100
    },
    {
      "time": 21.5,
      "note": 89,
      "duration": 0.125,
      "velocity": 100
    },
    {
      "time": 21.625,
      "note": 88,
      "duration": 0.125,
      "velocity": 100
    },
    {
      "time": 21.75,
      "note": 89,
      "duration": 0.125,
      "velocity": 100
    },
    {
      "time": 21.875,
      "note": 88,
      "duration": 0.125,
      "velocity": 100
    },
    {
      "time": 22.0,
      "note": 86,
      "duration": 0.5,
      "velocity": 100
    },
    {
      "time": 22.5,
      "note": 81,
      "duration": 0.25,
      "velocity": 100
    },
    {
      "time": 22.75,
      "note": 77,
      "duration": 0.25,
      "velocity": 100
    },
    {
      "time": 23.0,
      "note": 74,
      "duration": 0.5,
      "velocity": 100
    },
    {
      "time": 23.5,
      "note": 77,
      "duration": 0.125,
      "velocity": 100
    },
    {
      "time": 23.625,
      "note": 76,
      "duration": 0.125,
      "velocity": 100
    },
    {
      "time": 23.75,
      "note": 77,
      "duration": 0.125,
      "velocity": 100
    },
    {
      "time": 23.875,
      "note": 76,
      "duration": 0.125,
      "velocity": 100
    },
    {
      "time": 24.0,
      "note": 74,
      "duration": 0.5,
      "velocity": 100
    },
    {
      "time": 24.5,
      "note": 81,
      "duration": 0.25,
      "velocity": 100
    },
    {
      "time": 24.75,
      "note": 77,
      "duration": 0.25,
      "velocity": 100
    },
    {
      "time": 25.0,
      "note": 74,
      "duration": 0.5,
      "velocity": 100
    },
    {
      "time": 25.5,
      "note": 77,
      "duration": 0.125,
      "velocity": 100
    },
    {
      "time": 25.625,
      "note": 76,
      "duration": 0.125,
      "velocity": 100
    },
    {
      "time": 25.75,
      "note": 77,
      "duration": 0.125,
      "velocity": 100
    },
    {
      "time": 25.875,
      "note": 76,
      "duration": 0.125,
      "velocity": 100
    },
    {
      "time": 26.0,
      "note": 74,
      "duration": 1.0,
      "velocity": 100
    },
    {
      "time": 27.0,
      "note": 74,
      "duration": 1.0,
      "velocity": 100
    },
    {
      "time": 28.0,
      "note": 74,
      "duration": 1.0,
      "velocity": 100
    },
    {
      "time": 29.0,
      "note": 74,
      "duration": 1.0,
      "velocity": 100
    },
    {
      "time": 30.0,
      "note": 79,
      "duration": 1.0,
      "velocity": 100
    },
    {
      "time": 31.0,
      "note": 84,
      "duration": 1.0,
      "velocity": 100
    },
    {
      "time": 31.0,
      "note": 88,
      "duration": 1.0,
      "velocity": 100
    },
    {
      "time": 31.0,
      "note": 79,
      "duration": 0.5,
      "velocity": 100
    },
    {
      "time": 31.5,
      "note": 84,
      "duration": 0.5,
      "velocity": 100
    },
    {
      "time": 31.5,
      "note": 88,
      "duration": 0.5,
      "velocity": 100
    },
    {
      "time": 31.5,
      "note": 89,
      "duration": 0.25,
      "velocity": 100
    },
    {
      "time": 31.75,
      "note": 79,
      "duration": 0.25,
      "velocity": 100
    },
    {
      "time": 32.0,
      "note": 84,
      "duration": 0.25,
      "velocity": 100
    },
    {
      "time": 32.0,
      "note": 88,
      "duration": 0.25,
      "velocity": 100
    },
    {
      "time": 32.0,
      "note": 91,
      "duration": 0.25,
      "velocity": 100
    },
    {
      "time": 32.0,
      "note": 79,
      "duration": 1.0,
      "velocity": 100
    },
    {
      "time": 33.0,
      "note": 81,
      "duration": 1.0,
      "velocity": 100
    },
    {
      "time": 33.0,
      "note": 82,
      "duration": 1.0,
      "velocity": 100
    },
    {
      "time": 33.0,
      "note": 86,
      "duration": 1.0,
      "velocity": 100
    },
    {
      "time": 33.0,
      "note": 79,
      "duration": 0.5,
      "velocity": 100
    },
    {
      "time": 33.5,
      "note": 82,
      "duration": 0.5,
      "velocity": 100
    },
    {
      "time": 33.5,
      "note": 86,
      "duration": 0.5,
      "velocity": 100
    },
    {
      "time": 33.5,
      "note": 79,
      "duration": 0.25,
      "velocity": 100
    },
    {
      "time": 33.75,
      "note": 83,
      "duration": 0.25,
      "velocity": 100
    },
    {
      "time": 33.75,
      "note": 86,
      "duration": 0.25,
      "velocity": 100
    },
    {
      "time": 33.75,
      "note": 79,
      "duration": 0.25,
      "velocity": 100
    },
    {
      "time": 34.0,
      "note": 83,
      "duration": 0.25,
      "velocity": 100
    },
    {
      "time": 34.0,
      "note": 88,
      "duration": 0.25,
      "velocity": 100
    },
    {
      "time": 34.0,
      "note": 81,
      "duration": 1.0,
      "velocity": 100
    },
    {
      "time": 35.0,
      "note": 84,
      "duration": 1.0,
      "velocity": 100
    },
    {
      "time": 35.0,
      "note": 89,
      "duration": 1.0,
      "velocity": 100
    },
    {
      "time": 35.0,
      "note": 79,
      "duration": 1.0,
      "velocity": 100
    },
    {
      "time": 36.0,
      "note": 81,
      "duration": 1.0,
      "velocity": 100
    },
    {
      "time": 36.0,
      "note": 82,
      "duration": 1.0,
      "velocity": 100
    },
    {
      "time": 36.0,
      "note": 84,
      "duration": 1.0,
      "velocity": 100
    },
    {
      "time": 36.0,
      "note": 86,
      "duration": 1.0,
      "velocity": 100
    },
    {
      "time": 36.0,
      "note": 79,
      "duration": 1.0,
      "velocity": 100
    },
    {
      "time": 37.0,
      "note": 84,
      "duration": 1.0,
      "velocity": 100
    },
    {
      "time": 37.0,
      "note": 88,
      "duration": 1.0,
      "velocity": 100
    },
    {
      "time": 37.0,
      "note": 79,
      "duration": 1.0,
      "velocity": 100
    },
    {
      "time": 38.0,
      "note": 84,
      "duration": 1.0,
      "velocity": 100
    },
    {
      "time": 38.0,
      "note": 88,
      "duration": 1.0,
      "velocity": 100
    },
    {
      "time": 38.0,
      "note": 75,
      "duration": 0.125,
      "velocity": 100
    },
    {
      "time": 38.125,
      "note": 76,
      "duration": 0.125,
      "velocity": 100
    },
    {
      "time": 38.25,
      "note": 76,
      "duration": 0.125,
      "velocity": 100
    },
    {
      "time": 38.375,
      "note": 76,
      "duration": 0.125,
      "velocity": 100
    },
    {
      "time": 38.5,
      "note": 76,
      "duration": 0.125,
      "velocity": 100
    },
    {
      "time": 38.625,
      "note": 76,
      "duration": 0.125,
      "velocity": 100
    },
    {
      "time": 38.75,
      "note": 76,
      "duration": 0.125,
      "velocity": 100
    },
    {
      "time": 38.875,
      "note": 76,
      "duration": 0.125,
      "velocity": 100
    },
    {
      "time": 39.0,
      "note": 76,
      "duration": 0.125,
      "velocity": 100
    },
    {
      "time": 39.125,
      "note": 76,
      "duration": 0.125,
      "velocity": 100
    },
    {
      "time": 39.25,
      "note": 76,
      "duration": 0.125,
      "velocity": 100
    },
    {
      "time": 39.375,
      "note": 76,
      "duration": 0.125,
      "velocity": 100
    },
    {
      "time": 39.5,
      "note": 77,
      "duration": 0.125,
      "velocity": 100
    },
    {
      "time": 39.625,
      "note": 76,
      "duration": 0.25,
      "velocity": 100
    },
    {
      "time": 39.875,
      "note": 74,
      "duration": 0.125,
      "velocity": 100
    },
    {
      "time": 40.125,
      "note": 74,
      "duration": 0.125,
      "velocity": 100
    },
    {
      "time": 40.25,
      "note": 74,
      "duration": 0.125,
      "velocity": 100
    },
    {
      "time": 40.375,
      "note": 74,
      "duration": 0.125,
      "velocity": 100
    },
    {
      "time": 40.5,
      "note": 74,
      "duration": 0.125,
      "velocity": 100
    },
    {
      "time": 40.625,
      "note": 74,
      "duration": 0.125,
      "velocity": 100
    },
    {
      "time": 40.75,
      "note": 74,
      "duration": 0.125,
      "velocity": 100
    },
    {
      "time": 40.875,
      "note": 74,
      "duration": 0.125,
      "velocity": 100
    },
    {
      "time": 41.0,
      "note": 74,
      "duration": 0.25,
      "velocity": 100
    },
    {
      "time": 41.25,
      "note": 77,
      "duration": 0.125,
      "velocity": 100
    },
    {
      "time": 41.375,
      "note": 86,
      "duration": 0.125,
      "velocity": 100
    },
    {
      "time": 41.375,
      "note": 77,
      "duration": 0.125,
      "velocity": 100
    },
    {
      "time": 41.5,
      "note": 86,
      "duration": 0.125,
      "velocity": 100
    },
    {
      "time": 41.5,
      "note": 77,
      "duration": 0.125,
      "velocity": 100
    },
    {
      "time": 41.625,
      "note": 86,
      "duration": 0.125,
      "velocity": 100
    },
    {
      "time": 41.625,
      "note": 79,
      "duration": 0.25,
      "velocity": 100
    },
    {
      "time": 41.875,
      "note": 88,
      "duration": 0.25,
      "velocity": 100
    },
    {
      "time": 41.875,
      "note": 81,
      "duration": 0.125,
      "velocity": 100
    },
    {
      "time": 42.0,
      "note": 89,
      "duration": 0.125,
      "velocity": 100
    },
    {
      "time": 42.125,
      "note": 81,
      "duration": 0.125,
      "velocity": 100
    },
    {
      "time": 42.25,
      "note": 89,
      "duration": 0.125,
      "velocity": 100
    },
    {
      "time": 42.25,
      "note": 81,
      "duration": 0.125,
      "velocity": 100
    },
    {
      "time": 42.375,
      "note": 89,
      "duration": 0.125,
      "velocity": 100
    },
    {
      "time": 42.375,
      "note": 83,
      "duration": 0.125,
      "velocity": 100
    },
    {
      "time": 42.5,
      "note": 91,
      "duration": 0.125,
      "velocity": 100
    },
    {
      "time": 42.5,
      "note": 81,
      "duration": 0.125,
      "velocity": 100
    },
    {
      "time": 42.625,
      "note": 89,
      "duration": 0.125,
      "velocity": 100
    },
    {
      "time": 42.625,
      "note": 79,
      "duration": 0.25,
      "velocity": 100
    },
    {
      "time": 42.875,
      "note": 88,
      "duration": 0.25,
      "velocity": 100
    },
    {
      "time": 42.875,
      "note": 77,
      "duration": 0.125,
      "velocity": 100
    },
    {
      "time": 43.0,
      "note": 86,
      "duration": 0.125,
      "velocity": 100
    },
    {
      "time": 43.125,
      "note": 77,
      "duration": 0.125,
      "velocity": 100
    },
    {
      "time": 43.25,
      "note": 86,
      "duration": 0.125,
      "velocity": 100
    },
    {
      "time": 43.25,
      "note": 77,
      "duration": 0.125,
      "velocity": 100
    },
    {
      "time": 43.375,
      "note": 86,
      "duration": 0.125,
      "velocity": 100
    },
    {
      "time": 43.375,
      "note": 77,
      "duration": 0.125,
      "velocity": 100
    },
    {
      "time": 43.5,
      "note": 86,
      "duration": 0.125,
      "velocity": 100
    },
    {
      "time": 43.5,
      "note": 79,
      "duration": 0.125,
      "velocity": 100
    },
    {
      "time": 43.625,
      "note": 88,
      "duration": 0.125,
      "velocity": 100
    },
    {
      "time": 43.625,
      "note": 76,
      "duration": 0.25,
      "velocity": 100
    },
    {
      "time": 43.875,
      "note": 84,
      "duration": 0.25,
      "velocity": 100
    },
    {
      "time": 43.875,
      "note": 76,
      "duration": 0.125,
      "velocity": 100
    },
    {
      "time": 44.0,
      "note": 84,
      "duration": 0.125,
      "velocity": 100
    },
    {
      "time": 44.125,
      "note": 76,
      "duration": 0.125,
      "velocity": 100
    },
    {
      "time": 44.25,
      "note": 84,
      "duration": 0.125,
      "velocity": 100
    },
    {
      "time": 44.25,
      "note": 76,
      "duration": 0.125,
      "velocity": 100
    },
    {
      "time": 44.375,
      "note": 84,
      "duration": 0.125,
      "velocity": 100
    },
    {
      "time": 44.375,
      "note": 76,
      "duration": 0.125,
      "velocity": 100
    },
    {
      "time": 44.5,
      "note": 84,
      "duration": 0.125,
      "velocity": 100
    },
    {
      "time": 44.625,
      "note": 76,
      "duration": 0.125,
      "velocity": 100
    },
    {
      "time": 44.75,
      "note": 84,
      "duration": 0.125,
      "velocity": 100
    },
    {
      "time": 44.75,
      "note": 76,
      "duration": 0.125,
      "velocity": 100
    },
    {
      "time": 44.875,
      "note": 84,
      "duration": 0.125,
      "velocity": 100
    },
    {
      "time": 44.875,
      "note": 76,
      "duration": 0.125,
      "velocity": 100
    },
    {
      "time": 45.0,
      "note": 84,
      "duration": 0.125,
      "velocity": 100
    },
    {
      "time": 45.125,
      "note": 76,
      "duration": 0.125,
      "velocity": 100
    },
    {
      "time": 45.25,
      "note": 84,
      "duration": 0.125,
      "velocity": 100
    },
    {
      "time": 45.25,
      "note": 76,
      "duration": 0.125,
      "velocity": 100
    },
    {
      "time": 45.375,
      "note": 84,
      "duration": 0.125,
      "velocity": 100
    },
    {
      "time": 45.375,
      "note": 76,
      "duration": 0.125,
      "velocity": 100
    },
    {
      "time": 45.5,
      "note": 84,
      "duration": 0.125,
      "velocity": 100
    },
    {
      "time": 45.625,
      "note": 76,
      "duration": 0.125,
      "velocity": 100
    },
    {
      "time": 45.75,
      "note": 84,
      "duration": 0.125,
      "velocity": 100
    },
    {
      "time": 45.75,
      "note": 76,
      "duration": 0.25,
      "velocity": 100
    },
    {
      "time": 46.0,
      "note": 84,
      "duration": 0.25,
      "velocity": 100
    }
  ],
  "chords": [
    {
      "time": 0.0,
      "notes": [
        62,
        65,
        69
      ],
      "duration": 1.7692307692307692
    },
    {
      "time": 1.7692307692307692,
      "notes": [
        67,
        71,
        74
      ],
      "duration": 1.7692307692307692
    },
    {
      "time": 3.5384615384615383,
      "notes": [
        69,
        73,
        76
      ],
      "duration": 1.7692307692307692
    },
    {
      "time": 5.3076923076923075,
      "notes": [
        62,
        65,
        69
      ],
      "duration": 1.7692307692307692
    },
    {
      "time": 7.076923076923077,
      "notes": [
        67,
        71,
        74
      ],
      "duration": 1.7692307692307692
    },
    {
      "time": 8.846153846153847,
      "notes": [
        69,
        73,
        76
      ],
      "duration": 1.7692307692307692
    },
    {
      "time": 10.615384615384615,
      "notes": [
        62,
        65,
        69
      ],
      "duration": 1.7692307692307692
    },
    {
      "time": 12.384615384615383,
      "notes": [
        69,
        73,
        76
      ],
      "duration": 1.7692307692307692
    },
    {
      "time": 14.153846153846153,
      "notes": [
        62,
        65,
        69
      ],
      "duration": 1.7692307692307692
    },
    {
      "time": 15.923076923076923,
      "notes": [
        69,
        73,
        76
      ],
      "duration": 1.7692307692307692
    },
    {
      "time": 17.692307692307693,
      "notes": [
        62,
        65,
        69
      ],
      "duration": 1.7692307692307692
    },
    {
      "time": 19.46153846153846,
      "notes": [
        69,
        73,
        76
      ],
      "duration": 1.7692307692307692
    },
    {
      "time": 21.23076923076923,
      "notes": [
        62,
        65,
        69
      ],
      "duration": 1.7692307692307692
    },
    {
      "time": 23.0,
      "notes": [
        69,
        73,
        76
      ],
      "duration": 1.7692307692307692
    },
    {
      "time": 24.769230769230766,
      "notes": [
        62,
        65,
        69
      ],
      "duration": 1.7692307692307692
    },
    {
      "time": 26.538461538461537,
      "notes": [
        62,
        65,
        69
      ],
      "duration": 1.7692307692307692
    },
    {
      "time": 28.307692307692307,
      "notes": [
        60,
        64,
        67
      ],
      "duration": 1.7692307692307692
    },
    {
      "time": 30.076923076923077,
      "notes": [
        67,
        71,
        74
      ],
      "duration": 1.7692307692307692
    },
    {
      "time": 31.846153846153847,
      "notes": [
        65,
        69,
        72
      ],
      "duration": 1.7692307692307692
    },
    {
      "time": 33.61538461538461,
      "notes": [
        67,
        71,
        74
      ],
      "duration": 1.7692307692307692
    },
    {
      "time": 35.38461538461539,
      "notes": [
        60,
        64,
        67
      ],
      "duration": 1.7692307692307692
    },
    {
      "time": 37.15384615384615,
      "notes": [
        60,
        64,
        67
      ],
      "duration": 1.7692307692307692
    },
    {
      "time": 38.92307692307692,
      "notes": [
        67,
        71,
        74
      ],
      "duration": 1.7692307692307692
    },
    {
      "time": 40.69230769230769,
      "notes": [
        65,
        69,
        72
      ],
      "duration": 1.7692307692307692
    },
    {
      "time": 42.46153846153846,
      "notes": [
        67,
        71,
        74
      ],
      "duration": 1.7692307692307692
    },
    {
      "time": 44.230769230769226,
      "notes": [
        60,
        64,
        67
      ],
      "duration": 1.7692307692307692
    }
  ]
}