{
  "title": "Cumbia Villera",
  "artist": "Yerba Brava",
  "bpm": 120,
  "duration": 37.5,
  "audioFile": "",
  "notes": [
    {
      "time": 0.0,
      "note": 81,
      "duration": 0.25,
      "velocity": 100
    },
    {
      "time": 0.25,
      "note": 81,
      "duration": 0.125,
      "velocity": 100
    },
    {
      "time": 0.375,
      "note": 81,
      "duration": 0.125,
      "velocity": 100
    },
    {
      "time": 0.5,
      "note": 84,
      "duration": 0.25,
      "velocity": 100
    },
    {
      "time": 0.75,
      "note": 84,
      "duration": 0.125,
      "velocity": 100
    },
    {
      "time": 0.875,
      "note": 84,
      "duration": 0.125,
      "velocity": 100
    },
    {
      "time": 1.0,
      "note": 81,
      "duration": 0.25,
      "velocity": 100
    },
    {
      "time": 1.25,
      "note": 81,
      "duration": 0.125,
      "velocity": 100
    },
    {
      "time": 1.375,
      "note": 79,
      "duration": 0.125,
      "velocity": 100
    },
    {
      "time": 1.5,
      "note": 81,
      "duration": 0.25,
      "velocity": 100
    },
    {
      "time": 1.75,
      "note": 76,
      "duration": 0.25,
      "velocity": 100
    },
    {
      "time": 2.0,
      "note": 81,
      "duration": 0.25,
      "velocity": 100
    },
    {
      "time": 2.25,
      "note": 81,
      "duration": 0.125,
      "velocity": 100
    },
    {
      "time": 2.375,
      "note": 81,
      "duration": 0.125,
      "velocity": 100
    },
    {
      "time": 2.5,
      "note": 84,
      "duration": 0.25,
      "velocity": 100
    },
    {
      "time": 2.75,
      "note": 84,
      "duration": 0.125,
      "velocity": 100
    },
    {
      "time": 2.875,
      "note": 84,
      "duration": 0.125,
      "velocity": 100
    },
    {
      "time": 3.0,
      "note": 81,
      "duration": 0.25,
      "velocity": 100
    },
    {
      "time": 3.25,
      "note": 81,
      "duration": 0.125,
      "velocity": 100
    },
    {
      "time": 3.375,
      "note": 79,
      "duration": 0.125,
      "velocity": 100
    },
    {
      "time": 3.5,
      "note": 81,
      "duration": 0.25,
      "velocity": 100
    },
    {
      "time": 3.75,
      "note": 76,
      "duration": 0.25,
      "velocity": 100
    },
    {
      "time": 3.625,
      "note": 84,
      "duration": 0.25,
      "velocity": 100
    },
    {
      "time": 3.875,
      "note": 84,
      "duration": 0.125,
      "velocity": 100
    },
    {
      "time": 4.0,
      "note": 84,
      "duration": 0.125,
      "velocity": 100
    },
    {
      "time": 4.125,
      "note": 88,
      "duration": 0.25,
      "velocity": 100
    },
    {
      "time": 4.375,
      "note": 88,
      "duration": 0.125,
      "velocity": 100
    },
    {
      "time": 4.5,
      "note": 88,
      "duration": 0.125,
      "velocity": 100
    },
    {
      "time": 4.625,
      "note": 84,
      "duration": 0.25,
      "velocity": 100
    },
    {
      "time": 4.875,
      "note": 84,
      "duration": 0.125,
      "velocity": 100
    },
    {
      "time": 5.0,
      "note": 83,
      "duration": 0.125,
      "velocity": 100
    },
    {
      "time": 5.125,
      "note": 84,
      "duration": 0.25,
      "velocity": 100
    },
    {
      "time": 5.375,
      "note": 81,
      "duration": 0.25,
      "velocity": 100
    },
    {
      "time": 5.625,
      "note": 84,
      "duration": 0.25,
      "velocity": 100
    },
    {
      "time": 5.875,
      "note": 84,
      "duration": 0.125,
      "velocity": 100
    },
    {
      "time": 6.0,
      "note": 84,
      "duration": 0.125,
      "velocity": 100
    },
    {
      "time": 6.125,
      "note": 88,
      "duration": 0.25,
      "velocity": 100
    },
    {
      "time": 6.375,
      "note": 88,
      "duration": 0.125,
      "velocity": 100
    },
    {
      "time": 6.5,
      "note": 88,
      "duration": 0.125,
      "velocity": 100
    },
    {
      "time": 6.625,
      "note": 84,
      "duration": 0.25,
      "velocity": 100
    },
    {
      "time": 6.875,
      "note": 84,
      "duration": 0.125,
      "velocity": 100
    },
    {
      "time": 7.0,
      "note": 83,
      "duration": 0.125,
      "velocity": 100
    },
    {
      "time": 7.125,
      "note": 84,
      "duration": 0.25,
      "velocity": 100
    },
    {
      "time": 7.375,
      "note": 81,
      "duration": 0.25,
      "velocity": 100
    },
    {
      "time": 7.625,
      "note": 81,
      "duration": 1.0,
      "velocity": 100
    },
    {
      "time": 8.625,
      "note": 81,
      "duration": 1.0,
      "velocity": 100
    },
    {
      "time": 9.875,
      "note": 81,
      "duration": 0.25,
      "velocity": 100
    },
    {
      "time": 10.125,
      "note": 81,
      "duration": 0.25,
      "velocity": 100
    },
    {
      "time": 10.375,
      "note": 84,
      "duration": 0.125,
      "velocity": 100
    },
    {
      "time": 10.5,
      "note": 86,
      "duration": 0.125,
      "velocity": 100
    },
    {
      "time": 10.625,
      "note": 88,
      "duration": 1.0,
      "velocity": 100
    },
    {
      "time": 11.625,
      "note": 88,
      "duration": 0.25,
      "velocity": 100
    },
    {
      "time": 11.875,
      "note": 89,
      "duration": 0.25,
      "velocity": 100
    },
    {
      "time": 12.125,
      "note": 88,
      "duration": 0.25,
      "velocity": 100
    },
    {
      "time": 12.375,
      "note": 86,
      "duration": 0.125,
      "velocity": 100
    },
    {
      "time": 12.5,
      "note": 84,
      "duration": 0.125,
      "velocity": 100
    },
    {
      "time": 12.625,
      "note": 84,
      "duration": 0.125,
      "velocity": 100
    },
    {
      "time": 12.75,
      "note": 81,
      "duration": 0.25,
      "velocity": 100
    },
    {
      "time": 13.0,
      "note": 84,
      "duration": 0.125,
      "velocity": 100
    },
    {
      "time": 13.125,
      "note": 88,
      "duration": 0.5,
      "velocity": 100
    },
    {
      "time": 13.625,
      "note": 88,
      "duration": 0.25,
      "velocity": 100
    },
    {
      "time": 13.875,
      "note": 89,
      "duration": 0.25,
      "velocity": 100
    },
    {
      "time": 14.125,
      "note": 88,
      "duration": 0.25,
      "velocity": 100
    },
    {
      "time": 14.375,
      "note": 86,
      "duration": 0.125,
      "velocity": 100
    },
    {
      "time": 14.5,
      "note": 84,
      "duration": 0.125,
      "velocity": 100
    },
    {
      "time": 14.625,
      "note": 84,
      "duration": 0.125,
      "velocity": 100
    },
    {
      "time": 14.75,
      "note": 81,
      "duration": 0.125,
      "velocity": 100
    },
    {
      "time": 14.875,
      "note": 81,
      "duration": 0.125,
      "velocity": 100
    },
    {
      "time": 15.0,
      "note": 84,
      "duration": 0.125,
      "velocity": 100
    },
    {
      "time": 15.125,
      "note": 81,
      "duration": 0.25,
      "velocity": 100
    },
    {
      "time": 15.875,
      "note": 88,
      "duration": 0.25,
      "velocity": 100
    },
    {
      "time": 16.125,
      "note": 89,
      "duration": 0.25,
      "velocity": 100
    },
    {
      "time": 16.375,
      "note": 88,
      "duration": 0.25,
      "velocity": 100
    },
    {
      "time": 16.625,
      "note": 86,
      "duration": 0.125,
      "velocity": 100
    },
    {
      "time": 16.75,
      "note": 84,
      "duration": 0.125,
      "velocity": 100
    },
    {
      "time": 16.125,
      "note": 84,
      "duration": 0.125,
      "velocity": 100
    },
    {
      "time": 16.25,
      "note": 81,
      "duration": 0.25,
      "velocity": 100
    },
    {
      "time": 16.5,
      "note": 84,
      "duration": 0.125,
      "velocity": 100
    },
    {
      "time": 16.625,
      "note": 88,
      "duration": 0.5,
      "velocity": 100
    },
    {
      "time": 17.125,
      "note": 88,
      "duration": 0.25,
      "velocity": 100
    },
    {
      "time": 17.375,
      "note": 89,
      "duration": 0.25,
      "velocity": 100
    },
    {
      "time": 17.625,
      "note": 88,
      "duration": 0.25,
      "velocity": 100
    },
    {
      "time": 17.875,
      "note": 86,
      "duration": 0.125,
      "velocity": 100
    },
    {
      "time": 18.0,
      "note": 84,
      "duration": 0.125,
      "velocity": 100
    },
    {
      "time": 18.125,
      "note": 84,
      "duration": 0.125,
      "velocity": 100
    },
    {
      "time": 18.25,
      "note": 81,
      "duration": 0.25,
      "velocity": 100
    },
    {
      "time": 18.5,
      "note": 84,
      "duration": 0.125,
      "velocity": 100
    },
    {
      "time": 18.625,
      "note": 81,
      "duration": 0.5,
      "velocity": 100
    },
    {
      "time": 19.125,
      "note": 81,
      "duration": 1.0,
      "velocity": 100
    },
    {
      "time": 20.375,
      "note": 81,
      "duration": 0.125,
      "velocity": 100
    },
    {
      "time": 20.5,
      "note": 81,
      "duration": 0.125,
      "velocity": 100
    },
    {
      "time": 20.625,
      "note": 81,
      "duration": 0.125,
      "velocity": 100
    },
    {
      "time": 20.75,
      "note": 81,
      "duration": 0.125,
      "velocity": 100
    },
    {
      "time": 20.875,
      "note": 84,
      "duration": 0.25,
      "velocity": 100
    },
    {
      "time": 21.125,
      "note": 84,
      "duration": 0.125,
      "velocity": 100
    },
    {
      "time": 21.25,
      "note": 84,
      "duration": 0.125,
      "velocity": 100
    },
    {
      "time": 21.375,
      "note": 81,
      "duration": 0.125,
      "velocity": 100
    },
    {
      "time": 21.5,
      "note": 81,
      "duration": 0.125,
      "velocity": 100
    },
    {
      "time": 21.75,
      "note": 79,
      "duration": 0.125,
      "velocity": 100
    },
    {
      "time": 21.875,
      "note": 81,
      "duration": 0.25,
      "velocity": 100
    },
    {
      "time": 22.125,
      "note": 76,
      "duration": 0.125,
      "velocity": 100
    },
    {
      "time": 22.25,
      "note": 76,
      "duration": 0.125,
      "velocity": 100
    },
    {
      "time": 22.375,
      "note": 81,
      "duration": 0.125,
      "velocity": 100
    },
    {
      "time": 22.5,
      "note": 81,
      "duration": 0.125,
      "velocity": 100
    },
    {
      "time": 22.625,
      "note": 81,
      "duration": 0.125,
      "velocity": 100
    },
    {
      "time": 22.75,
      "note": 81,
      "duration": 0.125,
      "velocity": 100
    },
    {
      "time": 22.875,
      "note": 84,
      "duration": 0.25,
      "velocity": 100
    },
    {
      "time": 23.125,
      "note": 84,
      "duration": 0.125,
      "velocity": 100
    },
    {
      "time": 23.25,
      "note": 84,
      "duration": 0.125,
      "velocity": 100
    },
    {
      "time": 23.375,
      "note": 81,
      "duration": 0.125,
      "velocity": 100
    },
    {
      "time": 23.5,
      "note": 81,
      "duration": 0.125,
      "velocity": 100
    },
    {
      "time": 23.75,
      "note": 79,
      "duration": 0.125,
      "velocity": 100
    },
    {
      "time": 23.875,
      "note": 81,
      "duration": 0.25,
      "velocity": 100
    },
    {
      "time": 24.25,
      "note": 76,
      "duration": 0.125,
      "velocity": 100
    },
    {
      "time": 24.375,
      "note": 81,
      "duration": 0.125,
      "velocity": 100
    },
    {
      "time": 24.5,
      "note": 81,
      "duration": 0.125,
      "velocity": 100
    },
    {
      "time": 24.75,
      "note": 81,
      "duration": 0.125,
      "velocity": 100
    },
    {
      "time": 24.875,
      "note": 84,
      "duration": 0.125,
      "velocity": 100
    },
    {
      "time": 25.0,
      "note": 84,
      "duration": 0.25,
      "velocity": 100
    },
    {
      "time": 25.25,
      "note": 84,
      "duration": 0.125,
      "velocity": 100
    },
    {
      "time": 25.625,
      "note": 81,
      "duration": 0.125,
      "velocity": 100
    },
    {
      "time": 25.75,
      "note": 81,
      "duration": 0.125,
      "velocity": 100
    },
    {
      "time": 26.0,
      "note": 79,
      "duration": 0.125,
      "velocity": 100
    },
    {
      "time": 26.125,
      "note": 81,
      "duration": 0.25,
      "velocity": 100
    },
    {
      "time": 26.5,
      "note": 76,
      "duration": 0.125,
      "velocity": 100
    },
    {
      "time": 26.625,
      "note": 81,
      "duration": 0.125,
      "velocity": 100
    },
    {
      "time": 26.75,
      "note": 81,
      "duration": 0.125,
      "velocity": 100
    },
    {
      "time": 26.875,
      "note": 81,
      "duration": 0.125,
      "velocity": 100
    },
    {
      "time": 27.0,
      "note": 81,
      "duration": 0.125,
      "velocity": 100
    },
    {
      "time": 27.125,
      "note": 84,
      "duration": 0.125,
      "velocity": 100
    },
    {
      "time": 27.25,
      "note": 84,
      "duration": 0.25,
      "velocity": 100
    },
    {
      "time": 27.5,
      "note": 84,
      "duration": 0.125,
      "velocity": 100
    },
    {
      "time": 27.625,
      "note": 81,
      "duration": 0.125,
      "velocity": 100
    },
    {
      "time": 27.75,
      "note": 81,
      "duration": 0.125,
      "velocity": 100
    },
    {
      "time": 27.875,
      "note": 81,
      "duration": 0.125,
      "velocity": 100
    },
    {
      "time": 28.0,
      "note": 79,
      "duration": 0.125,
      "velocity": 100
    },
    {
      "time": 28.125,
      "note": 81,
      "duration": 0.25,
      "velocity": 100
    },
    {
      "time": 28.375,
      "note": 81,
      "duration": 0.25,
      "velocity": 100
    },
    {
      "time": 28.625,
      "note": 81,
      "duration": 1.0,
      "velocity": 100
    },
    {
      "time": 29.625,
      "note": 81,
      "duration": 1.0,
      "velocity": 100
    },
    {
      "time": 31.0,
      "note": 81,
      "duration": 0.25,
      "velocity": 100
    },
    {
      "time": 31.375,
      "note": 83,
      "duration": 0.125,
      "velocity": 100
    },
    {
      "time": 31.5,
      "note": 84,
      "duration": 0.125,
      "velocity": 100
    },
    {
      "time": 31.625,
      "note": 83,
      "duration": 0.125,
      "velocity": 100
    },
    {
      "time": 31.75,
      "note": 84,
      "duration": 0.125,
      "velocity": 100
    },
    {
      "time": 31.875,
      "note": 83,
      "duration": 0.125,
      "velocity": 100
    },
    {
      "time": 32.0,
      "note": 81,
      "duration": 0.25,
      "velocity": 100
    },
    {
      "time": 32.375,
      "note": 83,
      "duration": 0.125,
      "velocity": 100
    },
    {
      "time": 32.5,
      "note": 84,
      "duration": 0.125,
      "velocity": 100
    },
    {
      "time": 32.625,
      "note": 83,
      "duration": 0.125,
      "velocity": 100
    },
    {
      "time": 32.75,
      "note": 84,
      "duration": 0.125,
      "velocity": 100
    },
    {
      "time": 32.875,
      "note": 83,
      "duration": 0.125,
      "velocity": 100
    },
    {
      "time": 33.0,
      "note": 81,
      "duration": 0.25,
      "velocity": 100
    },
    {
      "time": 33.375,
      "note": 83,
      "duration": 0.125,
      "velocity": 100
    },
    {
      "time": 33.5,
      "note": 84,
      "duration": 0.125,
      "velocity": 100
    },
    {
      "time": 33.625,
      "note": 83,
      "duration": 0.125,
      "velocity": 100
    },
    {
      "time": 33.75,
      "note": 84,
      "duration": 0.125,
      "velocity": 100
    },
    {
      "time": 33.875,
      "note": 83,
      "duration": 0.125,
      "velocity": 100
    },
    {
      "time": 34.0,
      "note": 81,
      "duration": 0.25,
      "velocity": 100
    },
    {
      "time": 34.375,
      "note": 83,
      "duration": 0.125,
      "velocity": 100
    },
    {
      "time": 34.5,
      "note": 84,
      "duration": 0.125,
      "velocity": 100
    },
    {
      "time": 34.625,
      "note": 83,
      "duration": 0.125,
      "velocity": 100
    },
    {
      "time": 34.75,
      "note": 84,
      "duration": 0.125,
      "velocity": 100
    },
    {
      "time": 34.875,
      "note": 83,
      "duration": 0.125,
      "velocity": 100
    },
    {
      "time": 35.0,
      "note": 91,
      "duration": 1.0,
      "velocity": 100
    },
    {
      "time": 36.0,
      "note": 93,
      "duration": 1.0,
      "velocity": 100
    }
  ],
  "chords": [
    {
      "time": 0.0,
      "notes": [
        69,
        72,
        76
      ],
      "duration": 3.409090909090909
    },
    {
      "time": 3.409090909090909,
      "notes": [
        69,
        72,
        76
      ],
      "duration": 3.409090909090909
    },
    {
      "time": 6.818181818181818,
      "notes": [
        64,
        68,
        71,
        74
      ],
      "duration": 3.409090909090909
    },
    {
      "time": 10.227272727272727,
      "notes": [
        69,
        72,
        76
      ],
      "duration": 3.409090909090909
    },
    {
      "time": 13.636363636363637,
      "notes": [
        64,
        68,
        71,
        74
      ],
      "duration": 3.409090909090909
    },
    {
      "time": 17.045454545454547,
      "notes": [
        69,
        72,
        76
      ],
      "duration": 3.409090909090909
    },
    {
      "time": 20.454545454545453,
      "notes": [
        64,
        68,
        71,
        74
      ],
      "duration": 3.409090909090909
    },
    {
      "time": 23.863636363636363,
      "notes": [
        69,
        72,
        76
      ],
      "duration": 3.409090909090909
    },
    {
      "time": 27.272727272727273,
      "notes": [
        64,
        68,
        71,
        74
      ],
      "duration": 3.409090909090909
    },
    {
      "time": 30.681818181818183,
      "notes": [
        69,
        72,
        76
      ],
      "duration": 3.409090909090909
    },
    {
      "time": 34.09090909090909,
      "notes": [
        69,
        72,
        76
      ],
      "duration": 3.409090909090909
    }
  ]
}