{
  "title": "Yo tomo licor",
  "artist": "Amar azul",
  "bpm": 120,
  "duration": 58.125,
  "audioFile": "",
  "notes": [
    {
      "time": 0.0,
      "note": 77,
      "duration": 0.25,
      "velocity": 100
    },
    {
      "time": 0.25,
      "note": 77,
      "duration": 0.125,
      "velocity": 100
    },
    {
      "time": 0.375,
      "note": 74,
      "duration": 0.25,
      "velocity": 100
    },
    {
      "time": 0.625,
      "note": 77,
      "duration": 0.125,
      "velocity": 100
    },
    {
      "time": 0.75,
      "note": 83,
      "duration": 0.125,
      "velocity": 100
    },
    {
      "time": 1.0,
      "note": 74,
      "duration": 0.5,
      "velocity": 100
    },
    {
      "time": 1.5,
      "note": 83,
      "duration": 0.5,
      "velocity": 100
    },
    {
      "time": 1.5,
      "note": 83,
      "duration": 0.5,
      "velocity": 100
    },
    {
      "time": 2.125,
      "note": 77,
      "duration": 0.25,
      "velocity": 100
    },
    {
      "time": 2.375,
      "note": 77,
      "duration": 0.125,
      "velocity": 100
    },
    {
      "time": 2.5,
      "note": 74,
      "duration": 0.25,
      "velocity": 100
    },
    {
      "time": 2.75,
      "note": 77,
      "duration": 0.125,
      "velocity": 100
    },
    {
      "time": 2.875,
      "note": 83,
      "duration": 0.125,
      "velocity": 100
    },
    {
      "time": 3.125,
      "note": 83,
      "duration": 0.25,
      "velocity": 100
    },
    {
      "time": 3.375,
      "note": 77,
      "duration": 0.125,
      "velocity": 100
    },
    {
      "time": 3.5,
      "note": 74,
      "duration": 0.25,
      "velocity": 100
    },
    {
      "time": 3.75,
      "note": 83,
      "duration": 0.25,
      "velocity": 100
    },
    {
      "time": 4.0,
      "note": 81,
      "duration": 0.75,
      "velocity": 100
    },
    {
      "time": 4.75,
      "note": 76,
      "duration": 0.5,
      "velocity": 100
    },
    {
      "time": 5.25,
      "note": 89,
      "duration": 0.5,
      "velocity": 100
    },
    {
      "time": 5.5,
      "note": 72,
      "duration": 0.25,
      "velocity": 100
    },
    {
      "time": 5.75,
      "note": 72,
      "duration": 0.125,
      "velocity": 100
    },
    {
      "time": 5.875,
      "note": 76,
      "duration": 0.25,
      "velocity": 100
    },
    {
      "time": 6.125,
      "note": 76,
      "duration": 0.125,
      "velocity": 100
    },
    {
      "time": 6.25,
      "note": 72,
      "duration": 0.25,
      "velocity": 100
    },
    {
      "time": 6.5,
      "note": 76,
      "duration": 0.125,
      "velocity": 100
    },
    {
      "time": 6.625,
      "note": 81,
      "duration": 0.125,
      "velocity": 100
    },
    {
      "time": 6.875,
      "note": 81,
      "duration": 0.375,
      "velocity": 100
    },
    {
      "time": 7.25,
      "note": 81,
      "duration": 0.5,
      "velocity": 100
    },
    {
      "time": 7.875,
      "note": 76,
      "duration": 0.25,
      "velocity": 100
    },
    {
      "time": 8.125,
      "note": 76,
      "duration": 0.125,
      "velocity": 100
    },
    {
      "time": 8.25,
      "note": 72,
      "duration": 0.25,
      "velocity": 100
    },
    {
      "time": 8.5,
      "note": 76,
      "duration": 0.125,
      "velocity": 100
    },
    {
      "time": 8.625,
      "note": 81,
      "duration": 0.125,
      "velocity": 100
    },
    {
      "time": 8.875,
      "note": 81,
      "duration": 0.25,
      "velocity": 100
    },
    {
      "time": 9.125,
      "note": 76,
      "duration": 0.125,
      "velocity": 100
    },
    {
      "time": 9.25,
      "note": 72,
      "duration": 0.25,
      "velocity": 100
    },
    {
      "time": 9.5,
      "note": 81,
      "duration": 0.25,
      "velocity": 100
    },
    {
      "time": 9.75,
      "note": 83,
      "duration": 0.375,
      "velocity": 100
    },
    {
      "time": 10.125,
      "note": 77,
      "duration": 0.125,
      "velocity": 100
    },
    {
      "time": 10.5,
      "note": 74,
      "duration": 0.25,
      "velocity": 100
    },
    {
      "time": 10.75,
      "note": 74,
      "duration": 0.125,
      "velocity": 100
    },
    {
      "time": 10.875,
      "note": 83,
      "duration": 0.25,
      "velocity": 100
    },
    {
      "time": 11.125,
      "note": 83,
      "duration": 0.125,
      "velocity": 100
    },
    {
      "time": 11.25,
      "note": 77,
      "duration": 0.25,
      "velocity": 100
    },
    {
      "time": 11.5,
      "note": 83,
      "duration": 0.125,
      "velocity": 100
    },
    {
      "time": 11.625,
      "note": 86,
      "duration": 0.125,
      "velocity": 100
    },
    {
      "time": 11.875,
      "note": 76,
      "duration": 0.5,
      "velocity": 100
    },
    {
      "time": 12.375,
      "note": 86,
      "duration": 0.5,
      "velocity": 100
    },
    {
      "time": 12.375,
      "note": 86,
      "duration": 0.5,
      "velocity": 100
    },
    {
      "time": 13.0,
      "note": 83,
      "duration": 0.25,
      "velocity": 100
    },
    {
      "time": 13.25,
      "note": 83,
      "duration": 0.125,
      "velocity": 100
    },
    {
      "time": 13.375,
      "note": 77,
      "duration": 0.25,
      "velocity": 100
    },
    {
      "time": 13.625,
      "note": 83,
      "duration": 0.125,
      "velocity": 100
    },
    {
      "time": 13.75,
      "note": 86,
      "duration": 0.125,
      "velocity": 100
    },
    {
      "time": 14.0,
      "note": 86,
      "duration": 0.25,
      "velocity": 100
    },
    {
      "time": 14.25,
      "note": 83,
      "duration": 0.125,
      "velocity": 100
    },
    {
      "time": 14.375,
      "note": 77,
      "duration": 0.25,
      "velocity": 100
    },
    {
      "time": 14.625,
      "note": 86,
      "duration": 0.25,
      "velocity": 100
    },
    {
      "time": 14.875,
      "note": 84,
      "duration": 0.375,
      "velocity": 100
    },
    {
      "time": 15.25,
      "note": 81,
      "duration": 0.125,
      "velocity": 100
    },
    {
      "time": 15.625,
      "note": 76,
      "duration": 0.25,
      "velocity": 100
    },
    {
      "time": 15.875,
      "note": 76,
      "duration": 0.125,
      "velocity": 100
    },
    {
      "time": 16.0,
      "note": 81,
      "duration": 0.25,
      "velocity": 100
    },
    {
      "time": 16.25,
      "note": 81,
      "duration": 0.125,
      "velocity": 100
    },
    {
      "time": 16.375,
      "note": 76,
      "duration": 0.25,
      "velocity": 100
    },
    {
      "time": 16.625,
      "note": 81,
      "duration": 0.125,
      "velocity": 100
    },
    {
      "time": 16.75,
      "note": 84,
      "duration": 0.125,
      "velocity": 100
    },
    {
      "time": 17.0,
      "note": 76,
      "duration": 0.5,
      "velocity": 100
    },
    {
      "time": 17.5,
      "note": 84,
      "duration": 0.5,
      "velocity": 100
    },
    {
      "time": 17.5,
      "note": 84,
      "duration": 0.5,
      "velocity": 100
    },
    {
      "time": 18.125,
      "note": 81,
      "duration": 0.25,
      "velocity": 100
    },
    {
      "time": 18.375,
      "note": 81,
      "duration": 0.125,
      "velocity": 100
    },
    {
      "time": 18.5,
      "note": 76,
      "duration": 0.25,
      "velocity": 100
    },
    {
      "time": 18.75,
      "note": 81,
      "duration": 0.125,
      "velocity": 100
    },
    {
      "time": 18.875,
      "note": 84,
      "duration": 0.125,
      "velocity": 100
    },
    {
      "time": 19.0,
      "note": 84,
      "duration": 1.0,
      "velocity": 100
    },
    {
      "time": 20.0,
      "note": 84,
      "duration": 0.25,
      "velocity": 100
    },
    {
      "time": 20.25,
      "note": 81,
      "duration": 0.125,
      "velocity": 100
    },
    {
      "time": 20.375,
      "note": 76,
      "duration": 0.25,
      "velocity": 100
    },
    {
      "time": 20.625,
      "note": 84,
      "duration": 0.25,
      "velocity": 100
    },
    {
      "time": 20.875,
      "note": 86,
      "duration": 0.375,
      "velocity": 100
    },
    {
      "time": 21.25,
      "note": 83,
      "duration": 0.125,
      "velocity": 100
    },
    {
      "time": 21.625,
      "note": 77,
      "duration": 0.25,
      "velocity": 100
    },
    {
      "time": 21.875,
      "note": 77,
      "duration": 0.5,
      "velocity": 100
    },
    {
      "time": 22.75,
      "note": 77,
      "duration": 0.125,
      "velocity": 100
    },
    {
      "time": 22.875,
      "note": 77,
      "duration": 0.125,
      "velocity": 100
    },
    {
      "time": 23.0,
      "note": 77,
      "duration": 0.125,
      "velocity": 100
    },
    {
      "time": 23.125,
      "note": 83,
      "duration": 0.125,
      "velocity": 100
    },
    {
      "time": 23.25,
      "note": 86,
      "duration": 0.125,
      "velocity": 100
    },
    {
      "time": 23.375,
      "note": 86,
      "duration": 0.25,
      "velocity": 100
    },
    {
      "time": 23.75,
      "note": 77,
      "duration": 0.125,
      "velocity": 100
    },
    {
      "time": 22.875,
      "note": 71,
      "duration": 0.5,
      "velocity": 100
    },
    {
      "time": 23.875,
      "note": 77,
      "duration": 0.125,
      "velocity": 100
    },
    {
      "time": 24.0,
      "note": 77,
      "duration": 0.125,
      "velocity": 100
    },
    {
      "time": 24.125,
      "note": 83,
      "duration": 0.125,
      "velocity": 100
    },
    {
      "time": 24.25,
      "note": 86,
      "duration": 0.125,
      "velocity": 100
    },
    {
      "time": 24.375,
      "note": 86,
      "duration": 0.125,
      "velocity": 100
    },
    {
      "time": 24.5,
      "note": 86,
      "duration": 0.25,
      "velocity": 100
    },
    {
      "time": 24.75,
      "note": 86,
      "duration": 0.125,
      "velocity": 100
    },
    {
      "time": 24.875,
      "note": 86,
      "duration": 0.125,
      "velocity": 100
    },
    {
      "time": 25.0,
      "note": 86,
      "duration": 0.125,
      "velocity": 100
    },
    {
      "time": 25.125,
      "note": 86,
      "duration": 0.25,
      "velocity": 100
    },
    {
      "time": 25.375,
      "note": 86,
      "duration": 0.375,
      "velocity": 100
    },
    {
      "time": 25.75,
      "note": 79,
      "duration": 0.125,
      "velocity": 100
    },
    {
      "time": 25.5,
      "note": 71,
      "duration": 0.125,
      "velocity": 100
    },
    {
      "time": 25.625,
      "note": 72,
      "duration": 0.125,
      "velocity": 100
    },
    {
      "time": 25.75,
      "note": 74,
      "duration": 0.125,
      "velocity": 100
    },
    {
      "time": 25.875,
      "note": 79,
      "duration": 0.5,
      "velocity": 100
    },
    {
      "time": 25.875,
      "note": 67,
      "duration": 0.75,
      "velocity": 100
    },
    {
      "time": 26.625,
      "note": 71,
      "duration": 0.5,
      "velocity": 100
    },
    {
      "time": 27.375,
      "note": 74,
      "duration": 0.5,
      "velocity": 100
    },
    {
      "time": 27.875,
      "note": 86,
      "duration": 0.125,
      "velocity": 100
    },
    {
      "time": 28.0,
      "note": 86,
      "duration": 0.125,
      "velocity": 100
    },
    {
      "time": 28.125,
      "note": 86,
      "duration": 0.125,
      "velocity": 100
    },
    {
      "time": 28.25,
      "note": 81,
      "duration": 0.125,
      "velocity": 100
    },
    {
      "time": 28.375,
      "note": 81,
      "duration": 0.125,
      "velocity": 100
    },
    {
      "time": 28.5,
      "note": 77,
      "duration": 0.125,
      "velocity": 100
    },
    {
      "time": 28.625,
      "note": 81,
      "duration": 0.25,
      "velocity": 100
    },
    {
      "time": 28.875,
      "note": 81,
      "duration": 0.25,
      "velocity": 100
    },
    {
      "time": 29.125,
      "note": 81,
      "duration": 0.5,
      "velocity": 100
    },
    {
      "time": 29.625,
      "note": 86,
      "duration": 0.25,
      "velocity": 100
    },
    {
      "time": 29.875,
      "note": 88,
      "duration": 0.25,
      "velocity": 100
    },
    {
      "time": 30.125,
      "note": 84,
      "duration": 0.375,
      "velocity": 100
    },
    {
      "time": 30.5,
      "note": 83,
      "duration": 0.125,
      "velocity": 100
    },
    {
      "time": 30.625,
      "note": 81,
      "duration": 0.5,
      "velocity": 100
    },
    {
      "time": 31.125,
      "note": 81,
      "duration": 0.5,
      "velocity": 100
    },
    {
      "time": 32.0,
      "note": 77,
      "duration": 0.125,
      "velocity": 100
    },
    {
      "time": 31.625,
      "note": 70,
      "duration": 0.5,
      "velocity": 100
    },
    {
      "time": 32.125,
      "note": 71,
      "duration": 0.375,
      "velocity": 100
    },
    {
      "time": 32.5,
      "note": 71,
      "duration": 0.125,
      "velocity": 100
    },
    {
      "time": 32.625,
      "note": 71,
      "duration": 0.25,
      "velocity": 100
    },
    {
      "time": 32.875,
      "note": 71,
      "duration": 0.125,
      "velocity": 100
    },
    {
      "time": 33.25,
      "note": 86,
      "duration": 0.125,
      "velocity": 100
    },
    {
      "time": 33.375,
      "note": 86,
      "duration": 0.125,
      "velocity": 100
    },
    {
      "time": 33.5,
      "note": 86,
      "duration": 0.125,
      "velocity": 100
    },
    {
      "time": 33.625,
      "note": 86,
      "duration": 0.125,
      "velocity": 100
    },
    {
      "time": 33.75,
      "note": 86,
      "duration": 0.125,
      "velocity": 100
    },
    {
      "time": 33.875,
      "note": 86,
      "duration": 0.125,
      "velocity": 100
    },
    {
      "time": 33.0,
      "note": 71,
      "duration": 0.5,
      "velocity": 100
    },
    {
      "time": 33.5,
      "note": 83,
      "duration": 0.5,
      "velocity": 100
    },
    {
      "time": 34.0,
      "note": 86,
      "duration": 0.25,
      "velocity": 100
    },
    {
      "time": 34.25,
      "note": 83,
      "duration": 0.25,
      "velocity": 100
    },
    {
      "time": 34.5,
      "note": 86,
      "duration": 0.25,
      "velocity": 100
    },
    {
      "time": 34.75,
      "note": 83,
      "duration": 0.25,
      "velocity": 100
    },
    {
      "time": 34.0,
      "note": 71,
      "duration": 0.5,
      "velocity": 100
    },
    {
      "time": 34.5,
      "note": 70,
      "duration": 0.5,
      "velocity": 100
    },
    {
      "time": 35.0,
      "note": 81,
      "duration": 0.25,
      "velocity": 100
    },
    {
      "time": 35.25,
      "note": 88,
      "duration": 0.125,
      "velocity": 100
    },
    {
      "time": 35.375,
      "note": 88,
      "duration": 0.125,
      "velocity": 100
    },
    {
      "time": 35.5,
      "note": 88,
      "duration": 0.5,
      "velocity": 100
    },
    {
      "time": 35.625,
      "note": 69,
      "duration": 0.125,
      "velocity": 100
    },
    {
      "time": 35.75,
      "note": 72,
      "duration": 0.125,
      "velocity": 100
    },
    {
      "time": 35.875,
      "note": 76,
      "duration": 0.125,
      "velocity": 100
    },
    {
      "time": 36.0,
      "note": 81,
      "duration": 0.375,
      "velocity": 100
    },
    {
      "time": 36.375,
      "note": 81,
      "duration": 0.25,
      "velocity": 100
    },
    {
      "time": 36.625,
      "note": 81,
      "duration": 0.125,
      "velocity": 100
    },
    {
      "time": 36.75,
      "note": 77,
      "duration": 0.25,
      "velocity": 100
    },
    {
      "time": 37.0,
      "note": 74,
      "duration": 0.25,
      "velocity": 100
    },
    {
      "time": 37.25,
      "note": 77,
      "duration": 0.25,
      "velocity": 100
    },
    {
      "time": 37.75,
      "note": 86,
      "duration": 0.125,
      "velocity": 100
    },
    {
      "time": 37.875,
      "note": 86,
      "duration": 0.125,
      "velocity": 100
    },
    {
      "time": 38.0,
      "note": 86,
      "duration": 0.125,
      "velocity": 100
    },
    {
      "time": 38.125,
      "note": 84,
      "duration": 0.125,
      "velocity": 100
    },
    {
      "time": 38.25,
      "note": 83,
      "duration": 0.125,
      "velocity": 100
    },
    {
      "time": 38.375,
      "note": 84,
      "duration": 0.125,
      "velocity": 100
    },
    {
      "time": 37.5,
      "note": 71,
      "duration": 0.5,
      "velocity": 100
    },
    {
      "time": 38.5,
      "note": 86,
      "duration": 0.25,
      "velocity": 100
    },
    {
      "time": 38.75,
      "note": 83,
      "duration": 0.25,
      "velocity": 100
    },
    {
      "time": 39.0,
      "note": 86,
      "duration": 0.25,
      "velocity": 100
    },
    {
      "time": 39.25,
      "note": 83,
      "duration": 0.25,
      "velocity": 100
    },
    {
      "time": 39.5,
      "note": 86,
      "duration": 0.25,
      "velocity": 100
    },
    {
      "time": 39.75,
      "note": 86,
      "duration": 0.125,
      "velocity": 100
    },
    {
      "time": 39.875,
      "note": 83,
      "duration": 0.125,
      "velocity": 100
    },
    {
      "time": 40.0,
      "note": 83,
      "duration": 0.5,
      "velocity": 100
    },
    {
      "time": 40.125,
      "note": 71,
      "duration": 0.125,
      "velocity": 100
    },
    {
      "time": 40.25,
      "note": 74,
      "duration": 0.125,
      "velocity": 100
    },
    {
      "time": 40.375,
      "note": 77,
      "duration": 0.125,
      "velocity": 100
    },
    {
      "time": 40.5,
      "note": 84,
      "duration": 0.5,
      "velocity": 100
    },
    {
      "time": 41.0,
      "note": 77,
      "duration": 0.25,
      "velocity": 100
    },
    {
      "time": 41.25,
      "note": 74,
      "duration": 0.25,
      "velocity": 100
    },
    {
      "time": 41.5,
      "note": 74,
      "duration": 0.125,
      "velocity": 100
    },
    {
      "time": 41.625,
      "note": 77,
      "duration": 0.125,
      "velocity": 100
    },
    {
      "time": 41.75,
      "note": 83,
      "duration": 0.5,
      "velocity": 100
    },
    {
      "time": 42.375,
      "note": 83,
      "duration": 0.125,
      "velocity": 100
    },
    {
      "time": 42.5,
      "note": 77,
      "duration": 0.125,
      "velocity": 100
    },
    {
      "time": 42.625,
      "note": 74,
      "duration": 0.125,
      "velocity": 100
    },
    {
      "time": 42.75,
      "note": 71,
      "duration": 0.25,
      "velocity": 100
    },
    {
      "time": 43.125,
      "note": 77,
      "duration": 0.75,
      "velocity": 100
    },
    {
      "time": 43.875,
      "note": 81,
      "duration": 0.125,
      "velocity": 100
    },
    {
      "time": 44.0,
      "note": 83,
      "duration": 0.125,
      "velocity": 100
    },
    {
      "time": 44.125,
      "note": 77,
      "duration": 0.125,
      "velocity": 100
    },
    {
      "time": 44.25,
      "note": 81,
      "duration": 0.125,
      "velocity": 100
    },
    {
      "time": 44.375,
      "note": 83,
      "duration": 0.125,
      "velocity": 100
    },
    {
      "time": 44.5,
      "note": 77,
      "duration": 0.125,
      "velocity": 100
    },
    {
      "time": 44.625,
      "note": 81,
      "duration": 0.125,
      "velocity": 100
    },
    {
      "time": 44.75,
      "note": 83,
      "duration": 0.125,
      "velocity": 100
    },
    {
      "time": 44.875,
      "note": 86,
      "duration": 0.25,
      "velocity": 100
    },
    {
      "time": 45.125,
      "note": 83,
      "duration": 0.125,
      "velocity": 100
    },
    {
      "time": 45.25,
      "note": 86,
      "duration": 0.125,
      "velocity": 100
    },
    {
      "time": 45.375,
      "note": 88,
      "duration": 0.25,
      "velocity": 100
    },
    {
      "time": 45.625,
      "note": 81,
      "duration": 0.25,
      "velocity": 100
    },
    {
      "time": 45.875,
      "note": 79,
      "duration": 0.25,
      "velocity": 100
    },
    {
      "time": 46.125,
      "note": 81,
      "duration": 0.25,
      "velocity": 100
    },
    {
      "time": 46.375,
      "note": 81,
      "duration": 0.375,
      "velocity": 100
    },
    {
      "time": 46.75,
      "note": 79,
      "duration": 0.125,
      "velocity": 100
    },
    {
      "time": 46.875,
      "note": 81,
      "duration": 0.125,
      "velocity": 100
    },
    {
      "time": 47.0,
      "note": 84,
      "duration": 0.125,
      "velocity": 100
    },
    {
      "time": 47.125,
      "note": 79,
      "duration": 0.125,
      "velocity": 100
    },
    {
      "time": 47.25,
      "note": 81,
      "duration": 0.125,
      "velocity": 100
    },
    {
      "time": 47.375,
      "note": 84,
      "duration": 0.125,
      "velocity": 100
    },
    {
      "time": 47.5,
      "note": 79,
      "duration": 0.125,
      "velocity": 100
    },
    {
      "time": 47.625,
      "note": 81,
      "duration": 0.125,
      "velocity": 100
    },
    {
      "time": 47.75,
      "note": 84,
      "duration": 0.125,
      "velocity": 100
    },
    {
      "time": 47.875,
      "note": 88,
      "duration": 0.25,
      "velocity": 100
    },
    {
      "time": 48.125,
      "note": 84,
      "duration": 0.125,
      "velocity": 100
    },
    {
      "time": 48.25,
      "note": 88,
      "duration": 0.125,
      "velocity": 100
    },
    {
      "time": 48.375,
      "note": 89,
      "duration": 0.25,
      "velocity": 100
    },
    {
      "time": 48.625,
      "note": 83,
      "duration": 0.25,
      "velocity": 100
    },
    {
      "time": 48.875,
      "note": 81,
      "duration": 0.25,
      "velocity": 100
    },
    {
      "time": 49.125,
      "note": 83,
      "duration": 0.25,
      "velocity": 100
    },
    {
      "time": 49.375,
      "note": 77,
      "duration": 1.0,
      "velocity": 100
    },
    {
      "time": 50.375,
      "note": 83,
      "duration": 0.375,
      "velocity": 100
    },
    {
      "time": 50.75,
      "note": 77,
      "duration": 0.125,
      "velocity": 100
    },
    {
      "time": 50.875,
      "note": 81,
      "duration": 0.125,
      "velocity": 100
    },
    {
      "time": 51.0,
      "note": 83,
      "duration": 0.125,
      "velocity": 100
    },
    {
      "time": 51.125,
      "note": 77,
      "duration": 0.125,
      "velocity": 100
    },
    {
      "time": 51.25,
      "note": 81,
      "duration": 0.125,
      "velocity": 100
    },
    {
      "time": 51.375,
      "note": 83,
      "duration": 0.125,
      "velocity": 100
    },
    {
      "time": 51.5,
      "note": 77,
      "duration": 0.125,
      "velocity": 100
    },
    {
      "time": 51.625,
      "note": 81,
      "duration": 0.125,
      "velocity": 100
    },
    {
      "time": 51.75,
      "note": 83,
      "duration": 0.125,
      "velocity": 100
    },
    {
      "time": 51.875,
      "note": 86,
      "duration": 0.25,
      "velocity": 100
    },
    {
      "time": 52.125,
      "note": 83,
      "duration": 0.125,
      "velocity": 100
    },
    {
      "time": 52.25,
      "note": 86,
      "duration": 0.125,
      "velocity": 100
    },
    {
      "time": 52.375,
      "note": 88,
      "duration": 0.25,
      "velocity": 100
    },
    {
      "time": 52.625,
      "note": 81,
      "duration": 0.25,
      "velocity": 100
    },
    {
      "time": 52.875,
      "note": 79,
      "duration": 0.25,
      "velocity": 100
    },
    {
      "time": 53.125,
      "note": 81,
      "duration": 0.25,
      "velocity": 100
    },
    {
      "time": 53.375,
      "note": 81,
      "duration": 0.75,
      "velocity": 100
    },
    {
      "time": 54.125,
      "note": 79,
      "duration": 0.5,
      "velocity": 100
    },
    {
      "time": 54.625,
      "note": 89,
      "duration": 0.5,
      "velocity": 100
    },
    {
      "time": 54.625,
      "note": 81,
      "duration": 0.125,
      "velocity": 100
    },
    {
      "time": 54.75,
      "note": 84,
      "duration": 0.125,
      "velocity": 100
    },
    {
      "time": 54.875,
      "note": 79,
      "duration": 0.125,
      "velocity": 100
    },
    {
      "time": 55.0,
      "note": 81,
      "duration": 0.125,
      "velocity": 100
    },
    {
      "time": 55.125,
      "note": 84,
      "duration": 0.125,
      "velocity": 100
    },
    {
      "time": 55.25,
      "note": 79,
      "duration": 0.125,
      "velocity": 100
    },
    {
      "time": 55.375,
      "note": 81,
      "duration": 0.125,
      "velocity": 100
    },
    {
      "time": 55.5,
      "note": 84,
      "duration": 0.125,
      "velocity": 100
    },
    {
      "time": 55.625,
      "note": 88,
      "duration": 0.25,
      "velocity": 100
    },
    {
      "time": 55.875,
      "note": 84,
      "duration": 0.125,
      "velocity": 100
    },
    {
      "time": 56.0,
      "note": 88,
      "duration": 0.125,
      "velocity": 100
    },
    {
      "time": 56.125,
      "note": 89,
      "duration": 0.25,
      "velocity": 100
    },
    {
      "time": 56.375,
      "note": 83,
      "duration": 0.25,
      "velocity": 100
    },
    {
      "time": 56.625,
      "note": 81,
      "duration": 0.25,
      "velocity": 100
    },
    {
      "time": 56.875,
      "note": 83,
      "duration": 0.25,
      "velocity": 100
    },
    {
      "time": 57.125,
      "note": 83,
      "duration": 1.0,
      "velocity": 100
    }
  ],
  "chords": [
    {
      "time": 0.0,
      "notes": [
        71,
        74,
        78
      ],
      "duration": 3.4191176470588234
    },
    {
      "time": 3.4191176470588234,
      "notes": [
        69,
        73,
        76
      ],
      "duration": 3.4191176470588234
    },
    {
      "time": 6.838235294117647,
      "notes": [
        71,
        74,
        78
      ],
      "duration": 3.4191176470588234
    },
    {
      "time": 10.257352941176471,
      "notes": [
        69,
        73,
        76
      ],
      "duration": 3.4191176470588234
    },
    {
      "time": 13.676470588235293,
      "notes": [
        71,
        74,
        78
      ],
      "duration": 3.4191176470588234
    },
    {
      "time": 17.095588235294116,
      "notes": [
        71,
        74,
        78
      ],
      "duration": 3.4191176470588234
    },
    {
      "time": 20.514705882352942,
      "notes": [
        67,
        71,
        74
      ],
      "duration": 3.4191176470588234
    },
    {
      "time": 23.933823529411764,
      "notes": [
        62,
        66,
        69
      ],
      "duration": 3.4191176470588234
    },
    {
      "time": 27.352941176470587,
      "notes": [
        69,
        73,
        76
      ],
      "duration": 3.4191176470588234
    },
    {
      "time": 30.77205882352941,
      "notes": [
        71,
        74,
        78
      ],
      "duration": 3.4191176470588234
    },
    {
      "time": 34.19117647058823,
      "notes": [
        69,
        73,
        76
      ],
      "duration": 3.4191176470588234
    },
    {
      "time": 37.61029411764706,
      "notes": [
        67,
        71,
        74
      ],
      "duration": 3.4191176470588234
    },
    {
      "time": 41.029411764705884,
      "notes": [
        71,
        74,
        78
      ],
      "duration": 3.4191176470588234
    },
    {
      "time": 44.4485294117647,
      "notes": [
        71,
        74,
        78
      ],
      "duration": 3.4191176470588234
    },
    {
      "time": 47.86764705882353,
      "notes": [
        69,
        73,
        76
      ],
      "duration": 3.4191176470588234
    },
    {
      "time": 51.28676470588235,
      "notes": [
        71,
        74,
        78
      ],
      "duration": 3.4191176470588234
    },
    {
      "time": 54.705882352941174,
      "notes": [
        69,
        73,
        76
      ],
      "duration": 3.4191176470588234
    }
  ]
}