{
  "title": "Que ironia",
  "artist": "Rodrigo",
  "bpm": 120,
  "duration": 53.25,
  "audioFile": "",
  "notes": [
    {
      "time": 0.0,
      "note": 84,
      "duration": 1.0,
      "velocity": 100
    },
    {
      "time": 1.5,
      "note": 79,
      "duration": 1.0,
      "velocity": 100
    },
    {
      "time": 2.5,
      "note": 81,
      "duration": 1.0,
      "velocity": 100
    },
    {
      "time": 2.5,
      "note": 77,
      "duration": 0.25,
      "velocity": 100
    },
    {
      "time": 2.75,
      "note": 79,
      "duration": 0.25,
      "velocity": 100
    },
    {
      "time": 3.0,
      "note": 81,
      "duration": 1.5,
      "velocity": 100
    },
    {
      "time": 4.5,
      "note": 79,
      "duration": 0.125,
      "velocity": 100
    },
    {
      "time": 4.625,
      "note": 81,
      "duration": 0.125,
      "velocity": 100
    },
    {
      "time": 4.75,
      "note": 82,
      "duration": 0.125,
      "velocity": 100
    },
    {
      "time": 4.875,
      "note": 84,
      "duration": 0.125,
      "velocity": 100
    },
    {
      "time": 5.0,
      "note": 86,
      "duration": 1.0,
      "velocity": 100
    },
    {
      "time": 6.0,
      "note": 86,
      "duration": 0.25,
      "velocity": 100
    },
    {
      "time": 6.25,
      "note": 82,
      "duration": 0.25,
      "velocity": 100
    },
    {
      "time": 6.5,
      "note": 81,
      "duration": 0.25,
      "velocity": 100
    },
    {
      "time": 6.75,
      "note": 81,
      "duration": 0.25,
      "velocity": 100
    },
    {
      "time": 7.0,
      "note": 81,
      "duration": 0.25,
      "velocity": 100
    },
    {
      "time": 7.25,
      "note": 79,
      "duration": 0.25,
      "velocity": 100
    },
    {
      "time": 7.5,
      "note": 79,
      "duration": 0.5,
      "velocity": 100
    },
    {
      "time": 9.0,
      "note": 79,
      "duration": 0.25,
      "velocity": 100
    },
    {
      "time": 9.25,
      "note": 77,
      "duration": 0.5,
      "velocity": 100
    },
    {
      "time": 9.75,
      "note": 79,
      "duration": 0.25,
      "velocity": 100
    },
    {
      "time": 10.0,
      "note": 79,
      "duration": 0.25,
      "velocity": 100
    },
    {
      "time": 10.25,
      "note": 77,
      "duration": 0.25,
      "velocity": 100
    },
    {
      "time": 10.5,
      "note": 79,
      "duration": 0.25,
      "velocity": 100
    },
    {
      "time": 10.75,
      "note": 81,
      "duration": 0.25,
      "velocity": 100
    },
    {
      "time": 11.0,
      "note": 81,
      "duration": 0.25,
      "velocity": 100
    },
    {
      "time": 11.25,
      "note": 79,
      "duration": 0.25,
      "velocity": 100
    },
    {
      "time": 11.5,
      "note": 81,
      "duration": 0.25,
      "velocity": 100
    },
    {
      "time": 11.75,
      "note": 82,
      "duration": 0.25,
      "velocity": 100
    },
    {
      "time": 12.0,
      "note": 82,
      "duration": 0.25,
      "velocity": 100
    },
    {
      "time": 12.25,
      "note": 81,
      "duration": 0.25,
      "velocity": 100
    },
    {
      "time": 12.5,
      "note": 82,
      "duration": 0.25,
      "velocity": 100
    },
    {
      "time": 12.75,
      "note": 84,
      "duration": 0.25,
      "velocity": 100
    },
    {
      "time": 13.0,
      "note": 86,
      "duration": 0.25,
      "velocity": 100
    },
    {
      "time": 13.25,
      "note": 84,
      "duration": 0.25,
      "velocity": 100
    },
    {
      "time": 13.5,
      "note": 82,
      "duration": 0.25,
      "velocity": 100
    },
    {
      "time": 13.75,
      "note": 81,
      "duration": 0.25,
      "velocity": 100
    },
    {
      "time": 14.0,
      "note": 81,
      "duration": 0.25,
      "velocity": 100
    },
    {
      "time": 14.25,
      "note": 89,
      "duration": 0.5,
      "velocity": 100
    },
    {
      "time": 14.75,
      "note": 88,
      "duration": 0.125,
      "velocity": 100
    },
    {
      "time": 14.875,
      "note": 89,
      "duration": 0.125,
      "velocity": 100
    },
    {
      "time": 15.0,
      "note": 88,
      "duration": 0.25,
      "velocity": 100
    },
    {
      "time": 15.25,
      "note": 86,
      "duration": 0.25,
      "velocity": 100
    },
    {
      "time": 15.5,
      "note": 84,
      "duration": 0.5,
      "velocity": 100
    },
    {
      "time": 16.0,
      "note": 84,
      "duration": 0.25,
      "velocity": 100
    },
    {
      "time": 16.25,
      "note": 82,
      "duration": 0.25,
      "velocity": 100
    },
    {
      "time": 16.5,
      "note": 83,
      "duration": 0.25,
      "velocity": 100
    },
    {
      "time": 16.75,
      "note": 84,
      "duration": 0.25,
      "velocity": 100
    },
    {
      "time": 17.75,
      "note": 79,
      "duration": 0.25,
      "velocity": 100
    },
    {
      "time": 18.0,
      "note": 81,
      "duration": 0.25,
      "velocity": 100
    },
    {
      "time": 18.25,
      "note": 81,
      "duration": 0.25,
      "velocity": 100
    },
    {
      "time": 18.5,
      "note": 81,
      "duration": 0.25,
      "velocity": 100
    },
    {
      "time": 18.75,
      "note": 79,
      "duration": 0.25,
      "velocity": 100
    },
    {
      "time": 19.0,
      "note": 79,
      "duration": 0.5,
      "velocity": 100
    },
    {
      "time": 20.0,
      "note": 82,
      "duration": 0.25,
      "velocity": 100
    },
    {
      "time": 20.25,
      "note": 82,
      "duration": 0.25,
      "velocity": 100
    },
    {
      "time": 20.5,
      "note": 81,
      "duration": 0.25,
      "velocity": 100
    },
    {
      "time": 20.75,
      "note": 79,
      "duration": 0.25,
      "velocity": 100
    },
    {
      "time": 21.0,
      "note": 81,
      "duration": 0.5,
      "velocity": 100
    },
    {
      "time": 21.75,
      "note": 75,
      "duration": 0.5,
      "velocity": 100
    },
    {
      "time": 22.25,
      "note": 84,
      "duration": 0.5,
      "velocity": 100
    },
    {
      "time": 22.25,
      "note": 84,
      "duration": 0.25,
      "velocity": 100
    },
    {
      "time": 22.5,
      "note": 84,
      "duration": 0.25,
      "velocity": 100
    },
    {
      "time": 22.75,
      "note": 82,
      "duration": 0.25,
      "velocity": 100
    },
    {
      "time": 23.0,
      "note": 81,
      "duration": 0.25,
      "velocity": 100
    },
    {
      "time": 21.0,
      "note": 82,
      "duration": 0.5,
      "velocity": 100
    },
    {
      "time": 22.0,
      "note": 75,
      "duration": 0.5,
      "velocity": 100
    },
    {
      "time": 22.5,
      "note": 84,
      "duration": 0.5,
      "velocity": 100
    },
    {
      "time": 22.5,
      "note": 75,
      "duration": 0.5,
      "velocity": 100
    },
    {
      "time": 23.0,
      "note": 86,
      "duration": 0.5,
      "velocity": 100
    },
    {
      "time": 21.0,
      "note": 75,
      "duration": 0.5,
      "velocity": 100
    },
    {
      "time": 21.5,
      "note": 85,
      "duration": 0.5,
      "velocity": 100
    },
    {
      "time": 21.5,
      "note": 84,
      "duration": 0.5,
      "velocity": 100
    },
    {
      "time": 22.0,
      "note": 75,
      "duration": 0.5,
      "velocity": 100
    },
    {
      "time": 22.5,
      "note": 84,
      "duration": 0.5,
      "velocity": 100
    },
    {
      "time": 22.5,
      "note": 84,
      "duration": 0.25,
      "velocity": 100
    },
    {
      "time": 22.75,
      "note": 84,
      "duration": 0.25,
      "velocity": 100
    },
    {
      "time": 23.0,
      "note": 84,
      "duration": 0.25,
      "velocity": 100
    },
    {
      "time": 23.25,
      "note": 84,
      "duration": 0.25,
      "velocity": 100
    },
    {
      "time": 23.5,
      "note": 86,
      "duration": 0.5,
      "velocity": 100
    },
    {
      "time": 24.5,
      "note": 82,
      "duration": 0.25,
      "velocity": 100
    },
    {
      "time": 24.75,
      "note": 82,
      "duration": 0.25,
      "velocity": 100
    },
    {
      "time": 25.0,
      "note": 81,
      "duration": 0.25,
      "velocity": 100
    },
    {
      "time": 25.25,
      "note": 82,
      "duration": 0.25,
      "velocity": 100
    },
    {
      "time": 25.5,
      "note": 81,
      "duration": 0.5,
      "velocity": 100
    },
    {
      "time": 26.5,
      "note": 81,
      "duration": 0.25,
      "velocity": 100
    },
    {
      "time": 26.75,
      "note": 81,
      "duration": 0.25,
      "velocity": 100
    },
    {
      "time": 27.0,
      "note": 81,
      "duration": 0.25,
      "velocity": 100
    },
    {
      "time": 27.25,
      "note": 81,
      "duration": 0.25,
      "velocity": 100
    },
    {
      "time": 27.5,
      "note": 79,
      "duration": 0.25,
      "velocity": 100
    },
    {
      "time": 27.75,
      "note": 82,
      "duration": 0.25,
      "velocity": 100
    },
    {
      "time": 28.0,
      "note": 82,
      "duration": 0.25,
      "velocity": 100
    },
    {
      "time": 28.25,
      "note": 82,
      "duration": 0.25,
      "velocity": 100
    },
    {
      "time": 28.5,
      "note": 82,
      "duration": 0.5,
      "velocity": 100
    },
    {
      "time": 29.0,
      "note": 81,
      "duration": 0.25,
      "velocity": 100
    },
    {
      "time": 29.25,
      "note": 79,
      "duration": 0.25,
      "velocity": 100
    },
    {
      "time": 29.75,
      "note": 81,
      "duration": 0.5,
      "velocity": 100
    },
    {
      "time": 30.75,
      "note": 84,
      "duration": 0.25,
      "velocity": 100
    },
    {
      "time": 31.0,
      "note": 84,
      "duration": 0.25,
      "velocity": 100
    },
    {
      "time": 31.25,
      "note": 84,
      "duration": 0.25,
      "velocity": 100
    },
    {
      "time": 31.5,
      "note": 86,
      "duration": 0.25,
      "velocity": 100
    },
    {
      "time": 31.75,
      "note": 86,
      "duration": 0.25,
      "velocity": 100
    },
    {
      "time": 32.0,
      "note": 84,
      "duration": 0.25,
      "velocity": 100
    },
    {
      "time": 32.25,
      "note": 86,
      "duration": 0.25,
      "velocity": 100
    },
    {
      "time": 32.5,
      "note": 84,
      "duration": 0.25,
      "velocity": 100
    },
    {
      "time": 32.75,
      "note": 86,
      "duration": 0.5,
      "velocity": 100
    },
    {
      "time": 33.25,
      "note": 84,
      "duration": 0.25,
      "velocity": 100
    },
    {
      "time": 33.5,
      "note": 86,
      "duration": 0.25,
      "velocity": 100
    },
    {
      "time": 33.75,
      "note": 75,
      "duration": 0.5,
      "velocity": 100
    },
    {
      "time": 34.25,
      "note": 86,
      "duration": 0.5,
      "velocity": 100
    },
    {
      "time": 34.25,
      "note": 84,
      "duration": 0.75,
      "velocity": 100
    },
    {
      "time": 35.0,
      "note": 84,
      "duration": 1.0,
      "velocity": 100
    },
    {
      "time": 37.0,
      "note": 84,
      "duration": 0.25,
      "velocity": 100
    },
    {
      "time": 37.25,
      "note": 84,
      "duration": 0.25,
      "velocity": 100
    },
    {
      "time": 37.5,
      "note": 84,
      "duration": 0.5,
      "velocity": 100
    },
    {
      "time": 36.0,
      "note": 87,
      "duration": 0.25,
      "velocity": 100
    },
    {
      "time": 36.25,
      "note": 86,
      "duration": 0.25,
      "velocity": 100
    },
    {
      "time": 36.5,
      "note": 84,
      "duration": 0.25,
      "velocity": 100
    },
    {
      "time": 36.75,
      "note": 87,
      "duration": 0.25,
      "velocity": 100
    },
    {
      "time": 37.0,
      "note": 86,
      "duration": 0.5,
      "velocity": 100
    },
    {
      "time": 38.5,
      "note": 82,
      "duration": 0.25,
      "velocity": 100
    },
    {
      "time": 38.75,
      "note": 82,
      "duration": 0.25,
      "velocity": 100
    },
    {
      "time": 39.0,
      "note": 84,
      "duration": 0.25,
      "velocity": 100
    },
    {
      "time": 39.25,
      "note": 86,
      "duration": 0.5,
      "velocity": 100
    },
    {
      "time": 39.75,
      "note": 87,
      "duration": 0.25,
      "velocity": 100
    },
    {
      "time": 40.0,
      "note": 82,
      "duration": 0.25,
      "velocity": 100
    },
    {
      "time": 39.0,
      "note": 74,
      "duration": 0.5,
      "velocity": 100
    },
    {
      "time": 39.5,
      "note": 82,
      "duration": 0.5,
      "velocity": 100
    },
    {
      "time": 39.5,
      "note": 84,
      "duration": 0.75,
      "velocity": 100
    },
    {
      "time": 41.5,
      "note": 81,
      "duration": 0.25,
      "velocity": 100
    },
    {
      "time": 41.75,
      "note": 81,
      "duration": 0.25,
      "velocity": 100
    },
    {
      "time": 42.0,
      "note": 81,
      "duration": 0.25,
      "velocity": 100
    },
    {
      "time": 42.25,
      "note": 81,
      "duration": 0.5,
      "velocity": 100
    },
    {
      "time": 42.75,
      "note": 84,
      "duration": 0.25,
      "velocity": 100
    },
    {
      "time": 43.0,
      "note": 86,
      "duration": 0.25,
      "velocity": 100
    },
    {
      "time": 42.5,
      "note": 86,
      "duration": 0.25,
      "velocity": 100
    },
    {
      "time": 42.75,
      "note": 84,
      "duration": 0.25,
      "velocity": 100
    },
    {
      "time": 43.0,
      "note": 82,
      "duration": 0.25,
      "velocity": 100
    },
    {
      "time": 43.25,
      "note": 81,
      "duration": 0.25,
      "velocity": 100
    },
    {
      "time": 43.5,
      "note": 79,
      "duration": 0.5,
      "velocity": 100
    },
    {
      "time": 44.75,
      "note": 79,
      "duration": 0.25,
      "velocity": 100
    },
    {
      "time": 45.0,
      "note": 79,
      "duration": 0.25,
      "velocity": 100
    },
    {
      "time": 45.25,
      "note": 79,
      "duration": 0.25,
      "velocity": 100
    },
    {
      "time": 45.5,
      "note": 79,
      "duration": 0.25,
      "velocity": 100
    },
    {
      "time": 45.75,
      "note": 82,
      "duration": 0.5,
      "velocity": 100
    },
    {
      "time": 46.25,
      "note": 75,
      "duration": 0.5,
      "velocity": 100
    },
    {
      "time": 46.75,
      "note": 86,
      "duration": 0.5,
      "velocity": 100
    },
    {
      "time": 47.0,
      "note": 74,
      "duration": 0.5,
      "velocity": 100
    },
    {
      "time": 47.5,
      "note": 82,
      "duration": 0.5,
      "velocity": 100
    },
    {
      "time": 47.5,
      "note": 84,
      "duration": 0.75,
      "velocity": 100
    },
    {
      "time": 48.25,
      "note": 84,
      "duration": 1.0,
      "velocity": 100
    },
    {
      "time": 49.5,
      "note": 77,
      "duration": 0.25,
      "velocity": 100
    },
    {
      "time": 49.75,
      "note": 84,
      "duration": 0.25,
      "velocity": 100
    },
    {
      "time": 50.0,
      "note": 81,
      "duration": 0.25,
      "velocity": 100
    },
    {
      "time": 50.25,
      "note": 82,
      "duration": 0.25,
      "velocity": 100
    },
    {
      "time": 50.5,
      "note": 81,
      "duration": 0.25,
      "velocity": 100
    },
    {
      "time": 50.75,
      "note": 79,
      "duration": 0.25,
      "velocity": 100
    },
    {
      "time": 51.0,
      "note": 77,
      "duration": 0.25,
      "velocity": 100
    },
    {
      "time": 51.25,
      "note": 77,
      "duration": 1.0,
      "velocity": 100
    }
  ],
  "chords": [
    {
      "time": 0.0,
      "notes": [
        65,
        68,
        72
      ],
      "duration": 1.9722222222222223
    },
    {
      "time": 1.9722222222222223,
      "notes": [
        61,
        65,
        68
      ],
      "duration": 1.9722222222222223
    },
    {
      "time": 3.9444444444444446,
      "notes": [
        60,
        64,
        67,
        70
      ],
      "duration": 1.9722222222222223
    },
    {
      "time": 5.916666666666667,
      "notes": [
        65,
        68,
        72
      ],
      "duration": 1.9722222222222223
    },
    {
      "time": 7.888888888888889,
      "notes": [
        61,
        65,
        68
      ],
      "duration": 1.9722222222222223
    },
    {
      "time": 9.86111111111111,
      "notes": [
        60,
        64,
        67,
        70
      ],
      "duration": 1.9722222222222223
    },
    {
      "time": 11.833333333333334,
      "notes": [
        65,
        68,
        72
      ],
      "duration": 1.9722222222222223
    },
    {
      "time": 13.805555555555557,
      "notes": [
        60,
        64,
        67,
        70
      ],
      "duration": 1.9722222222222223
    },
    {
      "time": 15.777777777777779,
      "notes": [
        65,
        68,
        72
      ],
      "duration": 1.9722222222222223
    },
    {
      "time": 17.75,
      "notes": [
        63,
        67,
        70,
        73
      ],
      "duration": 1.9722222222222223
    },
    {
      "time": 19.72222222222222,
      "notes": [
        68,
        72,
        75
      ],
      "duration": 1.9722222222222223
    },
    {
      "time": 21.694444444444446,
      "notes": [
        70,
        73,
        77
      ],
      "duration": 1.9722222222222223
    },
    {
      "time": 23.666666666666668,
      "notes": [
        68,
        72,
        75
      ],
      "duration": 1.9722222222222223
    },
    {
      "time": 25.63888888888889,
      "notes": [
        60,
        64,
        67,
        70
      ],
      "duration": 1.9722222222222223
    },
    {
      "time": 27.611111111111114,
      "notes": [
        68,
        72,
        75
      ],
      "duration": 1.9722222222222223
    },
    {
      "time": 29.583333333333336,
      "notes": [
        61,
        65,
        68
      ],
      "duration": 1.9722222222222223
    },
    {
      "time": 31.555555555555557,
      "notes": [
        60,
        64,
        67,
        70
      ],
      "duration": 1.9722222222222223
    },
    {
      "time": 33.52777777777778,
      "notes": [
        65,
        69,
        72,
        75
      ],
      "duration": 1.9722222222222223
    },
    {
      "time": 35.5,
      "notes": [
        70,
        73,
        77
      ],
      "duration": 1.9722222222222223
    },
    {
      "time": 37.47222222222222,
      "notes": [
        63,
        67,
        70,
        73
      ],
      "duration": 1.9722222222222223
    },
    {
      "time": 39.44444444444444,
      "notes": [
        68,
        72,
        75
      ],
      "duration": 1.9722222222222223
    },
    {
      "time": 41.41666666666667,
      "notes": [
        61,
        65,
        68
      ],
      "duration": 1.9722222222222223
    },
    {
      "time": 43.38888888888889,
      "notes": [
        70,
        73,
        77
      ],
      "duration": 1.9722222222222223
    },
    {
      "time": 45.361111111111114,
      "notes": [
        60,
        64,
        67,
        70
      ],
      "duration": 1.9722222222222223
    },
    {
      "time": 47.333333333333336,
      "notes": [
        65,
        68,
        72
      ],
      "duration": 1.9722222222222223
    },
    {
      "time": 49.30555555555556,
      "notes": [
        60,
        64,
        67,
        70
      ],
      "duration": 1.9722222222222223
    },
    {
      "time": 51.27777777777778,
      "notes": [
        61,
        65,
        68
      ],
      "duration": 1.9722222222222223
    }
  ]
}