{
  "title": "Quiero confesarte",
  "artist": "Amar Azul",
  "bpm": 120,
  "duration": 35.375,
  "audioFile": "",
  "notes": [
    {
      "time": 0.0,
      "note": 89,
      "duration": 0.25,
      "velocity": 100
    },
    {
      "time": 0.25,
      "note": 93,
      "duration": 0.25,
      "velocity": 100
    },
    {
      "time": 0.25,
      "note": 89,
      "duration": 0.125,
      "velocity": 100
    },
    {
      "time": 0.375,
      "note": 93,
      "duration": 0.125,
      "velocity": 100
    },
    {
      "time": 0.375,
      "note": 81,
      "duration": 0.125,
      "velocity": 100
    },
    {
      "time": 0.5,
      "note": 86,
      "duration": 0.125,
      "velocity": 100
    },
    {
      "time": 0.5,
      "note": 86,
      "duration": 0.125,
      "velocity": 100
    },
    {
      "time": 0.625,
      "note": 89,
      "duration": 0.125,
      "velocity": 100
    },
    {
      "time": 0.625,
      "note": 89,
      "duration": 0.25,
      "velocity": 100
    },
    {
      "time": 0.875,
      "note": 93,
      "duration": 0.25,
      "velocity": 100
    },
    {
      "time": 0.875,
      "note": 93,
      "duration": 0.125,
      "velocity": 100
    },
    {
      "time": 1.0,
      "note": 96,
      "duration": 0.125,
      "velocity": 100
    },
    {
      "time": 1.125,
      "note": 93,
      "duration": 0.25,
      "velocity": 100
    },
    {
      "time": 1.375,
      "note": 96,
      "duration": 0.25,
      "velocity": 100
    },
    {
      "time": 1.375,
      "note": 93,
      "duration": 0.125,
      "velocity": 100
    },
    {
      "time": 1.5,
      "note": 96,
      "duration": 0.125,
      "velocity": 100
    },
    {
      "time": 1.5,
      "note": 93,
      "duration": 1.0,
      "velocity": 100
    },
    {
      "time": 1.0,
      "note": 89,
      "duration": 0.25,
      "velocity": 100
    },
    {
      "time": 1.25,
      "note": 93,
      "duration": 0.25,
      "velocity": 100
    },
    {
      "time": 1.25,
      "note": 89,
      "duration": 0.125,
      "velocity": 100
    },
    {
      "time": 1.375,
      "note": 93,
      "duration": 0.125,
      "velocity": 100
    },
    {
      "time": 1.375,
      "note": 81,
      "duration": 0.125,
      "velocity": 100
    },
    {
      "time": 1.5,
      "note": 86,
      "duration": 0.125,
      "velocity": 100
    },
    {
      "time": 1.5,
      "note": 86,
      "duration": 0.125,
      "velocity": 100
    },
    {
      "time": 1.625,
      "note": 89,
      "duration": 0.125,
      "velocity": 100
    },
    {
      "time": 1.625,
      "note": 89,
      "duration": 0.25,
      "velocity": 100
    },
    {
      "time": 1.875,
      "note": 93,
      "duration": 0.25,
      "velocity": 100
    },
    {
      "time": 1.875,
      "note": 93,
      "duration": 0.125,
      "velocity": 100
    },
    {
      "time": 2.0,
      "note": 96,
      "duration": 0.125,
      "velocity": 100
    },
    {
      "time": 2.125,
      "note": 93,
      "duration": 0.25,
      "velocity": 100
    },
    {
      "time": 2.375,
      "note": 96,
      "duration": 0.25,
      "velocity": 100
    },
    {
      "time": 2.375,
      "note": 93,
      "duration": 0.125,
      "velocity": 100
    },
    {
      "time": 2.5,
      "note": 96,
      "duration": 0.125,
      "velocity": 100
    },
    {
      "time": 2.5,
      "note": 93,
      "duration": 1.0,
      "velocity": 100
    },
    {
      "time": 2.0,
      "note": 88,
      "duration": 0.25,
      "velocity": 100
    },
    {
      "time": 2.25,
      "note": 91,
      "duration": 0.25,
      "velocity": 100
    },
    {
      "time": 2.25,
      "note": 88,
      "duration": 0.125,
      "velocity": 100
    },
    {
      "time": 2.375,
      "note": 91,
      "duration": 0.125,
      "velocity": 100
    },
    {
      "time": 2.375,
      "note": 79,
      "duration": 0.125,
      "velocity": 100
    },
    {
      "time": 2.5,
      "note": 84,
      "duration": 0.125,
      "velocity": 100
    },
    {
      "time": 2.5,
      "note": 84,
      "duration": 0.125,
      "velocity": 100
    },
    {
      "time": 2.625,
      "note": 88,
      "duration": 0.125,
      "velocity": 100
    },
    {
      "time": 2.625,
      "note": 88,
      "duration": 0.25,
      "velocity": 100
    },
    {
      "time": 2.875,
      "note": 91,
      "duration": 0.25,
      "velocity": 100
    },
    {
      "time": 2.875,
      "note": 91,
      "duration": 0.125,
      "velocity": 100
    },
    {
      "time": 3.0,
      "note": 94,
      "duration": 0.125,
      "velocity": 100
    },
    {
      "time": 3.125,
      "note": 91,
      "duration": 0.25,
      "velocity": 100
    },
    {
      "time": 3.375,
      "note": 94,
      "duration": 0.25,
      "velocity": 100
    },
    {
      "time": 3.375,
      "note": 91,
      "duration": 0.125,
      "velocity": 100
    },
    {
      "time": 3.5,
      "note": 94,
      "duration": 0.125,
      "velocity": 100
    },
    {
      "time": 3.5,
      "note": 91,
      "duration": 1.0,
      "velocity": 100
    },
    {
      "time": 3.0,
      "note": 88,
      "duration": 0.25,
      "velocity": 100
    },
    {
      "time": 3.25,
      "note": 91,
      "duration": 0.25,
      "velocity": 100
    },
    {
      "time": 3.25,
      "note": 88,
      "duration": 0.125,
      "velocity": 100
    },
    {
      "time": 3.375,
      "note": 91,
      "duration": 0.125,
      "velocity": 100
    },
    {
      "time": 3.375,
      "note": 79,
      "duration": 0.125,
      "velocity": 100
    },
    {
      "time": 3.5,
      "note": 84,
      "duration": 0.125,
      "velocity": 100
    },
    {
      "time": 3.5,
      "note": 84,
      "duration": 0.125,
      "velocity": 100
    },
    {
      "time": 3.625,
      "note": 88,
      "duration": 0.125,
      "velocity": 100
    },
    {
      "time": 3.625,
      "note": 88,
      "duration": 0.25,
      "velocity": 100
    },
    {
      "time": 3.875,
      "note": 91,
      "duration": 0.25,
      "velocity": 100
    },
    {
      "time": 3.875,
      "note": 91,
      "duration": 0.125,
      "velocity": 100
    },
    {
      "time": 4.0,
      "note": 96,
      "duration": 0.125,
      "velocity": 100
    },
    {
      "time": 4.0,
      "note": 82,
      "duration": 0.5,
      "velocity": 100
    },
    {
      "time": 4.5,
      "note": 91,
      "duration": 0.5,
      "velocity": 100
    },
    {
      "time": 4.5,
      "note": 96,
      "duration": 0.5,
      "velocity": 100
    },
    {
      "time": 4.875,
      "note": 77,
      "duration": 0.125,
      "velocity": 100
    },
    {
      "time": 5.0,
      "note": 81,
      "duration": 0.125,
      "velocity": 100
    },
    {
      "time": 5.0,
      "note": 77,
      "duration": 0.125,
      "velocity": 100
    },
    {
      "time": 5.125,
      "note": 81,
      "duration": 0.125,
      "velocity": 100
    },
    {
      "time": 5.125,
      "note": 77,
      "duration": 0.125,
      "velocity": 100
    },
    {
      "time": 5.25,
      "note": 81,
      "duration": 0.125,
      "velocity": 100
    },
    {
      "time": 5.25,
      "note": 81,
      "duration": 0.125,
      "velocity": 100
    },
    {
      "time": 5.375,
      "note": 86,
      "duration": 0.125,
      "velocity": 100
    },
    {
      "time": 5.5,
      "note": 81,
      "duration": 0.125,
      "velocity": 100
    },
    {
      "time": 5.625,
      "note": 86,
      "duration": 0.125,
      "velocity": 100
    },
    {
      "time": 5.625,
      "note": 77,
      "duration": 0.125,
      "velocity": 100
    },
    {
      "time": 5.75,
      "note": 81,
      "duration": 0.125,
      "velocity": 100
    },
    {
      "time": 5.875,
      "note": 77,
      "duration": 0.125,
      "velocity": 100
    },
    {
      "time": 6.0,
      "note": 81,
      "duration": 0.125,
      "velocity": 100
    },
    {
      "time": 6.0,
      "note": 81,
      "duration": 0.125,
      "velocity": 100
    },
    {
      "time": 6.125,
      "note": 86,
      "duration": 0.125,
      "velocity": 100
    },
    {
      "time": 6.125,
      "note": 81,
      "duration": 0.125,
      "velocity": 100
    },
    {
      "time": 6.25,
      "note": 86,
      "duration": 0.125,
      "velocity": 100
    },
    {
      "time": 6.25,
      "note": 79,
      "duration": 0.125,
      "velocity": 100
    },
    {
      "time": 6.375,
      "note": 84,
      "duration": 0.125,
      "velocity": 100
    },
    {
      "time": 6.5,
      "note": 79,
      "duration": 0.125,
      "velocity": 100
    },
    {
      "time": 6.625,
      "note": 84,
      "duration": 0.125,
      "velocity": 100
    },
    {
      "time": 6.625,
      "note": 76,
      "duration": 0.125,
      "velocity": 100
    },
    {
      "time": 6.75,
      "note": 79,
      "duration": 0.125,
      "velocity": 100
    },
    {
      "time": 6.875,
      "note": 76,
      "duration": 0.125,
      "velocity": 100
    },
    {
      "time": 7.0,
      "note": 79,
      "duration": 0.125,
      "velocity": 100
    },
    {
      "time": 7.0,
      "note": 79,
      "duration": 0.125,
      "velocity": 100
    },
    {
      "time": 7.125,
      "note": 84,
      "duration": 0.125,
      "velocity": 100
    },
    {
      "time": 7.125,
      "note": 79,
      "duration": 0.125,
      "velocity": 100
    },
    {
      "time": 7.25,
      "note": 84,
      "duration": 0.125,
      "velocity": 100
    },
    {
      "time": 7.375,
      "note": 79,
      "duration": 0.125,
      "velocity": 100
    },
    {
      "time": 7.5,
      "note": 84,
      "duration": 0.125,
      "velocity": 100
    },
    {
      "time": 7.5,
      "note": 88,
      "duration": 0.125,
      "velocity": 100
    },
    {
      "time": 7.625,
      "note": 79,
      "duration": 0.125,
      "velocity": 100
    },
    {
      "time": 7.75,
      "note": 84,
      "duration": 0.125,
      "velocity": 100
    },
    {
      "time": 7.75,
      "note": 88,
      "duration": 0.125,
      "velocity": 100
    },
    {
      "time": 7.75,
      "note": 79,
      "duration": 0.125,
      "velocity": 100
    },
    {
      "time": 7.875,
      "note": 84,
      "duration": 0.125,
      "velocity": 100
    },
    {
      "time": 7.875,
      "note": 88,
      "duration": 0.125,
      "velocity": 100
    },
    {
      "time": 7.875,
      "note": 79,
      "duration": 0.125,
      "velocity": 100
    },
    {
      "time": 8.0,
      "note": 84,
      "duration": 0.125,
      "velocity": 100
    },
    {
      "time": 8.0,
      "note": 88,
      "duration": 0.125,
      "velocity": 100
    },
    {
      "time": 8.0,
      "note": 81,
      "duration": 0.125,
      "velocity": 100
    },
    {
      "time": 8.125,
      "note": 86,
      "duration": 0.125,
      "velocity": 100
    },
    {
      "time": 8.125,
      "note": 89,
      "duration": 0.125,
      "velocity": 100
    },
    {
      "time": 8.125,
      "note": 79,
      "duration": 0.125,
      "velocity": 100
    },
    {
      "time": 8.25,
      "note": 84,
      "duration": 0.125,
      "velocity": 100
    },
    {
      "time": 8.25,
      "note": 88,
      "duration": 0.125,
      "velocity": 100
    },
    {
      "time": 8.25,
      "note": 77,
      "duration": 0.5,
      "velocity": 100
    },
    {
      "time": 8.75,
      "note": 81,
      "duration": 0.5,
      "velocity": 100
    },
    {
      "time": 8.75,
      "note": 86,
      "duration": 0.5,
      "velocity": 100
    },
    {
      "time": 8.875,
      "note": 77,
      "duration": 0.125,
      "velocity": 100
    },
    {
      "time": 9.0,
      "note": 81,
      "duration": 0.125,
      "velocity": 100
    },
    {
      "time": 9.0,
      "note": 77,
      "duration": 0.125,
      "velocity": 100
    },
    {
      "time": 9.125,
      "note": 81,
      "duration": 0.125,
      "velocity": 100
    },
    {
      "time": 9.125,
      "note": 77,
      "duration": 0.125,
      "velocity": 100
    },
    {
      "time": 9.25,
      "note": 81,
      "duration": 0.125,
      "velocity": 100
    },
    {
      "time": 9.25,
      "note": 77,
      "duration": 0.5,
      "velocity": 100
    },
    {
      "time": 9.75,
      "note": 81,
      "duration": 0.5,
      "velocity": 100
    },
    {
      "time": 9.75,
      "note": 86,
      "duration": 0.5,
      "velocity": 100
    },
    {
      "time": 9.875,
      "note": 81,
      "duration": 0.125,
      "velocity": 100
    },
    {
      "time": 10.0,
      "note": 86,
      "duration": 0.125,
      "velocity": 100
    },
    {
      "time": 10.0,
      "note": 81,
      "duration": 0.125,
      "velocity": 100
    },
    {
      "time": 10.125,
      "note": 86,
      "duration": 0.125,
      "velocity": 100
    },
    {
      "time": 10.125,
      "note": 81,
      "duration": 0.125,
      "velocity": 100
    },
    {
      "time": 10.25,
      "note": 86,
      "duration": 0.125,
      "velocity": 100
    },
    {
      "time": 10.25,
      "note": 86,
      "duration": 0.25,
      "velocity": 100
    },
    {
      "time": 10.5,
      "note": 89,
      "duration": 0.25,
      "velocity": 100
    },
    {
      "time": 10.5,
      "note": 86,
      "duration": 0.125,
      "velocity": 100
    },
    {
      "time": 10.625,
      "note": 89,
      "duration": 0.125,
      "velocity": 100
    },
    {
      "time": 10.625,
      "note": 81,
      "duration": 0.125,
      "velocity": 100
    },
    {
      "time": 10.75,
      "note": 86,
      "duration": 0.125,
      "velocity": 100
    },
    {
      "time": 10.875,
      "note": 81,
      "duration": 0.125,
      "velocity": 100
    },
    {
      "time": 11.0,
      "note": 86,
      "duration": 0.125,
      "velocity": 100
    },
    {
      "time": 11.0,
      "note": 86,
      "duration": 0.125,
      "velocity": 100
    },
    {
      "time": 11.125,
      "note": 89,
      "duration": 0.125,
      "velocity": 100
    },
    {
      "time": 11.125,
      "note": 86,
      "duration": 0.125,
      "velocity": 100
    },
    {
      "time": 11.25,
      "note": 89,
      "duration": 0.125,
      "velocity": 100
    },
    {
      "time": 11.25,
      "note": 84,
      "duration": 0.25,
      "velocity": 100
    },
    {
      "time": 11.5,
      "note": 88,
      "duration": 0.25,
      "velocity": 100
    },
    {
      "time": 11.5,
      "note": 84,
      "duration": 0.125,
      "velocity": 100
    },
    {
      "time": 11.625,
      "note": 88,
      "duration": 0.125,
      "velocity": 100
    },
    {
      "time": 11.625,
      "note": 79,
      "duration": 0.125,
      "velocity": 100
    },
    {
      "time": 11.75,
      "note": 84,
      "duration": 0.125,
      "velocity": 100
    },
    {
      "time": 11.75,
      "note": 88,
      "duration": 0.125,
      "velocity": 100
    },
    {
      "time": 11.75,
      "note": 79,
      "duration": 0.5,
      "velocity": 100
    },
    {
      "time": 12.25,
      "note": 84,
      "duration": 0.5,
      "velocity": 100
    },
    {
      "time": 12.25,
      "note": 88,
      "duration": 0.5,
      "velocity": 100
    },
    {
      "time": 12.25,
      "note": 88,
      "duration": 0.25,
      "velocity": 100
    },
    {
      "time": 12.5,
      "note": 91,
      "duration": 0.25,
      "velocity": 100
    },
    {
      "time": 12.5,
      "note": 88,
      "duration": 0.125,
      "velocity": 100
    },
    {
      "time": 12.625,
      "note": 91,
      "duration": 0.125,
      "velocity": 100
    },
    {
      "time": 12.625,
      "note": 88,
      "duration": 0.125,
      "velocity": 100
    },
    {
      "time": 12.75,
      "note": 91,
      "duration": 0.125,
      "velocity": 100
    },
    {
      "time": 12.875,
      "note": 76,
      "duration": 0.5,
      "velocity": 100
    },
    {
      "time": 13.375,
      "note": 86,
      "duration": 0.5,
      "velocity": 100
    },
    {
      "time": 13.375,
      "note": 89,
      "duration": 0.5,
      "velocity": 100
    },
    {
      "time": 12.25,
      "note": 77,
      "duration": 0.5,
      "velocity": 100
    },
    {
      "time": 12.75,
      "note": 81,
      "duration": 0.5,
      "velocity": 100
    },
    {
      "time": 12.75,
      "note": 86,
      "duration": 0.5,
      "velocity": 100
    },
    {
      "time": 12.875,
      "note": 81,
      "duration": 0.125,
      "velocity": 100
    },
    {
      "time": 13.0,
      "note": 86,
      "duration": 0.125,
      "velocity": 100
    },
    {
      "time": 13.0,
      "note": 81,
      "duration": 0.125,
      "velocity": 100
    },
    {
      "time": 13.125,
      "note": 86,
      "duration": 0.125,
      "velocity": 100
    },
    {
      "time": 13.125,
      "note": 81,
      "duration": 0.125,
      "velocity": 100
    },
    {
      "time": 13.25,
      "note": 86,
      "duration": 0.125,
      "velocity": 100
    },
    {
      "time": 13.25,
      "note": 77,
      "duration": 0.375,
      "velocity": 100
    },
    {
      "time": 13.625,
      "note": 81,
      "duration": 0.375,
      "velocity": 100
    },
    {
      "time": 13.625,
      "note": 86,
      "duration": 0.375,
      "velocity": 100
    },
    {
      "time": 13.625,
      "note": 93,
      "duration": 0.125,
      "velocity": 100
    },
    {
      "time": 13.75,
      "note": 91,
      "duration": 0.125,
      "velocity": 100
    },
    {
      "time": 13.875,
      "note": 93,
      "duration": 0.125,
      "velocity": 100
    },
    {
      "time": 14.0,
      "note": 91,
      "duration": 0.125,
      "velocity": 100
    },
    {
      "time": 14.125,
      "note": 89,
      "duration": 0.125,
      "velocity": 100
    },
    {
      "time": 14.25,
      "note": 86,
      "duration": 0.375,
      "velocity": 100
    },
    {
      "time": 14.625,
      "note": 89,
      "duration": 0.125,
      "velocity": 100
    },
    {
      "time": 14.75,
      "note": 93,
      "duration": 0.5,
      "velocity": 100
    },
    {
      "time": 15.25,
      "note": 86,
      "duration": 0.125,
      "velocity": 100
    },
    {
      "time": 15.375,
      "note": 86,
      "duration": 0.125,
      "velocity": 100
    },
    {
      "time": 15.5,
      "note": 86,
      "duration": 0.125,
      "velocity": 100
    },
    {
      "time": 15.625,
      "note": 86,
      "duration": 0.125,
      "velocity": 100
    },
    {
      "time": 15.75,
      "note": 86,
      "duration": 0.25,
      "velocity": 100
    },
    {
      "time": 16.0,
      "note": 81,
      "duration": 0.125,
      "velocity": 100
    },
    {
      "time": 16.125,
      "note": 84,
      "duration": 0.125,
      "velocity": 100
    },
    {
      "time": 16.25,
      "note": 84,
      "duration": 0.25,
      "velocity": 100
    },
    {
      "time": 16.5,
      "note": 84,
      "duration": 0.25,
      "velocity": 100
    },
    {
      "time": 16.75,
      "note": 82,
      "duration": 0.25,
      "velocity": 100
    },
    {
      "time": 17.0,
      "note": 79,
      "duration": 0.25,
      "velocity": 100
    },
    {
      "time": 17.25,
      "note": 82,
      "duration": 0.125,
      "velocity": 100
    },
    {
      "time": 17.375,
      "note": 82,
      "duration": 0.125,
      "velocity": 100
    },
    {
      "time": 17.5,
      "note": 82,
      "duration": 0.125,
      "velocity": 100
    },
    {
      "time": 17.625,
      "note": 82,
      "duration": 0.125,
      "velocity": 100
    },
    {
      "time": 17.75,
      "note": 81,
      "duration": 0.25,
      "velocity": 100
    },
    {
      "time": 18.0,
      "note": 79,
      "duration": 0.125,
      "velocity": 100
    },
    {
      "time": 18.125,
      "note": 81,
      "duration": 0.125,
      "velocity": 100
    },
    {
      "time": 18.625,
      "note": 91,
      "duration": 0.125,
      "velocity": 100
    },
    {
      "time": 18.75,
      "note": 91,
      "duration": 0.125,
      "velocity": 100
    },
    {
      "time": 18.875,
      "note": 89,
      "duration": 0.125,
      "velocity": 100
    },
    {
      "time": 18.25,
      "note": 81,
      "duration": 0.25,
      "velocity": 100
    },
    {
      "time": 18.5,
      "note": 81,
      "duration": 0.25,
      "velocity": 100
    },
    {
      "time": 18.625,
      "note": 79,
      "duration": 0.25,
      "velocity": 100
    },
    {
      "time": 18.875,
      "note": 77,
      "duration": 0.25,
      "velocity": 100
    },
    {
      "time": 19.125,
      "note": 86,
      "duration": 0.125,
      "velocity": 100
    },
    {
      "time": 19.25,
      "note": 86,
      "duration": 0.125,
      "velocity": 100
    },
    {
      "time": 19.375,
      "note": 86,
      "duration": 0.125,
      "velocity": 100
    },
    {
      "time": 19.5,
      "note": 86,
      "duration": 0.125,
      "velocity": 100
    },
    {
      "time": 19.625,
      "note": 86,
      "duration": 0.25,
      "velocity": 100
    },
    {
      "time": 19.875,
      "note": 81,
      "duration": 0.125,
      "velocity": 100
    },
    {
      "time": 20.0,
      "note": 84,
      "duration": 0.125,
      "velocity": 100
    },
    {
      "time": 20.125,
      "note": 84,
      "duration": 0.25,
      "velocity": 100
    },
    {
      "time": 20.375,
      "note": 84,
      "duration": 0.25,
      "velocity": 100
    },
    {
      "time": 20.625,
      "note": 82,
      "duration": 0.25,
      "velocity": 100
    },
    {
      "time": 20.875,
      "note": 79,
      "duration": 0.25,
      "velocity": 100
    },
    {
      "time": 21.125,
      "note": 82,
      "duration": 0.125,
      "velocity": 100
    },
    {
      "time": 21.25,
      "note": 82,
      "duration": 0.125,
      "velocity": 100
    },
    {
      "time": 21.375,
      "note": 82,
      "duration": 0.125,
      "velocity": 100
    },
    {
      "time": 21.5,
      "note": 82,
      "duration": 0.125,
      "velocity": 100
    },
    {
      "time": 21.625,
      "note": 81,
      "duration": 0.25,
      "velocity": 100
    },
    {
      "time": 21.875,
      "note": 79,
      "duration": 0.125,
      "velocity": 100
    },
    {
      "time": 22.0,
      "note": 81,
      "duration": 0.125,
      "velocity": 100
    },
    {
      "time": 22.125,
      "note": 81,
      "duration": 0.25,
      "velocity": 100
    },
    {
      "time": 22.375,
      "note": 81,
      "duration": 0.25,
      "velocity": 100
    },
    {
      "time": 22.75,
      "note": 93,
      "duration": 0.125,
      "velocity": 100
    },
    {
      "time": 22.875,
      "note": 91,
      "duration": 0.125,
      "velocity": 100
    },
    {
      "time": 23.0,
      "note": 89,
      "duration": 0.125,
      "velocity": 100
    },
    {
      "time": 22.625,
      "note": 79,
      "duration": 0.25,
      "velocity": 100
    },
    {
      "time": 22.875,
      "note": 77,
      "duration": 0.25,
      "velocity": 100
    },
    {
      "time": 23.625,
      "note": 77,
      "duration": 0.125,
      "velocity": 100
    },
    {
      "time": 23.75,
      "note": 81,
      "duration": 0.125,
      "velocity": 100
    },
    {
      "time": 23.875,
      "note": 79,
      "duration": 0.125,
      "velocity": 100
    },
    {
      "time": 24.0,
      "note": 77,
      "duration": 0.125,
      "velocity": 100
    },
    {
      "time": 24.125,
      "note": 76,
      "duration": 0.25,
      "velocity": 100
    },
    {
      "time": 24.375,
      "note": 79,
      "duration": 0.25,
      "velocity": 100
    },
    {
      "time": 24.625,
      "note": 79,
      "duration": 0.5,
      "velocity": 100
    },
    {
      "time": 25.125,
      "note": 79,
      "duration": 1.0,
      "velocity": 100
    },
    {
      "time": 26.125,
      "note": 84,
      "duration": 1.0,
      "velocity": 100
    },
    {
      "time": 26.125,
      "note": 79,
      "duration": 1.0,
      "velocity": 100
    },
    {
      "time": 27.125,
      "note": 88,
      "duration": 1.0,
      "velocity": 100
    },
    {
      "time": 27.625,
      "note": 79,
      "duration": 0.125,
      "velocity": 100
    },
    {
      "time": 27.75,
      "note": 79,
      "duration": 0.125,
      "velocity": 100
    },
    {
      "time": 27.875,
      "note": 86,
      "duration": 0.125,
      "velocity": 100
    },
    {
      "time": 28.0,
      "note": 86,
      "duration": 0.125,
      "velocity": 100
    },
    {
      "time": 28.125,
      "note": 84,
      "duration": 0.375,
      "velocity": 100
    },
    {
      "time": 28.5,
      "note": 82,
      "duration": 0.125,
      "velocity": 100
    },
    {
      "time": 28.625,
      "note": 82,
      "duration": 0.125,
      "velocity": 100
    },
    {
      "time": 28.75,
      "note": 81,
      "duration": 0.25,
      "velocity": 100
    },
    {
      "time": 29.0,
      "note": 82,
      "duration": 0.125,
      "velocity": 100
    },
    {
      "time": 29.25,
      "note": 91,
      "duration": 0.5,
      "velocity": 100
    },
    {
      "time": 29.75,
      "note": 88,
      "duration": 0.25,
      "velocity": 100
    },
    {
      "time": 30.0,
      "note": 91,
      "duration": 0.25,
      "velocity": 100
    },
    {
      "time": 30.0,
      "note": 81,
      "duration": 0.125,
      "velocity": 100
    },
    {
      "time": 30.125,
      "note": 81,
      "duration": 0.125,
      "velocity": 100
    },
    {
      "time": 30.25,
      "note": 86,
      "duration": 0.125,
      "velocity": 100
    },
    {
      "time": 30.375,
      "note": 86,
      "duration": 0.125,
      "velocity": 100
    },
    {
      "time": 29.125,
      "note": 84,
      "duration": 0.5,
      "velocity": 100
    },
    {
      "time": 29.625,
      "note": 84,
      "duration": 0.375,
      "velocity": 100
    },
    {
      "time": 30.0,
      "note": 82,
      "duration": 0.125,
      "velocity": 100
    },
    {
      "time": 30.125,
      "note": 82,
      "duration": 0.125,
      "velocity": 100
    },
    {
      "time": 30.25,
      "note": 81,
      "duration": 0.25,
      "velocity": 100
    },
    {
      "time": 30.5,
      "note": 82,
      "duration": 0.125,
      "velocity": 100
    },
    {
      "time": 30.75,
      "note": 86,
      "duration": 0.25,
      "velocity": 100
    },
    {
      "time": 31.0,
      "note": 89,
      "duration": 0.25,
      "velocity": 100
    },
    {
      "time": 31.0,
      "note": 88,
      "duration": 0.25,
      "velocity": 100
    },
    {
      "time": 31.25,
      "note": 91,
      "duration": 0.25,
      "velocity": 100
    },
    {
      "time": 30.625,
      "note": 84,
      "duration": 0.25,
      "velocity": 100
    },
    {
      "time": 30.875,
      "note": 84,
      "duration": 0.25,
      "velocity": 100
    },
    {
      "time": 31.125,
      "note": 79,
      "duration": 0.125,
      "velocity": 100
    },
    {
      "time": 31.25,
      "note": 79,
      "duration": 0.125,
      "velocity": 100
    },
    {
      "time": 31.375,
      "note": 86,
      "duration": 0.125,
      "velocity": 100
    },
    {
      "time": 31.5,
      "note": 86,
      "duration": 0.125,
      "velocity": 100
    },
    {
      "time": 31.125,
      "note": 91,
      "duration": 0.25,
      "velocity": 100
    },
    {
      "time": 31.375,
      "note": 88,
      "duration": 0.125,
      "velocity": 100
    },
    {
      "time": 31.5,
      "note": 91,
      "duration": 0.125,
      "velocity": 100
    },
    {
      "time": 31.5,
      "note": 86,
      "duration": 0.25,
      "velocity": 100
    },
    {
      "time": 31.75,
      "note": 89,
      "duration": 0.25,
      "velocity": 100
    },
    {
      "time": 32.0,
      "note": 84,
      "duration": 0.375,
      "velocity": 100
    },
    {
      "time": 32.375,
      "note": 82,
      "duration": 0.125,
      "velocity": 100
    },
    {
      "time": 32.5,
      "note": 82,
      "duration": 0.125,
      "velocity": 100
    },
    {
      "time": 32.625,
      "note": 81,
      "duration": 0.25,
      "velocity": 100
    },
    {
      "time": 32.875,
      "note": 82,
      "duration": 0.125,
      "velocity": 100
    },
    {
      "time": 33.125,
      "note": 91,
      "duration": 0.5,
      "velocity": 100
    },
    {
      "time": 33.625,
      "note": 88,
      "duration": 0.25,
      "velocity": 100
    },
    {
      "time": 33.875,
      "note": 91,
      "duration": 0.25,
      "velocity": 100
    },
    {
      "time": 33.875,
      "note": 81,
      "duration": 0.125,
      "velocity": 100
    },
    {
      "time": 34.0,
      "note": 81,
      "duration": 0.125,
      "velocity": 100
    },
    {
      "time": 34.125,
      "note": 86,
      "duration": 0.125,
      "velocity": 100
    },
    {
      "time": 34.25,
      "note": 86,
      "duration": 0.125,
      "velocity": 100
    },
    {
      "time": 33.0,
      "note": 84,
      "duration": 0.5,
      "velocity": 100
    },
    {
      "time": 33.5,
      "note": 84,
      "duration": 0.375,
      "velocity": 100
    },
    {
      "time": 33.875,
      "note": 82,
      "duration": 0.125,
      "velocity": 100
    },
    {
      "time": 34.0,
      "note": 82,
      "duration": 0.125,
      "velocity": 100
    },
    {
      "time": 34.125,
      "note": 82,
      "duration": 0.25,
      "velocity": 100
    },
    {
      "time": 34.375,
      "note": 84,
      "duration": 0.125,
      "velocity": 100
    },
    {
      "time": 34.625,
      "note": 86,
      "duration": 0.25,
      "velocity": 100
    },
    {
      "time": 34.875,
      "note": 89,
      "duration": 0.25,
      "velocity": 100
    },
    {
      "time": 34.875,
      "note": 93,
      "duration": 0.25,
      "velocity": 100
    },
    {
      "time": 35.0,
      "note": 86,
      "duration": 0.25,
      "velocity": 100
    },
    {
      "time": 35.25,
      "note": 93,
      "duration": 0.25,
      "velocity": 100
    },
    {
      "time": 34.5,
      "note": 86,
      "duration": 0.25,
      "velocity": 100
    },
    {
      "time": 34.75,
      "note": 86,
      "duration": 0.25,
      "velocity": 100
    },
    {
      "time": 34.875,
      "note": 79,
      "duration": 0.125,
      "velocity": 100
    },
    {
      "time": 35.0,
      "note": 79,
      "duration": 0.125,
      "velocity": 100
    },
    {
      "time": 35.125,
      "note": 86,
      "duration": 0.125,
      "velocity": 100
    },
    {
      "time": 35.25,
      "note": 86,
      "duration": 0.125,
      "velocity": 100
    }
  ],
  "chords": [
    {
      "time": 0.0,
      "notes": [
        62,
        65,
        69
      ],
      "duration": 1.6079545454545454
    },
    {
      "time": 1.6079545454545454,
      "notes": [
        62,
        65,
        69
      ],
      "duration": 1.6079545454545454
    },
    {
      "time": 3.215909090909091,
      "notes": [
        60,
        64,
        67
      ],
      "duration": 1.6079545454545454
    },
    {
      "time": 4.823863636363637,
      "notes": [
        62,
        65,
        69
      ],
      "duration": 1.6079545454545454
    },
    {
      "time": 6.431818181818182,
      "notes": [
        62,
        65,
        69
      ],
      "duration": 1.6079545454545454
    },
    {
      "time": 8.039772727272727,
      "notes": [
        60,
        64,
        67
      ],
      "duration": 1.6079545454545454
    },
    {
      "time": 9.647727272727273,
      "notes": [
        62,
        65,
        69
      ],
      "duration": 1.6079545454545454
    },
    {
      "time": 11.255681818181818,
      "notes": [
        62,
        65,
        69
      ],
      "duration": 1.6079545454545454
    },
    {
      "time": 12.863636363636363,
      "notes": [
        60,
        64,
        67
      ],
      "duration": 1.6079545454545454
    },
    {
      "time": 14.471590909090908,
      "notes": [
        67,
        70,
        74
      ],
      "duration": 1.6079545454545454
    },
    {
      "time": 16.079545454545453,
      "notes": [
        62,
        65,
        69
      ],
      "duration": 1.6079545454545454
    },
    {
      "time": 17.6875,
      "notes": [
        60,
        64,
        67
      ],
      "duration": 1.6079545454545454
    },
    {
      "time": 19.295454545454547,
      "notes": [
        67,
        71,
        74
      ],
      "duration": 1.6079545454545454
    },
    {
      "time": 20.90340909090909,
      "notes": [
        62,
        65,
        69
      ],
      "duration": 1.6079545454545454
    },
    {
      "time": 22.511363636363637,
      "notes": [
        60,
        64,
        67
      ],
      "duration": 1.6079545454545454
    },
    {
      "time": 24.11931818181818,
      "notes": [
        62,
        65,
        69
      ],
      "duration": 1.6079545454545454
    },
    {
      "time": 25.727272727272727,
      "notes": [
        60,
        64,
        67
      ],
      "duration": 1.6079545454545454
    },
    {
      "time": 27.335227272727273,
      "notes": [
        62,
        65,
        69
      ],
      "duration": 1.6079545454545454
    },
    {
      "time": 28.943181818181817,
      "notes": [
        60,
        64,
        67
      ],
      "duration": 1.6079545454545454
    },
    {
      "time": 30.551136363636363,
      "notes": [
        62,
        65,
        69
      ],
      "duration": 1.6079545454545454
    },
    {
      "time": 32.15909090909091,
      "notes": [
        60,
        64,
        67
      ],
      "duration": 1.6079545454545454
    },
    {
      "time": 33.76704545454545,
      "notes": [
        62,
        65,
        69
      ],
      "duration": 1.6079545454545454
    }
  ]
}