{
  "title": "Quien se ha tomado todo el vino",
  "artist": "La Mona Jimenez",
  "bpm": 120,
  "duration": 37.75,
  "audioFile": "",
  "notes": [
    {
      "time": 0.25,
      "note": 81,
      "duration": 0.25,
      "velocity": 100
    },
    {
      "time": 0.5,
      "note": 84,
      "duration": 0.25,
      "velocity": 100
    },
    {
      "time": 0.75,
      "note": 88,
      "duration": 0.25,
      "velocity": 100
    },
    {
      "time": 1.25,
      "note": 81,
      "duration": 0.25,
      "velocity": 100
    },
    {
      "time": 1.5,
      "note": 84,
      "duration": 0.25,
      "velocity": 100
    },
    {
      "time": 1.75,
      "note": 88,
      "duration": 0.25,
      "velocity": 100
    },
    {
      "time": 2.25,
      "note": 81,
      "duration": 0.25,
      "velocity": 100
    },
    {
      "time": 2.5,
      "note": 84,
      "duration": 0.25,
      "velocity": 100
    },
    {
      "time": 2.75,
      "note": 88,
      "duration": 0.25,
      "velocity": 100
    },
    {
      "time": 3.0,
      "note": 86,
      "duration": 0.25,
      "velocity": 100
    },
    {
      "time": 3.25,
      "note": 84,
      "duration": 0.25,
      "velocity": 100
    },
    {
      "time": 3.5,
      "note": 83,
      "duration": 0.25,
      "velocity": 100
    },
    {
      "time": 3.75,
      "note": 81,
      "duration": 0.25,
      "velocity": 100
    },
    {
      "time": 4.0,
      "note": 79,
      "duration": 0.25,
      "velocity": 100
    },
    {
      "time": 4.25,
      "note": 79,
      "duration": 0.25,
      "velocity": 100
    },
    {
      "time": 4.5,
      "note": 83,
      "duration": 0.25,
      "velocity": 100
    },
    {
      "time": 4.75,
      "note": 86,
      "duration": 0.25,
      "velocity": 100
    },
    {
      "time": 5.25,
      "note": 79,
      "duration": 0.25,
      "velocity": 100
    },
    {
      "time": 5.5,
      "note": 83,
      "duration": 0.25,
      "velocity": 100
    },
    {
      "time": 5.75,
      "note": 86,
      "duration": 0.25,
      "velocity": 100
    },
    {
      "time": 6.25,
      "note": 79,
      "duration": 0.25,
      "velocity": 100
    },
    {
      "time": 6.5,
      "note": 83,
      "duration": 0.25,
      "velocity": 100
    },
    {
      "time": 6.75,
      "note": 86,
      "duration": 0.25,
      "velocity": 100
    },
    {
      "time": 7.0,
      "note": 76,
      "duration": 0.5,
      "velocity": 100
    },
    {
      "time": 7.5,
      "note": 84,
      "duration": 0.5,
      "velocity": 100
    },
    {
      "time": 7.5,
      "note": 83,
      "duration": 0.5,
      "velocity": 100
    },
    {
      "time": 6.25,
      "note": 81,
      "duration": 0.25,
      "velocity": 100
    },
    {
      "time": 6.5,
      "note": 81,
      "duration": 0.25,
      "velocity": 100
    },
    {
      "time": 6.75,
      "note": 79,
      "duration": 0.25,
      "velocity": 100
    },
    {
      "time": 7.0,
      "note": 81,
      "duration": 0.25,
      "velocity": 100
    },
    {
      "time": 7.25,
      "note": 81,
      "duration": 0.25,
      "velocity": 100
    },
    {
      "time": 7.75,
      "note": 79,
      "duration": 0.25,
      "velocity": 100
    },
    {
      "time": 8.0,
      "note": 81,
      "duration": 0.25,
      "velocity": 100
    },
    {
      "time": 8.25,
      "note": 81,
      "duration": 0.25,
      "velocity": 100
    },
    {
      "time": 8.5,
      "note": 79,
      "duration": 0.25,
      "velocity": 100
    },
    {
      "time": 8.75,
      "note": 81,
      "duration": 0.25,
      "velocity": 100
    },
    {
      "time": 9.0,
      "note": 81,
      "duration": 0.5,
      "velocity": 100
    },
    {
      "time": 9.25,
      "note": 69,
      "duration": 0.125,
      "velocity": 100
    },
    {
      "time": 9.375,
      "note": 72,
      "duration": 0.125,
      "velocity": 100
    },
    {
      "time": 9.5,
      "note": 76,
      "duration": 0.25,
      "velocity": 100
    },
    {
      "time": 9.75,
      "note": 76,
      "duration": 0.125,
      "velocity": 100
    },
    {
      "time": 9.875,
      "note": 72,
      "duration": 0.125,
      "velocity": 100
    },
    {
      "time": 10.25,
      "note": 81,
      "duration": 0.25,
      "velocity": 100
    },
    {
      "time": 10.5,
      "note": 81,
      "duration": 0.25,
      "velocity": 100
    },
    {
      "time": 10.75,
      "note": 79,
      "duration": 0.25,
      "velocity": 100
    },
    {
      "time": 11.0,
      "note": 81,
      "duration": 0.25,
      "velocity": 100
    },
    {
      "time": 11.25,
      "note": 81,
      "duration": 0.25,
      "velocity": 100
    },
    {
      "time": 11.75,
      "note": 79,
      "duration": 0.25,
      "velocity": 100
    },
    {
      "time": 12.0,
      "note": 81,
      "duration": 0.25,
      "velocity": 100
    },
    {
      "time": 12.25,
      "note": 81,
      "duration": 0.25,
      "velocity": 100
    },
    {
      "time": 12.5,
      "note": 84,
      "duration": 0.25,
      "velocity": 100
    },
    {
      "time": 12.75,
      "note": 81,
      "duration": 0.25,
      "velocity": 100
    },
    {
      "time": 13.0,
      "note": 81,
      "duration": 1.0,
      "velocity": 100
    },
    {
      "time": 13.25,
      "note": 69,
      "duration": 0.25,
      "velocity": 100
    },
    {
      "time": 13.5,
      "note": 72,
      "duration": 0.25,
      "velocity": 100
    },
    {
      "time": 13.75,
      "note": 76,
      "duration": 0.25,
      "velocity": 100
    },
    {
      "time": 14.25,
      "note": 86,
      "duration": 0.25,
      "velocity": 100
    },
    {
      "time": 14.5,
      "note": 86,
      "duration": 0.25,
      "velocity": 100
    },
    {
      "time": 14.75,
      "note": 84,
      "duration": 0.25,
      "velocity": 100
    },
    {
      "time": 15.0,
      "note": 86,
      "duration": 0.25,
      "velocity": 100
    },
    {
      "time": 15.25,
      "note": 86,
      "duration": 0.25,
      "velocity": 100
    },
    {
      "time": 15.75,
      "note": 84,
      "duration": 0.25,
      "velocity": 100
    },
    {
      "time": 14.0,
      "note": 74,
      "duration": 1.0,
      "velocity": 100
    },
    {
      "time": 15.0,
      "note": 77,
      "duration": 1.0,
      "velocity": 100
    },
    {
      "time": 15.0,
      "note": 86,
      "duration": 0.25,
      "velocity": 100
    },
    {
      "time": 15.25,
      "note": 86,
      "duration": 0.25,
      "velocity": 100
    },
    {
      "time": 15.5,
      "note": 84,
      "duration": 0.25,
      "velocity": 100
    },
    {
      "time": 15.75,
      "note": 88,
      "duration": 0.25,
      "velocity": 100
    },
    {
      "time": 16.0,
      "note": 79,
      "duration": 0.5,
      "velocity": 100
    },
    {
      "time": 16.5,
      "note": 88,
      "duration": 0.5,
      "velocity": 100
    },
    {
      "time": 16.5,
      "note": 86,
      "duration": 0.75,
      "velocity": 100
    },
    {
      "time": 17.5,
      "note": 81,
      "duration": 0.25,
      "velocity": 100
    },
    {
      "time": 17.75,
      "note": 81,
      "duration": 0.25,
      "velocity": 100
    },
    {
      "time": 18.0,
      "note": 79,
      "duration": 0.25,
      "velocity": 100
    },
    {
      "time": 18.25,
      "note": 81,
      "duration": 0.25,
      "velocity": 100
    },
    {
      "time": 18.5,
      "note": 81,
      "duration": 0.25,
      "velocity": 100
    },
    {
      "time": 18.75,
      "note": 81,
      "duration": 0.25,
      "velocity": 100
    },
    {
      "time": 19.0,
      "note": 79,
      "duration": 0.25,
      "velocity": 100
    },
    {
      "time": 19.25,
      "note": 81,
      "duration": 0.25,
      "velocity": 100
    },
    {
      "time": 19.5,
      "note": 81,
      "duration": 0.25,
      "velocity": 100
    },
    {
      "time": 19.75,
      "note": 84,
      "duration": 0.25,
      "velocity": 100
    },
    {
      "time": 20.0,
      "note": 81,
      "duration": 0.25,
      "velocity": 100
    },
    {
      "time": 20.25,
      "note": 81,
      "duration": 0.5,
      "velocity": 100
    },
    {
      "time": 20.75,
      "note": 84,
      "duration": 0.25,
      "velocity": 100
    },
    {
      "time": 21.0,
      "note": 84,
      "duration": 0.25,
      "velocity": 100
    },
    {
      "time": 21.5,
      "note": 84,
      "duration": 1.5,
      "velocity": 100
    },
    {
      "time": 23.0,
      "note": 88,
      "duration": 0.5,
      "velocity": 100
    },
    {
      "time": 23.5,
      "note": 86,
      "duration": 0.5,
      "velocity": 100
    },
    {
      "time": 24.25,
      "note": 79,
      "duration": 0.25,
      "velocity": 100
    },
    {
      "time": 24.5,
      "note": 81,
      "duration": 0.25,
      "velocity": 100
    },
    {
      "time": 24.75,
      "note": 81,
      "duration": 0.25,
      "velocity": 100
    },
    {
      "time": 25.0,
      "note": 79,
      "duration": 0.25,
      "velocity": 100
    },
    {
      "time": 25.25,
      "note": 81,
      "duration": 0.25,
      "velocity": 100
    },
    {
      "time": 25.5,
      "note": 81,
      "duration": 1.0,
      "velocity": 100
    },
    {
      "time": 29.75,
      "note": 84,
      "duration": 1.5,
      "velocity": 100
    },
    {
      "time": 31.25,
      "note": 88,
      "duration": 0.5,
      "velocity": 100
    },
    {
      "time": 31.75,
      "note": 86,
      "duration": 0.5,
      "velocity": 100
    },
    {
      "time": 32.25,
      "note": 79,
      "duration": 0.25,
      "velocity": 100
    },
    {
      "time": 32.5,
      "note": 79,
      "duration": 0.25,
      "velocity": 100
    },
    {
      "time": 32.75,
      "note": 81,
      "duration": 0.25,
      "velocity": 100
    },
    {
      "time": 33.0,
      "note": 81,
      "duration": 0.25,
      "velocity": 100
    },
    {
      "time": 33.25,
      "note": 81,
      "duration": 0.25,
      "velocity": 100
    },
    {
      "time": 33.5,
      "note": 81,
      "duration": 0.25,
      "velocity": 100
    },
    {
      "time": 33.75,
      "note": 84,
      "duration": 0.25,
      "velocity": 100
    },
    {
      "time": 34.0,
      "note": 81,
      "duration": 0.25,
      "velocity": 100
    },
    {
      "time": 34.25,
      "note": 79,
      "duration": 0.25,
      "velocity": 100
    },
    {
      "time": 34.5,
      "note": 81,
      "duration": 0.25,
      "velocity": 100
    },
    {
      "time": 34.75,
      "note": 81,
      "duration": 0.25,
      "velocity": 100
    },
    {
      "time": 35.0,
      "note": 79,
      "duration": 0.5,
      "velocity": 100
    },
    {
      "time": 35.5,
      "note": 81,
      "duration": 0.25,
      "velocity": 100
    },
    {
      "time": 35.75,
      "note": 81,
      "duration": 1.0,
      "velocity": 100
    }
  ],
  "chords": [
    {
      "time": 0.0,
      "notes": [
        69,
        72,
        76
      ],
      "duration": 3.4318181818181817
    },
    {
      "time": 3.4318181818181817,
      "notes": [
        67,
        71,
        74
      ],
      "duration": 3.4318181818181817
    },
    {
      "time": 6.863636363636363,
      "notes": [
        69,
        72,
        76
      ],
      "duration": 3.4318181818181817
    },
    {
      "time": 10.295454545454545,
      "notes": [
        62,
        65,
        69
      ],
      "duration": 3.4318181818181817
    },
    {
      "time": 13.727272727272727,
      "notes": [
        69,
        72,
        76
      ],
      "duration": 3.4318181818181817
    },
    {
      "time": 17.159090909090907,
      "notes": [
        60,
        64,
        67
      ],
      "duration": 3.4318181818181817
    },
    {
      "time": 20.59090909090909,
      "notes": [
        67,
        71,
        74
      ],
      "duration": 3.4318181818181817
    },
    {
      "time": 24.022727272727273,
      "notes": [
        69,
        72,
        76
      ],
      "duration": 3.4318181818181817
    },
    {
      "time": 27.454545454545453,
      "notes": [
        60,
        64,
        67
      ],
      "duration": 3.4318181818181817
    },
    {
      "time": 30.886363636363633,
      "notes": [
        67,
        71,
        74
      ],
      "duration": 3.4318181818181817
    },
    {
      "time": 34.31818181818181,
      "notes": [
        69,
        72,
        76
      ],
      "duration": 3.4318181818181817
    }
  ]
}