{
  "title": "Iluminara",
  "artist": "La Nueva Luna",
  "bpm": 120,
  "duration": 52.25,
  "audioFile": "",
  "notes": [
    {
      "time": 0.0,
      "note": 79,
      "duration": 0.375,
      "velocity": 100
    },
    {
      "time": 0.375,
      "note": 81,
      "duration": 0.125,
      "velocity": 100
    },
    {
      "time": 0.5,
      "note": 82,
      "duration": 0.125,
      "velocity": 100
    },
    {
      "time": 0.625,
      "note": 81,
      "duration": 0.125,
      "velocity": 100
    },
    {
      "time": 0.75,
      "note": 82,
      "duration": 0.125,
      "velocity": 100
    },
    {
      "time": 0.875,
      "note": 81,
      "duration": 0.125,
      "velocity": 100
    },
    {
      "time": 1.0,
      "note": 79,
      "duration": 0.375,
      "velocity": 100
    },
    {
      "time": 1.375,
      "note": 81,
      "duration": 0.125,
      "velocity": 100
    },
    {
      "time": 1.5,
      "note": 82,
      "duration": 0.125,
      "velocity": 100
    },
    {
      "time": 1.625,
      "note": 81,
      "duration": 0.125,
      "velocity": 100
    },
    {
      "time": 1.75,
      "note": 82,
      "duration": 0.125,
      "velocity": 100
    },
    {
      "time": 1.875,
      "note": 81,
      "duration": 0.125,
      "velocity": 100
    },
    {
      "time": 2.0,
      "note": 79,
      "duration": 0.375,
      "velocity": 100
    },
    {
      "time": 2.375,
      "note": 77,
      "duration": 0.125,
      "velocity": 100
    },
    {
      "time": 2.5,
      "note": 79,
      "duration": 0.125,
      "velocity": 100
    },
    {
      "time": 2.625,
      "note": 79,
      "duration": 0.125,
      "velocity": 100
    },
    {
      "time": 2.75,
      "note": 82,
      "duration": 0.125,
      "velocity": 100
    },
    {
      "time": 2.875,
      "note": 86,
      "duration": 0.125,
      "velocity": 100
    },
    {
      "time": 3.0,
      "note": 89,
      "duration": 0.375,
      "velocity": 100
    },
    {
      "time": 3.375,
      "note": 87,
      "duration": 0.125,
      "velocity": 100
    },
    {
      "time": 3.5,
      "note": 84,
      "duration": 0.25,
      "velocity": 100
    },
    {
      "time": 3.75,
      "note": 81,
      "duration": 0.125,
      "velocity": 100
    },
    {
      "time": 3.875,
      "note": 84,
      "duration": 0.125,
      "velocity": 100
    },
    {
      "time": 4.125,
      "note": 81,
      "duration": 0.125,
      "velocity": 100
    },
    {
      "time": 4.25,
      "note": 84,
      "duration": 0.125,
      "velocity": 100
    },
    {
      "time": 4.375,
      "note": 89,
      "duration": 0.125,
      "velocity": 100
    },
    {
      "time": 4.5,
      "note": 91,
      "duration": 0.25,
      "velocity": 100
    },
    {
      "time": 4.75,
      "note": 89,
      "duration": 0.25,
      "velocity": 100
    },
    {
      "time": 5.0,
      "note": 81,
      "duration": 0.375,
      "velocity": 100
    },
    {
      "time": 5.375,
      "note": 82,
      "duration": 0.125,
      "velocity": 100
    },
    {
      "time": 5.5,
      "note": 84,
      "duration": 0.125,
      "velocity": 100
    },
    {
      "time": 5.625,
      "note": 82,
      "duration": 0.125,
      "velocity": 100
    },
    {
      "time": 5.75,
      "note": 84,
      "duration": 0.125,
      "velocity": 100
    },
    {
      "time": 5.875,
      "note": 82,
      "duration": 0.125,
      "velocity": 100
    },
    {
      "time": 6.0,
      "note": 81,
      "duration": 0.375,
      "velocity": 100
    },
    {
      "time": 6.375,
      "note": 82,
      "duration": 0.125,
      "velocity": 100
    },
    {
      "time": 6.5,
      "note": 84,
      "duration": 0.125,
      "velocity": 100
    },
    {
      "time": 6.625,
      "note": 82,
      "duration": 0.125,
      "velocity": 100
    },
    {
      "time": 6.75,
      "note": 84,
      "duration": 0.125,
      "velocity": 100
    },
    {
      "time": 6.875,
      "note": 82,
      "duration": 0.125,
      "velocity": 100
    },
    {
      "time": 7.0,
      "note": 81,
      "duration": 0.375,
      "velocity": 100
    },
    {
      "time": 7.375,
      "note": 82,
      "duration": 0.125,
      "velocity": 100
    },
    {
      "time": 7.5,
      "note": 84,
      "duration": 0.125,
      "velocity": 100
    },
    {
      "time": 7.625,
      "note": 82,
      "duration": 0.125,
      "velocity": 100
    },
    {
      "time": 7.75,
      "note": 84,
      "duration": 0.125,
      "velocity": 100
    },
    {
      "time": 7.875,
      "note": 84,
      "duration": 0.125,
      "velocity": 100
    },
    {
      "time": 8.0,
      "note": 86,
      "duration": 0.375,
      "velocity": 100
    },
    {
      "time": 8.375,
      "note": 82,
      "duration": 0.125,
      "velocity": 100
    },
    {
      "time": 8.5,
      "note": 82,
      "duration": 0.5,
      "velocity": 100
    },
    {
      "time": 10.125,
      "note": 86,
      "duration": 0.125,
      "velocity": 100
    },
    {
      "time": 10.25,
      "note": 94,
      "duration": 0.125,
      "velocity": 100
    },
    {
      "time": 10.375,
      "note": 86,
      "duration": 0.125,
      "velocity": 100
    },
    {
      "time": 10.5,
      "note": 94,
      "duration": 0.25,
      "velocity": 100
    },
    {
      "time": 10.75,
      "note": 86,
      "duration": 0.25,
      "velocity": 100
    },
    {
      "time": 11.0,
      "note": 84,
      "duration": 1.0,
      "velocity": 100
    },
    {
      "time": 12.0,
      "note": 89,
      "duration": 0.125,
      "velocity": 100
    },
    {
      "time": 12.125,
      "note": 88,
      "duration": 0.125,
      "velocity": 100
    },
    {
      "time": 12.25,
      "note": 84,
      "duration": 0.125,
      "velocity": 100
    },
    {
      "time": 12.375,
      "note": 81,
      "duration": 0.125,
      "velocity": 100
    },
    {
      "time": 12.5,
      "note": 77,
      "duration": 0.125,
      "velocity": 100
    },
    {
      "time": 12.625,
      "note": 81,
      "duration": 0.125,
      "velocity": 100
    },
    {
      "time": 12.75,
      "note": 84,
      "duration": 0.125,
      "velocity": 100
    },
    {
      "time": 12.875,
      "note": 89,
      "duration": 0.125,
      "velocity": 100
    },
    {
      "time": 13.125,
      "note": 84,
      "duration": 0.125,
      "velocity": 100
    },
    {
      "time": 13.25,
      "note": 93,
      "duration": 0.125,
      "velocity": 100
    },
    {
      "time": 13.375,
      "note": 84,
      "duration": 0.125,
      "velocity": 100
    },
    {
      "time": 13.5,
      "note": 93,
      "duration": 0.25,
      "velocity": 100
    },
    {
      "time": 13.75,
      "note": 84,
      "duration": 0.25,
      "velocity": 100
    },
    {
      "time": 14.0,
      "note": 89,
      "duration": 0.125,
      "velocity": 100
    },
    {
      "time": 14.125,
      "note": 89,
      "duration": 0.125,
      "velocity": 100
    },
    {
      "time": 14.25,
      "note": 91,
      "duration": 0.125,
      "velocity": 100
    },
    {
      "time": 14.375,
      "note": 84,
      "duration": 0.125,
      "velocity": 100
    },
    {
      "time": 14.5,
      "note": 84,
      "duration": 0.125,
      "velocity": 100
    },
    {
      "time": 14.625,
      "note": 86,
      "duration": 0.125,
      "velocity": 100
    },
    {
      "time": 14.75,
      "note": 82,
      "duration": 0.125,
      "velocity": 100
    },
    {
      "time": 14.875,
      "note": 79,
      "duration": 0.125,
      "velocity": 100
    },
    {
      "time": 15.125,
      "note": 86,
      "duration": 0.125,
      "velocity": 100
    },
    {
      "time": 15.25,
      "note": 94,
      "duration": 0.125,
      "velocity": 100
    },
    {
      "time": 15.375,
      "note": 86,
      "duration": 0.125,
      "velocity": 100
    },
    {
      "time": 15.5,
      "note": 94,
      "duration": 0.25,
      "velocity": 100
    },
    {
      "time": 15.75,
      "note": 86,
      "duration": 0.25,
      "velocity": 100
    },
    {
      "time": 16.0,
      "note": 89,
      "duration": 0.125,
      "velocity": 100
    },
    {
      "time": 16.125,
      "note": 88,
      "duration": 0.125,
      "velocity": 100
    },
    {
      "time": 16.25,
      "note": 84,
      "duration": 0.125,
      "velocity": 100
    },
    {
      "time": 16.375,
      "note": 81,
      "duration": 0.125,
      "velocity": 100
    },
    {
      "time": 16.5,
      "note": 77,
      "duration": 0.125,
      "velocity": 100
    },
    {
      "time": 16.625,
      "note": 81,
      "duration": 0.125,
      "velocity": 100
    },
    {
      "time": 16.75,
      "note": 84,
      "duration": 0.125,
      "velocity": 100
    },
    {
      "time": 16.875,
      "note": 89,
      "duration": 0.125,
      "velocity": 100
    },
    {
      "time": 17.375,
      "note": 84,
      "duration": 0.125,
      "velocity": 100
    },
    {
      "time": 17.5,
      "note": 93,
      "duration": 0.125,
      "velocity": 100
    },
    {
      "time": 17.625,
      "note": 84,
      "duration": 0.125,
      "velocity": 100
    },
    {
      "time": 17.75,
      "note": 93,
      "duration": 0.25,
      "velocity": 100
    },
    {
      "time": 18.0,
      "note": 84,
      "duration": 0.25,
      "velocity": 100
    },
    {
      "time": 18.25,
      "note": 91,
      "duration": 0.25,
      "velocity": 100
    },
    {
      "time": 18.5,
      "note": 86,
      "duration": 0.25,
      "velocity": 100
    },
    {
      "time": 18.75,
      "note": 82,
      "duration": 0.25,
      "velocity": 100
    },
    {
      "time": 19.0,
      "note": 79,
      "duration": 0.25,
      "velocity": 100
    },
    {
      "time": 19.375,
      "note": 86,
      "duration": 0.125,
      "velocity": 100
    },
    {
      "time": 19.5,
      "note": 94,
      "duration": 0.125,
      "velocity": 100
    },
    {
      "time": 19.625,
      "note": 86,
      "duration": 0.125,
      "velocity": 100
    },
    {
      "time": 19.75,
      "note": 94,
      "duration": 0.25,
      "velocity": 100
    },
    {
      "time": 20.0,
      "note": 86,
      "duration": 0.25,
      "velocity": 100
    },
    {
      "time": 20.375,
      "note": 84,
      "duration": 0.125,
      "velocity": 100
    },
    {
      "time": 20.5,
      "note": 93,
      "duration": 0.125,
      "velocity": 100
    },
    {
      "time": 20.625,
      "note": 84,
      "duration": 0.125,
      "velocity": 100
    },
    {
      "time": 20.75,
      "note": 93,
      "duration": 0.25,
      "velocity": 100
    },
    {
      "time": 21.0,
      "note": 89,
      "duration": 0.125,
      "velocity": 100
    },
    {
      "time": 21.125,
      "note": 89,
      "duration": 0.125,
      "velocity": 100
    },
    {
      "time": 21.25,
      "note": 91,
      "duration": 1.0,
      "velocity": 100
    },
    {
      "time": 22.375,
      "note": 74,
      "duration": 0.25,
      "velocity": 100
    },
    {
      "time": 22.625,
      "note": 74,
      "duration": 0.25,
      "velocity": 100
    },
    {
      "time": 22.875,
      "note": 76,
      "duration": 0.25,
      "velocity": 100
    },
    {
      "time": 23.125,
      "note": 77,
      "duration": 0.25,
      "velocity": 100
    },
    {
      "time": 23.625,
      "note": 84,
      "duration": 1.0,
      "velocity": 100
    },
    {
      "time": 24.75,
      "note": 82,
      "duration": 0.25,
      "velocity": 100
    },
    {
      "time": 25.0,
      "note": 82,
      "duration": 0.125,
      "velocity": 100
    },
    {
      "time": 25.125,
      "note": 82,
      "duration": 0.25,
      "velocity": 100
    },
    {
      "time": 25.375,
      "note": 81,
      "duration": 0.125,
      "velocity": 100
    },
    {
      "time": 25.5,
      "note": 79,
      "duration": 0.125,
      "velocity": 100
    },
    {
      "time": 24.625,
      "note": 67,
      "duration": 0.375,
      "velocity": 100
    },
    {
      "time": 25.0,
      "note": 70,
      "duration": 0.25,
      "velocity": 100
    },
    {
      "time": 25.125,
      "note": 66,
      "duration": 0.375,
      "velocity": 100
    },
    {
      "time": 25.5,
      "note": 70,
      "duration": 0.25,
      "velocity": 100
    },
    {
      "time": 25.75,
      "note": 79,
      "duration": 0.5,
      "velocity": 100
    },
    {
      "time": 26.25,
      "note": 70,
      "duration": 0.5,
      "velocity": 100
    },
    {
      "time": 25.875,
      "note": 82,
      "duration": 0.25,
      "velocity": 100
    },
    {
      "time": 26.125,
      "note": 82,
      "duration": 0.125,
      "velocity": 100
    },
    {
      "time": 26.25,
      "note": 82,
      "duration": 0.25,
      "velocity": 100
    },
    {
      "time": 26.5,
      "note": 81,
      "duration": 0.125,
      "velocity": 100
    },
    {
      "time": 26.625,
      "note": 79,
      "duration": 0.125,
      "velocity": 100
    },
    {
      "time": 26.75,
      "note": 79,
      "duration": 0.125,
      "velocity": 100
    },
    {
      "time": 26.875,
      "note": 79,
      "duration": 0.125,
      "velocity": 100
    },
    {
      "time": 27.0,
      "note": 82,
      "duration": 0.125,
      "velocity": 100
    },
    {
      "time": 27.125,
      "note": 82,
      "duration": 0.125,
      "velocity": 100
    },
    {
      "time": 27.25,
      "note": 82,
      "duration": 0.25,
      "velocity": 100
    },
    {
      "time": 27.5,
      "note": 81,
      "duration": 0.125,
      "velocity": 100
    },
    {
      "time": 27.625,
      "note": 79,
      "duration": 0.125,
      "velocity": 100
    },
    {
      "time": 27.75,
      "note": 79,
      "duration": 0.125,
      "velocity": 100
    },
    {
      "time": 27.875,
      "note": 79,
      "duration": 0.125,
      "velocity": 100
    },
    {
      "time": 28.0,
      "note": 79,
      "duration": 0.25,
      "velocity": 100
    },
    {
      "time": 28.25,
      "note": 86,
      "duration": 0.25,
      "velocity": 100
    },
    {
      "time": 28.5,
      "note": 86,
      "duration": 0.125,
      "velocity": 100
    },
    {
      "time": 28.625,
      "note": 84,
      "duration": 0.125,
      "velocity": 100
    },
    {
      "time": 28.75,
      "note": 84,
      "duration": 0.125,
      "velocity": 100
    },
    {
      "time": 28.875,
      "note": 82,
      "duration": 0.25,
      "velocity": 100
    },
    {
      "time": 29.125,
      "note": 81,
      "duration": 0.125,
      "velocity": 100
    },
    {
      "time": 29.25,
      "note": 84,
      "duration": 0.5,
      "velocity": 100
    },
    {
      "time": 28.875,
      "note": 65,
      "duration": 0.125,
      "velocity": 100
    },
    {
      "time": 29.0,
      "note": 67,
      "duration": 0.125,
      "velocity": 100
    },
    {
      "time": 29.125,
      "note": 69,
      "duration": 0.125,
      "velocity": 100
    },
    {
      "time": 29.25,
      "note": 70,
      "duration": 0.125,
      "velocity": 100
    },
    {
      "time": 29.375,
      "note": 72,
      "duration": 0.125,
      "velocity": 100
    },
    {
      "time": 29.5,
      "note": 74,
      "duration": 0.125,
      "velocity": 100
    },
    {
      "time": 29.625,
      "note": 76,
      "duration": 0.125,
      "velocity": 100
    },
    {
      "time": 29.75,
      "note": 84,
      "duration": 1.0,
      "velocity": 100
    },
    {
      "time": 30.75,
      "note": 84,
      "duration": 0.5,
      "velocity": 100
    },
    {
      "time": 30.75,
      "note": 77,
      "duration": 0.25,
      "velocity": 100
    },
    {
      "time": 31.0,
      "note": 76,
      "duration": 0.25,
      "velocity": 100
    },
    {
      "time": 30.0,
      "note": 88,
      "duration": 0.125,
      "velocity": 100
    },
    {
      "time": 30.125,
      "note": 88,
      "duration": 0.125,
      "velocity": 100
    },
    {
      "time": 30.25,
      "note": 88,
      "duration": 0.25,
      "velocity": 100
    },
    {
      "time": 30.5,
      "note": 86,
      "duration": 0.125,
      "velocity": 100
    },
    {
      "time": 30.625,
      "note": 84,
      "duration": 0.125,
      "velocity": 100
    },
    {
      "time": 30.75,
      "note": 84,
      "duration": 0.125,
      "velocity": 100
    },
    {
      "time": 30.875,
      "note": 84,
      "duration": 0.125,
      "velocity": 100
    },
    {
      "time": 31.0,
      "note": 88,
      "duration": 0.125,
      "velocity": 100
    },
    {
      "time": 31.125,
      "note": 88,
      "duration": 0.125,
      "velocity": 100
    },
    {
      "time": 31.25,
      "note": 88,
      "duration": 0.125,
      "velocity": 100
    },
    {
      "time": 31.375,
      "note": 88,
      "duration": 0.125,
      "velocity": 100
    },
    {
      "time": 31.5,
      "note": 86,
      "duration": 0.125,
      "velocity": 100
    },
    {
      "time": 31.625,
      "note": 84,
      "duration": 0.125,
      "velocity": 100
    },
    {
      "time": 31.75,
      "note": 84,
      "duration": 0.125,
      "velocity": 100
    },
    {
      "time": 31.875,
      "note": 84,
      "duration": 0.125,
      "velocity": 100
    },
    {
      "time": 32.0,
      "note": 88,
      "duration": 0.125,
      "velocity": 100
    },
    {
      "time": 32.125,
      "note": 88,
      "duration": 0.125,
      "velocity": 100
    },
    {
      "time": 32.25,
      "note": 88,
      "duration": 0.125,
      "velocity": 100
    },
    {
      "time": 32.375,
      "note": 88,
      "duration": 0.125,
      "velocity": 100
    },
    {
      "time": 32.5,
      "note": 88,
      "duration": 0.125,
      "velocity": 100
    },
    {
      "time": 32.625,
      "note": 86,
      "duration": 0.125,
      "velocity": 100
    },
    {
      "time": 32.75,
      "note": 86,
      "duration": 0.125,
      "velocity": 100
    },
    {
      "time": 32.875,
      "note": 84,
      "duration": 0.125,
      "velocity": 100
    },
    {
      "time": 33.125,
      "note": 82,
      "duration": 0.125,
      "velocity": 100
    },
    {
      "time": 33.25,
      "note": 86,
      "duration": 0.5,
      "velocity": 100
    },
    {
      "time": 33.75,
      "note": 86,
      "duration": 0.25,
      "velocity": 100
    },
    {
      "time": 34.0,
      "note": 82,
      "duration": 0.125,
      "velocity": 100
    },
    {
      "time": 34.125,
      "note": 82,
      "duration": 0.125,
      "velocity": 100
    },
    {
      "time": 34.25,
      "note": 82,
      "duration": 0.125,
      "velocity": 100
    },
    {
      "time": 34.375,
      "note": 84,
      "duration": 0.125,
      "velocity": 100
    },
    {
      "time": 34.5,
      "note": 82,
      "duration": 0.125,
      "velocity": 100
    },
    {
      "time": 34.625,
      "note": 81,
      "duration": 0.125,
      "velocity": 100
    },
    {
      "time": 34.75,
      "note": 84,
      "duration": 1.0,
      "velocity": 100
    },
    {
      "time": 35.0,
      "note": 81,
      "duration": 0.125,
      "velocity": 100
    },
    {
      "time": 35.125,
      "note": 81,
      "duration": 0.125,
      "velocity": 100
    },
    {
      "time": 35.25,
      "note": 81,
      "duration": 0.125,
      "velocity": 100
    },
    {
      "time": 35.375,
      "note": 79,
      "duration": 0.125,
      "velocity": 100
    },
    {
      "time": 35.5,
      "note": 77,
      "duration": 0.125,
      "velocity": 100
    },
    {
      "time": 35.625,
      "note": 79,
      "duration": 0.125,
      "velocity": 100
    },
    {
      "time": 34.75,
      "note": 77,
      "duration": 1.0,
      "velocity": 100
    },
    {
      "time": 35.875,
      "note": 86,
      "duration": 0.25,
      "velocity": 100
    },
    {
      "time": 36.125,
      "note": 86,
      "duration": 0.25,
      "velocity": 100
    },
    {
      "time": 36.375,
      "note": 86,
      "duration": 0.125,
      "velocity": 100
    },
    {
      "time": 36.5,
      "note": 86,
      "duration": 0.125,
      "velocity": 100
    },
    {
      "time": 36.625,
      "note": 84,
      "duration": 0.125,
      "velocity": 100
    },
    {
      "time": 36.75,
      "note": 82,
      "duration": 0.125,
      "velocity": 100
    },
    {
      "time": 36.875,
      "note": 79,
      "duration": 1.0,
      "velocity": 100
    },
    {
      "time": 37.875,
      "note": 79,
      "duration": 0.25,
      "velocity": 100
    },
    {
      "time": 38.125,
      "note": 82,
      "duration": 0.125,
      "velocity": 100
    },
    {
      "time": 38.25,
      "note": 82,
      "duration": 0.25,
      "velocity": 100
    },
    {
      "time": 38.5,
      "note": 84,
      "duration": 0.25,
      "velocity": 100
    },
    {
      "time": 38.75,
      "note": 82,
      "duration": 0.25,
      "velocity": 100
    },
    {
      "time": 39.0,
      "note": 81,
      "duration": 1.0,
      "velocity": 100
    },
    {
      "time": 40.0,
      "note": 81,
      "duration": 1.0,
      "velocity": 100
    },
    {
      "time": 41.0,
      "note": 79,
      "duration": 0.375,
      "velocity": 100
    },
    {
      "time": 41.375,
      "note": 82,
      "duration": 0.375,
      "velocity": 100
    },
    {
      "time": 41.375,
      "note": 79,
      "duration": 0.25,
      "velocity": 100
    },
    {
      "time": 41.625,
      "note": 82,
      "duration": 0.25,
      "velocity": 100
    },
    {
      "time": 41.75,
      "note": 77,
      "duration": 0.25,
      "velocity": 100
    },
    {
      "time": 42.0,
      "note": 81,
      "duration": 0.25,
      "velocity": 100
    },
    {
      "time": 42.0,
      "note": 79,
      "duration": 0.25,
      "velocity": 100
    },
    {
      "time": 42.25,
      "note": 82,
      "duration": 0.25,
      "velocity": 100
    },
    {
      "time": 42.25,
      "note": 79,
      "duration": 0.25,
      "velocity": 100
    },
    {
      "time": 42.5,
      "note": 82,
      "duration": 0.25,
      "velocity": 100
    },
    {
      "time": 42.5,
      "note": 77,
      "duration": 0.25,
      "velocity": 100
    },
    {
      "time": 42.75,
      "note": 81,
      "duration": 0.25,
      "velocity": 100
    },
    {
      "time": 42.875,
      "note": 86,
      "duration": 0.25,
      "velocity": 100
    },
    {
      "time": 43.125,
      "note": 86,
      "duration": 0.125,
      "velocity": 100
    },
    {
      "time": 43.25,
      "note": 86,
      "duration": 0.125,
      "velocity": 100
    },
    {
      "time": 43.375,
      "note": 86,
      "duration": 0.25,
      "velocity": 100
    },
    {
      "time": 43.625,
      "note": 84,
      "duration": 0.125,
      "velocity": 100
    },
    {
      "time": 43.75,
      "note": 82,
      "duration": 1.0,
      "velocity": 100
    },
    {
      "time": 44.75,
      "note": 89,
      "duration": 1.0,
      "velocity": 100
    },
    {
      "time": 44.0,
      "note": 88,
      "duration": 0.125,
      "velocity": 100
    },
    {
      "time": 44.125,
      "note": 88,
      "duration": 0.125,
      "velocity": 100
    },
    {
      "time": 44.25,
      "note": 88,
      "duration": 0.125,
      "velocity": 100
    },
    {
      "time": 44.375,
      "note": 88,
      "duration": 0.125,
      "velocity": 100
    },
    {
      "time": 44.5,
      "note": 88,
      "duration": 0.125,
      "velocity": 100
    },
    {
      "time": 44.625,
      "note": 86,
      "duration": 0.125,
      "velocity": 100
    },
    {
      "time": 43.75,
      "note": 77,
      "duration": 1.0,
      "velocity": 100
    },
    {
      "time": 44.75,
      "note": 86,
      "duration": 1.0,
      "velocity": 100
    },
    {
      "time": 44.875,
      "note": 67,
      "duration": 0.25,
      "velocity": 100
    },
    {
      "time": 45.125,
      "note": 67,
      "duration": 0.25,
      "velocity": 100
    },
    {
      "time": 45.375,
      "note": 70,
      "duration": 0.125,
      "velocity": 100
    },
    {
      "time": 45.5,
      "note": 69,
      "duration": 0.125,
      "velocity": 100
    },
    {
      "time": 45.625,
      "note": 70,
      "duration": 0.125,
      "velocity": 100
    },
    {
      "time": 45.75,
      "note": 74,
      "duration": 0.125,
      "velocity": 100
    },
    {
      "time": 46.125,
      "note": 86,
      "duration": 0.125,
      "velocity": 100
    },
    {
      "time": 46.25,
      "note": 86,
      "duration": 0.125,
      "velocity": 100
    },
    {
      "time": 46.375,
      "note": 86,
      "duration": 0.125,
      "velocity": 100
    },
    {
      "time": 46.5,
      "note": 86,
      "duration": 0.25,
      "velocity": 100
    },
    {
      "time": 46.75,
      "note": 84,
      "duration": 0.125,
      "velocity": 100
    },
    {
      "time": 45.875,
      "note": 70,
      "duration": 1.0,
      "velocity": 100
    },
    {
      "time": 46.875,
      "note": 74,
      "duration": 1.0,
      "velocity": 100
    },
    {
      "time": 46.875,
      "note": 81,
      "duration": 1.0,
      "velocity": 100
    },
    {
      "time": 46.875,
      "note": 84,
      "duration": 1.0,
      "velocity": 100
    },
    {
      "time": 47.875,
      "note": 84,
      "duration": 0.125,
      "velocity": 100
    },
    {
      "time": 48.0,
      "note": 81,
      "duration": 0.25,
      "velocity": 100
    },
    {
      "time": 48.25,
      "note": 84,
      "duration": 0.125,
      "velocity": 100
    },
    {
      "time": 48.375,
      "note": 84,
      "duration": 0.25,
      "velocity": 100
    },
    {
      "time": 48.625,
      "note": 81,
      "duration": 0.25,
      "velocity": 100
    },
    {
      "time": 48.0,
      "note": 65,
      "duration": 0.125,
      "velocity": 100
    },
    {
      "time": 48.125,
      "note": 69,
      "duration": 0.125,
      "velocity": 100
    },
    {
      "time": 48.25,
      "note": 72,
      "duration": 0.125,
      "velocity": 100
    },
    {
      "time": 48.375,
      "note": 76,
      "duration": 0.25,
      "velocity": 100
    },
    {
      "time": 48.625,
      "note": 72,
      "duration": 0.125,
      "velocity": 100
    },
    {
      "time": 48.75,
      "note": 69,
      "duration": 0.125,
      "velocity": 100
    },
    {
      "time": 48.875,
      "note": 81,
      "duration": 0.25,
      "velocity": 100
    },
    {
      "time": 49.125,
      "note": 81,
      "duration": 0.125,
      "velocity": 100
    },
    {
      "time": 49.25,
      "note": 81,
      "duration": 0.125,
      "velocity": 100
    },
    {
      "time": 49.375,
      "note": 79,
      "duration": 0.25,
      "velocity": 100
    },
    {
      "time": 49.625,
      "note": 77,
      "duration": 0.25,
      "velocity": 100
    },
    {
      "time": 49.875,
      "note": 81,
      "duration": 1.0,
      "velocity": 100
    },
    {
      "time": 50.125,
      "note": 79,
      "duration": 0.125,
      "velocity": 100
    },
    {
      "time": 50.25,
      "note": 77,
      "duration": 0.125,
      "velocity": 100
    },
    {
      "time": 50.375,
      "note": 79,
      "duration": 0.125,
      "velocity": 100
    },
    {
      "time": 50.5,
      "note": 77,
      "duration": 0.125,
      "velocity": 100
    },
    {
      "time": 50.625,
      "note": 74,
      "duration": 0.125,
      "velocity": 100
    },
    {
      "time": 50.75,
      "note": 77,
      "duration": 0.125,
      "velocity": 100
    },
    {
      "time": 51.0,
      "note": 77,
      "duration": 0.25,
      "velocity": 100
    },
    {
      "time": 51.25,
      "note": 74,
      "duration": 0.25,
      "velocity": 100
    },
    {
      "time": 51.5,
      "note": 72,
      "duration": 0.25,
      "velocity": 100
    },
    {
      "time": 51.75,
      "note": 72,
      "duration": 0.125,
      "velocity": 100
    },
    {
      "time": 51.875,
      "note": 74,
      "duration": 0.125,
      "velocity": 100
    },
    {
      "time": 52.0,
      "note": 72,
      "duration": 0.25,
      "velocity": 100
    },
    {
      "time": 51.25,
      "note": 86,
      "duration": 0.25,
      "velocity": 100
    },
    {
      "time": 51.5,
      "note": 86,
      "duration": 0.125,
      "velocity": 100
    },
    {
      "time": 51.75,
      "note": 86,
      "duration": 0.125,
      "velocity": 100
    },
    {
      "time": 51.875,
      "note": 86,
      "duration": 0.25,
      "velocity": 100
    },
    {
      "time": 52.125,
      "note": 84,
      "duration": 0.125,
      "velocity": 100
    }
  ],
  "chords": [
    {
      "time": 0.0,
      "notes": [
        67,
        70,
        74
      ],
      "duration": 2.6125
    },
    {
      "time": 2.6125,
      "notes": [
        65,
        69,
        72
      ],
      "duration": 2.6125
    },
    {
      "time": 5.225,
      "notes": [
        60,
        63,
        67
      ],
      "duration": 2.6125
    },
    {
      "time": 7.8374999999999995,
      "notes": [
        67,
        70,
        74
      ],
      "duration": 2.6125
    },
    {
      "time": 10.45,
      "notes": [
        65,
        69,
        72
      ],
      "duration": 2.6125
    },
    {
      "time": 13.0625,
      "notes": [
        67,
        70,
        74
      ],
      "duration": 2.6125
    },
    {
      "time": 15.674999999999999,
      "notes": [
        65,
        69,
        72
      ],
      "duration": 2.6125
    },
    {
      "time": 18.287499999999998,
      "notes": [
        67,
        70,
        74
      ],
      "duration": 2.6125
    },
    {
      "time": 20.9,
      "notes": [
        67,
        70,
        74
      ],
      "duration": 2.6125
    },
    {
      "time": 23.5125,
      "notes": [
        67,
        70,
        74
      ],
      "duration": 2.6125
    },
    {
      "time": 26.125,
      "notes": [
        65,
        69,
        72
      ],
      "duration": 2.6125
    },
    {
      "time": 28.737499999999997,
      "notes": [
        60,
        63,
        67
      ],
      "duration": 2.6125
    },
    {
      "time": 31.349999999999998,
      "notes": [
        67,
        70,
        74
      ],
      "duration": 2.6125
    },
    {
      "time": 33.9625,
      "notes": [
        65,
        69,
        72
      ],
      "duration": 2.6125
    },
    {
      "time": 36.574999999999996,
      "notes": [
        67,
        70,
        74
      ],
      "duration": 2.6125
    },
    {
      "time": 39.1875,
      "notes": [
        65,
        69,
        72
      ],
      "duration": 2.6125
    },
    {
      "time": 41.8,
      "notes": [
        65,
        69,
        72
      ],
      "duration": 2.6125
    },
    {
      "time": 44.412499999999994,
      "notes": [
        67,
        70,
        74
      ],
      "duration": 2.6125
    },
    {
      "time": 47.025,
      "notes": [
        65,
        69,
        72
      ],
      "duration": 2.6125
    },
    {
      "time": 49.637499999999996,
      "notes": [
        67,
        70,
        74
      ],
      "duration": 2.6125
    }
  ]
}