{
  "title": "Pideme la luna",
  "artist": "Leo Dan",
  "bpm": 120,
  "duration": 40.5,
  "audioFile": "",
  "notes": [
    {
      "time": 0.0,
      "note": 79,
      "duration": 0.125,
      "velocity": 100
    },
    {
      "time": 0.125,
      "note": 88,
      "duration": 0.125,
      "velocity": 100
    },
    {
      "time": 0.125,
      "note": 79,
      "duration": 0.125,
      "velocity": 100
    },
    {
      "time": 0.25,
      "note": 88,
      "duration": 0.125,
      "velocity": 100
    },
    {
      "time": 0.25,
      "note": 79,
      "duration": 0.125,
      "velocity": 100
    },
    {
      "time": 0.375,
      "note": 88,
      "duration": 0.125,
      "velocity": 100
    },
    {
      "time": 0.375,
      "note": 79,
      "duration": 0.125,
      "velocity": 100
    },
    {
      "time": 0.5,
      "note": 88,
      "duration": 0.125,
      "velocity": 100
    },
    {
      "time": 0.5,
      "note": 79,
      "duration": 0.125,
      "velocity": 100
    },
    {
      "time": 0.625,
      "note": 88,
      "duration": 0.125,
      "velocity": 100
    },
    {
      "time": 0.625,
      "note": 79,
      "duration": 0.125,
      "velocity": 100
    },
    {
      "time": 0.75,
      "note": 88,
      "duration": 0.125,
      "velocity": 100
    },
    {
      "time": 0.75,
      "note": 76,
      "duration": 0.125,
      "velocity": 100
    },
    {
      "time": 0.875,
      "note": 84,
      "duration": 0.125,
      "velocity": 100
    },
    {
      "time": 0.875,
      "note": 76,
      "duration": 0.125,
      "velocity": 100
    },
    {
      "time": 1.0,
      "note": 84,
      "duration": 0.125,
      "velocity": 100
    },
    {
      "time": 1.0,
      "note": 81,
      "duration": 0.25,
      "velocity": 100
    },
    {
      "time": 1.25,
      "note": 89,
      "duration": 0.25,
      "velocity": 100
    },
    {
      "time": 1.25,
      "note": 79,
      "duration": 0.125,
      "velocity": 100
    },
    {
      "time": 1.375,
      "note": 88,
      "duration": 0.125,
      "velocity": 100
    },
    {
      "time": 1.375,
      "note": 79,
      "duration": 0.125,
      "velocity": 100
    },
    {
      "time": 1.5,
      "note": 88,
      "duration": 0.125,
      "velocity": 100
    },
    {
      "time": 1.5,
      "note": 79,
      "duration": 0.5,
      "velocity": 100
    },
    {
      "time": 2.0,
      "note": 88,
      "duration": 0.5,
      "velocity": 100
    },
    {
      "time": 2.0,
      "note": 79,
      "duration": 0.125,
      "velocity": 100
    },
    {
      "time": 2.125,
      "note": 88,
      "duration": 0.125,
      "velocity": 100
    },
    {
      "time": 2.125,
      "note": 79,
      "duration": 0.125,
      "velocity": 100
    },
    {
      "time": 2.25,
      "note": 88,
      "duration": 0.125,
      "velocity": 100
    },
    {
      "time": 2.25,
      "note": 79,
      "duration": 0.125,
      "velocity": 100
    },
    {
      "time": 2.375,
      "note": 88,
      "duration": 0.125,
      "velocity": 100
    },
    {
      "time": 2.375,
      "note": 79,
      "duration": 0.125,
      "velocity": 100
    },
    {
      "time": 2.5,
      "note": 88,
      "duration": 0.125,
      "velocity": 100
    },
    {
      "time": 2.5,
      "note": 79,
      "duration": 0.125,
      "velocity": 100
    },
    {
      "time": 2.625,
      "note": 88,
      "duration": 0.125,
      "velocity": 100
    },
    {
      "time": 2.625,
      "note": 79,
      "duration": 0.125,
      "velocity": 100
    },
    {
      "time": 2.75,
      "note": 88,
      "duration": 0.125,
      "velocity": 100
    },
    {
      "time": 2.75,
      "note": 76,
      "duration": 0.125,
      "velocity": 100
    },
    {
      "time": 2.875,
      "note": 84,
      "duration": 0.125,
      "velocity": 100
    },
    {
      "time": 2.875,
      "note": 76,
      "duration": 0.125,
      "velocity": 100
    },
    {
      "time": 3.0,
      "note": 84,
      "duration": 0.125,
      "velocity": 100
    },
    {
      "time": 3.0,
      "note": 81,
      "duration": 0.25,
      "velocity": 100
    },
    {
      "time": 3.25,
      "note": 89,
      "duration": 0.25,
      "velocity": 100
    },
    {
      "time": 3.25,
      "note": 79,
      "duration": 0.125,
      "velocity": 100
    },
    {
      "time": 3.375,
      "note": 88,
      "duration": 0.125,
      "velocity": 100
    },
    {
      "time": 3.375,
      "note": 77,
      "duration": 0.125,
      "velocity": 100
    },
    {
      "time": 3.5,
      "note": 86,
      "duration": 0.125,
      "velocity": 100
    },
    {
      "time": 3.75,
      "note": 77,
      "duration": 0.5,
      "velocity": 100
    },
    {
      "time": 4.25,
      "note": 86,
      "duration": 0.5,
      "velocity": 100
    },
    {
      "time": 4.25,
      "note": 77,
      "duration": 0.125,
      "velocity": 100
    },
    {
      "time": 4.375,
      "note": 86,
      "duration": 0.125,
      "velocity": 100
    },
    {
      "time": 4.375,
      "note": 77,
      "duration": 0.125,
      "velocity": 100
    },
    {
      "time": 4.5,
      "note": 86,
      "duration": 0.125,
      "velocity": 100
    },
    {
      "time": 4.5,
      "note": 77,
      "duration": 0.125,
      "velocity": 100
    },
    {
      "time": 4.625,
      "note": 86,
      "duration": 0.125,
      "velocity": 100
    },
    {
      "time": 4.625,
      "note": 77,
      "duration": 0.125,
      "velocity": 100
    },
    {
      "time": 4.75,
      "note": 86,
      "duration": 0.125,
      "velocity": 100
    },
    {
      "time": 4.75,
      "note": 77,
      "duration": 0.125,
      "velocity": 100
    },
    {
      "time": 4.875,
      "note": 86,
      "duration": 0.125,
      "velocity": 100
    },
    {
      "time": 4.875,
      "note": 77,
      "duration": 0.125,
      "velocity": 100
    },
    {
      "time": 5.0,
      "note": 86,
      "duration": 0.125,
      "velocity": 100
    },
    {
      "time": 5.0,
      "note": 74,
      "duration": 0.125,
      "velocity": 100
    },
    {
      "time": 5.125,
      "note": 83,
      "duration": 0.125,
      "velocity": 100
    },
    {
      "time": 5.125,
      "note": 74,
      "duration": 0.125,
      "velocity": 100
    },
    {
      "time": 5.25,
      "note": 83,
      "duration": 0.125,
      "velocity": 100
    },
    {
      "time": 5.25,
      "note": 79,
      "duration": 0.25,
      "velocity": 100
    },
    {
      "time": 5.5,
      "note": 88,
      "duration": 0.25,
      "velocity": 100
    },
    {
      "time": 5.5,
      "note": 77,
      "duration": 0.125,
      "velocity": 100
    },
    {
      "time": 5.625,
      "note": 86,
      "duration": 0.125,
      "velocity": 100
    },
    {
      "time": 5.625,
      "note": 77,
      "duration": 0.125,
      "velocity": 100
    },
    {
      "time": 5.75,
      "note": 86,
      "duration": 0.125,
      "velocity": 100
    },
    {
      "time": 5.75,
      "note": 77,
      "duration": 0.5,
      "velocity": 100
    },
    {
      "time": 6.25,
      "note": 86,
      "duration": 0.5,
      "velocity": 100
    },
    {
      "time": 6.25,
      "note": 77,
      "duration": 0.125,
      "velocity": 100
    },
    {
      "time": 6.375,
      "note": 86,
      "duration": 0.125,
      "velocity": 100
    },
    {
      "time": 6.375,
      "note": 77,
      "duration": 0.125,
      "velocity": 100
    },
    {
      "time": 6.5,
      "note": 86,
      "duration": 0.125,
      "velocity": 100
    },
    {
      "time": 6.5,
      "note": 77,
      "duration": 0.125,
      "velocity": 100
    },
    {
      "time": 6.625,
      "note": 86,
      "duration": 0.125,
      "velocity": 100
    },
    {
      "time": 6.625,
      "note": 77,
      "duration": 0.125,
      "velocity": 100
    },
    {
      "time": 6.75,
      "note": 86,
      "duration": 0.125,
      "velocity": 100
    },
    {
      "time": 6.75,
      "note": 77,
      "duration": 0.125,
      "velocity": 100
    },
    {
      "time": 6.875,
      "note": 86,
      "duration": 0.125,
      "velocity": 100
    },
    {
      "time": 6.875,
      "note": 77,
      "duration": 0.125,
      "velocity": 100
    },
    {
      "time": 7.0,
      "note": 86,
      "duration": 0.125,
      "velocity": 100
    },
    {
      "time": 7.0,
      "note": 74,
      "duration": 0.125,
      "velocity": 100
    },
    {
      "time": 7.125,
      "note": 83,
      "duration": 0.125,
      "velocity": 100
    },
    {
      "time": 7.125,
      "note": 74,
      "duration": 0.125,
      "velocity": 100
    },
    {
      "time": 7.25,
      "note": 83,
      "duration": 0.125,
      "velocity": 100
    },
    {
      "time": 7.25,
      "note": 79,
      "duration": 0.25,
      "velocity": 100
    },
    {
      "time": 7.5,
      "note": 88,
      "duration": 0.25,
      "velocity": 100
    },
    {
      "time": 7.5,
      "note": 77,
      "duration": 0.125,
      "velocity": 100
    },
    {
      "time": 7.625,
      "note": 86,
      "duration": 0.125,
      "velocity": 100
    },
    {
      "time": 7.625,
      "note": 76,
      "duration": 0.125,
      "velocity": 100
    },
    {
      "time": 7.75,
      "note": 84,
      "duration": 0.125,
      "velocity": 100
    },
    {
      "time": 7.75,
      "note": 76,
      "duration": 0.25,
      "velocity": 100
    },
    {
      "time": 8.0,
      "note": 84,
      "duration": 0.25,
      "velocity": 100
    },
    {
      "time": 8.0,
      "note": 84,
      "duration": 0.25,
      "velocity": 100
    },
    {
      "time": 8.25,
      "note": 83,
      "duration": 0.25,
      "velocity": 100
    },
    {
      "time": 8.5,
      "note": 81,
      "duration": 0.25,
      "velocity": 100
    },
    {
      "time": 8.75,
      "note": 81,
      "duration": 0.25,
      "velocity": 100
    },
    {
      "time": 9.0,
      "note": 79,
      "duration": 0.75,
      "velocity": 100
    },
    {
      "time": 9.75,
      "note": 79,
      "duration": 0.25,
      "velocity": 100
    },
    {
      "time": 10.0,
      "note": 79,
      "duration": 0.125,
      "velocity": 100
    },
    {
      "time": 10.125,
      "note": 81,
      "duration": 0.125,
      "velocity": 100
    },
    {
      "time": 10.25,
      "note": 83,
      "duration": 0.25,
      "velocity": 100
    },
    {
      "time": 10.5,
      "note": 84,
      "duration": 0.125,
      "velocity": 100
    },
    {
      "time": 10.625,
      "note": 86,
      "duration": 0.125,
      "velocity": 100
    },
    {
      "time": 10.75,
      "note": 84,
      "duration": 1.0,
      "velocity": 100
    },
    {
      "time": 11.75,
      "note": 84,
      "duration": 0.25,
      "velocity": 100
    },
    {
      "time": 12.0,
      "note": 84,
      "duration": 0.125,
      "velocity": 100
    },
    {
      "time": 12.125,
      "note": 86,
      "duration": 0.125,
      "velocity": 100
    },
    {
      "time": 12.25,
      "note": 88,
      "duration": 0.25,
      "velocity": 100
    },
    {
      "time": 12.5,
      "note": 88,
      "duration": 0.125,
      "velocity": 100
    },
    {
      "time": 12.625,
      "note": 89,
      "duration": 0.125,
      "velocity": 100
    },
    {
      "time": 12.75,
      "note": 91,
      "duration": 1.0,
      "velocity": 100
    },
    {
      "time": 13.75,
      "note": 91,
      "duration": 0.25,
      "velocity": 100
    },
    {
      "time": 14.0,
      "note": 86,
      "duration": 0.25,
      "velocity": 100
    },
    {
      "time": 14.25,
      "note": 89,
      "duration": 0.25,
      "velocity": 100
    },
    {
      "time": 14.5,
      "note": 88,
      "duration": 0.125,
      "velocity": 100
    },
    {
      "time": 14.625,
      "note": 89,
      "duration": 0.125,
      "velocity": 100
    },
    {
      "time": 14.75,
      "note": 88,
      "duration": 0.125,
      "velocity": 100
    },
    {
      "time": 14.875,
      "note": 84,
      "duration": 0.5,
      "velocity": 100
    },
    {
      "time": 15.375,
      "note": 84,
      "duration": 0.125,
      "velocity": 100
    },
    {
      "time": 15.5,
      "note": 91,
      "duration": 0.125,
      "velocity": 100
    },
    {
      "time": 15.625,
      "note": 89,
      "duration": 0.125,
      "velocity": 100
    },
    {
      "time": 15.75,
      "note": 88,
      "duration": 0.125,
      "velocity": 100
    },
    {
      "time": 15.875,
      "note": 88,
      "duration": 0.125,
      "velocity": 100
    },
    {
      "time": 16.0,
      "note": 96,
      "duration": 0.125,
      "velocity": 100
    },
    {
      "time": 16.0,
      "note": 88,
      "duration": 0.125,
      "velocity": 100
    },
    {
      "time": 16.125,
      "note": 96,
      "duration": 0.125,
      "velocity": 100
    },
    {
      "time": 16.125,
      "note": 88,
      "duration": 0.125,
      "velocity": 100
    },
    {
      "time": 16.25,
      "note": 96,
      "duration": 0.125,
      "velocity": 100
    },
    {
      "time": 16.625,
      "note": 88,
      "duration": 0.125,
      "velocity": 100
    },
    {
      "time": 16.75,
      "note": 86,
      "duration": 0.125,
      "velocity": 100
    },
    {
      "time": 16.875,
      "note": 84,
      "duration": 0.125,
      "velocity": 100
    },
    {
      "time": 17.0,
      "note": 86,
      "duration": 0.125,
      "velocity": 100
    },
    {
      "time": 16.25,
      "note": 79,
      "duration": 0.125,
      "velocity": 100
    },
    {
      "time": 16.375,
      "note": 86,
      "duration": 0.25,
      "velocity": 100
    },
    {
      "time": 16.625,
      "note": 88,
      "duration": 0.75,
      "velocity": 100
    },
    {
      "time": 16.625,
      "note": 67,
      "duration": 0.25,
      "velocity": 100
    },
    {
      "time": 16.875,
      "note": 74,
      "duration": 0.125,
      "velocity": 100
    },
    {
      "time": 17.0,
      "note": 72,
      "duration": 0.125,
      "velocity": 100
    },
    {
      "time": 17.125,
      "note": 74,
      "duration": 0.125,
      "velocity": 100
    },
    {
      "time": 17.25,
      "note": 67,
      "duration": 0.125,
      "velocity": 100
    },
    {
      "time": 17.375,
      "note": 88,
      "duration": 0.375,
      "velocity": 100
    },
    {
      "time": 17.75,
      "note": 79,
      "duration": 0.125,
      "velocity": 100
    },
    {
      "time": 17.875,
      "note": 88,
      "duration": 0.125,
      "velocity": 100
    },
    {
      "time": 18.0,
      "note": 86,
      "duration": 0.125,
      "velocity": 100
    },
    {
      "time": 18.125,
      "note": 84,
      "duration": 0.25,
      "velocity": 100
    },
    {
      "time": 17.375,
      "note": 67,
      "duration": 1.0,
      "velocity": 100
    },
    {
      "time": 18.375,
      "note": 86,
      "duration": 0.375,
      "velocity": 100
    },
    {
      "time": 18.75,
      "note": 81,
      "duration": 0.125,
      "velocity": 100
    },
    {
      "time": 18.875,
      "note": 81,
      "duration": 0.5,
      "velocity": 100
    },
    {
      "time": 18.625,
      "note": 69,
      "duration": 0.25,
      "velocity": 100
    },
    {
      "time": 18.875,
      "note": 74,
      "duration": 0.125,
      "velocity": 100
    },
    {
      "time": 19.0,
      "note": 72,
      "duration": 0.125,
      "velocity": 100
    },
    {
      "time": 19.125,
      "note": 74,
      "duration": 0.125,
      "velocity": 100
    },
    {
      "time": 19.25,
      "note": 69,
      "duration": 0.125,
      "velocity": 100
    },
    {
      "time": 19.375,
      "note": 81,
      "duration": 0.5,
      "velocity": 100
    },
    {
      "time": 20.125,
      "note": 79,
      "duration": 0.25,
      "velocity": 100
    },
    {
      "time": 20.375,
      "note": 86,
      "duration": 0.125,
      "velocity": 100
    },
    {
      "time": 20.5,
      "note": 84,
      "duration": 0.125,
      "velocity": 100
    },
    {
      "time": 20.625,
      "note": 86,
      "duration": 0.125,
      "velocity": 100
    },
    {
      "time": 20.75,
      "note": 84,
      "duration": 0.125,
      "velocity": 100
    },
    {
      "time": 20.875,
      "note": 86,
      "duration": 0.375,
      "velocity": 100
    },
    {
      "time": 21.25,
      "note": 84,
      "duration": 0.125,
      "velocity": 100
    },
    {
      "time": 20.375,
      "note": 86,
      "duration": 0.125,
      "velocity": 100
    },
    {
      "time": 20.5,
      "note": 84,
      "duration": 0.125,
      "velocity": 100
    },
    {
      "time": 20.625,
      "note": 86,
      "duration": 0.125,
      "velocity": 100
    },
    {
      "time": 20.75,
      "note": 84,
      "duration": 0.125,
      "velocity": 100
    },
    {
      "time": 20.875,
      "note": 86,
      "duration": 0.25,
      "velocity": 100
    },
    {
      "time": 21.125,
      "note": 84,
      "duration": 0.25,
      "velocity": 100
    },
    {
      "time": 21.375,
      "note": 88,
      "duration": 0.375,
      "velocity": 100
    },
    {
      "time": 21.75,
      "note": 84,
      "duration": 0.125,
      "velocity": 100
    },
    {
      "time": 21.875,
      "note": 88,
      "duration": 0.125,
      "velocity": 100
    },
    {
      "time": 22.0,
      "note": 86,
      "duration": 0.125,
      "velocity": 100
    },
    {
      "time": 22.125,
      "note": 88,
      "duration": 0.125,
      "velocity": 100
    },
    {
      "time": 22.25,
      "note": 86,
      "duration": 0.125,
      "velocity": 100
    },
    {
      "time": 22.375,
      "note": 88,
      "duration": 0.25,
      "velocity": 100
    },
    {
      "time": 22.625,
      "note": 79,
      "duration": 0.125,
      "velocity": 100
    },
    {
      "time": 22.75,
      "note": 81,
      "duration": 0.125,
      "velocity": 100
    },
    {
      "time": 22.875,
      "note": 79,
      "duration": 0.125,
      "velocity": 100
    },
    {
      "time": 23.0,
      "note": 77,
      "duration": 0.125,
      "velocity": 100
    },
    {
      "time": 23.125,
      "note": 76,
      "duration": 0.125,
      "velocity": 100
    },
    {
      "time": 23.25,
      "note": 74,
      "duration": 0.125,
      "velocity": 100
    },
    {
      "time": 23.375,
      "note": 72,
      "duration": 0.25,
      "velocity": 100
    },
    {
      "time": 23.75,
      "note": 79,
      "duration": 0.125,
      "velocity": 100
    },
    {
      "time": 23.875,
      "note": 88,
      "duration": 0.125,
      "velocity": 100
    },
    {
      "time": 24.0,
      "note": 86,
      "duration": 0.125,
      "velocity": 100
    },
    {
      "time": 24.125,
      "note": 84,
      "duration": 0.125,
      "velocity": 100
    },
    {
      "time": 24.25,
      "note": 86,
      "duration": 0.125,
      "velocity": 100
    },
    {
      "time": 24.375,
      "note": 76,
      "duration": 0.5,
      "velocity": 100
    },
    {
      "time": 24.875,
      "note": 86,
      "duration": 0.5,
      "velocity": 100
    },
    {
      "time": 24.875,
      "note": 88,
      "duration": 0.75,
      "velocity": 100
    },
    {
      "time": 25.625,
      "note": 88,
      "duration": 0.375,
      "velocity": 100
    },
    {
      "time": 26.0,
      "note": 79,
      "duration": 0.125,
      "velocity": 100
    },
    {
      "time": 26.125,
      "note": 88,
      "duration": 0.125,
      "velocity": 100
    },
    {
      "time": 26.25,
      "note": 86,
      "duration": 0.125,
      "velocity": 100
    },
    {
      "time": 26.375,
      "note": 84,
      "duration": 0.125,
      "velocity": 100
    },
    {
      "time": 26.5,
      "note": 86,
      "duration": 0.125,
      "velocity": 100
    },
    {
      "time": 26.625,
      "note": 86,
      "duration": 0.25,
      "velocity": 100
    },
    {
      "time": 26.875,
      "note": 84,
      "duration": 0.125,
      "velocity": 100
    },
    {
      "time": 27.0,
      "note": 81,
      "duration": 0.125,
      "velocity": 100
    },
    {
      "time": 27.125,
      "note": 81,
      "duration": 0.5,
      "velocity": 100
    },
    {
      "time": 27.625,
      "note": 81,
      "duration": 0.5,
      "velocity": 100
    },
    {
      "time": 28.5,
      "note": 79,
      "duration": 0.125,
      "velocity": 100
    },
    {
      "time": 28.625,
      "note": 86,
      "duration": 0.125,
      "velocity": 100
    },
    {
      "time": 28.75,
      "note": 84,
      "duration": 0.125,
      "velocity": 100
    },
    {
      "time": 28.875,
      "note": 86,
      "duration": 0.125,
      "velocity": 100
    },
    {
      "time": 29.0,
      "note": 84,
      "duration": 0.125,
      "velocity": 100
    },
    {
      "time": 29.125,
      "note": 86,
      "duration": 0.125,
      "velocity": 100
    },
    {
      "time": 29.25,
      "note": 84,
      "duration": 0.125,
      "velocity": 100
    },
    {
      "time": 29.375,
      "note": 86,
      "duration": 0.125,
      "velocity": 100
    },
    {
      "time": 29.5,
      "note": 84,
      "duration": 0.125,
      "velocity": 100
    },
    {
      "time": 29.625,
      "note": 86,
      "duration": 0.25,
      "velocity": 100
    },
    {
      "time": 29.875,
      "note": 84,
      "duration": 0.125,
      "velocity": 100
    },
    {
      "time": 30.0,
      "note": 86,
      "duration": 0.125,
      "velocity": 100
    },
    {
      "time": 30.125,
      "note": 86,
      "duration": 0.25,
      "velocity": 100
    },
    {
      "time": 30.375,
      "note": 79,
      "duration": 0.125,
      "velocity": 100
    },
    {
      "time": 30.5,
      "note": 86,
      "duration": 0.125,
      "velocity": 100
    },
    {
      "time": 30.625,
      "note": 84,
      "duration": 0.125,
      "velocity": 100
    },
    {
      "time": 30.75,
      "note": 86,
      "duration": 0.125,
      "velocity": 100
    },
    {
      "time": 30.875,
      "note": 84,
      "duration": 0.125,
      "velocity": 100
    },
    {
      "time": 31.0,
      "note": 88,
      "duration": 0.25,
      "velocity": 100
    },
    {
      "time": 31.25,
      "note": 86,
      "duration": 0.125,
      "velocity": 100
    },
    {
      "time": 31.375,
      "note": 84,
      "duration": 0.125,
      "velocity": 100
    },
    {
      "time": 31.5,
      "note": 84,
      "duration": 1.0,
      "velocity": 100
    },
    {
      "time": 32.5,
      "note": 84,
      "duration": 0.5,
      "velocity": 100
    },
    {
      "time": 33.0,
      "note": 88,
      "duration": 0.125,
      "velocity": 100
    },
    {
      "time": 33.125,
      "note": 88,
      "duration": 0.125,
      "velocity": 100
    },
    {
      "time": 33.25,
      "note": 88,
      "duration": 0.125,
      "velocity": 100
    },
    {
      "time": 33.375,
      "note": 88,
      "duration": 0.125,
      "velocity": 100
    },
    {
      "time": 33.5,
      "note": 88,
      "duration": 0.125,
      "velocity": 100
    },
    {
      "time": 33.625,
      "note": 88,
      "duration": 0.125,
      "velocity": 100
    },
    {
      "time": 33.75,
      "note": 84,
      "duration": 0.125,
      "velocity": 100
    },
    {
      "time": 33.875,
      "note": 84,
      "duration": 0.125,
      "velocity": 100
    },
    {
      "time": 34.0,
      "note": 89,
      "duration": 0.25,
      "velocity": 100
    },
    {
      "time": 34.25,
      "note": 88,
      "duration": 0.125,
      "velocity": 100
    },
    {
      "time": 34.375,
      "note": 88,
      "duration": 0.125,
      "velocity": 100
    },
    {
      "time": 34.5,
      "note": 88,
      "duration": 0.5,
      "velocity": 100
    },
    {
      "time": 35.0,
      "note": 88,
      "duration": 0.125,
      "velocity": 100
    },
    {
      "time": 35.125,
      "note": 88,
      "duration": 0.125,
      "velocity": 100
    },
    {
      "time": 35.25,
      "note": 88,
      "duration": 0.125,
      "velocity": 100
    },
    {
      "time": 35.375,
      "note": 88,
      "duration": 0.125,
      "velocity": 100
    },
    {
      "time": 35.5,
      "note": 88,
      "duration": 0.125,
      "velocity": 100
    },
    {
      "time": 35.625,
      "note": 88,
      "duration": 0.125,
      "velocity": 100
    },
    {
      "time": 35.75,
      "note": 84,
      "duration": 0.125,
      "velocity": 100
    },
    {
      "time": 35.875,
      "note": 84,
      "duration": 0.125,
      "velocity": 100
    },
    {
      "time": 36.0,
      "note": 89,
      "duration": 0.25,
      "velocity": 100
    },
    {
      "time": 36.25,
      "note": 88,
      "duration": 0.125,
      "velocity": 100
    },
    {
      "time": 36.375,
      "note": 86,
      "duration": 0.125,
      "velocity": 100
    },
    {
      "time": 36.5,
      "note": 86,
      "duration": 0.5,
      "velocity": 100
    },
    {
      "time": 37.0,
      "note": 86,
      "duration": 0.125,
      "velocity": 100
    },
    {
      "time": 37.125,
      "note": 86,
      "duration": 0.125,
      "velocity": 100
    },
    {
      "time": 37.25,
      "note": 86,
      "duration": 0.125,
      "velocity": 100
    },
    {
      "time": 37.375,
      "note": 86,
      "duration": 0.125,
      "velocity": 100
    },
    {
      "time": 37.5,
      "note": 86,
      "duration": 0.125,
      "velocity": 100
    },
    {
      "time": 37.625,
      "note": 86,
      "duration": 0.125,
      "velocity": 100
    },
    {
      "time": 37.75,
      "note": 83,
      "duration": 0.125,
      "velocity": 100
    },
    {
      "time": 37.875,
      "note": 83,
      "duration": 0.125,
      "velocity": 100
    },
    {
      "time": 38.0,
      "note": 88,
      "duration": 0.25,
      "velocity": 100
    },
    {
      "time": 38.25,
      "note": 86,
      "duration": 0.125,
      "velocity": 100
    },
    {
      "time": 38.375,
      "note": 86,
      "duration": 0.125,
      "velocity": 100
    },
    {
      "time": 38.5,
      "note": 86,
      "duration": 0.5,
      "velocity": 100
    },
    {
      "time": 39.0,
      "note": 86,
      "duration": 0.125,
      "velocity": 100
    },
    {
      "time": 39.125,
      "note": 86,
      "duration": 0.125,
      "velocity": 100
    },
    {
      "time": 39.25,
      "note": 86,
      "duration": 0.125,
      "velocity": 100
    },
    {
      "time": 39.375,
      "note": 86,
      "duration": 0.125,
      "velocity": 100
    },
    {
      "time": 39.5,
      "note": 86,
      "duration": 0.125,
      "velocity": 100
    },
    {
      "time": 39.625,
      "note": 86,
      "duration": 0.125,
      "velocity": 100
    },
    {
      "time": 39.75,
      "note": 83,
      "duration": 0.125,
      "velocity": 100
    },
    {
      "time": 39.875,
      "note": 83,
      "duration": 0.125,
      "velocity": 100
    },
    {
      "time": 40.0,
      "note": 88,
      "duration": 0.25,
      "velocity": 100
    },
    {
      "time": 40.25,
      "note": 86,
      "duration": 0.125,
      "velocity": 100
    },
    {
      "time": 40.375,
      "note": 84,
      "duration": 0.125,
      "velocity": 100
    }
  ],
  "chords": [
    {
      "time": 0.0,
      "notes": [
        60,
        64,
        67
      ],
      "duration": 2.53125
    },
    {
      "time": 2.53125,
      "notes": [
        62,
        65,
        69
      ],
      "duration": 2.53125
    },
    {
      "time": 5.0625,
      "notes": [
        67,
        71,
        74,
        77
      ],
      "duration": 2.53125
    },
    {
      "time": 7.59375,
      "notes": [
        60,
        64,
        67
      ],
      "duration": 2.53125
    },
    {
      "time": 10.125,
      "notes": [
        67,
        71,
        74
      ],
      "duration": 2.53125
    },
    {
      "time": 12.65625,
      "notes": [
        65,
        69,
        72
      ],
      "duration": 2.53125
    },
    {
      "time": 15.1875,
      "notes": [
        67,
        71,
        74,
        77
      ],
      "duration": 2.53125
    },
    {
      "time": 17.71875,
      "notes": [
        60,
        64,
        67
      ],
      "duration": 2.53125
    },
    {
      "time": 20.25,
      "notes": [
        60,
        64,
        67
      ],
      "duration": 2.53125
    },
    {
      "time": 22.78125,
      "notes": [
        67,
        71,
        74,
        77
      ],
      "duration": 2.53125
    },
    {
      "time": 25.3125,
      "notes": [
        60,
        64,
        67
      ],
      "duration": 2.53125
    },
    {
      "time": 27.84375,
      "notes": [
        62,
        65,
        69
      ],
      "duration": 2.53125
    },
    {
      "time": 30.375,
      "notes": [
        67,
        71,
        74,
        77
      ],
      "duration": 2.53125
    },
    {
      "time": 32.90625,
      "notes": [
        60,
        64,
        67
      ],
      "duration": 2.53125
    },
    {
      "time": 35.4375,
      "notes": [
        62,
        65,
        69
      ],
      "duration": 2.53125
    },
    {
      "time": 37.96875,
      "notes": [
        67,
        71,
        74,
        77
      ],
      "duration": 2.53125
    }
  ]
}