{
  "title": "Nadie es perfecto",
  "artist": "Los Caligaris",
  "bpm": 120,
  "duration": 59.75,
  "audioFile": "",
  "notes": [
    {
      "time": 0.25,
      "note": 74,
      "duration": 0.5,
      "velocity": 100
    },
    {
      "time": 0.75,
      "note": 77,
      "duration": 0.5,
      "velocity": 100
    },
    {
      "time": 0.75,
      "note": 82,
      "duration": 0.5,
      "velocity": 100
    },
    {
      "time": 1.0,
      "note": 65,
      "duration": 0.25,
      "velocity": 100
    },
    {
      "time": 1.25,
      "note": 65,
      "duration": 0.25,
      "velocity": 100
    },
    {
      "time": 1.5,
      "note": 66,
      "duration": 0.25,
      "velocity": 100
    },
    {
      "time": 1.75,
      "note": 67,
      "duration": 0.25,
      "velocity": 100
    },
    {
      "time": 2.0,
      "note": 69,
      "duration": 0.25,
      "velocity": 100
    },
    {
      "time": 2.25,
      "note": 70,
      "duration": 0.5,
      "velocity": 100
    },
    {
      "time": 3.0,
      "note": 77,
      "duration": 0.25,
      "velocity": 100
    },
    {
      "time": 3.5,
      "note": 82,
      "duration": 0.25,
      "velocity": 100
    },
    {
      "time": 3.75,
      "note": 82,
      "duration": 0.125,
      "velocity": 100
    },
    {
      "time": 3.875,
      "note": 82,
      "duration": 0.125,
      "velocity": 100
    },
    {
      "time": 4.0,
      "note": 82,
      "duration": 0.25,
      "velocity": 100
    },
    {
      "time": 4.25,
      "note": 82,
      "duration": 0.25,
      "velocity": 100
    },
    {
      "time": 4.5,
      "note": 82,
      "duration": 0.25,
      "velocity": 100
    },
    {
      "time": 4.75,
      "note": 82,
      "duration": 0.125,
      "velocity": 100
    },
    {
      "time": 4.875,
      "note": 82,
      "duration": 0.125,
      "velocity": 100
    },
    {
      "time": 5.0,
      "note": 82,
      "duration": 0.25,
      "velocity": 100
    },
    {
      "time": 5.25,
      "note": 82,
      "duration": 0.25,
      "velocity": 100
    },
    {
      "time": 5.5,
      "note": 82,
      "duration": 0.25,
      "velocity": 100
    },
    {
      "time": 5.75,
      "note": 82,
      "duration": 0.125,
      "velocity": 100
    },
    {
      "time": 5.875,
      "note": 82,
      "duration": 0.125,
      "velocity": 100
    },
    {
      "time": 6.0,
      "note": 82,
      "duration": 0.25,
      "velocity": 100
    },
    {
      "time": 6.25,
      "note": 82,
      "duration": 0.25,
      "velocity": 100
    },
    {
      "time": 6.5,
      "note": 82,
      "duration": 0.25,
      "velocity": 100
    },
    {
      "time": 6.75,
      "note": 77,
      "duration": 0.125,
      "velocity": 100
    },
    {
      "time": 6.875,
      "note": 77,
      "duration": 0.125,
      "velocity": 100
    },
    {
      "time": 7.0,
      "note": 79,
      "duration": 0.25,
      "velocity": 100
    },
    {
      "time": 7.25,
      "note": 77,
      "duration": 0.25,
      "velocity": 100
    },
    {
      "time": 7.5,
      "note": 77,
      "duration": 0.5,
      "velocity": 100
    },
    {
      "time": 9.25,
      "note": 77,
      "duration": 0.25,
      "velocity": 100
    },
    {
      "time": 9.5,
      "note": 81,
      "duration": 0.25,
      "velocity": 100
    },
    {
      "time": 9.75,
      "note": 81,
      "duration": 0.125,
      "velocity": 100
    },
    {
      "time": 9.875,
      "note": 81,
      "duration": 0.125,
      "velocity": 100
    },
    {
      "time": 10.0,
      "note": 81,
      "duration": 0.25,
      "velocity": 100
    },
    {
      "time": 10.25,
      "note": 81,
      "duration": 0.25,
      "velocity": 100
    },
    {
      "time": 10.5,
      "note": 81,
      "duration": 0.25,
      "velocity": 100
    },
    {
      "time": 10.75,
      "note": 81,
      "duration": 0.125,
      "velocity": 100
    },
    {
      "time": 10.875,
      "note": 81,
      "duration": 0.125,
      "velocity": 100
    },
    {
      "time": 11.0,
      "note": 81,
      "duration": 0.25,
      "velocity": 100
    },
    {
      "time": 11.25,
      "note": 81,
      "duration": 0.25,
      "velocity": 100
    },
    {
      "time": 11.5,
      "note": 81,
      "duration": 0.25,
      "velocity": 100
    },
    {
      "time": 11.75,
      "note": 81,
      "duration": 0.125,
      "velocity": 100
    },
    {
      "time": 11.875,
      "note": 81,
      "duration": 0.125,
      "velocity": 100
    },
    {
      "time": 12.0,
      "note": 81,
      "duration": 0.25,
      "velocity": 100
    },
    {
      "time": 12.25,
      "note": 81,
      "duration": 0.25,
      "velocity": 100
    },
    {
      "time": 12.5,
      "note": 81,
      "duration": 0.25,
      "velocity": 100
    },
    {
      "time": 12.75,
      "note": 77,
      "duration": 0.125,
      "velocity": 100
    },
    {
      "time": 12.875,
      "note": 77,
      "duration": 0.125,
      "velocity": 100
    },
    {
      "time": 13.0,
      "note": 79,
      "duration": 0.25,
      "velocity": 100
    },
    {
      "time": 13.25,
      "note": 77,
      "duration": 0.25,
      "velocity": 100
    },
    {
      "time": 13.5,
      "note": 77,
      "duration": 0.5,
      "velocity": 100
    },
    {
      "time": 14.25,
      "note": 77,
      "duration": 0.25,
      "velocity": 100
    },
    {
      "time": 14.5,
      "note": 82,
      "duration": 0.25,
      "velocity": 100
    },
    {
      "time": 14.75,
      "note": 82,
      "duration": 0.125,
      "velocity": 100
    },
    {
      "time": 14.875,
      "note": 82,
      "duration": 0.125,
      "velocity": 100
    },
    {
      "time": 15.0,
      "note": 82,
      "duration": 0.25,
      "velocity": 100
    },
    {
      "time": 15.25,
      "note": 82,
      "duration": 0.25,
      "velocity": 100
    },
    {
      "time": 15.5,
      "note": 82,
      "duration": 0.25,
      "velocity": 100
    },
    {
      "time": 15.75,
      "note": 82,
      "duration": 0.125,
      "velocity": 100
    },
    {
      "time": 15.875,
      "note": 82,
      "duration": 0.125,
      "velocity": 100
    },
    {
      "time": 16.0,
      "note": 82,
      "duration": 0.25,
      "velocity": 100
    },
    {
      "time": 16.25,
      "note": 82,
      "duration": 0.25,
      "velocity": 100
    },
    {
      "time": 16.75,
      "note": 82,
      "duration": 0.25,
      "velocity": 100
    },
    {
      "time": 17.0,
      "note": 82,
      "duration": 0.125,
      "velocity": 100
    },
    {
      "time": 17.125,
      "note": 82,
      "duration": 0.125,
      "velocity": 100
    },
    {
      "time": 17.25,
      "note": 82,
      "duration": 0.25,
      "velocity": 100
    },
    {
      "time": 17.5,
      "note": 82,
      "duration": 0.25,
      "velocity": 100
    },
    {
      "time": 17.75,
      "note": 82,
      "duration": 0.25,
      "velocity": 100
    },
    {
      "time": 18.0,
      "note": 77,
      "duration": 0.125,
      "velocity": 100
    },
    {
      "time": 18.125,
      "note": 77,
      "duration": 0.125,
      "velocity": 100
    },
    {
      "time": 18.25,
      "note": 79,
      "duration": 0.25,
      "velocity": 100
    },
    {
      "time": 18.5,
      "note": 77,
      "duration": 0.25,
      "velocity": 100
    },
    {
      "time": 18.75,
      "note": 77,
      "duration": 0.5,
      "velocity": 100
    },
    {
      "time": 19.5,
      "note": 77,
      "duration": 0.25,
      "velocity": 100
    },
    {
      "time": 19.75,
      "note": 81,
      "duration": 0.25,
      "velocity": 100
    },
    {
      "time": 20.0,
      "note": 81,
      "duration": 0.125,
      "velocity": 100
    },
    {
      "time": 20.125,
      "note": 81,
      "duration": 0.125,
      "velocity": 100
    },
    {
      "time": 20.25,
      "note": 81,
      "duration": 0.25,
      "velocity": 100
    },
    {
      "time": 20.5,
      "note": 81,
      "duration": 0.25,
      "velocity": 100
    },
    {
      "time": 20.75,
      "note": 81,
      "duration": 0.25,
      "velocity": 100
    },
    {
      "time": 21.0,
      "note": 81,
      "duration": 0.125,
      "velocity": 100
    },
    {
      "time": 21.125,
      "note": 81,
      "duration": 0.125,
      "velocity": 100
    },
    {
      "time": 21.25,
      "note": 81,
      "duration": 0.25,
      "velocity": 100
    },
    {
      "time": 21.5,
      "note": 81,
      "duration": 0.25,
      "velocity": 100
    },
    {
      "time": 21.75,
      "note": 81,
      "duration": 0.25,
      "velocity": 100
    },
    {
      "time": 22.0,
      "note": 81,
      "duration": 0.125,
      "velocity": 100
    },
    {
      "time": 22.125,
      "note": 81,
      "duration": 0.125,
      "velocity": 100
    },
    {
      "time": 22.25,
      "note": 81,
      "duration": 0.25,
      "velocity": 100
    },
    {
      "time": 22.5,
      "note": 81,
      "duration": 0.25,
      "velocity": 100
    },
    {
      "time": 22.75,
      "note": 81,
      "duration": 0.25,
      "velocity": 100
    },
    {
      "time": 23.0,
      "note": 77,
      "duration": 0.125,
      "velocity": 100
    },
    {
      "time": 23.125,
      "note": 77,
      "duration": 0.125,
      "velocity": 100
    },
    {
      "time": 23.25,
      "note": 84,
      "duration": 0.25,
      "velocity": 100
    },
    {
      "time": 23.5,
      "note": 81,
      "duration": 0.25,
      "velocity": 100
    },
    {
      "time": 23.75,
      "note": 82,
      "duration": 1.0,
      "velocity": 100
    },
    {
      "time": 25.0,
      "note": 77,
      "duration": 0.25,
      "velocity": 100
    },
    {
      "time": 25.25,
      "note": 82,
      "duration": 0.5,
      "velocity": 100
    },
    {
      "time": 25.75,
      "note": 82,
      "duration": 0.25,
      "velocity": 100
    },
    {
      "time": 26.0,
      "note": 82,
      "duration": 0.25,
      "velocity": 100
    },
    {
      "time": 26.25,
      "note": 81,
      "duration": 0.5,
      "velocity": 100
    },
    {
      "time": 26.75,
      "note": 81,
      "duration": 0.25,
      "velocity": 100
    },
    {
      "time": 27.0,
      "note": 79,
      "duration": 0.25,
      "velocity": 100
    },
    {
      "time": 27.25,
      "note": 79,
      "duration": 0.25,
      "velocity": 100
    },
    {
      "time": 27.5,
      "note": 79,
      "duration": 0.25,
      "velocity": 100
    },
    {
      "time": 28.0,
      "note": 79,
      "duration": 0.25,
      "velocity": 100
    },
    {
      "time": 28.25,
      "note": 78,
      "duration": 0.25,
      "velocity": 100
    },
    {
      "time": 28.5,
      "note": 78,
      "duration": 0.25,
      "velocity": 100
    },
    {
      "time": 28.75,
      "note": 78,
      "duration": 0.25,
      "velocity": 100
    },
    {
      "time": 29.0,
      "note": 78,
      "duration": 0.25,
      "velocity": 100
    },
    {
      "time": 29.25,
      "note": 77,
      "duration": 0.125,
      "velocity": 100
    },
    {
      "time": 29.375,
      "note": 77,
      "duration": 0.25,
      "velocity": 100
    },
    {
      "time": 29.625,
      "note": 77,
      "duration": 0.125,
      "velocity": 100
    },
    {
      "time": 29.75,
      "note": 77,
      "duration": 0.125,
      "velocity": 100
    },
    {
      "time": 29.875,
      "note": 82,
      "duration": 0.25,
      "velocity": 100
    },
    {
      "time": 30.125,
      "note": 77,
      "duration": 0.125,
      "velocity": 100
    },
    {
      "time": 30.25,
      "note": 81,
      "duration": 0.125,
      "velocity": 100
    },
    {
      "time": 30.375,
      "note": 81,
      "duration": 0.125,
      "velocity": 100
    },
    {
      "time": 30.5,
      "note": 77,
      "duration": 0.25,
      "velocity": 100
    },
    {
      "time": 30.75,
      "note": 77,
      "duration": 0.125,
      "velocity": 100
    },
    {
      "time": 30.875,
      "note": 84,
      "duration": 0.125,
      "velocity": 100
    },
    {
      "time": 31.0,
      "note": 77,
      "duration": 0.25,
      "velocity": 100
    },
    {
      "time": 31.25,
      "note": 82,
      "duration": 0.5,
      "velocity": 100
    },
    {
      "time": 31.875,
      "note": 77,
      "duration": 0.25,
      "velocity": 100
    },
    {
      "time": 32.125,
      "note": 82,
      "duration": 0.125,
      "velocity": 100
    },
    {
      "time": 32.25,
      "note": 82,
      "duration": 0.5,
      "velocity": 100
    },
    {
      "time": 33.25,
      "note": 82,
      "duration": 1.0,
      "velocity": 100
    },
    {
      "time": 34.25,
      "note": 81,
      "duration": 1.0,
      "velocity": 100
    },
    {
      "time": 35.25,
      "note": 79,
      "duration": 1.0,
      "velocity": 100
    },
    {
      "time": 36.25,
      "note": 78,
      "duration": 1.0,
      "velocity": 100
    },
    {
      "time": 37.25,
      "note": 77,
      "duration": 0.5,
      "velocity": 100
    },
    {
      "time": 38.25,
      "note": 81,
      "duration": 0.5,
      "velocity": 100
    },
    {
      "time": 39.25,
      "note": 82,
      "duration": 0.5,
      "velocity": 100
    },
    {
      "time": 40.5,
      "note": 78,
      "duration": 0.25,
      "velocity": 100
    },
    {
      "time": 40.75,
      "note": 82,
      "duration": 0.25,
      "velocity": 100
    },
    {
      "time": 40.75,
      "note": 87,
      "duration": 0.25,
      "velocity": 100
    },
    {
      "time": 41.0,
      "note": 78,
      "duration": 0.25,
      "velocity": 100
    },
    {
      "time": 41.25,
      "note": 82,
      "duration": 0.25,
      "velocity": 100
    },
    {
      "time": 41.25,
      "note": 87,
      "duration": 0.25,
      "velocity": 100
    },
    {
      "time": 41.25,
      "note": 77,
      "duration": 0.5,
      "velocity": 100
    },
    {
      "time": 41.75,
      "note": 82,
      "duration": 0.5,
      "velocity": 100
    },
    {
      "time": 41.75,
      "note": 86,
      "duration": 0.5,
      "velocity": 100
    },
    {
      "time": 42.25,
      "note": 74,
      "duration": 1.0,
      "velocity": 100
    },
    {
      "time": 43.25,
      "note": 77,
      "duration": 1.0,
      "velocity": 100
    },
    {
      "time": 43.25,
      "note": 83,
      "duration": 1.0,
      "velocity": 100
    },
    {
      "time": 43.5,
      "note": 82,
      "duration": 0.25,
      "velocity": 100
    },
    {
      "time": 43.75,
      "note": 84,
      "duration": 0.25,
      "velocity": 100
    },
    {
      "time": 44.0,
      "note": 82,
      "duration": 0.25,
      "velocity": 100
    },
    {
      "time": 44.25,
      "note": 82,
      "duration": 0.375,
      "velocity": 100
    },
    {
      "time": 44.625,
      "note": 79,
      "duration": 0.125,
      "velocity": 100
    },
    {
      "time": 44.75,
      "note": 79,
      "duration": 0.5,
      "velocity": 100
    },
    {
      "time": 45.5,
      "note": 82,
      "duration": 0.25,
      "velocity": 100
    },
    {
      "time": 45.75,
      "note": 84,
      "duration": 0.25,
      "velocity": 100
    },
    {
      "time": 46.0,
      "note": 82,
      "duration": 0.25,
      "velocity": 100
    },
    {
      "time": 46.25,
      "note": 86,
      "duration": 0.375,
      "velocity": 100
    },
    {
      "time": 46.625,
      "note": 82,
      "duration": 0.125,
      "velocity": 100
    },
    {
      "time": 46.75,
      "note": 82,
      "duration": 0.5,
      "velocity": 100
    },
    {
      "time": 47.25,
      "note": 79,
      "duration": 0.125,
      "velocity": 100
    },
    {
      "time": 47.375,
      "note": 79,
      "duration": 0.125,
      "velocity": 100
    },
    {
      "time": 47.5,
      "note": 79,
      "duration": 0.125,
      "velocity": 100
    },
    {
      "time": 47.625,
      "note": 77,
      "duration": 0.125,
      "velocity": 100
    },
    {
      "time": 47.75,
      "note": 79,
      "duration": 0.25,
      "velocity": 100
    },
    {
      "time": 48.0,
      "note": 77,
      "duration": 0.125,
      "velocity": 100
    },
    {
      "time": 48.125,
      "note": 81,
      "duration": 0.125,
      "velocity": 100
    },
    {
      "time": 48.375,
      "note": 81,
      "duration": 0.25,
      "velocity": 100
    },
    {
      "time": 48.625,
      "note": 79,
      "duration": 0.125,
      "velocity": 100
    },
    {
      "time": 48.875,
      "note": 79,
      "duration": 0.25,
      "velocity": 100
    },
    {
      "time": 49.125,
      "note": 77,
      "duration": 0.125,
      "velocity": 100
    },
    {
      "time": 49.375,
      "note": 77,
      "duration": 0.25,
      "velocity": 100
    },
    {
      "time": 49.625,
      "note": 77,
      "duration": 0.125,
      "velocity": 100
    },
    {
      "time": 49.75,
      "note": 75,
      "duration": 0.25,
      "velocity": 100
    },
    {
      "time": 50.0,
      "note": 79,
      "duration": 0.125,
      "velocity": 100
    },
    {
      "time": 49.75,
      "note": 75,
      "duration": 0.25,
      "velocity": 100
    },
    {
      "time": 50.0,
      "note": 79,
      "duration": 0.125,
      "velocity": 100
    },
    {
      "time": 50.25,
      "note": 77,
      "duration": 0.375,
      "velocity": 100
    },
    {
      "time": 51.375,
      "note": 74,
      "duration": 0.5,
      "velocity": 100
    },
    {
      "time": 51.875,
      "note": 82,
      "duration": 0.5,
      "velocity": 100
    },
    {
      "time": 51.875,
      "note": 84,
      "duration": 0.25,
      "velocity": 100
    },
    {
      "time": 52.125,
      "note": 82,
      "duration": 0.25,
      "velocity": 100
    },
    {
      "time": 52.375,
      "note": 82,
      "duration": 0.375,
      "velocity": 100
    },
    {
      "time": 52.75,
      "note": 79,
      "duration": 0.125,
      "velocity": 100
    },
    {
      "time": 52.875,
      "note": 79,
      "duration": 0.5,
      "velocity": 100
    },
    {
      "time": 53.625,
      "note": 74,
      "duration": 0.5,
      "velocity": 100
    },
    {
      "time": 54.125,
      "note": 82,
      "duration": 0.5,
      "velocity": 100
    },
    {
      "time": 54.125,
      "note": 84,
      "duration": 0.25,
      "velocity": 100
    },
    {
      "time": 54.375,
      "note": 82,
      "duration": 0.25,
      "velocity": 100
    },
    {
      "time": 54.625,
      "note": 86,
      "duration": 0.375,
      "velocity": 100
    },
    {
      "time": 55.0,
      "note": 82,
      "duration": 0.125,
      "velocity": 100
    },
    {
      "time": 55.125,
      "note": 82,
      "duration": 0.375,
      "velocity": 100
    },
    {
      "time": 55.5,
      "note": 77,
      "duration": 0.125,
      "velocity": 100
    },
    {
      "time": 55.625,
      "note": 79,
      "duration": 0.125,
      "velocity": 100
    },
    {
      "time": 55.75,
      "note": 79,
      "duration": 0.25,
      "velocity": 100
    },
    {
      "time": 56.0,
      "note": 77,
      "duration": 0.125,
      "velocity": 100
    },
    {
      "time": 56.125,
      "note": 79,
      "duration": 0.125,
      "velocity": 100
    },
    {
      "time": 56.25,
      "note": 77,
      "duration": 0.25,
      "velocity": 100
    },
    {
      "time": 56.5,
      "note": 81,
      "duration": 0.125,
      "velocity": 100
    },
    {
      "time": 57.125,
      "note": 79,
      "duration": 0.5,
      "velocity": 100
    },
    {
      "time": 57.625,
      "note": 89,
      "duration": 0.5,
      "velocity": 100
    },
    {
      "time": 56.75,
      "note": 81,
      "duration": 0.5,
      "velocity": 100
    },
    {
      "time": 57.375,
      "note": 79,
      "duration": 0.25,
      "velocity": 100
    },
    {
      "time": 57.625,
      "note": 77,
      "duration": 0.125,
      "velocity": 100
    },
    {
      "time": 57.875,
      "note": 77,
      "duration": 0.25,
      "velocity": 100
    },
    {
      "time": 58.125,
      "note": 75,
      "duration": 0.125,
      "velocity": 100
    },
    {
      "time": 58.375,
      "note": 75,
      "duration": 0.25,
      "velocity": 100
    },
    {
      "time": 58.625,
      "note": 79,
      "duration": 0.125,
      "velocity": 100
    },
    {
      "time": 58.875,
      "note": 79,
      "duration": 0.125,
      "velocity": 100
    },
    {
      "time": 59.0,
      "note": 77,
      "duration": 0.75,
      "velocity": 100
    }
  ],
  "chords": [
    {
      "time": 0.0,
      "notes": [
        70,
        74,
        77
      ],
      "duration": 2.1339285714285716
    },
    {
      "time": 2.1339285714285716,
      "notes": [
        65,
        69,
        72
      ],
      "duration": 2.1339285714285716
    },
    {
      "time": 4.267857142857143,
      "notes": [
        70,
        74,
        77
      ],
      "duration": 2.1339285714285716
    },
    {
      "time": 6.401785714285715,
      "notes": [
        65,
        69,
        72
      ],
      "duration": 2.1339285714285716
    },
    {
      "time": 8.535714285714286,
      "notes": [
        70,
        74,
        77
      ],
      "duration": 2.1339285714285716
    },
    {
      "time": 10.669642857142858,
      "notes": [
        62,
        65,
        68
      ],
      "duration": 2.1339285714285716
    },
    {
      "time": 12.80357142857143,
      "notes": [
        63,
        67,
        70
      ],
      "duration": 2.1339285714285716
    },
    {
      "time": 14.937500000000002,
      "notes": [
        63,
        66,
        70
      ],
      "duration": 2.1339285714285716
    },
    {
      "time": 17.071428571428573,
      "notes": [
        70,
        74,
        77
      ],
      "duration": 2.1339285714285716
    },
    {
      "time": 19.205357142857146,
      "notes": [
        65,
        69,
        72
      ],
      "duration": 2.1339285714285716
    },
    {
      "time": 21.339285714285715,
      "notes": [
        70,
        74,
        77
      ],
      "duration": 2.1339285714285716
    },
    {
      "time": 23.47321428571429,
      "notes": [
        70,
        74,
        77
      ],
      "duration": 2.1339285714285716
    },
    {
      "time": 25.60714285714286,
      "notes": [
        62,
        65,
        68
      ],
      "duration": 2.1339285714285716
    },
    {
      "time": 27.74107142857143,
      "notes": [
        63,
        67,
        70
      ],
      "duration": 2.1339285714285716
    },
    {
      "time": 29.875000000000004,
      "notes": [
        63,
        66,
        70
      ],
      "duration": 2.1339285714285716
    },
    {
      "time": 32.00892857142858,
      "notes": [
        70,
        74,
        77
      ],
      "duration": 2.1339285714285716
    },
    {
      "time": 34.142857142857146,
      "notes": [
        65,
        69,
        72
      ],
      "duration": 2.1339285714285716
    },
    {
      "time": 36.276785714285715,
      "notes": [
        70,
        74,
        77
      ],
      "duration": 2.1339285714285716
    },
    {
      "time": 38.41071428571429,
      "notes": [
        63,
        67,
        70
      ],
      "duration": 2.1339285714285716
    },
    {
      "time": 40.54464285714286,
      "notes": [
        70,
        74,
        77
      ],
      "duration": 2.1339285714285716
    },
    {
      "time": 42.67857142857143,
      "notes": [
        71,
        74,
        77
      ],
      "duration": 2.1339285714285716
    },
    {
      "time": 44.81250000000001,
      "notes": [
        63,
        67,
        70
      ],
      "duration": 2.1339285714285716
    },
    {
      "time": 46.94642857142858,
      "notes": [
        70,
        74,
        77
      ],
      "duration": 2.1339285714285716
    },
    {
      "time": 49.080357142857146,
      "notes": [
        65,
        69,
        72
      ],
      "duration": 2.1339285714285716
    },
    {
      "time": 51.21428571428572,
      "notes": [
        70,
        74,
        77
      ],
      "duration": 2.1339285714285716
    },
    {
      "time": 53.34821428571429,
      "notes": [
        62,
        65,
        68
      ],
      "duration": 2.1339285714285716
    },
    {
      "time": 55.48214285714286,
      "notes": [
        63,
        67,
        70
      ],
      "duration": 2.1339285714285716
    },
    {
      "time": 57.61607142857143,
      "notes": [
        65,
        69,
        72
      ],
      "duration": 2.1339285714285716
    }
  ]
}