{
  "title": "Vamos a bailar",
  "artist": "Yerba Brava",
  "bpm": 120,
  "duration": 46.75,
  "audioFile": "",
  "notes": [
    {
      "time": 0.0,
      "note": 79,
      "duration": 0.25,
      "velocity": 100
    },
    {
      "time": 0.25,
      "note": 79,
      "duration": 0.25,
      "velocity": 100
    },
    {
      "time": 0.5,
      "note": 83,
      "duration": 0.25,
      "velocity": 100
    },
    {
      "time": 0.75,
      "note": 83,
      "duration": 0.25,
      "velocity": 100
    },
    {
      "time": 1.0,
      "note": 86,
      "duration": 0.375,
      "velocity": 100
    },
    {
      "time": 1.375,
      "note": 86,
      "duration": 0.125,
      "velocity": 100
    },
    {
      "time": 1.625,
      "note": 86,
      "duration": 0.125,
      "velocity": 100
    },
    {
      "time": 1.75,
      "note": 83,
      "duration": 0.25,
      "velocity": 100
    },
    {
      "time": 2.0,
      "note": 79,
      "duration": 0.25,
      "velocity": 100
    },
    {
      "time": 2.25,
      "note": 79,
      "duration": 0.25,
      "velocity": 100
    },
    {
      "time": 2.5,
      "note": 83,
      "duration": 0.25,
      "velocity": 100
    },
    {
      "time": 2.75,
      "note": 84,
      "duration": 0.25,
      "velocity": 100
    },
    {
      "time": 3.0,
      "note": 86,
      "duration": 0.375,
      "velocity": 100
    },
    {
      "time": 3.375,
      "note": 86,
      "duration": 0.125,
      "velocity": 100
    },
    {
      "time": 3.625,
      "note": 86,
      "duration": 0.125,
      "velocity": 100
    },
    {
      "time": 3.75,
      "note": 89,
      "duration": 0.25,
      "velocity": 100
    },
    {
      "time": 4.0,
      "note": 79,
      "duration": 0.25,
      "velocity": 100
    },
    {
      "time": 4.25,
      "note": 79,
      "duration": 0.25,
      "velocity": 100
    },
    {
      "time": 4.5,
      "note": 83,
      "duration": 0.25,
      "velocity": 100
    },
    {
      "time": 4.75,
      "note": 84,
      "duration": 0.25,
      "velocity": 100
    },
    {
      "time": 5.0,
      "note": 86,
      "duration": 0.375,
      "velocity": 100
    },
    {
      "time": 5.375,
      "note": 86,
      "duration": 0.125,
      "velocity": 100
    },
    {
      "time": 5.625,
      "note": 86,
      "duration": 0.125,
      "velocity": 100
    },
    {
      "time": 5.75,
      "note": 83,
      "duration": 0.25,
      "velocity": 100
    },
    {
      "time": 6.0,
      "note": 79,
      "duration": 0.25,
      "velocity": 100
    },
    {
      "time": 6.25,
      "note": 79,
      "duration": 0.25,
      "velocity": 100
    },
    {
      "time": 6.5,
      "note": 83,
      "duration": 0.25,
      "velocity": 100
    },
    {
      "time": 6.75,
      "note": 86,
      "duration": 0.25,
      "velocity": 100
    },
    {
      "time": 7.25,
      "note": 77,
      "duration": 1.0,
      "velocity": 100
    },
    {
      "time": 8.25,
      "note": 84,
      "duration": 1.0,
      "velocity": 100
    },
    {
      "time": 7.0,
      "note": 79,
      "duration": 0.25,
      "velocity": 100
    },
    {
      "time": 7.25,
      "note": 79,
      "duration": 0.25,
      "velocity": 100
    },
    {
      "time": 7.5,
      "note": 83,
      "duration": 0.25,
      "velocity": 100
    },
    {
      "time": 7.75,
      "note": 83,
      "duration": 0.25,
      "velocity": 100
    },
    {
      "time": 8.0,
      "note": 86,
      "duration": 0.375,
      "velocity": 100
    },
    {
      "time": 8.375,
      "note": 86,
      "duration": 0.125,
      "velocity": 100
    },
    {
      "time": 8.625,
      "note": 86,
      "duration": 0.125,
      "velocity": 100
    },
    {
      "time": 8.75,
      "note": 83,
      "duration": 0.25,
      "velocity": 100
    },
    {
      "time": 9.0,
      "note": 79,
      "duration": 0.25,
      "velocity": 100
    },
    {
      "time": 9.25,
      "note": 79,
      "duration": 0.25,
      "velocity": 100
    },
    {
      "time": 9.5,
      "note": 83,
      "duration": 0.25,
      "velocity": 100
    },
    {
      "time": 9.75,
      "note": 83,
      "duration": 0.25,
      "velocity": 100
    },
    {
      "time": 10.0,
      "note": 86,
      "duration": 0.375,
      "velocity": 100
    },
    {
      "time": 10.375,
      "note": 86,
      "duration": 0.125,
      "velocity": 100
    },
    {
      "time": 10.625,
      "note": 86,
      "duration": 0.125,
      "velocity": 100
    },
    {
      "time": 10.75,
      "note": 89,
      "duration": 0.25,
      "velocity": 100
    },
    {
      "time": 11.0,
      "note": 79,
      "duration": 0.25,
      "velocity": 100
    },
    {
      "time": 11.25,
      "note": 79,
      "duration": 0.25,
      "velocity": 100
    },
    {
      "time": 11.5,
      "note": 83,
      "duration": 0.25,
      "velocity": 100
    },
    {
      "time": 11.75,
      "note": 79,
      "duration": 0.25,
      "velocity": 100
    },
    {
      "time": 12.0,
      "note": 77,
      "duration": 0.5,
      "velocity": 100
    },
    {
      "time": 12.5,
      "note": 77,
      "duration": 0.125,
      "velocity": 100
    },
    {
      "time": 12.625,
      "note": 89,
      "duration": 0.125,
      "velocity": 100
    },
    {
      "time": 12.75,
      "note": 77,
      "duration": 0.125,
      "velocity": 100
    },
    {
      "time": 12.875,
      "note": 89,
      "duration": 0.125,
      "velocity": 100
    },
    {
      "time": 13.0,
      "note": 79,
      "duration": 1.0,
      "velocity": 100
    },
    {
      "time": 14.0,
      "note": 79,
      "duration": 0.5,
      "velocity": 100
    },
    {
      "time": 14.5,
      "note": 77,
      "duration": 0.125,
      "velocity": 100
    },
    {
      "time": 14.625,
      "note": 89,
      "duration": 0.125,
      "velocity": 100
    },
    {
      "time": 14.75,
      "note": 77,
      "duration": 0.125,
      "velocity": 100
    },
    {
      "time": 14.875,
      "note": 89,
      "duration": 0.125,
      "velocity": 100
    },
    {
      "time": 15.0,
      "note": 79,
      "duration": 1.0,
      "velocity": 100
    },
    {
      "time": 16.0,
      "note": 79,
      "duration": 1.0,
      "velocity": 100
    },
    {
      "time": 17.25,
      "note": 79,
      "duration": 0.5,
      "velocity": 100
    },
    {
      "time": 17.75,
      "note": 74,
      "duration": 0.5,
      "velocity": 100
    },
    {
      "time": 18.5,
      "note": 77,
      "duration": 0.125,
      "velocity": 100
    },
    {
      "time": 18.625,
      "note": 81,
      "duration": 0.125,
      "velocity": 100
    },
    {
      "time": 18.75,
      "note": 79,
      "duration": 0.25,
      "velocity": 100
    },
    {
      "time": 19.0,
      "note": 77,
      "duration": 0.25,
      "velocity": 100
    },
    {
      "time": 19.25,
      "note": 79,
      "duration": 0.25,
      "velocity": 100
    },
    {
      "time": 19.5,
      "note": 77,
      "duration": 0.25,
      "velocity": 100
    },
    {
      "time": 19.75,
      "note": 74,
      "duration": 0.5,
      "velocity": 100
    },
    {
      "time": 20.5,
      "note": 77,
      "duration": 0.125,
      "velocity": 100
    },
    {
      "time": 20.625,
      "note": 81,
      "duration": 0.125,
      "velocity": 100
    },
    {
      "time": 20.75,
      "note": 79,
      "duration": 0.25,
      "velocity": 100
    },
    {
      "time": 21.0,
      "note": 77,
      "duration": 0.125,
      "velocity": 100
    },
    {
      "time": 21.125,
      "note": 79,
      "duration": 0.125,
      "velocity": 100
    },
    {
      "time": 21.375,
      "note": 79,
      "duration": 0.125,
      "velocity": 100
    },
    {
      "time": 21.5,
      "note": 79,
      "duration": 0.125,
      "velocity": 100
    },
    {
      "time": 21.625,
      "note": 77,
      "duration": 0.125,
      "velocity": 100
    },
    {
      "time": 21.75,
      "note": 74,
      "duration": 0.25,
      "velocity": 100
    },
    {
      "time": 22.0,
      "note": 77,
      "duration": 0.125,
      "velocity": 100
    },
    {
      "time": 22.125,
      "note": 79,
      "duration": 0.125,
      "velocity": 100
    },
    {
      "time": 22.375,
      "note": 77,
      "duration": 0.125,
      "velocity": 100
    },
    {
      "time": 22.5,
      "note": 77,
      "duration": 0.125,
      "velocity": 100
    },
    {
      "time": 22.625,
      "note": 81,
      "duration": 0.125,
      "velocity": 100
    },
    {
      "time": 22.75,
      "note": 79,
      "duration": 0.25,
      "velocity": 100
    },
    {
      "time": 23.0,
      "note": 77,
      "duration": 0.125,
      "velocity": 100
    },
    {
      "time": 23.125,
      "note": 79,
      "duration": 0.125,
      "velocity": 100
    },
    {
      "time": 23.375,
      "note": 79,
      "duration": 0.125,
      "velocity": 100
    },
    {
      "time": 23.5,
      "note": 79,
      "duration": 0.125,
      "velocity": 100
    },
    {
      "time": 23.625,
      "note": 77,
      "duration": 0.125,
      "velocity": 100
    },
    {
      "time": 23.75,
      "note": 74,
      "duration": 0.25,
      "velocity": 100
    },
    {
      "time": 24.0,
      "note": 77,
      "duration": 0.25,
      "velocity": 100
    },
    {
      "time": 24.25,
      "note": 81,
      "duration": 0.5,
      "velocity": 100
    },
    {
      "time": 24.75,
      "note": 77,
      "duration": 0.5,
      "velocity": 100
    },
    {
      "time": 25.25,
      "note": 79,
      "duration": 1.0,
      "velocity": 100
    },
    {
      "time": 26.25,
      "note": 77,
      "duration": 1.0,
      "velocity": 100
    },
    {
      "time": 27.25,
      "note": 79,
      "duration": 1.0,
      "velocity": 100
    },
    {
      "time": 28.25,
      "note": 79,
      "duration": 0.5,
      "velocity": 100
    },
    {
      "time": 30.125,
      "note": 74,
      "duration": 0.125,
      "velocity": 100
    },
    {
      "time": 30.5,
      "note": 79,
      "duration": 0.25,
      "velocity": 100
    },
    {
      "time": 30.75,
      "note": 79,
      "duration": 0.125,
      "velocity": 100
    },
    {
      "time": 30.875,
      "note": 79,
      "duration": 0.125,
      "velocity": 100
    },
    {
      "time": 31.0,
      "note": 79,
      "duration": 0.125,
      "velocity": 100
    },
    {
      "time": 31.125,
      "note": 79,
      "duration": 0.125,
      "velocity": 100
    },
    {
      "time": 31.25,
      "note": 79,
      "duration": 0.125,
      "velocity": 100
    },
    {
      "time": 31.375,
      "note": 79,
      "duration": 0.125,
      "velocity": 100
    },
    {
      "time": 31.5,
      "note": 77,
      "duration": 0.25,
      "velocity": 100
    },
    {
      "time": 31.75,
      "note": 81,
      "duration": 0.25,
      "velocity": 100
    },
    {
      "time": 32.0,
      "note": 79,
      "duration": 0.25,
      "velocity": 100
    },
    {
      "time": 32.25,
      "note": 79,
      "duration": 0.125,
      "velocity": 100
    },
    {
      "time": 32.375,
      "note": 74,
      "duration": 0.125,
      "velocity": 100
    },
    {
      "time": 32.5,
      "note": 79,
      "duration": 0.25,
      "velocity": 100
    },
    {
      "time": 32.75,
      "note": 79,
      "duration": 0.125,
      "velocity": 100
    },
    {
      "time": 32.875,
      "note": 79,
      "duration": 0.125,
      "velocity": 100
    },
    {
      "time": 33.0,
      "note": 79,
      "duration": 0.125,
      "velocity": 100
    },
    {
      "time": 33.125,
      "note": 79,
      "duration": 0.125,
      "velocity": 100
    },
    {
      "time": 33.25,
      "note": 79,
      "duration": 0.125,
      "velocity": 100
    },
    {
      "time": 33.375,
      "note": 79,
      "duration": 0.125,
      "velocity": 100
    },
    {
      "time": 33.5,
      "note": 77,
      "duration": 0.25,
      "velocity": 100
    },
    {
      "time": 33.75,
      "note": 81,
      "duration": 0.25,
      "velocity": 100
    },
    {
      "time": 34.0,
      "note": 79,
      "duration": 0.25,
      "velocity": 100
    },
    {
      "time": 34.25,
      "note": 79,
      "duration": 0.125,
      "velocity": 100
    },
    {
      "time": 34.375,
      "note": 74,
      "duration": 0.125,
      "velocity": 100
    },
    {
      "time": 34.5,
      "note": 79,
      "duration": 0.25,
      "velocity": 100
    },
    {
      "time": 34.75,
      "note": 79,
      "duration": 0.25,
      "velocity": 100
    },
    {
      "time": 35.0,
      "note": 79,
      "duration": 0.125,
      "velocity": 100
    },
    {
      "time": 35.125,
      "note": 79,
      "duration": 0.125,
      "velocity": 100
    },
    {
      "time": 35.25,
      "note": 79,
      "duration": 0.25,
      "velocity": 100
    },
    {
      "time": 35.5,
      "note": 77,
      "duration": 0.125,
      "velocity": 100
    },
    {
      "time": 35.625,
      "note": 77,
      "duration": 0.125,
      "velocity": 100
    },
    {
      "time": 35.75,
      "note": 77,
      "duration": 0.125,
      "velocity": 100
    },
    {
      "time": 35.875,
      "note": 81,
      "duration": 0.125,
      "velocity": 100
    },
    {
      "time": 36.0,
      "note": 79,
      "duration": 0.25,
      "velocity": 100
    },
    {
      "time": 36.25,
      "note": 81,
      "duration": 0.25,
      "velocity": 100
    },
    {
      "time": 36.5,
      "note": 79,
      "duration": 0.5,
      "velocity": 100
    },
    {
      "time": 38.25,
      "note": 81,
      "duration": 0.25,
      "velocity": 100
    },
    {
      "time": 38.75,
      "note": 79,
      "duration": 0.5,
      "velocity": 100
    },
    {
      "time": 40.625,
      "note": 74,
      "duration": 0.5,
      "velocity": 100
    },
    {
      "time": 39.75,
      "note": 77,
      "duration": 0.25,
      "velocity": 100
    },
    {
      "time": 40.0,
      "note": 77,
      "duration": 0.125,
      "velocity": 100
    },
    {
      "time": 40.125,
      "note": 81,
      "duration": 0.125,
      "velocity": 100
    },
    {
      "time": 40.25,
      "note": 79,
      "duration": 0.25,
      "velocity": 100
    },
    {
      "time": 40.5,
      "note": 79,
      "duration": 0.125,
      "velocity": 100
    },
    {
      "time": 40.625,
      "note": 74,
      "duration": 0.125,
      "velocity": 100
    },
    {
      "time": 40.75,
      "note": 79,
      "duration": 0.25,
      "velocity": 100
    },
    {
      "time": 41.0,
      "note": 79,
      "duration": 0.25,
      "velocity": 100
    },
    {
      "time": 41.25,
      "note": 79,
      "duration": 0.25,
      "velocity": 100
    },
    {
      "time": 41.5,
      "note": 79,
      "duration": 0.25,
      "velocity": 100
    },
    {
      "time": 41.75,
      "note": 77,
      "duration": 0.25,
      "velocity": 100
    },
    {
      "time": 42.0,
      "note": 77,
      "duration": 0.125,
      "velocity": 100
    },
    {
      "time": 42.125,
      "note": 81,
      "duration": 0.125,
      "velocity": 100
    },
    {
      "time": 42.25,
      "note": 79,
      "duration": 0.25,
      "velocity": 100
    },
    {
      "time": 42.5,
      "note": 79,
      "duration": 0.125,
      "velocity": 100
    },
    {
      "time": 42.625,
      "note": 74,
      "duration": 0.125,
      "velocity": 100
    },
    {
      "time": 42.75,
      "note": 79,
      "duration": 0.125,
      "velocity": 100
    },
    {
      "time": 42.875,
      "note": 79,
      "duration": 0.125,
      "velocity": 100
    },
    {
      "time": 43.0,
      "note": 79,
      "duration": 0.125,
      "velocity": 100
    },
    {
      "time": 43.125,
      "note": 79,
      "duration": 0.125,
      "velocity": 100
    },
    {
      "time": 43.25,
      "note": 79,
      "duration": 0.25,
      "velocity": 100
    },
    {
      "time": 43.5,
      "note": 79,
      "duration": 0.25,
      "velocity": 100
    },
    {
      "time": 43.75,
      "note": 77,
      "duration": 0.125,
      "velocity": 100
    },
    {
      "time": 43.875,
      "note": 77,
      "duration": 0.125,
      "velocity": 100
    },
    {
      "time": 44.0,
      "note": 77,
      "duration": 0.125,
      "velocity": 100
    },
    {
      "time": 44.125,
      "note": 77,
      "duration": 0.125,
      "velocity": 100
    },
    {
      "time": 44.25,
      "note": 77,
      "duration": 0.25,
      "velocity": 100
    },
    {
      "time": 44.5,
      "note": 81,
      "duration": 0.25,
      "velocity": 100
    },
    {
      "time": 44.75,
      "note": 79,
      "duration": 0.5,
      "velocity": 100
    },
    {
      "time": 46.5,
      "note": 81,
      "duration": 0.25,
      "velocity": 100
    }
  ],
  "chords": [
    {
      "time": 0.0,
      "notes": [
        67,
        71,
        74
      ],
      "duration": 6.678571428571429
    },
    {
      "time": 6.678571428571429,
      "notes": [
        65,
        69,
        72
      ],
      "duration": 6.678571428571429
    },
    {
      "time": 13.357142857142858,
      "notes": [
        67,
        71,
        74
      ],
      "duration": 6.678571428571429
    },
    {
      "time": 20.035714285714285,
      "notes": [
        65,
        69,
        72
      ],
      "duration": 6.678571428571429
    },
    {
      "time": 26.714285714285715,
      "notes": [
        67,
        71,
        74
      ],
      "duration": 6.678571428571429
    },
    {
      "time": 33.392857142857146,
      "notes": [
        65,
        69,
        72
      ],
      "duration": 6.678571428571429
    },
    {
      "time": 40.07142857142857,
      "notes": [
        67,
        71,
        74
      ],
      "duration": 6.678571428571429
    }
  ]
}