{
  "title": "Ahora tu",
  "artist": "La Nueva Luna",
  "bpm": 120,
  "duration": 37.125,
  "audioFile": "",
  "notes": [
    {
      "time": 0.125,
      "note": 86,
      "duration": 0.125,
      "velocity": 100
    },
    {
      "time": 0.25,
      "note": 82,
      "duration": 0.125,
      "velocity": 100
    },
    {
      "time": 0.375,
      "note": 86,
      "duration": 0.125,
      "velocity": 100
    },
    {
      "time": 0.5,
      "note": 79,
      "duration": 0.25,
      "velocity": 100
    },
    {
      "time": 0.75,
      "note": 79,
      "duration": 0.125,
      "velocity": 100
    },
    {
      "time": 0.875,
      "note": 79,
      "duration": 0.125,
      "velocity": 100
    },
    {
      "time": 1.0,
      "note": 82,
      "duration": 0.125,
      "velocity": 100
    },
    {
      "time": 1.125,
      "note": 79,
      "duration": 0.125,
      "velocity": 100
    },
    {
      "time": 1.25,
      "note": 82,
      "duration": 0.125,
      "velocity": 100
    },
    {
      "time": 1.375,
      "note": 79,
      "duration": 0.125,
      "velocity": 100
    },
    {
      "time": 1.5,
      "note": 86,
      "duration": 0.125,
      "velocity": 100
    },
    {
      "time": 1.625,
      "note": 86,
      "duration": 0.125,
      "velocity": 100
    },
    {
      "time": 1.75,
      "note": 82,
      "duration": 0.125,
      "velocity": 100
    },
    {
      "time": 1.875,
      "note": 79,
      "duration": 0.125,
      "velocity": 100
    },
    {
      "time": 2.125,
      "note": 86,
      "duration": 0.125,
      "velocity": 100
    },
    {
      "time": 2.25,
      "note": 82,
      "duration": 0.125,
      "velocity": 100
    },
    {
      "time": 2.375,
      "note": 86,
      "duration": 0.125,
      "velocity": 100
    },
    {
      "time": 2.5,
      "note": 79,
      "duration": 0.25,
      "velocity": 100
    },
    {
      "time": 2.75,
      "note": 79,
      "duration": 0.125,
      "velocity": 100
    },
    {
      "time": 2.875,
      "note": 79,
      "duration": 0.125,
      "velocity": 100
    },
    {
      "time": 3.0,
      "note": 82,
      "duration": 0.125,
      "velocity": 100
    },
    {
      "time": 3.125,
      "note": 79,
      "duration": 0.125,
      "velocity": 100
    },
    {
      "time": 3.25,
      "note": 82,
      "duration": 0.125,
      "velocity": 100
    },
    {
      "time": 3.375,
      "note": 79,
      "duration": 0.125,
      "velocity": 100
    },
    {
      "time": 3.5,
      "note": 86,
      "duration": 0.25,
      "velocity": 100
    },
    {
      "time": 3.75,
      "note": 79,
      "duration": 0.125,
      "velocity": 100
    },
    {
      "time": 3.875,
      "note": 79,
      "duration": 0.125,
      "velocity": 100
    },
    {
      "time": 4.0,
      "note": 82,
      "duration": 0.125,
      "velocity": 100
    },
    {
      "time": 4.125,
      "note": 79,
      "duration": 0.125,
      "velocity": 100
    },
    {
      "time": 4.25,
      "note": 82,
      "duration": 0.125,
      "velocity": 100
    },
    {
      "time": 4.375,
      "note": 79,
      "duration": 0.125,
      "velocity": 100
    },
    {
      "time": 4.5,
      "note": 86,
      "duration": 0.25,
      "velocity": 100
    },
    {
      "time": 4.75,
      "note": 79,
      "duration": 0.125,
      "velocity": 100
    },
    {
      "time": 4.875,
      "note": 79,
      "duration": 0.125,
      "velocity": 100
    },
    {
      "time": 5.0,
      "note": 82,
      "duration": 0.125,
      "velocity": 100
    },
    {
      "time": 5.125,
      "note": 79,
      "duration": 0.125,
      "velocity": 100
    },
    {
      "time": 5.25,
      "note": 86,
      "duration": 0.125,
      "velocity": 100
    },
    {
      "time": 5.375,
      "note": 79,
      "duration": 0.125,
      "velocity": 100
    },
    {
      "time": 5.5,
      "note": 79,
      "duration": 1.0,
      "velocity": 100
    },
    {
      "time": 6.5,
      "note": 82,
      "duration": 1.0,
      "velocity": 100
    },
    {
      "time": 6.75,
      "note": 84,
      "duration": 1.0,
      "velocity": 100
    },
    {
      "time": 7.75,
      "note": 74,
      "duration": 0.125,
      "velocity": 100
    },
    {
      "time": 7.875,
      "note": 77,
      "duration": 0.125,
      "velocity": 100
    },
    {
      "time": 8.0,
      "note": 79,
      "duration": 0.125,
      "velocity": 100
    },
    {
      "time": 8.125,
      "note": 82,
      "duration": 0.125,
      "velocity": 100
    },
    {
      "time": 8.25,
      "note": 74,
      "duration": 0.125,
      "velocity": 100
    },
    {
      "time": 8.375,
      "note": 77,
      "duration": 0.125,
      "velocity": 100
    },
    {
      "time": 8.5,
      "note": 79,
      "duration": 0.125,
      "velocity": 100
    },
    {
      "time": 8.625,
      "note": 82,
      "duration": 0.125,
      "velocity": 100
    },
    {
      "time": 9.5,
      "note": 88,
      "duration": 0.25,
      "velocity": 100
    },
    {
      "time": 9.75,
      "note": 89,
      "duration": 0.25,
      "velocity": 100
    },
    {
      "time": 8.75,
      "note": 81,
      "duration": 0.125,
      "velocity": 100
    },
    {
      "time": 8.875,
      "note": 81,
      "duration": 0.125,
      "velocity": 100
    },
    {
      "time": 9.0,
      "note": 81,
      "duration": 0.125,
      "velocity": 100
    },
    {
      "time": 9.125,
      "note": 84,
      "duration": 0.125,
      "velocity": 100
    },
    {
      "time": 9.25,
      "note": 74,
      "duration": 0.125,
      "velocity": 100
    },
    {
      "time": 9.375,
      "note": 77,
      "duration": 0.125,
      "velocity": 100
    },
    {
      "time": 9.5,
      "note": 79,
      "duration": 0.125,
      "velocity": 100
    },
    {
      "time": 9.625,
      "note": 82,
      "duration": 0.125,
      "velocity": 100
    },
    {
      "time": 9.75,
      "note": 79,
      "duration": 0.375,
      "velocity": 100
    },
    {
      "time": 10.125,
      "note": 77,
      "duration": 0.125,
      "velocity": 100
    },
    {
      "time": 11.0,
      "note": 84,
      "duration": 0.5,
      "velocity": 100
    },
    {
      "time": 10.25,
      "note": 77,
      "duration": 0.125,
      "velocity": 100
    },
    {
      "time": 10.375,
      "note": 77,
      "duration": 0.25,
      "velocity": 100
    },
    {
      "time": 10.625,
      "note": 81,
      "duration": 0.125,
      "velocity": 100
    },
    {
      "time": 10.75,
      "note": 84,
      "duration": 1.0,
      "velocity": 100
    },
    {
      "time": 11.75,
      "note": 77,
      "duration": 0.125,
      "velocity": 100
    },
    {
      "time": 11.875,
      "note": 79,
      "duration": 0.125,
      "velocity": 100
    },
    {
      "time": 12.0,
      "note": 82,
      "duration": 0.125,
      "velocity": 100
    },
    {
      "time": 12.125,
      "note": 86,
      "duration": 0.125,
      "velocity": 100
    },
    {
      "time": 12.25,
      "note": 77,
      "duration": 0.125,
      "velocity": 100
    },
    {
      "time": 12.375,
      "note": 79,
      "duration": 0.125,
      "velocity": 100
    },
    {
      "time": 12.5,
      "note": 82,
      "duration": 0.125,
      "velocity": 100
    },
    {
      "time": 12.625,
      "note": 86,
      "duration": 0.125,
      "velocity": 100
    },
    {
      "time": 12.75,
      "note": 88,
      "duration": 0.125,
      "velocity": 100
    },
    {
      "time": 12.875,
      "note": 88,
      "duration": 0.125,
      "velocity": 100
    },
    {
      "time": 13.0,
      "note": 88,
      "duration": 0.125,
      "velocity": 100
    },
    {
      "time": 13.125,
      "note": 84,
      "duration": 0.125,
      "velocity": 100
    },
    {
      "time": 13.25,
      "note": 81,
      "duration": 0.25,
      "velocity": 100
    },
    {
      "time": 13.5,
      "note": 77,
      "duration": 0.25,
      "velocity": 100
    },
    {
      "time": 13.75,
      "note": 82,
      "duration": 0.25,
      "velocity": 100
    },
    {
      "time": 14.0,
      "note": 81,
      "duration": 0.125,
      "velocity": 100
    },
    {
      "time": 14.125,
      "note": 79,
      "duration": 0.125,
      "velocity": 100
    },
    {
      "time": 14.25,
      "note": 79,
      "duration": 0.5,
      "velocity": 100
    },
    {
      "time": 14.75,
      "note": 79,
      "duration": 0.125,
      "velocity": 100
    },
    {
      "time": 14.875,
      "note": 74,
      "duration": 0.125,
      "velocity": 100
    },
    {
      "time": 15.0,
      "note": 74,
      "duration": 0.125,
      "velocity": 100
    },
    {
      "time": 15.125,
      "note": 74,
      "duration": 0.125,
      "velocity": 100
    },
    {
      "time": 15.25,
      "note": 76,
      "duration": 0.25,
      "velocity": 100
    },
    {
      "time": 15.5,
      "note": 77,
      "duration": 0.25,
      "velocity": 100
    },
    {
      "time": 16.0,
      "note": 84,
      "duration": 1.0,
      "velocity": 100
    },
    {
      "time": 17.0,
      "note": 79,
      "duration": 0.25,
      "velocity": 100
    },
    {
      "time": 17.375,
      "note": 74,
      "duration": 0.125,
      "velocity": 100
    },
    {
      "time": 17.5,
      "note": 82,
      "duration": 0.125,
      "velocity": 100
    },
    {
      "time": 17.625,
      "note": 82,
      "duration": 0.125,
      "velocity": 100
    },
    {
      "time": 17.75,
      "note": 82,
      "duration": 0.125,
      "velocity": 100
    },
    {
      "time": 17.875,
      "note": 82,
      "duration": 0.125,
      "velocity": 100
    },
    {
      "time": 18.0,
      "note": 82,
      "duration": 0.125,
      "velocity": 100
    },
    {
      "time": 18.125,
      "note": 79,
      "duration": 0.25,
      "velocity": 100
    },
    {
      "time": 18.375,
      "note": 74,
      "duration": 0.125,
      "velocity": 100
    },
    {
      "time": 18.5,
      "note": 82,
      "duration": 0.125,
      "velocity": 100
    },
    {
      "time": 18.625,
      "note": 82,
      "duration": 0.125,
      "velocity": 100
    },
    {
      "time": 18.75,
      "note": 82,
      "duration": 0.125,
      "velocity": 100
    },
    {
      "time": 18.875,
      "note": 82,
      "duration": 0.125,
      "velocity": 100
    },
    {
      "time": 19.0,
      "note": 82,
      "duration": 0.125,
      "velocity": 100
    },
    {
      "time": 19.125,
      "note": 79,
      "duration": 0.25,
      "velocity": 100
    },
    {
      "time": 19.375,
      "note": 74,
      "duration": 0.125,
      "velocity": 100
    },
    {
      "time": 19.5,
      "note": 74,
      "duration": 0.125,
      "velocity": 100
    },
    {
      "time": 19.625,
      "note": 74,
      "duration": 0.125,
      "velocity": 100
    },
    {
      "time": 19.75,
      "note": 88,
      "duration": 0.125,
      "velocity": 100
    },
    {
      "time": 19.875,
      "note": 88,
      "duration": 0.125,
      "velocity": 100
    },
    {
      "time": 20.375,
      "note": 65,
      "duration": 0.25,
      "velocity": 100
    },
    {
      "time": 20.625,
      "note": 65,
      "duration": 0.25,
      "velocity": 100
    },
    {
      "time": 20.875,
      "note": 69,
      "duration": 0.25,
      "velocity": 100
    },
    {
      "time": 21.125,
      "note": 72,
      "duration": 0.125,
      "velocity": 100
    },
    {
      "time": 21.25,
      "note": 77,
      "duration": 0.125,
      "velocity": 100
    },
    {
      "time": 20.0,
      "note": 84,
      "duration": 1.0,
      "velocity": 100
    },
    {
      "time": 21.0,
      "note": 77,
      "duration": 0.25,
      "velocity": 100
    },
    {
      "time": 21.25,
      "note": 75,
      "duration": 0.25,
      "velocity": 100
    },
    {
      "time": 21.5,
      "note": 75,
      "duration": 0.25,
      "velocity": 100
    },
    {
      "time": 21.75,
      "note": 75,
      "duration": 0.125,
      "velocity": 100
    },
    {
      "time": 21.875,
      "note": 69,
      "duration": 0.125,
      "velocity": 100
    },
    {
      "time": 22.0,
      "note": 72,
      "duration": 0.125,
      "velocity": 100
    },
    {
      "time": 22.125,
      "note": 69,
      "duration": 0.125,
      "velocity": 100
    },
    {
      "time": 21.75,
      "note": 81,
      "duration": 0.125,
      "velocity": 100
    },
    {
      "time": 21.875,
      "note": 81,
      "duration": 0.125,
      "velocity": 100
    },
    {
      "time": 22.0,
      "note": 81,
      "duration": 0.125,
      "velocity": 100
    },
    {
      "time": 22.125,
      "note": 81,
      "duration": 0.125,
      "velocity": 100
    },
    {
      "time": 22.25,
      "note": 81,
      "duration": 0.125,
      "velocity": 100
    },
    {
      "time": 22.375,
      "note": 77,
      "duration": 0.25,
      "velocity": 100
    },
    {
      "time": 22.625,
      "note": 75,
      "duration": 0.125,
      "velocity": 100
    },
    {
      "time": 22.75,
      "note": 81,
      "duration": 0.125,
      "velocity": 100
    },
    {
      "time": 22.875,
      "note": 81,
      "duration": 0.125,
      "velocity": 100
    },
    {
      "time": 23.0,
      "note": 81,
      "duration": 0.125,
      "velocity": 100
    },
    {
      "time": 23.125,
      "note": 81,
      "duration": 0.125,
      "velocity": 100
    },
    {
      "time": 23.25,
      "note": 81,
      "duration": 0.125,
      "velocity": 100
    },
    {
      "time": 23.375,
      "note": 77,
      "duration": 0.25,
      "velocity": 100
    },
    {
      "time": 23.625,
      "note": 75,
      "duration": 0.125,
      "velocity": 100
    },
    {
      "time": 23.75,
      "note": 75,
      "duration": 0.125,
      "velocity": 100
    },
    {
      "time": 23.875,
      "note": 75,
      "duration": 0.125,
      "velocity": 100
    },
    {
      "time": 24.0,
      "note": 84,
      "duration": 0.125,
      "velocity": 100
    },
    {
      "time": 24.125,
      "note": 86,
      "duration": 0.125,
      "velocity": 100
    },
    {
      "time": 24.25,
      "note": 82,
      "duration": 0.5,
      "velocity": 100
    },
    {
      "time": 24.75,
      "note": 79,
      "duration": 0.25,
      "velocity": 100
    },
    {
      "time": 25.0,
      "note": 79,
      "duration": 0.25,
      "velocity": 100
    },
    {
      "time": 24.625,
      "note": 84,
      "duration": 1.0,
      "velocity": 100
    },
    {
      "time": 25.75,
      "note": 79,
      "duration": 0.125,
      "velocity": 100
    },
    {
      "time": 25.875,
      "note": 81,
      "duration": 0.125,
      "velocity": 100
    },
    {
      "time": 26.0,
      "note": 82,
      "duration": 0.125,
      "velocity": 100
    },
    {
      "time": 26.125,
      "note": 81,
      "duration": 0.125,
      "velocity": 100
    },
    {
      "time": 26.25,
      "note": 79,
      "duration": 0.125,
      "velocity": 100
    },
    {
      "time": 26.375,
      "note": 81,
      "duration": 0.125,
      "velocity": 100
    },
    {
      "time": 26.5,
      "note": 82,
      "duration": 0.125,
      "velocity": 100
    },
    {
      "time": 26.625,
      "note": 77,
      "duration": 0.25,
      "velocity": 100
    },
    {
      "time": 26.875,
      "note": 77,
      "duration": 0.25,
      "velocity": 100
    },
    {
      "time": 27.125,
      "note": 77,
      "duration": 0.125,
      "velocity": 100
    },
    {
      "time": 27.25,
      "note": 76,
      "duration": 0.125,
      "velocity": 100
    },
    {
      "time": 27.375,
      "note": 77,
      "duration": 0.125,
      "velocity": 100
    },
    {
      "time": 27.5,
      "note": 79,
      "duration": 0.125,
      "velocity": 100
    },
    {
      "time": 27.75,
      "note": 79,
      "duration": 0.125,
      "velocity": 100
    },
    {
      "time": 27.875,
      "note": 81,
      "duration": 0.125,
      "velocity": 100
    },
    {
      "time": 28.0,
      "note": 82,
      "duration": 0.125,
      "velocity": 100
    },
    {
      "time": 28.125,
      "note": 81,
      "duration": 0.125,
      "velocity": 100
    },
    {
      "time": 28.25,
      "note": 79,
      "duration": 0.125,
      "velocity": 100
    },
    {
      "time": 28.375,
      "note": 81,
      "duration": 0.125,
      "velocity": 100
    },
    {
      "time": 28.5,
      "note": 82,
      "duration": 0.125,
      "velocity": 100
    },
    {
      "time": 28.625,
      "note": 76,
      "duration": 0.125,
      "velocity": 100
    },
    {
      "time": 28.75,
      "note": 76,
      "duration": 0.375,
      "velocity": 100
    },
    {
      "time": 29.125,
      "note": 76,
      "duration": 0.5,
      "velocity": 100
    },
    {
      "time": 29.625,
      "note": 77,
      "duration": 0.125,
      "velocity": 100
    },
    {
      "time": 29.75,
      "note": 77,
      "duration": 0.375,
      "velocity": 100
    },
    {
      "time": 30.125,
      "note": 77,
      "duration": 0.5,
      "velocity": 100
    },
    {
      "time": 30.875,
      "note": 84,
      "duration": 1.0,
      "velocity": 100
    },
    {
      "time": 30.625,
      "note": 86,
      "duration": 0.375,
      "velocity": 100
    },
    {
      "time": 31.0,
      "note": 79,
      "duration": 0.125,
      "velocity": 100
    },
    {
      "time": 31.125,
      "note": 86,
      "duration": 0.125,
      "velocity": 100
    },
    {
      "time": 31.25,
      "note": 86,
      "duration": 0.25,
      "velocity": 100
    },
    {
      "time": 31.5,
      "note": 86,
      "duration": 0.125,
      "velocity": 100
    },
    {
      "time": 31.625,
      "note": 86,
      "duration": 0.375,
      "velocity": 100
    },
    {
      "time": 32.0,
      "note": 79,
      "duration": 0.125,
      "velocity": 100
    },
    {
      "time": 32.125,
      "note": 86,
      "duration": 0.25,
      "velocity": 100
    },
    {
      "time": 32.375,
      "note": 86,
      "duration": 0.25,
      "velocity": 100
    },
    {
      "time": 32.625,
      "note": 86,
      "duration": 0.25,
      "velocity": 100
    },
    {
      "time": 32.875,
      "note": 86,
      "duration": 0.25,
      "velocity": 100
    },
    {
      "time": 33.125,
      "note": 89,
      "duration": 0.25,
      "velocity": 100
    },
    {
      "time": 33.375,
      "note": 91,
      "duration": 0.25,
      "velocity": 100
    },
    {
      "time": 33.625,
      "note": 89,
      "duration": 0.375,
      "velocity": 100
    },
    {
      "time": 34.0,
      "note": 84,
      "duration": 0.125,
      "velocity": 100
    },
    {
      "time": 34.125,
      "note": 84,
      "duration": 0.125,
      "velocity": 100
    },
    {
      "time": 34.25,
      "note": 84,
      "duration": 0.25,
      "velocity": 100
    },
    {
      "time": 34.5,
      "note": 84,
      "duration": 0.125,
      "velocity": 100
    },
    {
      "time": 33.625,
      "note": 84,
      "duration": 0.375,
      "velocity": 100
    },
    {
      "time": 34.0,
      "note": 84,
      "duration": 0.125,
      "velocity": 100
    },
    {
      "time": 34.125,
      "note": 84,
      "duration": 0.125,
      "velocity": 100
    },
    {
      "time": 34.25,
      "note": 84,
      "duration": 0.25,
      "velocity": 100
    },
    {
      "time": 34.5,
      "note": 84,
      "duration": 0.125,
      "velocity": 100
    },
    {
      "time": 34.625,
      "note": 84,
      "duration": 0.375,
      "velocity": 100
    },
    {
      "time": 35.0,
      "note": 84,
      "duration": 0.125,
      "velocity": 100
    },
    {
      "time": 35.125,
      "note": 84,
      "duration": 0.125,
      "velocity": 100
    },
    {
      "time": 35.25,
      "note": 84,
      "duration": 0.25,
      "velocity": 100
    },
    {
      "time": 35.5,
      "note": 84,
      "duration": 0.125,
      "velocity": 100
    },
    {
      "time": 35.625,
      "note": 84,
      "duration": 0.5,
      "velocity": 100
    },
    {
      "time": 36.125,
      "note": 91,
      "duration": 0.125,
      "velocity": 100
    },
    {
      "time": 36.25,
      "note": 89,
      "duration": 0.125,
      "velocity": 100
    },
    {
      "time": 36.375,
      "note": 87,
      "duration": 0.125,
      "velocity": 100
    },
    {
      "time": 36.5,
      "note": 86,
      "duration": 0.125,
      "velocity": 100
    },
    {
      "time": 36.625,
      "note": 86,
      "duration": 0.375,
      "velocity": 100
    },
    {
      "time": 37.0,
      "note": 79,
      "duration": 0.125,
      "velocity": 100
    },
    {
      "time": 37.125,
      "note": 86,
      "duration": 0.125,
      "velocity": 100
    },
    {
      "time": 37.25,
      "note": 86,
      "duration": 0.25,
      "velocity": 100
    },
    {
      "time": 37.5,
      "note": 86,
      "duration": 0.125,
      "velocity": 100
    }
  ],
  "chords": [
    {
      "time": 0.0,
      "notes": [
        67,
        70,
        74
      ],
      "duration": 1.7678571428571428
    },
    {
      "time": 1.7678571428571428,
      "notes": [
        67,
        70,
        74
      ],
      "duration": 1.7678571428571428
    },
    {
      "time": 3.5357142857142856,
      "notes": [
        65,
        69,
        72,
        75
      ],
      "duration": 1.7678571428571428
    },
    {
      "time": 5.303571428571429,
      "notes": [
        67,
        70,
        74
      ],
      "duration": 1.7678571428571428
    },
    {
      "time": 7.071428571428571,
      "notes": [
        65,
        69,
        72,
        75
      ],
      "duration": 1.7678571428571428
    },
    {
      "time": 8.839285714285714,
      "notes": [
        67,
        70,
        74
      ],
      "duration": 1.7678571428571428
    },
    {
      "time": 10.607142857142858,
      "notes": [
        65,
        69,
        72,
        75
      ],
      "duration": 1.7678571428571428
    },
    {
      "time": 12.375,
      "notes": [
        67,
        70,
        74
      ],
      "duration": 1.7678571428571428
    },
    {
      "time": 14.142857142857142,
      "notes": [
        62,
        66,
        69
      ],
      "duration": 1.7678571428571428
    },
    {
      "time": 15.910714285714285,
      "notes": [
        67,
        70,
        74
      ],
      "duration": 1.7678571428571428
    },
    {
      "time": 17.678571428571427,
      "notes": [
        65,
        69,
        72,
        75
      ],
      "duration": 1.7678571428571428
    },
    {
      "time": 19.44642857142857,
      "notes": [
        67,
        70,
        74
      ],
      "duration": 1.7678571428571428
    },
    {
      "time": 21.214285714285715,
      "notes": [
        67,
        70,
        74
      ],
      "duration": 1.7678571428571428
    },
    {
      "time": 22.982142857142858,
      "notes": [
        65,
        69,
        72,
        75
      ],
      "duration": 1.7678571428571428
    },
    {
      "time": 24.75,
      "notes": [
        67,
        70,
        74
      ],
      "duration": 1.7678571428571428
    },
    {
      "time": 26.517857142857142,
      "notes": [
        63,
        67,
        70
      ],
      "duration": 1.7678571428571428
    },
    {
      "time": 28.285714285714285,
      "notes": [
        65,
        69,
        72,
        75
      ],
      "duration": 1.7678571428571428
    },
    {
      "time": 30.053571428571427,
      "notes": [
        67,
        70,
        74
      ],
      "duration": 1.7678571428571428
    },
    {
      "time": 31.82142857142857,
      "notes": [
        67,
        70,
        74
      ],
      "duration": 1.7678571428571428
    },
    {
      "time": 33.589285714285715,
      "notes": [
        65,
        69,
        72,
        75
      ],
      "duration": 1.7678571428571428
    },
    {
      "time": 35.357142857142854,
      "notes": [
        67,
        70,
        74
      ],
      "duration": 1.7678571428571428
    }
  ]
}