{
  "title": "La puerta",
  "artist": "Gilda",
  "bpm": 120,
  "duration": 35.0,
  "audioFile": "",
  "notes": [
    {
      "time": 0.375,
      "note": 91,
      "duration": 0.375,
      "velocity": 100
    },
    {
      "time": 0.75,
      "note": 91,
      "duration": 0.125,
      "velocity": 100
    },
    {
      "time": 0.875,
      "note": 91,
      "duration": 0.125,
      "velocity": 100
    },
    {
      "time": 1.0,
      "note": 91,
      "duration": 0.125,
      "velocity": 100
    },
    {
      "time": 1.125,
      "note": 88,
      "duration": 0.125,
      "velocity": 100
    },
    {
      "time": 1.25,
      "note": 86,
      "duration": 0.125,
      "velocity": 100
    },
    {
      "time": 1.375,
      "note": 89,
      "duration": 0.125,
      "velocity": 100
    },
    {
      "time": 1.5,
      "note": 89,
      "duration": 0.125,
      "velocity": 100
    },
    {
      "time": 1.625,
      "note": 88,
      "duration": 0.125,
      "velocity": 100
    },
    {
      "time": 1.75,
      "note": 88,
      "duration": 0.125,
      "velocity": 100
    },
    {
      "time": 1.875,
      "note": 86,
      "duration": 0.5,
      "velocity": 100
    },
    {
      "time": 2.375,
      "note": 93,
      "duration": 0.375,
      "velocity": 100
    },
    {
      "time": 2.75,
      "note": 93,
      "duration": 0.125,
      "velocity": 100
    },
    {
      "time": 2.875,
      "note": 93,
      "duration": 0.125,
      "velocity": 100
    },
    {
      "time": 3.0,
      "note": 93,
      "duration": 0.125,
      "velocity": 100
    },
    {
      "time": 3.125,
      "note": 89,
      "duration": 0.125,
      "velocity": 100
    },
    {
      "time": 3.25,
      "note": 88,
      "duration": 0.125,
      "velocity": 100
    },
    {
      "time": 3.375,
      "note": 91,
      "duration": 0.125,
      "velocity": 100
    },
    {
      "time": 3.5,
      "note": 91,
      "duration": 0.125,
      "velocity": 100
    },
    {
      "time": 3.625,
      "note": 89,
      "duration": 0.125,
      "velocity": 100
    },
    {
      "time": 3.75,
      "note": 89,
      "duration": 0.125,
      "velocity": 100
    },
    {
      "time": 3.875,
      "note": 88,
      "duration": 0.5,
      "velocity": 100
    },
    {
      "time": 4.375,
      "note": 93,
      "duration": 0.375,
      "velocity": 100
    },
    {
      "time": 4.75,
      "note": 93,
      "duration": 0.125,
      "velocity": 100
    },
    {
      "time": 4.875,
      "note": 93,
      "duration": 0.25,
      "velocity": 100
    },
    {
      "time": 5.125,
      "note": 91,
      "duration": 0.125,
      "velocity": 100
    },
    {
      "time": 5.25,
      "note": 89,
      "duration": 0.125,
      "velocity": 100
    },
    {
      "time": 5.375,
      "note": 89,
      "duration": 1.0,
      "velocity": 100
    },
    {
      "time": 6.375,
      "note": 79,
      "duration": 0.5,
      "velocity": 100
    },
    {
      "time": 6.875,
      "note": 88,
      "duration": 0.5,
      "velocity": 100
    },
    {
      "time": 6.875,
      "note": 77,
      "duration": 0.5,
      "velocity": 100
    },
    {
      "time": 7.375,
      "note": 88,
      "duration": 0.5,
      "velocity": 100
    },
    {
      "time": 7.375,
      "note": 91,
      "duration": 0.125,
      "velocity": 100
    },
    {
      "time": 7.5,
      "note": 88,
      "duration": 0.125,
      "velocity": 100
    },
    {
      "time": 7.625,
      "note": 91,
      "duration": 0.125,
      "velocity": 100
    },
    {
      "time": 7.75,
      "note": 88,
      "duration": 0.125,
      "velocity": 100
    },
    {
      "time": 7.875,
      "note": 91,
      "duration": 0.25,
      "velocity": 100
    },
    {
      "time": 8.125,
      "note": 88,
      "duration": 0.25,
      "velocity": 100
    },
    {
      "time": 8.5,
      "note": 81,
      "duration": 0.125,
      "velocity": 100
    },
    {
      "time": 8.625,
      "note": 79,
      "duration": 0.125,
      "velocity": 100
    },
    {
      "time": 8.75,
      "note": 77,
      "duration": 0.125,
      "velocity": 100
    },
    {
      "time": 8.875,
      "note": 74,
      "duration": 0.125,
      "velocity": 100
    },
    {
      "time": 9.0,
      "note": 74,
      "duration": 0.125,
      "velocity": 100
    },
    {
      "time": 9.125,
      "note": 74,
      "duration": 0.125,
      "velocity": 100
    },
    {
      "time": 9.25,
      "note": 76,
      "duration": 0.5,
      "velocity": 100
    },
    {
      "time": 9.75,
      "note": 79,
      "duration": 0.5,
      "velocity": 100
    },
    {
      "time": 9.75,
      "note": 86,
      "duration": 0.5,
      "velocity": 100
    },
    {
      "time": 9.75,
      "note": 89,
      "duration": 0.125,
      "velocity": 100
    },
    {
      "time": 9.875,
      "note": 86,
      "duration": 0.125,
      "velocity": 100
    },
    {
      "time": 10.0,
      "note": 89,
      "duration": 0.125,
      "velocity": 100
    },
    {
      "time": 10.125,
      "note": 86,
      "duration": 0.125,
      "velocity": 100
    },
    {
      "time": 10.25,
      "note": 89,
      "duration": 0.25,
      "velocity": 100
    },
    {
      "time": 10.5,
      "note": 86,
      "duration": 0.25,
      "velocity": 100
    },
    {
      "time": 10.875,
      "note": 81,
      "duration": 0.125,
      "velocity": 100
    },
    {
      "time": 11.0,
      "note": 79,
      "duration": 0.125,
      "velocity": 100
    },
    {
      "time": 11.125,
      "note": 77,
      "duration": 0.125,
      "velocity": 100
    },
    {
      "time": 11.25,
      "note": 76,
      "duration": 0.125,
      "velocity": 100
    },
    {
      "time": 11.375,
      "note": 76,
      "duration": 0.125,
      "velocity": 100
    },
    {
      "time": 11.5,
      "note": 76,
      "duration": 0.125,
      "velocity": 100
    },
    {
      "time": 11.625,
      "note": 77,
      "duration": 0.5,
      "velocity": 100
    },
    {
      "time": 12.125,
      "note": 81,
      "duration": 0.5,
      "velocity": 100
    },
    {
      "time": 12.125,
      "note": 88,
      "duration": 0.5,
      "velocity": 100
    },
    {
      "time": 12.125,
      "note": 91,
      "duration": 0.125,
      "velocity": 100
    },
    {
      "time": 12.25,
      "note": 88,
      "duration": 0.125,
      "velocity": 100
    },
    {
      "time": 12.375,
      "note": 91,
      "duration": 0.125,
      "velocity": 100
    },
    {
      "time": 12.5,
      "note": 88,
      "duration": 0.125,
      "velocity": 100
    },
    {
      "time": 12.625,
      "note": 91,
      "duration": 0.25,
      "velocity": 100
    },
    {
      "time": 12.875,
      "note": 88,
      "duration": 0.25,
      "velocity": 100
    },
    {
      "time": 13.25,
      "note": 81,
      "duration": 0.125,
      "velocity": 100
    },
    {
      "time": 13.375,
      "note": 79,
      "duration": 0.125,
      "velocity": 100
    },
    {
      "time": 13.5,
      "note": 77,
      "duration": 0.125,
      "velocity": 100
    },
    {
      "time": 13.625,
      "note": 74,
      "duration": 0.125,
      "velocity": 100
    },
    {
      "time": 13.75,
      "note": 74,
      "duration": 0.125,
      "velocity": 100
    },
    {
      "time": 13.875,
      "note": 74,
      "duration": 0.125,
      "velocity": 100
    },
    {
      "time": 14.0,
      "note": 76,
      "duration": 0.5,
      "velocity": 100
    },
    {
      "time": 14.5,
      "note": 86,
      "duration": 0.5,
      "velocity": 100
    },
    {
      "time": 14.5,
      "note": 86,
      "duration": 0.125,
      "velocity": 100
    },
    {
      "time": 14.625,
      "note": 86,
      "duration": 0.125,
      "velocity": 100
    },
    {
      "time": 14.75,
      "note": 86,
      "duration": 0.125,
      "velocity": 100
    },
    {
      "time": 14.875,
      "note": 86,
      "duration": 0.125,
      "velocity": 100
    },
    {
      "time": 15.0,
      "note": 89,
      "duration": 0.25,
      "velocity": 100
    },
    {
      "time": 15.25,
      "note": 89,
      "duration": 0.125,
      "velocity": 100
    },
    {
      "time": 15.375,
      "note": 93,
      "duration": 0.125,
      "velocity": 100
    },
    {
      "time": 15.5,
      "note": 93,
      "duration": 0.125,
      "velocity": 100
    },
    {
      "time": 15.625,
      "note": 91,
      "duration": 0.25,
      "velocity": 100
    },
    {
      "time": 15.875,
      "note": 89,
      "duration": 0.125,
      "velocity": 100
    },
    {
      "time": 16.0,
      "note": 88,
      "duration": 0.5,
      "velocity": 100
    },
    {
      "time": 16.75,
      "note": 91,
      "duration": 0.125,
      "velocity": 100
    },
    {
      "time": 16.875,
      "note": 89,
      "duration": 0.125,
      "velocity": 100
    },
    {
      "time": 17.0,
      "note": 88,
      "duration": 0.5,
      "velocity": 100
    },
    {
      "time": 17.75,
      "note": 91,
      "duration": 0.125,
      "velocity": 100
    },
    {
      "time": 17.875,
      "note": 89,
      "duration": 0.125,
      "velocity": 100
    },
    {
      "time": 18.0,
      "note": 88,
      "duration": 1.0,
      "velocity": 100
    },
    {
      "time": 18.5,
      "note": 91,
      "duration": 0.375,
      "velocity": 100
    },
    {
      "time": 18.875,
      "note": 91,
      "duration": 0.125,
      "velocity": 100
    },
    {
      "time": 19.0,
      "note": 91,
      "duration": 0.125,
      "velocity": 100
    },
    {
      "time": 19.125,
      "note": 91,
      "duration": 0.125,
      "velocity": 100
    },
    {
      "time": 19.25,
      "note": 88,
      "duration": 0.125,
      "velocity": 100
    },
    {
      "time": 19.375,
      "note": 86,
      "duration": 0.125,
      "velocity": 100
    },
    {
      "time": 19.5,
      "note": 89,
      "duration": 0.25,
      "velocity": 100
    },
    {
      "time": 19.75,
      "note": 88,
      "duration": 0.25,
      "velocity": 100
    },
    {
      "time": 20.0,
      "note": 86,
      "duration": 0.5,
      "velocity": 100
    },
    {
      "time": 19.5,
      "note": 77,
      "duration": 0.5,
      "velocity": 100
    },
    {
      "time": 20.0,
      "note": 77,
      "duration": 0.5,
      "velocity": 100
    },
    {
      "time": 20.5,
      "note": 93,
      "duration": 0.125,
      "velocity": 100
    },
    {
      "time": 20.625,
      "note": 93,
      "duration": 0.25,
      "velocity": 100
    },
    {
      "time": 20.875,
      "note": 93,
      "duration": 0.125,
      "velocity": 100
    },
    {
      "time": 21.0,
      "note": 93,
      "duration": 0.25,
      "velocity": 100
    },
    {
      "time": 21.25,
      "note": 89,
      "duration": 0.125,
      "velocity": 100
    },
    {
      "time": 21.375,
      "note": 88,
      "duration": 0.125,
      "velocity": 100
    },
    {
      "time": 21.5,
      "note": 91,
      "duration": 0.25,
      "velocity": 100
    },
    {
      "time": 21.75,
      "note": 89,
      "duration": 0.25,
      "velocity": 100
    },
    {
      "time": 22.0,
      "note": 88,
      "duration": 0.5,
      "velocity": 100
    },
    {
      "time": 22.5,
      "note": 91,
      "duration": 0.75,
      "velocity": 100
    },
    {
      "time": 23.5,
      "note": 89,
      "duration": 0.25,
      "velocity": 100
    },
    {
      "time": 23.75,
      "note": 88,
      "duration": 1.0,
      "velocity": 100
    },
    {
      "time": 25.0,
      "note": 74,
      "duration": 0.5,
      "velocity": 100
    },
    {
      "time": 25.625,
      "note": 77,
      "duration": 0.5,
      "velocity": 100
    },
    {
      "time": 26.125,
      "note": 81,
      "duration": 0.5,
      "velocity": 100
    },
    {
      "time": 26.125,
      "note": 88,
      "duration": 0.5,
      "velocity": 100
    },
    {
      "time": 26.125,
      "note": 91,
      "duration": 0.125,
      "velocity": 100
    },
    {
      "time": 26.25,
      "note": 88,
      "duration": 0.125,
      "velocity": 100
    },
    {
      "time": 26.375,
      "note": 91,
      "duration": 0.125,
      "velocity": 100
    },
    {
      "time": 26.5,
      "note": 88,
      "duration": 0.125,
      "velocity": 100
    },
    {
      "time": 26.625,
      "note": 91,
      "duration": 0.25,
      "velocity": 100
    },
    {
      "time": 26.875,
      "note": 88,
      "duration": 0.25,
      "velocity": 100
    },
    {
      "time": 27.25,
      "note": 91,
      "duration": 0.25,
      "velocity": 100
    },
    {
      "time": 27.5,
      "note": 93,
      "duration": 0.125,
      "velocity": 100
    },
    {
      "time": 27.625,
      "note": 89,
      "duration": 0.125,
      "velocity": 100
    },
    {
      "time": 27.75,
      "note": 89,
      "duration": 0.25,
      "velocity": 100
    },
    {
      "time": 28.0,
      "note": 86,
      "duration": 0.125,
      "velocity": 100
    },
    {
      "time": 28.125,
      "note": 89,
      "duration": 0.125,
      "velocity": 100
    },
    {
      "time": 28.25,
      "note": 86,
      "duration": 0.125,
      "velocity": 100
    },
    {
      "time": 28.375,
      "note": 89,
      "duration": 0.125,
      "velocity": 100
    },
    {
      "time": 28.5,
      "note": 86,
      "duration": 0.125,
      "velocity": 100
    },
    {
      "time": 28.625,
      "note": 89,
      "duration": 0.25,
      "velocity": 100
    },
    {
      "time": 28.875,
      "note": 86,
      "duration": 0.25,
      "velocity": 100
    },
    {
      "time": 29.25,
      "note": 89,
      "duration": 0.25,
      "velocity": 100
    },
    {
      "time": 29.5,
      "note": 91,
      "duration": 0.125,
      "velocity": 100
    },
    {
      "time": 29.625,
      "note": 88,
      "duration": 0.125,
      "velocity": 100
    },
    {
      "time": 29.75,
      "note": 88,
      "duration": 0.25,
      "velocity": 100
    },
    {
      "time": 30.0,
      "note": 88,
      "duration": 0.125,
      "velocity": 100
    },
    {
      "time": 30.125,
      "note": 91,
      "duration": 0.125,
      "velocity": 100
    },
    {
      "time": 30.25,
      "note": 88,
      "duration": 0.125,
      "velocity": 100
    },
    {
      "time": 30.375,
      "note": 91,
      "duration": 0.125,
      "velocity": 100
    },
    {
      "time": 30.5,
      "note": 88,
      "duration": 0.125,
      "velocity": 100
    },
    {
      "time": 30.625,
      "note": 91,
      "duration": 0.25,
      "velocity": 100
    },
    {
      "time": 30.875,
      "note": 88,
      "duration": 0.25,
      "velocity": 100
    },
    {
      "time": 31.25,
      "note": 91,
      "duration": 0.25,
      "velocity": 100
    },
    {
      "time": 31.5,
      "note": 93,
      "duration": 0.125,
      "velocity": 100
    },
    {
      "time": 31.625,
      "note": 89,
      "duration": 0.125,
      "velocity": 100
    },
    {
      "time": 31.75,
      "note": 89,
      "duration": 0.25,
      "velocity": 100
    },
    {
      "time": 32.0,
      "note": 86,
      "duration": 0.125,
      "velocity": 100
    },
    {
      "time": 32.125,
      "note": 86,
      "duration": 0.125,
      "velocity": 100
    },
    {
      "time": 32.25,
      "note": 86,
      "duration": 0.125,
      "velocity": 100
    },
    {
      "time": 32.375,
      "note": 86,
      "duration": 0.125,
      "velocity": 100
    },
    {
      "time": 32.5,
      "note": 86,
      "duration": 0.125,
      "velocity": 100
    },
    {
      "time": 32.625,
      "note": 89,
      "duration": 0.25,
      "velocity": 100
    },
    {
      "time": 32.875,
      "note": 89,
      "duration": 0.125,
      "velocity": 100
    },
    {
      "time": 33.0,
      "note": 93,
      "duration": 0.125,
      "velocity": 100
    },
    {
      "time": 33.125,
      "note": 93,
      "duration": 0.125,
      "velocity": 100
    },
    {
      "time": 33.25,
      "note": 91,
      "duration": 0.125,
      "velocity": 100
    },
    {
      "time": 33.375,
      "note": 89,
      "duration": 0.125,
      "velocity": 100
    },
    {
      "time": 33.5,
      "note": 88,
      "duration": 0.125,
      "velocity": 100
    },
    {
      "time": 33.625,
      "note": 88,
      "duration": 0.125,
      "velocity": 100
    },
    {
      "time": 33.75,
      "note": 88,
      "duration": 0.25,
      "velocity": 100
    },
    {
      "time": 34.0,
      "note": 77,
      "duration": 0.5,
      "velocity": 100
    },
    {
      "time": 34.5,
      "note": 81,
      "duration": 0.5,
      "velocity": 100
    },
    {
      "time": 34.5,
      "note": 88,
      "duration": 0.5,
      "velocity": 100
    },
    {
      "time": 34.5,
      "note": 91,
      "duration": 0.125,
      "velocity": 100
    },
    {
      "time": 34.625,
      "note": 88,
      "duration": 0.125,
      "velocity": 100
    },
    {
      "time": 34.75,
      "note": 91,
      "duration": 0.125,
      "velocity": 100
    },
    {
      "time": 34.875,
      "note": 88,
      "duration": 0.125,
      "velocity": 100
    }
  ],
  "chords": [
    {
      "time": 0.0,
      "notes": [
        64,
        67,
        71
      ],
      "duration": 1.9444444444444444
    },
    {
      "time": 1.9444444444444444,
      "notes": [
        62,
        66,
        69
      ],
      "duration": 1.9444444444444444
    },
    {
      "time": 3.888888888888889,
      "notes": [
        64,
        67,
        71
      ],
      "duration": 1.9444444444444444
    },
    {
      "time": 5.833333333333333,
      "notes": [
        62,
        66,
        69
      ],
      "duration": 1.9444444444444444
    },
    {
      "time": 7.777777777777778,
      "notes": [
        64,
        67,
        71
      ],
      "duration": 1.9444444444444444
    },
    {
      "time": 9.722222222222221,
      "notes": [
        62,
        66,
        69
      ],
      "duration": 1.9444444444444444
    },
    {
      "time": 11.666666666666666,
      "notes": [
        64,
        67,
        71
      ],
      "duration": 1.9444444444444444
    },
    {
      "time": 13.61111111111111,
      "notes": [
        62,
        66,
        69
      ],
      "duration": 1.9444444444444444
    },
    {
      "time": 15.555555555555555,
      "notes": [
        64,
        67,
        71
      ],
      "duration": 1.9444444444444444
    },
    {
      "time": 17.5,
      "notes": [
        64,
        67,
        71
      ],
      "duration": 1.9444444444444444
    },
    {
      "time": 19.444444444444443,
      "notes": [
        62,
        66,
        69
      ],
      "duration": 1.9444444444444444
    },
    {
      "time": 21.38888888888889,
      "notes": [
        64,
        67,
        71
      ],
      "duration": 1.9444444444444444
    },
    {
      "time": 23.333333333333332,
      "notes": [
        64,
        67,
        71
      ],
      "duration": 1.9444444444444444
    },
    {
      "time": 25.27777777777778,
      "notes": [
        64,
        67,
        71
      ],
      "duration": 1.9444444444444444
    },
    {
      "time": 27.22222222222222,
      "notes": [
        62,
        66,
        69
      ],
      "duration": 1.9444444444444444
    },
    {
      "time": 29.166666666666668,
      "notes": [
        64,
        67,
        71
      ],
      "duration": 1.9444444444444444
    },
    {
      "time": 31.11111111111111,
      "notes": [
        62,
        66,
        69
      ],
      "duration": 1.9444444444444444
    },
    {
      "time": 33.05555555555556,
      "notes": [
        64,
        67,
        71
      ],
      "duration": 1.9444444444444444
    }
  ]
}