{
  "title": "Dm",
  "artist": "Los duenos del pabellon",
  "bpm": 120,
  "duration": 59.75,
  "audioFile": "",
  "notes": [
    {
      "time": 0.0,
      "note": 69,
      "duration": 0.25,
      "velocity": 100
    },
    {
      "time": 0.25,
      "note": 69,
      "duration": 0.25,
      "velocity": 100
    },
    {
      "time": 0.5,
      "note": 74,
      "duration": 0.25,
      "velocity": 100
    },
    {
      "time": 0.75,
      "note": 74,
      "duration": 0.125,
      "velocity": 100
    },
    {
      "time": 0.875,
      "note": 74,
      "duration": 0.125,
      "velocity": 100
    },
    {
      "time": 1.0,
      "note": 72,
      "duration": 0.25,
      "velocity": 100
    },
    {
      "time": 1.25,
      "note": 72,
      "duration": 0.125,
      "velocity": 100
    },
    {
      "time": 1.375,
      "note": 72,
      "duration": 0.125,
      "velocity": 100
    },
    {
      "time": 1.5,
      "note": 69,
      "duration": 0.25,
      "velocity": 100
    },
    {
      "time": 1.75,
      "note": 69,
      "duration": 0.125,
      "velocity": 100
    },
    {
      "time": 1.875,
      "note": 69,
      "duration": 0.125,
      "velocity": 100
    },
    {
      "time": 2.0,
      "note": 69,
      "duration": 0.25,
      "velocity": 100
    },
    {
      "time": 2.25,
      "note": 69,
      "duration": 0.25,
      "velocity": 100
    },
    {
      "time": 2.5,
      "note": 74,
      "duration": 0.25,
      "velocity": 100
    },
    {
      "time": 2.75,
      "note": 74,
      "duration": 0.125,
      "velocity": 100
    },
    {
      "time": 2.875,
      "note": 74,
      "duration": 0.125,
      "velocity": 100
    },
    {
      "time": 3.0,
      "note": 72,
      "duration": 0.25,
      "velocity": 100
    },
    {
      "time": 3.25,
      "note": 72,
      "duration": 0.125,
      "velocity": 100
    },
    {
      "time": 3.375,
      "note": 72,
      "duration": 0.125,
      "velocity": 100
    },
    {
      "time": 3.5,
      "note": 69,
      "duration": 0.25,
      "velocity": 100
    },
    {
      "time": 3.75,
      "note": 69,
      "duration": 0.125,
      "velocity": 100
    },
    {
      "time": 3.875,
      "note": 69,
      "duration": 0.125,
      "velocity": 100
    },
    {
      "time": 4.0,
      "note": 69,
      "duration": 0.25,
      "velocity": 100
    },
    {
      "time": 4.25,
      "note": 69,
      "duration": 0.25,
      "velocity": 100
    },
    {
      "time": 4.5,
      "note": 74,
      "duration": 0.5,
      "velocity": 100
    },
    {
      "time": 5.0,
      "note": 77,
      "duration": 0.5,
      "velocity": 100
    },
    {
      "time": 5.0,
      "note": 81,
      "duration": 0.5,
      "velocity": 100
    },
    {
      "time": 5.0,
      "note": 86,
      "duration": 0.5,
      "velocity": 100
    },
    {
      "time": 5.875,
      "note": 77,
      "duration": 0.125,
      "velocity": 100
    },
    {
      "time": 6.0,
      "note": 74,
      "duration": 0.125,
      "velocity": 100
    },
    {
      "time": 6.125,
      "note": 76,
      "duration": 0.125,
      "velocity": 100
    },
    {
      "time": 6.25,
      "note": 77,
      "duration": 0.125,
      "velocity": 100
    },
    {
      "time": 6.375,
      "note": 79,
      "duration": 0.125,
      "velocity": 100
    },
    {
      "time": 6.5,
      "note": 81,
      "duration": 1.0,
      "velocity": 100
    },
    {
      "time": 7.5,
      "note": 81,
      "duration": 0.5,
      "velocity": 100
    },
    {
      "time": 8.0,
      "note": 76,
      "duration": 0.125,
      "velocity": 100
    },
    {
      "time": 8.125,
      "note": 79,
      "duration": 0.125,
      "velocity": 100
    },
    {
      "time": 8.25,
      "note": 76,
      "duration": 0.125,
      "velocity": 100
    },
    {
      "time": 8.375,
      "note": 79,
      "duration": 0.125,
      "velocity": 100
    },
    {
      "time": 8.5,
      "note": 74,
      "duration": 0.25,
      "velocity": 100
    },
    {
      "time": 8.75,
      "note": 74,
      "duration": 0.125,
      "velocity": 100
    },
    {
      "time": 8.875,
      "note": 77,
      "duration": 0.125,
      "velocity": 100
    },
    {
      "time": 9.0,
      "note": 74,
      "duration": 0.125,
      "velocity": 100
    },
    {
      "time": 9.125,
      "note": 76,
      "duration": 0.125,
      "velocity": 100
    },
    {
      "time": 9.25,
      "note": 77,
      "duration": 0.125,
      "velocity": 100
    },
    {
      "time": 9.375,
      "note": 79,
      "duration": 0.125,
      "velocity": 100
    },
    {
      "time": 9.5,
      "note": 81,
      "duration": 0.125,
      "velocity": 100
    },
    {
      "time": 9.75,
      "note": 81,
      "duration": 0.125,
      "velocity": 100
    },
    {
      "time": 9.875,
      "note": 81,
      "duration": 0.125,
      "velocity": 100
    },
    {
      "time": 10.0,
      "note": 81,
      "duration": 0.125,
      "velocity": 100
    },
    {
      "time": 10.125,
      "note": 79,
      "duration": 0.125,
      "velocity": 100
    },
    {
      "time": 10.25,
      "note": 76,
      "duration": 0.125,
      "velocity": 100
    },
    {
      "time": 10.375,
      "note": 79,
      "duration": 0.125,
      "velocity": 100
    },
    {
      "time": 10.5,
      "note": 74,
      "duration": 0.5,
      "velocity": 100
    },
    {
      "time": 11.0,
      "note": 74,
      "duration": 0.5,
      "velocity": 100
    },
    {
      "time": 11.5,
      "note": 74,
      "duration": 1.0,
      "velocity": 100
    },
    {
      "time": 12.5,
      "note": 81,
      "duration": 0.25,
      "velocity": 100
    },
    {
      "time": 12.75,
      "note": 81,
      "duration": 0.125,
      "velocity": 100
    },
    {
      "time": 12.875,
      "note": 81,
      "duration": 0.125,
      "velocity": 100
    },
    {
      "time": 13.0,
      "note": 86,
      "duration": 0.125,
      "velocity": 100
    },
    {
      "time": 13.125,
      "note": 86,
      "duration": 0.125,
      "velocity": 100
    },
    {
      "time": 13.25,
      "note": 86,
      "duration": 0.125,
      "velocity": 100
    },
    {
      "time": 13.375,
      "note": 86,
      "duration": 0.125,
      "velocity": 100
    },
    {
      "time": 13.5,
      "note": 89,
      "duration": 0.25,
      "velocity": 100
    },
    {
      "time": 13.75,
      "note": 89,
      "duration": 0.125,
      "velocity": 100
    },
    {
      "time": 13.875,
      "note": 86,
      "duration": 0.125,
      "velocity": 100
    },
    {
      "time": 14.125,
      "note": 86,
      "duration": 0.125,
      "velocity": 100
    },
    {
      "time": 14.25,
      "note": 89,
      "duration": 0.25,
      "velocity": 100
    },
    {
      "time": 14.5,
      "note": 84,
      "duration": 0.25,
      "velocity": 100
    },
    {
      "time": 14.75,
      "note": 84,
      "duration": 0.125,
      "velocity": 100
    },
    {
      "time": 14.875,
      "note": 84,
      "duration": 0.125,
      "velocity": 100
    },
    {
      "time": 15.0,
      "note": 88,
      "duration": 0.125,
      "velocity": 100
    },
    {
      "time": 15.125,
      "note": 91,
      "duration": 0.125,
      "velocity": 100
    },
    {
      "time": 15.25,
      "note": 88,
      "duration": 0.125,
      "velocity": 100
    },
    {
      "time": 15.375,
      "note": 91,
      "duration": 0.125,
      "velocity": 100
    },
    {
      "time": 15.5,
      "note": 86,
      "duration": 1.0,
      "velocity": 100
    },
    {
      "time": 16.5,
      "note": 81,
      "duration": 0.25,
      "velocity": 100
    },
    {
      "time": 16.75,
      "note": 81,
      "duration": 0.125,
      "velocity": 100
    },
    {
      "time": 16.875,
      "note": 81,
      "duration": 0.125,
      "velocity": 100
    },
    {
      "time": 17.0,
      "note": 77,
      "duration": 0.125,
      "velocity": 100
    },
    {
      "time": 17.125,
      "note": 81,
      "duration": 0.125,
      "velocity": 100
    },
    {
      "time": 17.25,
      "note": 76,
      "duration": 0.125,
      "velocity": 100
    },
    {
      "time": 17.375,
      "note": 79,
      "duration": 0.125,
      "velocity": 100
    },
    {
      "time": 18.0,
      "note": 86,
      "duration": 0.25,
      "velocity": 100
    },
    {
      "time": 18.25,
      "note": 86,
      "duration": 0.125,
      "velocity": 100
    },
    {
      "time": 18.375,
      "note": 86,
      "duration": 0.125,
      "velocity": 100
    },
    {
      "time": 18.5,
      "note": 84,
      "duration": 0.25,
      "velocity": 100
    },
    {
      "time": 18.75,
      "note": 84,
      "duration": 0.125,
      "velocity": 100
    },
    {
      "time": 18.875,
      "note": 84,
      "duration": 0.125,
      "velocity": 100
    },
    {
      "time": 19.0,
      "note": 84,
      "duration": 0.125,
      "velocity": 100
    },
    {
      "time": 19.125,
      "note": 88,
      "duration": 0.125,
      "velocity": 100
    },
    {
      "time": 19.25,
      "note": 86,
      "duration": 0.125,
      "velocity": 100
    },
    {
      "time": 19.375,
      "note": 84,
      "duration": 0.125,
      "velocity": 100
    },
    {
      "time": 19.5,
      "note": 86,
      "duration": 0.5,
      "velocity": 100
    },
    {
      "time": 20.0,
      "note": 86,
      "duration": 0.25,
      "velocity": 100
    },
    {
      "time": 20.25,
      "note": 86,
      "duration": 0.125,
      "velocity": 100
    },
    {
      "time": 20.375,
      "note": 86,
      "duration": 0.125,
      "velocity": 100
    },
    {
      "time": 20.5,
      "note": 84,
      "duration": 0.25,
      "velocity": 100
    },
    {
      "time": 20.75,
      "note": 84,
      "duration": 0.125,
      "velocity": 100
    },
    {
      "time": 20.875,
      "note": 84,
      "duration": 0.125,
      "velocity": 100
    },
    {
      "time": 21.0,
      "note": 84,
      "duration": 0.125,
      "velocity": 100
    },
    {
      "time": 21.125,
      "note": 82,
      "duration": 0.25,
      "velocity": 100
    },
    {
      "time": 21.375,
      "note": 79,
      "duration": 0.125,
      "velocity": 100
    },
    {
      "time": 21.5,
      "note": 81,
      "duration": 0.375,
      "velocity": 100
    },
    {
      "time": 21.875,
      "note": 81,
      "duration": 0.125,
      "velocity": 100
    },
    {
      "time": 22.0,
      "note": 86,
      "duration": 0.25,
      "velocity": 100
    },
    {
      "time": 22.25,
      "note": 86,
      "duration": 0.125,
      "velocity": 100
    },
    {
      "time": 22.375,
      "note": 86,
      "duration": 0.125,
      "velocity": 100
    },
    {
      "time": 22.5,
      "note": 84,
      "duration": 0.25,
      "velocity": 100
    },
    {
      "time": 22.75,
      "note": 84,
      "duration": 0.125,
      "velocity": 100
    },
    {
      "time": 22.875,
      "note": 84,
      "duration": 0.125,
      "velocity": 100
    },
    {
      "time": 23.0,
      "note": 84,
      "duration": 0.125,
      "velocity": 100
    },
    {
      "time": 23.125,
      "note": 88,
      "duration": 0.125,
      "velocity": 100
    },
    {
      "time": 23.25,
      "note": 86,
      "duration": 0.125,
      "velocity": 100
    },
    {
      "time": 23.375,
      "note": 84,
      "duration": 0.125,
      "velocity": 100
    },
    {
      "time": 23.5,
      "note": 86,
      "duration": 0.375,
      "velocity": 100
    },
    {
      "time": 23.875,
      "note": 81,
      "duration": 0.125,
      "velocity": 100
    },
    {
      "time": 24.0,
      "note": 86,
      "duration": 0.25,
      "velocity": 100
    },
    {
      "time": 24.25,
      "note": 86,
      "duration": 0.125,
      "velocity": 100
    },
    {
      "time": 24.375,
      "note": 86,
      "duration": 0.125,
      "velocity": 100
    },
    {
      "time": 24.5,
      "note": 84,
      "duration": 0.375,
      "velocity": 100
    },
    {
      "time": 24.875,
      "note": 84,
      "duration": 0.125,
      "velocity": 100
    },
    {
      "time": 25.0,
      "note": 88,
      "duration": 0.25,
      "velocity": 100
    },
    {
      "time": 25.25,
      "note": 86,
      "duration": 0.125,
      "velocity": 100
    },
    {
      "time": 25.375,
      "note": 84,
      "duration": 0.125,
      "velocity": 100
    },
    {
      "time": 25.5,
      "note": 86,
      "duration": 0.125,
      "velocity": 100
    },
    {
      "time": 25.625,
      "note": 84,
      "duration": 0.125,
      "velocity": 100
    },
    {
      "time": 25.75,
      "note": 86,
      "duration": 0.25,
      "velocity": 100
    },
    {
      "time": 26.0,
      "note": 86,
      "duration": 0.5,
      "velocity": 100
    },
    {
      "time": 25.5,
      "note": 77,
      "duration": 0.125,
      "velocity": 100
    },
    {
      "time": 25.625,
      "note": 81,
      "duration": 0.125,
      "velocity": 100
    },
    {
      "time": 25.75,
      "note": 77,
      "duration": 0.25,
      "velocity": 100
    },
    {
      "time": 26.0,
      "note": 81,
      "duration": 0.25,
      "velocity": 100
    },
    {
      "time": 26.25,
      "note": 77,
      "duration": 0.125,
      "velocity": 100
    },
    {
      "time": 26.375,
      "note": 81,
      "duration": 0.125,
      "velocity": 100
    },
    {
      "time": 26.5,
      "note": 77,
      "duration": 0.25,
      "velocity": 100
    },
    {
      "time": 26.75,
      "note": 81,
      "duration": 0.25,
      "velocity": 100
    },
    {
      "time": 27.75,
      "note": 86,
      "duration": 0.5,
      "velocity": 100
    },
    {
      "time": 28.5,
      "note": 72,
      "duration": 0.25,
      "velocity": 100
    },
    {
      "time": 28.75,
      "note": 74,
      "duration": 0.25,
      "velocity": 100
    },
    {
      "time": 29.0,
      "note": 76,
      "duration": 0.25,
      "velocity": 100
    },
    {
      "time": 30.0,
      "note": 89,
      "duration": 0.25,
      "velocity": 100
    },
    {
      "time": 30.25,
      "note": 89,
      "duration": 0.125,
      "velocity": 100
    },
    {
      "time": 30.375,
      "note": 89,
      "duration": 0.125,
      "velocity": 100
    },
    {
      "time": 30.0,
      "note": 77,
      "duration": 0.5,
      "velocity": 100
    },
    {
      "time": 29.5,
      "note": 88,
      "duration": 0.375,
      "velocity": 100
    },
    {
      "time": 29.875,
      "note": 84,
      "duration": 0.125,
      "velocity": 100
    },
    {
      "time": 30.0,
      "note": 84,
      "duration": 0.25,
      "velocity": 100
    },
    {
      "time": 30.25,
      "note": 84,
      "duration": 0.25,
      "velocity": 100
    },
    {
      "time": 30.5,
      "note": 86,
      "duration": 0.375,
      "velocity": 100
    },
    {
      "time": 30.875,
      "note": 86,
      "duration": 0.125,
      "velocity": 100
    },
    {
      "time": 31.0,
      "note": 86,
      "duration": 0.125,
      "velocity": 100
    },
    {
      "time": 31.125,
      "note": 82,
      "duration": 0.25,
      "velocity": 100
    },
    {
      "time": 31.375,
      "note": 79,
      "duration": 0.125,
      "velocity": 100
    },
    {
      "time": 31.5,
      "note": 86,
      "duration": 0.375,
      "velocity": 100
    },
    {
      "time": 31.875,
      "note": 86,
      "duration": 0.125,
      "velocity": 100
    },
    {
      "time": 32.0,
      "note": 86,
      "duration": 0.25,
      "velocity": 100
    },
    {
      "time": 32.25,
      "note": 81,
      "duration": 0.125,
      "velocity": 100
    },
    {
      "time": 32.375,
      "note": 81,
      "duration": 0.125,
      "velocity": 100
    },
    {
      "time": 32.5,
      "note": 89,
      "duration": 0.375,
      "velocity": 100
    },
    {
      "time": 32.875,
      "note": 89,
      "duration": 0.125,
      "velocity": 100
    },
    {
      "time": 33.0,
      "note": 86,
      "duration": 0.5,
      "velocity": 100
    },
    {
      "time": 33.875,
      "note": 81,
      "duration": 0.5,
      "velocity": 100
    },
    {
      "time": 34.375,
      "note": 81,
      "duration": 0.125,
      "velocity": 100
    },
    {
      "time": 34.5,
      "note": 86,
      "duration": 0.25,
      "velocity": 100
    },
    {
      "time": 34.75,
      "note": 84,
      "duration": 0.5,
      "velocity": 100
    },
    {
      "time": 36.25,
      "note": 88,
      "duration": 0.25,
      "velocity": 100
    },
    {
      "time": 36.5,
      "note": 84,
      "duration": 0.25,
      "velocity": 100
    },
    {
      "time": 36.75,
      "note": 86,
      "duration": 0.5,
      "velocity": 100
    },
    {
      "time": 38.125,
      "note": 81,
      "duration": 0.5,
      "velocity": 100
    },
    {
      "time": 38.625,
      "note": 81,
      "duration": 0.125,
      "velocity": 100
    },
    {
      "time": 38.75,
      "note": 86,
      "duration": 0.25,
      "velocity": 100
    },
    {
      "time": 39.0,
      "note": 84,
      "duration": 0.5,
      "velocity": 100
    },
    {
      "time": 40.5,
      "note": 88,
      "duration": 0.25,
      "velocity": 100
    },
    {
      "time": 40.75,
      "note": 84,
      "duration": 0.25,
      "velocity": 100
    },
    {
      "time": 41.0,
      "note": 86,
      "duration": 0.5,
      "velocity": 100
    },
    {
      "time": 42.625,
      "note": 81,
      "duration": 0.5,
      "velocity": 100
    },
    {
      "time": 42.0,
      "note": 84,
      "duration": 0.5,
      "velocity": 100
    },
    {
      "time": 42.5,
      "note": 88,
      "duration": 0.375,
      "velocity": 100
    },
    {
      "time": 42.875,
      "note": 84,
      "duration": 0.125,
      "velocity": 100
    },
    {
      "time": 43.0,
      "note": 86,
      "duration": 0.375,
      "velocity": 100
    },
    {
      "time": 43.375,
      "note": 81,
      "duration": 0.125,
      "velocity": 100
    },
    {
      "time": 43.5,
      "note": 86,
      "duration": 0.25,
      "velocity": 100
    },
    {
      "time": 43.75,
      "note": 81,
      "duration": 0.125,
      "velocity": 100
    },
    {
      "time": 43.875,
      "note": 86,
      "duration": 0.125,
      "velocity": 100
    },
    {
      "time": 44.0,
      "note": 84,
      "duration": 0.125,
      "velocity": 100
    },
    {
      "time": 44.25,
      "note": 84,
      "duration": 0.125,
      "velocity": 100
    },
    {
      "time": 44.375,
      "note": 84,
      "duration": 0.125,
      "velocity": 100
    },
    {
      "time": 44.5,
      "note": 84,
      "duration": 0.25,
      "velocity": 100
    },
    {
      "time": 44.75,
      "note": 82,
      "duration": 0.125,
      "velocity": 100
    },
    {
      "time": 44.875,
      "note": 79,
      "duration": 0.125,
      "velocity": 100
    },
    {
      "time": 45.0,
      "note": 86,
      "duration": 0.375,
      "velocity": 100
    },
    {
      "time": 45.375,
      "note": 81,
      "duration": 0.125,
      "velocity": 100
    },
    {
      "time": 45.5,
      "note": 86,
      "duration": 0.25,
      "velocity": 100
    },
    {
      "time": 45.75,
      "note": 81,
      "duration": 0.125,
      "velocity": 100
    },
    {
      "time": 45.875,
      "note": 86,
      "duration": 0.125,
      "velocity": 100
    },
    {
      "time": 46.0,
      "note": 84,
      "duration": 0.5,
      "velocity": 100
    },
    {
      "time": 46.5,
      "note": 88,
      "duration": 0.375,
      "velocity": 100
    },
    {
      "time": 46.875,
      "note": 84,
      "duration": 0.125,
      "velocity": 100
    },
    {
      "time": 47.0,
      "note": 86,
      "duration": 0.375,
      "velocity": 100
    },
    {
      "time": 47.375,
      "note": 81,
      "duration": 0.125,
      "velocity": 100
    },
    {
      "time": 47.5,
      "note": 86,
      "duration": 0.25,
      "velocity": 100
    },
    {
      "time": 47.75,
      "note": 81,
      "duration": 0.125,
      "velocity": 100
    },
    {
      "time": 47.875,
      "note": 86,
      "duration": 0.125,
      "velocity": 100
    },
    {
      "time": 48.0,
      "note": 84,
      "duration": 0.125,
      "velocity": 100
    },
    {
      "time": 48.25,
      "note": 84,
      "duration": 0.125,
      "velocity": 100
    },
    {
      "time": 48.375,
      "note": 84,
      "duration": 0.125,
      "velocity": 100
    },
    {
      "time": 48.5,
      "note": 88,
      "duration": 0.25,
      "velocity": 100
    },
    {
      "time": 48.75,
      "note": 86,
      "duration": 0.125,
      "velocity": 100
    },
    {
      "time": 48.875,
      "note": 84,
      "duration": 0.125,
      "velocity": 100
    },
    {
      "time": 49.0,
      "note": 84,
      "duration": 0.5,
      "velocity": 100
    },
    {
      "time": 49.5,
      "note": 84,
      "duration": 0.5,
      "velocity": 100
    },
    {
      "time": 50.0,
      "note": 84,
      "duration": 0.5,
      "velocity": 100
    },
    {
      "time": 51.375,
      "note": 77,
      "duration": 0.125,
      "velocity": 100
    },
    {
      "time": 51.5,
      "note": 77,
      "duration": 0.25,
      "velocity": 100
    },
    {
      "time": 51.75,
      "note": 77,
      "duration": 0.125,
      "velocity": 100
    },
    {
      "time": 51.875,
      "note": 81,
      "duration": 0.125,
      "velocity": 100
    },
    {
      "time": 52.0,
      "note": 82,
      "duration": 0.25,
      "velocity": 100
    },
    {
      "time": 52.25,
      "note": 81,
      "duration": 0.125,
      "velocity": 100
    },
    {
      "time": 52.375,
      "note": 82,
      "duration": 0.125,
      "velocity": 100
    },
    {
      "time": 52.5,
      "note": 82,
      "duration": 0.5,
      "velocity": 100
    },
    {
      "time": 53.375,
      "note": 76,
      "duration": 0.5,
      "velocity": 100
    },
    {
      "time": 53.875,
      "note": 82,
      "duration": 0.5,
      "velocity": 100
    },
    {
      "time": 53.875,
      "note": 82,
      "duration": 0.125,
      "velocity": 100
    },
    {
      "time": 54.0,
      "note": 82,
      "duration": 0.25,
      "velocity": 100
    },
    {
      "time": 54.25,
      "note": 76,
      "duration": 0.125,
      "velocity": 100
    },
    {
      "time": 54.375,
      "note": 74,
      "duration": 0.5,
      "velocity": 100
    },
    {
      "time": 54.875,
      "note": 74,
      "duration": 0.5,
      "velocity": 100
    },
    {
      "time": 55.75,
      "note": 77,
      "duration": 0.125,
      "velocity": 100
    },
    {
      "time": 55.875,
      "note": 77,
      "duration": 0.125,
      "velocity": 100
    },
    {
      "time": 56.0,
      "note": 77,
      "duration": 0.25,
      "velocity": 100
    },
    {
      "time": 56.25,
      "note": 81,
      "duration": 0.125,
      "velocity": 100
    },
    {
      "time": 56.375,
      "note": 82,
      "duration": 0.25,
      "velocity": 100
    },
    {
      "time": 56.625,
      "note": 81,
      "duration": 0.125,
      "velocity": 100
    },
    {
      "time": 56.75,
      "note": 82,
      "duration": 0.125,
      "velocity": 100
    },
    {
      "time": 56.875,
      "note": 82,
      "duration": 0.5,
      "velocity": 100
    },
    {
      "time": 57.75,
      "note": 76,
      "duration": 0.5,
      "velocity": 100
    },
    {
      "time": 58.25,
      "note": 79,
      "duration": 0.5,
      "velocity": 100
    },
    {
      "time": 58.25,
      "note": 86,
      "duration": 0.5,
      "velocity": 100
    },
    {
      "time": 58.25,
      "note": 86,
      "duration": 0.125,
      "velocity": 100
    },
    {
      "time": 58.375,
      "note": 86,
      "duration": 0.25,
      "velocity": 100
    },
    {
      "time": 58.625,
      "note": 84,
      "duration": 0.125,
      "velocity": 100
    },
    {
      "time": 58.75,
      "note": 86,
      "duration": 1.0,
      "velocity": 100
    }
  ],
  "chords": [
    {
      "time": 0.0,
      "notes": [
        62,
        65,
        69
      ],
      "duration": 1.5320512820512822
    },
    {
      "time": 1.5320512820512822,
      "notes": [
        62,
        65,
        69
      ],
      "duration": 1.5320512820512822
    },
    {
      "time": 3.0641025641025643,
      "notes": [
        60,
        64,
        67
      ],
      "duration": 1.5320512820512822
    },
    {
      "time": 4.596153846153847,
      "notes": [
        62,
        65,
        69
      ],
      "duration": 1.5320512820512822
    },
    {
      "time": 6.128205128205129,
      "notes": [
        60,
        64,
        67
      ],
      "duration": 1.5320512820512822
    },
    {
      "time": 7.660256410256411,
      "notes": [
        62,
        65,
        69
      ],
      "duration": 1.5320512820512822
    },
    {
      "time": 9.192307692307693,
      "notes": [
        60,
        64,
        67
      ],
      "duration": 1.5320512820512822
    },
    {
      "time": 10.724358974358974,
      "notes": [
        62,
        65,
        69
      ],
      "duration": 1.5320512820512822
    },
    {
      "time": 12.256410256410257,
      "notes": [
        60,
        64,
        67
      ],
      "duration": 1.5320512820512822
    },
    {
      "time": 13.78846153846154,
      "notes": [
        62,
        65,
        69
      ],
      "duration": 1.5320512820512822
    },
    {
      "time": 15.320512820512821,
      "notes": [
        60,
        64,
        67
      ],
      "duration": 1.5320512820512822
    },
    {
      "time": 16.852564102564102,
      "notes": [
        62,
        65,
        69
      ],
      "duration": 1.5320512820512822
    },
    {
      "time": 18.384615384615387,
      "notes": [
        60,
        64,
        67
      ],
      "duration": 1.5320512820512822
    },
    {
      "time": 19.916666666666668,
      "notes": [
        62,
        65,
        69
      ],
      "duration": 1.5320512820512822
    },
    {
      "time": 21.44871794871795,
      "notes": [
        60,
        64,
        67
      ],
      "duration": 1.5320512820512822
    },
    {
      "time": 22.980769230769234,
      "notes": [
        62,
        65,
        69
      ],
      "duration": 1.5320512820512822
    },
    {
      "time": 24.512820512820515,
      "notes": [
        60,
        64,
        67
      ],
      "duration": 1.5320512820512822
    },
    {
      "time": 26.044871794871796,
      "notes": [
        62,
        65,
        69
      ],
      "duration": 1.5320512820512822
    },
    {
      "time": 27.57692307692308,
      "notes": [
        65,
        69,
        72
      ],
      "duration": 1.5320512820512822
    },
    {
      "time": 29.10897435897436,
      "notes": [
        60,
        64,
        67
      ],
      "duration": 1.5320512820512822
    },
    {
      "time": 30.641025641025642,
      "notes": [
        67,
        70,
        74
      ],
      "duration": 1.5320512820512822
    },
    {
      "time": 32.17307692307693,
      "notes": [
        62,
        65,
        69
      ],
      "duration": 1.5320512820512822
    },
    {
      "time": 33.705128205128204,
      "notes": [
        65,
        69,
        72
      ],
      "duration": 1.5320512820512822
    },
    {
      "time": 35.23717948717949,
      "notes": [
        60,
        64,
        67
      ],
      "duration": 1.5320512820512822
    },
    {
      "time": 36.769230769230774,
      "notes": [
        62,
        65,
        69
      ],
      "duration": 1.5320512820512822
    },
    {
      "time": 38.30128205128205,
      "notes": [
        60,
        64,
        67
      ],
      "duration": 1.5320512820512822
    },
    {
      "time": 39.833333333333336,
      "notes": [
        62,
        65,
        69
      ],
      "duration": 1.5320512820512822
    },
    {
      "time": 41.36538461538462,
      "notes": [
        60,
        64,
        67
      ],
      "duration": 1.5320512820512822
    },
    {
      "time": 42.8974358974359,
      "notes": [
        62,
        65,
        69
      ],
      "duration": 1.5320512820512822
    },
    {
      "time": 44.42948717948718,
      "notes": [
        60,
        64,
        67
      ],
      "duration": 1.5320512820512822
    },
    {
      "time": 45.96153846153847,
      "notes": [
        62,
        65,
        69
      ],
      "duration": 1.5320512820512822
    },
    {
      "time": 47.493589743589745,
      "notes": [
        60,
        64,
        67
      ],
      "duration": 1.5320512820512822
    },
    {
      "time": 49.02564102564103,
      "notes": [
        62,
        65,
        69
      ],
      "duration": 1.5320512820512822
    },
    {
      "time": 50.557692307692314,
      "notes": [
        60,
        64,
        67
      ],
      "duration": 1.5320512820512822
    },
    {
      "time": 52.08974358974359,
      "notes": [
        62,
        65,
        69
      ],
      "duration": 1.5320512820512822
    },
    {
      "time": 53.621794871794876,
      "notes": [
        67,
        70,
        74
      ],
      "duration": 1.5320512820512822
    },
    {
      "time": 55.15384615384616,
      "notes": [
        62,
        65,
        69
      ],
      "duration": 1.5320512820512822
    },
    {
      "time": 56.68589743589744,
      "notes": [
        67,
        70,
        74
      ],
      "duration": 1.5320512820512822
    },
    {
      "time": 58.21794871794872,
      "notes": [
        62,
        65,
        69
      ],
      "duration": 1.5320512820512822
    }
  ]
}