{
  "title": "Te hare el amor",
  "artist": "Antonio Rios",
  "bpm": 120,
  "duration": 67.25,
  "audioFile": "",
  "notes": [
    {
      "time": 0.0,
      "note": 84,
      "duration": 0.125,
      "velocity": 100
    },
    {
      "time": 0.125,
      "note": 81,
      "duration": 0.125,
      "velocity": 100
    },
    {
      "time": 0.25,
      "note": 76,
      "duration": 0.125,
      "velocity": 100
    },
    {
      "time": 0.375,
      "note": 77,
      "duration": 0.125,
      "velocity": 100
    },
    {
      "time": 0.5,
      "note": 76,
      "duration": 0.125,
      "velocity": 100
    },
    {
      "time": 0.625,
      "note": 77,
      "duration": 0.125,
      "velocity": 100
    },
    {
      "time": 0.75,
      "note": 76,
      "duration": 0.125,
      "velocity": 100
    },
    {
      "time": 0.875,
      "note": 77,
      "duration": 0.125,
      "velocity": 100
    },
    {
      "time": 1.0,
      "note": 84,
      "duration": 0.125,
      "velocity": 100
    },
    {
      "time": 1.125,
      "note": 81,
      "duration": 0.125,
      "velocity": 100
    },
    {
      "time": 1.25,
      "note": 76,
      "duration": 0.125,
      "velocity": 100
    },
    {
      "time": 1.375,
      "note": 77,
      "duration": 0.125,
      "velocity": 100
    },
    {
      "time": 1.5,
      "note": 76,
      "duration": 0.125,
      "velocity": 100
    },
    {
      "time": 1.625,
      "note": 77,
      "duration": 0.125,
      "velocity": 100
    },
    {
      "time": 1.75,
      "note": 76,
      "duration": 0.125,
      "velocity": 100
    },
    {
      "time": 1.875,
      "note": 77,
      "duration": 0.125,
      "velocity": 100
    },
    {
      "time": 2.0,
      "note": 84,
      "duration": 0.125,
      "velocity": 100
    },
    {
      "time": 2.125,
      "note": 81,
      "duration": 0.125,
      "velocity": 100
    },
    {
      "time": 2.25,
      "note": 76,
      "duration": 0.125,
      "velocity": 100
    },
    {
      "time": 2.375,
      "note": 77,
      "duration": 0.125,
      "velocity": 100
    },
    {
      "time": 2.5,
      "note": 76,
      "duration": 0.125,
      "velocity": 100
    },
    {
      "time": 2.625,
      "note": 77,
      "duration": 0.125,
      "velocity": 100
    },
    {
      "time": 2.75,
      "note": 79,
      "duration": 0.125,
      "velocity": 100
    },
    {
      "time": 2.875,
      "note": 76,
      "duration": 0.125,
      "velocity": 100
    },
    {
      "time": 3.0,
      "note": 77,
      "duration": 0.5,
      "velocity": 100
    },
    {
      "time": 4.0,
      "note": 86,
      "duration": 0.125,
      "velocity": 100
    },
    {
      "time": 4.125,
      "note": 83,
      "duration": 0.125,
      "velocity": 100
    },
    {
      "time": 4.25,
      "note": 79,
      "duration": 0.125,
      "velocity": 100
    },
    {
      "time": 4.375,
      "note": 81,
      "duration": 0.125,
      "velocity": 100
    },
    {
      "time": 4.5,
      "note": 79,
      "duration": 0.125,
      "velocity": 100
    },
    {
      "time": 4.625,
      "note": 81,
      "duration": 0.125,
      "velocity": 100
    },
    {
      "time": 4.75,
      "note": 79,
      "duration": 0.125,
      "velocity": 100
    },
    {
      "time": 4.875,
      "note": 81,
      "duration": 0.125,
      "velocity": 100
    },
    {
      "time": 5.0,
      "note": 86,
      "duration": 0.125,
      "velocity": 100
    },
    {
      "time": 5.125,
      "note": 83,
      "duration": 0.125,
      "velocity": 100
    },
    {
      "time": 5.25,
      "note": 79,
      "duration": 0.125,
      "velocity": 100
    },
    {
      "time": 5.375,
      "note": 81,
      "duration": 0.125,
      "velocity": 100
    },
    {
      "time": 5.5,
      "note": 79,
      "duration": 0.125,
      "velocity": 100
    },
    {
      "time": 5.625,
      "note": 81,
      "duration": 0.125,
      "velocity": 100
    },
    {
      "time": 5.75,
      "note": 79,
      "duration": 0.125,
      "velocity": 100
    },
    {
      "time": 5.875,
      "note": 81,
      "duration": 0.125,
      "velocity": 100
    },
    {
      "time": 6.0,
      "note": 74,
      "duration": 0.125,
      "velocity": 100
    },
    {
      "time": 6.125,
      "note": 74,
      "duration": 0.125,
      "velocity": 100
    },
    {
      "time": 6.25,
      "note": 74,
      "duration": 0.125,
      "velocity": 100
    },
    {
      "time": 6.375,
      "note": 74,
      "duration": 0.125,
      "velocity": 100
    },
    {
      "time": 6.5,
      "note": 74,
      "duration": 0.125,
      "velocity": 100
    },
    {
      "time": 6.625,
      "note": 74,
      "duration": 0.125,
      "velocity": 100
    },
    {
      "time": 6.75,
      "note": 76,
      "duration": 0.125,
      "velocity": 100
    },
    {
      "time": 6.875,
      "note": 77,
      "duration": 0.125,
      "velocity": 100
    },
    {
      "time": 6.0,
      "note": 76,
      "duration": 0.5,
      "velocity": 100
    },
    {
      "time": 6.75,
      "note": 67,
      "duration": 0.125,
      "velocity": 100
    },
    {
      "time": 6.875,
      "note": 71,
      "duration": 0.125,
      "velocity": 100
    },
    {
      "time": 7.0,
      "note": 77,
      "duration": 0.5,
      "velocity": 100
    },
    {
      "time": 7.5,
      "note": 77,
      "duration": 1.5,
      "velocity": 100
    },
    {
      "time": 9.125,
      "note": 81,
      "duration": 0.25,
      "velocity": 100
    },
    {
      "time": 9.375,
      "note": 83,
      "duration": 0.125,
      "velocity": 100
    },
    {
      "time": 9.5,
      "note": 84,
      "duration": 0.125,
      "velocity": 100
    },
    {
      "time": 9.625,
      "note": 83,
      "duration": 0.25,
      "velocity": 100
    },
    {
      "time": 9.875,
      "note": 81,
      "duration": 0.125,
      "velocity": 100
    },
    {
      "time": 9.0,
      "note": 76,
      "duration": 0.125,
      "velocity": 100
    },
    {
      "time": 9.125,
      "note": 76,
      "duration": 0.125,
      "velocity": 100
    },
    {
      "time": 9.25,
      "note": 74,
      "duration": 0.25,
      "velocity": 100
    },
    {
      "time": 9.5,
      "note": 72,
      "duration": 0.25,
      "velocity": 100
    },
    {
      "time": 9.75,
      "note": 71,
      "duration": 0.25,
      "velocity": 100
    },
    {
      "time": 10.0,
      "note": 84,
      "duration": 0.5,
      "velocity": 100
    },
    {
      "time": 11.125,
      "note": 81,
      "duration": 0.25,
      "velocity": 100
    },
    {
      "time": 11.375,
      "note": 83,
      "duration": 0.125,
      "velocity": 100
    },
    {
      "time": 11.5,
      "note": 84,
      "duration": 0.125,
      "velocity": 100
    },
    {
      "time": 11.625,
      "note": 83,
      "duration": 0.25,
      "velocity": 100
    },
    {
      "time": 11.875,
      "note": 81,
      "duration": 0.125,
      "velocity": 100
    },
    {
      "time": 12.0,
      "note": 79,
      "duration": 0.25,
      "velocity": 100
    },
    {
      "time": 12.25,
      "note": 77,
      "duration": 0.75,
      "velocity": 100
    },
    {
      "time": 13.125,
      "note": 83,
      "duration": 0.125,
      "velocity": 100
    },
    {
      "time": 13.25,
      "note": 84,
      "duration": 0.25,
      "velocity": 100
    },
    {
      "time": 13.5,
      "note": 86,
      "duration": 0.125,
      "velocity": 100
    },
    {
      "time": 13.625,
      "note": 84,
      "duration": 0.25,
      "velocity": 100
    },
    {
      "time": 13.875,
      "note": 83,
      "duration": 0.125,
      "velocity": 100
    },
    {
      "time": 14.0,
      "note": 86,
      "duration": 1.0,
      "velocity": 100
    },
    {
      "time": 15.125,
      "note": 79,
      "duration": 0.125,
      "velocity": 100
    },
    {
      "time": 15.25,
      "note": 79,
      "duration": 0.125,
      "velocity": 100
    },
    {
      "time": 15.375,
      "note": 79,
      "duration": 0.125,
      "velocity": 100
    },
    {
      "time": 15.5,
      "note": 81,
      "duration": 0.75,
      "velocity": 100
    },
    {
      "time": 15.0,
      "note": 81,
      "duration": 0.75,
      "velocity": 100
    },
    {
      "time": 15.75,
      "note": 79,
      "duration": 0.5,
      "velocity": 100
    },
    {
      "time": 16.25,
      "note": 89,
      "duration": 0.5,
      "velocity": 100
    },
    {
      "time": 16.25,
      "note": 79,
      "duration": 0.5,
      "velocity": 100
    },
    {
      "time": 16.875,
      "note": 76,
      "duration": 0.25,
      "velocity": 100
    },
    {
      "time": 17.125,
      "note": 76,
      "duration": 0.125,
      "velocity": 100
    },
    {
      "time": 17.25,
      "note": 76,
      "duration": 0.25,
      "velocity": 100
    },
    {
      "time": 17.5,
      "note": 76,
      "duration": 0.125,
      "velocity": 100
    },
    {
      "time": 17.625,
      "note": 79,
      "duration": 0.125,
      "velocity": 100
    },
    {
      "time": 17.875,
      "note": 81,
      "duration": 0.25,
      "velocity": 100
    },
    {
      "time": 18.125,
      "note": 83,
      "duration": 0.125,
      "velocity": 100
    },
    {
      "time": 18.25,
      "note": 83,
      "duration": 0.5,
      "velocity": 100
    },
    {
      "time": 18.875,
      "note": 76,
      "duration": 0.25,
      "velocity": 100
    },
    {
      "time": 19.125,
      "note": 76,
      "duration": 0.125,
      "velocity": 100
    },
    {
      "time": 19.25,
      "note": 76,
      "duration": 0.25,
      "velocity": 100
    },
    {
      "time": 19.5,
      "note": 76,
      "duration": 0.125,
      "velocity": 100
    },
    {
      "time": 19.625,
      "note": 81,
      "duration": 0.125,
      "velocity": 100
    },
    {
      "time": 19.875,
      "note": 83,
      "duration": 0.25,
      "velocity": 100
    },
    {
      "time": 20.125,
      "note": 84,
      "duration": 0.125,
      "velocity": 100
    },
    {
      "time": 20.25,
      "note": 84,
      "duration": 0.5,
      "velocity": 100
    },
    {
      "time": 20.875,
      "note": 81,
      "duration": 0.125,
      "velocity": 100
    },
    {
      "time": 21.0,
      "note": 81,
      "duration": 0.125,
      "velocity": 100
    },
    {
      "time": 21.125,
      "note": 83,
      "duration": 0.125,
      "velocity": 100
    },
    {
      "time": 21.25,
      "note": 84,
      "duration": 0.125,
      "velocity": 100
    },
    {
      "time": 21.375,
      "note": 84,
      "duration": 0.125,
      "velocity": 100
    },
    {
      "time": 21.5,
      "note": 83,
      "duration": 0.125,
      "velocity": 100
    },
    {
      "time": 21.625,
      "note": 84,
      "duration": 0.125,
      "velocity": 100
    },
    {
      "time": 21.75,
      "note": 84,
      "duration": 0.375,
      "velocity": 100
    },
    {
      "time": 22.125,
      "note": 84,
      "duration": 0.125,
      "velocity": 100
    },
    {
      "time": 22.25,
      "note": 84,
      "duration": 0.5,
      "velocity": 100
    },
    {
      "time": 22.875,
      "note": 84,
      "duration": 0.125,
      "velocity": 100
    },
    {
      "time": 23.0,
      "note": 84,
      "duration": 0.125,
      "velocity": 100
    },
    {
      "time": 23.125,
      "note": 84,
      "duration": 0.125,
      "velocity": 100
    },
    {
      "time": 23.25,
      "note": 86,
      "duration": 0.375,
      "velocity": 100
    },
    {
      "time": 23.625,
      "note": 84,
      "duration": 0.125,
      "velocity": 100
    },
    {
      "time": 23.75,
      "note": 83,
      "duration": 1.0,
      "velocity": 100
    },
    {
      "time": 25.125,
      "note": 88,
      "duration": 0.125,
      "velocity": 100
    },
    {
      "time": 25.25,
      "note": 88,
      "duration": 0.125,
      "velocity": 100
    },
    {
      "time": 25.375,
      "note": 88,
      "duration": 0.125,
      "velocity": 100
    },
    {
      "time": 25.5,
      "note": 88,
      "duration": 0.125,
      "velocity": 100
    },
    {
      "time": 25.625,
      "note": 88,
      "duration": 0.125,
      "velocity": 100
    },
    {
      "time": 25.75,
      "note": 88,
      "duration": 0.125,
      "velocity": 100
    },
    {
      "time": 25.875,
      "note": 88,
      "duration": 0.125,
      "velocity": 100
    },
    {
      "time": 26.0,
      "note": 79,
      "duration": 0.5,
      "velocity": 100
    },
    {
      "time": 26.5,
      "note": 89,
      "duration": 0.5,
      "velocity": 100
    },
    {
      "time": 26.5,
      "note": 89,
      "duration": 0.75,
      "velocity": 100
    },
    {
      "time": 27.375,
      "note": 91,
      "duration": 0.125,
      "velocity": 100
    },
    {
      "time": 27.5,
      "note": 91,
      "duration": 0.125,
      "velocity": 100
    },
    {
      "time": 27.625,
      "note": 91,
      "duration": 0.125,
      "velocity": 100
    },
    {
      "time": 27.75,
      "note": 91,
      "duration": 0.125,
      "velocity": 100
    },
    {
      "time": 27.875,
      "note": 91,
      "duration": 0.125,
      "velocity": 100
    },
    {
      "time": 28.0,
      "note": 91,
      "duration": 0.125,
      "velocity": 100
    },
    {
      "time": 28.125,
      "note": 91,
      "duration": 0.125,
      "velocity": 100
    },
    {
      "time": 28.25,
      "note": 81,
      "duration": 0.5,
      "velocity": 100
    },
    {
      "time": 28.75,
      "note": 89,
      "duration": 0.5,
      "velocity": 100
    },
    {
      "time": 28.75,
      "note": 88,
      "duration": 0.5,
      "velocity": 100
    },
    {
      "time": 29.5,
      "note": 88,
      "duration": 0.125,
      "velocity": 100
    },
    {
      "time": 29.625,
      "note": 86,
      "duration": 0.125,
      "velocity": 100
    },
    {
      "time": 29.75,
      "note": 88,
      "duration": 0.125,
      "velocity": 100
    },
    {
      "time": 29.875,
      "note": 86,
      "duration": 0.125,
      "velocity": 100
    },
    {
      "time": 30.0,
      "note": 88,
      "duration": 0.125,
      "velocity": 100
    },
    {
      "time": 30.125,
      "note": 86,
      "duration": 0.125,
      "velocity": 100
    },
    {
      "time": 30.5,
      "note": 86,
      "duration": 0.5,
      "velocity": 100
    },
    {
      "time": 31.0,
      "note": 83,
      "duration": 0.125,
      "velocity": 100
    },
    {
      "time": 31.125,
      "note": 83,
      "duration": 0.125,
      "velocity": 100
    },
    {
      "time": 31.25,
      "note": 83,
      "duration": 0.125,
      "velocity": 100
    },
    {
      "time": 31.375,
      "note": 83,
      "duration": 0.125,
      "velocity": 100
    },
    {
      "time": 31.5,
      "note": 84,
      "duration": 0.25,
      "velocity": 100
    },
    {
      "time": 31.75,
      "note": 86,
      "duration": 0.25,
      "velocity": 100
    },
    {
      "time": 32.0,
      "note": 89,
      "duration": 0.375,
      "velocity": 100
    },
    {
      "time": 32.375,
      "note": 88,
      "duration": 0.125,
      "velocity": 100
    },
    {
      "time": 32.5,
      "note": 88,
      "duration": 0.5,
      "velocity": 100
    },
    {
      "time": 33.125,
      "note": 88,
      "duration": 0.125,
      "velocity": 100
    },
    {
      "time": 33.25,
      "note": 88,
      "duration": 0.125,
      "velocity": 100
    },
    {
      "time": 33.375,
      "note": 88,
      "duration": 0.125,
      "velocity": 100
    },
    {
      "time": 33.5,
      "note": 88,
      "duration": 0.125,
      "velocity": 100
    },
    {
      "time": 33.625,
      "note": 88,
      "duration": 0.125,
      "velocity": 100
    },
    {
      "time": 33.75,
      "note": 88,
      "duration": 0.125,
      "velocity": 100
    },
    {
      "time": 33.875,
      "note": 88,
      "duration": 0.125,
      "velocity": 100
    },
    {
      "time": 34.0,
      "note": 89,
      "duration": 0.25,
      "velocity": 100
    },
    {
      "time": 34.25,
      "note": 89,
      "duration": 0.75,
      "velocity": 100
    },
    {
      "time": 35.125,
      "note": 91,
      "duration": 0.125,
      "velocity": 100
    },
    {
      "time": 35.25,
      "note": 91,
      "duration": 0.125,
      "velocity": 100
    },
    {
      "time": 35.375,
      "note": 91,
      "duration": 0.125,
      "velocity": 100
    },
    {
      "time": 35.5,
      "note": 91,
      "duration": 0.125,
      "velocity": 100
    },
    {
      "time": 35.625,
      "note": 91,
      "duration": 0.125,
      "velocity": 100
    },
    {
      "time": 35.75,
      "note": 91,
      "duration": 0.125,
      "velocity": 100
    },
    {
      "time": 35.875,
      "note": 89,
      "duration": 0.25,
      "velocity": 100
    },
    {
      "time": 36.125,
      "note": 88,
      "duration": 0.75,
      "velocity": 100
    },
    {
      "time": 37.125,
      "note": 88,
      "duration": 0.125,
      "velocity": 100
    },
    {
      "time": 37.25,
      "note": 86,
      "duration": 0.125,
      "velocity": 100
    },
    {
      "time": 37.375,
      "note": 88,
      "duration": 0.125,
      "velocity": 100
    },
    {
      "time": 37.5,
      "note": 86,
      "duration": 0.125,
      "velocity": 100
    },
    {
      "time": 37.625,
      "note": 88,
      "duration": 0.125,
      "velocity": 100
    },
    {
      "time": 37.75,
      "note": 86,
      "duration": 0.125,
      "velocity": 100
    },
    {
      "time": 38.125,
      "note": 86,
      "duration": 0.75,
      "velocity": 100
    },
    {
      "time": 38.875,
      "note": 83,
      "duration": 0.125,
      "velocity": 100
    },
    {
      "time": 39.0,
      "note": 83,
      "duration": 0.125,
      "velocity": 100
    },
    {
      "time": 39.125,
      "note": 83,
      "duration": 0.125,
      "velocity": 100
    },
    {
      "time": 39.25,
      "note": 83,
      "duration": 0.125,
      "velocity": 100
    },
    {
      "time": 39.375,
      "note": 88,
      "duration": 0.375,
      "velocity": 100
    },
    {
      "time": 39.75,
      "note": 84,
      "duration": 0.125,
      "velocity": 100
    },
    {
      "time": 39.875,
      "note": 83,
      "duration": 0.375,
      "velocity": 100
    },
    {
      "time": 40.25,
      "note": 81,
      "duration": 0.125,
      "velocity": 100
    },
    {
      "time": 40.375,
      "note": 81,
      "duration": 0.5,
      "velocity": 100
    },
    {
      "time": 41.375,
      "note": 76,
      "duration": 0.5,
      "velocity": 100
    },
    {
      "time": 41.875,
      "note": 83,
      "duration": 0.125,
      "velocity": 100
    },
    {
      "time": 42.0,
      "note": 79,
      "duration": 0.125,
      "velocity": 100
    },
    {
      "time": 42.125,
      "note": 76,
      "duration": 0.125,
      "velocity": 100
    },
    {
      "time": 42.25,
      "note": 83,
      "duration": 0.125,
      "velocity": 100
    },
    {
      "time": 42.375,
      "note": 79,
      "duration": 0.125,
      "velocity": 100
    },
    {
      "time": 42.5,
      "note": 76,
      "duration": 0.125,
      "velocity": 100
    },
    {
      "time": 42.625,
      "note": 83,
      "duration": 0.125,
      "velocity": 100
    },
    {
      "time": 42.75,
      "note": 79,
      "duration": 0.125,
      "velocity": 100
    },
    {
      "time": 42.875,
      "note": 76,
      "duration": 0.125,
      "velocity": 100
    },
    {
      "time": 43.0,
      "note": 83,
      "duration": 0.125,
      "velocity": 100
    },
    {
      "time": 43.125,
      "note": 79,
      "duration": 0.125,
      "velocity": 100
    },
    {
      "time": 43.25,
      "note": 76,
      "duration": 0.125,
      "velocity": 100
    },
    {
      "time": 43.375,
      "note": 83,
      "duration": 0.25,
      "velocity": 100
    },
    {
      "time": 43.625,
      "note": 76,
      "duration": 0.25,
      "velocity": 100
    },
    {
      "time": 43.875,
      "note": 84,
      "duration": 0.125,
      "velocity": 100
    },
    {
      "time": 44.0,
      "note": 81,
      "duration": 0.125,
      "velocity": 100
    },
    {
      "time": 44.125,
      "note": 76,
      "duration": 0.125,
      "velocity": 100
    },
    {
      "time": 44.25,
      "note": 84,
      "duration": 0.125,
      "velocity": 100
    },
    {
      "time": 44.375,
      "note": 81,
      "duration": 0.125,
      "velocity": 100
    },
    {
      "time": 44.5,
      "note": 76,
      "duration": 0.125,
      "velocity": 100
    },
    {
      "time": 44.625,
      "note": 84,
      "duration": 0.125,
      "velocity": 100
    },
    {
      "time": 44.75,
      "note": 76,
      "duration": 0.125,
      "velocity": 100
    },
    {
      "time": 44.875,
      "note": 81,
      "duration": 0.125,
      "velocity": 100
    },
    {
      "time": 45.0,
      "note": 84,
      "duration": 0.125,
      "velocity": 100
    },
    {
      "time": 45.125,
      "note": 81,
      "duration": 0.125,
      "velocity": 100
    },
    {
      "time": 45.25,
      "note": 76,
      "duration": 0.125,
      "velocity": 100
    },
    {
      "time": 45.375,
      "note": 84,
      "duration": 0.25,
      "velocity": 100
    },
    {
      "time": 45.625,
      "note": 81,
      "duration": 0.25,
      "velocity": 100
    },
    {
      "time": 45.875,
      "note": 86,
      "duration": 0.125,
      "velocity": 100
    },
    {
      "time": 46.0,
      "note": 83,
      "duration": 0.125,
      "velocity": 100
    },
    {
      "time": 46.125,
      "note": 79,
      "duration": 0.125,
      "velocity": 100
    },
    {
      "time": 46.25,
      "note": 86,
      "duration": 0.125,
      "velocity": 100
    },
    {
      "time": 46.375,
      "note": 83,
      "duration": 0.125,
      "velocity": 100
    },
    {
      "time": 46.5,
      "note": 79,
      "duration": 0.125,
      "velocity": 100
    },
    {
      "time": 46.625,
      "note": 86,
      "duration": 0.125,
      "velocity": 100
    },
    {
      "time": 46.75,
      "note": 83,
      "duration": 0.125,
      "velocity": 100
    },
    {
      "time": 46.875,
      "note": 79,
      "duration": 0.125,
      "velocity": 100
    },
    {
      "time": 47.0,
      "note": 86,
      "duration": 0.125,
      "velocity": 100
    },
    {
      "time": 47.125,
      "note": 83,
      "duration": 0.125,
      "velocity": 100
    },
    {
      "time": 47.25,
      "note": 79,
      "duration": 0.125,
      "velocity": 100
    },
    {
      "time": 47.375,
      "note": 86,
      "duration": 0.125,
      "velocity": 100
    },
    {
      "time": 47.5,
      "note": 83,
      "duration": 0.125,
      "velocity": 100
    },
    {
      "time": 47.625,
      "note": 79,
      "duration": 0.125,
      "velocity": 100
    },
    {
      "time": 47.75,
      "note": 89,
      "duration": 0.125,
      "velocity": 100
    },
    {
      "time": 47.875,
      "note": 88,
      "duration": 0.5,
      "velocity": 100
    },
    {
      "time": 48.375,
      "note": 88,
      "duration": 0.125,
      "velocity": 100
    },
    {
      "time": 48.5,
      "note": 79,
      "duration": 0.375,
      "velocity": 100
    },
    {
      "time": 48.875,
      "note": 79,
      "duration": 0.5,
      "velocity": 100
    },
    {
      "time": 49.375,
      "note": 88,
      "duration": 0.5,
      "velocity": 100
    },
    {
      "time": 49.375,
      "note": 88,
      "duration": 0.75,
      "velocity": 100
    },
    {
      "time": 50.75,
      "note": 81,
      "duration": 0.125,
      "velocity": 100
    },
    {
      "time": 50.875,
      "note": 88,
      "duration": 0.125,
      "velocity": 100
    },
    {
      "time": 51.0,
      "note": 86,
      "duration": 0.125,
      "velocity": 100
    },
    {
      "time": 50.125,
      "note": 76,
      "duration": 0.125,
      "velocity": 100
    },
    {
      "time": 50.25,
      "note": 76,
      "duration": 0.125,
      "velocity": 100
    },
    {
      "time": 50.375,
      "note": 74,
      "duration": 0.25,
      "velocity": 100
    },
    {
      "time": 50.625,
      "note": 72,
      "duration": 0.25,
      "velocity": 100
    },
    {
      "time": 50.875,
      "note": 71,
      "duration": 0.25,
      "velocity": 100
    },
    {
      "time": 51.125,
      "note": 88,
      "duration": 0.5,
      "velocity": 100
    },
    {
      "time": 51.75,
      "note": 81,
      "duration": 0.125,
      "velocity": 100
    },
    {
      "time": 51.875,
      "note": 88,
      "duration": 0.125,
      "velocity": 100
    },
    {
      "time": 52.0,
      "note": 86,
      "duration": 0.125,
      "velocity": 100
    },
    {
      "time": 52.125,
      "note": 88,
      "duration": 0.5,
      "velocity": 100
    },
    {
      "time": 53.25,
      "note": 88,
      "duration": 0.5,
      "velocity": 100
    },
    {
      "time": 53.75,
      "note": 88,
      "duration": 0.5,
      "velocity": 100
    },
    {
      "time": 53.125,
      "note": 91,
      "duration": 0.375,
      "velocity": 100
    },
    {
      "time": 53.5,
      "note": 89,
      "duration": 0.125,
      "velocity": 100
    },
    {
      "time": 53.625,
      "note": 89,
      "duration": 0.5,
      "velocity": 100
    },
    {
      "time": 53.75,
      "note": 89,
      "duration": 0.5,
      "velocity": 100
    },
    {
      "time": 54.375,
      "note": 84,
      "duration": 0.125,
      "velocity": 100
    },
    {
      "time": 54.5,
      "note": 91,
      "duration": 0.125,
      "velocity": 100
    },
    {
      "time": 54.625,
      "note": 89,
      "duration": 0.125,
      "velocity": 100
    },
    {
      "time": 54.75,
      "note": 91,
      "duration": 0.5,
      "velocity": 100
    },
    {
      "time": 55.375,
      "note": 86,
      "duration": 0.125,
      "velocity": 100
    },
    {
      "time": 55.5,
      "note": 91,
      "duration": 0.125,
      "velocity": 100
    },
    {
      "time": 55.625,
      "note": 89,
      "duration": 0.125,
      "velocity": 100
    },
    {
      "time": 55.75,
      "note": 91,
      "duration": 0.5,
      "velocity": 100
    },
    {
      "time": 57.375,
      "note": 91,
      "duration": 0.25,
      "velocity": 100
    },
    {
      "time": 57.625,
      "note": 91,
      "duration": 0.25,
      "velocity": 100
    },
    {
      "time": 57.875,
      "note": 91,
      "duration": 0.25,
      "velocity": 100
    },
    {
      "time": 56.75,
      "note": 88,
      "duration": 0.5,
      "velocity": 100
    },
    {
      "time": 57.375,
      "note": 81,
      "duration": 0.125,
      "velocity": 100
    },
    {
      "time": 57.5,
      "note": 86,
      "duration": 0.125,
      "velocity": 100
    },
    {
      "time": 57.625,
      "note": 84,
      "duration": 0.125,
      "velocity": 100
    },
    {
      "time": 57.75,
      "note": 89,
      "duration": 0.375,
      "velocity": 100
    },
    {
      "time": 58.125,
      "note": 88,
      "duration": 0.125,
      "velocity": 100
    },
    {
      "time": 58.25,
      "note": 88,
      "duration": 0.5,
      "velocity": 100
    },
    {
      "time": 58.75,
      "note": 88,
      "duration": 0.125,
      "velocity": 100
    },
    {
      "time": 58.875,
      "note": 86,
      "duration": 0.125,
      "velocity": 100
    },
    {
      "time": 59.0,
      "note": 88,
      "duration": 0.125,
      "velocity": 100
    },
    {
      "time": 59.125,
      "note": 86,
      "duration": 0.125,
      "velocity": 100
    },
    {
      "time": 59.25,
      "note": 88,
      "duration": 0.25,
      "velocity": 100
    },
    {
      "time": 59.5,
      "note": 86,
      "duration": 0.25,
      "velocity": 100
    },
    {
      "time": 59.75,
      "note": 88,
      "duration": 0.25,
      "velocity": 100
    },
    {
      "time": 60.0,
      "note": 86,
      "duration": 0.25,
      "velocity": 100
    },
    {
      "time": 60.875,
      "note": 86,
      "duration": 0.125,
      "velocity": 100
    },
    {
      "time": 61.0,
      "note": 86,
      "duration": 0.125,
      "velocity": 100
    },
    {
      "time": 61.125,
      "note": 86,
      "duration": 0.125,
      "velocity": 100
    },
    {
      "time": 61.25,
      "note": 89,
      "duration": 0.25,
      "velocity": 100
    },
    {
      "time": 61.5,
      "note": 88,
      "duration": 0.25,
      "velocity": 100
    },
    {
      "time": 61.75,
      "note": 86,
      "duration": 0.375,
      "velocity": 100
    },
    {
      "time": 62.125,
      "note": 84,
      "duration": 0.125,
      "velocity": 100
    },
    {
      "time": 62.25,
      "note": 84,
      "duration": 0.5,
      "velocity": 100
    },
    {
      "time": 63.375,
      "note": 84,
      "duration": 0.125,
      "velocity": 100
    },
    {
      "time": 63.5,
      "note": 83,
      "duration": 0.125,
      "velocity": 100
    },
    {
      "time": 63.625,
      "note": 81,
      "duration": 0.125,
      "velocity": 100
    },
    {
      "time": 63.75,
      "note": 84,
      "duration": 1.0,
      "velocity": 100
    },
    {
      "time": 65.375,
      "note": 89,
      "duration": 0.125,
      "velocity": 100
    },
    {
      "time": 65.5,
      "note": 89,
      "duration": 0.125,
      "velocity": 100
    },
    {
      "time": 65.625,
      "note": 89,
      "duration": 0.125,
      "velocity": 100
    },
    {
      "time": 65.75,
      "note": 88,
      "duration": 1.0,
      "velocity": 100
    },
    {
      "time": 66.75,
      "note": 88,
      "duration": 0.5,
      "velocity": 100
    }
  ],
  "chords": [
    {
      "time": 0.0,
      "notes": [
        69,
        72,
        76
      ],
      "duration": 1.6011904761904763
    },
    {
      "time": 1.6011904761904763,
      "notes": [
        62,
        65,
        69
      ],
      "duration": 1.6011904761904763
    },
    {
      "time": 3.2023809523809526,
      "notes": [
        67,
        71,
        74
      ],
      "duration": 1.6011904761904763
    },
    {
      "time": 4.803571428571429,
      "notes": [
        60,
        64,
        67
      ],
      "duration": 1.6011904761904763
    },
    {
      "time": 6.404761904761905,
      "notes": [
        60,
        64,
        67
      ],
      "duration": 1.6011904761904763
    },
    {
      "time": 8.005952380952381,
      "notes": [
        64,
        68,
        71
      ],
      "duration": 1.6011904761904763
    },
    {
      "time": 9.607142857142858,
      "notes": [
        69,
        72,
        76
      ],
      "duration": 1.6011904761904763
    },
    {
      "time": 11.208333333333334,
      "notes": [
        62,
        65,
        69
      ],
      "duration": 1.6011904761904763
    },
    {
      "time": 12.80952380952381,
      "notes": [
        67,
        71,
        74
      ],
      "duration": 1.6011904761904763
    },
    {
      "time": 14.410714285714286,
      "notes": [
        60,
        64,
        67
      ],
      "duration": 1.6011904761904763
    },
    {
      "time": 16.011904761904763,
      "notes": [
        64,
        68,
        71
      ],
      "duration": 1.6011904761904763
    },
    {
      "time": 17.61309523809524,
      "notes": [
        69,
        72,
        76
      ],
      "duration": 1.6011904761904763
    },
    {
      "time": 19.214285714285715,
      "notes": [
        65,
        69,
        72
      ],
      "duration": 1.6011904761904763
    },
    {
      "time": 20.81547619047619,
      "notes": [
        64,
        68,
        71,
        74
      ],
      "duration": 1.6011904761904763
    },
    {
      "time": 22.416666666666668,
      "notes": [
        69,
        72,
        76
      ],
      "duration": 1.6011904761904763
    },
    {
      "time": 24.017857142857146,
      "notes": [
        64,
        68,
        71
      ],
      "duration": 1.6011904761904763
    },
    {
      "time": 25.61904761904762,
      "notes": [
        62,
        65,
        69
      ],
      "duration": 1.6011904761904763
    },
    {
      "time": 27.220238095238095,
      "notes": [
        69,
        72,
        76
      ],
      "duration": 1.6011904761904763
    },
    {
      "time": 28.821428571428573,
      "notes": [
        64,
        68,
        71
      ],
      "duration": 1.6011904761904763
    },
    {
      "time": 30.42261904761905,
      "notes": [
        69,
        72,
        76
      ],
      "duration": 1.6011904761904763
    },
    {
      "time": 32.023809523809526,
      "notes": [
        69,
        72,
        76
      ],
      "duration": 1.6011904761904763
    },
    {
      "time": 33.625,
      "notes": [
        64,
        68,
        71
      ],
      "duration": 1.6011904761904763
    },
    {
      "time": 35.22619047619048,
      "notes": [
        62,
        65,
        69
      ],
      "duration": 1.6011904761904763
    },
    {
      "time": 36.827380952380956,
      "notes": [
        69,
        72,
        76
      ],
      "duration": 1.6011904761904763
    },
    {
      "time": 38.42857142857143,
      "notes": [
        64,
        68,
        71
      ],
      "duration": 1.6011904761904763
    },
    {
      "time": 40.029761904761905,
      "notes": [
        69,
        72,
        76
      ],
      "duration": 1.6011904761904763
    },
    {
      "time": 41.63095238095238,
      "notes": [
        64,
        68,
        71
      ],
      "duration": 1.6011904761904763
    },
    {
      "time": 43.23214285714286,
      "notes": [
        69,
        72,
        76
      ],
      "duration": 1.6011904761904763
    },
    {
      "time": 44.833333333333336,
      "notes": [
        67,
        71,
        74
      ],
      "duration": 1.6011904761904763
    },
    {
      "time": 46.43452380952381,
      "notes": [
        60,
        64,
        67
      ],
      "duration": 1.6011904761904763
    },
    {
      "time": 48.03571428571429,
      "notes": [
        64,
        68,
        71
      ],
      "duration": 1.6011904761904763
    },
    {
      "time": 49.636904761904766,
      "notes": [
        69,
        72,
        76
      ],
      "duration": 1.6011904761904763
    },
    {
      "time": 51.23809523809524,
      "notes": [
        62,
        65,
        69
      ],
      "duration": 1.6011904761904763
    },
    {
      "time": 52.839285714285715,
      "notes": [
        67,
        71,
        74
      ],
      "duration": 1.6011904761904763
    },
    {
      "time": 54.44047619047619,
      "notes": [
        60,
        64,
        67
      ],
      "duration": 1.6011904761904763
    },
    {
      "time": 56.04166666666667,
      "notes": [
        64,
        68,
        71,
        74
      ],
      "duration": 1.6011904761904763
    },
    {
      "time": 57.642857142857146,
      "notes": [
        60,
        64,
        67
      ],
      "duration": 1.6011904761904763
    },
    {
      "time": 59.24404761904762,
      "notes": [
        62,
        65,
        69
      ],
      "duration": 1.6011904761904763
    },
    {
      "time": 60.8452380952381,
      "notes": [
        64,
        68,
        71,
        74
      ],
      "duration": 1.6011904761904763
    },
    {
      "time": 62.44642857142858,
      "notes": [
        69,
        72,
        76
      ],
      "duration": 1.6011904761904763
    },
    {
      "time": 64.04761904761905,
      "notes": [
        65,
        69,
        72
      ],
      "duration": 1.6011904761904763
    },
    {
      "time": 65.64880952380953,
      "notes": [
        64,
        68,
        71
      ],
      "duration": 1.6011904761904763
    }
  ]
}