{
  "title": "Llora me llama",
  "artist": "Arr. Los Palmeras",
  "bpm": 120,
  "duration": 47.125,
  "audioFile": "",
  "notes": [
    {
      "time": 0.0,
      "note": 88,
      "duration": 0.25,
      "velocity": 100
    },
    {
      "time": 0.25,
      "note": 91,
      "duration": 0.25,
      "velocity": 100
    },
    {
      "time": 0.25,
      "note": 88,
      "duration": 0.125,
      "velocity": 100
    },
    {
      "time": 0.375,
      "note": 91,
      "duration": 0.125,
      "velocity": 100
    },
    {
      "time": 0.375,
      "note": 88,
      "duration": 0.125,
      "velocity": 100
    },
    {
      "time": 0.5,
      "note": 91,
      "duration": 0.125,
      "velocity": 100
    },
    {
      "time": 0.5,
      "note": 79,
      "duration": 0.25,
      "velocity": 100
    },
    {
      "time": 0.75,
      "note": 84,
      "duration": 0.25,
      "velocity": 100
    },
    {
      "time": 0.75,
      "note": 88,
      "duration": 0.25,
      "velocity": 100
    },
    {
      "time": 0.75,
      "note": 84,
      "duration": 0.125,
      "velocity": 100
    },
    {
      "time": 0.875,
      "note": 88,
      "duration": 0.125,
      "velocity": 100
    },
    {
      "time": 0.875,
      "note": 84,
      "duration": 0.125,
      "velocity": 100
    },
    {
      "time": 1.0,
      "note": 88,
      "duration": 0.125,
      "velocity": 100
    },
    {
      "time": 1.0,
      "note": 79,
      "duration": 0.25,
      "velocity": 100
    },
    {
      "time": 1.25,
      "note": 84,
      "duration": 0.25,
      "velocity": 100
    },
    {
      "time": 1.25,
      "note": 79,
      "duration": 0.125,
      "velocity": 100
    },
    {
      "time": 1.375,
      "note": 84,
      "duration": 0.125,
      "velocity": 100
    },
    {
      "time": 1.375,
      "note": 79,
      "duration": 0.125,
      "velocity": 100
    },
    {
      "time": 1.5,
      "note": 81,
      "duration": 0.125,
      "velocity": 100
    },
    {
      "time": 1.625,
      "note": 81,
      "duration": 0.25,
      "velocity": 100
    },
    {
      "time": 1.875,
      "note": 79,
      "duration": 0.125,
      "velocity": 100
    },
    {
      "time": 2.0,
      "note": 79,
      "duration": 0.5,
      "velocity": 100
    },
    {
      "time": 2.5,
      "note": 86,
      "duration": 0.5,
      "velocity": 100
    },
    {
      "time": 3.0,
      "note": 86,
      "duration": 0.375,
      "velocity": 100
    },
    {
      "time": 3.375,
      "note": 79,
      "duration": 0.125,
      "velocity": 100
    },
    {
      "time": 3.5,
      "note": 81,
      "duration": 0.125,
      "velocity": 100
    },
    {
      "time": 3.625,
      "note": 81,
      "duration": 0.25,
      "velocity": 100
    },
    {
      "time": 3.875,
      "note": 79,
      "duration": 0.125,
      "velocity": 100
    },
    {
      "time": 4.0,
      "note": 81,
      "duration": 0.5,
      "velocity": 100
    },
    {
      "time": 4.75,
      "note": 88,
      "duration": 0.5,
      "velocity": 100
    },
    {
      "time": 5.416666666666667,
      "note": 88,
      "duration": 0.16666666666666666,
      "velocity": 100
    },
    {
      "time": 5.583333333333333,
      "note": 91,
      "duration": 0.16666666666666666,
      "velocity": 100
    },
    {
      "time": 5.583333333333333,
      "note": 88,
      "duration": 0.16666666666666666,
      "velocity": 100
    },
    {
      "time": 5.75,
      "note": 91,
      "duration": 0.16666666666666666,
      "velocity": 100
    },
    {
      "time": 5.75,
      "note": 88,
      "duration": 0.16666666666666666,
      "velocity": 100
    },
    {
      "time": 5.916666666666667,
      "note": 91,
      "duration": 0.16666666666666666,
      "velocity": 100
    },
    {
      "time": 5.916666666666667,
      "note": 88,
      "duration": 0.16666666666666666,
      "velocity": 100
    },
    {
      "time": 6.083333333333333,
      "note": 91,
      "duration": 0.16666666666666666,
      "velocity": 100
    },
    {
      "time": 6.083333333333333,
      "note": 88,
      "duration": 0.16666666666666666,
      "velocity": 100
    },
    {
      "time": 6.25,
      "note": 91,
      "duration": 0.16666666666666666,
      "velocity": 100
    },
    {
      "time": 6.25,
      "note": 89,
      "duration": 0.25,
      "velocity": 100
    },
    {
      "time": 6.5,
      "note": 88,
      "duration": 0.25,
      "velocity": 100
    },
    {
      "time": 6.75,
      "note": 91,
      "duration": 0.25,
      "velocity": 100
    },
    {
      "time": 6.75,
      "note": 81,
      "duration": 0.5,
      "velocity": 100
    },
    {
      "time": 7.25,
      "note": 84,
      "duration": 0.5,
      "velocity": 100
    },
    {
      "time": 7.25,
      "note": 89,
      "duration": 0.5,
      "velocity": 100
    },
    {
      "time": 7.25,
      "note": 81,
      "duration": 1.0,
      "velocity": 100
    },
    {
      "time": 8.25,
      "note": 84,
      "duration": 1.0,
      "velocity": 100
    },
    {
      "time": 8.25,
      "note": 89,
      "duration": 1.0,
      "velocity": 100
    },
    {
      "time": 8.25,
      "note": 88,
      "duration": 0.125,
      "velocity": 100
    },
    {
      "time": 8.375,
      "note": 79,
      "duration": 0.25,
      "velocity": 100
    },
    {
      "time": 8.625,
      "note": 88,
      "duration": 0.25,
      "velocity": 100
    },
    {
      "time": 8.625,
      "note": 79,
      "duration": 0.125,
      "velocity": 100
    },
    {
      "time": 8.75,
      "note": 88,
      "duration": 0.125,
      "velocity": 100
    },
    {
      "time": 8.75,
      "note": 79,
      "duration": 0.25,
      "velocity": 100
    },
    {
      "time": 9.0,
      "note": 88,
      "duration": 0.25,
      "velocity": 100
    },
    {
      "time": 9.0,
      "note": 79,
      "duration": 0.125,
      "velocity": 100
    },
    {
      "time": 9.125,
      "note": 88,
      "duration": 0.125,
      "velocity": 100
    },
    {
      "time": 9.125,
      "note": 79,
      "duration": 0.125,
      "velocity": 100
    },
    {
      "time": 9.25,
      "note": 88,
      "duration": 0.125,
      "velocity": 100
    },
    {
      "time": 8.75,
      "note": 76,
      "duration": 0.5,
      "velocity": 100
    },
    {
      "time": 9.25,
      "note": 84,
      "duration": 0.5,
      "velocity": 100
    },
    {
      "time": 8.25,
      "note": 81,
      "duration": 0.25,
      "velocity": 100
    },
    {
      "time": 8.5,
      "note": 89,
      "duration": 0.25,
      "velocity": 100
    },
    {
      "time": 8.5,
      "note": 79,
      "duration": 0.25,
      "velocity": 100
    },
    {
      "time": 8.75,
      "note": 88,
      "duration": 0.25,
      "velocity": 100
    },
    {
      "time": 8.75,
      "note": 74,
      "duration": 0.75,
      "velocity": 100
    },
    {
      "time": 9.5,
      "note": 83,
      "duration": 0.75,
      "velocity": 100
    },
    {
      "time": 9.625,
      "note": 79,
      "duration": 0.125,
      "velocity": 100
    },
    {
      "time": 9.75,
      "note": 79,
      "duration": 0.125,
      "velocity": 100
    },
    {
      "time": 9.875,
      "note": 79,
      "duration": 0.125,
      "velocity": 100
    },
    {
      "time": 10.0,
      "note": 79,
      "duration": 0.125,
      "velocity": 100
    },
    {
      "time": 10.125,
      "note": 79,
      "duration": 0.125,
      "velocity": 100
    },
    {
      "time": 10.25,
      "note": 79,
      "duration": 0.25,
      "velocity": 100
    },
    {
      "time": 10.5,
      "note": 79,
      "duration": 0.125,
      "velocity": 100
    },
    {
      "time": 10.625,
      "note": 81,
      "duration": 0.125,
      "velocity": 100
    },
    {
      "time": 10.75,
      "note": 79,
      "duration": 0.375,
      "velocity": 100
    },
    {
      "time": 11.125,
      "note": 79,
      "duration": 0.125,
      "velocity": 100
    },
    {
      "time": 11.25,
      "note": 79,
      "duration": 0.125,
      "velocity": 100
    },
    {
      "time": 11.375,
      "note": 79,
      "duration": 0.25,
      "velocity": 100
    },
    {
      "time": 11.625,
      "note": 79,
      "duration": 0.125,
      "velocity": 100
    },
    {
      "time": 11.75,
      "note": 79,
      "duration": 0.125,
      "velocity": 100
    },
    {
      "time": 11.875,
      "note": 79,
      "duration": 0.125,
      "velocity": 100
    },
    {
      "time": 12.0,
      "note": 79,
      "duration": 0.125,
      "velocity": 100
    },
    {
      "time": 12.125,
      "note": 79,
      "duration": 0.125,
      "velocity": 100
    },
    {
      "time": 12.25,
      "note": 81,
      "duration": 0.125,
      "velocity": 100
    },
    {
      "time": 12.375,
      "note": 83,
      "duration": 0.25,
      "velocity": 100
    },
    {
      "time": 12.625,
      "note": 79,
      "duration": 0.125,
      "velocity": 100
    },
    {
      "time": 12.75,
      "note": 79,
      "duration": 0.5,
      "velocity": 100
    },
    {
      "time": 12.916666666666666,
      "note": 67,
      "duration": 0.16666666666666666,
      "velocity": 100
    },
    {
      "time": 13.083333333333334,
      "note": 69,
      "duration": 0.16666666666666666,
      "velocity": 100
    },
    {
      "time": 13.25,
      "note": 71,
      "duration": 0.25,
      "velocity": 100
    },
    {
      "time": 13.5,
      "note": 72,
      "duration": 0.25,
      "velocity": 100
    },
    {
      "time": 13.75,
      "note": 74,
      "duration": 0.25,
      "velocity": 100
    },
    {
      "time": 13.5,
      "note": 79,
      "duration": 0.125,
      "velocity": 100
    },
    {
      "time": 13.625,
      "note": 81,
      "duration": 0.125,
      "velocity": 100
    },
    {
      "time": 13.75,
      "note": 79,
      "duration": 0.125,
      "velocity": 100
    },
    {
      "time": 13.875,
      "note": 81,
      "duration": 0.5,
      "velocity": 100
    },
    {
      "time": 14.625,
      "note": 79,
      "duration": 0.25,
      "velocity": 100
    },
    {
      "time": 14.875,
      "note": 81,
      "duration": 0.25,
      "velocity": 100
    },
    {
      "time": 15.125,
      "note": 79,
      "duration": 0.25,
      "velocity": 100
    },
    {
      "time": 15.375,
      "note": 81,
      "duration": 0.25,
      "velocity": 100
    },
    {
      "time": 15.625,
      "note": 83,
      "duration": 0.25,
      "velocity": 100
    },
    {
      "time": 15.875,
      "note": 81,
      "duration": 1.0,
      "velocity": 100
    },
    {
      "time": 16.375,
      "note": 77,
      "duration": 0.375,
      "velocity": 100
    },
    {
      "time": 16.75,
      "note": 76,
      "duration": 0.25,
      "velocity": 100
    },
    {
      "time": 17.0,
      "note": 76,
      "duration": 0.25,
      "velocity": 100
    },
    {
      "time": 17.25,
      "note": 74,
      "duration": 0.25,
      "velocity": 100
    },
    {
      "time": 15.875,
      "note": 77,
      "duration": 1.0,
      "velocity": 100
    },
    {
      "time": 15.875,
      "note": 84,
      "duration": 0.125,
      "velocity": 100
    },
    {
      "time": 16.0,
      "note": 84,
      "duration": 0.375,
      "velocity": 100
    },
    {
      "time": 16.625,
      "note": 81,
      "duration": 0.25,
      "velocity": 100
    },
    {
      "time": 16.875,
      "note": 84,
      "duration": 0.25,
      "velocity": 100
    },
    {
      "time": 17.125,
      "note": 81,
      "duration": 0.25,
      "velocity": 100
    },
    {
      "time": 17.375,
      "note": 84,
      "duration": 0.25,
      "velocity": 100
    },
    {
      "time": 17.625,
      "note": 81,
      "duration": 0.25,
      "velocity": 100
    },
    {
      "time": 18.375,
      "note": 81,
      "duration": 0.25,
      "velocity": 100
    },
    {
      "time": 18.625,
      "note": 79,
      "duration": 0.25,
      "velocity": 100
    },
    {
      "time": 17.875,
      "note": 84,
      "duration": 0.5,
      "velocity": 100
    },
    {
      "time": 18.625,
      "note": 81,
      "duration": 0.125,
      "velocity": 100
    },
    {
      "time": 18.75,
      "note": 81,
      "duration": 0.125,
      "velocity": 100
    },
    {
      "time": 18.875,
      "note": 81,
      "duration": 0.125,
      "velocity": 100
    },
    {
      "time": 19.0,
      "note": 81,
      "duration": 0.125,
      "velocity": 100
    },
    {
      "time": 19.125,
      "note": 81,
      "duration": 0.125,
      "velocity": 100
    },
    {
      "time": 19.25,
      "note": 81,
      "duration": 0.125,
      "velocity": 100
    },
    {
      "time": 19.375,
      "note": 79,
      "duration": 0.125,
      "velocity": 100
    },
    {
      "time": 19.5,
      "note": 88,
      "duration": 0.25,
      "velocity": 100
    },
    {
      "time": 19.75,
      "note": 88,
      "duration": 0.125,
      "velocity": 100
    },
    {
      "time": 19.875,
      "note": 88,
      "duration": 0.125,
      "velocity": 100
    },
    {
      "time": 20.0,
      "note": 88,
      "duration": 0.125,
      "velocity": 100
    },
    {
      "time": 20.125,
      "note": 86,
      "duration": 0.125,
      "velocity": 100
    },
    {
      "time": 20.25,
      "note": 84,
      "duration": 0.125,
      "velocity": 100
    },
    {
      "time": 20.375,
      "note": 86,
      "duration": 0.25,
      "velocity": 100
    },
    {
      "time": 20.625,
      "note": 84,
      "duration": 0.125,
      "velocity": 100
    },
    {
      "time": 20.75,
      "note": 86,
      "duration": 0.125,
      "velocity": 100
    },
    {
      "time": 20.875,
      "note": 86,
      "duration": 0.125,
      "velocity": 100
    },
    {
      "time": 21.0,
      "note": 84,
      "duration": 0.25,
      "velocity": 100
    },
    {
      "time": 21.25,
      "note": 88,
      "duration": 0.125,
      "velocity": 100
    },
    {
      "time": 21.375,
      "note": 88,
      "duration": 0.125,
      "velocity": 100
    },
    {
      "time": 21.5,
      "note": 86,
      "duration": 0.25,
      "velocity": 100
    },
    {
      "time": 21.75,
      "note": 84,
      "duration": 0.125,
      "velocity": 100
    },
    {
      "time": 21.875,
      "note": 84,
      "duration": 0.5,
      "velocity": 100
    },
    {
      "time": 22.5,
      "note": 88,
      "duration": 0.125,
      "velocity": 100
    },
    {
      "time": 22.625,
      "note": 88,
      "duration": 0.125,
      "velocity": 100
    },
    {
      "time": 22.75,
      "note": 88,
      "duration": 0.125,
      "velocity": 100
    },
    {
      "time": 22.875,
      "note": 88,
      "duration": 0.25,
      "velocity": 100
    },
    {
      "time": 23.125,
      "note": 86,
      "duration": 0.125,
      "velocity": 100
    },
    {
      "time": 23.25,
      "note": 84,
      "duration": 0.125,
      "velocity": 100
    },
    {
      "time": 23.375,
      "note": 84,
      "duration": 0.125,
      "velocity": 100
    },
    {
      "time": 23.5,
      "note": 84,
      "duration": 0.375,
      "velocity": 100
    },
    {
      "time": 24.125,
      "note": 81,
      "duration": 0.25,
      "velocity": 100
    },
    {
      "time": 23.75,
      "note": 84,
      "duration": 0.25,
      "velocity": 100
    },
    {
      "time": 24.0,
      "note": 81,
      "duration": 0.25,
      "velocity": 100
    },
    {
      "time": 24.25,
      "note": 84,
      "duration": 0.25,
      "velocity": 100
    },
    {
      "time": 24.5,
      "note": 81,
      "duration": 0.25,
      "velocity": 100
    },
    {
      "time": 25.25,
      "note": 81,
      "duration": 0.25,
      "velocity": 100
    },
    {
      "time": 25.5,
      "note": 79,
      "duration": 0.25,
      "velocity": 100
    },
    {
      "time": 24.75,
      "note": 84,
      "duration": 0.5,
      "velocity": 100
    },
    {
      "time": 25.375,
      "note": 88,
      "duration": 0.125,
      "velocity": 100
    },
    {
      "time": 25.5,
      "note": 88,
      "duration": 0.125,
      "velocity": 100
    },
    {
      "time": 25.625,
      "note": 88,
      "duration": 0.125,
      "velocity": 100
    },
    {
      "time": 25.75,
      "note": 88,
      "duration": 0.125,
      "velocity": 100
    },
    {
      "time": 25.875,
      "note": 88,
      "duration": 0.125,
      "velocity": 100
    },
    {
      "time": 26.0,
      "note": 88,
      "duration": 0.125,
      "velocity": 100
    },
    {
      "time": 26.125,
      "note": 88,
      "duration": 0.125,
      "velocity": 100
    },
    {
      "time": 26.25,
      "note": 89,
      "duration": 0.25,
      "velocity": 100
    },
    {
      "time": 26.5,
      "note": 88,
      "duration": 0.25,
      "velocity": 100
    },
    {
      "time": 26.75,
      "note": 89,
      "duration": 0.25,
      "velocity": 100
    },
    {
      "time": 27.0,
      "note": 88,
      "duration": 0.25,
      "velocity": 100
    },
    {
      "time": 27.25,
      "note": 89,
      "duration": 0.25,
      "velocity": 100
    },
    {
      "time": 27.5,
      "note": 88,
      "duration": 0.25,
      "velocity": 100
    },
    {
      "time": 27.75,
      "note": 89,
      "duration": 0.25,
      "velocity": 100
    },
    {
      "time": 28.0,
      "note": 88,
      "duration": 0.25,
      "velocity": 100
    },
    {
      "time": 28.25,
      "note": 88,
      "duration": 0.5,
      "velocity": 100
    },
    {
      "time": 28.75,
      "note": 86,
      "duration": 0.5,
      "velocity": 100
    },
    {
      "time": 29.25,
      "note": 86,
      "duration": 0.5,
      "velocity": 100
    },
    {
      "time": 29.25,
      "note": 71,
      "duration": 0.125,
      "velocity": 100
    },
    {
      "time": 29.375,
      "note": 67,
      "duration": 0.125,
      "velocity": 100
    },
    {
      "time": 29.5,
      "note": 69,
      "duration": 0.125,
      "velocity": 100
    },
    {
      "time": 29.625,
      "note": 71,
      "duration": 0.125,
      "velocity": 100
    },
    {
      "time": 29.75,
      "note": 72,
      "duration": 0.125,
      "velocity": 100
    },
    {
      "time": 29.875,
      "note": 74,
      "duration": 0.125,
      "velocity": 100
    },
    {
      "time": 30.0,
      "note": 76,
      "duration": 0.125,
      "velocity": 100
    },
    {
      "time": 30.125,
      "note": 77,
      "duration": 0.125,
      "velocity": 100
    },
    {
      "time": 30.5,
      "note": 91,
      "duration": 0.25,
      "velocity": 100
    },
    {
      "time": 30.75,
      "note": 91,
      "duration": 0.125,
      "velocity": 100
    },
    {
      "time": 30.875,
      "note": 91,
      "duration": 0.125,
      "velocity": 100
    },
    {
      "time": 31.0,
      "note": 88,
      "duration": 0.25,
      "velocity": 100
    },
    {
      "time": 31.25,
      "note": 88,
      "duration": 0.125,
      "velocity": 100
    },
    {
      "time": 31.375,
      "note": 88,
      "duration": 0.125,
      "velocity": 100
    },
    {
      "time": 31.5,
      "note": 84,
      "duration": 0.25,
      "velocity": 100
    },
    {
      "time": 31.75,
      "note": 84,
      "duration": 0.125,
      "velocity": 100
    },
    {
      "time": 31.875,
      "note": 79,
      "duration": 0.125,
      "velocity": 100
    },
    {
      "time": 32.0,
      "note": 81,
      "duration": 0.25,
      "velocity": 100
    },
    {
      "time": 32.25,
      "note": 81,
      "duration": 0.125,
      "velocity": 100
    },
    {
      "time": 32.375,
      "note": 79,
      "duration": 0.125,
      "velocity": 100
    },
    {
      "time": 32.5,
      "note": 79,
      "duration": 0.5,
      "velocity": 100
    },
    {
      "time": 33.0,
      "note": 86,
      "duration": 0.5,
      "velocity": 100
    },
    {
      "time": 33.5,
      "note": 86,
      "duration": 0.375,
      "velocity": 100
    },
    {
      "time": 33.875,
      "note": 79,
      "duration": 0.125,
      "velocity": 100
    },
    {
      "time": 34.0,
      "note": 81,
      "duration": 0.125,
      "velocity": 100
    },
    {
      "time": 34.125,
      "note": 81,
      "duration": 0.25,
      "velocity": 100
    },
    {
      "time": 34.375,
      "note": 79,
      "duration": 0.125,
      "velocity": 100
    },
    {
      "time": 34.5,
      "note": 81,
      "duration": 0.5,
      "velocity": 100
    },
    {
      "time": 35.25,
      "note": 88,
      "duration": 0.5,
      "velocity": 100
    },
    {
      "time": 35.875,
      "note": 88,
      "duration": 0.125,
      "velocity": 100
    },
    {
      "time": 36.0,
      "note": 88,
      "duration": 0.125,
      "velocity": 100
    },
    {
      "time": 36.125,
      "note": 88,
      "duration": 0.125,
      "velocity": 100
    },
    {
      "time": 36.25,
      "note": 88,
      "duration": 0.125,
      "velocity": 100
    },
    {
      "time": 36.375,
      "note": 88,
      "duration": 0.25,
      "velocity": 100
    },
    {
      "time": 36.625,
      "note": 88,
      "duration": 0.125,
      "velocity": 100
    },
    {
      "time": 36.75,
      "note": 89,
      "duration": 0.25,
      "velocity": 100
    },
    {
      "time": 37.0,
      "note": 88,
      "duration": 0.25,
      "velocity": 100
    },
    {
      "time": 37.25,
      "note": 84,
      "duration": 0.5,
      "velocity": 100
    },
    {
      "time": 37.75,
      "note": 84,
      "duration": 0.5,
      "velocity": 100
    },
    {
      "time": 38.125,
      "note": 77,
      "duration": 0.25,
      "velocity": 100
    },
    {
      "time": 38.375,
      "note": 77,
      "duration": 0.125,
      "velocity": 100
    },
    {
      "time": 38.5,
      "note": 76,
      "duration": 0.125,
      "velocity": 100
    },
    {
      "time": 38.625,
      "note": 74,
      "duration": 0.125,
      "velocity": 100
    },
    {
      "time": 38.75,
      "note": 72,
      "duration": 0.125,
      "velocity": 100
    },
    {
      "time": 38.875,
      "note": 91,
      "duration": 0.25,
      "velocity": 100
    },
    {
      "time": 39.125,
      "note": 91,
      "duration": 0.125,
      "velocity": 100
    },
    {
      "time": 39.25,
      "note": 91,
      "duration": 0.125,
      "velocity": 100
    },
    {
      "time": 39.375,
      "note": 88,
      "duration": 0.25,
      "velocity": 100
    },
    {
      "time": 39.625,
      "note": 88,
      "duration": 0.125,
      "velocity": 100
    },
    {
      "time": 39.75,
      "note": 88,
      "duration": 0.125,
      "velocity": 100
    },
    {
      "time": 39.875,
      "note": 84,
      "duration": 0.25,
      "velocity": 100
    },
    {
      "time": 40.125,
      "note": 84,
      "duration": 0.125,
      "velocity": 100
    },
    {
      "time": 40.25,
      "note": 84,
      "duration": 0.125,
      "velocity": 100
    },
    {
      "time": 40.375,
      "note": 84,
      "duration": 0.125,
      "velocity": 100
    },
    {
      "time": 40.5,
      "note": 84,
      "duration": 0.25,
      "velocity": 100
    },
    {
      "time": 40.75,
      "note": 84,
      "duration": 0.125,
      "velocity": 100
    },
    {
      "time": 40.875,
      "note": 86,
      "duration": 0.375,
      "velocity": 100
    },
    {
      "time": 41.25,
      "note": 84,
      "duration": 0.125,
      "velocity": 100
    },
    {
      "time": 41.375,
      "note": 84,
      "duration": 0.25,
      "velocity": 100
    },
    {
      "time": 41.625,
      "note": 83,
      "duration": 0.25,
      "velocity": 100
    },
    {
      "time": 42.0,
      "note": 86,
      "duration": 0.125,
      "velocity": 100
    },
    {
      "time": 42.125,
      "note": 86,
      "duration": 0.125,
      "velocity": 100
    },
    {
      "time": 42.25,
      "note": 86,
      "duration": 0.125,
      "velocity": 100
    },
    {
      "time": 42.375,
      "note": 86,
      "duration": 0.5,
      "velocity": 100
    },
    {
      "time": 41.875,
      "note": 88,
      "duration": 0.25,
      "velocity": 100
    },
    {
      "time": 42.125,
      "note": 86,
      "duration": 0.25,
      "velocity": 100
    },
    {
      "time": 42.375,
      "note": 84,
      "duration": 0.5,
      "velocity": 100
    },
    {
      "time": 43.125,
      "note": 79,
      "duration": 0.5,
      "velocity": 100
    },
    {
      "time": 43.625,
      "note": 88,
      "duration": 0.5,
      "velocity": 100
    },
    {
      "time": 43.625,
      "note": 88,
      "duration": 0.25,
      "velocity": 100
    },
    {
      "time": 43.875,
      "note": 88,
      "duration": 0.25,
      "velocity": 100
    },
    {
      "time": 44.125,
      "note": 89,
      "duration": 0.25,
      "velocity": 100
    },
    {
      "time": 44.375,
      "note": 88,
      "duration": 0.25,
      "velocity": 100
    },
    {
      "time": 44.625,
      "note": 89,
      "duration": 0.25,
      "velocity": 100
    },
    {
      "time": 44.875,
      "note": 88,
      "duration": 0.25,
      "velocity": 100
    },
    {
      "time": 45.125,
      "note": 84,
      "duration": 0.25,
      "velocity": 100
    },
    {
      "time": 45.375,
      "note": 84,
      "duration": 0.25,
      "velocity": 100
    },
    {
      "time": 45.625,
      "note": 86,
      "duration": 0.25,
      "velocity": 100
    },
    {
      "time": 45.875,
      "note": 86,
      "duration": 0.25,
      "velocity": 100
    },
    {
      "time": 46.125,
      "note": 88,
      "duration": 0.125,
      "velocity": 100
    },
    {
      "time": 46.25,
      "note": 91,
      "duration": 0.125,
      "velocity": 100
    },
    {
      "time": 46.25,
      "note": 88,
      "duration": 0.125,
      "velocity": 100
    },
    {
      "time": 46.375,
      "note": 91,
      "duration": 0.125,
      "velocity": 100
    },
    {
      "time": 46.375,
      "note": 88,
      "duration": 0.125,
      "velocity": 100
    },
    {
      "time": 46.5,
      "note": 91,
      "duration": 0.125,
      "velocity": 100
    },
    {
      "time": 46.5,
      "note": 84,
      "duration": 0.25,
      "velocity": 100
    },
    {
      "time": 46.75,
      "note": 88,
      "duration": 0.25,
      "velocity": 100
    },
    {
      "time": 46.75,
      "note": 84,
      "duration": 0.125,
      "velocity": 100
    },
    {
      "time": 46.875,
      "note": 88,
      "duration": 0.125,
      "velocity": 100
    },
    {
      "time": 46.875,
      "note": 84,
      "duration": 0.125,
      "velocity": 100
    },
    {
      "time": 47.0,
      "note": 88,
      "duration": 0.125,
      "velocity": 100
    },
    {
      "time": 46.125,
      "note": 84,
      "duration": 1.0,
      "velocity": 100
    }
  ],
  "chords": [
    {
      "time": 0.0,
      "notes": [
        60,
        64,
        67
      ],
      "duration": 1.428030303030303
    },
    {
      "time": 1.428030303030303,
      "notes": [
        67,
        71,
        74
      ],
      "duration": 1.428030303030303
    },
    {
      "time": 2.856060606060606,
      "notes": [
        69,
        72,
        76,
        79
      ],
      "duration": 1.428030303030303
    },
    {
      "time": 4.284090909090909,
      "notes": [
        65,
        69,
        72
      ],
      "duration": 1.428030303030303
    },
    {
      "time": 5.712121212121212,
      "notes": [
        69,
        72,
        76,
        79
      ],
      "duration": 1.428030303030303
    },
    {
      "time": 7.140151515151515,
      "notes": [
        65,
        69,
        72
      ],
      "duration": 1.428030303030303
    },
    {
      "time": 8.568181818181818,
      "notes": [
        67,
        71,
        74
      ],
      "duration": 1.428030303030303
    },
    {
      "time": 9.996212121212121,
      "notes": [
        60,
        64,
        67
      ],
      "duration": 1.428030303030303
    },
    {
      "time": 11.424242424242424,
      "notes": [
        67,
        71,
        74
      ],
      "duration": 1.428030303030303
    },
    {
      "time": 12.852272727272727,
      "notes": [
        69,
        72,
        76
      ],
      "duration": 1.428030303030303
    },
    {
      "time": 14.28030303030303,
      "notes": [
        65,
        69,
        72
      ],
      "duration": 1.428030303030303
    },
    {
      "time": 15.708333333333332,
      "notes": [
        62,
        65,
        69,
        72
      ],
      "duration": 1.428030303030303
    },
    {
      "time": 17.136363636363637,
      "notes": [
        65,
        69,
        72
      ],
      "duration": 1.428030303030303
    },
    {
      "time": 18.564393939393938,
      "notes": [
        60,
        64,
        67
      ],
      "duration": 1.428030303030303
    },
    {
      "time": 19.992424242424242,
      "notes": [
        67,
        71,
        74
      ],
      "duration": 1.428030303030303
    },
    {
      "time": 21.420454545454543,
      "notes": [
        69,
        72,
        76
      ],
      "duration": 1.428030303030303
    },
    {
      "time": 22.848484848484848,
      "notes": [
        62,
        65,
        69,
        72
      ],
      "duration": 1.428030303030303
    },
    {
      "time": 24.276515151515152,
      "notes": [
        65,
        69,
        72
      ],
      "duration": 1.428030303030303
    },
    {
      "time": 25.704545454545453,
      "notes": [
        62,
        65,
        69
      ],
      "duration": 1.428030303030303
    },
    {
      "time": 27.132575757575758,
      "notes": [
        65,
        69,
        72
      ],
      "duration": 1.428030303030303
    },
    {
      "time": 28.56060606060606,
      "notes": [
        67,
        71,
        74
      ],
      "duration": 1.428030303030303
    },
    {
      "time": 29.988636363636363,
      "notes": [
        60,
        64,
        67
      ],
      "duration": 1.428030303030303
    },
    {
      "time": 31.416666666666664,
      "notes": [
        67,
        71,
        74
      ],
      "duration": 1.428030303030303
    },
    {
      "time": 32.84469696969697,
      "notes": [
        69,
        72,
        76,
        79
      ],
      "duration": 1.428030303030303
    },
    {
      "time": 34.27272727272727,
      "notes": [
        65,
        69,
        72
      ],
      "duration": 1.428030303030303
    },
    {
      "time": 35.70075757575758,
      "notes": [
        60,
        64,
        67
      ],
      "duration": 1.428030303030303
    },
    {
      "time": 37.128787878787875,
      "notes": [
        67,
        71,
        74
      ],
      "duration": 1.428030303030303
    },
    {
      "time": 38.55681818181818,
      "notes": [
        69,
        72,
        76
      ],
      "duration": 1.428030303030303
    },
    {
      "time": 39.984848484848484,
      "notes": [
        65,
        69,
        72
      ],
      "duration": 1.428030303030303
    },
    {
      "time": 41.41287878787879,
      "notes": [
        67,
        71,
        74
      ],
      "duration": 1.428030303030303
    },
    {
      "time": 42.840909090909086,
      "notes": [
        62,
        66,
        69
      ],
      "duration": 1.428030303030303
    },
    {
      "time": 44.26893939393939,
      "notes": [
        60,
        64,
        67
      ],
      "duration": 1.428030303030303
    },
    {
      "time": 45.696969696969695,
      "notes": [
        60,
        64,
        67
      ],
      "duration": 1.428030303030303
    }
  ]
}