{
  "title": "Nadie sabe",
  "artist": "Antonio Rios",
  "bpm": 120,
  "duration": 65.625,
  "audioFile": "",
  "notes": [
    {
      "time": 1.125,
      "note": 69,
      "duration": 0.25,
      "velocity": 100
    },
    {
      "time": 1.375,
      "note": 69,
      "duration": 0.25,
      "velocity": 100
    },
    {
      "time": 1.625,
      "note": 77,
      "duration": 0.125,
      "velocity": 100
    },
    {
      "time": 1.75,
      "note": 83,
      "duration": 0.125,
      "velocity": 100
    },
    {
      "time": 1.875,
      "note": 84,
      "duration": 0.125,
      "velocity": 100
    },
    {
      "time": 2.0,
      "note": 86,
      "duration": 0.125,
      "velocity": 100
    },
    {
      "time": 2.125,
      "note": 89,
      "duration": 0.125,
      "velocity": 100
    },
    {
      "time": 1.75,
      "note": 71,
      "duration": 0.25,
      "velocity": 100
    },
    {
      "time": 2.0,
      "note": 72,
      "duration": 0.25,
      "velocity": 100
    },
    {
      "time": 2.25,
      "note": 89,
      "duration": 1.0,
      "velocity": 100
    },
    {
      "time": 3.25,
      "note": 89,
      "duration": 0.375,
      "velocity": 100
    },
    {
      "time": 3.625,
      "note": 77,
      "duration": 0.125,
      "velocity": 100
    },
    {
      "time": 3.75,
      "note": 83,
      "duration": 0.125,
      "velocity": 100
    },
    {
      "time": 3.875,
      "note": 84,
      "duration": 0.125,
      "velocity": 100
    },
    {
      "time": 4.0,
      "note": 86,
      "duration": 0.125,
      "velocity": 100
    },
    {
      "time": 4.125,
      "note": 91,
      "duration": 0.125,
      "velocity": 100
    },
    {
      "time": 4.25,
      "note": 91,
      "duration": 1.0,
      "velocity": 100
    },
    {
      "time": 5.625,
      "note": 76,
      "duration": 0.5,
      "velocity": 100
    },
    {
      "time": 6.125,
      "note": 83,
      "duration": 0.5,
      "velocity": 100
    },
    {
      "time": 6.125,
      "note": 84,
      "duration": 0.125,
      "velocity": 100
    },
    {
      "time": 6.25,
      "note": 86,
      "duration": 0.125,
      "velocity": 100
    },
    {
      "time": 6.375,
      "note": 88,
      "duration": 0.125,
      "velocity": 100
    },
    {
      "time": 6.5,
      "note": 93,
      "duration": 0.125,
      "velocity": 100
    },
    {
      "time": 6.625,
      "note": 93,
      "duration": 1.0,
      "velocity": 100
    },
    {
      "time": 7.75,
      "note": 91,
      "duration": 0.25,
      "velocity": 100
    },
    {
      "time": 8.0,
      "note": 91,
      "duration": 0.125,
      "velocity": 100
    },
    {
      "time": 8.125,
      "note": 91,
      "duration": 0.125,
      "velocity": 100
    },
    {
      "time": 8.25,
      "note": 89,
      "duration": 0.25,
      "velocity": 100
    },
    {
      "time": 8.5,
      "note": 88,
      "duration": 0.125,
      "velocity": 100
    },
    {
      "time": 8.875,
      "note": 77,
      "duration": 0.25,
      "velocity": 100
    },
    {
      "time": 9.125,
      "note": 76,
      "duration": 0.25,
      "velocity": 100
    },
    {
      "time": 9.375,
      "note": 74,
      "duration": 0.25,
      "velocity": 100
    },
    {
      "time": 9.625,
      "note": 77,
      "duration": 0.125,
      "velocity": 100
    },
    {
      "time": 9.75,
      "note": 76,
      "duration": 0.25,
      "velocity": 100
    },
    {
      "time": 10.0,
      "note": 77,
      "duration": 0.125,
      "velocity": 100
    },
    {
      "time": 10.125,
      "note": 76,
      "duration": 0.25,
      "velocity": 100
    },
    {
      "time": 10.375,
      "note": 74,
      "duration": 0.25,
      "velocity": 100
    },
    {
      "time": 10.875,
      "note": 77,
      "duration": 0.25,
      "velocity": 100
    },
    {
      "time": 11.125,
      "note": 76,
      "duration": 0.25,
      "velocity": 100
    },
    {
      "time": 11.375,
      "note": 74,
      "duration": 0.25,
      "velocity": 100
    },
    {
      "time": 11.625,
      "note": 77,
      "duration": 0.125,
      "velocity": 100
    },
    {
      "time": 11.75,
      "note": 74,
      "duration": 0.25,
      "velocity": 100
    },
    {
      "time": 12.0,
      "note": 77,
      "duration": 0.125,
      "velocity": 100
    },
    {
      "time": 12.125,
      "note": 76,
      "duration": 0.125,
      "velocity": 100
    },
    {
      "time": 12.25,
      "note": 77,
      "duration": 0.125,
      "velocity": 100
    },
    {
      "time": 12.375,
      "note": 79,
      "duration": 0.25,
      "velocity": 100
    },
    {
      "time": 12.875,
      "note": 79,
      "duration": 0.25,
      "velocity": 100
    },
    {
      "time": 13.125,
      "note": 77,
      "duration": 0.25,
      "velocity": 100
    },
    {
      "time": 13.375,
      "note": 76,
      "duration": 0.25,
      "velocity": 100
    },
    {
      "time": 13.625,
      "note": 79,
      "duration": 0.125,
      "velocity": 100
    },
    {
      "time": 13.75,
      "note": 77,
      "duration": 0.25,
      "velocity": 100
    },
    {
      "time": 14.0,
      "note": 79,
      "duration": 0.125,
      "velocity": 100
    },
    {
      "time": 14.125,
      "note": 77,
      "duration": 0.25,
      "velocity": 100
    },
    {
      "time": 14.375,
      "note": 76,
      "duration": 0.25,
      "velocity": 100
    },
    {
      "time": 14.875,
      "note": 79,
      "duration": 0.25,
      "velocity": 100
    },
    {
      "time": 15.125,
      "note": 77,
      "duration": 0.25,
      "velocity": 100
    },
    {
      "time": 15.375,
      "note": 76,
      "duration": 0.25,
      "velocity": 100
    },
    {
      "time": 15.625,
      "note": 79,
      "duration": 0.125,
      "velocity": 100
    },
    {
      "time": 15.75,
      "note": 76,
      "duration": 0.25,
      "velocity": 100
    },
    {
      "time": 16.0,
      "note": 79,
      "duration": 0.125,
      "velocity": 100
    },
    {
      "time": 16.125,
      "note": 77,
      "duration": 0.125,
      "velocity": 100
    },
    {
      "time": 16.25,
      "note": 76,
      "duration": 0.125,
      "velocity": 100
    },
    {
      "time": 16.375,
      "note": 72,
      "duration": 0.25,
      "velocity": 100
    },
    {
      "time": 16.875,
      "note": 81,
      "duration": 0.125,
      "velocity": 100
    },
    {
      "time": 17.0,
      "note": 84,
      "duration": 0.125,
      "velocity": 100
    },
    {
      "time": 17.0,
      "note": 81,
      "duration": 0.125,
      "velocity": 100
    },
    {
      "time": 17.125,
      "note": 84,
      "duration": 0.125,
      "velocity": 100
    },
    {
      "time": 17.125,
      "note": 81,
      "duration": 0.125,
      "velocity": 100
    },
    {
      "time": 17.25,
      "note": 84,
      "duration": 0.125,
      "velocity": 100
    },
    {
      "time": 17.25,
      "note": 81,
      "duration": 0.125,
      "velocity": 100
    },
    {
      "time": 17.375,
      "note": 84,
      "duration": 0.125,
      "velocity": 100
    },
    {
      "time": 17.375,
      "note": 81,
      "duration": 0.125,
      "velocity": 100
    },
    {
      "time": 17.5,
      "note": 84,
      "duration": 0.125,
      "velocity": 100
    },
    {
      "time": 17.5,
      "note": 81,
      "duration": 0.125,
      "velocity": 100
    },
    {
      "time": 17.625,
      "note": 84,
      "duration": 0.125,
      "velocity": 100
    },
    {
      "time": 17.625,
      "note": 81,
      "duration": 0.125,
      "velocity": 100
    },
    {
      "time": 17.75,
      "note": 84,
      "duration": 0.125,
      "velocity": 100
    },
    {
      "time": 17.75,
      "note": 81,
      "duration": 0.125,
      "velocity": 100
    },
    {
      "time": 17.875,
      "note": 84,
      "duration": 0.125,
      "velocity": 100
    },
    {
      "time": 17.875,
      "note": 81,
      "duration": 0.125,
      "velocity": 100
    },
    {
      "time": 18.0,
      "note": 84,
      "duration": 0.125,
      "velocity": 100
    },
    {
      "time": 18.0,
      "note": 81,
      "duration": 0.125,
      "velocity": 100
    },
    {
      "time": 18.125,
      "note": 84,
      "duration": 0.125,
      "velocity": 100
    },
    {
      "time": 18.125,
      "note": 81,
      "duration": 0.125,
      "velocity": 100
    },
    {
      "time": 18.25,
      "note": 84,
      "duration": 0.125,
      "velocity": 100
    },
    {
      "time": 18.25,
      "note": 81,
      "duration": 0.125,
      "velocity": 100
    },
    {
      "time": 18.375,
      "note": 84,
      "duration": 0.125,
      "velocity": 100
    },
    {
      "time": 16.625,
      "note": 72,
      "duration": 0.5,
      "velocity": 100
    },
    {
      "time": 17.125,
      "note": 79,
      "duration": 0.5,
      "velocity": 100
    },
    {
      "time": 17.625,
      "note": 83,
      "duration": 0.5,
      "velocity": 100
    },
    {
      "time": 17.625,
      "note": 84,
      "duration": 0.125,
      "velocity": 100
    },
    {
      "time": 17.75,
      "note": 88,
      "duration": 0.125,
      "velocity": 100
    },
    {
      "time": 17.75,
      "note": 84,
      "duration": 0.125,
      "velocity": 100
    },
    {
      "time": 17.875,
      "note": 88,
      "duration": 0.125,
      "velocity": 100
    },
    {
      "time": 17.875,
      "note": 84,
      "duration": 0.125,
      "velocity": 100
    },
    {
      "time": 18.0,
      "note": 88,
      "duration": 0.125,
      "velocity": 100
    },
    {
      "time": 18.0,
      "note": 84,
      "duration": 0.125,
      "velocity": 100
    },
    {
      "time": 18.125,
      "note": 88,
      "duration": 0.125,
      "velocity": 100
    },
    {
      "time": 18.125,
      "note": 84,
      "duration": 0.125,
      "velocity": 100
    },
    {
      "time": 18.25,
      "note": 88,
      "duration": 0.125,
      "velocity": 100
    },
    {
      "time": 18.25,
      "note": 84,
      "duration": 0.125,
      "velocity": 100
    },
    {
      "time": 18.375,
      "note": 88,
      "duration": 0.125,
      "velocity": 100
    },
    {
      "time": 18.375,
      "note": 84,
      "duration": 0.125,
      "velocity": 100
    },
    {
      "time": 18.5,
      "note": 88,
      "duration": 0.125,
      "velocity": 100
    },
    {
      "time": 18.5,
      "note": 84,
      "duration": 0.125,
      "velocity": 100
    },
    {
      "time": 18.625,
      "note": 88,
      "duration": 0.125,
      "velocity": 100
    },
    {
      "time": 18.625,
      "note": 81,
      "duration": 0.125,
      "velocity": 100
    },
    {
      "time": 18.75,
      "note": 84,
      "duration": 0.125,
      "velocity": 100
    },
    {
      "time": 18.75,
      "note": 84,
      "duration": 0.125,
      "velocity": 100
    },
    {
      "time": 18.875,
      "note": 88,
      "duration": 0.125,
      "velocity": 100
    },
    {
      "time": 18.875,
      "note": 81,
      "duration": 0.125,
      "velocity": 100
    },
    {
      "time": 19.0,
      "note": 84,
      "duration": 0.125,
      "velocity": 100
    },
    {
      "time": 19.0,
      "note": 84,
      "duration": 0.125,
      "velocity": 100
    },
    {
      "time": 19.125,
      "note": 88,
      "duration": 0.125,
      "velocity": 100
    },
    {
      "time": 19.125,
      "note": 74,
      "duration": 0.125,
      "velocity": 100
    },
    {
      "time": 19.25,
      "note": 83,
      "duration": 0.125,
      "velocity": 100
    },
    {
      "time": 19.25,
      "note": 72,
      "duration": 0.125,
      "velocity": 100
    },
    {
      "time": 19.375,
      "note": 81,
      "duration": 0.125,
      "velocity": 100
    },
    {
      "time": 19.375,
      "note": 71,
      "duration": 0.75,
      "velocity": 100
    },
    {
      "time": 20.125,
      "note": 77,
      "duration": 0.75,
      "velocity": 100
    },
    {
      "time": 20.25,
      "note": 77,
      "duration": 0.125,
      "velocity": 100
    },
    {
      "time": 20.375,
      "note": 77,
      "duration": 0.25,
      "velocity": 100
    },
    {
      "time": 20.625,
      "note": 79,
      "duration": 0.25,
      "velocity": 100
    },
    {
      "time": 20.875,
      "note": 81,
      "duration": 0.25,
      "velocity": 100
    },
    {
      "time": 20.875,
      "note": 74,
      "duration": 0.5,
      "velocity": 100
    },
    {
      "time": 21.375,
      "note": 83,
      "duration": 0.5,
      "velocity": 100
    },
    {
      "time": 21.625,
      "note": 83,
      "duration": 0.125,
      "velocity": 100
    },
    {
      "time": 21.75,
      "note": 83,
      "duration": 0.25,
      "velocity": 100
    },
    {
      "time": 22.0,
      "note": 83,
      "duration": 0.125,
      "velocity": 100
    },
    {
      "time": 22.125,
      "note": 83,
      "duration": 0.125,
      "velocity": 100
    },
    {
      "time": 22.25,
      "note": 83,
      "duration": 0.375,
      "velocity": 100
    },
    {
      "time": 22.625,
      "note": 89,
      "duration": 0.125,
      "velocity": 100
    },
    {
      "time": 22.75,
      "note": 89,
      "duration": 0.25,
      "velocity": 100
    },
    {
      "time": 23.0,
      "note": 89,
      "duration": 0.125,
      "velocity": 100
    },
    {
      "time": 23.125,
      "note": 89,
      "duration": 1.0,
      "velocity": 100
    },
    {
      "time": 24.125,
      "note": 83,
      "duration": 0.5,
      "velocity": 100
    },
    {
      "time": 24.625,
      "note": 74,
      "duration": 0.25,
      "velocity": 100
    },
    {
      "time": 24.875,
      "note": 72,
      "duration": 0.25,
      "velocity": 100
    },
    {
      "time": 25.625,
      "note": 83,
      "duration": 0.125,
      "velocity": 100
    },
    {
      "time": 25.75,
      "note": 83,
      "duration": 0.25,
      "velocity": 100
    },
    {
      "time": 26.0,
      "note": 83,
      "duration": 0.125,
      "velocity": 100
    },
    {
      "time": 26.125,
      "note": 83,
      "duration": 0.125,
      "velocity": 100
    },
    {
      "time": 26.25,
      "note": 83,
      "duration": 0.375,
      "velocity": 100
    },
    {
      "time": 26.625,
      "note": 89,
      "duration": 0.125,
      "velocity": 100
    },
    {
      "time": 26.75,
      "note": 89,
      "duration": 0.25,
      "velocity": 100
    },
    {
      "time": 27.0,
      "note": 89,
      "duration": 0.125,
      "velocity": 100
    },
    {
      "time": 27.125,
      "note": 91,
      "duration": 1.0,
      "velocity": 100
    },
    {
      "time": 28.125,
      "note": 91,
      "duration": 0.5,
      "velocity": 100
    },
    {
      "time": 28.125,
      "note": 79,
      "duration": 0.125,
      "velocity": 100
    },
    {
      "time": 28.25,
      "note": 77,
      "duration": 0.25,
      "velocity": 100
    },
    {
      "time": 28.5,
      "note": 79,
      "duration": 0.125,
      "velocity": 100
    },
    {
      "time": 28.625,
      "note": 77,
      "duration": 0.125,
      "velocity": 100
    },
    {
      "time": 28.75,
      "note": 77,
      "duration": 0.25,
      "velocity": 100
    },
    {
      "time": 29.0,
      "note": 74,
      "duration": 0.125,
      "velocity": 100
    },
    {
      "time": 28.5,
      "note": 89,
      "duration": 0.5,
      "velocity": 100
    },
    {
      "time": 29.0,
      "note": 88,
      "duration": 0.5,
      "velocity": 100
    },
    {
      "time": 29.5,
      "note": 91,
      "duration": 0.25,
      "velocity": 100
    },
    {
      "time": 29.75,
      "note": 91,
      "duration": 0.25,
      "velocity": 100
    },
    {
      "time": 30.0,
      "note": 91,
      "duration": 0.5,
      "velocity": 100
    },
    {
      "time": 30.5,
      "note": 91,
      "duration": 0.125,
      "velocity": 100
    },
    {
      "time": 30.625,
      "note": 89,
      "duration": 0.25,
      "velocity": 100
    },
    {
      "time": 30.875,
      "note": 88,
      "duration": 0.125,
      "velocity": 100
    },
    {
      "time": 31.25,
      "note": 91,
      "duration": 1.0,
      "velocity": 100
    },
    {
      "time": 32.25,
      "note": 91,
      "duration": 1.0,
      "velocity": 100
    },
    {
      "time": 32.25,
      "note": 84,
      "duration": 0.25,
      "velocity": 100
    },
    {
      "time": 32.5,
      "note": 81,
      "duration": 0.125,
      "velocity": 100
    },
    {
      "time": 32.625,
      "note": 88,
      "duration": 0.125,
      "velocity": 100
    },
    {
      "time": 32.75,
      "note": 88,
      "duration": 0.25,
      "velocity": 100
    },
    {
      "time": 33.0,
      "note": 81,
      "duration": 0.125,
      "velocity": 100
    },
    {
      "time": 33.125,
      "note": 86,
      "duration": 0.125,
      "velocity": 100
    },
    {
      "time": 33.25,
      "note": 86,
      "duration": 1.0,
      "velocity": 100
    },
    {
      "time": 34.25,
      "note": 91,
      "duration": 0.125,
      "velocity": 100
    },
    {
      "time": 34.375,
      "note": 91,
      "duration": 0.125,
      "velocity": 100
    },
    {
      "time": 34.5,
      "note": 91,
      "duration": 0.25,
      "velocity": 100
    },
    {
      "time": 34.75,
      "note": 91,
      "duration": 0.125,
      "velocity": 100
    },
    {
      "time": 34.875,
      "note": 91,
      "duration": 0.375,
      "velocity": 100
    },
    {
      "time": 33.25,
      "note": 89,
      "duration": 0.5,
      "velocity": 100
    },
    {
      "time": 33.75,
      "note": 89,
      "duration": 0.375,
      "velocity": 100
    },
    {
      "time": 34.125,
      "note": 88,
      "duration": 0.125,
      "velocity": 100
    },
    {
      "time": 34.25,
      "note": 89,
      "duration": 1.0,
      "velocity": 100
    },
    {
      "time": 35.375,
      "note": 89,
      "duration": 0.125,
      "velocity": 100
    },
    {
      "time": 35.5,
      "note": 88,
      "duration": 0.25,
      "velocity": 100
    },
    {
      "time": 35.75,
      "note": 86,
      "duration": 0.25,
      "velocity": 100
    },
    {
      "time": 36.0,
      "note": 84,
      "duration": 0.25,
      "velocity": 100
    },
    {
      "time": 36.25,
      "note": 89,
      "duration": 1.0,
      "velocity": 100
    },
    {
      "time": 37.25,
      "note": 89,
      "duration": 0.5,
      "velocity": 100
    },
    {
      "time": 37.75,
      "note": 89,
      "duration": 0.375,
      "velocity": 100
    },
    {
      "time": 38.125,
      "note": 88,
      "duration": 0.125,
      "velocity": 100
    },
    {
      "time": 38.75,
      "note": 89,
      "duration": 1.0,
      "velocity": 100
    },
    {
      "time": 39.75,
      "note": 89,
      "duration": 1.0,
      "velocity": 100
    },
    {
      "time": 38.5,
      "note": 83,
      "duration": 0.125,
      "velocity": 100
    },
    {
      "time": 38.625,
      "note": 86,
      "duration": 0.125,
      "velocity": 100
    },
    {
      "time": 38.75,
      "note": 86,
      "duration": 0.25,
      "velocity": 100
    },
    {
      "time": 39.0,
      "note": 83,
      "duration": 0.125,
      "velocity": 100
    },
    {
      "time": 39.125,
      "note": 89,
      "duration": 0.125,
      "velocity": 100
    },
    {
      "time": 39.25,
      "note": 89,
      "duration": 0.25,
      "velocity": 100
    },
    {
      "time": 39.5,
      "note": 89,
      "duration": 0.125,
      "velocity": 100
    },
    {
      "time": 39.75,
      "note": 89,
      "duration": 0.125,
      "velocity": 100
    },
    {
      "time": 39.875,
      "note": 88,
      "duration": 0.125,
      "velocity": 100
    },
    {
      "time": 40.0,
      "note": 89,
      "duration": 0.125,
      "velocity": 100
    },
    {
      "time": 40.0,
      "note": 86,
      "duration": 0.375,
      "velocity": 100
    },
    {
      "time": 40.375,
      "note": 83,
      "duration": 0.125,
      "velocity": 100
    },
    {
      "time": 40.5,
      "note": 86,
      "duration": 0.125,
      "velocity": 100
    },
    {
      "time": 40.625,
      "note": 86,
      "duration": 0.25,
      "velocity": 100
    },
    {
      "time": 40.875,
      "note": 83,
      "duration": 0.125,
      "velocity": 100
    },
    {
      "time": 41.0,
      "note": 89,
      "duration": 0.125,
      "velocity": 100
    },
    {
      "time": 41.125,
      "note": 89,
      "duration": 0.125,
      "velocity": 100
    },
    {
      "time": 41.25,
      "note": 89,
      "duration": 0.125,
      "velocity": 100
    },
    {
      "time": 41.375,
      "note": 89,
      "duration": 0.125,
      "velocity": 100
    },
    {
      "time": 41.625,
      "note": 89,
      "duration": 0.125,
      "velocity": 100
    },
    {
      "time": 41.75,
      "note": 88,
      "duration": 0.125,
      "velocity": 100
    },
    {
      "time": 41.875,
      "note": 86,
      "duration": 0.125,
      "velocity": 100
    },
    {
      "time": 42.0,
      "note": 84,
      "duration": 0.375,
      "velocity": 100
    },
    {
      "time": 42.375,
      "note": 81,
      "duration": 0.125,
      "velocity": 100
    },
    {
      "time": 42.5,
      "note": 84,
      "duration": 0.125,
      "velocity": 100
    },
    {
      "time": 42.625,
      "note": 84,
      "duration": 0.125,
      "velocity": 100
    },
    {
      "time": 42.75,
      "note": 86,
      "duration": 0.125,
      "velocity": 100
    },
    {
      "time": 42.75,
      "note": 88,
      "duration": 0.125,
      "velocity": 100
    },
    {
      "time": 42.875,
      "note": 88,
      "duration": 0.25,
      "velocity": 100
    },
    {
      "time": 43.125,
      "note": 88,
      "duration": 0.125,
      "velocity": 100
    },
    {
      "time": 43.375,
      "note": 88,
      "duration": 0.125,
      "velocity": 100
    },
    {
      "time": 43.5,
      "note": 86,
      "duration": 0.125,
      "velocity": 100
    },
    {
      "time": 43.625,
      "note": 84,
      "duration": 0.125,
      "velocity": 100
    },
    {
      "time": 43.75,
      "note": 83,
      "duration": 0.375,
      "velocity": 100
    },
    {
      "time": 44.125,
      "note": 79,
      "duration": 0.125,
      "velocity": 100
    },
    {
      "time": 44.25,
      "note": 83,
      "duration": 0.125,
      "velocity": 100
    },
    {
      "time": 44.375,
      "note": 83,
      "duration": 0.25,
      "velocity": 100
    },
    {
      "time": 44.625,
      "note": 84,
      "duration": 0.125,
      "velocity": 100
    },
    {
      "time": 44.75,
      "note": 86,
      "duration": 0.125,
      "velocity": 100
    },
    {
      "time": 44.875,
      "note": 86,
      "duration": 0.25,
      "velocity": 100
    },
    {
      "time": 45.125,
      "note": 86,
      "duration": 0.125,
      "velocity": 100
    },
    {
      "time": 45.25,
      "note": 84,
      "duration": 0.125,
      "velocity": 100
    },
    {
      "time": 45.375,
      "note": 86,
      "duration": 0.125,
      "velocity": 100
    },
    {
      "time": 45.375,
      "note": 84,
      "duration": 0.125,
      "velocity": 100
    },
    {
      "time": 45.5,
      "note": 83,
      "duration": 0.125,
      "velocity": 100
    },
    {
      "time": 46.125,
      "note": 81,
      "duration": 0.5,
      "velocity": 100
    },
    {
      "time": 47.25,
      "note": 81,
      "duration": 0.25,
      "velocity": 100
    },
    {
      "time": 47.5,
      "note": 81,
      "duration": 0.25,
      "velocity": 100
    },
    {
      "time": 45.625,
      "note": 86,
      "duration": 0.5,
      "velocity": 100
    },
    {
      "time": 46.125,
      "note": 83,
      "duration": 0.25,
      "velocity": 100
    },
    {
      "time": 46.375,
      "note": 83,
      "duration": 0.25,
      "velocity": 100
    },
    {
      "time": 46.625,
      "note": 89,
      "duration": 0.375,
      "velocity": 100
    },
    {
      "time": 47.0,
      "note": 83,
      "duration": 0.125,
      "velocity": 100
    },
    {
      "time": 47.125,
      "note": 83,
      "duration": 0.125,
      "velocity": 100
    },
    {
      "time": 47.25,
      "note": 83,
      "duration": 0.25,
      "velocity": 100
    },
    {
      "time": 47.5,
      "note": 81,
      "duration": 0.125,
      "velocity": 100
    },
    {
      "time": 47.625,
      "note": 83,
      "duration": 0.375,
      "velocity": 100
    },
    {
      "time": 48.0,
      "note": 83,
      "duration": 0.125,
      "velocity": 100
    },
    {
      "time": 48.125,
      "note": 83,
      "duration": 0.125,
      "velocity": 100
    },
    {
      "time": 48.25,
      "note": 83,
      "duration": 0.25,
      "velocity": 100
    },
    {
      "time": 48.5,
      "note": 83,
      "duration": 0.125,
      "velocity": 100
    },
    {
      "time": 48.625,
      "note": 91,
      "duration": 0.25,
      "velocity": 100
    },
    {
      "time": 48.875,
      "note": 83,
      "duration": 0.125,
      "velocity": 100
    },
    {
      "time": 49.0,
      "note": 83,
      "duration": 0.125,
      "velocity": 100
    },
    {
      "time": 49.125,
      "note": 83,
      "duration": 0.125,
      "velocity": 100
    },
    {
      "time": 49.25,
      "note": 83,
      "duration": 0.25,
      "velocity": 100
    },
    {
      "time": 49.5,
      "note": 81,
      "duration": 0.125,
      "velocity": 100
    },
    {
      "time": 49.625,
      "note": 83,
      "duration": 0.5,
      "velocity": 100
    },
    {
      "time": 50.125,
      "note": 88,
      "duration": 0.25,
      "velocity": 100
    },
    {
      "time": 50.375,
      "note": 86,
      "duration": 0.25,
      "velocity": 100
    },
    {
      "time": 50.625,
      "note": 84,
      "duration": 0.375,
      "velocity": 100
    },
    {
      "time": 51.0,
      "note": 84,
      "duration": 0.125,
      "velocity": 100
    },
    {
      "time": 51.125,
      "note": 84,
      "duration": 0.125,
      "velocity": 100
    },
    {
      "time": 51.25,
      "note": 84,
      "duration": 0.25,
      "velocity": 100
    },
    {
      "time": 51.5,
      "note": 83,
      "duration": 0.125,
      "velocity": 100
    },
    {
      "time": 51.625,
      "note": 81,
      "duration": 0.375,
      "velocity": 100
    },
    {
      "time": 52.0,
      "note": 81,
      "duration": 0.125,
      "velocity": 100
    },
    {
      "time": 52.125,
      "note": 81,
      "duration": 0.125,
      "velocity": 100
    },
    {
      "time": 52.25,
      "note": 81,
      "duration": 0.25,
      "velocity": 100
    },
    {
      "time": 52.5,
      "note": 81,
      "duration": 0.125,
      "velocity": 100
    },
    {
      "time": 52.625,
      "note": 89,
      "duration": 0.375,
      "velocity": 100
    },
    {
      "time": 53.0,
      "note": 89,
      "duration": 0.125,
      "velocity": 100
    },
    {
      "time": 53.25,
      "note": 89,
      "duration": 0.25,
      "velocity": 100
    },
    {
      "time": 53.5,
      "note": 88,
      "duration": 0.125,
      "velocity": 100
    },
    {
      "time": 54.125,
      "note": 89,
      "duration": 1.0,
      "velocity": 100
    },
    {
      "time": 53.625,
      "note": 89,
      "duration": 0.5,
      "velocity": 100
    },
    {
      "time": 54.0,
      "note": 74,
      "duration": 0.25,
      "velocity": 100
    },
    {
      "time": 54.25,
      "note": 74,
      "duration": 0.125,
      "velocity": 100
    },
    {
      "time": 54.375,
      "note": 74,
      "duration": 0.125,
      "velocity": 100
    },
    {
      "time": 54.5,
      "note": 72,
      "duration": 0.125,
      "velocity": 100
    },
    {
      "time": 54.625,
      "note": 74,
      "duration": 0.125,
      "velocity": 100
    },
    {
      "time": 54.75,
      "note": 71,
      "duration": 0.25,
      "velocity": 100
    },
    {
      "time": 55.0,
      "note": 71,
      "duration": 0.25,
      "velocity": 100
    },
    {
      "time": 54.25,
      "note": 89,
      "duration": 1.0,
      "velocity": 100
    },
    {
      "time": 55.25,
      "note": 83,
      "duration": 0.25,
      "velocity": 100
    },
    {
      "time": 55.5,
      "note": 83,
      "duration": 0.25,
      "velocity": 100
    },
    {
      "time": 55.75,
      "note": 91,
      "duration": 0.5,
      "velocity": 100
    },
    {
      "time": 56.125,
      "note": 76,
      "duration": 0.125,
      "velocity": 100
    },
    {
      "time": 56.25,
      "note": 76,
      "duration": 0.125,
      "velocity": 100
    },
    {
      "time": 56.375,
      "note": 71,
      "duration": 0.125,
      "velocity": 100
    },
    {
      "time": 56.5,
      "note": 76,
      "duration": 0.125,
      "velocity": 100
    },
    {
      "time": 56.625,
      "note": 71,
      "duration": 0.25,
      "velocity": 100
    },
    {
      "time": 56.875,
      "note": 71,
      "duration": 0.25,
      "velocity": 100
    },
    {
      "time": 56.125,
      "note": 91,
      "duration": 0.5,
      "velocity": 100
    },
    {
      "time": 56.625,
      "note": 91,
      "duration": 0.375,
      "velocity": 100
    },
    {
      "time": 57.0,
      "note": 91,
      "duration": 0.125,
      "velocity": 100
    },
    {
      "time": 57.125,
      "note": 91,
      "duration": 0.125,
      "velocity": 100
    },
    {
      "time": 57.25,
      "note": 89,
      "duration": 0.25,
      "velocity": 100
    },
    {
      "time": 57.5,
      "note": 88,
      "duration": 0.125,
      "velocity": 100
    },
    {
      "time": 57.625,
      "note": 91,
      "duration": 1.0,
      "velocity": 100
    },
    {
      "time": 58.625,
      "note": 91,
      "duration": 0.375,
      "velocity": 100
    },
    {
      "time": 59.0,
      "note": 91,
      "duration": 0.125,
      "velocity": 100
    },
    {
      "time": 59.125,
      "note": 91,
      "duration": 0.125,
      "velocity": 100
    },
    {
      "time": 59.25,
      "note": 89,
      "duration": 0.25,
      "velocity": 100
    },
    {
      "time": 59.5,
      "note": 88,
      "duration": 0.125,
      "velocity": 100
    },
    {
      "time": 59.625,
      "note": 89,
      "duration": 1.0,
      "velocity": 100
    },
    {
      "time": 61.125,
      "note": 83,
      "duration": 0.25,
      "velocity": 100
    },
    {
      "time": 61.375,
      "note": 83,
      "duration": 0.25,
      "velocity": 100
    },
    {
      "time": 62.125,
      "note": 74,
      "duration": 0.5,
      "velocity": 100
    },
    {
      "time": 62.625,
      "note": 74,
      "duration": 0.5,
      "velocity": 100
    },
    {
      "time": 63.125,
      "note": 72,
      "duration": 0.5,
      "velocity": 100
    },
    {
      "time": 63.625,
      "note": 74,
      "duration": 0.5,
      "velocity": 100
    },
    {
      "time": 61.875,
      "note": 89,
      "duration": 0.5,
      "velocity": 100
    },
    {
      "time": 62.375,
      "note": 89,
      "duration": 1.0,
      "velocity": 100
    },
    {
      "time": 63.375,
      "note": 71,
      "duration": 0.25,
      "velocity": 100
    },
    {
      "time": 63.625,
      "note": 71,
      "duration": 0.25,
      "velocity": 100
    },
    {
      "time": 61.625,
      "note": 89,
      "duration": 1.0,
      "velocity": 100
    },
    {
      "time": 62.625,
      "note": 89,
      "duration": 0.5,
      "velocity": 100
    },
    {
      "time": 63.125,
      "note": 89,
      "duration": 0.375,
      "velocity": 100
    },
    {
      "time": 63.5,
      "note": 88,
      "duration": 0.125,
      "velocity": 100
    },
    {
      "time": 64.375,
      "note": 77,
      "duration": 0.25,
      "velocity": 100
    },
    {
      "time": 64.625,
      "note": 86,
      "duration": 0.25,
      "velocity": 100
    },
    {
      "time": 64.8125,
      "note": 79,
      "duration": 0.375,
      "velocity": 100
    },
    {
      "time": 65.1875,
      "note": 88,
      "duration": 0.375,
      "velocity": 100
    },
    {
      "time": 65.1875,
      "note": 81,
      "duration": 0.25,
      "velocity": 100
    },
    {
      "time": 65.4375,
      "note": 89,
      "duration": 0.25,
      "velocity": 100
    },
    {
      "time": 65.4375,
      "note": 79,
      "duration": 0.25,
      "velocity": 100
    },
    {
      "time": 65.6875,
      "note": 88,
      "duration": 0.25,
      "velocity": 100
    },
    {
      "time": 63.875,
      "note": 72,
      "duration": 0.25,
      "velocity": 100
    },
    {
      "time": 64.125,
      "note": 81,
      "duration": 0.25,
      "velocity": 100
    },
    {
      "time": 64.25,
      "note": 74,
      "duration": 0.375,
      "velocity": 100
    },
    {
      "time": 64.625,
      "note": 83,
      "duration": 0.375,
      "velocity": 100
    },
    {
      "time": 64.625,
      "note": 76,
      "duration": 1.0,
      "velocity": 100
    },
    {
      "time": 65.625,
      "note": 84,
      "duration": 1.0,
      "velocity": 100
    }
  ],
  "chords": [
    {
      "time": 0.0,
      "notes": [
        66,
        70,
        73,
        76
      ],
      "duration": 1.7736486486486487
    },
    {
      "time": 1.7736486486486487,
      "notes": [
        71,
        74,
        78
      ],
      "duration": 1.7736486486486487
    },
    {
      "time": 3.5472972972972974,
      "notes": [
        67,
        71,
        74
      ],
      "duration": 1.7736486486486487
    },
    {
      "time": 5.320945945945946,
      "notes": [
        69,
        73,
        76
      ],
      "duration": 1.7736486486486487
    },
    {
      "time": 7.094594594594595,
      "notes": [
        69,
        73,
        76
      ],
      "duration": 1.7736486486486487
    },
    {
      "time": 8.868243243243244,
      "notes": [
        62,
        66,
        69
      ],
      "duration": 1.7736486486486487
    },
    {
      "time": 10.641891891891891,
      "notes": [
        71,
        74,
        78
      ],
      "duration": 1.7736486486486487
    },
    {
      "time": 12.41554054054054,
      "notes": [
        64,
        67,
        71
      ],
      "duration": 1.7736486486486487
    },
    {
      "time": 14.18918918918919,
      "notes": [
        69,
        73,
        76,
        79
      ],
      "duration": 1.7736486486486487
    },
    {
      "time": 15.962837837837839,
      "notes": [
        71,
        74,
        78
      ],
      "duration": 1.7736486486486487
    },
    {
      "time": 17.736486486486488,
      "notes": [
        66,
        70,
        73,
        76
      ],
      "duration": 1.7736486486486487
    },
    {
      "time": 19.510135135135137,
      "notes": [
        71,
        74,
        78
      ],
      "duration": 1.7736486486486487
    },
    {
      "time": 21.283783783783782,
      "notes": [
        64,
        67,
        71
      ],
      "duration": 1.7736486486486487
    },
    {
      "time": 23.05743243243243,
      "notes": [
        69,
        73,
        76,
        79
      ],
      "duration": 1.7736486486486487
    },
    {
      "time": 24.83108108108108,
      "notes": [
        62,
        66,
        69
      ],
      "duration": 1.7736486486486487
    },
    {
      "time": 26.60472972972973,
      "notes": [
        69,
        73,
        76,
        79
      ],
      "duration": 1.7736486486486487
    },
    {
      "time": 28.37837837837838,
      "notes": [
        69,
        73,
        76
      ],
      "duration": 1.7736486486486487
    },
    {
      "time": 30.152027027027028,
      "notes": [
        66,
        70,
        73,
        76
      ],
      "duration": 1.7736486486486487
    },
    {
      "time": 31.925675675675677,
      "notes": [
        71,
        74,
        78
      ],
      "duration": 1.7736486486486487
    },
    {
      "time": 33.69932432432432,
      "notes": [
        69,
        73,
        76
      ],
      "duration": 1.7736486486486487
    },
    {
      "time": 35.472972972972975,
      "notes": [
        67,
        71,
        74
      ],
      "duration": 1.7736486486486487
    },
    {
      "time": 37.24662162162162,
      "notes": [
        66,
        70,
        73,
        76
      ],
      "duration": 1.7736486486486487
    },
    {
      "time": 39.020270270270274,
      "notes": [
        71,
        74,
        78
      ],
      "duration": 1.7736486486486487
    },
    {
      "time": 40.79391891891892,
      "notes": [
        64,
        67,
        71
      ],
      "duration": 1.7736486486486487
    },
    {
      "time": 42.567567567567565,
      "notes": [
        67,
        71,
        74
      ],
      "duration": 1.7736486486486487
    },
    {
      "time": 44.34121621621622,
      "notes": [
        69,
        73,
        76
      ],
      "duration": 1.7736486486486487
    },
    {
      "time": 46.11486486486486,
      "notes": [
        62,
        66,
        69
      ],
      "duration": 1.7736486486486487
    },
    {
      "time": 47.888513513513516,
      "notes": [
        66,
        70,
        73,
        76
      ],
      "duration": 1.7736486486486487
    },
    {
      "time": 49.66216216216216,
      "notes": [
        71,
        74,
        78
      ],
      "duration": 1.7736486486486487
    },
    {
      "time": 51.435810810810814,
      "notes": [
        64,
        67,
        71
      ],
      "duration": 1.7736486486486487
    },
    {
      "time": 53.20945945945946,
      "notes": [
        69,
        73,
        76
      ],
      "duration": 1.7736486486486487
    },
    {
      "time": 54.98310810810811,
      "notes": [
        62,
        66,
        69
      ],
      "duration": 1.7736486486486487
    },
    {
      "time": 56.75675675675676,
      "notes": [
        71,
        74,
        78
      ],
      "duration": 1.7736486486486487
    },
    {
      "time": 58.5304054054054,
      "notes": [
        64,
        67,
        71
      ],
      "duration": 1.7736486486486487
    },
    {
      "time": 60.304054054054056,
      "notes": [
        69,
        73,
        76
      ],
      "duration": 1.7736486486486487
    },
    {
      "time": 62.0777027027027,
      "notes": [
        62,
        66,
        69
      ],
      "duration": 1.7736486486486487
    },
    {
      "time": 63.851351351351354,
      "notes": [
        66,
        70,
        73,
        76
      ],
      "duration": 1.7736486486486487
    }
  ]
}