{
  "title": "La pollera colorada",
  "artist": "Juan M. Castro y W. Choperena",
  "bpm": 120,
  "duration": 31.625,
  "audioFile": "",
  "notes": [
    {
      "time": 0.375,
      "note": 76,
      "duration": 0.125,
      "velocity": 100
    },
    {
      "time": 0.5,
      "note": 72,
      "duration": 0.125,
      "velocity": 100
    },
    {
      "time": 0.625,
      "note": 76,
      "duration": 0.125,
      "velocity": 100
    },
    {
      "time": 0.75,
      "note": 79,
      "duration": 0.125,
      "velocity": 100
    },
    {
      "time": 0.875,
      "note": 84,
      "duration": 0.125,
      "velocity": 100
    },
    {
      "time": 1.0,
      "note": 83,
      "duration": 0.125,
      "velocity": 100
    },
    {
      "time": 1.125,
      "note": 81,
      "duration": 0.125,
      "velocity": 100
    },
    {
      "time": 1.25,
      "note": 79,
      "duration": 0.125,
      "velocity": 100
    },
    {
      "time": 1.375,
      "note": 86,
      "duration": 0.375,
      "velocity": 100
    },
    {
      "time": 1.75,
      "note": 83,
      "duration": 0.125,
      "velocity": 100
    },
    {
      "time": 1.875,
      "note": 84,
      "duration": 0.125,
      "velocity": 100
    },
    {
      "time": 2.0,
      "note": 83,
      "duration": 0.125,
      "velocity": 100
    },
    {
      "time": 2.125,
      "note": 81,
      "duration": 0.125,
      "velocity": 100
    },
    {
      "time": 2.25,
      "note": 79,
      "duration": 0.125,
      "velocity": 100
    },
    {
      "time": 2.375,
      "note": 76,
      "duration": 0.125,
      "velocity": 100
    },
    {
      "time": 2.5,
      "note": 72,
      "duration": 0.125,
      "velocity": 100
    },
    {
      "time": 2.625,
      "note": 76,
      "duration": 0.125,
      "velocity": 100
    },
    {
      "time": 2.75,
      "note": 79,
      "duration": 0.125,
      "velocity": 100
    },
    {
      "time": 2.875,
      "note": 84,
      "duration": 0.125,
      "velocity": 100
    },
    {
      "time": 3.0,
      "note": 83,
      "duration": 0.125,
      "velocity": 100
    },
    {
      "time": 3.125,
      "note": 81,
      "duration": 0.125,
      "velocity": 100
    },
    {
      "time": 3.25,
      "note": 79,
      "duration": 0.125,
      "velocity": 100
    },
    {
      "time": 3.375,
      "note": 86,
      "duration": 0.375,
      "velocity": 100
    },
    {
      "time": 3.75,
      "note": 83,
      "duration": 0.125,
      "velocity": 100
    },
    {
      "time": 3.875,
      "note": 84,
      "duration": 0.125,
      "velocity": 100
    },
    {
      "time": 4.0,
      "note": 83,
      "duration": 0.125,
      "velocity": 100
    },
    {
      "time": 4.125,
      "note": 81,
      "duration": 0.125,
      "velocity": 100
    },
    {
      "time": 4.25,
      "note": 79,
      "duration": 0.125,
      "velocity": 100
    },
    {
      "time": 4.375,
      "note": 76,
      "duration": 0.5,
      "velocity": 100
    },
    {
      "time": 4.875,
      "note": 76,
      "duration": 0.25,
      "velocity": 100
    },
    {
      "time": 5.125,
      "note": 79,
      "duration": 0.25,
      "velocity": 100
    },
    {
      "time": 5.375,
      "note": 74,
      "duration": 0.375,
      "velocity": 100
    },
    {
      "time": 5.75,
      "note": 74,
      "duration": 0.125,
      "velocity": 100
    },
    {
      "time": 5.875,
      "note": 77,
      "duration": 0.25,
      "velocity": 100
    },
    {
      "time": 6.125,
      "note": 81,
      "duration": 0.25,
      "velocity": 100
    },
    {
      "time": 6.375,
      "note": 74,
      "duration": 0.375,
      "velocity": 100
    },
    {
      "time": 6.75,
      "note": 77,
      "duration": 0.125,
      "velocity": 100
    },
    {
      "time": 6.875,
      "note": 81,
      "duration": 0.25,
      "velocity": 100
    },
    {
      "time": 7.125,
      "note": 79,
      "duration": 0.125,
      "velocity": 100
    },
    {
      "time": 7.25,
      "note": 76,
      "duration": 0.125,
      "velocity": 100
    },
    {
      "time": 7.375,
      "note": 72,
      "duration": 0.5,
      "velocity": 100
    },
    {
      "time": 7.875,
      "note": 76,
      "duration": 0.25,
      "velocity": 100
    },
    {
      "time": 8.125,
      "note": 79,
      "duration": 0.25,
      "velocity": 100
    },
    {
      "time": 8.375,
      "note": 72,
      "duration": 0.5,
      "velocity": 100
    },
    {
      "time": 8.875,
      "note": 76,
      "duration": 0.25,
      "velocity": 100
    },
    {
      "time": 9.125,
      "note": 79,
      "duration": 0.25,
      "velocity": 100
    },
    {
      "time": 9.375,
      "note": 74,
      "duration": 0.375,
      "velocity": 100
    },
    {
      "time": 9.75,
      "note": 74,
      "duration": 0.125,
      "velocity": 100
    },
    {
      "time": 9.875,
      "note": 77,
      "duration": 0.25,
      "velocity": 100
    },
    {
      "time": 10.125,
      "note": 81,
      "duration": 0.25,
      "velocity": 100
    },
    {
      "time": 10.375,
      "note": 74,
      "duration": 0.375,
      "velocity": 100
    },
    {
      "time": 10.75,
      "note": 77,
      "duration": 0.125,
      "velocity": 100
    },
    {
      "time": 10.875,
      "note": 81,
      "duration": 0.25,
      "velocity": 100
    },
    {
      "time": 11.125,
      "note": 79,
      "duration": 0.125,
      "velocity": 100
    },
    {
      "time": 11.25,
      "note": 76,
      "duration": 0.125,
      "velocity": 100
    },
    {
      "time": 11.375,
      "note": 72,
      "duration": 0.375,
      "velocity": 100
    },
    {
      "time": 11.75,
      "note": 79,
      "duration": 0.125,
      "velocity": 100
    },
    {
      "time": 11.875,
      "note": 88,
      "duration": 0.25,
      "velocity": 100
    },
    {
      "time": 12.125,
      "note": 84,
      "duration": 0.25,
      "velocity": 100
    },
    {
      "time": 12.375,
      "note": 84,
      "duration": 0.25,
      "velocity": 100
    },
    {
      "time": 12.625,
      "note": 84,
      "duration": 0.125,
      "velocity": 100
    },
    {
      "time": 12.75,
      "note": 83,
      "duration": 0.125,
      "velocity": 100
    },
    {
      "time": 12.875,
      "note": 86,
      "duration": 0.25,
      "velocity": 100
    },
    {
      "time": 13.125,
      "note": 83,
      "duration": 0.125,
      "velocity": 100
    },
    {
      "time": 13.25,
      "note": 79,
      "duration": 0.125,
      "velocity": 100
    },
    {
      "time": 13.375,
      "note": 81,
      "duration": 0.375,
      "velocity": 100
    },
    {
      "time": 13.75,
      "note": 74,
      "duration": 0.125,
      "velocity": 100
    },
    {
      "time": 13.875,
      "note": 74,
      "duration": 0.5,
      "velocity": 100
    },
    {
      "time": 14.5,
      "note": 77,
      "duration": 0.25,
      "velocity": 100
    },
    {
      "time": 14.75,
      "note": 77,
      "duration": 0.125,
      "velocity": 100
    },
    {
      "time": 14.875,
      "note": 81,
      "duration": 0.25,
      "velocity": 100
    },
    {
      "time": 15.125,
      "note": 79,
      "duration": 0.125,
      "velocity": 100
    },
    {
      "time": 15.25,
      "note": 76,
      "duration": 0.125,
      "velocity": 100
    },
    {
      "time": 15.375,
      "note": 79,
      "duration": 0.375,
      "velocity": 100
    },
    {
      "time": 15.75,
      "note": 72,
      "duration": 0.125,
      "velocity": 100
    },
    {
      "time": 15.875,
      "note": 72,
      "duration": 0.5,
      "velocity": 100
    },
    {
      "time": 16.75,
      "note": 76,
      "duration": 0.25,
      "velocity": 100
    },
    {
      "time": 17.0,
      "note": 79,
      "duration": 0.125,
      "velocity": 100
    },
    {
      "time": 17.125,
      "note": 83,
      "duration": 0.25,
      "velocity": 100
    },
    {
      "time": 17.375,
      "note": 81,
      "duration": 0.125,
      "velocity": 100
    },
    {
      "time": 17.5,
      "note": 79,
      "duration": 0.125,
      "velocity": 100
    },
    {
      "time": 17.625,
      "note": 81,
      "duration": 0.375,
      "velocity": 100
    },
    {
      "time": 18.0,
      "note": 74,
      "duration": 0.125,
      "velocity": 100
    },
    {
      "time": 18.125,
      "note": 74,
      "duration": 0.5,
      "velocity": 100
    },
    {
      "time": 18.75,
      "note": 77,
      "duration": 0.25,
      "velocity": 100
    },
    {
      "time": 19.0,
      "note": 77,
      "duration": 0.125,
      "velocity": 100
    },
    {
      "time": 19.125,
      "note": 77,
      "duration": 0.125,
      "velocity": 100
    },
    {
      "time": 19.25,
      "note": 81,
      "duration": 0.125,
      "velocity": 100
    },
    {
      "time": 19.375,
      "note": 79,
      "duration": 0.125,
      "velocity": 100
    },
    {
      "time": 19.5,
      "note": 76,
      "duration": 0.125,
      "velocity": 100
    },
    {
      "time": 19.625,
      "note": 79,
      "duration": 0.375,
      "velocity": 100
    },
    {
      "time": 20.0,
      "note": 72,
      "duration": 0.125,
      "velocity": 100
    },
    {
      "time": 20.125,
      "note": 72,
      "duration": 0.5,
      "velocity": 100
    },
    {
      "time": 20.75,
      "note": 79,
      "duration": 0.25,
      "velocity": 100
    },
    {
      "time": 21.0,
      "note": 77,
      "duration": 0.125,
      "velocity": 100
    },
    {
      "time": 21.125,
      "note": 83,
      "duration": 0.125,
      "velocity": 100
    },
    {
      "time": 21.25,
      "note": 81,
      "duration": 0.125,
      "velocity": 100
    },
    {
      "time": 21.375,
      "note": 74,
      "duration": 0.125,
      "velocity": 100
    },
    {
      "time": 21.5,
      "note": 74,
      "duration": 0.125,
      "velocity": 100
    },
    {
      "time": 21.625,
      "note": 74,
      "duration": 1.0,
      "velocity": 100
    },
    {
      "time": 22.75,
      "note": 77,
      "duration": 0.125,
      "velocity": 100
    },
    {
      "time": 22.875,
      "note": 77,
      "duration": 0.125,
      "velocity": 100
    },
    {
      "time": 23.0,
      "note": 77,
      "duration": 0.125,
      "velocity": 100
    },
    {
      "time": 23.125,
      "note": 81,
      "duration": 0.25,
      "velocity": 100
    },
    {
      "time": 23.375,
      "note": 81,
      "duration": 0.125,
      "velocity": 100
    },
    {
      "time": 23.5,
      "note": 76,
      "duration": 0.125,
      "velocity": 100
    },
    {
      "time": 23.625,
      "note": 79,
      "duration": 0.375,
      "velocity": 100
    },
    {
      "time": 24.0,
      "note": 72,
      "duration": 0.125,
      "velocity": 100
    },
    {
      "time": 24.125,
      "note": 72,
      "duration": 0.5,
      "velocity": 100
    },
    {
      "time": 24.75,
      "note": 76,
      "duration": 0.25,
      "velocity": 100
    },
    {
      "time": 25.0,
      "note": 79,
      "duration": 0.125,
      "velocity": 100
    },
    {
      "time": 25.125,
      "note": 83,
      "duration": 0.125,
      "velocity": 100
    },
    {
      "time": 25.25,
      "note": 83,
      "duration": 0.125,
      "velocity": 100
    },
    {
      "time": 25.375,
      "note": 81,
      "duration": 0.125,
      "velocity": 100
    },
    {
      "time": 25.5,
      "note": 79,
      "duration": 0.125,
      "velocity": 100
    },
    {
      "time": 25.625,
      "note": 81,
      "duration": 0.125,
      "velocity": 100
    },
    {
      "time": 25.75,
      "note": 74,
      "duration": 0.125,
      "velocity": 100
    },
    {
      "time": 25.875,
      "note": 74,
      "duration": 0.125,
      "velocity": 100
    },
    {
      "time": 26.0,
      "note": 74,
      "duration": 0.125,
      "velocity": 100
    },
    {
      "time": 26.125,
      "note": 74,
      "duration": 0.25,
      "velocity": 100
    },
    {
      "time": 26.375,
      "note": 74,
      "duration": 0.25,
      "velocity": 100
    },
    {
      "time": 26.75,
      "note": 77,
      "duration": 0.125,
      "velocity": 100
    },
    {
      "time": 26.875,
      "note": 77,
      "duration": 0.125,
      "velocity": 100
    },
    {
      "time": 27.0,
      "note": 77,
      "duration": 0.125,
      "velocity": 100
    },
    {
      "time": 27.125,
      "note": 81,
      "duration": 0.125,
      "velocity": 100
    },
    {
      "time": 27.25,
      "note": 81,
      "duration": 0.125,
      "velocity": 100
    },
    {
      "time": 27.375,
      "note": 81,
      "duration": 0.125,
      "velocity": 100
    },
    {
      "time": 27.5,
      "note": 79,
      "duration": 0.125,
      "velocity": 100
    },
    {
      "time": 27.625,
      "note": 72,
      "duration": 0.375,
      "velocity": 100
    },
    {
      "time": 28.0,
      "note": 76,
      "duration": 0.125,
      "velocity": 100
    },
    {
      "time": 28.125,
      "note": 81,
      "duration": 0.25,
      "velocity": 100
    },
    {
      "time": 28.375,
      "note": 79,
      "duration": 0.125,
      "velocity": 100
    },
    {
      "time": 28.5,
      "note": 81,
      "duration": 0.125,
      "velocity": 100
    },
    {
      "time": 28.625,
      "note": 81,
      "duration": 0.125,
      "velocity": 100
    },
    {
      "time": 28.75,
      "note": 81,
      "duration": 0.25,
      "velocity": 100
    },
    {
      "time": 29.0,
      "note": 79,
      "duration": 0.125,
      "velocity": 100
    },
    {
      "time": 29.125,
      "note": 81,
      "duration": 0.25,
      "velocity": 100
    },
    {
      "time": 29.375,
      "note": 79,
      "duration": 0.125,
      "velocity": 100
    },
    {
      "time": 29.5,
      "note": 81,
      "duration": 0.125,
      "velocity": 100
    },
    {
      "time": 29.625,
      "note": 81,
      "duration": 0.125,
      "velocity": 100
    },
    {
      "time": 29.75,
      "note": 81,
      "duration": 0.25,
      "velocity": 100
    },
    {
      "time": 30.0,
      "note": 79,
      "duration": 0.125,
      "velocity": 100
    },
    {
      "time": 30.125,
      "note": 77,
      "duration": 0.5,
      "velocity": 100
    },
    {
      "time": 30.75,
      "note": 77,
      "duration": 0.125,
      "velocity": 100
    },
    {
      "time": 30.875,
      "note": 77,
      "duration": 0.125,
      "velocity": 100
    },
    {
      "time": 31.0,
      "note": 77,
      "duration": 0.125,
      "velocity": 100
    },
    {
      "time": 31.125,
      "note": 81,
      "duration": 0.25,
      "velocity": 100
    },
    {
      "time": 31.375,
      "note": 81,
      "duration": 0.125,
      "velocity": 100
    },
    {
      "time": 31.5,
      "note": 76,
      "duration": 0.125,
      "velocity": 100
    }
  ],
  "chords": [
    {
      "time": 0.0,
      "notes": [
        60,
        64,
        67
      ],
      "duration": 1.7569444444444444
    },
    {
      "time": 1.7569444444444444,
      "notes": [
        67,
        71,
        74,
        77
      ],
      "duration": 1.7569444444444444
    },
    {
      "time": 3.513888888888889,
      "notes": [
        60,
        64,
        67
      ],
      "duration": 1.7569444444444444
    },
    {
      "time": 5.270833333333333,
      "notes": [
        67,
        71,
        74,
        77
      ],
      "duration": 1.7569444444444444
    },
    {
      "time": 7.027777777777778,
      "notes": [
        60,
        64,
        67
      ],
      "duration": 1.7569444444444444
    },
    {
      "time": 8.784722222222221,
      "notes": [
        62,
        65,
        69
      ],
      "duration": 1.7569444444444444
    },
    {
      "time": 10.541666666666666,
      "notes": [
        60,
        64,
        67
      ],
      "duration": 1.7569444444444444
    },
    {
      "time": 12.29861111111111,
      "notes": [
        62,
        65,
        69
      ],
      "duration": 1.7569444444444444
    },
    {
      "time": 14.055555555555555,
      "notes": [
        60,
        64,
        67
      ],
      "duration": 1.7569444444444444
    },
    {
      "time": 15.8125,
      "notes": [
        62,
        65,
        69
      ],
      "duration": 1.7569444444444444
    },
    {
      "time": 17.569444444444443,
      "notes": [
        60,
        64,
        67
      ],
      "duration": 1.7569444444444444
    },
    {
      "time": 19.32638888888889,
      "notes": [
        62,
        65,
        69
      ],
      "duration": 1.7569444444444444
    },
    {
      "time": 21.083333333333332,
      "notes": [
        60,
        64,
        67
      ],
      "duration": 1.7569444444444444
    },
    {
      "time": 22.84027777777778,
      "notes": [
        62,
        65,
        69
      ],
      "duration": 1.7569444444444444
    },
    {
      "time": 24.59722222222222,
      "notes": [
        60,
        64,
        67
      ],
      "duration": 1.7569444444444444
    },
    {
      "time": 26.354166666666668,
      "notes": [
        62,
        65,
        69
      ],
      "duration": 1.7569444444444444
    },
    {
      "time": 28.11111111111111,
      "notes": [
        60,
        64,
        67
      ],
      "duration": 1.7569444444444444
    },
    {
      "time": 29.868055555555554,
      "notes": [
        62,
        65,
        69
      ],
      "duration": 1.7569444444444444
    }
  ]
}