{
  "title": "Vienes y te vas",
  "artist": "La Base Musical",
  "bpm": 120,
  "duration": 48.25,
  "audioFile": "",
  "notes": [
    {
      "time": 0.0,
      "note": 76,
      "duration": 0.125,
      "velocity": 100
    },
    {
      "time": 0.125,
      "note": 79,
      "duration": 0.25,
      "velocity": 100
    },
    {
      "time": 0.375,
      "note": 76,
      "duration": 0.125,
      "velocity": 100
    },
    {
      "time": 0.5,
      "note": 79,
      "duration": 0.25,
      "velocity": 100
    },
    {
      "time": 0.75,
      "note": 76,
      "duration": 0.125,
      "velocity": 100
    },
    {
      "time": 0.875,
      "note": 79,
      "duration": 0.125,
      "velocity": 100
    },
    {
      "time": 1.0,
      "note": 79,
      "duration": 0.25,
      "velocity": 100
    },
    {
      "time": 1.25,
      "note": 79,
      "duration": 0.125,
      "velocity": 100
    },
    {
      "time": 1.375,
      "note": 76,
      "duration": 0.125,
      "velocity": 100
    },
    {
      "time": 1.5,
      "note": 74,
      "duration": 0.125,
      "velocity": 100
    },
    {
      "time": 1.625,
      "note": 76,
      "duration": 0.125,
      "velocity": 100
    },
    {
      "time": 1.75,
      "note": 74,
      "duration": 0.125,
      "velocity": 100
    },
    {
      "time": 1.875,
      "note": 76,
      "duration": 0.125,
      "velocity": 100
    },
    {
      "time": 2.0,
      "note": 72,
      "duration": 0.5,
      "velocity": 100
    },
    {
      "time": 2.5,
      "note": 72,
      "duration": 0.25,
      "velocity": 100
    },
    {
      "time": 2.75,
      "note": 74,
      "duration": 0.25,
      "velocity": 100
    },
    {
      "time": 3.0,
      "note": 72,
      "duration": 1.0,
      "velocity": 100
    },
    {
      "time": 4.0,
      "note": 76,
      "duration": 0.125,
      "velocity": 100
    },
    {
      "time": 4.125,
      "note": 79,
      "duration": 0.25,
      "velocity": 100
    },
    {
      "time": 4.375,
      "note": 76,
      "duration": 0.125,
      "velocity": 100
    },
    {
      "time": 4.5,
      "note": 79,
      "duration": 0.25,
      "velocity": 100
    },
    {
      "time": 4.75,
      "note": 76,
      "duration": 0.125,
      "velocity": 100
    },
    {
      "time": 4.875,
      "note": 79,
      "duration": 0.125,
      "velocity": 100
    },
    {
      "time": 5.0,
      "note": 79,
      "duration": 0.25,
      "velocity": 100
    },
    {
      "time": 5.25,
      "note": 79,
      "duration": 0.125,
      "velocity": 100
    },
    {
      "time": 5.375,
      "note": 76,
      "duration": 0.125,
      "velocity": 100
    },
    {
      "time": 5.5,
      "note": 74,
      "duration": 0.125,
      "velocity": 100
    },
    {
      "time": 5.625,
      "note": 76,
      "duration": 0.125,
      "velocity": 100
    },
    {
      "time": 5.75,
      "note": 74,
      "duration": 0.125,
      "velocity": 100
    },
    {
      "time": 5.875,
      "note": 76,
      "duration": 0.125,
      "velocity": 100
    },
    {
      "time": 6.0,
      "note": 72,
      "duration": 0.5,
      "velocity": 100
    },
    {
      "time": 6.5,
      "note": 72,
      "duration": 0.25,
      "velocity": 100
    },
    {
      "time": 6.75,
      "note": 74,
      "duration": 0.25,
      "velocity": 100
    },
    {
      "time": 7.0,
      "note": 72,
      "duration": 1.0,
      "velocity": 100
    },
    {
      "time": 8.0,
      "note": 81,
      "duration": 0.125,
      "velocity": 100
    },
    {
      "time": 8.125,
      "note": 84,
      "duration": 0.25,
      "velocity": 100
    },
    {
      "time": 8.375,
      "note": 81,
      "duration": 0.125,
      "velocity": 100
    },
    {
      "time": 8.5,
      "note": 84,
      "duration": 0.25,
      "velocity": 100
    },
    {
      "time": 8.75,
      "note": 81,
      "duration": 0.125,
      "velocity": 100
    },
    {
      "time": 8.875,
      "note": 84,
      "duration": 0.125,
      "velocity": 100
    },
    {
      "time": 9.0,
      "note": 84,
      "duration": 0.25,
      "velocity": 100
    },
    {
      "time": 9.25,
      "note": 84,
      "duration": 0.125,
      "velocity": 100
    },
    {
      "time": 9.375,
      "note": 81,
      "duration": 0.125,
      "velocity": 100
    },
    {
      "time": 9.5,
      "note": 84,
      "duration": 0.25,
      "velocity": 100
    },
    {
      "time": 9.75,
      "note": 88,
      "duration": 0.125,
      "velocity": 100
    },
    {
      "time": 9.875,
      "note": 91,
      "duration": 0.125,
      "velocity": 100
    },
    {
      "time": 10.0,
      "note": 91,
      "duration": 1.0,
      "velocity": 100
    },
    {
      "time": 11.0,
      "note": 88,
      "duration": 1.0,
      "velocity": 100
    },
    {
      "time": 12.0,
      "note": 81,
      "duration": 0.125,
      "velocity": 100
    },
    {
      "time": 12.125,
      "note": 84,
      "duration": 0.25,
      "velocity": 100
    },
    {
      "time": 12.375,
      "note": 81,
      "duration": 0.125,
      "velocity": 100
    },
    {
      "time": 12.5,
      "note": 84,
      "duration": 0.25,
      "velocity": 100
    },
    {
      "time": 12.75,
      "note": 81,
      "duration": 0.125,
      "velocity": 100
    },
    {
      "time": 12.875,
      "note": 84,
      "duration": 0.125,
      "velocity": 100
    },
    {
      "time": 13.0,
      "note": 84,
      "duration": 0.25,
      "velocity": 100
    },
    {
      "time": 13.25,
      "note": 84,
      "duration": 0.125,
      "velocity": 100
    },
    {
      "time": 13.375,
      "note": 84,
      "duration": 0.125,
      "velocity": 100
    },
    {
      "time": 13.5,
      "note": 83,
      "duration": 0.25,
      "velocity": 100
    },
    {
      "time": 13.75,
      "note": 81,
      "duration": 0.125,
      "velocity": 100
    },
    {
      "time": 13.875,
      "note": 83,
      "duration": 0.125,
      "velocity": 100
    },
    {
      "time": 14.0,
      "note": 83,
      "duration": 1.0,
      "velocity": 100
    },
    {
      "time": 16.25,
      "note": 88,
      "duration": 0.125,
      "velocity": 100
    },
    {
      "time": 16.375,
      "note": 91,
      "duration": 0.25,
      "velocity": 100
    },
    {
      "time": 16.625,
      "note": 88,
      "duration": 0.125,
      "velocity": 100
    },
    {
      "time": 16.75,
      "note": 91,
      "duration": 0.25,
      "velocity": 100
    },
    {
      "time": 17.0,
      "note": 88,
      "duration": 0.125,
      "velocity": 100
    },
    {
      "time": 17.125,
      "note": 91,
      "duration": 0.125,
      "velocity": 100
    },
    {
      "time": 17.25,
      "note": 91,
      "duration": 0.25,
      "velocity": 100
    },
    {
      "time": 17.5,
      "note": 91,
      "duration": 0.125,
      "velocity": 100
    },
    {
      "time": 17.625,
      "note": 88,
      "duration": 0.125,
      "velocity": 100
    },
    {
      "time": 17.75,
      "note": 86,
      "duration": 0.25,
      "velocity": 100
    },
    {
      "time": 18.0,
      "note": 88,
      "duration": 0.125,
      "velocity": 100
    },
    {
      "time": 18.125,
      "note": 86,
      "duration": 0.125,
      "velocity": 100
    },
    {
      "time": 18.25,
      "note": 84,
      "duration": 1.0,
      "velocity": 100
    },
    {
      "time": 20.25,
      "note": 88,
      "duration": 0.125,
      "velocity": 100
    },
    {
      "time": 20.375,
      "note": 91,
      "duration": 0.25,
      "velocity": 100
    },
    {
      "time": 20.625,
      "note": 88,
      "duration": 0.125,
      "velocity": 100
    },
    {
      "time": 20.75,
      "note": 91,
      "duration": 0.25,
      "velocity": 100
    },
    {
      "time": 21.0,
      "note": 88,
      "duration": 0.125,
      "velocity": 100
    },
    {
      "time": 21.125,
      "note": 91,
      "duration": 0.125,
      "velocity": 100
    },
    {
      "time": 21.25,
      "note": 91,
      "duration": 0.25,
      "velocity": 100
    },
    {
      "time": 21.5,
      "note": 91,
      "duration": 0.125,
      "velocity": 100
    },
    {
      "time": 21.625,
      "note": 88,
      "duration": 0.125,
      "velocity": 100
    },
    {
      "time": 21.75,
      "note": 86,
      "duration": 0.25,
      "velocity": 100
    },
    {
      "time": 22.0,
      "note": 88,
      "duration": 0.125,
      "velocity": 100
    },
    {
      "time": 22.125,
      "note": 86,
      "duration": 0.125,
      "velocity": 100
    },
    {
      "time": 22.25,
      "note": 84,
      "duration": 1.0,
      "velocity": 100
    },
    {
      "time": 24.25,
      "note": 81,
      "duration": 0.125,
      "velocity": 100
    },
    {
      "time": 24.375,
      "note": 84,
      "duration": 0.25,
      "velocity": 100
    },
    {
      "time": 24.625,
      "note": 81,
      "duration": 0.125,
      "velocity": 100
    },
    {
      "time": 24.75,
      "note": 84,
      "duration": 0.25,
      "velocity": 100
    },
    {
      "time": 25.0,
      "note": 81,
      "duration": 0.125,
      "velocity": 100
    },
    {
      "time": 25.125,
      "note": 84,
      "duration": 0.125,
      "velocity": 100
    },
    {
      "time": 25.25,
      "note": 84,
      "duration": 0.25,
      "velocity": 100
    },
    {
      "time": 25.5,
      "note": 84,
      "duration": 0.125,
      "velocity": 100
    },
    {
      "time": 25.625,
      "note": 81,
      "duration": 0.125,
      "velocity": 100
    },
    {
      "time": 25.75,
      "note": 84,
      "duration": 0.25,
      "velocity": 100
    },
    {
      "time": 26.0,
      "note": 88,
      "duration": 0.125,
      "velocity": 100
    },
    {
      "time": 26.125,
      "note": 91,
      "duration": 0.125,
      "velocity": 100
    },
    {
      "time": 26.25,
      "note": 91,
      "duration": 0.5,
      "velocity": 100
    },
    {
      "time": 26.75,
      "note": 83,
      "duration": 0.5,
      "velocity": 100
    },
    {
      "time": 27.25,
      "note": 83,
      "duration": 0.5,
      "velocity": 100
    },
    {
      "time": 27.75,
      "note": 84,
      "duration": 0.5,
      "velocity": 100
    },
    {
      "time": 28.25,
      "note": 81,
      "duration": 0.125,
      "velocity": 100
    },
    {
      "time": 28.375,
      "note": 84,
      "duration": 0.25,
      "velocity": 100
    },
    {
      "time": 28.625,
      "note": 81,
      "duration": 0.125,
      "velocity": 100
    },
    {
      "time": 28.75,
      "note": 84,
      "duration": 0.25,
      "velocity": 100
    },
    {
      "time": 29.0,
      "note": 81,
      "duration": 0.125,
      "velocity": 100
    },
    {
      "time": 29.125,
      "note": 84,
      "duration": 0.125,
      "velocity": 100
    },
    {
      "time": 29.25,
      "note": 84,
      "duration": 0.25,
      "velocity": 100
    },
    {
      "time": 29.5,
      "note": 84,
      "duration": 0.125,
      "velocity": 100
    },
    {
      "time": 29.625,
      "note": 81,
      "duration": 0.125,
      "velocity": 100
    },
    {
      "time": 29.75,
      "note": 84,
      "duration": 0.25,
      "velocity": 100
    },
    {
      "time": 30.0,
      "note": 84,
      "duration": 0.125,
      "velocity": 100
    },
    {
      "time": 30.125,
      "note": 84,
      "duration": 0.125,
      "velocity": 100
    },
    {
      "time": 30.25,
      "note": 83,
      "duration": 1.0,
      "velocity": 100
    },
    {
      "time": 32.25,
      "note": 84,
      "duration": 0.5,
      "velocity": 100
    },
    {
      "time": 32.75,
      "note": 81,
      "duration": 0.5,
      "velocity": 100
    },
    {
      "time": 33.375,
      "note": 84,
      "duration": 0.25,
      "velocity": 100
    },
    {
      "time": 33.625,
      "note": 81,
      "duration": 0.125,
      "velocity": 100
    },
    {
      "time": 33.75,
      "note": 84,
      "duration": 0.25,
      "velocity": 100
    },
    {
      "time": 34.0,
      "note": 84,
      "duration": 0.125,
      "velocity": 100
    },
    {
      "time": 34.125,
      "note": 83,
      "duration": 0.125,
      "velocity": 100
    },
    {
      "time": 34.25,
      "note": 83,
      "duration": 1.0,
      "velocity": 100
    },
    {
      "time": 35.25,
      "note": 83,
      "duration": 1.0,
      "velocity": 100
    },
    {
      "time": 36.25,
      "note": 84,
      "duration": 0.5,
      "velocity": 100
    },
    {
      "time": 36.75,
      "note": 81,
      "duration": 0.5,
      "velocity": 100
    },
    {
      "time": 37.375,
      "note": 84,
      "duration": 0.25,
      "velocity": 100
    },
    {
      "time": 37.625,
      "note": 81,
      "duration": 0.125,
      "velocity": 100
    },
    {
      "time": 37.75,
      "note": 84,
      "duration": 0.25,
      "velocity": 100
    },
    {
      "time": 38.0,
      "note": 84,
      "duration": 0.125,
      "velocity": 100
    },
    {
      "time": 38.125,
      "note": 83,
      "duration": 0.125,
      "velocity": 100
    },
    {
      "time": 38.25,
      "note": 83,
      "duration": 0.5,
      "velocity": 100
    },
    {
      "time": 38.75,
      "note": 81,
      "duration": 0.5,
      "velocity": 100
    },
    {
      "time": 39.25,
      "note": 81,
      "duration": 1.0,
      "velocity": 100
    },
    {
      "time": 40.25,
      "note": 84,
      "duration": 0.5,
      "velocity": 100
    },
    {
      "time": 40.75,
      "note": 81,
      "duration": 0.5,
      "velocity": 100
    },
    {
      "time": 41.375,
      "note": 84,
      "duration": 0.25,
      "velocity": 100
    },
    {
      "time": 41.625,
      "note": 81,
      "duration": 0.125,
      "velocity": 100
    },
    {
      "time": 41.75,
      "note": 84,
      "duration": 0.25,
      "velocity": 100
    },
    {
      "time": 42.0,
      "note": 84,
      "duration": 0.125,
      "velocity": 100
    },
    {
      "time": 42.125,
      "note": 83,
      "duration": 0.125,
      "velocity": 100
    },
    {
      "time": 42.25,
      "note": 83,
      "duration": 1.0,
      "velocity": 100
    },
    {
      "time": 43.25,
      "note": 83,
      "duration": 1.0,
      "velocity": 100
    },
    {
      "time": 44.25,
      "note": 84,
      "duration": 0.5,
      "velocity": 100
    },
    {
      "time": 44.75,
      "note": 81,
      "duration": 0.5,
      "velocity": 100
    },
    {
      "time": 45.375,
      "note": 84,
      "duration": 0.25,
      "velocity": 100
    },
    {
      "time": 45.625,
      "note": 81,
      "duration": 0.125,
      "velocity": 100
    },
    {
      "time": 45.75,
      "note": 84,
      "duration": 0.25,
      "velocity": 100
    },
    {
      "time": 46.0,
      "note": 88,
      "duration": 0.125,
      "velocity": 100
    },
    {
      "time": 46.125,
      "note": 91,
      "duration": 0.125,
      "velocity": 100
    },
    {
      "time": 46.25,
      "note": 91,
      "duration": 1.0,
      "velocity": 100
    },
    {
      "time": 47.25,
      "note": 91,
      "duration": 1.0,
      "velocity": 100
    }
  ],
  "chords": [
    {
      "time": 0.0,
      "notes": [
        60,
        64,
        67
      ],
      "duration": 2.0104166666666665
    },
    {
      "time": 2.0104166666666665,
      "notes": [
        69,
        72,
        76
      ],
      "duration": 2.0104166666666665
    },
    {
      "time": 4.020833333333333,
      "notes": [
        60,
        64,
        67
      ],
      "duration": 2.0104166666666665
    },
    {
      "time": 6.03125,
      "notes": [
        69,
        72,
        76
      ],
      "duration": 2.0104166666666665
    },
    {
      "time": 8.041666666666666,
      "notes": [
        65,
        69,
        72
      ],
      "duration": 2.0104166666666665
    },
    {
      "time": 10.052083333333332,
      "notes": [
        64,
        67,
        71
      ],
      "duration": 2.0104166666666665
    },
    {
      "time": 12.0625,
      "notes": [
        65,
        69,
        72
      ],
      "duration": 2.0104166666666665
    },
    {
      "time": 14.072916666666666,
      "notes": [
        67,
        71,
        74,
        77
      ],
      "duration": 2.0104166666666665
    },
    {
      "time": 16.083333333333332,
      "notes": [
        60,
        64,
        67
      ],
      "duration": 2.0104166666666665
    },
    {
      "time": 18.09375,
      "notes": [
        69,
        72,
        76
      ],
      "duration": 2.0104166666666665
    },
    {
      "time": 20.104166666666664,
      "notes": [
        60,
        64,
        67
      ],
      "duration": 2.0104166666666665
    },
    {
      "time": 22.114583333333332,
      "notes": [
        69,
        72,
        76
      ],
      "duration": 2.0104166666666665
    },
    {
      "time": 24.125,
      "notes": [
        65,
        69,
        72
      ],
      "duration": 2.0104166666666665
    },
    {
      "time": 26.135416666666664,
      "notes": [
        64,
        67,
        71
      ],
      "duration": 2.0104166666666665
    },
    {
      "time": 28.145833333333332,
      "notes": [
        65,
        69,
        72
      ],
      "duration": 2.0104166666666665
    },
    {
      "time": 30.156249999999996,
      "notes": [
        67,
        71,
        74,
        77
      ],
      "duration": 2.0104166666666665
    },
    {
      "time": 32.166666666666664,
      "notes": [
        65,
        69,
        72
      ],
      "duration": 2.0104166666666665
    },
    {
      "time": 34.17708333333333,
      "notes": [
        64,
        67,
        71
      ],
      "duration": 2.0104166666666665
    },
    {
      "time": 36.1875,
      "notes": [
        65,
        69,
        72
      ],
      "duration": 2.0104166666666665
    },
    {
      "time": 38.197916666666664,
      "notes": [
        64,
        67,
        71
      ],
      "duration": 2.0104166666666665
    },
    {
      "time": 40.20833333333333,
      "notes": [
        65,
        69,
        72
      ],
      "duration": 2.0104166666666665
    },
    {
      "time": 42.21875,
      "notes": [
        64,
        67,
        71
      ],
      "duration": 2.0104166666666665
    },
    {
      "time": 44.229166666666664,
      "notes": [
        65,
        69,
        72
      ],
      "duration": 2.0104166666666665
    },
    {
      "time": 46.23958333333333,
      "notes": [
        67,
        71,
        74
      ],
      "duration": 2.0104166666666665
    }
  ]
}