{
  "title": "Lo mejor del amor",
  "artist": "Rodrigo Bueno / ArielTessel",
  "bpm": 120,
  "duration": 77.875,
  "audioFile": "",
  "notes": [
    {
      "time": 0.0,
      "note": 71,
      "duration": 0.25,
      "velocity": 100
    },
    {
      "time": 0.25,
      "note": 71,
      "duration": 0.25,
      "velocity": 100
    },
    {
      "time": 0.5,
      "note": 71,
      "duration": 0.25,
      "velocity": 100
    },
    {
      "time": 0.75,
      "note": 79,
      "duration": 0.25,
      "velocity": 100
    },
    {
      "time": 1.0,
      "note": 77,
      "duration": 0.25,
      "velocity": 100
    },
    {
      "time": 1.25,
      "note": 71,
      "duration": 0.25,
      "velocity": 100
    },
    {
      "time": 1.5,
      "note": 71,
      "duration": 1.0,
      "velocity": 100
    },
    {
      "time": 1.75,
      "note": 91,
      "duration": 0.25,
      "velocity": 100
    },
    {
      "time": 2.0,
      "note": 89,
      "duration": 0.25,
      "velocity": 100
    },
    {
      "time": 2.25,
      "note": 84,
      "duration": 0.5,
      "velocity": 100
    },
    {
      "time": 2.75,
      "note": 71,
      "duration": 1.0,
      "velocity": 100
    },
    {
      "time": 4.0,
      "note": 71,
      "duration": 0.25,
      "velocity": 100
    },
    {
      "time": 4.25,
      "note": 71,
      "duration": 0.25,
      "velocity": 100
    },
    {
      "time": 4.5,
      "note": 71,
      "duration": 0.25,
      "velocity": 100
    },
    {
      "time": 4.75,
      "note": 72,
      "duration": 0.25,
      "velocity": 100
    },
    {
      "time": 5.0,
      "note": 79,
      "duration": 0.25,
      "velocity": 100
    },
    {
      "time": 5.25,
      "note": 77,
      "duration": 0.25,
      "velocity": 100
    },
    {
      "time": 5.5,
      "note": 79,
      "duration": 0.25,
      "velocity": 100
    },
    {
      "time": 5.75,
      "note": 79,
      "duration": 1.0,
      "velocity": 100
    },
    {
      "time": 4.75,
      "note": 79,
      "duration": 0.5,
      "velocity": 100
    },
    {
      "time": 6.0,
      "note": 79,
      "duration": 0.25,
      "velocity": 100
    },
    {
      "time": 6.25,
      "note": 79,
      "duration": 0.25,
      "velocity": 100
    },
    {
      "time": 6.5,
      "note": 79,
      "duration": 0.25,
      "velocity": 100
    },
    {
      "time": 6.75,
      "note": 79,
      "duration": 0.25,
      "velocity": 100
    },
    {
      "time": 7.0,
      "note": 81,
      "duration": 0.25,
      "velocity": 100
    },
    {
      "time": 7.25,
      "note": 81,
      "duration": 0.25,
      "velocity": 100
    },
    {
      "time": 7.5,
      "note": 81,
      "duration": 0.25,
      "velocity": 100
    },
    {
      "time": 8.0,
      "note": 84,
      "duration": 0.25,
      "velocity": 100
    },
    {
      "time": 8.25,
      "note": 84,
      "duration": 0.25,
      "velocity": 100
    },
    {
      "time": 8.5,
      "note": 84,
      "duration": 0.25,
      "velocity": 100
    },
    {
      "time": 8.75,
      "note": 84,
      "duration": 0.3333333333333333,
      "velocity": 100
    },
    {
      "time": 9.083333333333334,
      "note": 84,
      "duration": 0.3333333333333333,
      "velocity": 100
    },
    {
      "time": 9.416666666666666,
      "note": 86,
      "duration": 0.3333333333333333,
      "velocity": 100
    },
    {
      "time": 10.125,
      "note": 84,
      "duration": 0.25,
      "velocity": 100
    },
    {
      "time": 10.375,
      "note": 83,
      "duration": 0.25,
      "velocity": 100
    },
    {
      "time": 10.625,
      "note": 81,
      "duration": 0.25,
      "velocity": 100
    },
    {
      "time": 10.875,
      "note": 84,
      "duration": 0.25,
      "velocity": 100
    },
    {
      "time": 11.375,
      "note": 81,
      "duration": 0.25,
      "velocity": 100
    },
    {
      "time": 11.625,
      "note": 74,
      "duration": 0.5,
      "velocity": 100
    },
    {
      "time": 12.125,
      "note": 74,
      "duration": 1.0,
      "velocity": 100
    },
    {
      "time": 13.25,
      "note": 72,
      "duration": 0.125,
      "velocity": 100
    },
    {
      "time": 13.375,
      "note": 74,
      "duration": 0.125,
      "velocity": 100
    },
    {
      "time": 13.5,
      "note": 76,
      "duration": 0.125,
      "velocity": 100
    },
    {
      "time": 13.625,
      "note": 77,
      "duration": 0.125,
      "velocity": 100
    },
    {
      "time": 13.75,
      "note": 79,
      "duration": 0.125,
      "velocity": 100
    },
    {
      "time": 13.875,
      "note": 81,
      "duration": 0.125,
      "velocity": 100
    },
    {
      "time": 14.0,
      "note": 82,
      "duration": 0.125,
      "velocity": 100
    },
    {
      "time": 12.125,
      "note": 83,
      "duration": 0.25,
      "velocity": 100
    },
    {
      "time": 12.375,
      "note": 81,
      "duration": 0.25,
      "velocity": 100
    },
    {
      "time": 12.625,
      "note": 79,
      "duration": 0.25,
      "velocity": 100
    },
    {
      "time": 12.875,
      "note": 86,
      "duration": 0.25,
      "velocity": 100
    },
    {
      "time": 13.375,
      "note": 74,
      "duration": 0.5,
      "velocity": 100
    },
    {
      "time": 13.875,
      "note": 83,
      "duration": 0.5,
      "velocity": 100
    },
    {
      "time": 14.375,
      "note": 83,
      "duration": 0.5,
      "velocity": 100
    },
    {
      "time": 15.375,
      "note": 74,
      "duration": 0.5,
      "velocity": 100
    },
    {
      "time": 15.875,
      "note": 83,
      "duration": 0.5,
      "velocity": 100
    },
    {
      "time": 16.875,
      "note": 82,
      "duration": 0.25,
      "velocity": 100
    },
    {
      "time": 17.125,
      "note": 81,
      "duration": 0.25,
      "velocity": 100
    },
    {
      "time": 17.375,
      "note": 79,
      "duration": 0.25,
      "velocity": 100
    },
    {
      "time": 17.625,
      "note": 81,
      "duration": 0.25,
      "velocity": 100
    },
    {
      "time": 17.875,
      "note": 81,
      "duration": 0.25,
      "velocity": 100
    },
    {
      "time": 18.125,
      "note": 82,
      "duration": 0.25,
      "velocity": 100
    },
    {
      "time": 18.375,
      "note": 79,
      "duration": 0.25,
      "velocity": 100
    },
    {
      "time": 18.625,
      "note": 77,
      "duration": 0.25,
      "velocity": 100
    },
    {
      "time": 18.875,
      "note": 82,
      "duration": 0.25,
      "velocity": 100
    },
    {
      "time": 19.125,
      "note": 81,
      "duration": 0.25,
      "velocity": 100
    },
    {
      "time": 19.375,
      "note": 79,
      "duration": 0.25,
      "velocity": 100
    },
    {
      "time": 19.625,
      "note": 76,
      "duration": 0.25,
      "velocity": 100
    },
    {
      "time": 19.875,
      "note": 74,
      "duration": 0.25,
      "velocity": 100
    },
    {
      "time": 20.125,
      "note": 76,
      "duration": 0.5,
      "velocity": 100
    },
    {
      "time": 19.875,
      "note": 71,
      "duration": 0.25,
      "velocity": 100
    },
    {
      "time": 20.125,
      "note": 71,
      "duration": 0.25,
      "velocity": 100
    },
    {
      "time": 20.375,
      "note": 71,
      "duration": 0.25,
      "velocity": 100
    },
    {
      "time": 22.125,
      "note": 83,
      "duration": 0.25,
      "velocity": 100
    },
    {
      "time": 22.375,
      "note": 83,
      "duration": 0.25,
      "velocity": 100
    },
    {
      "time": 22.875,
      "note": 84,
      "duration": 0.25,
      "velocity": 100
    },
    {
      "time": 23.125,
      "note": 84,
      "duration": 0.25,
      "velocity": 100
    },
    {
      "time": 23.375,
      "note": 84,
      "duration": 0.25,
      "velocity": 100
    },
    {
      "time": 23.625,
      "note": 84,
      "duration": 0.25,
      "velocity": 100
    },
    {
      "time": 23.875,
      "note": 84,
      "duration": 0.25,
      "velocity": 100
    },
    {
      "time": 24.125,
      "note": 79,
      "duration": 0.25,
      "velocity": 100
    },
    {
      "time": 24.375,
      "note": 79,
      "duration": 0.25,
      "velocity": 100
    },
    {
      "time": 24.625,
      "note": 79,
      "duration": 0.25,
      "velocity": 100
    },
    {
      "time": 24.875,
      "note": 79,
      "duration": 0.25,
      "velocity": 100
    },
    {
      "time": 25.125,
      "note": 81,
      "duration": 0.25,
      "velocity": 100
    },
    {
      "time": 25.375,
      "note": 81,
      "duration": 0.25,
      "velocity": 100
    },
    {
      "time": 25.625,
      "note": 81,
      "duration": 0.25,
      "velocity": 100
    },
    {
      "time": 25.875,
      "note": 81,
      "duration": 0.5,
      "velocity": 100
    },
    {
      "time": 26.375,
      "note": 81,
      "duration": 0.25,
      "velocity": 100
    },
    {
      "time": 26.625,
      "note": 81,
      "duration": 0.25,
      "velocity": 100
    },
    {
      "time": 25.875,
      "note": 74,
      "duration": 0.5,
      "velocity": 100
    },
    {
      "time": 26.375,
      "note": 77,
      "duration": 0.5,
      "velocity": 100
    },
    {
      "time": 26.875,
      "note": 83,
      "duration": 0.25,
      "velocity": 100
    },
    {
      "time": 27.125,
      "note": 81,
      "duration": 0.25,
      "velocity": 100
    },
    {
      "time": 27.375,
      "note": 79,
      "duration": 0.25,
      "velocity": 100
    },
    {
      "time": 27.625,
      "note": 83,
      "duration": 0.25,
      "velocity": 100
    },
    {
      "time": 27.875,
      "note": 83,
      "duration": 0.25,
      "velocity": 100
    },
    {
      "time": 28.125,
      "note": 81,
      "duration": 0.25,
      "velocity": 100
    },
    {
      "time": 28.375,
      "note": 79,
      "duration": 0.25,
      "velocity": 100
    },
    {
      "time": 28.625,
      "note": 77,
      "duration": 0.25,
      "velocity": 100
    },
    {
      "time": 28.875,
      "note": 79,
      "duration": 0.25,
      "velocity": 100
    },
    {
      "time": 29.125,
      "note": 79,
      "duration": 0.25,
      "velocity": 100
    },
    {
      "time": 29.375,
      "note": 79,
      "duration": 0.25,
      "velocity": 100
    },
    {
      "time": 29.625,
      "note": 79,
      "duration": 0.25,
      "velocity": 100
    },
    {
      "time": 29.875,
      "note": 79,
      "duration": 0.5,
      "velocity": 100
    },
    {
      "time": 30.625,
      "note": 79,
      "duration": 0.25,
      "velocity": 100
    },
    {
      "time": 30.875,
      "note": 79,
      "duration": 0.25,
      "velocity": 100
    },
    {
      "time": 31.125,
      "note": 79,
      "duration": 0.125,
      "velocity": 100
    },
    {
      "time": 31.25,
      "note": 79,
      "duration": 0.125,
      "velocity": 100
    },
    {
      "time": 31.375,
      "note": 79,
      "duration": 0.125,
      "velocity": 100
    },
    {
      "time": 31.5,
      "note": 79,
      "duration": 0.125,
      "velocity": 100
    },
    {
      "time": 31.625,
      "note": 79,
      "duration": 0.25,
      "velocity": 100
    },
    {
      "time": 31.875,
      "note": 79,
      "duration": 0.25,
      "velocity": 100
    },
    {
      "time": 32.125,
      "note": 79,
      "duration": 0.25,
      "velocity": 100
    },
    {
      "time": 32.625,
      "note": 79,
      "duration": 0.25,
      "velocity": 100
    },
    {
      "time": 32.875,
      "note": 79,
      "duration": 0.25,
      "velocity": 100
    },
    {
      "time": 33.125,
      "note": 79,
      "duration": 0.25,
      "velocity": 100
    },
    {
      "time": 33.375,
      "note": 79,
      "duration": 0.25,
      "velocity": 100
    },
    {
      "time": 33.625,
      "note": 79,
      "duration": 0.125,
      "velocity": 100
    },
    {
      "time": 33.75,
      "note": 79,
      "duration": 0.125,
      "velocity": 100
    },
    {
      "time": 33.875,
      "note": 79,
      "duration": 0.25,
      "velocity": 100
    },
    {
      "time": 34.125,
      "note": 79,
      "duration": 0.25,
      "velocity": 100
    },
    {
      "time": 34.625,
      "note": 79,
      "duration": 0.125,
      "velocity": 100
    },
    {
      "time": 34.75,
      "note": 79,
      "duration": 0.125,
      "velocity": 100
    },
    {
      "time": 34.875,
      "note": 79,
      "duration": 0.25,
      "velocity": 100
    },
    {
      "time": 35.125,
      "note": 79,
      "duration": 0.25,
      "velocity": 100
    },
    {
      "time": 35.375,
      "note": 79,
      "duration": 0.25,
      "velocity": 100
    },
    {
      "time": 35.625,
      "note": 77,
      "duration": 0.125,
      "velocity": 100
    },
    {
      "time": 35.75,
      "note": 79,
      "duration": 0.125,
      "velocity": 100
    },
    {
      "time": 36.125,
      "note": 79,
      "duration": 0.25,
      "velocity": 100
    },
    {
      "time": 36.375,
      "note": 79,
      "duration": 0.25,
      "velocity": 100
    },
    {
      "time": 36.625,
      "note": 79,
      "duration": 0.25,
      "velocity": 100
    },
    {
      "time": 36.875,
      "note": 79,
      "duration": 0.25,
      "velocity": 100
    },
    {
      "time": 37.125,
      "note": 79,
      "duration": 0.25,
      "velocity": 100
    },
    {
      "time": 37.875,
      "note": 81,
      "duration": 0.5,
      "velocity": 100
    },
    {
      "time": 38.375,
      "note": 83,
      "duration": 0.25,
      "velocity": 100
    },
    {
      "time": 38.625,
      "note": 83,
      "duration": 0.25,
      "velocity": 100
    },
    {
      "time": 40.125,
      "note": 84,
      "duration": 0.25,
      "velocity": 100
    },
    {
      "time": 40.375,
      "note": 84,
      "duration": 0.25,
      "velocity": 100
    },
    {
      "time": 40.625,
      "note": 84,
      "duration": 0.25,
      "velocity": 100
    },
    {
      "time": 41.125,
      "note": 84,
      "duration": 0.25,
      "velocity": 100
    },
    {
      "time": 41.375,
      "note": 83,
      "duration": 0.25,
      "velocity": 100
    },
    {
      "time": 41.625,
      "note": 81,
      "duration": 0.25,
      "velocity": 100
    },
    {
      "time": 41.875,
      "note": 81,
      "duration": 0.25,
      "velocity": 100
    },
    {
      "time": 42.125,
      "note": 81,
      "duration": 1.0,
      "velocity": 100
    },
    {
      "time": 43.125,
      "note": 81,
      "duration": 0.5,
      "velocity": 100
    },
    {
      "time": 44.375,
      "note": 88,
      "duration": 0.25,
      "velocity": 100
    },
    {
      "time": 44.625,
      "note": 88,
      "duration": 0.25,
      "velocity": 100
    },
    {
      "time": 44.875,
      "note": 88,
      "duration": 0.25,
      "velocity": 100
    },
    {
      "time": 45.125,
      "note": 86,
      "duration": 1.0,
      "velocity": 100
    },
    {
      "time": 46.125,
      "note": 81,
      "duration": 0.3333333333333333,
      "velocity": 100
    },
    {
      "time": 46.458333333333336,
      "note": 83,
      "duration": 0.3333333333333333,
      "velocity": 100
    },
    {
      "time": 46.791666666666664,
      "note": 84,
      "duration": 0.3333333333333333,
      "velocity": 100
    },
    {
      "time": 47.125,
      "note": 76,
      "duration": 0.5,
      "velocity": 100
    },
    {
      "time": 47.625,
      "note": 84,
      "duration": 0.5,
      "velocity": 100
    },
    {
      "time": 47.625,
      "note": 83,
      "duration": 0.75,
      "velocity": 100
    },
    {
      "time": 48.625,
      "note": 83,
      "duration": 0.25,
      "velocity": 100
    },
    {
      "time": 48.875,
      "note": 83,
      "duration": 0.25,
      "velocity": 100
    },
    {
      "time": 49.125,
      "note": 83,
      "duration": 0.25,
      "velocity": 100
    },
    {
      "time": 49.375,
      "note": 84,
      "duration": 0.25,
      "velocity": 100
    },
    {
      "time": 49.625,
      "note": 84,
      "duration": 0.25,
      "velocity": 100
    },
    {
      "time": 49.875,
      "note": 84,
      "duration": 0.25,
      "velocity": 100
    },
    {
      "time": 50.125,
      "note": 84,
      "duration": 0.25,
      "velocity": 100
    },
    {
      "time": 50.375,
      "note": 84,
      "duration": 0.25,
      "velocity": 100
    },
    {
      "time": 50.625,
      "note": 84,
      "duration": 0.25,
      "velocity": 100
    },
    {
      "time": 50.875,
      "note": 84,
      "duration": 0.25,
      "velocity": 100
    },
    {
      "time": 51.125,
      "note": 83,
      "duration": 0.25,
      "velocity": 100
    },
    {
      "time": 51.375,
      "note": 83,
      "duration": 0.25,
      "velocity": 100
    },
    {
      "time": 51.625,
      "note": 83,
      "duration": 0.75,
      "velocity": 100
    },
    {
      "time": 52.625,
      "note": 84,
      "duration": 0.25,
      "velocity": 100
    },
    {
      "time": 52.875,
      "note": 84,
      "duration": 0.25,
      "velocity": 100
    },
    {
      "time": 53.125,
      "note": 84,
      "duration": 0.25,
      "velocity": 100
    },
    {
      "time": 53.375,
      "note": 83,
      "duration": 0.25,
      "velocity": 100
    },
    {
      "time": 53.625,
      "note": 83,
      "duration": 0.25,
      "velocity": 100
    },
    {
      "time": 53.875,
      "note": 83,
      "duration": 0.25,
      "velocity": 100
    },
    {
      "time": 54.125,
      "note": 83,
      "duration": 0.25,
      "velocity": 100
    },
    {
      "time": 54.375,
      "note": 77,
      "duration": 0.25,
      "velocity": 100
    },
    {
      "time": 54.625,
      "note": 79,
      "duration": 0.25,
      "velocity": 100
    },
    {
      "time": 54.875,
      "note": 81,
      "duration": 0.25,
      "velocity": 100
    },
    {
      "time": 55.125,
      "note": 83,
      "duration": 0.25,
      "velocity": 100
    },
    {
      "time": 55.375,
      "note": 88,
      "duration": 1.0,
      "velocity": 100
    },
    {
      "time": 56.375,
      "note": 88,
      "duration": 0.25,
      "velocity": 100
    },
    {
      "time": 56.625,
      "note": 83,
      "duration": 0.25,
      "velocity": 100
    },
    {
      "time": 56.875,
      "note": 83,
      "duration": 0.25,
      "velocity": 100
    },
    {
      "time": 57.125,
      "note": 83,
      "duration": 0.25,
      "velocity": 100
    },
    {
      "time": 57.375,
      "note": 84,
      "duration": 0.25,
      "velocity": 100
    },
    {
      "time": 57.625,
      "note": 83,
      "duration": 0.25,
      "velocity": 100
    },
    {
      "time": 57.875,
      "note": 81,
      "duration": 0.25,
      "velocity": 100
    },
    {
      "time": 58.125,
      "note": 81,
      "duration": 0.25,
      "velocity": 100
    },
    {
      "time": 58.375,
      "note": 81,
      "duration": 0.25,
      "velocity": 100
    },
    {
      "time": 58.625,
      "note": 88,
      "duration": 0.25,
      "velocity": 100
    },
    {
      "time": 58.875,
      "note": 88,
      "duration": 0.25,
      "velocity": 100
    },
    {
      "time": 59.125,
      "note": 88,
      "duration": 0.25,
      "velocity": 100
    },
    {
      "time": 59.375,
      "note": 86,
      "duration": 1.0,
      "velocity": 100
    },
    {
      "time": 60.375,
      "note": 81,
      "duration": 0.3333333333333333,
      "velocity": 100
    },
    {
      "time": 60.708333333333336,
      "note": 83,
      "duration": 0.3333333333333333,
      "velocity": 100
    },
    {
      "time": 61.041666666666664,
      "note": 84,
      "duration": 0.3333333333333333,
      "velocity": 100
    },
    {
      "time": 61.375,
      "note": 76,
      "duration": 0.5,
      "velocity": 100
    },
    {
      "time": 61.875,
      "note": 84,
      "duration": 0.5,
      "velocity": 100
    },
    {
      "time": 61.875,
      "note": 83,
      "duration": 0.75,
      "velocity": 100
    },
    {
      "time": 62.875,
      "note": 83,
      "duration": 0.25,
      "velocity": 100
    },
    {
      "time": 63.125,
      "note": 83,
      "duration": 0.25,
      "velocity": 100
    },
    {
      "time": 63.375,
      "note": 83,
      "duration": 0.25,
      "velocity": 100
    },
    {
      "time": 63.625,
      "note": 84,
      "duration": 0.25,
      "velocity": 100
    },
    {
      "time": 63.875,
      "note": 84,
      "duration": 0.25,
      "velocity": 100
    },
    {
      "time": 64.125,
      "note": 84,
      "duration": 0.25,
      "velocity": 100
    },
    {
      "time": 64.375,
      "note": 84,
      "duration": 0.25,
      "velocity": 100
    },
    {
      "time": 64.625,
      "note": 84,
      "duration": 0.25,
      "velocity": 100
    },
    {
      "time": 64.875,
      "note": 84,
      "duration": 0.25,
      "velocity": 100
    },
    {
      "time": 65.125,
      "note": 84,
      "duration": 0.25,
      "velocity": 100
    },
    {
      "time": 65.375,
      "note": 83,
      "duration": 0.25,
      "velocity": 100
    },
    {
      "time": 65.625,
      "note": 74,
      "duration": 0.5,
      "velocity": 100
    },
    {
      "time": 66.125,
      "note": 83,
      "duration": 0.5,
      "velocity": 100
    },
    {
      "time": 66.125,
      "note": 83,
      "duration": 0.75,
      "velocity": 100
    },
    {
      "time": 67.125,
      "note": 84,
      "duration": 0.25,
      "velocity": 100
    },
    {
      "time": 67.375,
      "note": 84,
      "duration": 0.25,
      "velocity": 100
    },
    {
      "time": 67.625,
      "note": 83,
      "duration": 0.25,
      "velocity": 100
    },
    {
      "time": 67.875,
      "note": 83,
      "duration": 0.25,
      "velocity": 100
    },
    {
      "time": 68.125,
      "note": 81,
      "duration": 0.25,
      "velocity": 100
    },
    {
      "time": 68.375,
      "note": 81,
      "duration": 0.25,
      "velocity": 100
    },
    {
      "time": 68.625,
      "note": 79,
      "duration": 0.25,
      "velocity": 100
    },
    {
      "time": 68.875,
      "note": 79,
      "duration": 0.25,
      "velocity": 100
    },
    {
      "time": 69.125,
      "note": 77,
      "duration": 0.25,
      "velocity": 100
    },
    {
      "time": 69.375,
      "note": 77,
      "duration": 0.25,
      "velocity": 100
    },
    {
      "time": 69.625,
      "note": 79,
      "duration": 0.25,
      "velocity": 100
    },
    {
      "time": 69.875,
      "note": 79,
      "duration": 0.5,
      "velocity": 100
    },
    {
      "time": 70.375,
      "note": 79,
      "duration": 0.25,
      "velocity": 100
    },
    {
      "time": 70.625,
      "note": 77,
      "duration": 0.25,
      "velocity": 100
    },
    {
      "time": 70.875,
      "note": 79,
      "duration": 0.25,
      "velocity": 100
    },
    {
      "time": 71.125,
      "note": 77,
      "duration": 0.25,
      "velocity": 100
    },
    {
      "time": 71.375,
      "note": 81,
      "duration": 0.25,
      "velocity": 100
    },
    {
      "time": 71.625,
      "note": 76,
      "duration": 0.25,
      "velocity": 100
    },
    {
      "time": 71.875,
      "note": 83,
      "duration": 0.25,
      "velocity": 100
    },
    {
      "time": 71.875,
      "note": 76,
      "duration": 1.0,
      "velocity": 100
    },
    {
      "time": 72.875,
      "note": 83,
      "duration": 1.0,
      "velocity": 100
    },
    {
      "time": 72.875,
      "note": 83,
      "duration": 0.25,
      "velocity": 100
    },
    {
      "time": 73.125,
      "note": 83,
      "duration": 0.25,
      "velocity": 100
    },
    {
      "time": 73.375,
      "note": 83,
      "duration": 0.25,
      "velocity": 100
    },
    {
      "time": 73.625,
      "note": 83,
      "duration": 0.25,
      "velocity": 100
    },
    {
      "time": 73.875,
      "note": 83,
      "duration": 0.25,
      "velocity": 100
    },
    {
      "time": 74.125,
      "note": 81,
      "duration": 0.25,
      "velocity": 100
    },
    {
      "time": 74.375,
      "note": 81,
      "duration": 0.25,
      "velocity": 100
    },
    {
      "time": 74.625,
      "note": 79,
      "duration": 0.25,
      "velocity": 100
    },
    {
      "time": 74.875,
      "note": 79,
      "duration": 0.25,
      "velocity": 100
    },
    {
      "time": 75.125,
      "note": 77,
      "duration": 0.25,
      "velocity": 100
    },
    {
      "time": 76.125,
      "note": 83,
      "duration": 0.25,
      "velocity": 100
    },
    {
      "time": 76.625,
      "note": 88,
      "duration": 0.25,
      "velocity": 100
    }
  ],
  "chords": [
    {
      "time": 0.0,
      "notes": [
        64,
        67,
        71
      ],
      "duration": 2.2904411764705883
    },
    {
      "time": 2.2904411764705883,
      "notes": [
        69,
        72,
        76
      ],
      "duration": 2.2904411764705883
    },
    {
      "time": 4.580882352941177,
      "notes": [
        62,
        66,
        69
      ],
      "duration": 2.2904411764705883
    },
    {
      "time": 6.8713235294117645,
      "notes": [
        67,
        71,
        74
      ],
      "duration": 2.2904411764705883
    },
    {
      "time": 9.161764705882353,
      "notes": [
        64,
        67,
        71
      ],
      "duration": 2.2904411764705883
    },
    {
      "time": 11.452205882352942,
      "notes": [
        69,
        72,
        76
      ],
      "duration": 2.2904411764705883
    },
    {
      "time": 13.742647058823529,
      "notes": [
        62,
        66,
        69
      ],
      "duration": 2.2904411764705883
    },
    {
      "time": 16.03308823529412,
      "notes": [
        67,
        71,
        74
      ],
      "duration": 2.2904411764705883
    },
    {
      "time": 18.323529411764707,
      "notes": [
        64,
        67,
        71
      ],
      "duration": 2.2904411764705883
    },
    {
      "time": 20.613970588235293,
      "notes": [
        65,
        69,
        72,
        75
      ],
      "duration": 2.2904411764705883
    },
    {
      "time": 22.904411764705884,
      "notes": [
        64,
        68,
        71
      ],
      "duration": 2.2904411764705883
    },
    {
      "time": 25.19485294117647,
      "notes": [
        69,
        72,
        76
      ],
      "duration": 2.2904411764705883
    },
    {
      "time": 27.485294117647058,
      "notes": [
        62,
        66,
        69
      ],
      "duration": 2.2904411764705883
    },
    {
      "time": 29.77573529411765,
      "notes": [
        67,
        71,
        74
      ],
      "duration": 2.2904411764705883
    },
    {
      "time": 32.06617647058824,
      "notes": [
        64,
        67,
        71
      ],
      "duration": 2.2904411764705883
    },
    {
      "time": 34.356617647058826,
      "notes": [
        60,
        64,
        67
      ],
      "duration": 2.2904411764705883
    },
    {
      "time": 36.64705882352941,
      "notes": [
        60,
        64,
        67
      ],
      "duration": 2.2904411764705883
    },
    {
      "time": 38.9375,
      "notes": [
        71,
        75,
        78
      ],
      "duration": 2.2904411764705883
    },
    {
      "time": 41.22794117647059,
      "notes": [
        64,
        68,
        71
      ],
      "duration": 2.2904411764705883
    },
    {
      "time": 43.51838235294118,
      "notes": [
        64,
        67,
        71
      ],
      "duration": 2.2904411764705883
    },
    {
      "time": 45.80882352941177,
      "notes": [
        69,
        72,
        76
      ],
      "duration": 2.2904411764705883
    },
    {
      "time": 48.099264705882355,
      "notes": [
        62,
        66,
        69
      ],
      "duration": 2.2904411764705883
    },
    {
      "time": 50.38970588235294,
      "notes": [
        67,
        71,
        74
      ],
      "duration": 2.2904411764705883
    },
    {
      "time": 52.68014705882353,
      "notes": [
        60,
        64,
        67
      ],
      "duration": 2.2904411764705883
    },
    {
      "time": 54.970588235294116,
      "notes": [
        71,
        75,
        78
      ],
      "duration": 2.2904411764705883
    },
    {
      "time": 57.26102941176471,
      "notes": [
        64,
        67,
        71
      ],
      "duration": 2.2904411764705883
    },
    {
      "time": 59.5514705882353,
      "notes": [
        64,
        68,
        71
      ],
      "duration": 2.2904411764705883
    },
    {
      "time": 61.841911764705884,
      "notes": [
        69,
        72,
        76
      ],
      "duration": 2.2904411764705883
    },
    {
      "time": 64.13235294117648,
      "notes": [
        62,
        66,
        69
      ],
      "duration": 2.2904411764705883
    },
    {
      "time": 66.42279411764706,
      "notes": [
        67,
        71,
        74
      ],
      "duration": 2.2904411764705883
    },
    {
      "time": 68.71323529411765,
      "notes": [
        60,
        64,
        67
      ],
      "duration": 2.2904411764705883
    },
    {
      "time": 71.00367647058823,
      "notes": [
        71,
        75,
        78
      ],
      "duration": 2.2904411764705883
    },
    {
      "time": 73.29411764705883,
      "notes": [
        64,
        67,
        71
      ],
      "duration": 2.2904411764705883
    },
    {
      "time": 75.58455882352942,
      "notes": [
        64,
        68,
        71
      ],
      "duration": 2.2904411764705883
    }
  ]
}