{
  "title": "La colorada",
  "artist": "Pibes Chorros",
  "bpm": 120,
  "duration": 40.0,
  "audioFile": "",
  "notes": [
    {
      "time": 0.25,
      "note": 76,
      "duration": 0.5,
      "velocity": 100
    },
    {
      "time": 0.75,
      "note": 84,
      "duration": 0.5,
      "velocity": 100
    },
    {
      "time": 0.75,
      "note": 84,
      "duration": 0.25,
      "velocity": 100
    },
    {
      "time": 1.0,
      "note": 84,
      "duration": 0.25,
      "velocity": 100
    },
    {
      "time": 1.25,
      "note": 84,
      "duration": 0.125,
      "velocity": 100
    },
    {
      "time": 1.375,
      "note": 84,
      "duration": 0.375,
      "velocity": 100
    },
    {
      "time": 1.875,
      "note": 76,
      "duration": 0.125,
      "velocity": 100
    },
    {
      "time": 2.0,
      "note": 76,
      "duration": 0.125,
      "velocity": 100
    },
    {
      "time": 2.125,
      "note": 74,
      "duration": 0.125,
      "velocity": 100
    },
    {
      "time": 2.25,
      "note": 76,
      "duration": 0.125,
      "velocity": 100
    },
    {
      "time": 2.375,
      "note": 76,
      "duration": 0.375,
      "velocity": 100
    },
    {
      "time": 2.875,
      "note": 84,
      "duration": 0.25,
      "velocity": 100
    },
    {
      "time": 3.125,
      "note": 84,
      "duration": 0.125,
      "velocity": 100
    },
    {
      "time": 3.25,
      "note": 84,
      "duration": 0.125,
      "velocity": 100
    },
    {
      "time": 3.375,
      "note": 84,
      "duration": 0.125,
      "velocity": 100
    },
    {
      "time": 3.5,
      "note": 84,
      "duration": 0.125,
      "velocity": 100
    },
    {
      "time": 3.625,
      "note": 84,
      "duration": 0.125,
      "velocity": 100
    },
    {
      "time": 3.75,
      "note": 84,
      "duration": 0.25,
      "velocity": 100
    },
    {
      "time": 4.0,
      "note": 84,
      "duration": 0.25,
      "velocity": 100
    },
    {
      "time": 4.25,
      "note": 84,
      "duration": 1.0,
      "velocity": 100
    },
    {
      "time": 4.75,
      "note": 84,
      "duration": 0.125,
      "velocity": 100
    },
    {
      "time": 4.875,
      "note": 83,
      "duration": 0.125,
      "velocity": 100
    },
    {
      "time": 5.0,
      "note": 81,
      "duration": 0.125,
      "velocity": 100
    },
    {
      "time": 5.125,
      "note": 79,
      "duration": 0.125,
      "velocity": 100
    },
    {
      "time": 5.25,
      "note": 75,
      "duration": 1.0,
      "velocity": 100
    },
    {
      "time": 6.5,
      "note": 84,
      "duration": 0.25,
      "velocity": 100
    },
    {
      "time": 6.75,
      "note": 83,
      "duration": 0.25,
      "velocity": 100
    },
    {
      "time": 7.0,
      "note": 81,
      "duration": 0.25,
      "velocity": 100
    },
    {
      "time": 6.25,
      "note": 77,
      "duration": 1.0,
      "velocity": 100
    },
    {
      "time": 7.25,
      "note": 79,
      "duration": 1.0,
      "velocity": 100
    },
    {
      "time": 7.25,
      "note": 79,
      "duration": 0.5,
      "velocity": 100
    },
    {
      "time": 7.875,
      "note": 86,
      "duration": 0.25,
      "velocity": 100
    },
    {
      "time": 8.125,
      "note": 86,
      "duration": 0.125,
      "velocity": 100
    },
    {
      "time": 8.25,
      "note": 86,
      "duration": 0.25,
      "velocity": 100
    },
    {
      "time": 8.5,
      "note": 84,
      "duration": 0.125,
      "velocity": 100
    },
    {
      "time": 8.625,
      "note": 84,
      "duration": 0.125,
      "velocity": 100
    },
    {
      "time": 8.75,
      "note": 84,
      "duration": 0.125,
      "velocity": 100
    },
    {
      "time": 8.875,
      "note": 84,
      "duration": 0.125,
      "velocity": 100
    },
    {
      "time": 9.0,
      "note": 86,
      "duration": 0.125,
      "velocity": 100
    },
    {
      "time": 9.125,
      "note": 84,
      "duration": 0.125,
      "velocity": 100
    },
    {
      "time": 9.25,
      "note": 83,
      "duration": 0.5,
      "velocity": 100
    },
    {
      "time": 10.125,
      "note": 86,
      "duration": 0.125,
      "velocity": 100
    },
    {
      "time": 10.25,
      "note": 86,
      "duration": 0.125,
      "velocity": 100
    },
    {
      "time": 10.375,
      "note": 86,
      "duration": 0.125,
      "velocity": 100
    },
    {
      "time": 9.5,
      "note": 76,
      "duration": 0.25,
      "velocity": 100
    },
    {
      "time": 9.75,
      "note": 86,
      "duration": 0.125,
      "velocity": 100
    },
    {
      "time": 9.875,
      "note": 86,
      "duration": 0.125,
      "velocity": 100
    },
    {
      "time": 10.0,
      "note": 86,
      "duration": 0.125,
      "velocity": 100
    },
    {
      "time": 10.125,
      "note": 86,
      "duration": 0.125,
      "velocity": 100
    },
    {
      "time": 10.25,
      "note": 84,
      "duration": 0.25,
      "velocity": 100
    },
    {
      "time": 10.5,
      "note": 86,
      "duration": 0.125,
      "velocity": 100
    },
    {
      "time": 10.625,
      "note": 83,
      "duration": 0.125,
      "velocity": 100
    },
    {
      "time": 10.75,
      "note": 83,
      "duration": 1.0,
      "velocity": 100
    },
    {
      "time": 11.75,
      "note": 83,
      "duration": 0.5,
      "velocity": 100
    },
    {
      "time": 12.375,
      "note": 83,
      "duration": 0.125,
      "velocity": 100
    },
    {
      "time": 12.5,
      "note": 84,
      "duration": 0.125,
      "velocity": 100
    },
    {
      "time": 12.625,
      "note": 83,
      "duration": 0.125,
      "velocity": 100
    },
    {
      "time": 12.75,
      "note": 84,
      "duration": 0.375,
      "velocity": 100
    },
    {
      "time": 13.125,
      "note": 81,
      "duration": 0.125,
      "velocity": 100
    },
    {
      "time": 13.25,
      "note": 81,
      "duration": 0.5,
      "velocity": 100
    },
    {
      "time": 14.375,
      "note": 84,
      "duration": 0.25,
      "velocity": 100
    },
    {
      "time": 14.625,
      "note": 84,
      "duration": 0.125,
      "velocity": 100
    },
    {
      "time": 15.25,
      "note": 76,
      "duration": 0.125,
      "velocity": 100
    },
    {
      "time": 15.375,
      "note": 76,
      "duration": 0.125,
      "velocity": 100
    },
    {
      "time": 15.5,
      "note": 81,
      "duration": 0.125,
      "velocity": 100
    },
    {
      "time": 15.625,
      "note": 81,
      "duration": 0.125,
      "velocity": 100
    },
    {
      "time": 15.75,
      "note": 81,
      "duration": 0.125,
      "velocity": 100
    },
    {
      "time": 15.875,
      "note": 81,
      "duration": 0.125,
      "velocity": 100
    },
    {
      "time": 16.0,
      "note": 81,
      "duration": 0.125,
      "velocity": 100
    },
    {
      "time": 16.125,
      "note": 81,
      "duration": 0.25,
      "velocity": 100
    },
    {
      "time": 16.375,
      "note": 81,
      "duration": 0.125,
      "velocity": 100
    },
    {
      "time": 16.5,
      "note": 83,
      "duration": 0.25,
      "velocity": 100
    },
    {
      "time": 16.75,
      "note": 81,
      "duration": 0.25,
      "velocity": 100
    },
    {
      "time": 17.0,
      "note": 79,
      "duration": 1.0,
      "velocity": 100
    },
    {
      "time": 17.0,
      "note": 88,
      "duration": 0.125,
      "velocity": 100
    },
    {
      "time": 17.125,
      "note": 88,
      "duration": 0.25,
      "velocity": 100
    },
    {
      "time": 17.375,
      "note": 86,
      "duration": 0.125,
      "velocity": 100
    },
    {
      "time": 17.5,
      "note": 88,
      "duration": 0.25,
      "velocity": 100
    },
    {
      "time": 17.75,
      "note": 86,
      "duration": 0.25,
      "velocity": 100
    },
    {
      "time": 18.0,
      "note": 84,
      "duration": 0.25,
      "velocity": 100
    },
    {
      "time": 18.25,
      "note": 76,
      "duration": 0.125,
      "velocity": 100
    },
    {
      "time": 18.375,
      "note": 76,
      "duration": 0.125,
      "velocity": 100
    },
    {
      "time": 18.5,
      "note": 81,
      "duration": 0.125,
      "velocity": 100
    },
    {
      "time": 18.625,
      "note": 81,
      "duration": 0.125,
      "velocity": 100
    },
    {
      "time": 18.75,
      "note": 81,
      "duration": 0.125,
      "velocity": 100
    },
    {
      "time": 18.875,
      "note": 81,
      "duration": 0.125,
      "velocity": 100
    },
    {
      "time": 19.0,
      "note": 81,
      "duration": 0.125,
      "velocity": 100
    },
    {
      "time": 19.125,
      "note": 81,
      "duration": 0.25,
      "velocity": 100
    },
    {
      "time": 19.375,
      "note": 81,
      "duration": 0.125,
      "velocity": 100
    },
    {
      "time": 19.5,
      "note": 83,
      "duration": 0.25,
      "velocity": 100
    },
    {
      "time": 19.75,
      "note": 81,
      "duration": 0.25,
      "velocity": 100
    },
    {
      "time": 20.0,
      "note": 79,
      "duration": 0.5,
      "velocity": 100
    },
    {
      "time": 20.75,
      "note": 83,
      "duration": 0.125,
      "velocity": 100
    },
    {
      "time": 20.875,
      "note": 88,
      "duration": 0.125,
      "velocity": 100
    },
    {
      "time": 21.0,
      "note": 88,
      "duration": 0.125,
      "velocity": 100
    },
    {
      "time": 21.125,
      "note": 88,
      "duration": 0.25,
      "velocity": 100
    },
    {
      "time": 21.375,
      "note": 86,
      "duration": 0.125,
      "velocity": 100
    },
    {
      "time": 21.5,
      "note": 88,
      "duration": 0.25,
      "velocity": 100
    },
    {
      "time": 21.75,
      "note": 86,
      "duration": 0.25,
      "velocity": 100
    },
    {
      "time": 22.0,
      "note": 84,
      "duration": 0.25,
      "velocity": 100
    },
    {
      "time": 22.25,
      "note": 76,
      "duration": 0.125,
      "velocity": 100
    },
    {
      "time": 22.375,
      "note": 76,
      "duration": 0.125,
      "velocity": 100
    },
    {
      "time": 22.5,
      "note": 81,
      "duration": 0.125,
      "velocity": 100
    },
    {
      "time": 22.625,
      "note": 81,
      "duration": 0.125,
      "velocity": 100
    },
    {
      "time": 22.75,
      "note": 81,
      "duration": 0.125,
      "velocity": 100
    },
    {
      "time": 22.875,
      "note": 81,
      "duration": 0.125,
      "velocity": 100
    },
    {
      "time": 23.0,
      "note": 88,
      "duration": 1.0,
      "velocity": 100
    },
    {
      "time": 24.0,
      "note": 88,
      "duration": 1.0,
      "velocity": 100
    },
    {
      "time": 25.625,
      "note": 76,
      "duration": 0.125,
      "velocity": 100
    },
    {
      "time": 25.75,
      "note": 76,
      "duration": 0.125,
      "velocity": 100
    },
    {
      "time": 25.875,
      "note": 81,
      "duration": 0.125,
      "velocity": 100
    },
    {
      "time": 26.0,
      "note": 81,
      "duration": 0.125,
      "velocity": 100
    },
    {
      "time": 26.125,
      "note": 81,
      "duration": 0.125,
      "velocity": 100
    },
    {
      "time": 26.25,
      "note": 81,
      "duration": 0.125,
      "velocity": 100
    },
    {
      "time": 26.875,
      "note": 84,
      "duration": 0.25,
      "velocity": 100
    },
    {
      "time": 27.125,
      "note": 83,
      "duration": 0.25,
      "velocity": 100
    },
    {
      "time": 26.375,
      "note": 81,
      "duration": 0.125,
      "velocity": 100
    },
    {
      "time": 26.5,
      "note": 81,
      "duration": 0.25,
      "velocity": 100
    },
    {
      "time": 26.75,
      "note": 81,
      "duration": 0.125,
      "velocity": 100
    },
    {
      "time": 26.875,
      "note": 79,
      "duration": 0.5,
      "velocity": 100
    },
    {
      "time": 27.625,
      "note": 79,
      "duration": 0.125,
      "velocity": 100
    },
    {
      "time": 27.75,
      "note": 83,
      "duration": 0.125,
      "velocity": 100
    },
    {
      "time": 27.75,
      "note": 84,
      "duration": 0.125,
      "velocity": 100
    },
    {
      "time": 27.875,
      "note": 88,
      "duration": 0.125,
      "velocity": 100
    },
    {
      "time": 28.0,
      "note": 84,
      "duration": 0.25,
      "velocity": 100
    },
    {
      "time": 28.25,
      "note": 88,
      "duration": 0.25,
      "velocity": 100
    },
    {
      "time": 28.25,
      "note": 83,
      "duration": 0.125,
      "velocity": 100
    },
    {
      "time": 28.375,
      "note": 86,
      "duration": 0.125,
      "velocity": 100
    },
    {
      "time": 28.375,
      "note": 84,
      "duration": 0.25,
      "velocity": 100
    },
    {
      "time": 28.625,
      "note": 88,
      "duration": 0.25,
      "velocity": 100
    },
    {
      "time": 28.625,
      "note": 83,
      "duration": 0.25,
      "velocity": 100
    },
    {
      "time": 28.875,
      "note": 86,
      "duration": 0.25,
      "velocity": 100
    },
    {
      "time": 28.875,
      "note": 84,
      "duration": 0.25,
      "velocity": 100
    },
    {
      "time": 29.125,
      "note": 88,
      "duration": 0.25,
      "velocity": 100
    },
    {
      "time": 29.125,
      "note": 76,
      "duration": 0.125,
      "velocity": 100
    },
    {
      "time": 29.25,
      "note": 76,
      "duration": 0.125,
      "velocity": 100
    },
    {
      "time": 29.375,
      "note": 81,
      "duration": 0.125,
      "velocity": 100
    },
    {
      "time": 29.5,
      "note": 81,
      "duration": 0.125,
      "velocity": 100
    },
    {
      "time": 29.625,
      "note": 81,
      "duration": 0.125,
      "velocity": 100
    },
    {
      "time": 29.75,
      "note": 81,
      "duration": 0.125,
      "velocity": 100
    },
    {
      "time": 29.875,
      "note": 81,
      "duration": 0.125,
      "velocity": 100
    },
    {
      "time": 30.0,
      "note": 81,
      "duration": 0.25,
      "velocity": 100
    },
    {
      "time": 30.25,
      "note": 81,
      "duration": 0.125,
      "velocity": 100
    },
    {
      "time": 30.375,
      "note": 81,
      "duration": 0.25,
      "velocity": 100
    },
    {
      "time": 30.625,
      "note": 79,
      "duration": 0.25,
      "velocity": 100
    },
    {
      "time": 30.875,
      "note": 79,
      "duration": 1.0,
      "velocity": 100
    },
    {
      "time": 31.0,
      "note": 84,
      "duration": 0.25,
      "velocity": 100
    },
    {
      "time": 31.25,
      "note": 88,
      "duration": 0.25,
      "velocity": 100
    },
    {
      "time": 31.25,
      "note": 83,
      "duration": 0.125,
      "velocity": 100
    },
    {
      "time": 31.375,
      "note": 86,
      "duration": 0.125,
      "velocity": 100
    },
    {
      "time": 31.375,
      "note": 81,
      "duration": 0.25,
      "velocity": 100
    },
    {
      "time": 31.625,
      "note": 84,
      "duration": 0.25,
      "velocity": 100
    },
    {
      "time": 31.625,
      "note": 79,
      "duration": 0.25,
      "velocity": 100
    },
    {
      "time": 31.875,
      "note": 83,
      "duration": 0.25,
      "velocity": 100
    },
    {
      "time": 31.875,
      "note": 76,
      "duration": 0.25,
      "velocity": 100
    },
    {
      "time": 32.125,
      "note": 81,
      "duration": 0.25,
      "velocity": 100
    },
    {
      "time": 32.125,
      "note": 76,
      "duration": 0.125,
      "velocity": 100
    },
    {
      "time": 32.25,
      "note": 76,
      "duration": 0.125,
      "velocity": 100
    },
    {
      "time": 32.375,
      "note": 81,
      "duration": 0.125,
      "velocity": 100
    },
    {
      "time": 32.5,
      "note": 81,
      "duration": 0.125,
      "velocity": 100
    },
    {
      "time": 32.625,
      "note": 81,
      "duration": 0.125,
      "velocity": 100
    },
    {
      "time": 32.75,
      "note": 81,
      "duration": 0.125,
      "velocity": 100
    },
    {
      "time": 32.875,
      "note": 76,
      "duration": 0.5,
      "velocity": 100
    },
    {
      "time": 33.375,
      "note": 81,
      "duration": 0.5,
      "velocity": 100
    },
    {
      "time": 33.375,
      "note": 89,
      "duration": 0.25,
      "velocity": 100
    },
    {
      "time": 33.625,
      "note": 88,
      "duration": 0.25,
      "velocity": 100
    },
    {
      "time": 33.875,
      "note": 83,
      "duration": 0.125,
      "velocity": 100
    },
    {
      "time": 34.0,
      "note": 83,
      "duration": 0.125,
      "velocity": 100
    },
    {
      "time": 34.125,
      "note": 83,
      "duration": 0.125,
      "velocity": 100
    },
    {
      "time": 34.25,
      "note": 83,
      "duration": 0.125,
      "velocity": 100
    },
    {
      "time": 34.375,
      "note": 89,
      "duration": 0.25,
      "velocity": 100
    },
    {
      "time": 34.625,
      "note": 88,
      "duration": 0.25,
      "velocity": 100
    },
    {
      "time": 34.875,
      "note": 81,
      "duration": 0.5,
      "velocity": 100
    },
    {
      "time": 35.375,
      "note": 89,
      "duration": 0.25,
      "velocity": 100
    },
    {
      "time": 35.625,
      "note": 88,
      "duration": 0.25,
      "velocity": 100
    },
    {
      "time": 35.875,
      "note": 83,
      "duration": 0.125,
      "velocity": 100
    },
    {
      "time": 36.0,
      "note": 83,
      "duration": 0.125,
      "velocity": 100
    },
    {
      "time": 36.125,
      "note": 83,
      "duration": 0.125,
      "velocity": 100
    },
    {
      "time": 36.25,
      "note": 83,
      "duration": 0.125,
      "velocity": 100
    },
    {
      "time": 36.375,
      "note": 89,
      "duration": 0.25,
      "velocity": 100
    },
    {
      "time": 36.625,
      "note": 88,
      "duration": 0.25,
      "velocity": 100
    },
    {
      "time": 36.875,
      "note": 81,
      "duration": 1.0,
      "velocity": 100
    },
    {
      "time": 37.875,
      "note": 88,
      "duration": 0.125,
      "velocity": 100
    },
    {
      "time": 38.0,
      "note": 91,
      "duration": 0.125,
      "velocity": 100
    },
    {
      "time": 38.125,
      "note": 86,
      "duration": 0.125,
      "velocity": 100
    },
    {
      "time": 38.25,
      "note": 89,
      "duration": 0.125,
      "velocity": 100
    },
    {
      "time": 38.375,
      "note": 84,
      "duration": 0.125,
      "velocity": 100
    },
    {
      "time": 38.5,
      "note": 88,
      "duration": 0.125,
      "velocity": 100
    },
    {
      "time": 38.625,
      "note": 83,
      "duration": 0.125,
      "velocity": 100
    },
    {
      "time": 38.75,
      "note": 86,
      "duration": 0.125,
      "velocity": 100
    },
    {
      "time": 38.0,
      "note": 91,
      "duration": 1.0,
      "velocity": 100
    },
    {
      "time": 39.0,
      "note": 81,
      "duration": 1.0,
      "velocity": 100
    }
  ],
  "chords": [
    {
      "time": 0.0,
      "notes": [
        69,
        72,
        76
      ],
      "duration": 1.4285714285714286
    },
    {
      "time": 1.4285714285714286,
      "notes": [
        65,
        69,
        72
      ],
      "duration": 1.4285714285714286
    },
    {
      "time": 2.857142857142857,
      "notes": [
        64,
        68,
        71
      ],
      "duration": 1.4285714285714286
    },
    {
      "time": 4.285714285714286,
      "notes": [
        62,
        65,
        69
      ],
      "duration": 1.4285714285714286
    },
    {
      "time": 5.714285714285714,
      "notes": [
        64,
        68,
        71,
        74
      ],
      "duration": 1.4285714285714286
    },
    {
      "time": 7.142857142857143,
      "notes": [
        62,
        65,
        69
      ],
      "duration": 1.4285714285714286
    },
    {
      "time": 8.571428571428571,
      "notes": [
        64,
        68,
        71,
        74
      ],
      "duration": 1.4285714285714286
    },
    {
      "time": 10.0,
      "notes": [
        69,
        72,
        76
      ],
      "duration": 1.4285714285714286
    },
    {
      "time": 11.428571428571429,
      "notes": [
        69,
        72,
        76
      ],
      "duration": 1.4285714285714286
    },
    {
      "time": 12.857142857142858,
      "notes": [
        65,
        69,
        72
      ],
      "duration": 1.4285714285714286
    },
    {
      "time": 14.285714285714286,
      "notes": [
        64,
        68,
        71,
        74
      ],
      "duration": 1.4285714285714286
    },
    {
      "time": 15.714285714285715,
      "notes": [
        69,
        72,
        76
      ],
      "duration": 1.4285714285714286
    },
    {
      "time": 17.142857142857142,
      "notes": [
        65,
        69,
        72
      ],
      "duration": 1.4285714285714286
    },
    {
      "time": 18.571428571428573,
      "notes": [
        64,
        68,
        71,
        74
      ],
      "duration": 1.4285714285714286
    },
    {
      "time": 20.0,
      "notes": [
        69,
        72,
        76
      ],
      "duration": 1.4285714285714286
    },
    {
      "time": 21.42857142857143,
      "notes": [
        69,
        72,
        76
      ],
      "duration": 1.4285714285714286
    },
    {
      "time": 22.857142857142858,
      "notes": [
        65,
        69,
        72
      ],
      "duration": 1.4285714285714286
    },
    {
      "time": 24.285714285714285,
      "notes": [
        64,
        68,
        71,
        74
      ],
      "duration": 1.4285714285714286
    },
    {
      "time": 25.714285714285715,
      "notes": [
        69,
        72,
        76
      ],
      "duration": 1.4285714285714286
    },
    {
      "time": 27.142857142857142,
      "notes": [
        65,
        69,
        72
      ],
      "duration": 1.4285714285714286
    },
    {
      "time": 28.571428571428573,
      "notes": [
        64,
        68,
        71,
        74
      ],
      "duration": 1.4285714285714286
    },
    {
      "time": 30.0,
      "notes": [
        69,
        72,
        76
      ],
      "duration": 1.4285714285714286
    },
    {
      "time": 31.42857142857143,
      "notes": [
        64,
        68,
        71,
        74
      ],
      "duration": 1.4285714285714286
    },
    {
      "time": 32.85714285714286,
      "notes": [
        69,
        72,
        76
      ],
      "duration": 1.4285714285714286
    },
    {
      "time": 34.285714285714285,
      "notes": [
        64,
        68,
        71,
        74
      ],
      "duration": 1.4285714285714286
    },
    {
      "time": 35.714285714285715,
      "notes": [
        69,
        72,
        76
      ],
      "duration": 1.4285714285714286
    },
    {
      "time": 37.142857142857146,
      "notes": [
        64,
        68,
        71,
        74
      ],
      "duration": 1.4285714285714286
    },
    {
      "time": 38.57142857142857,
      "notes": [
        69,
        72,
        76
      ],
      "duration": 1.4285714285714286
    }
  ]
}