{
  "title": "Amor adolescente",
  "artist": "Grupo Red",
  "bpm": 120,
  "duration": 46.04166666666667,
  "audioFile": "",
  "notes": [
    {
      "time": 0.0,
      "note": 82,
      "duration": 0.25,
      "velocity": 100
    },
    {
      "time": 0.25,
      "note": 87,
      "duration": 0.25,
      "velocity": 100
    },
    {
      "time": 0.5,
      "note": 91,
      "duration": 0.375,
      "velocity": 100
    },
    {
      "time": 0.875,
      "note": 87,
      "duration": 0.125,
      "velocity": 100
    },
    {
      "time": 1.0,
      "note": 87,
      "duration": 0.5,
      "velocity": 100
    },
    {
      "time": 1.5,
      "note": 87,
      "duration": 0.375,
      "velocity": 100
    },
    {
      "time": 1.875,
      "note": 91,
      "duration": 0.125,
      "velocity": 100
    },
    {
      "time": 2.125,
      "note": 89,
      "duration": 0.125,
      "velocity": 100
    },
    {
      "time": 2.25,
      "note": 87,
      "duration": 0.25,
      "velocity": 100
    },
    {
      "time": 2.5,
      "note": 91,
      "duration": 0.375,
      "velocity": 100
    },
    {
      "time": 2.875,
      "note": 87,
      "duration": 0.125,
      "velocity": 100
    },
    {
      "time": 3.0,
      "note": 87,
      "duration": 0.5,
      "velocity": 100
    },
    {
      "time": 3.5,
      "note": 87,
      "duration": 0.375,
      "velocity": 100
    },
    {
      "time": 3.875,
      "note": 91,
      "duration": 0.125,
      "velocity": 100
    },
    {
      "time": 4.0,
      "note": 91,
      "duration": 0.125,
      "velocity": 100
    },
    {
      "time": 4.125,
      "note": 89,
      "duration": 0.125,
      "velocity": 100
    },
    {
      "time": 4.25,
      "note": 87,
      "duration": 0.25,
      "velocity": 100
    },
    {
      "time": 4.5,
      "note": 86,
      "duration": 0.375,
      "velocity": 100
    },
    {
      "time": 4.875,
      "note": 84,
      "duration": 0.125,
      "velocity": 100
    },
    {
      "time": 5.0,
      "note": 84,
      "duration": 0.5,
      "velocity": 100
    },
    {
      "time": 5.5,
      "note": 84,
      "duration": 0.375,
      "velocity": 100
    },
    {
      "time": 5.875,
      "note": 84,
      "duration": 0.125,
      "velocity": 100
    },
    {
      "time": 6.125,
      "note": 86,
      "duration": 0.125,
      "velocity": 100
    },
    {
      "time": 6.25,
      "note": 87,
      "duration": 0.25,
      "velocity": 100
    },
    {
      "time": 6.5,
      "note": 86,
      "duration": 1.0,
      "velocity": 100
    },
    {
      "time": 7.5,
      "note": 86,
      "duration": 0.5,
      "velocity": 100
    },
    {
      "time": 8.0,
      "note": 87,
      "duration": 0.25,
      "velocity": 100
    },
    {
      "time": 8.25,
      "note": 91,
      "duration": 0.25,
      "velocity": 100
    },
    {
      "time": 8.5,
      "note": 94,
      "duration": 0.375,
      "velocity": 100
    },
    {
      "time": 8.875,
      "note": 91,
      "duration": 0.125,
      "velocity": 100
    },
    {
      "time": 9.0,
      "note": 91,
      "duration": 0.5,
      "velocity": 100
    },
    {
      "time": 9.5,
      "note": 91,
      "duration": 0.375,
      "velocity": 100
    },
    {
      "time": 9.875,
      "note": 94,
      "duration": 0.125,
      "velocity": 100
    },
    {
      "time": 10.0,
      "note": 94,
      "duration": 0.125,
      "velocity": 100
    },
    {
      "time": 10.125,
      "note": 93,
      "duration": 0.125,
      "velocity": 100
    },
    {
      "time": 10.25,
      "note": 91,
      "duration": 0.25,
      "velocity": 100
    },
    {
      "time": 9.5,
      "note": 94,
      "duration": 0.375,
      "velocity": 100
    },
    {
      "time": 9.875,
      "note": 91,
      "duration": 0.125,
      "velocity": 100
    },
    {
      "time": 10.0,
      "note": 91,
      "duration": 0.5,
      "velocity": 100
    },
    {
      "time": 10.5,
      "note": 91,
      "duration": 0.375,
      "velocity": 100
    },
    {
      "time": 10.875,
      "note": 94,
      "duration": 0.125,
      "velocity": 100
    },
    {
      "time": 11.0,
      "note": 94,
      "duration": 0.125,
      "velocity": 100
    },
    {
      "time": 11.125,
      "note": 91,
      "duration": 0.25,
      "velocity": 100
    },
    {
      "time": 11.375,
      "note": 91,
      "duration": 0.25,
      "velocity": 100
    },
    {
      "time": 11.625,
      "note": 89,
      "duration": 0.375,
      "velocity": 100
    },
    {
      "time": 12.0,
      "note": 87,
      "duration": 0.125,
      "velocity": 100
    },
    {
      "time": 12.125,
      "note": 87,
      "duration": 0.5,
      "velocity": 100
    },
    {
      "time": 12.625,
      "note": 87,
      "duration": 0.375,
      "velocity": 100
    },
    {
      "time": 13.0,
      "note": 87,
      "duration": 0.125,
      "velocity": 100
    },
    {
      "time": 13.125,
      "note": 87,
      "duration": 0.125,
      "velocity": 100
    },
    {
      "time": 13.25,
      "note": 89,
      "duration": 0.125,
      "velocity": 100
    },
    {
      "time": 13.375,
      "note": 91,
      "duration": 0.25,
      "velocity": 100
    },
    {
      "time": 13.625,
      "note": 89,
      "duration": 0.75,
      "velocity": 100
    },
    {
      "time": 14.375,
      "note": 82,
      "duration": 0.5,
      "velocity": 100
    },
    {
      "time": 14.875,
      "note": 91,
      "duration": 0.5,
      "velocity": 100
    },
    {
      "time": 14.875,
      "note": 91,
      "duration": 1.0,
      "velocity": 100
    },
    {
      "time": 15.875,
      "note": 91,
      "duration": 1.0,
      "velocity": 100
    },
    {
      "time": 16.875,
      "note": 91,
      "duration": 1.0,
      "velocity": 100
    },
    {
      "time": 18.125,
      "note": 81,
      "duration": 2.0,
      "velocity": 100
    },
    {
      "time": 18.75,
      "note": 75,
      "duration": 0.25,
      "velocity": 100
    },
    {
      "time": 19.0,
      "note": 75,
      "duration": 0.125,
      "velocity": 100
    },
    {
      "time": 18.625,
      "note": 74,
      "duration": 0.5,
      "velocity": 100
    },
    {
      "time": 19.125,
      "note": 86,
      "duration": 0.125,
      "velocity": 100
    },
    {
      "time": 19.25,
      "note": 86,
      "duration": 0.25,
      "velocity": 100
    },
    {
      "time": 19.5,
      "note": 86,
      "duration": 0.125,
      "velocity": 100
    },
    {
      "time": 19.625,
      "note": 86,
      "duration": 0.125,
      "velocity": 100
    },
    {
      "time": 19.75,
      "note": 84,
      "duration": 0.375,
      "velocity": 100
    },
    {
      "time": 20.125,
      "note": 84,
      "duration": 0.5,
      "velocity": 100
    },
    {
      "time": 21.0,
      "note": 75,
      "duration": 0.125,
      "velocity": 100
    },
    {
      "time": 20.125,
      "note": 72,
      "duration": 0.25,
      "velocity": 100
    },
    {
      "time": 20.375,
      "note": 74,
      "duration": 0.25,
      "velocity": 100
    },
    {
      "time": 20.625,
      "note": 75,
      "duration": 0.25,
      "velocity": 100
    },
    {
      "time": 20.875,
      "note": 75,
      "duration": 0.25,
      "velocity": 100
    },
    {
      "time": 21.125,
      "note": 77,
      "duration": 0.25,
      "velocity": 100
    },
    {
      "time": 21.375,
      "note": 79,
      "duration": 0.25,
      "velocity": 100
    },
    {
      "time": 21.625,
      "note": 79,
      "duration": 0.125,
      "velocity": 100
    },
    {
      "time": 21.75,
      "note": 77,
      "duration": 0.125,
      "velocity": 100
    },
    {
      "time": 21.875,
      "note": 75,
      "duration": 0.25,
      "velocity": 100
    },
    {
      "time": 21.125,
      "note": 87,
      "duration": 0.125,
      "velocity": 100
    },
    {
      "time": 21.25,
      "note": 87,
      "duration": 0.125,
      "velocity": 100
    },
    {
      "time": 21.375,
      "note": 87,
      "duration": 0.125,
      "velocity": 100
    },
    {
      "time": 21.625,
      "note": 87,
      "duration": 0.125,
      "velocity": 100
    },
    {
      "time": 21.75,
      "note": 87,
      "duration": 0.375,
      "velocity": 100
    },
    {
      "time": 22.875,
      "note": 87,
      "duration": 0.25,
      "velocity": 100
    },
    {
      "time": 23.125,
      "note": 86,
      "duration": 0.25,
      "velocity": 100
    },
    {
      "time": 23.375,
      "note": 86,
      "duration": 0.125,
      "velocity": 100
    },
    {
      "time": 23.5,
      "note": 86,
      "duration": 0.125,
      "velocity": 100
    },
    {
      "time": 23.625,
      "note": 86,
      "duration": 0.125,
      "velocity": 100
    },
    {
      "time": 23.75,
      "note": 87,
      "duration": 0.25,
      "velocity": 100
    },
    {
      "time": 24.0,
      "note": 87,
      "duration": 0.125,
      "velocity": 100
    },
    {
      "time": 24.125,
      "note": 87,
      "duration": 0.125,
      "velocity": 100
    },
    {
      "time": 24.25,
      "note": 86,
      "duration": 0.375,
      "velocity": 100
    },
    {
      "time": 24.625,
      "note": 86,
      "duration": 0.5,
      "velocity": 100
    },
    {
      "time": 25.375,
      "note": 87,
      "duration": 0.375,
      "velocity": 100
    },
    {
      "time": 25.75,
      "note": 84,
      "duration": 0.125,
      "velocity": 100
    },
    {
      "time": 25.875,
      "note": 84,
      "duration": 0.5,
      "velocity": 100
    },
    {
      "time": 26.375,
      "note": 84,
      "duration": 0.5,
      "velocity": 100
    },
    {
      "time": 26.958333333333332,
      "note": 87,
      "duration": 0.25,
      "velocity": 100
    },
    {
      "time": 27.208333333333332,
      "note": 86,
      "duration": 0.125,
      "velocity": 100
    },
    {
      "time": 26.375,
      "note": 75,
      "duration": 0.25,
      "velocity": 100
    },
    {
      "time": 26.625,
      "note": 77,
      "duration": 0.08333333333333333,
      "velocity": 100
    },
    {
      "time": 26.708333333333332,
      "note": 79,
      "duration": 0.08333333333333333,
      "velocity": 100
    },
    {
      "time": 26.791666666666668,
      "note": 86,
      "duration": 0.125,
      "velocity": 100
    },
    {
      "time": 26.916666666666668,
      "note": 84,
      "duration": 0.125,
      "velocity": 100
    },
    {
      "time": 27.041666666666668,
      "note": 82,
      "duration": 0.75,
      "velocity": 100
    },
    {
      "time": 27.791666666666668,
      "note": 82,
      "duration": 0.25,
      "velocity": 100
    },
    {
      "time": 28.416666666666668,
      "note": 89,
      "duration": 0.25,
      "velocity": 100
    },
    {
      "time": 28.666666666666668,
      "note": 86,
      "duration": 0.125,
      "velocity": 100
    },
    {
      "time": 27.791666666666668,
      "note": 77,
      "duration": 0.25,
      "velocity": 100
    },
    {
      "time": 28.041666666666668,
      "note": 75,
      "duration": 0.125,
      "velocity": 100
    },
    {
      "time": 28.166666666666668,
      "note": 74,
      "duration": 0.125,
      "velocity": 100
    },
    {
      "time": 28.291666666666668,
      "note": 74,
      "duration": 0.5,
      "velocity": 100
    },
    {
      "time": 28.791666666666668,
      "note": 87,
      "duration": 0.25,
      "velocity": 100
    },
    {
      "time": 29.041666666666668,
      "note": 86,
      "duration": 0.125,
      "velocity": 100
    },
    {
      "time": 29.166666666666668,
      "note": 84,
      "duration": 0.125,
      "velocity": 100
    },
    {
      "time": 29.291666666666668,
      "note": 84,
      "duration": 0.5,
      "velocity": 100
    },
    {
      "time": 29.791666666666668,
      "note": 84,
      "duration": 0.5,
      "velocity": 100
    },
    {
      "time": 30.291666666666668,
      "note": 87,
      "duration": 0.125,
      "velocity": 100
    },
    {
      "time": 30.416666666666668,
      "note": 87,
      "duration": 0.25,
      "velocity": 100
    },
    {
      "time": 30.666666666666668,
      "note": 86,
      "duration": 0.125,
      "velocity": 100
    },
    {
      "time": 29.791666666666668,
      "note": 75,
      "duration": 0.25,
      "velocity": 100
    },
    {
      "time": 30.041666666666668,
      "note": 77,
      "duration": 0.125,
      "velocity": 100
    },
    {
      "time": 30.166666666666668,
      "note": 79,
      "duration": 0.125,
      "velocity": 100
    },
    {
      "time": 30.291666666666668,
      "note": 86,
      "duration": 0.125,
      "velocity": 100
    },
    {
      "time": 30.416666666666668,
      "note": 86,
      "duration": 0.375,
      "velocity": 100
    },
    {
      "time": 30.791666666666668,
      "note": 86,
      "duration": 0.5,
      "velocity": 100
    },
    {
      "time": 31.291666666666668,
      "note": 86,
      "duration": 0.5,
      "velocity": 100
    },
    {
      "time": 31.791666666666668,
      "note": 87,
      "duration": 0.25,
      "velocity": 100
    },
    {
      "time": 32.04166666666667,
      "note": 86,
      "duration": 0.25,
      "velocity": 100
    },
    {
      "time": 31.291666666666668,
      "note": 77,
      "duration": 0.25,
      "velocity": 100
    },
    {
      "time": 31.541666666666668,
      "note": 75,
      "duration": 0.125,
      "velocity": 100
    },
    {
      "time": 31.666666666666668,
      "note": 74,
      "duration": 0.125,
      "velocity": 100
    },
    {
      "time": 31.791666666666668,
      "note": 87,
      "duration": 0.25,
      "velocity": 100
    },
    {
      "time": 32.04166666666667,
      "note": 86,
      "duration": 0.125,
      "velocity": 100
    },
    {
      "time": 32.16666666666667,
      "note": 84,
      "duration": 0.125,
      "velocity": 100
    },
    {
      "time": 32.29166666666667,
      "note": 84,
      "duration": 0.5,
      "velocity": 100
    },
    {
      "time": 32.79166666666667,
      "note": 84,
      "duration": 0.5,
      "velocity": 100
    },
    {
      "time": 33.29166666666667,
      "note": 84,
      "duration": 0.125,
      "velocity": 100
    },
    {
      "time": 33.41666666666667,
      "note": 87,
      "duration": 0.25,
      "velocity": 100
    },
    {
      "time": 33.66666666666667,
      "note": 86,
      "duration": 0.125,
      "velocity": 100
    },
    {
      "time": 33.79166666666667,
      "note": 86,
      "duration": 1.0,
      "velocity": 100
    },
    {
      "time": 34.79166666666667,
      "note": 86,
      "duration": 1.0,
      "velocity": 100
    },
    {
      "time": 37.04166666666667,
      "note": 91,
      "duration": 0.125,
      "velocity": 100
    },
    {
      "time": 37.16666666666667,
      "note": 91,
      "duration": 0.25,
      "velocity": 100
    },
    {
      "time": 37.41666666666667,
      "note": 87,
      "duration": 0.125,
      "velocity": 100
    },
    {
      "time": 37.54166666666667,
      "note": 87,
      "duration": 0.5,
      "velocity": 100
    },
    {
      "time": 38.04166666666667,
      "note": 91,
      "duration": 0.125,
      "velocity": 100
    },
    {
      "time": 38.16666666666667,
      "note": 91,
      "duration": 0.125,
      "velocity": 100
    },
    {
      "time": 38.29166666666667,
      "note": 91,
      "duration": 0.125,
      "velocity": 100
    },
    {
      "time": 38.41666666666667,
      "note": 91,
      "duration": 0.125,
      "velocity": 100
    },
    {
      "time": 38.66666666666667,
      "note": 89,
      "duration": 0.125,
      "velocity": 100
    },
    {
      "time": 38.79166666666667,
      "note": 87,
      "duration": 0.125,
      "velocity": 100
    },
    {
      "time": 38.91666666666667,
      "note": 87,
      "duration": 0.125,
      "velocity": 100
    },
    {
      "time": 39.04166666666667,
      "note": 87,
      "duration": 0.125,
      "velocity": 100
    },
    {
      "time": 39.16666666666667,
      "note": 86,
      "duration": 0.375,
      "velocity": 100
    },
    {
      "time": 40.04166666666667,
      "note": 86,
      "duration": 0.125,
      "velocity": 100
    },
    {
      "time": 40.16666666666667,
      "note": 86,
      "duration": 0.25,
      "velocity": 100
    },
    {
      "time": 40.41666666666667,
      "note": 84,
      "duration": 0.125,
      "velocity": 100
    },
    {
      "time": 40.54166666666667,
      "note": 84,
      "duration": 0.125,
      "velocity": 100
    },
    {
      "time": 40.66666666666667,
      "note": 82,
      "duration": 0.375,
      "velocity": 100
    },
    {
      "time": 40.04166666666667,
      "note": 74,
      "duration": 0.75,
      "velocity": 100
    },
    {
      "time": 40.41666666666667,
      "note": 75,
      "duration": 0.5,
      "velocity": 100
    },
    {
      "time": 40.91666666666667,
      "note": 75,
      "duration": 0.25,
      "velocity": 100
    },
    {
      "time": 41.16666666666667,
      "note": 79,
      "duration": 0.375,
      "velocity": 100
    },
    {
      "time": 42.04166666666667,
      "note": 89,
      "duration": 0.125,
      "velocity": 100
    },
    {
      "time": 42.16666666666667,
      "note": 89,
      "duration": 0.25,
      "velocity": 100
    },
    {
      "time": 42.41666666666667,
      "note": 84,
      "duration": 0.125,
      "velocity": 100
    },
    {
      "time": 42.54166666666667,
      "note": 84,
      "duration": 0.5,
      "velocity": 100
    },
    {
      "time": 42.04166666666667,
      "note": 81,
      "duration": 1.0,
      "velocity": 100
    },
    {
      "time": 43.04166666666667,
      "note": 81,
      "duration": 0.125,
      "velocity": 100
    },
    {
      "time": 43.16666666666667,
      "note": 89,
      "duration": 0.125,
      "velocity": 100
    },
    {
      "time": 43.29166666666667,
      "note": 89,
      "duration": 0.125,
      "velocity": 100
    },
    {
      "time": 43.41666666666667,
      "note": 89,
      "duration": 0.125,
      "velocity": 100
    },
    {
      "time": 43.66666666666667,
      "note": 87,
      "duration": 0.125,
      "velocity": 100
    },
    {
      "time": 43.79166666666667,
      "note": 86,
      "duration": 0.125,
      "velocity": 100
    },
    {
      "time": 43.91666666666667,
      "note": 86,
      "duration": 0.125,
      "velocity": 100
    },
    {
      "time": 44.04166666666667,
      "note": 86,
      "duration": 0.125,
      "velocity": 100
    },
    {
      "time": 44.16666666666667,
      "note": 87,
      "duration": 0.375,
      "velocity": 100
    },
    {
      "time": 44.54166666666667,
      "note": 87,
      "duration": 0.5,
      "velocity": 100
    },
    {
      "time": 45.04166666666667,
      "note": 86,
      "duration": 1.0,
      "velocity": 100
    },
    {
      "time": 45.04166666666667,
      "note": 86,
      "duration": 0.5,
      "velocity": 100
    },
    {
      "time": 45.54166666666667,
      "note": 82,
      "duration": 0.25,
      "velocity": 100
    },
    {
      "time": 45.79166666666667,
      "note": 87,
      "duration": 0.25,
      "velocity": 100
    }
  ],
  "chords": [
    {
      "time": 0.0,
      "notes": [
        63,
        67,
        70
      ],
      "duration": 1.918402777777778
    },
    {
      "time": 1.918402777777778,
      "notes": [
        60,
        63,
        67
      ],
      "duration": 1.918402777777778
    },
    {
      "time": 3.836805555555556,
      "notes": [
        68,
        72,
        75
      ],
      "duration": 1.918402777777778
    },
    {
      "time": 5.755208333333334,
      "notes": [
        70,
        74,
        77
      ],
      "duration": 1.918402777777778
    },
    {
      "time": 7.673611111111112,
      "notes": [
        63,
        67,
        70
      ],
      "duration": 1.918402777777778
    },
    {
      "time": 9.59201388888889,
      "notes": [
        60,
        63,
        67
      ],
      "duration": 1.918402777777778
    },
    {
      "time": 11.510416666666668,
      "notes": [
        68,
        72,
        75
      ],
      "duration": 1.918402777777778
    },
    {
      "time": 13.428819444444445,
      "notes": [
        70,
        74,
        77,
        80
      ],
      "duration": 1.918402777777778
    },
    {
      "time": 15.347222222222223,
      "notes": [
        63,
        67,
        70
      ],
      "duration": 1.918402777777778
    },
    {
      "time": 17.265625,
      "notes": [
        64,
        67,
        71
      ],
      "duration": 1.918402777777778
    },
    {
      "time": 19.18402777777778,
      "notes": [
        60,
        63,
        67
      ],
      "duration": 1.918402777777778
    },
    {
      "time": 21.102430555555557,
      "notes": [
        68,
        72,
        75
      ],
      "duration": 1.918402777777778
    },
    {
      "time": 23.020833333333336,
      "notes": [
        70,
        74,
        77
      ],
      "duration": 1.918402777777778
    },
    {
      "time": 24.939236111111114,
      "notes": [
        60,
        63,
        67
      ],
      "duration": 1.918402777777778
    },
    {
      "time": 26.85763888888889,
      "notes": [
        70,
        74,
        77
      ],
      "duration": 1.918402777777778
    },
    {
      "time": 28.776041666666668,
      "notes": [
        60,
        63,
        67
      ],
      "duration": 1.918402777777778
    },
    {
      "time": 30.694444444444446,
      "notes": [
        70,
        74,
        77
      ],
      "duration": 1.918402777777778
    },
    {
      "time": 32.61284722222222,
      "notes": [
        65,
        68,
        72
      ],
      "duration": 1.918402777777778
    },
    {
      "time": 34.53125,
      "notes": [
        70,
        74,
        77
      ],
      "duration": 1.918402777777778
    },
    {
      "time": 36.44965277777778,
      "notes": [
        63,
        67,
        70
      ],
      "duration": 1.918402777777778
    },
    {
      "time": 38.36805555555556,
      "notes": [
        70,
        74,
        77
      ],
      "duration": 1.918402777777778
    },
    {
      "time": 40.286458333333336,
      "notes": [
        65,
        68,
        72
      ],
      "duration": 1.918402777777778
    },
    {
      "time": 42.204861111111114,
      "notes": [
        60,
        63,
        67
      ],
      "duration": 1.918402777777778
    },
    {
      "time": 44.12326388888889,
      "notes": [
        70,
        74,
        77,
        80
      ],
      "duration": 1.918402777777778
    }
  ]
}