{
  "title": "Ocho cuarenta",
  "artist": "Rodrigo",
  "bpm": 120,
  "duration": 69.125,
  "audioFile": "",
  "notes": [
    {
      "time": 0.0,
      "note": 81,
      "duration": 0.25,
      "velocity": 100
    },
    {
      "time": 0.25,
      "note": 81,
      "duration": 0.25,
      "velocity": 100
    },
    {
      "time": 0.5,
      "note": 81,
      "duration": 0.25,
      "velocity": 100
    },
    {
      "time": 0.75,
      "note": 81,
      "duration": 0.25,
      "velocity": 100
    },
    {
      "time": 1.0,
      "note": 81,
      "duration": 0.5,
      "velocity": 100
    },
    {
      "time": 1.5,
      "note": 86,
      "duration": 0.25,
      "velocity": 100
    },
    {
      "time": 1.75,
      "note": 86,
      "duration": 0.25,
      "velocity": 100
    },
    {
      "time": 2.0,
      "note": 86,
      "duration": 0.25,
      "velocity": 100
    },
    {
      "time": 2.25,
      "note": 84,
      "duration": 0.25,
      "velocity": 100
    },
    {
      "time": 2.5,
      "note": 84,
      "duration": 1.5,
      "velocity": 100
    },
    {
      "time": 4.0,
      "note": 81,
      "duration": 0.25,
      "velocity": 100
    },
    {
      "time": 4.25,
      "note": 81,
      "duration": 0.25,
      "velocity": 100
    },
    {
      "time": 4.5,
      "note": 81,
      "duration": 0.25,
      "velocity": 100
    },
    {
      "time": 4.75,
      "note": 81,
      "duration": 0.25,
      "velocity": 100
    },
    {
      "time": 5.0,
      "note": 81,
      "duration": 0.5,
      "velocity": 100
    },
    {
      "time": 5.5,
      "note": 79,
      "duration": 0.25,
      "velocity": 100
    },
    {
      "time": 5.75,
      "note": 81,
      "duration": 0.25,
      "velocity": 100
    },
    {
      "time": 6.0,
      "note": 81,
      "duration": 1.5,
      "velocity": 100
    },
    {
      "time": 8.0,
      "note": 79,
      "duration": 0.25,
      "velocity": 100
    },
    {
      "time": 8.25,
      "note": 77,
      "duration": 0.25,
      "velocity": 100
    },
    {
      "time": 8.5,
      "note": 79,
      "duration": 0.25,
      "velocity": 100
    },
    {
      "time": 8.75,
      "note": 77,
      "duration": 0.25,
      "velocity": 100
    },
    {
      "time": 9.0,
      "note": 79,
      "duration": 0.5,
      "velocity": 100
    },
    {
      "time": 9.5,
      "note": 77,
      "duration": 0.25,
      "velocity": 100
    },
    {
      "time": 9.75,
      "note": 79,
      "duration": 0.25,
      "velocity": 100
    },
    {
      "time": 10.0,
      "note": 79,
      "duration": 0.25,
      "velocity": 100
    },
    {
      "time": 10.25,
      "note": 77,
      "duration": 0.25,
      "velocity": 100
    },
    {
      "time": 10.5,
      "note": 77,
      "duration": 1.0,
      "velocity": 100
    },
    {
      "time": 11.5,
      "note": 81,
      "duration": 0.25,
      "velocity": 100
    },
    {
      "time": 11.75,
      "note": 81,
      "duration": 0.25,
      "velocity": 100
    },
    {
      "time": 12.25,
      "note": 81,
      "duration": 0.5,
      "velocity": 100
    },
    {
      "time": 12.75,
      "note": 79,
      "duration": 0.25,
      "velocity": 100
    },
    {
      "time": 13.0,
      "note": 79,
      "duration": 0.25,
      "velocity": 100
    },
    {
      "time": 13.25,
      "note": 79,
      "duration": 0.25,
      "velocity": 100
    },
    {
      "time": 13.5,
      "note": 81,
      "duration": 0.5,
      "velocity": 100
    },
    {
      "time": 13.25,
      "note": 77,
      "duration": 0.25,
      "velocity": 100
    },
    {
      "time": 13.5,
      "note": 81,
      "duration": 0.25,
      "velocity": 100
    },
    {
      "time": 13.5,
      "note": 77,
      "duration": 0.5,
      "velocity": 100
    },
    {
      "time": 14.0,
      "note": 81,
      "duration": 0.5,
      "velocity": 100
    },
    {
      "time": 14.0,
      "note": 74,
      "duration": 0.25,
      "velocity": 100
    },
    {
      "time": 14.25,
      "note": 77,
      "duration": 0.25,
      "velocity": 100
    },
    {
      "time": 14.25,
      "note": 77,
      "duration": 0.5,
      "velocity": 100
    },
    {
      "time": 14.75,
      "note": 81,
      "duration": 0.5,
      "velocity": 100
    },
    {
      "time": 14.75,
      "note": 77,
      "duration": 0.5,
      "velocity": 100
    },
    {
      "time": 15.25,
      "note": 81,
      "duration": 0.5,
      "velocity": 100
    },
    {
      "time": 15.25,
      "note": 79,
      "duration": 0.25,
      "velocity": 100
    },
    {
      "time": 15.5,
      "note": 84,
      "duration": 0.25,
      "velocity": 100
    },
    {
      "time": 16.0,
      "note": 86,
      "duration": 0.125,
      "velocity": 100
    },
    {
      "time": 16.125,
      "note": 84,
      "duration": 0.25,
      "velocity": 100
    },
    {
      "time": 16.375,
      "note": 86,
      "duration": 0.125,
      "velocity": 100
    },
    {
      "time": 16.5,
      "note": 84,
      "duration": 0.25,
      "velocity": 100
    },
    {
      "time": 16.75,
      "note": 86,
      "duration": 0.125,
      "velocity": 100
    },
    {
      "time": 16.875,
      "note": 84,
      "duration": 0.125,
      "velocity": 100
    },
    {
      "time": 17.625,
      "note": 84,
      "duration": 0.125,
      "velocity": 100
    },
    {
      "time": 17.75,
      "note": 86,
      "duration": 0.125,
      "velocity": 100
    },
    {
      "time": 17.875,
      "note": 84,
      "duration": 0.125,
      "velocity": 100
    },
    {
      "time": 18.0,
      "note": 86,
      "duration": 0.25,
      "velocity": 100
    },
    {
      "time": 18.25,
      "note": 86,
      "duration": 0.125,
      "velocity": 100
    },
    {
      "time": 18.375,
      "note": 84,
      "duration": 0.125,
      "velocity": 100
    },
    {
      "time": 19.75,
      "note": 86,
      "duration": 0.125,
      "velocity": 100
    },
    {
      "time": 19.875,
      "note": 88,
      "duration": 0.125,
      "velocity": 100
    },
    {
      "time": 20.0,
      "note": 89,
      "duration": 0.25,
      "velocity": 100
    },
    {
      "time": 20.25,
      "note": 86,
      "duration": 0.25,
      "velocity": 100
    },
    {
      "time": 20.5,
      "note": 84,
      "duration": 0.125,
      "velocity": 100
    },
    {
      "time": 20.75,
      "note": 82,
      "duration": 0.125,
      "velocity": 100
    },
    {
      "time": 20.875,
      "note": 81,
      "duration": 0.25,
      "velocity": 100
    },
    {
      "time": 21.75,
      "note": 88,
      "duration": 0.125,
      "velocity": 100
    },
    {
      "time": 21.875,
      "note": 86,
      "duration": 0.125,
      "velocity": 100
    },
    {
      "time": 22.0,
      "note": 88,
      "duration": 0.125,
      "velocity": 100
    },
    {
      "time": 22.125,
      "note": 89,
      "duration": 0.25,
      "velocity": 100
    },
    {
      "time": 22.375,
      "note": 86,
      "duration": 0.25,
      "velocity": 100
    },
    {
      "time": 22.625,
      "note": 84,
      "duration": 0.125,
      "velocity": 100
    },
    {
      "time": 22.875,
      "note": 82,
      "duration": 0.125,
      "velocity": 100
    },
    {
      "time": 23.0,
      "note": 81,
      "duration": 0.25,
      "velocity": 100
    },
    {
      "time": 24.25,
      "note": 84,
      "duration": 0.25,
      "velocity": 100
    },
    {
      "time": 24.5,
      "note": 82,
      "duration": 0.25,
      "velocity": 100
    },
    {
      "time": 24.75,
      "note": 81,
      "duration": 0.25,
      "velocity": 100
    },
    {
      "time": 25.0,
      "note": 82,
      "duration": 0.25,
      "velocity": 100
    },
    {
      "time": 25.25,
      "note": 82,
      "duration": 0.25,
      "velocity": 100
    },
    {
      "time": 25.5,
      "note": 77,
      "duration": 0.25,
      "velocity": 100
    },
    {
      "time": 25.75,
      "note": 79,
      "duration": 0.25,
      "velocity": 100
    },
    {
      "time": 26.0,
      "note": 81,
      "duration": 0.25,
      "velocity": 100
    },
    {
      "time": 26.25,
      "note": 82,
      "duration": 0.25,
      "velocity": 100
    },
    {
      "time": 26.5,
      "note": 81,
      "duration": 0.25,
      "velocity": 100
    },
    {
      "time": 26.75,
      "note": 79,
      "duration": 0.25,
      "velocity": 100
    },
    {
      "time": 27.0,
      "note": 77,
      "duration": 0.25,
      "velocity": 100
    },
    {
      "time": 27.25,
      "note": 77,
      "duration": 1.0,
      "velocity": 100
    },
    {
      "time": 28.25,
      "note": 84,
      "duration": 0.25,
      "velocity": 100
    },
    {
      "time": 28.5,
      "note": 82,
      "duration": 0.25,
      "velocity": 100
    },
    {
      "time": 28.75,
      "note": 81,
      "duration": 0.25,
      "velocity": 100
    },
    {
      "time": 29.0,
      "note": 79,
      "duration": 0.25,
      "velocity": 100
    },
    {
      "time": 29.25,
      "note": 79,
      "duration": 0.25,
      "velocity": 100
    },
    {
      "time": 29.5,
      "note": 89,
      "duration": 0.5,
      "velocity": 100
    },
    {
      "time": 30.0,
      "note": 88,
      "duration": 0.125,
      "velocity": 100
    },
    {
      "time": 30.125,
      "note": 86,
      "duration": 0.125,
      "velocity": 100
    },
    {
      "time": 30.25,
      "note": 88,
      "duration": 0.125,
      "velocity": 100
    },
    {
      "time": 30.375,
      "note": 86,
      "duration": 0.125,
      "velocity": 100
    },
    {
      "time": 30.5,
      "note": 88,
      "duration": 0.25,
      "velocity": 100
    },
    {
      "time": 30.75,
      "note": 88,
      "duration": 1.5,
      "velocity": 100
    },
    {
      "time": 30.875,
      "note": 76,
      "duration": 0.25,
      "velocity": 100
    },
    {
      "time": 31.125,
      "note": 79,
      "duration": 0.25,
      "velocity": 100
    },
    {
      "time": 31.125,
      "note": 84,
      "duration": 0.25,
      "velocity": 100
    },
    {
      "time": 31.375,
      "note": 79,
      "duration": 0.25,
      "velocity": 100
    },
    {
      "time": 31.625,
      "note": 84,
      "duration": 0.25,
      "velocity": 100
    },
    {
      "time": 31.875,
      "note": 76,
      "duration": 0.25,
      "velocity": 100
    },
    {
      "time": 32.125,
      "note": 79,
      "duration": 0.25,
      "velocity": 100
    },
    {
      "time": 32.125,
      "note": 84,
      "duration": 0.25,
      "velocity": 100
    },
    {
      "time": 32.125,
      "note": 76,
      "duration": 0.25,
      "velocity": 100
    },
    {
      "time": 32.375,
      "note": 79,
      "duration": 0.25,
      "velocity": 100
    },
    {
      "time": 32.375,
      "note": 84,
      "duration": 0.25,
      "velocity": 100
    },
    {
      "time": 32.375,
      "note": 76,
      "duration": 0.25,
      "velocity": 100
    },
    {
      "time": 32.625,
      "note": 79,
      "duration": 0.25,
      "velocity": 100
    },
    {
      "time": 32.625,
      "note": 84,
      "duration": 0.25,
      "velocity": 100
    },
    {
      "time": 32.875,
      "note": 81,
      "duration": 0.25,
      "velocity": 100
    },
    {
      "time": 33.125,
      "note": 81,
      "duration": 0.25,
      "velocity": 100
    },
    {
      "time": 33.375,
      "note": 81,
      "duration": 0.25,
      "velocity": 100
    },
    {
      "time": 33.625,
      "note": 81,
      "duration": 0.25,
      "velocity": 100
    },
    {
      "time": 33.875,
      "note": 81,
      "duration": 0.5,
      "velocity": 100
    },
    {
      "time": 34.375,
      "note": 86,
      "duration": 0.25,
      "velocity": 100
    },
    {
      "time": 34.625,
      "note": 86,
      "duration": 0.25,
      "velocity": 100
    },
    {
      "time": 34.875,
      "note": 86,
      "duration": 0.25,
      "velocity": 100
    },
    {
      "time": 35.125,
      "note": 84,
      "duration": 0.25,
      "velocity": 100
    },
    {
      "time": 35.375,
      "note": 84,
      "duration": 1.5,
      "velocity": 100
    },
    {
      "time": 36.875,
      "note": 81,
      "duration": 0.25,
      "velocity": 100
    },
    {
      "time": 37.125,
      "note": 81,
      "duration": 0.25,
      "velocity": 100
    },
    {
      "time": 37.375,
      "note": 81,
      "duration": 0.25,
      "velocity": 100
    },
    {
      "time": 37.625,
      "note": 81,
      "duration": 0.25,
      "velocity": 100
    },
    {
      "time": 37.875,
      "note": 81,
      "duration": 0.5,
      "velocity": 100
    },
    {
      "time": 38.375,
      "note": 79,
      "duration": 0.25,
      "velocity": 100
    },
    {
      "time": 38.625,
      "note": 81,
      "duration": 0.25,
      "velocity": 100
    },
    {
      "time": 38.875,
      "note": 81,
      "duration": 1.5,
      "velocity": 100
    },
    {
      "time": 40.875,
      "note": 79,
      "duration": 0.25,
      "velocity": 100
    },
    {
      "time": 41.125,
      "note": 79,
      "duration": 0.25,
      "velocity": 100
    },
    {
      "time": 41.375,
      "note": 79,
      "duration": 0.25,
      "velocity": 100
    },
    {
      "time": 41.625,
      "note": 79,
      "duration": 0.25,
      "velocity": 100
    },
    {
      "time": 41.875,
      "note": 79,
      "duration": 0.5,
      "velocity": 100
    },
    {
      "time": 42.375,
      "note": 77,
      "duration": 0.25,
      "velocity": 100
    },
    {
      "time": 42.625,
      "note": 79,
      "duration": 0.25,
      "velocity": 100
    },
    {
      "time": 42.875,
      "note": 79,
      "duration": 0.25,
      "velocity": 100
    },
    {
      "time": 43.125,
      "note": 77,
      "duration": 0.25,
      "velocity": 100
    },
    {
      "time": 43.375,
      "note": 77,
      "duration": 1.0,
      "velocity": 100
    },
    {
      "time": 44.375,
      "note": 81,
      "duration": 0.25,
      "velocity": 100
    },
    {
      "time": 44.625,
      "note": 81,
      "duration": 0.25,
      "velocity": 100
    },
    {
      "time": 44.875,
      "note": 81,
      "duration": 0.5,
      "velocity": 100
    },
    {
      "time": 45.375,
      "note": 79,
      "duration": 0.25,
      "velocity": 100
    },
    {
      "time": 45.625,
      "note": 79,
      "duration": 0.25,
      "velocity": 100
    },
    {
      "time": 45.875,
      "note": 79,
      "duration": 0.25,
      "velocity": 100
    },
    {
      "time": 46.125,
      "note": 81,
      "duration": 0.5,
      "velocity": 100
    },
    {
      "time": 46.625,
      "note": 79,
      "duration": 0.25,
      "velocity": 100
    },
    {
      "time": 47.125,
      "note": 79,
      "duration": 1.0,
      "velocity": 100
    },
    {
      "time": 49.375,
      "note": 76,
      "duration": 0.25,
      "velocity": 100
    },
    {
      "time": 49.625,
      "note": 79,
      "duration": 0.25,
      "velocity": 100
    },
    {
      "time": 49.625,
      "note": 84,
      "duration": 0.25,
      "velocity": 100
    },
    {
      "time": 49.875,
      "note": 76,
      "duration": 0.25,
      "velocity": 100
    },
    {
      "time": 50.125,
      "note": 79,
      "duration": 0.25,
      "velocity": 100
    },
    {
      "time": 50.125,
      "note": 84,
      "duration": 0.25,
      "velocity": 100
    },
    {
      "time": 50.375,
      "note": 76,
      "duration": 0.25,
      "velocity": 100
    },
    {
      "time": 50.625,
      "note": 79,
      "duration": 0.25,
      "velocity": 100
    },
    {
      "time": 50.625,
      "note": 84,
      "duration": 0.25,
      "velocity": 100
    },
    {
      "time": 50.625,
      "note": 76,
      "duration": 0.5,
      "velocity": 100
    },
    {
      "time": 51.125,
      "note": 79,
      "duration": 0.5,
      "velocity": 100
    },
    {
      "time": 51.125,
      "note": 84,
      "duration": 0.5,
      "velocity": 100
    },
    {
      "time": 51.875,
      "note": 81,
      "duration": 0.25,
      "velocity": 100
    },
    {
      "time": 52.125,
      "note": 81,
      "duration": 0.25,
      "velocity": 100
    },
    {
      "time": 52.375,
      "note": 81,
      "duration": 0.25,
      "velocity": 100
    },
    {
      "time": 52.625,
      "note": 86,
      "duration": 0.25,
      "velocity": 100
    },
    {
      "time": 52.875,
      "note": 86,
      "duration": 0.25,
      "velocity": 100
    },
    {
      "time": 53.125,
      "note": 86,
      "duration": 0.25,
      "velocity": 100
    },
    {
      "time": 53.375,
      "note": 86,
      "duration": 0.25,
      "velocity": 100
    },
    {
      "time": 53.625,
      "note": 84,
      "duration": 0.25,
      "velocity": 100
    },
    {
      "time": 53.875,
      "note": 84,
      "duration": 0.25,
      "velocity": 100
    },
    {
      "time": 54.125,
      "note": 84,
      "duration": 0.25,
      "velocity": 100
    },
    {
      "time": 54.375,
      "note": 84,
      "duration": 0.25,
      "velocity": 100
    },
    {
      "time": 54.625,
      "note": 81,
      "duration": 0.25,
      "velocity": 100
    },
    {
      "time": 54.875,
      "note": 79,
      "duration": 0.25,
      "velocity": 100
    },
    {
      "time": 55.125,
      "note": 81,
      "duration": 0.25,
      "velocity": 100
    },
    {
      "time": 55.375,
      "note": 81,
      "duration": 0.5,
      "velocity": 100
    },
    {
      "time": 55.875,
      "note": 81,
      "duration": 0.25,
      "velocity": 100
    },
    {
      "time": 56.125,
      "note": 81,
      "duration": 0.25,
      "velocity": 100
    },
    {
      "time": 56.375,
      "note": 81,
      "duration": 0.25,
      "velocity": 100
    },
    {
      "time": 56.625,
      "note": 81,
      "duration": 0.25,
      "velocity": 100
    },
    {
      "time": 56.875,
      "note": 79,
      "duration": 0.25,
      "velocity": 100
    },
    {
      "time": 57.125,
      "note": 81,
      "duration": 0.25,
      "velocity": 100
    },
    {
      "time": 57.375,
      "note": 81,
      "duration": 0.25,
      "velocity": 100
    },
    {
      "time": 57.625,
      "note": 81,
      "duration": 0.25,
      "velocity": 100
    },
    {
      "time": 57.875,
      "note": 76,
      "duration": 0.25,
      "velocity": 100
    },
    {
      "time": 58.125,
      "note": 76,
      "duration": 0.25,
      "velocity": 100
    },
    {
      "time": 58.375,
      "note": 76,
      "duration": 0.25,
      "velocity": 100
    },
    {
      "time": 58.625,
      "note": 74,
      "duration": 0.25,
      "velocity": 100
    },
    {
      "time": 58.875,
      "note": 74,
      "duration": 0.25,
      "velocity": 100
    },
    {
      "time": 59.125,
      "note": 74,
      "duration": 0.25,
      "velocity": 100
    },
    {
      "time": 59.375,
      "note": 74,
      "duration": 0.25,
      "velocity": 100
    },
    {
      "time": 59.625,
      "note": 77,
      "duration": 0.25,
      "velocity": 100
    },
    {
      "time": 59.875,
      "note": 77,
      "duration": 0.25,
      "velocity": 100
    },
    {
      "time": 60.125,
      "note": 77,
      "duration": 0.25,
      "velocity": 100
    },
    {
      "time": 60.625,
      "note": 79,
      "duration": 0.25,
      "velocity": 100
    },
    {
      "time": 60.875,
      "note": 77,
      "duration": 0.25,
      "velocity": 100
    },
    {
      "time": 61.125,
      "note": 79,
      "duration": 0.25,
      "velocity": 100
    },
    {
      "time": 61.375,
      "note": 79,
      "duration": 0.25,
      "velocity": 100
    },
    {
      "time": 61.625,
      "note": 77,
      "duration": 0.25,
      "velocity": 100
    },
    {
      "time": 62.125,
      "note": 77,
      "duration": 0.25,
      "velocity": 100
    },
    {
      "time": 62.375,
      "note": 77,
      "duration": 0.25,
      "velocity": 100
    },
    {
      "time": 62.625,
      "note": 77,
      "duration": 0.125,
      "velocity": 100
    },
    {
      "time": 62.75,
      "note": 77,
      "duration": 0.125,
      "velocity": 100
    },
    {
      "time": 62.875,
      "note": 77,
      "duration": 0.5,
      "velocity": 100
    },
    {
      "time": 63.625,
      "note": 81,
      "duration": 0.25,
      "velocity": 100
    },
    {
      "time": 63.875,
      "note": 81,
      "duration": 0.25,
      "velocity": 100
    },
    {
      "time": 64.125,
      "note": 81,
      "duration": 0.25,
      "velocity": 100
    },
    {
      "time": 64.375,
      "note": 81,
      "duration": 0.5,
      "velocity": 100
    },
    {
      "time": 64.875,
      "note": 79,
      "duration": 0.5,
      "velocity": 100
    },
    {
      "time": 63.625,
      "note": 79,
      "duration": 1.0,
      "velocity": 100
    },
    {
      "time": 64.625,
      "note": 81,
      "duration": 1.0,
      "velocity": 100
    },
    {
      "time": 66.125,
      "note": 81,
      "duration": 0.5,
      "velocity": 100
    },
    {
      "time": 66.625,
      "note": 79,
      "duration": 0.5,
      "velocity": 100
    },
    {
      "time": 67.125,
      "note": 77,
      "duration": 1.0,
      "velocity": 100
    }
  ],
  "chords": [
    {
      "time": 0.0,
      "notes": [
        65,
        69,
        72
      ],
      "duration": 2.0330882352941178
    },
    {
      "time": 2.0330882352941178,
      "notes": [
        60,
        64,
        67
      ],
      "duration": 2.0330882352941178
    },
    {
      "time": 4.0661764705882355,
      "notes": [
        62,
        65,
        69
      ],
      "duration": 2.0330882352941178
    },
    {
      "time": 6.099264705882353,
      "notes": [
        69,
        72,
        76
      ],
      "duration": 2.0330882352941178
    },
    {
      "time": 8.132352941176471,
      "notes": [
        70,
        74,
        77
      ],
      "duration": 2.0330882352941178
    },
    {
      "time": 10.165441176470589,
      "notes": [
        65,
        69,
        72
      ],
      "duration": 2.0330882352941178
    },
    {
      "time": 12.198529411764707,
      "notes": [
        67,
        71,
        74
      ],
      "duration": 2.0330882352941178
    },
    {
      "time": 14.231617647058824,
      "notes": [
        60,
        64,
        67,
        70
      ],
      "duration": 2.0330882352941178
    },
    {
      "time": 16.264705882352942,
      "notes": [
        65,
        69,
        72
      ],
      "duration": 2.0330882352941178
    },
    {
      "time": 18.297794117647058,
      "notes": [
        60,
        64,
        67
      ],
      "duration": 2.0330882352941178
    },
    {
      "time": 20.330882352941178,
      "notes": [
        62,
        65,
        69
      ],
      "duration": 2.0330882352941178
    },
    {
      "time": 22.363970588235297,
      "notes": [
        69,
        72,
        76
      ],
      "duration": 2.0330882352941178
    },
    {
      "time": 24.397058823529413,
      "notes": [
        70,
        74,
        77
      ],
      "duration": 2.0330882352941178
    },
    {
      "time": 26.43014705882353,
      "notes": [
        65,
        69,
        72
      ],
      "duration": 2.0330882352941178
    },
    {
      "time": 28.46323529411765,
      "notes": [
        67,
        71,
        74
      ],
      "duration": 2.0330882352941178
    },
    {
      "time": 30.496323529411768,
      "notes": [
        60,
        64,
        67,
        70
      ],
      "duration": 2.0330882352941178
    },
    {
      "time": 32.529411764705884,
      "notes": [
        65,
        69,
        72
      ],
      "duration": 2.0330882352941178
    },
    {
      "time": 34.5625,
      "notes": [
        60,
        64,
        67
      ],
      "duration": 2.0330882352941178
    },
    {
      "time": 36.595588235294116,
      "notes": [
        62,
        65,
        69
      ],
      "duration": 2.0330882352941178
    },
    {
      "time": 38.62867647058824,
      "notes": [
        69,
        72,
        76
      ],
      "duration": 2.0330882352941178
    },
    {
      "time": 40.661764705882355,
      "notes": [
        70,
        74,
        77
      ],
      "duration": 2.0330882352941178
    },
    {
      "time": 42.69485294117647,
      "notes": [
        65,
        69,
        72
      ],
      "duration": 2.0330882352941178
    },
    {
      "time": 44.727941176470594,
      "notes": [
        67,
        71,
        74
      ],
      "duration": 2.0330882352941178
    },
    {
      "time": 46.76102941176471,
      "notes": [
        60,
        64,
        67,
        70
      ],
      "duration": 2.0330882352941178
    },
    {
      "time": 48.794117647058826,
      "notes": [
        65,
        69,
        72
      ],
      "duration": 2.0330882352941178
    },
    {
      "time": 50.82720588235294,
      "notes": [
        60,
        64,
        67
      ],
      "duration": 2.0330882352941178
    },
    {
      "time": 52.86029411764706,
      "notes": [
        62,
        65,
        69
      ],
      "duration": 2.0330882352941178
    },
    {
      "time": 54.89338235294118,
      "notes": [
        69,
        72,
        76
      ],
      "duration": 2.0330882352941178
    },
    {
      "time": 56.9264705882353,
      "notes": [
        70,
        74,
        77
      ],
      "duration": 2.0330882352941178
    },
    {
      "time": 58.95955882352941,
      "notes": [
        65,
        69,
        72
      ],
      "duration": 2.0330882352941178
    },
    {
      "time": 60.992647058823536,
      "notes": [
        67,
        71,
        74
      ],
      "duration": 2.0330882352941178
    },
    {
      "time": 63.02573529411765,
      "notes": [
        60,
        64,
        67,
        70
      ],
      "duration": 2.0330882352941178
    },
    {
      "time": 65.05882352941177,
      "notes": [
        60,
        64,
        67
      ],
      "duration": 2.0330882352941178
    },
    {
      "time": 67.09191176470588,
      "notes": [
        70,
        74,
        77
      ],
      "duration": 2.0330882352941178
    }
  ]
}