{
  "title": "El borrachito",
  "artist": "Organizacion X",
  "bpm": 120,
  "duration": 34.5,
  "audioFile": "",
  "notes": [
    {
      "time": 0.25,
      "note": 81,
      "duration": 0.375,
      "velocity": 100
    },
    {
      "time": 0.625,
      "note": 84,
      "duration": 0.375,
      "velocity": 100
    },
    {
      "time": 0.625,
      "note": 81,
      "duration": 0.125,
      "velocity": 100
    },
    {
      "time": 0.75,
      "note": 88,
      "duration": 0.125,
      "velocity": 100
    },
    {
      "time": 0.75,
      "note": 81,
      "duration": 0.25,
      "velocity": 100
    },
    {
      "time": 1.0,
      "note": 84,
      "duration": 0.25,
      "velocity": 100
    },
    {
      "time": 1.0,
      "note": 81,
      "duration": 0.125,
      "velocity": 100
    },
    {
      "time": 1.125,
      "note": 84,
      "duration": 0.125,
      "velocity": 100
    },
    {
      "time": 1.125,
      "note": 88,
      "duration": 0.125,
      "velocity": 100
    },
    {
      "time": 1.125,
      "note": 83,
      "duration": 0.125,
      "velocity": 100
    },
    {
      "time": 1.25,
      "note": 86,
      "duration": 0.125,
      "velocity": 100
    },
    {
      "time": 1.25,
      "note": 91,
      "duration": 0.125,
      "velocity": 100
    },
    {
      "time": 0.125,
      "note": 83,
      "duration": 0.125,
      "velocity": 100
    },
    {
      "time": 0.25,
      "note": 86,
      "duration": 0.125,
      "velocity": 100
    },
    {
      "time": 0.25,
      "note": 91,
      "duration": 0.125,
      "velocity": 100
    },
    {
      "time": 0.25,
      "note": 83,
      "duration": 0.125,
      "velocity": 100
    },
    {
      "time": 0.375,
      "note": 86,
      "duration": 0.125,
      "velocity": 100
    },
    {
      "time": 0.375,
      "note": 91,
      "duration": 0.125,
      "velocity": 100
    },
    {
      "time": 0.375,
      "note": 83,
      "duration": 0.125,
      "velocity": 100
    },
    {
      "time": 0.5,
      "note": 91,
      "duration": 0.125,
      "velocity": 100
    },
    {
      "time": 0.5,
      "note": 83,
      "duration": 0.25,
      "velocity": 100
    },
    {
      "time": 0.75,
      "note": 86,
      "duration": 0.25,
      "velocity": 100
    },
    {
      "time": 0.75,
      "note": 79,
      "duration": 0.25,
      "velocity": 100
    },
    {
      "time": 1.0,
      "note": 83,
      "duration": 0.25,
      "velocity": 100
    },
    {
      "time": 1.125,
      "note": 83,
      "duration": 0.125,
      "velocity": 100
    },
    {
      "time": 1.25,
      "note": 91,
      "duration": 0.125,
      "velocity": 100
    },
    {
      "time": 1.25,
      "note": 83,
      "duration": 0.125,
      "velocity": 100
    },
    {
      "time": 1.375,
      "note": 86,
      "duration": 0.125,
      "velocity": 100
    },
    {
      "time": 1.375,
      "note": 83,
      "duration": 0.125,
      "velocity": 100
    },
    {
      "time": 1.5,
      "note": 91,
      "duration": 0.125,
      "velocity": 100
    },
    {
      "time": 1.5,
      "note": 83,
      "duration": 0.25,
      "velocity": 100
    },
    {
      "time": 1.75,
      "note": 86,
      "duration": 0.25,
      "velocity": 100
    },
    {
      "time": 1.75,
      "note": 83,
      "duration": 0.125,
      "velocity": 100
    },
    {
      "time": 1.875,
      "note": 86,
      "duration": 0.125,
      "velocity": 100
    },
    {
      "time": 1.875,
      "note": 91,
      "duration": 0.125,
      "velocity": 100
    },
    {
      "time": 1.875,
      "note": 84,
      "duration": 0.125,
      "velocity": 100
    },
    {
      "time": 2.0,
      "note": 88,
      "duration": 0.125,
      "velocity": 100
    },
    {
      "time": 2.375,
      "note": 84,
      "duration": 0.125,
      "velocity": 100
    },
    {
      "time": 2.5,
      "note": 88,
      "duration": 0.125,
      "velocity": 100
    },
    {
      "time": 2.5,
      "note": 91,
      "duration": 0.125,
      "velocity": 100
    },
    {
      "time": 2.5,
      "note": 84,
      "duration": 0.125,
      "velocity": 100
    },
    {
      "time": 2.625,
      "note": 88,
      "duration": 0.125,
      "velocity": 100
    },
    {
      "time": 2.625,
      "note": 84,
      "duration": 0.125,
      "velocity": 100
    },
    {
      "time": 2.75,
      "note": 88,
      "duration": 0.125,
      "velocity": 100
    },
    {
      "time": 2.75,
      "note": 84,
      "duration": 0.25,
      "velocity": 100
    },
    {
      "time": 3.0,
      "note": 88,
      "duration": 0.25,
      "velocity": 100
    },
    {
      "time": 3.0,
      "note": 81,
      "duration": 0.25,
      "velocity": 100
    },
    {
      "time": 3.25,
      "note": 84,
      "duration": 0.25,
      "velocity": 100
    },
    {
      "time": 3.0,
      "note": 81,
      "duration": 0.375,
      "velocity": 100
    },
    {
      "time": 3.375,
      "note": 84,
      "duration": 0.375,
      "velocity": 100
    },
    {
      "time": 3.375,
      "note": 81,
      "duration": 0.125,
      "velocity": 100
    },
    {
      "time": 3.5,
      "note": 88,
      "duration": 0.125,
      "velocity": 100
    },
    {
      "time": 3.5,
      "note": 81,
      "duration": 0.25,
      "velocity": 100
    },
    {
      "time": 3.75,
      "note": 84,
      "duration": 0.25,
      "velocity": 100
    },
    {
      "time": 3.75,
      "note": 81,
      "duration": 0.125,
      "velocity": 100
    },
    {
      "time": 3.875,
      "note": 84,
      "duration": 0.125,
      "velocity": 100
    },
    {
      "time": 3.875,
      "note": 88,
      "duration": 0.125,
      "velocity": 100
    },
    {
      "time": 3.875,
      "note": 83,
      "duration": 0.125,
      "velocity": 100
    },
    {
      "time": 4.0,
      "note": 86,
      "duration": 0.125,
      "velocity": 100
    },
    {
      "time": 4.0,
      "note": 91,
      "duration": 0.125,
      "velocity": 100
    },
    {
      "time": 4.125,
      "note": 83,
      "duration": 0.125,
      "velocity": 100
    },
    {
      "time": 4.25,
      "note": 86,
      "duration": 0.125,
      "velocity": 100
    },
    {
      "time": 4.25,
      "note": 91,
      "duration": 0.125,
      "velocity": 100
    },
    {
      "time": 4.25,
      "note": 83,
      "duration": 0.125,
      "velocity": 100
    },
    {
      "time": 4.375,
      "note": 86,
      "duration": 0.125,
      "velocity": 100
    },
    {
      "time": 4.375,
      "note": 91,
      "duration": 0.125,
      "velocity": 100
    },
    {
      "time": 4.375,
      "note": 83,
      "duration": 0.125,
      "velocity": 100
    },
    {
      "time": 4.5,
      "note": 86,
      "duration": 0.125,
      "velocity": 100
    },
    {
      "time": 4.5,
      "note": 91,
      "duration": 0.125,
      "velocity": 100
    },
    {
      "time": 4.5,
      "note": 83,
      "duration": 0.25,
      "velocity": 100
    },
    {
      "time": 4.75,
      "note": 86,
      "duration": 0.25,
      "velocity": 100
    },
    {
      "time": 4.75,
      "note": 79,
      "duration": 0.25,
      "velocity": 100
    },
    {
      "time": 5.0,
      "note": 83,
      "duration": 0.25,
      "velocity": 100
    },
    {
      "time": 5.125,
      "note": 83,
      "duration": 0.125,
      "velocity": 100
    },
    {
      "time": 5.25,
      "note": 91,
      "duration": 0.125,
      "velocity": 100
    },
    {
      "time": 5.25,
      "note": 83,
      "duration": 0.125,
      "velocity": 100
    },
    {
      "time": 5.375,
      "note": 86,
      "duration": 0.125,
      "velocity": 100
    },
    {
      "time": 5.375,
      "note": 83,
      "duration": 0.125,
      "velocity": 100
    },
    {
      "time": 5.5,
      "note": 86,
      "duration": 0.125,
      "velocity": 100
    },
    {
      "time": 5.5,
      "note": 91,
      "duration": 0.125,
      "velocity": 100
    },
    {
      "time": 5.5,
      "note": 83,
      "duration": 0.125,
      "velocity": 100
    },
    {
      "time": 5.625,
      "note": 86,
      "duration": 0.125,
      "velocity": 100
    },
    {
      "time": 5.625,
      "note": 83,
      "duration": 0.125,
      "velocity": 100
    },
    {
      "time": 5.75,
      "note": 91,
      "duration": 0.125,
      "velocity": 100
    },
    {
      "time": 5.75,
      "note": 83,
      "duration": 0.125,
      "velocity": 100
    },
    {
      "time": 5.875,
      "note": 86,
      "duration": 0.125,
      "velocity": 100
    },
    {
      "time": 5.875,
      "note": 83,
      "duration": 0.125,
      "velocity": 100
    },
    {
      "time": 6.0,
      "note": 86,
      "duration": 0.125,
      "velocity": 100
    },
    {
      "time": 6.0,
      "note": 91,
      "duration": 0.125,
      "velocity": 100
    },
    {
      "time": 6.0,
      "note": 76,
      "duration": 0.25,
      "velocity": 100
    },
    {
      "time": 6.25,
      "note": 76,
      "duration": 0.125,
      "velocity": 100
    },
    {
      "time": 6.375,
      "note": 72,
      "duration": 0.125,
      "velocity": 100
    },
    {
      "time": 6.5,
      "note": 69,
      "duration": 0.125,
      "velocity": 100
    },
    {
      "time": 6.625,
      "note": 72,
      "duration": 0.125,
      "velocity": 100
    },
    {
      "time": 6.75,
      "note": 69,
      "duration": 0.125,
      "velocity": 100
    },
    {
      "time": 6.875,
      "note": 72,
      "duration": 0.125,
      "velocity": 100
    },
    {
      "time": 6.0,
      "note": 74,
      "duration": 0.25,
      "velocity": 100
    },
    {
      "time": 6.25,
      "note": 71,
      "duration": 0.125,
      "velocity": 100
    },
    {
      "time": 6.375,
      "note": 67,
      "duration": 0.125,
      "velocity": 100
    },
    {
      "time": 6.5,
      "note": 65,
      "duration": 0.25,
      "velocity": 100
    },
    {
      "time": 6.75,
      "note": 67,
      "duration": 0.25,
      "velocity": 100
    },
    {
      "time": 7.0,
      "note": 74,
      "duration": 0.25,
      "velocity": 100
    },
    {
      "time": 7.25,
      "note": 74,
      "duration": 0.125,
      "velocity": 100
    },
    {
      "time": 7.375,
      "note": 71,
      "duration": 0.125,
      "velocity": 100
    },
    {
      "time": 7.5,
      "note": 74,
      "duration": 0.125,
      "velocity": 100
    },
    {
      "time": 7.625,
      "note": 71,
      "duration": 0.125,
      "velocity": 100
    },
    {
      "time": 7.75,
      "note": 74,
      "duration": 0.125,
      "velocity": 100
    },
    {
      "time": 7.875,
      "note": 76,
      "duration": 0.125,
      "velocity": 100
    },
    {
      "time": 8.0,
      "note": 72,
      "duration": 0.25,
      "velocity": 100
    },
    {
      "time": 8.25,
      "note": 69,
      "duration": 0.125,
      "velocity": 100
    },
    {
      "time": 8.375,
      "note": 67,
      "duration": 0.125,
      "velocity": 100
    },
    {
      "time": 8.5,
      "note": 69,
      "duration": 0.25,
      "velocity": 100
    },
    {
      "time": 8.0,
      "note": 88,
      "duration": 0.25,
      "velocity": 100
    },
    {
      "time": 8.25,
      "note": 88,
      "duration": 0.125,
      "velocity": 100
    },
    {
      "time": 8.375,
      "note": 84,
      "duration": 0.125,
      "velocity": 100
    },
    {
      "time": 8.5,
      "note": 81,
      "duration": 0.125,
      "velocity": 100
    },
    {
      "time": 8.625,
      "note": 84,
      "duration": 0.125,
      "velocity": 100
    },
    {
      "time": 8.75,
      "note": 81,
      "duration": 0.125,
      "velocity": 100
    },
    {
      "time": 8.875,
      "note": 84,
      "duration": 0.125,
      "velocity": 100
    },
    {
      "time": 9.0,
      "note": 86,
      "duration": 0.25,
      "velocity": 100
    },
    {
      "time": 9.25,
      "note": 83,
      "duration": 0.125,
      "velocity": 100
    },
    {
      "time": 9.375,
      "note": 79,
      "duration": 0.125,
      "velocity": 100
    },
    {
      "time": 9.5,
      "note": 81,
      "duration": 0.125,
      "velocity": 100
    },
    {
      "time": 9.5,
      "note": 77,
      "duration": 0.25,
      "velocity": 100
    },
    {
      "time": 9.75,
      "note": 79,
      "duration": 0.25,
      "velocity": 100
    },
    {
      "time": 10.0,
      "note": 86,
      "duration": 0.25,
      "velocity": 100
    },
    {
      "time": 10.25,
      "note": 86,
      "duration": 0.125,
      "velocity": 100
    },
    {
      "time": 10.375,
      "note": 83,
      "duration": 0.125,
      "velocity": 100
    },
    {
      "time": 10.5,
      "note": 86,
      "duration": 0.125,
      "velocity": 100
    },
    {
      "time": 10.625,
      "note": 83,
      "duration": 0.125,
      "velocity": 100
    },
    {
      "time": 10.75,
      "note": 86,
      "duration": 0.125,
      "velocity": 100
    },
    {
      "time": 10.875,
      "note": 88,
      "duration": 0.125,
      "velocity": 100
    },
    {
      "time": 11.0,
      "note": 84,
      "duration": 0.25,
      "velocity": 100
    },
    {
      "time": 11.25,
      "note": 81,
      "duration": 0.125,
      "velocity": 100
    },
    {
      "time": 11.375,
      "note": 79,
      "duration": 0.125,
      "velocity": 100
    },
    {
      "time": 11.5,
      "note": 81,
      "duration": 0.5,
      "velocity": 100
    },
    {
      "time": 11.5,
      "note": 76,
      "duration": 0.25,
      "velocity": 100
    },
    {
      "time": 11.75,
      "note": 76,
      "duration": 0.25,
      "velocity": 100
    },
    {
      "time": 11.0,
      "note": 84,
      "duration": 0.375,
      "velocity": 100
    },
    {
      "time": 11.375,
      "note": 84,
      "duration": 0.125,
      "velocity": 100
    },
    {
      "time": 11.625,
      "note": 86,
      "duration": 0.125,
      "velocity": 100
    },
    {
      "time": 11.75,
      "note": 84,
      "duration": 0.25,
      "velocity": 100
    },
    {
      "time": 11.0,
      "note": 81,
      "duration": 0.5,
      "velocity": 100
    },
    {
      "time": 11.5,
      "note": 83,
      "duration": 0.125,
      "velocity": 100
    },
    {
      "time": 11.625,
      "note": 86,
      "duration": 0.375,
      "velocity": 100
    },
    {
      "time": 12.375,
      "note": 76,
      "duration": 0.5,
      "velocity": 100
    },
    {
      "time": 12.875,
      "note": 79,
      "duration": 0.5,
      "velocity": 100
    },
    {
      "time": 12.875,
      "note": 86,
      "duration": 0.5,
      "velocity": 100
    },
    {
      "time": 12.375,
      "note": 77,
      "duration": 1.0,
      "velocity": 100
    },
    {
      "time": 13.375,
      "note": 81,
      "duration": 1.0,
      "velocity": 100
    },
    {
      "time": 11.5,
      "note": 88,
      "duration": 0.5,
      "velocity": 100
    },
    {
      "time": 11.5,
      "note": 84,
      "duration": 0.125,
      "velocity": 100
    },
    {
      "time": 11.625,
      "note": 84,
      "duration": 0.25,
      "velocity": 100
    },
    {
      "time": 11.875,
      "note": 84,
      "duration": 0.125,
      "velocity": 100
    },
    {
      "time": 12.125,
      "note": 84,
      "duration": 0.125,
      "velocity": 100
    },
    {
      "time": 12.25,
      "note": 86,
      "duration": 0.125,
      "velocity": 100
    },
    {
      "time": 12.375,
      "note": 84,
      "duration": 0.125,
      "velocity": 100
    },
    {
      "time": 12.5,
      "note": 83,
      "duration": 0.25,
      "velocity": 100
    },
    {
      "time": 12.75,
      "note": 86,
      "duration": 0.25,
      "velocity": 100
    },
    {
      "time": 13.375,
      "note": 76,
      "duration": 0.5,
      "velocity": 100
    },
    {
      "time": 13.875,
      "note": 79,
      "duration": 0.5,
      "velocity": 100
    },
    {
      "time": 13.875,
      "note": 86,
      "duration": 0.5,
      "velocity": 100
    },
    {
      "time": 13.875,
      "note": 86,
      "duration": 0.125,
      "velocity": 100
    },
    {
      "time": 14.0,
      "note": 86,
      "duration": 0.25,
      "velocity": 100
    },
    {
      "time": 14.25,
      "note": 86,
      "duration": 0.125,
      "velocity": 100
    },
    {
      "time": 14.375,
      "note": 86,
      "duration": 0.125,
      "velocity": 100
    },
    {
      "time": 14.5,
      "note": 88,
      "duration": 0.25,
      "velocity": 100
    },
    {
      "time": 14.75,
      "note": 89,
      "duration": 0.125,
      "velocity": 100
    },
    {
      "time": 14.875,
      "note": 88,
      "duration": 0.5,
      "velocity": 100
    },
    {
      "time": 15.75,
      "note": 74,
      "duration": 0.5,
      "velocity": 100
    },
    {
      "time": 16.25,
      "note": 77,
      "duration": 0.5,
      "velocity": 100
    },
    {
      "time": 16.25,
      "note": 84,
      "duration": 0.5,
      "velocity": 100
    },
    {
      "time": 15.75,
      "note": 77,
      "duration": 1.0,
      "velocity": 100
    },
    {
      "time": 14.875,
      "note": 83,
      "duration": 0.25,
      "velocity": 100
    },
    {
      "time": 15.125,
      "note": 86,
      "duration": 0.25,
      "velocity": 100
    },
    {
      "time": 15.75,
      "note": 76,
      "duration": 0.5,
      "velocity": 100
    },
    {
      "time": 16.25,
      "note": 79,
      "duration": 0.5,
      "velocity": 100
    },
    {
      "time": 16.25,
      "note": 86,
      "duration": 0.5,
      "velocity": 100
    },
    {
      "time": 14.875,
      "note": 88,
      "duration": 0.25,
      "velocity": 100
    },
    {
      "time": 15.125,
      "note": 88,
      "duration": 0.25,
      "velocity": 100
    },
    {
      "time": 15.75,
      "note": 74,
      "duration": 0.5,
      "velocity": 100
    },
    {
      "time": 16.25,
      "note": 77,
      "duration": 0.5,
      "velocity": 100
    },
    {
      "time": 16.25,
      "note": 84,
      "duration": 0.5,
      "velocity": 100
    },
    {
      "time": 15.75,
      "note": 77,
      "duration": 1.0,
      "velocity": 100
    },
    {
      "time": 16.75,
      "note": 84,
      "duration": 0.125,
      "velocity": 100
    },
    {
      "time": 16.875,
      "note": 84,
      "duration": 0.25,
      "velocity": 100
    },
    {
      "time": 17.125,
      "note": 84,
      "duration": 0.125,
      "velocity": 100
    },
    {
      "time": 17.25,
      "note": 84,
      "duration": 0.125,
      "velocity": 100
    },
    {
      "time": 17.375,
      "note": 84,
      "duration": 0.25,
      "velocity": 100
    },
    {
      "time": 17.625,
      "note": 86,
      "duration": 0.125,
      "velocity": 100
    },
    {
      "time": 17.75,
      "note": 86,
      "duration": 0.125,
      "velocity": 100
    },
    {
      "time": 17.875,
      "note": 86,
      "duration": 0.25,
      "velocity": 100
    },
    {
      "time": 18.125,
      "note": 86,
      "duration": 0.125,
      "velocity": 100
    },
    {
      "time": 18.25,
      "note": 86,
      "duration": 0.125,
      "velocity": 100
    },
    {
      "time": 18.375,
      "note": 86,
      "duration": 0.25,
      "velocity": 100
    },
    {
      "time": 18.625,
      "note": 86,
      "duration": 0.125,
      "velocity": 100
    },
    {
      "time": 18.75,
      "note": 86,
      "duration": 0.125,
      "velocity": 100
    },
    {
      "time": 18.875,
      "note": 86,
      "duration": 0.25,
      "velocity": 100
    },
    {
      "time": 19.125,
      "note": 86,
      "duration": 0.125,
      "velocity": 100
    },
    {
      "time": 19.25,
      "note": 86,
      "duration": 0.125,
      "velocity": 100
    },
    {
      "time": 19.375,
      "note": 83,
      "duration": 0.125,
      "velocity": 100
    },
    {
      "time": 19.5,
      "note": 79,
      "duration": 0.25,
      "velocity": 100
    },
    {
      "time": 19.75,
      "note": 83,
      "duration": 0.25,
      "velocity": 100
    },
    {
      "time": 20.0,
      "note": 81,
      "duration": 0.25,
      "velocity": 100
    },
    {
      "time": 20.25,
      "note": 81,
      "duration": 0.25,
      "velocity": 100
    },
    {
      "time": 20.625,
      "note": 81,
      "duration": 0.125,
      "velocity": 100
    },
    {
      "time": 20.75,
      "note": 81,
      "duration": 0.25,
      "velocity": 100
    },
    {
      "time": 21.0,
      "note": 88,
      "duration": 0.5,
      "velocity": 100
    },
    {
      "time": 21.5,
      "note": 81,
      "duration": 0.125,
      "velocity": 100
    },
    {
      "time": 21.625,
      "note": 81,
      "duration": 0.125,
      "velocity": 100
    },
    {
      "time": 21.75,
      "note": 79,
      "duration": 0.25,
      "velocity": 100
    },
    {
      "time": 22.0,
      "note": 86,
      "duration": 0.25,
      "velocity": 100
    },
    {
      "time": 22.625,
      "note": 76,
      "duration": 0.5,
      "velocity": 100
    },
    {
      "time": 23.125,
      "note": 79,
      "duration": 0.5,
      "velocity": 100
    },
    {
      "time": 23.125,
      "note": 86,
      "duration": 0.5,
      "velocity": 100
    },
    {
      "time": 23.125,
      "note": 86,
      "duration": 0.125,
      "velocity": 100
    },
    {
      "time": 23.25,
      "note": 86,
      "duration": 0.125,
      "velocity": 100
    },
    {
      "time": 23.375,
      "note": 86,
      "duration": 0.25,
      "velocity": 100
    },
    {
      "time": 23.625,
      "note": 86,
      "duration": 0.125,
      "velocity": 100
    },
    {
      "time": 23.75,
      "note": 88,
      "duration": 0.25,
      "velocity": 100
    },
    {
      "time": 24.0,
      "note": 89,
      "duration": 0.125,
      "velocity": 100
    },
    {
      "time": 24.125,
      "note": 88,
      "duration": 0.25,
      "velocity": 100
    },
    {
      "time": 24.375,
      "note": 88,
      "duration": 0.25,
      "velocity": 100
    },
    {
      "time": 24.875,
      "note": 81,
      "duration": 0.25,
      "velocity": 100
    },
    {
      "time": 25.125,
      "note": 81,
      "duration": 0.125,
      "velocity": 100
    },
    {
      "time": 25.25,
      "note": 88,
      "duration": 0.375,
      "velocity": 100
    },
    {
      "time": 25.75,
      "note": 81,
      "duration": 0.125,
      "velocity": 100
    },
    {
      "time": 25.875,
      "note": 81,
      "duration": 0.25,
      "velocity": 100
    },
    {
      "time": 26.125,
      "note": 79,
      "duration": 0.125,
      "velocity": 100
    },
    {
      "time": 26.25,
      "note": 86,
      "duration": 0.375,
      "velocity": 100
    },
    {
      "time": 27.0,
      "note": 76,
      "duration": 0.5,
      "velocity": 100
    },
    {
      "time": 27.5,
      "note": 79,
      "duration": 0.5,
      "velocity": 100
    },
    {
      "time": 27.5,
      "note": 86,
      "duration": 0.5,
      "velocity": 100
    },
    {
      "time": 27.0,
      "note": 77,
      "duration": 1.0,
      "velocity": 100
    },
    {
      "time": 28.0,
      "note": 81,
      "duration": 1.0,
      "velocity": 100
    },
    {
      "time": 26.125,
      "note": 76,
      "duration": 0.25,
      "velocity": 100
    },
    {
      "time": 26.375,
      "note": 74,
      "duration": 0.125,
      "velocity": 100
    },
    {
      "time": 26.5,
      "note": 76,
      "duration": 0.125,
      "velocity": 100
    },
    {
      "time": 26.625,
      "note": 76,
      "duration": 0.5,
      "velocity": 100
    },
    {
      "time": 26.5,
      "note": 81,
      "duration": 0.375,
      "velocity": 100
    },
    {
      "time": 26.875,
      "note": 84,
      "duration": 0.125,
      "velocity": 100
    },
    {
      "time": 27.0,
      "note": 81,
      "duration": 0.125,
      "velocity": 100
    },
    {
      "time": 27.125,
      "note": 84,
      "duration": 0.125,
      "velocity": 100
    },
    {
      "time": 27.25,
      "note": 81,
      "duration": 0.125,
      "velocity": 100
    },
    {
      "time": 27.375,
      "note": 84,
      "duration": 0.125,
      "velocity": 100
    },
    {
      "time": 27.5,
      "note": 83,
      "duration": 0.25,
      "velocity": 100
    },
    {
      "time": 27.75,
      "note": 79,
      "duration": 0.125,
      "velocity": 100
    },
    {
      "time": 27.875,
      "note": 74,
      "duration": 0.125,
      "velocity": 100
    },
    {
      "time": 28.375,
      "note": 74,
      "duration": 0.125,
      "velocity": 100
    },
    {
      "time": 28.5,
      "note": 79,
      "duration": 0.375,
      "velocity": 100
    },
    {
      "time": 28.875,
      "note": 83,
      "duration": 0.125,
      "velocity": 100
    },
    {
      "time": 29.0,
      "note": 79,
      "duration": 0.125,
      "velocity": 100
    },
    {
      "time": 29.125,
      "note": 83,
      "duration": 0.125,
      "velocity": 100
    },
    {
      "time": 29.25,
      "note": 79,
      "duration": 0.125,
      "velocity": 100
    },
    {
      "time": 29.375,
      "note": 83,
      "duration": 0.125,
      "velocity": 100
    },
    {
      "time": 29.5,
      "note": 84,
      "duration": 0.25,
      "velocity": 100
    },
    {
      "time": 29.75,
      "note": 81,
      "duration": 0.125,
      "velocity": 100
    },
    {
      "time": 29.875,
      "note": 76,
      "duration": 0.125,
      "velocity": 100
    },
    {
      "time": 30.375,
      "note": 76,
      "duration": 0.125,
      "velocity": 100
    },
    {
      "time": 30.5,
      "note": 81,
      "duration": 0.375,
      "velocity": 100
    },
    {
      "time": 30.875,
      "note": 84,
      "duration": 0.125,
      "velocity": 100
    },
    {
      "time": 31.0,
      "note": 81,
      "duration": 0.125,
      "velocity": 100
    },
    {
      "time": 31.125,
      "note": 84,
      "duration": 0.125,
      "velocity": 100
    },
    {
      "time": 31.25,
      "note": 81,
      "duration": 0.125,
      "velocity": 100
    },
    {
      "time": 31.375,
      "note": 84,
      "duration": 0.125,
      "velocity": 100
    },
    {
      "time": 31.5,
      "note": 83,
      "duration": 0.25,
      "velocity": 100
    },
    {
      "time": 31.75,
      "note": 79,
      "duration": 0.125,
      "velocity": 100
    },
    {
      "time": 31.875,
      "note": 74,
      "duration": 0.125,
      "velocity": 100
    },
    {
      "time": 32.375,
      "note": 74,
      "duration": 0.125,
      "velocity": 100
    },
    {
      "time": 32.5,
      "note": 79,
      "duration": 0.25,
      "velocity": 100
    },
    {
      "time": 32.75,
      "note": 79,
      "duration": 0.125,
      "velocity": 100
    },
    {
      "time": 32.875,
      "note": 83,
      "duration": 0.125,
      "velocity": 100
    },
    {
      "time": 33.0,
      "note": 79,
      "duration": 0.125,
      "velocity": 100
    },
    {
      "time": 33.125,
      "note": 83,
      "duration": 0.125,
      "velocity": 100
    },
    {
      "time": 33.25,
      "note": 79,
      "duration": 0.125,
      "velocity": 100
    },
    {
      "time": 33.375,
      "note": 83,
      "duration": 0.125,
      "velocity": 100
    },
    {
      "time": 33.625,
      "note": 84,
      "duration": 0.125,
      "velocity": 100
    },
    {
      "time": 33.75,
      "note": 88,
      "duration": 0.125,
      "velocity": 100
    },
    {
      "time": 33.75,
      "note": 81,
      "duration": 0.25,
      "velocity": 100
    },
    {
      "time": 34.0,
      "note": 91,
      "duration": 0.25,
      "velocity": 100
    },
    {
      "time": 34.0,
      "note": 81,
      "duration": 0.5,
      "velocity": 100
    },
    {
      "time": 34.5,
      "note": 84,
      "duration": 0.5,
      "velocity": 100
    },
    {
      "time": 34.5,
      "note": 88,
      "duration": 0.5,
      "velocity": 100
    },
    {
      "time": 34.5,
      "note": 91,
      "duration": 0.5,
      "velocity": 100
    }
  ],
  "chords": [
    {
      "time": 0.0,
      "notes": [
        69,
        72,
        76,
        79
      ],
      "duration": 1.2321428571428572
    },
    {
      "time": 1.2321428571428572,
      "notes": [
        67,
        71,
        74
      ],
      "duration": 1.2321428571428572
    },
    {
      "time": 2.4642857142857144,
      "notes": [
        69,
        72,
        76,
        79
      ],
      "duration": 1.2321428571428572
    },
    {
      "time": 3.6964285714285716,
      "notes": [
        69,
        72,
        76,
        79
      ],
      "duration": 1.2321428571428572
    },
    {
      "time": 4.928571428571429,
      "notes": [
        67,
        71,
        74
      ],
      "duration": 1.2321428571428572
    },
    {
      "time": 6.1607142857142865,
      "notes": [
        69,
        72,
        76,
        79
      ],
      "duration": 1.2321428571428572
    },
    {
      "time": 7.392857142857143,
      "notes": [
        69,
        72,
        76,
        79
      ],
      "duration": 1.2321428571428572
    },
    {
      "time": 8.625,
      "notes": [
        67,
        71,
        74
      ],
      "duration": 1.2321428571428572
    },
    {
      "time": 9.857142857142858,
      "notes": [
        69,
        72,
        76,
        79
      ],
      "duration": 1.2321428571428572
    },
    {
      "time": 11.089285714285715,
      "notes": [
        67,
        71,
        74
      ],
      "duration": 1.2321428571428572
    },
    {
      "time": 12.321428571428573,
      "notes": [
        69,
        72,
        76,
        79
      ],
      "duration": 1.2321428571428572
    },
    {
      "time": 13.553571428571429,
      "notes": [
        69,
        72,
        76
      ],
      "duration": 1.2321428571428572
    },
    {
      "time": 14.785714285714286,
      "notes": [
        67,
        71,
        74,
        77
      ],
      "duration": 1.2321428571428572
    },
    {
      "time": 16.017857142857142,
      "notes": [
        69,
        72,
        76
      ],
      "duration": 1.2321428571428572
    },
    {
      "time": 17.25,
      "notes": [
        67,
        71,
        74,
        77
      ],
      "duration": 1.2321428571428572
    },
    {
      "time": 18.482142857142858,
      "notes": [
        69,
        72,
        76
      ],
      "duration": 1.2321428571428572
    },
    {
      "time": 19.714285714285715,
      "notes": [
        67,
        71,
        74,
        77
      ],
      "duration": 1.2321428571428572
    },
    {
      "time": 20.946428571428573,
      "notes": [
        69,
        72,
        76
      ],
      "duration": 1.2321428571428572
    },
    {
      "time": 22.17857142857143,
      "notes": [
        67,
        71,
        74,
        77
      ],
      "duration": 1.2321428571428572
    },
    {
      "time": 23.41071428571429,
      "notes": [
        69,
        72,
        76
      ],
      "duration": 1.2321428571428572
    },
    {
      "time": 24.642857142857146,
      "notes": [
        67,
        71,
        74,
        77
      ],
      "duration": 1.2321428571428572
    },
    {
      "time": 25.875,
      "notes": [
        69,
        72,
        76
      ],
      "duration": 1.2321428571428572
    },
    {
      "time": 27.107142857142858,
      "notes": [
        67,
        71,
        74,
        77
      ],
      "duration": 1.2321428571428572
    },
    {
      "time": 28.339285714285715,
      "notes": [
        69,
        72,
        76
      ],
      "duration": 1.2321428571428572
    },
    {
      "time": 29.571428571428573,
      "notes": [
        67,
        71,
        74,
        77
      ],
      "duration": 1.2321428571428572
    },
    {
      "time": 30.80357142857143,
      "notes": [
        69,
        72,
        76
      ],
      "duration": 1.2321428571428572
    },
    {
      "time": 32.035714285714285,
      "notes": [
        67,
        71,
        74,
        77
      ],
      "duration": 1.2321428571428572
    },
    {
      "time": 33.267857142857146,
      "notes": [
        69,
        72,
        76
      ],
      "duration": 1.2321428571428572
    }
  ]
}