{
  "title": "Amame suavecito",
  "artist": "Gilda",
  "bpm": 120,
  "duration": 38.5,
  "audioFile": "",
  "notes": [
    {
      "time": 0.0,
      "note": 69,
      "duration": 0.125,
      "velocity": 100
    },
    {
      "time": 0.125,
      "note": 76,
      "duration": 0.125,
      "velocity": 100
    },
    {
      "time": 0.25,
      "note": 76,
      "duration": 0.125,
      "velocity": 100
    },
    {
      "time": 0.375,
      "note": 76,
      "duration": 0.125,
      "velocity": 100
    },
    {
      "time": 0.5,
      "note": 76,
      "duration": 0.25,
      "velocity": 100
    },
    {
      "time": 0.75,
      "note": 76,
      "duration": 0.125,
      "velocity": 100
    },
    {
      "time": 0.875,
      "note": 74,
      "duration": 0.125,
      "velocity": 100
    },
    {
      "time": 1.0,
      "note": 74,
      "duration": 0.125,
      "velocity": 100
    },
    {
      "time": 1.125,
      "note": 79,
      "duration": 0.125,
      "velocity": 100
    },
    {
      "time": 1.25,
      "note": 79,
      "duration": 0.125,
      "velocity": 100
    },
    {
      "time": 1.375,
      "note": 79,
      "duration": 0.125,
      "velocity": 100
    },
    {
      "time": 1.5,
      "note": 81,
      "duration": 0.125,
      "velocity": 100
    },
    {
      "time": 1.625,
      "note": 79,
      "duration": 0.125,
      "velocity": 100
    },
    {
      "time": 1.75,
      "note": 81,
      "duration": 0.125,
      "velocity": 100
    },
    {
      "time": 1.875,
      "note": 79,
      "duration": 0.125,
      "velocity": 100
    },
    {
      "time": 2.0,
      "note": 69,
      "duration": 0.125,
      "velocity": 100
    },
    {
      "time": 2.125,
      "note": 76,
      "duration": 0.125,
      "velocity": 100
    },
    {
      "time": 2.25,
      "note": 76,
      "duration": 0.125,
      "velocity": 100
    },
    {
      "time": 2.375,
      "note": 76,
      "duration": 0.125,
      "velocity": 100
    },
    {
      "time": 2.5,
      "note": 76,
      "duration": 0.25,
      "velocity": 100
    },
    {
      "time": 2.75,
      "note": 76,
      "duration": 0.125,
      "velocity": 100
    },
    {
      "time": 2.875,
      "note": 74,
      "duration": 0.125,
      "velocity": 100
    },
    {
      "time": 3.0,
      "note": 74,
      "duration": 1.0,
      "velocity": 100
    },
    {
      "time": 4.0,
      "note": 84,
      "duration": 0.125,
      "velocity": 100
    },
    {
      "time": 4.125,
      "note": 83,
      "duration": 0.125,
      "velocity": 100
    },
    {
      "time": 4.25,
      "note": 81,
      "duration": 0.125,
      "velocity": 100
    },
    {
      "time": 4.375,
      "note": 83,
      "duration": 0.125,
      "velocity": 100
    },
    {
      "time": 4.5,
      "note": 84,
      "duration": 0.25,
      "velocity": 100
    },
    {
      "time": 4.75,
      "note": 81,
      "duration": 0.125,
      "velocity": 100
    },
    {
      "time": 4.875,
      "note": 83,
      "duration": 0.125,
      "velocity": 100
    },
    {
      "time": 5.125,
      "note": 81,
      "duration": 0.125,
      "velocity": 100
    },
    {
      "time": 5.25,
      "note": 79,
      "duration": 0.125,
      "velocity": 100
    },
    {
      "time": 5.375,
      "note": 81,
      "duration": 0.125,
      "velocity": 100
    },
    {
      "time": 5.5,
      "note": 83,
      "duration": 0.5,
      "velocity": 100
    },
    {
      "time": 6.0,
      "note": 84,
      "duration": 0.125,
      "velocity": 100
    },
    {
      "time": 6.125,
      "note": 83,
      "duration": 0.125,
      "velocity": 100
    },
    {
      "time": 6.25,
      "note": 81,
      "duration": 0.125,
      "velocity": 100
    },
    {
      "time": 6.375,
      "note": 83,
      "duration": 0.125,
      "velocity": 100
    },
    {
      "time": 6.5,
      "note": 84,
      "duration": 0.25,
      "velocity": 100
    },
    {
      "time": 6.75,
      "note": 81,
      "duration": 0.125,
      "velocity": 100
    },
    {
      "time": 6.875,
      "note": 83,
      "duration": 0.125,
      "velocity": 100
    },
    {
      "time": 7.0,
      "note": 83,
      "duration": 0.5,
      "velocity": 100
    },
    {
      "time": 7.5,
      "note": 76,
      "duration": 0.25,
      "velocity": 100
    },
    {
      "time": 7.75,
      "note": 83,
      "duration": 0.25,
      "velocity": 100
    },
    {
      "time": 8.125,
      "note": 79,
      "duration": 0.5,
      "velocity": 100
    },
    {
      "time": 8.625,
      "note": 83,
      "duration": 0.5,
      "velocity": 100
    },
    {
      "time": 8.625,
      "note": 79,
      "duration": 0.5,
      "velocity": 100
    },
    {
      "time": 9.125,
      "note": 83,
      "duration": 0.5,
      "velocity": 100
    },
    {
      "time": 8.375,
      "note": 81,
      "duration": 0.125,
      "velocity": 100
    },
    {
      "time": 8.5,
      "note": 88,
      "duration": 0.125,
      "velocity": 100
    },
    {
      "time": 8.625,
      "note": 88,
      "duration": 0.125,
      "velocity": 100
    },
    {
      "time": 8.75,
      "note": 88,
      "duration": 0.125,
      "velocity": 100
    },
    {
      "time": 8.875,
      "note": 88,
      "duration": 0.5,
      "velocity": 100
    },
    {
      "time": 9.375,
      "note": 86,
      "duration": 0.125,
      "velocity": 100
    },
    {
      "time": 9.5,
      "note": 91,
      "duration": 0.125,
      "velocity": 100
    },
    {
      "time": 9.625,
      "note": 91,
      "duration": 0.125,
      "velocity": 100
    },
    {
      "time": 9.75,
      "note": 91,
      "duration": 0.125,
      "velocity": 100
    },
    {
      "time": 9.875,
      "note": 91,
      "duration": 0.5,
      "velocity": 100
    },
    {
      "time": 10.375,
      "note": 81,
      "duration": 0.125,
      "velocity": 100
    },
    {
      "time": 10.5,
      "note": 88,
      "duration": 0.125,
      "velocity": 100
    },
    {
      "time": 10.625,
      "note": 88,
      "duration": 0.125,
      "velocity": 100
    },
    {
      "time": 10.75,
      "note": 88,
      "duration": 0.125,
      "velocity": 100
    },
    {
      "time": 10.875,
      "note": 88,
      "duration": 0.5,
      "velocity": 100
    },
    {
      "time": 11.375,
      "note": 88,
      "duration": 0.25,
      "velocity": 100
    },
    {
      "time": 11.625,
      "note": 86,
      "duration": 0.25,
      "velocity": 100
    },
    {
      "time": 11.875,
      "note": 81,
      "duration": 0.125,
      "velocity": 100
    },
    {
      "time": 12.0,
      "note": 88,
      "duration": 0.125,
      "velocity": 100
    },
    {
      "time": 12.125,
      "note": 88,
      "duration": 0.125,
      "velocity": 100
    },
    {
      "time": 12.25,
      "note": 88,
      "duration": 0.125,
      "velocity": 100
    },
    {
      "time": 12.375,
      "note": 88,
      "duration": 0.5,
      "velocity": 100
    },
    {
      "time": 12.875,
      "note": 86,
      "duration": 0.125,
      "velocity": 100
    },
    {
      "time": 13.0,
      "note": 91,
      "duration": 0.125,
      "velocity": 100
    },
    {
      "time": 13.125,
      "note": 91,
      "duration": 0.125,
      "velocity": 100
    },
    {
      "time": 13.25,
      "note": 91,
      "duration": 0.125,
      "velocity": 100
    },
    {
      "time": 13.375,
      "note": 91,
      "duration": 0.5,
      "velocity": 100
    },
    {
      "time": 13.875,
      "note": 81,
      "duration": 0.125,
      "velocity": 100
    },
    {
      "time": 14.0,
      "note": 88,
      "duration": 0.125,
      "velocity": 100
    },
    {
      "time": 14.125,
      "note": 88,
      "duration": 0.125,
      "velocity": 100
    },
    {
      "time": 14.25,
      "note": 88,
      "duration": 0.125,
      "velocity": 100
    },
    {
      "time": 14.375,
      "note": 88,
      "duration": 0.5,
      "velocity": 100
    },
    {
      "time": 14.875,
      "note": 88,
      "duration": 0.25,
      "velocity": 100
    },
    {
      "time": 15.125,
      "note": 86,
      "duration": 0.25,
      "velocity": 100
    },
    {
      "time": 15.875,
      "note": 89,
      "duration": 0.125,
      "velocity": 100
    },
    {
      "time": 16.0,
      "note": 89,
      "duration": 0.125,
      "velocity": 100
    },
    {
      "time": 16.125,
      "note": 89,
      "duration": 0.125,
      "velocity": 100
    },
    {
      "time": 16.25,
      "note": 89,
      "duration": 0.125,
      "velocity": 100
    },
    {
      "time": 16.375,
      "note": 91,
      "duration": 0.25,
      "velocity": 100
    },
    {
      "time": 16.625,
      "note": 89,
      "duration": 0.125,
      "velocity": 100
    },
    {
      "time": 16.75,
      "note": 88,
      "duration": 0.125,
      "velocity": 100
    },
    {
      "time": 16.875,
      "note": 88,
      "duration": 0.125,
      "velocity": 100
    },
    {
      "time": 17.0,
      "note": 84,
      "duration": 0.25,
      "velocity": 100
    },
    {
      "time": 17.25,
      "note": 86,
      "duration": 0.125,
      "velocity": 100
    },
    {
      "time": 17.375,
      "note": 88,
      "duration": 0.25,
      "velocity": 100
    },
    {
      "time": 17.625,
      "note": 88,
      "duration": 0.25,
      "velocity": 100
    },
    {
      "time": 17.875,
      "note": 88,
      "duration": 0.125,
      "velocity": 100
    },
    {
      "time": 18.0,
      "note": 88,
      "duration": 0.125,
      "velocity": 100
    },
    {
      "time": 18.125,
      "note": 88,
      "duration": 0.125,
      "velocity": 100
    },
    {
      "time": 18.25,
      "note": 88,
      "duration": 0.125,
      "velocity": 100
    },
    {
      "time": 18.375,
      "note": 86,
      "duration": 0.25,
      "velocity": 100
    },
    {
      "time": 18.625,
      "note": 88,
      "duration": 0.25,
      "velocity": 100
    },
    {
      "time": 18.875,
      "note": 86,
      "duration": 0.125,
      "velocity": 100
    },
    {
      "time": 19.0,
      "note": 84,
      "duration": 0.125,
      "velocity": 100
    },
    {
      "time": 19.125,
      "note": 81,
      "duration": 0.75,
      "velocity": 100
    },
    {
      "time": 19.875,
      "note": 89,
      "duration": 0.125,
      "velocity": 100
    },
    {
      "time": 20.0,
      "note": 89,
      "duration": 0.125,
      "velocity": 100
    },
    {
      "time": 20.125,
      "note": 89,
      "duration": 0.125,
      "velocity": 100
    },
    {
      "time": 20.25,
      "note": 89,
      "duration": 0.125,
      "velocity": 100
    },
    {
      "time": 20.375,
      "note": 91,
      "duration": 0.25,
      "velocity": 100
    },
    {
      "time": 20.625,
      "note": 89,
      "duration": 0.125,
      "velocity": 100
    },
    {
      "time": 20.75,
      "note": 88,
      "duration": 0.125,
      "velocity": 100
    },
    {
      "time": 20.875,
      "note": 88,
      "duration": 0.125,
      "velocity": 100
    },
    {
      "time": 21.0,
      "note": 84,
      "duration": 0.25,
      "velocity": 100
    },
    {
      "time": 21.25,
      "note": 86,
      "duration": 0.125,
      "velocity": 100
    },
    {
      "time": 21.375,
      "note": 88,
      "duration": 0.25,
      "velocity": 100
    },
    {
      "time": 21.625,
      "note": 88,
      "duration": 0.25,
      "velocity": 100
    },
    {
      "time": 21.875,
      "note": 88,
      "duration": 0.125,
      "velocity": 100
    },
    {
      "time": 22.0,
      "note": 88,
      "duration": 0.125,
      "velocity": 100
    },
    {
      "time": 22.125,
      "note": 88,
      "duration": 0.125,
      "velocity": 100
    },
    {
      "time": 22.25,
      "note": 88,
      "duration": 0.125,
      "velocity": 100
    },
    {
      "time": 22.375,
      "note": 86,
      "duration": 0.25,
      "velocity": 100
    },
    {
      "time": 22.625,
      "note": 88,
      "duration": 0.25,
      "velocity": 100
    },
    {
      "time": 22.25,
      "note": 86,
      "duration": 0.125,
      "velocity": 100
    },
    {
      "time": 22.375,
      "note": 84,
      "duration": 0.125,
      "velocity": 100
    },
    {
      "time": 22.5,
      "note": 81,
      "duration": 0.75,
      "velocity": 100
    },
    {
      "time": 23.25,
      "note": 74,
      "duration": 0.5,
      "velocity": 100
    },
    {
      "time": 23.75,
      "note": 77,
      "duration": 0.5,
      "velocity": 100
    },
    {
      "time": 23.75,
      "note": 91,
      "duration": 0.5,
      "velocity": 100
    },
    {
      "time": 23.75,
      "note": 76,
      "duration": 0.25,
      "velocity": 100
    },
    {
      "time": 24.0,
      "note": 84,
      "duration": 0.25,
      "velocity": 100
    },
    {
      "time": 24.0,
      "note": 76,
      "duration": 0.25,
      "velocity": 100
    },
    {
      "time": 24.25,
      "note": 84,
      "duration": 0.25,
      "velocity": 100
    },
    {
      "time": 24.75,
      "note": 81,
      "duration": 0.25,
      "velocity": 100
    },
    {
      "time": 25.0,
      "note": 76,
      "duration": 0.25,
      "velocity": 100
    },
    {
      "time": 25.25,
      "note": 79,
      "duration": 1.0,
      "velocity": 100
    },
    {
      "time": 26.25,
      "note": 79,
      "duration": 1.0,
      "velocity": 100
    },
    {
      "time": 27.5,
      "note": 88,
      "duration": 0.125,
      "velocity": 100
    },
    {
      "time": 27.625,
      "note": 88,
      "duration": 0.125,
      "velocity": 100
    },
    {
      "time": 27.75,
      "note": 88,
      "duration": 0.25,
      "velocity": 100
    },
    {
      "time": 28.5,
      "note": 88,
      "duration": 0.125,
      "velocity": 100
    },
    {
      "time": 28.625,
      "note": 88,
      "duration": 0.125,
      "velocity": 100
    },
    {
      "time": 28.75,
      "note": 88,
      "duration": 0.25,
      "velocity": 100
    },
    {
      "time": 29.0,
      "note": 89,
      "duration": 0.25,
      "velocity": 100
    },
    {
      "time": 29.25,
      "note": 88,
      "duration": 0.25,
      "velocity": 100
    },
    {
      "time": 29.5,
      "note": 91,
      "duration": 0.375,
      "velocity": 100
    },
    {
      "time": 29.875,
      "note": 91,
      "duration": 0.125,
      "velocity": 100
    },
    {
      "time": 30.0,
      "note": 91,
      "duration": 0.5,
      "velocity": 100
    },
    {
      "time": 30.5,
      "note": 91,
      "duration": 0.125,
      "velocity": 100
    },
    {
      "time": 30.625,
      "note": 91,
      "duration": 0.125,
      "velocity": 100
    },
    {
      "time": 30.75,
      "note": 91,
      "duration": 0.25,
      "velocity": 100
    },
    {
      "time": 31.0,
      "note": 89,
      "duration": 0.25,
      "velocity": 100
    },
    {
      "time": 31.25,
      "note": 91,
      "duration": 0.25,
      "velocity": 100
    },
    {
      "time": 31.5,
      "note": 89,
      "duration": 0.375,
      "velocity": 100
    },
    {
      "time": 31.875,
      "note": 88,
      "duration": 0.125,
      "velocity": 100
    },
    {
      "time": 32.0,
      "note": 88,
      "duration": 0.5,
      "velocity": 100
    },
    {
      "time": 32.5,
      "note": 88,
      "duration": 0.125,
      "velocity": 100
    },
    {
      "time": 32.625,
      "note": 88,
      "duration": 0.125,
      "velocity": 100
    },
    {
      "time": 32.75,
      "note": 88,
      "duration": 0.25,
      "velocity": 100
    },
    {
      "time": 33.0,
      "note": 89,
      "duration": 0.25,
      "velocity": 100
    },
    {
      "time": 33.25,
      "note": 88,
      "duration": 0.125,
      "velocity": 100
    },
    {
      "time": 33.375,
      "note": 86,
      "duration": 0.125,
      "velocity": 100
    },
    {
      "time": 33.5,
      "note": 86,
      "duration": 0.125,
      "velocity": 100
    },
    {
      "time": 33.625,
      "note": 91,
      "duration": 0.125,
      "velocity": 100
    },
    {
      "time": 33.75,
      "note": 91,
      "duration": 0.125,
      "velocity": 100
    },
    {
      "time": 33.875,
      "note": 91,
      "duration": 0.125,
      "velocity": 100
    },
    {
      "time": 34.0,
      "note": 91,
      "duration": 0.25,
      "velocity": 100
    },
    {
      "time": 34.25,
      "note": 91,
      "duration": 0.25,
      "velocity": 100
    },
    {
      "time": 33.875,
      "note": 91,
      "duration": 0.75,
      "velocity": 100
    },
    {
      "time": 35.0,
      "note": 81,
      "duration": 0.25,
      "velocity": 100
    },
    {
      "time": 35.25,
      "note": 84,
      "duration": 0.25,
      "velocity": 100
    },
    {
      "time": 35.25,
      "note": 76,
      "duration": 0.25,
      "velocity": 100
    },
    {
      "time": 35.5,
      "note": 81,
      "duration": 0.25,
      "velocity": 100
    },
    {
      "time": 35.5,
      "note": 76,
      "duration": 0.125,
      "velocity": 100
    },
    {
      "time": 35.625,
      "note": 81,
      "duration": 0.125,
      "velocity": 100
    },
    {
      "time": 35.625,
      "note": 81,
      "duration": 0.125,
      "velocity": 100
    },
    {
      "time": 35.75,
      "note": 84,
      "duration": 0.125,
      "velocity": 100
    },
    {
      "time": 35.75,
      "note": 76,
      "duration": 0.125,
      "velocity": 100
    },
    {
      "time": 35.875,
      "note": 81,
      "duration": 0.125,
      "velocity": 100
    },
    {
      "time": 35.875,
      "note": 81,
      "duration": 0.25,
      "velocity": 100
    },
    {
      "time": 36.125,
      "note": 84,
      "duration": 0.25,
      "velocity": 100
    },
    {
      "time": 36.125,
      "note": 81,
      "duration": 0.25,
      "velocity": 100
    },
    {
      "time": 36.375,
      "note": 84,
      "duration": 0.25,
      "velocity": 100
    },
    {
      "time": 36.375,
      "note": 81,
      "duration": 0.25,
      "velocity": 100
    },
    {
      "time": 36.625,
      "note": 84,
      "duration": 0.25,
      "velocity": 100
    },
    {
      "time": 36.625,
      "note": 81,
      "duration": 0.25,
      "velocity": 100
    },
    {
      "time": 36.875,
      "note": 84,
      "duration": 0.25,
      "velocity": 100
    },
    {
      "time": 35.875,
      "note": 81,
      "duration": 0.25,
      "velocity": 100
    },
    {
      "time": 36.125,
      "note": 84,
      "duration": 0.25,
      "velocity": 100
    },
    {
      "time": 36.125,
      "note": 76,
      "duration": 0.25,
      "velocity": 100
    },
    {
      "time": 36.375,
      "note": 81,
      "duration": 0.25,
      "velocity": 100
    },
    {
      "time": 36.375,
      "note": 76,
      "duration": 0.125,
      "velocity": 100
    },
    {
      "time": 36.5,
      "note": 81,
      "duration": 0.125,
      "velocity": 100
    },
    {
      "time": 36.5,
      "note": 81,
      "duration": 0.125,
      "velocity": 100
    },
    {
      "time": 36.625,
      "note": 84,
      "duration": 0.125,
      "velocity": 100
    },
    {
      "time": 36.625,
      "note": 76,
      "duration": 0.125,
      "velocity": 100
    },
    {
      "time": 36.75,
      "note": 81,
      "duration": 0.125,
      "velocity": 100
    },
    {
      "time": 36.75,
      "note": 81,
      "duration": 0.25,
      "velocity": 100
    },
    {
      "time": 37.0,
      "note": 84,
      "duration": 0.25,
      "velocity": 100
    },
    {
      "time": 37.0,
      "note": 81,
      "duration": 0.25,
      "velocity": 100
    },
    {
      "time": 37.25,
      "note": 84,
      "duration": 0.25,
      "velocity": 100
    },
    {
      "time": 37.25,
      "note": 81,
      "duration": 0.25,
      "velocity": 100
    },
    {
      "time": 37.5,
      "note": 84,
      "duration": 0.25,
      "velocity": 100
    },
    {
      "time": 37.5,
      "note": 81,
      "duration": 0.25,
      "velocity": 100
    },
    {
      "time": 37.75,
      "note": 84,
      "duration": 0.25,
      "velocity": 100
    },
    {
      "time": 36.75,
      "note": 81,
      "duration": 0.25,
      "velocity": 100
    },
    {
      "time": 37.0,
      "note": 84,
      "duration": 0.25,
      "velocity": 100
    },
    {
      "time": 37.0,
      "note": 76,
      "duration": 0.25,
      "velocity": 100
    },
    {
      "time": 37.25,
      "note": 81,
      "duration": 0.25,
      "velocity": 100
    },
    {
      "time": 37.25,
      "note": 76,
      "duration": 0.125,
      "velocity": 100
    },
    {
      "time": 37.375,
      "note": 81,
      "duration": 0.125,
      "velocity": 100
    },
    {
      "time": 37.375,
      "note": 81,
      "duration": 0.125,
      "velocity": 100
    },
    {
      "time": 37.5,
      "note": 84,
      "duration": 0.125,
      "velocity": 100
    },
    {
      "time": 37.5,
      "note": 76,
      "duration": 0.125,
      "velocity": 100
    },
    {
      "time": 37.625,
      "note": 81,
      "duration": 0.125,
      "velocity": 100
    },
    {
      "time": 37.625,
      "note": 81,
      "duration": 0.25,
      "velocity": 100
    },
    {
      "time": 37.875,
      "note": 84,
      "duration": 0.25,
      "velocity": 100
    },
    {
      "time": 37.875,
      "note": 81,
      "duration": 0.25,
      "velocity": 100
    },
    {
      "time": 38.125,
      "note": 84,
      "duration": 0.25,
      "velocity": 100
    },
    {
      "time": 38.125,
      "note": 81,
      "duration": 0.25,
      "velocity": 100
    },
    {
      "time": 38.375,
      "note": 84,
      "duration": 0.25,
      "velocity": 100
    },
    {
      "time": 38.375,
      "note": 81,
      "duration": 0.25,
      "velocity": 100
    },
    {
      "time": 38.625,
      "note": 84,
      "duration": 0.25,
      "velocity": 100
    },
    {
      "time": 37.625,
      "note": 81,
      "duration": 0.125,
      "velocity": 100
    },
    {
      "time": 37.75,
      "note": 84,
      "duration": 0.125,
      "velocity": 100
    },
    {
      "time": 37.75,
      "note": 81,
      "duration": 0.125,
      "velocity": 100
    },
    {
      "time": 37.875,
      "note": 84,
      "duration": 0.125,
      "velocity": 100
    },
    {
      "time": 37.875,
      "note": 81,
      "duration": 0.25,
      "velocity": 100
    },
    {
      "time": 38.125,
      "note": 84,
      "duration": 0.25,
      "velocity": 100
    },
    {
      "time": 38.125,
      "note": 81,
      "duration": 0.125,
      "velocity": 100
    },
    {
      "time": 38.25,
      "note": 84,
      "duration": 0.125,
      "velocity": 100
    },
    {
      "time": 38.25,
      "note": 81,
      "duration": 0.125,
      "velocity": 100
    },
    {
      "time": 38.375,
      "note": 84,
      "duration": 0.125,
      "velocity": 100
    },
    {
      "time": 38.375,
      "note": 81,
      "duration": 0.125,
      "velocity": 100
    },
    {
      "time": 38.5,
      "note": 84,
      "duration": 0.125,
      "velocity": 100
    }
  ],
  "chords": [
    {
      "time": 0.0,
      "notes": [
        69,
        72,
        76
      ],
      "duration": 1.013157894736842
    },
    {
      "time": 1.013157894736842,
      "notes": [
        67,
        71,
        74
      ],
      "duration": 1.013157894736842
    },
    {
      "time": 2.026315789473684,
      "notes": [
        69,
        72,
        76
      ],
      "duration": 1.013157894736842
    },
    {
      "time": 3.039473684210526,
      "notes": [
        67,
        71,
        74
      ],
      "duration": 1.013157894736842
    },
    {
      "time": 4.052631578947368,
      "notes": [
        69,
        72,
        76
      ],
      "duration": 1.013157894736842
    },
    {
      "time": 5.065789473684211,
      "notes": [
        67,
        71,
        74
      ],
      "duration": 1.013157894736842
    },
    {
      "time": 6.078947368421052,
      "notes": [
        69,
        72,
        76
      ],
      "duration": 1.013157894736842
    },
    {
      "time": 7.092105263157894,
      "notes": [
        67,
        71,
        74
      ],
      "duration": 1.013157894736842
    },
    {
      "time": 8.105263157894736,
      "notes": [
        67,
        71,
        74
      ],
      "duration": 1.013157894736842
    },
    {
      "time": 9.118421052631579,
      "notes": [
        64,
        68,
        71,
        74
      ],
      "duration": 1.013157894736842
    },
    {
      "time": 10.131578947368421,
      "notes": [
        69,
        72,
        76
      ],
      "duration": 1.013157894736842
    },
    {
      "time": 11.144736842105262,
      "notes": [
        67,
        71,
        74
      ],
      "duration": 1.013157894736842
    },
    {
      "time": 12.157894736842104,
      "notes": [
        69,
        72,
        76
      ],
      "duration": 1.013157894736842
    },
    {
      "time": 13.171052631578947,
      "notes": [
        67,
        71,
        74
      ],
      "duration": 1.013157894736842
    },
    {
      "time": 14.184210526315788,
      "notes": [
        69,
        72,
        76
      ],
      "duration": 1.013157894736842
    },
    {
      "time": 15.19736842105263,
      "notes": [
        67,
        71,
        74
      ],
      "duration": 1.013157894736842
    },
    {
      "time": 16.210526315789473,
      "notes": [
        69,
        72,
        76
      ],
      "duration": 1.013157894736842
    },
    {
      "time": 17.223684210526315,
      "notes": [
        67,
        71,
        74
      ],
      "duration": 1.013157894736842
    },
    {
      "time": 18.236842105263158,
      "notes": [
        65,
        69,
        72
      ],
      "duration": 1.013157894736842
    },
    {
      "time": 19.25,
      "notes": [
        60,
        64,
        67
      ],
      "duration": 1.013157894736842
    },
    {
      "time": 20.263157894736842,
      "notes": [
        64,
        68,
        71,
        74
      ],
      "duration": 1.013157894736842
    },
    {
      "time": 21.27631578947368,
      "notes": [
        69,
        72,
        76
      ],
      "duration": 1.013157894736842
    },
    {
      "time": 22.289473684210524,
      "notes": [
        65,
        69,
        72
      ],
      "duration": 1.013157894736842
    },
    {
      "time": 23.302631578947366,
      "notes": [
        60,
        64,
        67
      ],
      "duration": 1.013157894736842
    },
    {
      "time": 24.31578947368421,
      "notes": [
        64,
        68,
        71,
        74
      ],
      "duration": 1.013157894736842
    },
    {
      "time": 25.32894736842105,
      "notes": [
        69,
        72,
        76
      ],
      "duration": 1.013157894736842
    },
    {
      "time": 26.342105263157894,
      "notes": [
        67,
        71,
        74,
        77
      ],
      "duration": 1.013157894736842
    },
    {
      "time": 27.355263157894736,
      "notes": [
        60,
        64,
        67
      ],
      "duration": 1.013157894736842
    },
    {
      "time": 28.368421052631575,
      "notes": [
        67,
        71,
        74,
        77
      ],
      "duration": 1.013157894736842
    },
    {
      "time": 29.381578947368418,
      "notes": [
        60,
        64,
        67
      ],
      "duration": 1.013157894736842
    },
    {
      "time": 30.39473684210526,
      "notes": [
        67,
        71,
        74,
        77
      ],
      "duration": 1.013157894736842
    },
    {
      "time": 31.407894736842103,
      "notes": [
        69,
        72,
        76
      ],
      "duration": 1.013157894736842
    },
    {
      "time": 32.421052631578945,
      "notes": [
        67,
        71,
        74
      ],
      "duration": 1.013157894736842
    },
    {
      "time": 33.43421052631579,
      "notes": [
        69,
        72,
        76
      ],
      "duration": 1.013157894736842
    },
    {
      "time": 34.44736842105263,
      "notes": [
        67,
        71,
        74
      ],
      "duration": 1.013157894736842
    },
    {
      "time": 35.46052631578947,
      "notes": [
        69,
        72,
        76
      ],
      "duration": 1.013157894736842
    },
    {
      "time": 36.473684210526315,
      "notes": [
        67,
        71,
        74
      ],
      "duration": 1.013157894736842
    },
    {
      "time": 37.48684210526316,
      "notes": [
        69,
        72,
        76
      ],
      "duration": 1.013157894736842
    }
  ]
}