{
  "title": "Yo me llamo Cumbia",
  "artist": "Mario Garena",
  "bpm": 120,
  "duration": 54.375,
  "audioFile": "",
  "notes": [
    {
      "time": 0.125,
      "note": 88,
      "duration": 0.25,
      "velocity": 100
    },
    {
      "time": 0.375,
      "note": 88,
      "duration": 0.125,
      "velocity": 100
    },
    {
      "time": 0.5,
      "note": 93,
      "duration": 0.25,
      "velocity": 100
    },
    {
      "time": 0.75,
      "note": 88,
      "duration": 0.125,
      "velocity": 100
    },
    {
      "time": 0.875,
      "note": 93,
      "duration": 0.125,
      "velocity": 100
    },
    {
      "time": 1.0,
      "note": 91,
      "duration": 0.375,
      "velocity": 100
    },
    {
      "time": 1.375,
      "note": 88,
      "duration": 0.125,
      "velocity": 100
    },
    {
      "time": 1.5,
      "note": 88,
      "duration": 0.125,
      "velocity": 100
    },
    {
      "time": 1.625,
      "note": 86,
      "duration": 0.125,
      "velocity": 100
    },
    {
      "time": 1.75,
      "note": 83,
      "duration": 0.25,
      "velocity": 100
    },
    {
      "time": 2.125,
      "note": 88,
      "duration": 0.25,
      "velocity": 100
    },
    {
      "time": 2.375,
      "note": 88,
      "duration": 0.125,
      "velocity": 100
    },
    {
      "time": 2.5,
      "note": 95,
      "duration": 0.25,
      "velocity": 100
    },
    {
      "time": 2.75,
      "note": 88,
      "duration": 0.125,
      "velocity": 100
    },
    {
      "time": 2.875,
      "note": 95,
      "duration": 0.125,
      "velocity": 100
    },
    {
      "time": 3.0,
      "note": 93,
      "duration": 0.375,
      "velocity": 100
    },
    {
      "time": 3.375,
      "note": 88,
      "duration": 0.125,
      "velocity": 100
    },
    {
      "time": 3.5,
      "note": 88,
      "duration": 0.125,
      "velocity": 100
    },
    {
      "time": 3.625,
      "note": 84,
      "duration": 0.125,
      "velocity": 100
    },
    {
      "time": 3.75,
      "note": 81,
      "duration": 0.25,
      "velocity": 100
    },
    {
      "time": 4.125,
      "note": 88,
      "duration": 0.25,
      "velocity": 100
    },
    {
      "time": 4.375,
      "note": 88,
      "duration": 0.125,
      "velocity": 100
    },
    {
      "time": 4.5,
      "note": 93,
      "duration": 0.25,
      "velocity": 100
    },
    {
      "time": 4.75,
      "note": 88,
      "duration": 0.125,
      "velocity": 100
    },
    {
      "time": 4.875,
      "note": 93,
      "duration": 0.125,
      "velocity": 100
    },
    {
      "time": 5.0,
      "note": 91,
      "duration": 0.375,
      "velocity": 100
    },
    {
      "time": 5.375,
      "note": 88,
      "duration": 0.125,
      "velocity": 100
    },
    {
      "time": 5.5,
      "note": 88,
      "duration": 0.125,
      "velocity": 100
    },
    {
      "time": 5.625,
      "note": 86,
      "duration": 0.125,
      "velocity": 100
    },
    {
      "time": 5.75,
      "note": 83,
      "duration": 0.25,
      "velocity": 100
    },
    {
      "time": 6.375,
      "note": 88,
      "duration": 0.25,
      "velocity": 100
    },
    {
      "time": 6.625,
      "note": 88,
      "duration": 0.125,
      "velocity": 100
    },
    {
      "time": 6.75,
      "note": 95,
      "duration": 0.25,
      "velocity": 100
    },
    {
      "time": 7.0,
      "note": 88,
      "duration": 0.125,
      "velocity": 100
    },
    {
      "time": 7.125,
      "note": 95,
      "duration": 0.125,
      "velocity": 100
    },
    {
      "time": 7.25,
      "note": 93,
      "duration": 0.375,
      "velocity": 100
    },
    {
      "time": 7.625,
      "note": 88,
      "duration": 0.125,
      "velocity": 100
    },
    {
      "time": 7.75,
      "note": 88,
      "duration": 0.125,
      "velocity": 100
    },
    {
      "time": 7.875,
      "note": 84,
      "duration": 0.125,
      "velocity": 100
    },
    {
      "time": 8.0,
      "note": 81,
      "duration": 0.25,
      "velocity": 100
    },
    {
      "time": 8.375,
      "note": 93,
      "duration": 0.25,
      "velocity": 100
    },
    {
      "time": 8.625,
      "note": 93,
      "duration": 0.125,
      "velocity": 100
    },
    {
      "time": 8.75,
      "note": 95,
      "duration": 0.25,
      "velocity": 100
    },
    {
      "time": 9.0,
      "note": 95,
      "duration": 0.125,
      "velocity": 100
    },
    {
      "time": 9.125,
      "note": 95,
      "duration": 0.125,
      "velocity": 100
    },
    {
      "time": 9.25,
      "note": 95,
      "duration": 0.125,
      "velocity": 100
    },
    {
      "time": 9.375,
      "note": 88,
      "duration": 0.25,
      "velocity": 100
    },
    {
      "time": 9.625,
      "note": 88,
      "duration": 0.125,
      "velocity": 100
    },
    {
      "time": 9.75,
      "note": 88,
      "duration": 0.25,
      "velocity": 100
    },
    {
      "time": 10.0,
      "note": 88,
      "duration": 0.125,
      "velocity": 100
    },
    {
      "time": 10.125,
      "note": 88,
      "duration": 0.125,
      "velocity": 100
    },
    {
      "time": 10.25,
      "note": 88,
      "duration": 0.125,
      "velocity": 100
    },
    {
      "time": 10.375,
      "note": 83,
      "duration": 0.25,
      "velocity": 100
    },
    {
      "time": 10.625,
      "note": 86,
      "duration": 0.125,
      "velocity": 100
    },
    {
      "time": 10.75,
      "note": 84,
      "duration": 0.25,
      "velocity": 100
    },
    {
      "time": 11.0,
      "note": 86,
      "duration": 0.25,
      "velocity": 100
    },
    {
      "time": 10.625,
      "note": 88,
      "duration": 1.0,
      "velocity": 100
    },
    {
      "time": 11.75,
      "note": 93,
      "duration": 0.25,
      "velocity": 100
    },
    {
      "time": 12.0,
      "note": 93,
      "duration": 0.125,
      "velocity": 100
    },
    {
      "time": 12.125,
      "note": 95,
      "duration": 0.25,
      "velocity": 100
    },
    {
      "time": 12.375,
      "note": 95,
      "duration": 0.125,
      "velocity": 100
    },
    {
      "time": 12.5,
      "note": 95,
      "duration": 0.125,
      "velocity": 100
    },
    {
      "time": 12.625,
      "note": 95,
      "duration": 0.125,
      "velocity": 100
    },
    {
      "time": 12.75,
      "note": 88,
      "duration": 0.25,
      "velocity": 100
    },
    {
      "time": 13.0,
      "note": 88,
      "duration": 0.125,
      "velocity": 100
    },
    {
      "time": 13.125,
      "note": 88,
      "duration": 0.25,
      "velocity": 100
    },
    {
      "time": 13.375,
      "note": 88,
      "duration": 0.125,
      "velocity": 100
    },
    {
      "time": 13.5,
      "note": 88,
      "duration": 0.125,
      "velocity": 100
    },
    {
      "time": 13.625,
      "note": 88,
      "duration": 0.125,
      "velocity": 100
    },
    {
      "time": 13.75,
      "note": 83,
      "duration": 0.25,
      "velocity": 100
    },
    {
      "time": 14.0,
      "note": 86,
      "duration": 0.125,
      "velocity": 100
    },
    {
      "time": 14.125,
      "note": 84,
      "duration": 0.25,
      "velocity": 100
    },
    {
      "time": 14.375,
      "note": 83,
      "duration": 0.25,
      "velocity": 100
    },
    {
      "time": 14.625,
      "note": 81,
      "duration": 1.0,
      "velocity": 100
    },
    {
      "time": 16.0,
      "note": 88,
      "duration": 0.25,
      "velocity": 100
    },
    {
      "time": 16.25,
      "note": 89,
      "duration": 0.125,
      "velocity": 100
    },
    {
      "time": 16.375,
      "note": 89,
      "duration": 0.125,
      "velocity": 100
    },
    {
      "time": 16.5,
      "note": 88,
      "duration": 0.25,
      "velocity": 100
    },
    {
      "time": 16.75,
      "note": 84,
      "duration": 0.125,
      "velocity": 100
    },
    {
      "time": 16.875,
      "note": 81,
      "duration": 0.25,
      "velocity": 100
    },
    {
      "time": 17.125,
      "note": 81,
      "duration": 0.125,
      "velocity": 100
    },
    {
      "time": 17.25,
      "note": 89,
      "duration": 0.125,
      "velocity": 100
    },
    {
      "time": 17.375,
      "note": 89,
      "duration": 0.125,
      "velocity": 100
    },
    {
      "time": 17.5,
      "note": 88,
      "duration": 0.25,
      "velocity": 100
    },
    {
      "time": 17.75,
      "note": 84,
      "duration": 0.125,
      "velocity": 100
    },
    {
      "time": 17.875,
      "note": 81,
      "duration": 0.25,
      "velocity": 100
    },
    {
      "time": 18.125,
      "note": 81,
      "duration": 0.125,
      "velocity": 100
    },
    {
      "time": 18.25,
      "note": 89,
      "duration": 0.125,
      "velocity": 100
    },
    {
      "time": 18.375,
      "note": 89,
      "duration": 0.125,
      "velocity": 100
    },
    {
      "time": 18.5,
      "note": 88,
      "duration": 0.25,
      "velocity": 100
    },
    {
      "time": 18.75,
      "note": 84,
      "duration": 0.125,
      "velocity": 100
    },
    {
      "time": 18.875,
      "note": 86,
      "duration": 1.0,
      "velocity": 100
    },
    {
      "time": 20.0,
      "note": 86,
      "duration": 0.25,
      "velocity": 100
    },
    {
      "time": 20.25,
      "note": 88,
      "duration": 0.125,
      "velocity": 100
    },
    {
      "time": 20.375,
      "note": 86,
      "duration": 0.25,
      "velocity": 100
    },
    {
      "time": 20.625,
      "note": 82,
      "duration": 0.125,
      "velocity": 100
    },
    {
      "time": 20.75,
      "note": 79,
      "duration": 0.125,
      "velocity": 100
    },
    {
      "time": 20.625,
      "note": 79,
      "duration": 1.0,
      "velocity": 100
    },
    {
      "time": 21.625,
      "note": 79,
      "duration": 1.0,
      "velocity": 100
    },
    {
      "time": 21.625,
      "note": 79,
      "duration": 0.125,
      "velocity": 100
    },
    {
      "time": 21.75,
      "note": 79,
      "duration": 0.25,
      "velocity": 100
    },
    {
      "time": 22.0,
      "note": 88,
      "duration": 0.125,
      "velocity": 100
    },
    {
      "time": 22.125,
      "note": 86,
      "duration": 0.25,
      "velocity": 100
    },
    {
      "time": 22.375,
      "note": 82,
      "duration": 0.125,
      "velocity": 100
    },
    {
      "time": 22.5,
      "note": 79,
      "duration": 0.125,
      "velocity": 100
    },
    {
      "time": 22.625,
      "note": 79,
      "duration": 0.125,
      "velocity": 100
    },
    {
      "time": 22.75,
      "note": 79,
      "duration": 0.25,
      "velocity": 100
    },
    {
      "time": 23.0,
      "note": 86,
      "duration": 0.125,
      "velocity": 100
    },
    {
      "time": 23.125,
      "note": 83,
      "duration": 0.25,
      "velocity": 100
    },
    {
      "time": 23.375,
      "note": 86,
      "duration": 0.25,
      "velocity": 100
    },
    {
      "time": 23.625,
      "note": 88,
      "duration": 1.0,
      "velocity": 100
    },
    {
      "time": 24.75,
      "note": 88,
      "duration": 0.25,
      "velocity": 100
    },
    {
      "time": 25.0,
      "note": 88,
      "duration": 0.125,
      "velocity": 100
    },
    {
      "time": 25.125,
      "note": 88,
      "duration": 0.25,
      "velocity": 100
    },
    {
      "time": 25.375,
      "note": 89,
      "duration": 0.125,
      "velocity": 100
    },
    {
      "time": 25.5,
      "note": 91,
      "duration": 0.125,
      "velocity": 100
    },
    {
      "time": 25.625,
      "note": 91,
      "duration": 0.125,
      "velocity": 100
    },
    {
      "time": 25.75,
      "note": 88,
      "duration": 0.25,
      "velocity": 100
    },
    {
      "time": 26.0,
      "note": 91,
      "duration": 0.125,
      "velocity": 100
    },
    {
      "time": 26.125,
      "note": 89,
      "duration": 0.25,
      "velocity": 100
    },
    {
      "time": 26.375,
      "note": 88,
      "duration": 0.125,
      "velocity": 100
    },
    {
      "time": 26.5,
      "note": 91,
      "duration": 0.125,
      "velocity": 100
    },
    {
      "time": 26.625,
      "note": 91,
      "duration": 0.125,
      "velocity": 100
    },
    {
      "time": 26.75,
      "note": 88,
      "duration": 0.25,
      "velocity": 100
    },
    {
      "time": 27.0,
      "note": 91,
      "duration": 0.125,
      "velocity": 100
    },
    {
      "time": 27.125,
      "note": 89,
      "duration": 0.25,
      "velocity": 100
    },
    {
      "time": 27.375,
      "note": 88,
      "duration": 0.25,
      "velocity": 100
    },
    {
      "time": 27.625,
      "note": 93,
      "duration": 1.0,
      "velocity": 100
    },
    {
      "time": 28.75,
      "note": 93,
      "duration": 0.25,
      "velocity": 100
    },
    {
      "time": 29.0,
      "note": 93,
      "duration": 0.125,
      "velocity": 100
    },
    {
      "time": 29.125,
      "note": 95,
      "duration": 0.25,
      "velocity": 100
    },
    {
      "time": 29.375,
      "note": 95,
      "duration": 0.125,
      "velocity": 100
    },
    {
      "time": 29.5,
      "note": 95,
      "duration": 0.125,
      "velocity": 100
    },
    {
      "time": 29.625,
      "note": 95,
      "duration": 0.125,
      "velocity": 100
    },
    {
      "time": 29.75,
      "note": 88,
      "duration": 0.25,
      "velocity": 100
    },
    {
      "time": 30.0,
      "note": 88,
      "duration": 0.125,
      "velocity": 100
    },
    {
      "time": 30.125,
      "note": 88,
      "duration": 0.25,
      "velocity": 100
    },
    {
      "time": 30.375,
      "note": 88,
      "duration": 0.125,
      "velocity": 100
    },
    {
      "time": 30.5,
      "note": 88,
      "duration": 0.125,
      "velocity": 100
    },
    {
      "time": 30.625,
      "note": 88,
      "duration": 0.125,
      "velocity": 100
    },
    {
      "time": 30.75,
      "note": 83,
      "duration": 0.25,
      "velocity": 100
    },
    {
      "time": 31.0,
      "note": 86,
      "duration": 0.125,
      "velocity": 100
    },
    {
      "time": 31.125,
      "note": 84,
      "duration": 0.25,
      "velocity": 100
    },
    {
      "time": 31.375,
      "note": 83,
      "duration": 0.25,
      "velocity": 100
    },
    {
      "time": 31.625,
      "note": 86,
      "duration": 0.25,
      "velocity": 100
    },
    {
      "time": 31.0,
      "note": 88,
      "duration": 1.0,
      "velocity": 100
    },
    {
      "time": 32.125,
      "note": 93,
      "duration": 0.25,
      "velocity": 100
    },
    {
      "time": 32.375,
      "note": 93,
      "duration": 0.125,
      "velocity": 100
    },
    {
      "time": 32.5,
      "note": 95,
      "duration": 0.25,
      "velocity": 100
    },
    {
      "time": 32.75,
      "note": 95,
      "duration": 0.125,
      "velocity": 100
    },
    {
      "time": 32.875,
      "note": 95,
      "duration": 0.125,
      "velocity": 100
    },
    {
      "time": 33.0,
      "note": 95,
      "duration": 0.125,
      "velocity": 100
    },
    {
      "time": 33.125,
      "note": 88,
      "duration": 0.25,
      "velocity": 100
    },
    {
      "time": 33.375,
      "note": 88,
      "duration": 0.125,
      "velocity": 100
    },
    {
      "time": 33.5,
      "note": 88,
      "duration": 0.25,
      "velocity": 100
    },
    {
      "time": 33.75,
      "note": 88,
      "duration": 0.125,
      "velocity": 100
    },
    {
      "time": 33.875,
      "note": 88,
      "duration": 0.125,
      "velocity": 100
    },
    {
      "time": 34.0,
      "note": 88,
      "duration": 0.125,
      "velocity": 100
    },
    {
      "time": 34.125,
      "note": 83,
      "duration": 0.25,
      "velocity": 100
    },
    {
      "time": 34.375,
      "note": 86,
      "duration": 0.125,
      "velocity": 100
    },
    {
      "time": 34.5,
      "note": 84,
      "duration": 0.25,
      "velocity": 100
    },
    {
      "time": 34.75,
      "note": 83,
      "duration": 0.25,
      "velocity": 100
    },
    {
      "time": 34.375,
      "note": 81,
      "duration": 1.0,
      "velocity": 100
    },
    {
      "time": 35.75,
      "note": 79,
      "duration": 0.25,
      "velocity": 100
    },
    {
      "time": 36.0,
      "note": 79,
      "duration": 0.125,
      "velocity": 100
    },
    {
      "time": 36.125,
      "note": 83,
      "duration": 0.25,
      "velocity": 100
    },
    {
      "time": 36.375,
      "note": 86,
      "duration": 0.125,
      "velocity": 100
    },
    {
      "time": 36.5,
      "note": 89,
      "duration": 0.125,
      "velocity": 100
    },
    {
      "time": 36.625,
      "note": 89,
      "duration": 0.125,
      "velocity": 100
    },
    {
      "time": 36.75,
      "note": 86,
      "duration": 0.25,
      "velocity": 100
    },
    {
      "time": 37.0,
      "note": 89,
      "duration": 0.125,
      "velocity": 100
    },
    {
      "time": 37.125,
      "note": 88,
      "duration": 0.25,
      "velocity": 100
    },
    {
      "time": 37.375,
      "note": 86,
      "duration": 0.125,
      "velocity": 100
    },
    {
      "time": 37.5,
      "note": 89,
      "duration": 0.125,
      "velocity": 100
    },
    {
      "time": 37.625,
      "note": 89,
      "duration": 0.125,
      "velocity": 100
    },
    {
      "time": 37.75,
      "note": 86,
      "duration": 0.25,
      "velocity": 100
    },
    {
      "time": 38.0,
      "note": 89,
      "duration": 0.125,
      "velocity": 100
    },
    {
      "time": 38.125,
      "note": 88,
      "duration": 0.25,
      "velocity": 100
    },
    {
      "time": 38.375,
      "note": 89,
      "duration": 0.25,
      "velocity": 100
    },
    {
      "time": 38.625,
      "note": 91,
      "duration": 1.0,
      "velocity": 100
    },
    {
      "time": 39.75,
      "note": 79,
      "duration": 0.25,
      "velocity": 100
    },
    {
      "time": 40.0,
      "note": 79,
      "duration": 0.125,
      "velocity": 100
    },
    {
      "time": 40.125,
      "note": 83,
      "duration": 0.25,
      "velocity": 100
    },
    {
      "time": 40.375,
      "note": 86,
      "duration": 0.125,
      "velocity": 100
    },
    {
      "time": 40.5,
      "note": 89,
      "duration": 0.125,
      "velocity": 100
    },
    {
      "time": 40.625,
      "note": 89,
      "duration": 0.125,
      "velocity": 100
    },
    {
      "time": 40.75,
      "note": 86,
      "duration": 0.25,
      "velocity": 100
    },
    {
      "time": 41.0,
      "note": 89,
      "duration": 0.125,
      "velocity": 100
    },
    {
      "time": 41.125,
      "note": 88,
      "duration": 0.25,
      "velocity": 100
    },
    {
      "time": 41.375,
      "note": 86,
      "duration": 0.125,
      "velocity": 100
    },
    {
      "time": 41.5,
      "note": 89,
      "duration": 0.125,
      "velocity": 100
    },
    {
      "time": 41.625,
      "note": 89,
      "duration": 0.125,
      "velocity": 100
    },
    {
      "time": 41.75,
      "note": 86,
      "duration": 0.25,
      "velocity": 100
    },
    {
      "time": 42.0,
      "note": 89,
      "duration": 0.125,
      "velocity": 100
    },
    {
      "time": 42.125,
      "note": 88,
      "duration": 0.25,
      "velocity": 100
    },
    {
      "time": 42.375,
      "note": 89,
      "duration": 0.25,
      "velocity": 100
    },
    {
      "time": 42.625,
      "note": 91,
      "duration": 1.0,
      "velocity": 100
    },
    {
      "time": 43.75,
      "note": 88,
      "duration": 0.25,
      "velocity": 100
    },
    {
      "time": 44.0,
      "note": 88,
      "duration": 0.125,
      "velocity": 100
    },
    {
      "time": 44.125,
      "note": 88,
      "duration": 0.25,
      "velocity": 100
    },
    {
      "time": 44.375,
      "note": 89,
      "duration": 0.125,
      "velocity": 100
    },
    {
      "time": 44.5,
      "note": 91,
      "duration": 0.125,
      "velocity": 100
    },
    {
      "time": 44.625,
      "note": 91,
      "duration": 0.125,
      "velocity": 100
    },
    {
      "time": 44.75,
      "note": 88,
      "duration": 0.25,
      "velocity": 100
    },
    {
      "time": 45.0,
      "note": 91,
      "duration": 0.125,
      "velocity": 100
    },
    {
      "time": 45.125,
      "note": 89,
      "duration": 0.25,
      "velocity": 100
    },
    {
      "time": 45.375,
      "note": 88,
      "duration": 0.125,
      "velocity": 100
    },
    {
      "time": 45.5,
      "note": 91,
      "duration": 0.125,
      "velocity": 100
    },
    {
      "time": 45.625,
      "note": 91,
      "duration": 0.125,
      "velocity": 100
    },
    {
      "time": 45.75,
      "note": 88,
      "duration": 0.25,
      "velocity": 100
    },
    {
      "time": 46.0,
      "note": 91,
      "duration": 0.125,
      "velocity": 100
    },
    {
      "time": 46.125,
      "note": 89,
      "duration": 0.25,
      "velocity": 100
    },
    {
      "time": 46.375,
      "note": 88,
      "duration": 0.25,
      "velocity": 100
    },
    {
      "time": 46.625,
      "note": 93,
      "duration": 1.0,
      "velocity": 100
    },
    {
      "time": 47.75,
      "note": 93,
      "duration": 0.25,
      "velocity": 100
    },
    {
      "time": 48.0,
      "note": 93,
      "duration": 0.125,
      "velocity": 100
    },
    {
      "time": 48.125,
      "note": 95,
      "duration": 0.25,
      "velocity": 100
    },
    {
      "time": 48.375,
      "note": 95,
      "duration": 0.125,
      "velocity": 100
    },
    {
      "time": 48.5,
      "note": 95,
      "duration": 0.125,
      "velocity": 100
    },
    {
      "time": 48.625,
      "note": 95,
      "duration": 0.125,
      "velocity": 100
    },
    {
      "time": 48.75,
      "note": 88,
      "duration": 0.25,
      "velocity": 100
    },
    {
      "time": 49.0,
      "note": 88,
      "duration": 0.125,
      "velocity": 100
    },
    {
      "time": 49.125,
      "note": 88,
      "duration": 0.25,
      "velocity": 100
    },
    {
      "time": 49.375,
      "note": 88,
      "duration": 0.125,
      "velocity": 100
    },
    {
      "time": 49.5,
      "note": 88,
      "duration": 0.125,
      "velocity": 100
    },
    {
      "time": 49.625,
      "note": 88,
      "duration": 0.125,
      "velocity": 100
    },
    {
      "time": 49.75,
      "note": 83,
      "duration": 0.25,
      "velocity": 100
    },
    {
      "time": 50.0,
      "note": 86,
      "duration": 0.125,
      "velocity": 100
    },
    {
      "time": 50.125,
      "note": 84,
      "duration": 0.25,
      "velocity": 100
    },
    {
      "time": 50.375,
      "note": 83,
      "duration": 0.25,
      "velocity": 100
    },
    {
      "time": 50.625,
      "note": 86,
      "duration": 0.25,
      "velocity": 100
    },
    {
      "time": 50.0,
      "note": 88,
      "duration": 1.0,
      "velocity": 100
    },
    {
      "time": 51.125,
      "note": 93,
      "duration": 0.25,
      "velocity": 100
    },
    {
      "time": 51.375,
      "note": 93,
      "duration": 0.125,
      "velocity": 100
    },
    {
      "time": 51.5,
      "note": 95,
      "duration": 0.25,
      "velocity": 100
    },
    {
      "time": 51.75,
      "note": 95,
      "duration": 0.125,
      "velocity": 100
    },
    {
      "time": 51.875,
      "note": 95,
      "duration": 0.125,
      "velocity": 100
    },
    {
      "time": 52.0,
      "note": 95,
      "duration": 0.125,
      "velocity": 100
    },
    {
      "time": 52.125,
      "note": 88,
      "duration": 0.25,
      "velocity": 100
    },
    {
      "time": 52.375,
      "note": 88,
      "duration": 0.125,
      "velocity": 100
    },
    {
      "time": 52.5,
      "note": 88,
      "duration": 0.25,
      "velocity": 100
    },
    {
      "time": 52.75,
      "note": 88,
      "duration": 0.125,
      "velocity": 100
    },
    {
      "time": 52.875,
      "note": 88,
      "duration": 0.125,
      "velocity": 100
    },
    {
      "time": 53.0,
      "note": 88,
      "duration": 0.125,
      "velocity": 100
    },
    {
      "time": 53.125,
      "note": 83,
      "duration": 0.25,
      "velocity": 100
    },
    {
      "time": 53.375,
      "note": 86,
      "duration": 0.125,
      "velocity": 100
    },
    {
      "time": 53.5,
      "note": 84,
      "duration": 0.25,
      "velocity": 100
    },
    {
      "time": 53.75,
      "note": 83,
      "duration": 0.25,
      "velocity": 100
    },
    {
      "time": 53.375,
      "note": 81,
      "duration": 1.0,
      "velocity": 100
    }
  ],
  "chords": [
    {
      "time": 0.0,
      "notes": [
        69,
        72,
        76
      ],
      "duration": 1.5535714285714286
    },
    {
      "time": 1.5535714285714286,
      "notes": [
        64,
        68,
        71,
        74
      ],
      "duration": 1.5535714285714286
    },
    {
      "time": 3.107142857142857,
      "notes": [
        69,
        72,
        76
      ],
      "duration": 1.5535714285714286
    },
    {
      "time": 4.660714285714286,
      "notes": [
        64,
        68,
        71,
        74
      ],
      "duration": 1.5535714285714286
    },
    {
      "time": 6.214285714285714,
      "notes": [
        69,
        72,
        76
      ],
      "duration": 1.5535714285714286
    },
    {
      "time": 7.767857142857143,
      "notes": [
        62,
        65,
        69
      ],
      "duration": 1.5535714285714286
    },
    {
      "time": 9.321428571428571,
      "notes": [
        69,
        72,
        76
      ],
      "duration": 1.5535714285714286
    },
    {
      "time": 10.875,
      "notes": [
        64,
        68,
        71,
        74
      ],
      "duration": 1.5535714285714286
    },
    {
      "time": 12.428571428571429,
      "notes": [
        69,
        72,
        76
      ],
      "duration": 1.5535714285714286
    },
    {
      "time": 13.982142857142858,
      "notes": [
        62,
        65,
        69
      ],
      "duration": 1.5535714285714286
    },
    {
      "time": 15.535714285714286,
      "notes": [
        69,
        72,
        76
      ],
      "duration": 1.5535714285714286
    },
    {
      "time": 17.089285714285715,
      "notes": [
        64,
        68,
        71,
        74
      ],
      "duration": 1.5535714285714286
    },
    {
      "time": 18.642857142857142,
      "notes": [
        69,
        72,
        76
      ],
      "duration": 1.5535714285714286
    },
    {
      "time": 20.196428571428573,
      "notes": [
        69,
        72,
        76
      ],
      "duration": 1.5535714285714286
    },
    {
      "time": 21.75,
      "notes": [
        64,
        68,
        71,
        74
      ],
      "duration": 1.5535714285714286
    },
    {
      "time": 23.30357142857143,
      "notes": [
        69,
        72,
        76
      ],
      "duration": 1.5535714285714286
    },
    {
      "time": 24.857142857142858,
      "notes": [
        64,
        68,
        71,
        74
      ],
      "duration": 1.5535714285714286
    },
    {
      "time": 26.410714285714285,
      "notes": [
        62,
        65,
        69
      ],
      "duration": 1.5535714285714286
    },
    {
      "time": 27.964285714285715,
      "notes": [
        69,
        72,
        76
      ],
      "duration": 1.5535714285714286
    },
    {
      "time": 29.517857142857142,
      "notes": [
        64,
        68,
        71,
        74
      ],
      "duration": 1.5535714285714286
    },
    {
      "time": 31.071428571428573,
      "notes": [
        62,
        65,
        69
      ],
      "duration": 1.5535714285714286
    },
    {
      "time": 32.625,
      "notes": [
        69,
        72,
        76
      ],
      "duration": 1.5535714285714286
    },
    {
      "time": 34.17857142857143,
      "notes": [
        64,
        68,
        71,
        74
      ],
      "duration": 1.5535714285714286
    },
    {
      "time": 35.73214285714286,
      "notes": [
        69,
        72,
        76
      ],
      "duration": 1.5535714285714286
    },
    {
      "time": 37.285714285714285,
      "notes": [
        67,
        71,
        74,
        77
      ],
      "duration": 1.5535714285714286
    },
    {
      "time": 38.839285714285715,
      "notes": [
        67,
        71,
        74,
        77
      ],
      "duration": 1.5535714285714286
    },
    {
      "time": 40.392857142857146,
      "notes": [
        64,
        68,
        71,
        74
      ],
      "duration": 1.5535714285714286
    },
    {
      "time": 41.94642857142857,
      "notes": [
        69,
        73,
        76,
        79
      ],
      "duration": 1.5535714285714286
    },
    {
      "time": 43.5,
      "notes": [
        62,
        65,
        69
      ],
      "duration": 1.5535714285714286
    },
    {
      "time": 45.05357142857143,
      "notes": [
        69,
        72,
        76
      ],
      "duration": 1.5535714285714286
    },
    {
      "time": 46.60714285714286,
      "notes": [
        64,
        68,
        71,
        74
      ],
      "duration": 1.5535714285714286
    },
    {
      "time": 48.160714285714285,
      "notes": [
        62,
        65,
        69
      ],
      "duration": 1.5535714285714286
    },
    {
      "time": 49.714285714285715,
      "notes": [
        69,
        72,
        76
      ],
      "duration": 1.5535714285714286
    },
    {
      "time": 51.267857142857146,
      "notes": [
        64,
        68,
        71,
        74
      ],
      "duration": 1.5535714285714286
    },
    {
      "time": 52.82142857142857,
      "notes": [
        69,
        72,
        76
      ],
      "duration": 1.5535714285714286
    }
  ]
}