{
  "title": "Amarrame",
  "artist": "Mon Laferte",
  "bpm": 120,
  "duration": 48.666666666666664,
  "audioFile": "",
  "notes": [
    {
      "time": 0.0,
      "note": 77,
      "duration": 0.375,
      "velocity": 100
    },
    {
      "time": 0.375,
      "note": 81,
      "duration": 0.375,
      "velocity": 100
    },
    {
      "time": 0.75,
      "note": 77,
      "duration": 0.5,
      "velocity": 100
    },
    {
      "time": 1.25,
      "note": 77,
      "duration": 0.375,
      "velocity": 100
    },
    {
      "time": 1.625,
      "note": 81,
      "duration": 0.375,
      "velocity": 100
    },
    {
      "time": 2.0,
      "note": 77,
      "duration": 0.5,
      "velocity": 100
    },
    {
      "time": 2.5,
      "note": 77,
      "duration": 0.375,
      "velocity": 100
    },
    {
      "time": 2.875,
      "note": 81,
      "duration": 0.375,
      "velocity": 100
    },
    {
      "time": 3.25,
      "note": 77,
      "duration": 0.5,
      "velocity": 100
    },
    {
      "time": 3.75,
      "note": 77,
      "duration": 0.375,
      "velocity": 100
    },
    {
      "time": 4.125,
      "note": 81,
      "duration": 0.375,
      "velocity": 100
    },
    {
      "time": 4.5,
      "note": 77,
      "duration": 0.5,
      "velocity": 100
    },
    {
      "time": 5.0,
      "note": 77,
      "duration": 1.0,
      "velocity": 100
    },
    {
      "time": 6.125,
      "note": 77,
      "duration": 0.25,
      "velocity": 100
    },
    {
      "time": 6.375,
      "note": 79,
      "duration": 0.125,
      "velocity": 100
    },
    {
      "time": 6.5,
      "note": 81,
      "duration": 0.25,
      "velocity": 100
    },
    {
      "time": 6.75,
      "note": 79,
      "duration": 0.125,
      "velocity": 100
    },
    {
      "time": 6.875,
      "note": 77,
      "duration": 0.125,
      "velocity": 100
    },
    {
      "time": 7.0,
      "note": 77,
      "duration": 0.125,
      "velocity": 100
    },
    {
      "time": 7.125,
      "note": 75,
      "duration": 0.25,
      "velocity": 100
    },
    {
      "time": 7.375,
      "note": 72,
      "duration": 0.125,
      "velocity": 100
    },
    {
      "time": 7.5,
      "note": 72,
      "duration": 0.5,
      "velocity": 100
    },
    {
      "time": 8.125,
      "note": 77,
      "duration": 0.25,
      "velocity": 100
    },
    {
      "time": 8.375,
      "note": 79,
      "duration": 0.125,
      "velocity": 100
    },
    {
      "time": 8.5,
      "note": 81,
      "duration": 0.375,
      "velocity": 100
    },
    {
      "time": 8.875,
      "note": 82,
      "duration": 0.125,
      "velocity": 100
    },
    {
      "time": 9.0,
      "note": 84,
      "duration": 0.375,
      "velocity": 100
    },
    {
      "time": 9.375,
      "note": 82,
      "duration": 0.125,
      "velocity": 100
    },
    {
      "time": 9.5,
      "note": 81,
      "duration": 0.75,
      "velocity": 100
    },
    {
      "time": 9.0,
      "note": 77,
      "duration": 0.375,
      "velocity": 100
    },
    {
      "time": 9.375,
      "note": 75,
      "duration": 0.25,
      "velocity": 100
    },
    {
      "time": 9.625,
      "note": 72,
      "duration": 0.375,
      "velocity": 100
    },
    {
      "time": 10.0,
      "note": 70,
      "duration": 0.25,
      "velocity": 100
    },
    {
      "time": 10.25,
      "note": 72,
      "duration": 0.25,
      "velocity": 100
    },
    {
      "time": 10.5,
      "note": 75,
      "duration": 0.25,
      "velocity": 100
    },
    {
      "time": 10.75,
      "note": 75,
      "duration": 0.5,
      "velocity": 100
    },
    {
      "time": 11.25,
      "note": 77,
      "duration": 0.5,
      "velocity": 100
    },
    {
      "time": 10.875,
      "note": 91,
      "duration": 0.5,
      "velocity": 100
    },
    {
      "time": 11.375,
      "note": 81,
      "duration": 0.125,
      "velocity": 100
    },
    {
      "time": 11.5,
      "note": 84,
      "duration": 0.25,
      "velocity": 100
    },
    {
      "time": 11.75,
      "note": 81,
      "duration": 1.0,
      "velocity": 100
    },
    {
      "time": 11.75,
      "note": 77,
      "duration": 1.0,
      "velocity": 100
    },
    {
      "time": 12.875,
      "note": 77,
      "duration": 0.25,
      "velocity": 100
    },
    {
      "time": 13.125,
      "note": 79,
      "duration": 0.125,
      "velocity": 100
    },
    {
      "time": 13.25,
      "note": 81,
      "duration": 0.25,
      "velocity": 100
    },
    {
      "time": 13.5,
      "note": 79,
      "duration": 0.125,
      "velocity": 100
    },
    {
      "time": 13.625,
      "note": 77,
      "duration": 0.125,
      "velocity": 100
    },
    {
      "time": 13.75,
      "note": 77,
      "duration": 0.125,
      "velocity": 100
    },
    {
      "time": 13.875,
      "note": 75,
      "duration": 0.25,
      "velocity": 100
    },
    {
      "time": 14.125,
      "note": 72,
      "duration": 0.125,
      "velocity": 100
    },
    {
      "time": 14.25,
      "note": 72,
      "duration": 0.5,
      "velocity": 100
    },
    {
      "time": 14.875,
      "note": 77,
      "duration": 0.25,
      "velocity": 100
    },
    {
      "time": 15.125,
      "note": 79,
      "duration": 0.125,
      "velocity": 100
    },
    {
      "time": 15.25,
      "note": 81,
      "duration": 0.375,
      "velocity": 100
    },
    {
      "time": 15.625,
      "note": 82,
      "duration": 0.125,
      "velocity": 100
    },
    {
      "time": 15.75,
      "note": 84,
      "duration": 0.375,
      "velocity": 100
    },
    {
      "time": 16.125,
      "note": 82,
      "duration": 0.125,
      "velocity": 100
    },
    {
      "time": 16.25,
      "note": 81,
      "duration": 0.375,
      "velocity": 100
    },
    {
      "time": 16.625,
      "note": 79,
      "duration": 0.125,
      "velocity": 100
    },
    {
      "time": 16.75,
      "note": 77,
      "duration": 0.375,
      "velocity": 100
    },
    {
      "time": 17.125,
      "note": 75,
      "duration": 0.125,
      "velocity": 100
    },
    {
      "time": 17.25,
      "note": 72,
      "duration": 0.375,
      "velocity": 100
    },
    {
      "time": 17.625,
      "note": 70,
      "duration": 0.25,
      "velocity": 100
    },
    {
      "time": 17.875,
      "note": 72,
      "duration": 0.25,
      "velocity": 100
    },
    {
      "time": 18.125,
      "note": 75,
      "duration": 0.25,
      "velocity": 100
    },
    {
      "time": 18.375,
      "note": 75,
      "duration": 0.5,
      "velocity": 100
    },
    {
      "time": 19.25,
      "note": 77,
      "duration": 0.125,
      "velocity": 100
    },
    {
      "time": 19.375,
      "note": 77,
      "duration": 0.125,
      "velocity": 100
    },
    {
      "time": 19.5,
      "note": 75,
      "duration": 0.375,
      "velocity": 100
    },
    {
      "time": 19.875,
      "note": 77,
      "duration": 1.0,
      "velocity": 100
    },
    {
      "time": 20.25,
      "note": 84,
      "duration": 0.125,
      "velocity": 100
    },
    {
      "time": 20.375,
      "note": 84,
      "duration": 0.25,
      "velocity": 100
    },
    {
      "time": 20.625,
      "note": 84,
      "duration": 0.25,
      "velocity": 100
    },
    {
      "time": 20.875,
      "note": 77,
      "duration": 0.375,
      "velocity": 100
    },
    {
      "time": 21.25,
      "note": 84,
      "duration": 0.125,
      "velocity": 100
    },
    {
      "time": 21.375,
      "note": 84,
      "duration": 0.25,
      "velocity": 100
    },
    {
      "time": 21.625,
      "note": 84,
      "duration": 0.25,
      "velocity": 100
    },
    {
      "time": 21.375,
      "note": 84,
      "duration": 0.5,
      "velocity": 100
    },
    {
      "time": 21.875,
      "note": 77,
      "duration": 0.375,
      "velocity": 100
    },
    {
      "time": 22.25,
      "note": 84,
      "duration": 0.125,
      "velocity": 100
    },
    {
      "time": 22.375,
      "note": 84,
      "duration": 0.25,
      "velocity": 100
    },
    {
      "time": 22.625,
      "note": 84,
      "duration": 0.25,
      "velocity": 100
    },
    {
      "time": 22.375,
      "note": 96,
      "duration": 0.125,
      "velocity": 100
    },
    {
      "time": 22.5,
      "note": 94,
      "duration": 0.125,
      "velocity": 100
    },
    {
      "time": 22.625,
      "note": 93,
      "duration": 0.125,
      "velocity": 100
    },
    {
      "time": 22.75,
      "note": 91,
      "duration": 0.125,
      "velocity": 100
    },
    {
      "time": 22.875,
      "note": 89,
      "duration": 0.375,
      "velocity": 100
    },
    {
      "time": 23.25,
      "note": 91,
      "duration": 0.125,
      "velocity": 100
    },
    {
      "time": 23.375,
      "note": 89,
      "duration": 0.25,
      "velocity": 100
    },
    {
      "time": 23.625,
      "note": 87,
      "duration": 0.25,
      "velocity": 100
    },
    {
      "time": 22.875,
      "note": 77,
      "duration": 0.375,
      "velocity": 100
    },
    {
      "time": 23.25,
      "note": 84,
      "duration": 0.125,
      "velocity": 100
    },
    {
      "time": 23.375,
      "note": 84,
      "duration": 0.25,
      "velocity": 100
    },
    {
      "time": 23.625,
      "note": 84,
      "duration": 0.25,
      "velocity": 100
    },
    {
      "time": 23.875,
      "note": 77,
      "duration": 0.5,
      "velocity": 100
    },
    {
      "time": 23.875,
      "note": 74,
      "duration": 1.0,
      "velocity": 100
    },
    {
      "time": 24.125,
      "note": 77,
      "duration": 1.0,
      "velocity": 100
    },
    {
      "time": 25.125,
      "note": 87,
      "duration": 1.0,
      "velocity": 100
    },
    {
      "time": 24.625,
      "note": 81,
      "duration": 1.0,
      "velocity": 100
    },
    {
      "time": 25.125,
      "note": 81,
      "duration": 0.5,
      "velocity": 100
    },
    {
      "time": 25.625,
      "note": 82,
      "duration": 0.5,
      "velocity": 100
    },
    {
      "time": 26.125,
      "note": 84,
      "duration": 1.0,
      "velocity": 100
    },
    {
      "time": 27.125,
      "note": 84,
      "duration": 0.75,
      "velocity": 100
    },
    {
      "time": 27.875,
      "note": 79,
      "duration": 0.5,
      "velocity": 100
    },
    {
      "time": 28.375,
      "note": 87,
      "duration": 0.5,
      "velocity": 100
    },
    {
      "time": 28.375,
      "note": 82,
      "duration": 0.375,
      "velocity": 100
    },
    {
      "time": 28.75,
      "note": 81,
      "duration": 0.125,
      "velocity": 100
    },
    {
      "time": 28.875,
      "note": 82,
      "duration": 0.375,
      "velocity": 100
    },
    {
      "time": 29.25,
      "note": 81,
      "duration": 0.125,
      "velocity": 100
    },
    {
      "time": 29.375,
      "note": 82,
      "duration": 0.375,
      "velocity": 100
    },
    {
      "time": 29.75,
      "note": 81,
      "duration": 0.125,
      "velocity": 100
    },
    {
      "time": 29.875,
      "note": 82,
      "duration": 0.375,
      "velocity": 100
    },
    {
      "time": 30.25,
      "note": 84,
      "duration": 0.125,
      "velocity": 100
    },
    {
      "time": 30.875,
      "note": 81,
      "duration": 0.125,
      "velocity": 100
    },
    {
      "time": 31.0,
      "note": 82,
      "duration": 0.125,
      "velocity": 100
    },
    {
      "time": 30.375,
      "note": 77,
      "duration": 0.25,
      "velocity": 100
    },
    {
      "time": 30.625,
      "note": 81,
      "duration": 0.75,
      "velocity": 100
    },
    {
      "time": 31.375,
      "note": 84,
      "duration": 0.125,
      "velocity": 100
    },
    {
      "time": 31.5,
      "note": 82,
      "duration": 0.125,
      "velocity": 100
    },
    {
      "time": 31.625,
      "note": 81,
      "duration": 0.25,
      "velocity": 100
    },
    {
      "time": 31.875,
      "note": 77,
      "duration": 0.25,
      "velocity": 100
    },
    {
      "time": 32.125,
      "note": 75,
      "duration": 0.25,
      "velocity": 100
    },
    {
      "time": 32.375,
      "note": 77,
      "duration": 0.25,
      "velocity": 100
    },
    {
      "time": 32.625,
      "note": 81,
      "duration": 0.75,
      "velocity": 100
    },
    {
      "time": 33.875,
      "note": 77,
      "duration": 0.5,
      "velocity": 100
    },
    {
      "time": 33.375,
      "note": 89,
      "duration": 0.25,
      "velocity": 100
    },
    {
      "time": 33.625,
      "note": 96,
      "duration": 0.125,
      "velocity": 100
    },
    {
      "time": 33.75,
      "note": 93,
      "duration": 0.125,
      "velocity": 100
    },
    {
      "time": 33.875,
      "note": 84,
      "duration": 0.25,
      "velocity": 100
    },
    {
      "time": 34.125,
      "note": 87,
      "duration": 0.25,
      "velocity": 100
    },
    {
      "time": 33.375,
      "note": 77,
      "duration": 0.375,
      "velocity": 100
    },
    {
      "time": 33.75,
      "note": 77,
      "duration": 0.125,
      "velocity": 100
    },
    {
      "time": 33.875,
      "note": 72,
      "duration": 0.25,
      "velocity": 100
    },
    {
      "time": 34.125,
      "note": 75,
      "duration": 0.25,
      "velocity": 100
    },
    {
      "time": 34.375,
      "note": 89,
      "duration": 0.25,
      "velocity": 100
    },
    {
      "time": 34.625,
      "note": 96,
      "duration": 0.125,
      "velocity": 100
    },
    {
      "time": 34.75,
      "note": 93,
      "duration": 0.125,
      "velocity": 100
    },
    {
      "time": 34.875,
      "note": 84,
      "duration": 0.25,
      "velocity": 100
    },
    {
      "time": 35.125,
      "note": 87,
      "duration": 0.25,
      "velocity": 100
    },
    {
      "time": 34.375,
      "note": 77,
      "duration": 0.375,
      "velocity": 100
    },
    {
      "time": 34.75,
      "note": 77,
      "duration": 0.125,
      "velocity": 100
    },
    {
      "time": 34.875,
      "note": 72,
      "duration": 0.25,
      "velocity": 100
    },
    {
      "time": 35.125,
      "note": 75,
      "duration": 0.25,
      "velocity": 100
    },
    {
      "time": 35.375,
      "note": 89,
      "duration": 0.125,
      "velocity": 100
    },
    {
      "time": 35.5,
      "note": 89,
      "duration": 0.125,
      "velocity": 100
    },
    {
      "time": 35.625,
      "note": 96,
      "duration": 0.125,
      "velocity": 100
    },
    {
      "time": 35.75,
      "note": 93,
      "duration": 0.125,
      "velocity": 100
    },
    {
      "time": 35.875,
      "note": 84,
      "duration": 0.25,
      "velocity": 100
    },
    {
      "time": 36.125,
      "note": 87,
      "duration": 0.25,
      "velocity": 100
    },
    {
      "time": 35.375,
      "note": 77,
      "duration": 0.375,
      "velocity": 100
    },
    {
      "time": 35.75,
      "note": 77,
      "duration": 0.125,
      "velocity": 100
    },
    {
      "time": 35.875,
      "note": 72,
      "duration": 0.25,
      "velocity": 100
    },
    {
      "time": 36.125,
      "note": 75,
      "duration": 0.25,
      "velocity": 100
    },
    {
      "time": 37.125,
      "note": 81,
      "duration": 0.125,
      "velocity": 100
    },
    {
      "time": 37.25,
      "note": 82,
      "duration": 0.125,
      "velocity": 100
    },
    {
      "time": 36.375,
      "note": 77,
      "duration": 0.5,
      "velocity": 100
    },
    {
      "time": 38.25,
      "note": 87,
      "duration": 0.5,
      "velocity": 100
    },
    {
      "time": 37.75,
      "note": 84,
      "duration": 0.125,
      "velocity": 100
    },
    {
      "time": 37.875,
      "note": 82,
      "duration": 0.125,
      "velocity": 100
    },
    {
      "time": 38.0,
      "note": 81,
      "duration": 0.25,
      "velocity": 100
    },
    {
      "time": 38.25,
      "note": 87,
      "duration": 0.75,
      "velocity": 100
    },
    {
      "time": 39.0,
      "note": 81,
      "duration": 0.125,
      "velocity": 100
    },
    {
      "time": 39.125,
      "note": 82,
      "duration": 0.125,
      "velocity": 100
    },
    {
      "time": 39.25,
      "note": 84,
      "duration": 0.125,
      "velocity": 100
    },
    {
      "time": 39.375,
      "note": 82,
      "duration": 0.125,
      "velocity": 100
    },
    {
      "time": 39.5,
      "note": 81,
      "duration": 0.25,
      "velocity": 100
    },
    {
      "time": 39.75,
      "note": 87,
      "duration": 0.5,
      "velocity": 100
    },
    {
      "time": 40.0,
      "note": 84,
      "duration": 0.125,
      "velocity": 100
    },
    {
      "time": 40.125,
      "note": 87,
      "duration": 0.25,
      "velocity": 100
    },
    {
      "time": 40.375,
      "note": 87,
      "duration": 0.5,
      "velocity": 100
    },
    {
      "time": 40.875,
      "note": 87,
      "duration": 0.125,
      "velocity": 100
    },
    {
      "time": 41.0,
      "note": 89,
      "duration": 0.125,
      "velocity": 100
    },
    {
      "time": 41.125,
      "note": 87,
      "duration": 0.125,
      "velocity": 100
    },
    {
      "time": 41.25,
      "note": 81,
      "duration": 0.125,
      "velocity": 100
    },
    {
      "time": 40.375,
      "note": 87,
      "duration": 0.125,
      "velocity": 100
    },
    {
      "time": 40.5,
      "note": 87,
      "duration": 0.25,
      "velocity": 100
    },
    {
      "time": 40.75,
      "note": 83,
      "duration": 0.125,
      "velocity": 100
    },
    {
      "time": 40.875,
      "note": 81,
      "duration": 0.125,
      "velocity": 100
    },
    {
      "time": 40.875,
      "note": 77,
      "duration": 0.5,
      "velocity": 100
    },
    {
      "time": 40.375,
      "note": 77,
      "duration": 0.25,
      "velocity": 100
    },
    {
      "time": 40.375,
      "note": 77,
      "duration": 0.16666666666666666,
      "velocity": 100
    },
    {
      "time": 40.541666666666664,
      "note": 77,
      "duration": 0.16666666666666666,
      "velocity": 100
    },
    {
      "time": 40.708333333333336,
      "note": 77,
      "duration": 0.16666666666666666,
      "velocity": 100
    },
    {
      "time": 40.875,
      "note": 75,
      "duration": 0.16666666666666666,
      "velocity": 100
    },
    {
      "time": 41.041666666666664,
      "note": 72,
      "duration": 0.16666666666666666,
      "velocity": 100
    },
    {
      "time": 40.541666666666664,
      "note": 81,
      "duration": 0.75,
      "velocity": 100
    },
    {
      "time": 41.291666666666664,
      "note": 87,
      "duration": 0.25,
      "velocity": 100
    },
    {
      "time": 41.541666666666664,
      "note": 87,
      "duration": 0.25,
      "velocity": 100
    },
    {
      "time": 41.916666666666664,
      "note": 84,
      "duration": 0.125,
      "velocity": 100
    },
    {
      "time": 42.041666666666664,
      "note": 89,
      "duration": 0.125,
      "velocity": 100
    },
    {
      "time": 42.166666666666664,
      "note": 91,
      "duration": 0.125,
      "velocity": 100
    },
    {
      "time": 41.791666666666664,
      "note": 84,
      "duration": 0.5,
      "velocity": 100
    },
    {
      "time": 41.916666666666664,
      "note": 81,
      "duration": 0.25,
      "velocity": 100
    },
    {
      "time": 42.166666666666664,
      "note": 72,
      "duration": 0.5,
      "velocity": 100
    },
    {
      "time": 42.666666666666664,
      "note": 77,
      "duration": 0.5,
      "velocity": 100
    },
    {
      "time": 42.666666666666664,
      "note": 93,
      "duration": 0.125,
      "velocity": 100
    },
    {
      "time": 42.791666666666664,
      "note": 93,
      "duration": 0.125,
      "velocity": 100
    },
    {
      "time": 42.916666666666664,
      "note": 93,
      "duration": 0.125,
      "velocity": 100
    },
    {
      "time": 43.041666666666664,
      "note": 93,
      "duration": 0.125,
      "velocity": 100
    },
    {
      "time": 43.166666666666664,
      "note": 93,
      "duration": 0.25,
      "velocity": 100
    },
    {
      "time": 43.416666666666664,
      "note": 91,
      "duration": 0.125,
      "velocity": 100
    },
    {
      "time": 43.541666666666664,
      "note": 89,
      "duration": 0.125,
      "velocity": 100
    },
    {
      "time": 43.291666666666664,
      "note": 89,
      "duration": 0.5,
      "velocity": 100
    },
    {
      "time": 43.791666666666664,
      "note": 89,
      "duration": 0.125,
      "velocity": 100
    },
    {
      "time": 43.916666666666664,
      "note": 84,
      "duration": 0.125,
      "velocity": 100
    },
    {
      "time": 44.041666666666664,
      "note": 89,
      "duration": 0.125,
      "velocity": 100
    },
    {
      "time": 44.166666666666664,
      "note": 91,
      "duration": 0.125,
      "velocity": 100
    },
    {
      "time": 44.291666666666664,
      "note": 93,
      "duration": 0.125,
      "velocity": 100
    },
    {
      "time": 44.416666666666664,
      "note": 93,
      "duration": 0.125,
      "velocity": 100
    },
    {
      "time": 44.541666666666664,
      "note": 93,
      "duration": 0.125,
      "velocity": 100
    },
    {
      "time": 44.666666666666664,
      "note": 93,
      "duration": 0.125,
      "velocity": 100
    },
    {
      "time": 44.791666666666664,
      "note": 93,
      "duration": 0.25,
      "velocity": 100
    },
    {
      "time": 45.041666666666664,
      "note": 91,
      "duration": 0.125,
      "velocity": 100
    },
    {
      "time": 45.166666666666664,
      "note": 89,
      "duration": 0.125,
      "velocity": 100
    },
    {
      "time": 45.291666666666664,
      "note": 89,
      "duration": 0.5,
      "velocity": 100
    },
    {
      "time": 45.791666666666664,
      "note": 89,
      "duration": 0.25,
      "velocity": 100
    },
    {
      "time": 46.041666666666664,
      "note": 91,
      "duration": 0.25,
      "velocity": 100
    },
    {
      "time": 46.291666666666664,
      "note": 93,
      "duration": 0.25,
      "velocity": 100
    },
    {
      "time": 46.541666666666664,
      "note": 94,
      "duration": 0.25,
      "velocity": 100
    },
    {
      "time": 46.791666666666664,
      "note": 94,
      "duration": 0.25,
      "velocity": 100
    },
    {
      "time": 47.041666666666664,
      "note": 94,
      "duration": 0.25,
      "velocity": 100
    },
    {
      "time": 47.291666666666664,
      "note": 94,
      "duration": 0.25,
      "velocity": 100
    },
    {
      "time": 46.541666666666664,
      "note": 91,
      "duration": 0.125,
      "velocity": 100
    },
    {
      "time": 46.666666666666664,
      "note": 94,
      "duration": 0.25,
      "velocity": 100
    },
    {
      "time": 46.916666666666664,
      "note": 93,
      "duration": 0.25,
      "velocity": 100
    },
    {
      "time": 47.166666666666664,
      "note": 93,
      "duration": 0.125,
      "velocity": 100
    },
    {
      "time": 47.291666666666664,
      "note": 91,
      "duration": 0.25,
      "velocity": 100
    },
    {
      "time": 47.541666666666664,
      "note": 93,
      "duration": 0.125,
      "velocity": 100
    },
    {
      "time": 47.666666666666664,
      "note": 91,
      "duration": 0.25,
      "velocity": 100
    },
    {
      "time": 47.916666666666664,
      "note": 89,
      "duration": 0.25,
      "velocity": 100
    },
    {
      "time": 48.166666666666664,
      "note": 89,
      "duration": 0.5,
      "velocity": 100
    }
  ],
  "chords": [
    {
      "time": 0.0,
      "notes": [
        65,
        68,
        72
      ],
      "duration": 2.8627450980392157
    },
    {
      "time": 2.8627450980392157,
      "notes": [
        60,
        63,
        67
      ],
      "duration": 2.8627450980392157
    },
    {
      "time": 5.7254901960784315,
      "notes": [
        65,
        68,
        72
      ],
      "duration": 2.8627450980392157
    },
    {
      "time": 8.588235294117647,
      "notes": [
        60,
        63,
        67
      ],
      "duration": 2.8627450980392157
    },
    {
      "time": 11.450980392156863,
      "notes": [
        65,
        68,
        72
      ],
      "duration": 2.8627450980392157
    },
    {
      "time": 14.313725490196079,
      "notes": [
        68,
        72,
        75
      ],
      "duration": 2.8627450980392157
    },
    {
      "time": 17.176470588235293,
      "notes": [
        63,
        67,
        70
      ],
      "duration": 2.8627450980392157
    },
    {
      "time": 20.03921568627451,
      "notes": [
        65,
        68,
        72
      ],
      "duration": 2.8627450980392157
    },
    {
      "time": 22.901960784313726,
      "notes": [
        65,
        68,
        72
      ],
      "duration": 2.8627450980392157
    },
    {
      "time": 25.764705882352942,
      "notes": [
        65,
        68,
        72
      ],
      "duration": 2.8627450980392157
    },
    {
      "time": 28.627450980392158,
      "notes": [
        68,
        72,
        75
      ],
      "duration": 2.8627450980392157
    },
    {
      "time": 31.490196078431374,
      "notes": [
        63,
        67,
        70
      ],
      "duration": 2.8627450980392157
    },
    {
      "time": 34.35294117647059,
      "notes": [
        65,
        68,
        72
      ],
      "duration": 2.8627450980392157
    },
    {
      "time": 37.21568627450981,
      "notes": [
        65,
        68,
        72
      ],
      "duration": 2.8627450980392157
    },
    {
      "time": 40.07843137254902,
      "notes": [
        68,
        72,
        75
      ],
      "duration": 2.8627450980392157
    },
    {
      "time": 42.94117647058824,
      "notes": [
        63,
        67,
        70
      ],
      "duration": 2.8627450980392157
    },
    {
      "time": 45.80392156862745,
      "notes": [
        65,
        68,
        72
      ],
      "duration": 2.8627450980392157
    }
  ]
}