{
  "title": "횕횕횕횕횕",
  "artist": "Aguita",
  "bpm": 120,
  "duration": 57.0,
  "audioFile": "",
  "notes": [
    {
      "time": 0.0,
      "note": 84,
      "duration": 0.375,
      "velocity": 100
    },
    {
      "time": 0.375,
      "note": 81,
      "duration": 0.125,
      "velocity": 100
    },
    {
      "time": 0.5,
      "note": 81,
      "duration": 0.25,
      "velocity": 100
    },
    {
      "time": 0.75,
      "note": 77,
      "duration": 0.25,
      "velocity": 100
    },
    {
      "time": 1.0,
      "note": 77,
      "duration": 1.0,
      "velocity": 100
    },
    {
      "time": 1.25,
      "note": 74,
      "duration": 0.5,
      "velocity": 100
    },
    {
      "time": 1.75,
      "note": 84,
      "duration": 0.5,
      "velocity": 100
    },
    {
      "time": 1.75,
      "note": 81,
      "duration": 0.25,
      "velocity": 100
    },
    {
      "time": 2.0,
      "note": 77,
      "duration": 0.25,
      "velocity": 100
    },
    {
      "time": 2.5,
      "note": 82,
      "duration": 0.25,
      "velocity": 100
    },
    {
      "time": 2.75,
      "note": 82,
      "duration": 0.25,
      "velocity": 100
    },
    {
      "time": 3.0,
      "note": 84,
      "duration": 0.25,
      "velocity": 100
    },
    {
      "time": 2.25,
      "note": 82,
      "duration": 1.0,
      "velocity": 100
    },
    {
      "time": 3.25,
      "note": 86,
      "duration": 0.375,
      "velocity": 100
    },
    {
      "time": 3.625,
      "note": 87,
      "duration": 0.125,
      "velocity": 100
    },
    {
      "time": 3.75,
      "note": 87,
      "duration": 0.5,
      "velocity": 100
    },
    {
      "time": 4.25,
      "note": 84,
      "duration": 0.375,
      "velocity": 100
    },
    {
      "time": 4.625,
      "note": 82,
      "duration": 0.125,
      "velocity": 100
    },
    {
      "time": 4.75,
      "note": 82,
      "duration": 0.25,
      "velocity": 100
    },
    {
      "time": 5.0,
      "note": 81,
      "duration": 0.25,
      "velocity": 100
    },
    {
      "time": 5.25,
      "note": 81,
      "duration": 1.0,
      "velocity": 100
    },
    {
      "time": 6.5,
      "note": 74,
      "duration": 0.5,
      "velocity": 100
    },
    {
      "time": 7.0,
      "note": 82,
      "duration": 0.5,
      "velocity": 100
    },
    {
      "time": 7.0,
      "note": 82,
      "duration": 0.25,
      "velocity": 100
    },
    {
      "time": 7.25,
      "note": 84,
      "duration": 0.25,
      "velocity": 100
    },
    {
      "time": 7.5,
      "note": 86,
      "duration": 0.375,
      "velocity": 100
    },
    {
      "time": 7.875,
      "note": 84,
      "duration": 0.125,
      "velocity": 100
    },
    {
      "time": 8.0,
      "note": 84,
      "duration": 0.5,
      "velocity": 100
    },
    {
      "time": 8.5,
      "note": 83,
      "duration": 0.375,
      "velocity": 100
    },
    {
      "time": 8.875,
      "note": 87,
      "duration": 0.125,
      "velocity": 100
    },
    {
      "time": 9.0,
      "note": 87,
      "duration": 0.25,
      "velocity": 100
    },
    {
      "time": 9.25,
      "note": 83,
      "duration": 0.125,
      "velocity": 100
    },
    {
      "time": 9.375,
      "note": 82,
      "duration": 0.125,
      "velocity": 100
    },
    {
      "time": 9.5,
      "note": 81,
      "duration": 1.0,
      "velocity": 100
    },
    {
      "time": 10.75,
      "note": 74,
      "duration": 0.5,
      "velocity": 100
    },
    {
      "time": 11.25,
      "note": 82,
      "duration": 0.5,
      "velocity": 100
    },
    {
      "time": 11.25,
      "note": 82,
      "duration": 0.25,
      "velocity": 100
    },
    {
      "time": 11.5,
      "note": 84,
      "duration": 0.25,
      "velocity": 100
    },
    {
      "time": 11.75,
      "note": 86,
      "duration": 0.375,
      "velocity": 100
    },
    {
      "time": 12.125,
      "note": 84,
      "duration": 0.125,
      "velocity": 100
    },
    {
      "time": 12.25,
      "note": 84,
      "duration": 0.5,
      "velocity": 100
    },
    {
      "time": 12.75,
      "note": 84,
      "duration": 0.25,
      "velocity": 100
    },
    {
      "time": 13.0,
      "note": 82,
      "duration": 0.25,
      "velocity": 100
    },
    {
      "time": 13.25,
      "note": 82,
      "duration": 0.25,
      "velocity": 100
    },
    {
      "time": 13.5,
      "note": 84,
      "duration": 0.25,
      "velocity": 100
    },
    {
      "time": 13.75,
      "note": 93,
      "duration": 0.5,
      "velocity": 100
    },
    {
      "time": 14.25,
      "note": 91,
      "duration": 0.5,
      "velocity": 100
    },
    {
      "time": 14.75,
      "note": 93,
      "duration": 0.125,
      "velocity": 100
    },
    {
      "time": 14.875,
      "note": 91,
      "duration": 0.125,
      "velocity": 100
    },
    {
      "time": 15.0,
      "note": 89,
      "duration": 0.75,
      "velocity": 100
    },
    {
      "time": 15.75,
      "note": 89,
      "duration": 1.0,
      "velocity": 100
    },
    {
      "time": 17.0,
      "note": 83,
      "duration": 0.375,
      "velocity": 100
    },
    {
      "time": 17.375,
      "note": 83,
      "duration": 0.125,
      "velocity": 100
    },
    {
      "time": 17.5,
      "note": 86,
      "duration": 0.125,
      "velocity": 100
    },
    {
      "time": 17.625,
      "note": 83,
      "duration": 0.125,
      "velocity": 100
    },
    {
      "time": 17.75,
      "note": 82,
      "duration": 0.125,
      "velocity": 100
    },
    {
      "time": 17.875,
      "note": 83,
      "duration": 0.125,
      "velocity": 100
    },
    {
      "time": 18.0,
      "note": 83,
      "duration": 0.375,
      "velocity": 100
    },
    {
      "time": 18.375,
      "note": 84,
      "duration": 0.125,
      "velocity": 100
    },
    {
      "time": 18.5,
      "note": 86,
      "duration": 0.125,
      "velocity": 100
    },
    {
      "time": 18.625,
      "note": 84,
      "duration": 0.125,
      "velocity": 100
    },
    {
      "time": 18.75,
      "note": 82,
      "duration": 0.125,
      "velocity": 100
    },
    {
      "time": 18.875,
      "note": 84,
      "duration": 0.125,
      "velocity": 100
    },
    {
      "time": 19.0,
      "note": 84,
      "duration": 0.375,
      "velocity": 100
    },
    {
      "time": 19.375,
      "note": 84,
      "duration": 0.125,
      "velocity": 100
    },
    {
      "time": 19.5,
      "note": 86,
      "duration": 0.125,
      "velocity": 100
    },
    {
      "time": 19.625,
      "note": 84,
      "duration": 0.125,
      "velocity": 100
    },
    {
      "time": 19.75,
      "note": 82,
      "duration": 0.125,
      "velocity": 100
    },
    {
      "time": 19.875,
      "note": 84,
      "duration": 0.125,
      "velocity": 100
    },
    {
      "time": 20.125,
      "note": 84,
      "duration": 0.25,
      "velocity": 100
    },
    {
      "time": 20.375,
      "note": 84,
      "duration": 0.125,
      "velocity": 100
    },
    {
      "time": 20.5,
      "note": 84,
      "duration": 0.125,
      "velocity": 100
    },
    {
      "time": 20.625,
      "note": 89,
      "duration": 0.25,
      "velocity": 100
    },
    {
      "time": 20.875,
      "note": 84,
      "duration": 0.125,
      "velocity": 100
    },
    {
      "time": 21.0,
      "note": 86,
      "duration": 0.375,
      "velocity": 100
    },
    {
      "time": 21.375,
      "note": 86,
      "duration": 0.125,
      "velocity": 100
    },
    {
      "time": 21.5,
      "note": 87,
      "duration": 0.125,
      "velocity": 100
    },
    {
      "time": 21.625,
      "note": 86,
      "duration": 0.125,
      "velocity": 100
    },
    {
      "time": 21.75,
      "note": 84,
      "duration": 0.125,
      "velocity": 100
    },
    {
      "time": 21.875,
      "note": 86,
      "duration": 0.125,
      "velocity": 100
    },
    {
      "time": 22.0,
      "note": 86,
      "duration": 0.375,
      "velocity": 100
    },
    {
      "time": 22.375,
      "note": 86,
      "duration": 0.125,
      "velocity": 100
    },
    {
      "time": 22.5,
      "note": 87,
      "duration": 0.125,
      "velocity": 100
    },
    {
      "time": 22.625,
      "note": 86,
      "duration": 0.125,
      "velocity": 100
    },
    {
      "time": 22.75,
      "note": 84,
      "duration": 0.125,
      "velocity": 100
    },
    {
      "time": 22.875,
      "note": 86,
      "duration": 0.125,
      "velocity": 100
    },
    {
      "time": 23.0,
      "note": 85,
      "duration": 0.375,
      "velocity": 100
    },
    {
      "time": 23.375,
      "note": 85,
      "duration": 0.125,
      "velocity": 100
    },
    {
      "time": 23.5,
      "note": 87,
      "duration": 0.125,
      "velocity": 100
    },
    {
      "time": 23.625,
      "note": 85,
      "duration": 0.125,
      "velocity": 100
    },
    {
      "time": 23.75,
      "note": 84,
      "duration": 0.125,
      "velocity": 100
    },
    {
      "time": 23.875,
      "note": 85,
      "duration": 0.125,
      "velocity": 100
    },
    {
      "time": 24.125,
      "note": 86,
      "duration": 0.25,
      "velocity": 100
    },
    {
      "time": 24.375,
      "note": 86,
      "duration": 0.125,
      "velocity": 100
    },
    {
      "time": 24.5,
      "note": 86,
      "duration": 0.125,
      "velocity": 100
    },
    {
      "time": 24.625,
      "note": 86,
      "duration": 0.25,
      "velocity": 100
    },
    {
      "time": 24.875,
      "note": 86,
      "duration": 0.125,
      "velocity": 100
    },
    {
      "time": 25.0,
      "note": 91,
      "duration": 0.125,
      "velocity": 100
    },
    {
      "time": 25.125,
      "note": 89,
      "duration": 0.125,
      "velocity": 100
    },
    {
      "time": 25.25,
      "note": 87,
      "duration": 0.75,
      "velocity": 100
    },
    {
      "time": 25.0,
      "note": 75,
      "duration": 0.125,
      "velocity": 100
    },
    {
      "time": 25.125,
      "note": 77,
      "duration": 0.125,
      "velocity": 100
    },
    {
      "time": 25.25,
      "note": 77,
      "duration": 0.25,
      "velocity": 100
    },
    {
      "time": 25.5,
      "note": 72,
      "duration": 0.125,
      "velocity": 100
    },
    {
      "time": 25.625,
      "note": 72,
      "duration": 0.125,
      "velocity": 100
    },
    {
      "time": 25.75,
      "note": 77,
      "duration": 0.25,
      "velocity": 100
    },
    {
      "time": 26.0,
      "note": 81,
      "duration": 0.25,
      "velocity": 100
    },
    {
      "time": 25.75,
      "note": 81,
      "duration": 0.125,
      "velocity": 100
    },
    {
      "time": 25.875,
      "note": 81,
      "duration": 0.25,
      "velocity": 100
    },
    {
      "time": 26.125,
      "note": 77,
      "duration": 0.75,
      "velocity": 100
    },
    {
      "time": 27.0,
      "note": 96,
      "duration": 0.125,
      "velocity": 100
    },
    {
      "time": 27.125,
      "note": 94,
      "duration": 0.25,
      "velocity": 100
    },
    {
      "time": 26.875,
      "note": 77,
      "duration": 1.0,
      "velocity": 100
    },
    {
      "time": 27.375,
      "note": 93,
      "duration": 0.25,
      "velocity": 100
    },
    {
      "time": 27.625,
      "note": 91,
      "duration": 0.25,
      "velocity": 100
    },
    {
      "time": 27.875,
      "note": 89,
      "duration": 0.5,
      "velocity": 100
    },
    {
      "time": 28.375,
      "note": 89,
      "duration": 0.375,
      "velocity": 100
    },
    {
      "time": 28.75,
      "note": 89,
      "duration": 0.125,
      "velocity": 100
    },
    {
      "time": 29.0,
      "note": 84,
      "duration": 0.25,
      "velocity": 100
    },
    {
      "time": 29.25,
      "note": 84,
      "duration": 0.125,
      "velocity": 100
    },
    {
      "time": 29.375,
      "note": 84,
      "duration": 0.25,
      "velocity": 100
    },
    {
      "time": 29.625,
      "note": 81,
      "duration": 0.25,
      "velocity": 100
    },
    {
      "time": 30.125,
      "note": 74,
      "duration": 0.5,
      "velocity": 100
    },
    {
      "time": 30.625,
      "note": 82,
      "duration": 0.5,
      "velocity": 100
    },
    {
      "time": 30.625,
      "note": 82,
      "duration": 0.25,
      "velocity": 100
    },
    {
      "time": 30.875,
      "note": 81,
      "duration": 0.25,
      "velocity": 100
    },
    {
      "time": 31.125,
      "note": 82,
      "duration": 0.125,
      "velocity": 100
    },
    {
      "time": 31.25,
      "note": 84,
      "duration": 0.125,
      "velocity": 100
    },
    {
      "time": 31.375,
      "note": 82,
      "duration": 0.75,
      "velocity": 100
    },
    {
      "time": 32.125,
      "note": 89,
      "duration": 0.5,
      "velocity": 100
    },
    {
      "time": 32.625,
      "note": 89,
      "duration": 0.25,
      "velocity": 100
    },
    {
      "time": 32.875,
      "note": 89,
      "duration": 0.125,
      "velocity": 100
    },
    {
      "time": 33.0,
      "note": 89,
      "duration": 0.125,
      "velocity": 100
    },
    {
      "time": 33.25,
      "note": 89,
      "duration": 0.25,
      "velocity": 100
    },
    {
      "time": 33.5,
      "note": 91,
      "duration": 0.125,
      "velocity": 100
    },
    {
      "time": 33.625,
      "note": 93,
      "duration": 0.25,
      "velocity": 100
    },
    {
      "time": 33.875,
      "note": 89,
      "duration": 0.25,
      "velocity": 100
    },
    {
      "time": 34.125,
      "note": 84,
      "duration": 1.0,
      "velocity": 100
    },
    {
      "time": 35.375,
      "note": 79,
      "duration": 0.5,
      "velocity": 100
    },
    {
      "time": 35.875,
      "note": 88,
      "duration": 0.5,
      "velocity": 100
    },
    {
      "time": 35.875,
      "note": 88,
      "duration": 0.25,
      "velocity": 100
    },
    {
      "time": 36.125,
      "note": 89,
      "duration": 0.25,
      "velocity": 100
    },
    {
      "time": 36.375,
      "note": 91,
      "duration": 0.25,
      "velocity": 100
    },
    {
      "time": 36.625,
      "note": 89,
      "duration": 0.125,
      "velocity": 100
    },
    {
      "time": 36.75,
      "note": 88,
      "duration": 0.125,
      "velocity": 100
    },
    {
      "time": 36.875,
      "note": 88,
      "duration": 0.5,
      "velocity": 100
    },
    {
      "time": 37.375,
      "note": 89,
      "duration": 0.5,
      "velocity": 100
    },
    {
      "time": 37.875,
      "note": 89,
      "duration": 0.25,
      "velocity": 100
    },
    {
      "time": 38.125,
      "note": 89,
      "duration": 0.125,
      "velocity": 100
    },
    {
      "time": 38.25,
      "note": 89,
      "duration": 0.125,
      "velocity": 100
    },
    {
      "time": 38.5,
      "note": 84,
      "duration": 0.25,
      "velocity": 100
    },
    {
      "time": 38.75,
      "note": 84,
      "duration": 0.125,
      "velocity": 100
    },
    {
      "time": 38.875,
      "note": 84,
      "duration": 0.25,
      "velocity": 100
    },
    {
      "time": 39.125,
      "note": 81,
      "duration": 0.25,
      "velocity": 100
    },
    {
      "time": 39.625,
      "note": 74,
      "duration": 0.5,
      "velocity": 100
    },
    {
      "time": 40.125,
      "note": 82,
      "duration": 0.5,
      "velocity": 100
    },
    {
      "time": 40.125,
      "note": 82,
      "duration": 0.25,
      "velocity": 100
    },
    {
      "time": 40.375,
      "note": 81,
      "duration": 0.25,
      "velocity": 100
    },
    {
      "time": 40.625,
      "note": 82,
      "duration": 0.125,
      "velocity": 100
    },
    {
      "time": 40.75,
      "note": 84,
      "duration": 0.125,
      "velocity": 100
    },
    {
      "time": 40.875,
      "note": 82,
      "duration": 0.75,
      "velocity": 100
    },
    {
      "time": 41.625,
      "note": 84,
      "duration": 1.0,
      "velocity": 100
    },
    {
      "time": 42.75,
      "note": 86,
      "duration": 0.25,
      "velocity": 100
    },
    {
      "time": 43.0,
      "note": 86,
      "duration": 0.125,
      "velocity": 100
    },
    {
      "time": 43.125,
      "note": 86,
      "duration": 0.25,
      "velocity": 100
    },
    {
      "time": 43.375,
      "note": 86,
      "duration": 0.125,
      "velocity": 100
    },
    {
      "time": 43.5,
      "note": 86,
      "duration": 0.125,
      "velocity": 100
    },
    {
      "time": 43.75,
      "note": 88,
      "duration": 0.25,
      "velocity": 100
    },
    {
      "time": 44.0,
      "note": 89,
      "duration": 0.125,
      "velocity": 100
    },
    {
      "time": 44.125,
      "note": 89,
      "duration": 0.25,
      "velocity": 100
    },
    {
      "time": 44.375,
      "note": 86,
      "duration": 0.25,
      "velocity": 100
    },
    {
      "time": 44.625,
      "note": 84,
      "duration": 0.375,
      "velocity": 100
    },
    {
      "time": 45.0,
      "note": 82,
      "duration": 0.125,
      "velocity": 100
    },
    {
      "time": 45.125,
      "note": 81,
      "duration": 0.25,
      "velocity": 100
    },
    {
      "time": 45.375,
      "note": 82,
      "duration": 0.125,
      "velocity": 100
    },
    {
      "time": 45.5,
      "note": 82,
      "duration": 0.125,
      "velocity": 100
    },
    {
      "time": 45.625,
      "note": 89,
      "duration": 0.16666666666666666,
      "velocity": 100
    },
    {
      "time": 45.791666666666664,
      "note": 93,
      "duration": 0.16666666666666666,
      "velocity": 100
    },
    {
      "time": 45.958333333333336,
      "note": 89,
      "duration": 0.16666666666666666,
      "velocity": 100
    },
    {
      "time": 46.125,
      "note": 88,
      "duration": 0.25,
      "velocity": 100
    },
    {
      "time": 46.375,
      "note": 91,
      "duration": 0.25,
      "velocity": 100
    },
    {
      "time": 46.625,
      "note": 88,
      "duration": 0.25,
      "velocity": 100
    },
    {
      "time": 45.625,
      "note": 82,
      "duration": 0.125,
      "velocity": 100
    },
    {
      "time": 45.75,
      "note": 81,
      "duration": 0.375,
      "velocity": 100
    },
    {
      "time": 46.125,
      "note": 81,
      "duration": 0.5,
      "velocity": 100
    },
    {
      "time": 46.625,
      "note": 84,
      "duration": 0.25,
      "velocity": 100
    },
    {
      "time": 46.875,
      "note": 84,
      "duration": 0.125,
      "velocity": 100
    },
    {
      "time": 47.0,
      "note": 84,
      "duration": 0.125,
      "velocity": 100
    },
    {
      "time": 47.25,
      "note": 88,
      "duration": 0.125,
      "velocity": 100
    },
    {
      "time": 47.375,
      "note": 91,
      "duration": 0.25,
      "velocity": 100
    },
    {
      "time": 47.625,
      "note": 91,
      "duration": 1.0,
      "velocity": 100
    },
    {
      "time": 48.625,
      "note": 91,
      "duration": 1.0,
      "velocity": 100
    },
    {
      "time": 49.625,
      "note": 93,
      "duration": 0.5,
      "velocity": 100
    },
    {
      "time": 50.125,
      "note": 91,
      "duration": 0.5,
      "velocity": 100
    },
    {
      "time": 51.0,
      "note": 84,
      "duration": 1.0,
      "velocity": 100
    },
    {
      "time": 52.5,
      "note": 81,
      "duration": 0.5,
      "velocity": 100
    },
    {
      "time": 52.0,
      "note": 91,
      "duration": 0.1875,
      "velocity": 100
    },
    {
      "time": 52.1875,
      "note": 89,
      "duration": 0.25,
      "velocity": 100
    },
    {
      "time": 52.4375,
      "note": 89,
      "duration": 0.5,
      "velocity": 100
    },
    {
      "time": 52.9375,
      "note": 81,
      "duration": 0.5,
      "velocity": 100
    },
    {
      "time": 52.0,
      "note": 79,
      "duration": 0.25,
      "velocity": 100
    },
    {
      "time": 52.25,
      "note": 82,
      "duration": 0.25,
      "velocity": 100
    },
    {
      "time": 52.5,
      "note": 79,
      "duration": 0.125,
      "velocity": 100
    },
    {
      "time": 52.625,
      "note": 82,
      "duration": 0.125,
      "velocity": 100
    },
    {
      "time": 52.75,
      "note": 79,
      "duration": 0.125,
      "velocity": 100
    },
    {
      "time": 52.875,
      "note": 82,
      "duration": 0.125,
      "velocity": 100
    },
    {
      "time": 52.0,
      "note": 77,
      "duration": 1.0,
      "velocity": 100
    },
    {
      "time": 53.0,
      "note": 76,
      "duration": 0.125,
      "velocity": 100
    },
    {
      "time": 53.125,
      "note": 77,
      "duration": 0.125,
      "velocity": 100
    },
    {
      "time": 53.25,
      "note": 76,
      "duration": 0.25,
      "velocity": 100
    },
    {
      "time": 53.75,
      "note": 76,
      "duration": 0.125,
      "velocity": 100
    },
    {
      "time": 53.875,
      "note": 77,
      "duration": 0.125,
      "velocity": 100
    },
    {
      "time": 54.0,
      "note": 76,
      "duration": 0.5,
      "velocity": 100
    },
    {
      "time": 54.5,
      "note": 76,
      "duration": 0.125,
      "velocity": 100
    },
    {
      "time": 54.625,
      "note": 77,
      "duration": 0.125,
      "velocity": 100
    },
    {
      "time": 54.75,
      "note": 76,
      "duration": 0.125,
      "velocity": 100
    },
    {
      "time": 54.875,
      "note": 76,
      "duration": 0.125,
      "velocity": 100
    },
    {
      "time": 55.0,
      "note": 76,
      "duration": 0.125,
      "velocity": 100
    },
    {
      "time": 55.125,
      "note": 77,
      "duration": 0.125,
      "velocity": 100
    },
    {
      "time": 55.25,
      "note": 76,
      "duration": 0.25,
      "velocity": 100
    },
    {
      "time": 55.75,
      "note": 76,
      "duration": 0.125,
      "velocity": 100
    },
    {
      "time": 55.875,
      "note": 77,
      "duration": 0.125,
      "velocity": 100
    },
    {
      "time": 56.0,
      "note": 84,
      "duration": 0.5,
      "velocity": 100
    },
    {
      "time": 56.5,
      "note": 82,
      "duration": 0.5,
      "velocity": 100
    },
    {
      "time": 56.5,
      "note": 81,
      "duration": 0.25,
      "velocity": 100
    },
    {
      "time": 56.75,
      "note": 79,
      "duration": 0.25,
      "velocity": 100
    }
  ],
  "chords": [
    {
      "time": 0.0,
      "notes": [
        65,
        68,
        72
      ],
      "duration": 1.7272727272727273
    },
    {
      "time": 1.7272727272727273,
      "notes": [
        70,
        73,
        77
      ],
      "duration": 1.7272727272727273
    },
    {
      "time": 3.4545454545454546,
      "notes": [
        63,
        67,
        70
      ],
      "duration": 1.7272727272727273
    },
    {
      "time": 5.181818181818182,
      "notes": [
        68,
        72,
        75
      ],
      "duration": 1.7272727272727273
    },
    {
      "time": 6.909090909090909,
      "notes": [
        61,
        65,
        68
      ],
      "duration": 1.7272727272727273
    },
    {
      "time": 8.636363636363637,
      "notes": [
        63,
        67,
        70
      ],
      "duration": 1.7272727272727273
    },
    {
      "time": 10.363636363636363,
      "notes": [
        60,
        64,
        67,
        70
      ],
      "duration": 1.7272727272727273
    },
    {
      "time": 12.090909090909092,
      "notes": [
        68,
        72,
        75
      ],
      "duration": 1.7272727272727273
    },
    {
      "time": 13.818181818181818,
      "notes": [
        61,
        65,
        68
      ],
      "duration": 1.7272727272727273
    },
    {
      "time": 15.545454545454545,
      "notes": [
        63,
        67,
        70
      ],
      "duration": 1.7272727272727273
    },
    {
      "time": 17.272727272727273,
      "notes": [
        60,
        64,
        67,
        70
      ],
      "duration": 1.7272727272727273
    },
    {
      "time": 19.0,
      "notes": [
        65,
        68,
        72
      ],
      "duration": 1.7272727272727273
    },
    {
      "time": 20.727272727272727,
      "notes": [
        65,
        68,
        72
      ],
      "duration": 1.7272727272727273
    },
    {
      "time": 22.454545454545453,
      "notes": [
        61,
        65,
        68
      ],
      "duration": 1.7272727272727273
    },
    {
      "time": 24.181818181818183,
      "notes": [
        63,
        67,
        70
      ],
      "duration": 1.7272727272727273
    },
    {
      "time": 25.90909090909091,
      "notes": [
        60,
        64,
        67,
        70
      ],
      "duration": 1.7272727272727273
    },
    {
      "time": 27.636363636363637,
      "notes": [
        65,
        68,
        72
      ],
      "duration": 1.7272727272727273
    },
    {
      "time": 29.363636363636363,
      "notes": [
        60,
        64,
        67,
        70
      ],
      "duration": 1.7272727272727273
    },
    {
      "time": 31.09090909090909,
      "notes": [
        65,
        68,
        72
      ],
      "duration": 1.7272727272727273
    },
    {
      "time": 32.81818181818182,
      "notes": [
        63,
        67,
        70
      ],
      "duration": 1.7272727272727273
    },
    {
      "time": 34.54545454545455,
      "notes": [
        65,
        68,
        72
      ],
      "duration": 1.7272727272727273
    },
    {
      "time": 36.27272727272727,
      "notes": [
        63,
        67,
        70
      ],
      "duration": 1.7272727272727273
    },
    {
      "time": 38.0,
      "notes": [
        65,
        68,
        72
      ],
      "duration": 1.7272727272727273
    },
    {
      "time": 39.72727272727273,
      "notes": [
        63,
        67,
        70
      ],
      "duration": 1.7272727272727273
    },
    {
      "time": 41.45454545454545,
      "notes": [
        61,
        65,
        68
      ],
      "duration": 1.7272727272727273
    },
    {
      "time": 43.18181818181818,
      "notes": [
        65,
        68,
        72
      ],
      "duration": 1.7272727272727273
    },
    {
      "time": 44.90909090909091,
      "notes": [
        60,
        64,
        67
      ],
      "duration": 1.7272727272727273
    },
    {
      "time": 46.63636363636364,
      "notes": [
        65,
        68,
        72
      ],
      "duration": 1.7272727272727273
    },
    {
      "time": 48.36363636363637,
      "notes": [
        63,
        67,
        70
      ],
      "duration": 1.7272727272727273
    },
    {
      "time": 50.09090909090909,
      "notes": [
        61,
        65,
        68
      ],
      "duration": 1.7272727272727273
    },
    {
      "time": 51.81818181818182,
      "notes": [
        60,
        64,
        67
      ],
      "duration": 1.7272727272727273
    },
    {
      "time": 53.54545454545455,
      "notes": [
        62,
        66,
        69
      ],
      "duration": 1.7272727272727273
    },
    {
      "time": 55.27272727272727,
      "notes": [
        60,
        64,
        67
      ],
      "duration": 1.7272727272727273
    }
  ]
}