{
  "title": "Tonta",
  "artist": "Comanche",
  "bpm": 120,
  "duration": 28.5,
  "audioFile": "",
  "notes": [
    {
      "time": 0.0,
      "note": 84,
      "duration": 0.375,
      "velocity": 100
    },
    {
      "time": 0.375,
      "note": 84,
      "duration": 0.125,
      "velocity": 100
    },
    {
      "time": 0.5,
      "note": 84,
      "duration": 0.125,
      "velocity": 100
    },
    {
      "time": 0.625,
      "note": 82,
      "duration": 0.125,
      "velocity": 100
    },
    {
      "time": 0.75,
      "note": 79,
      "duration": 0.125,
      "velocity": 100
    },
    {
      "time": 0.875,
      "note": 82,
      "duration": 0.125,
      "velocity": 100
    },
    {
      "time": 1.0,
      "note": 84,
      "duration": 0.25,
      "velocity": 100
    },
    {
      "time": 1.25,
      "note": 87,
      "duration": 0.25,
      "velocity": 100
    },
    {
      "time": 1.5,
      "note": 84,
      "duration": 0.5,
      "velocity": 100
    },
    {
      "time": 2.0,
      "note": 84,
      "duration": 0.375,
      "velocity": 100
    },
    {
      "time": 2.375,
      "note": 84,
      "duration": 0.125,
      "velocity": 100
    },
    {
      "time": 2.5,
      "note": 84,
      "duration": 0.125,
      "velocity": 100
    },
    {
      "time": 2.625,
      "note": 82,
      "duration": 0.125,
      "velocity": 100
    },
    {
      "time": 2.75,
      "note": 79,
      "duration": 0.125,
      "velocity": 100
    },
    {
      "time": 2.875,
      "note": 82,
      "duration": 0.125,
      "velocity": 100
    },
    {
      "time": 3.0,
      "note": 84,
      "duration": 0.25,
      "velocity": 100
    },
    {
      "time": 3.25,
      "note": 87,
      "duration": 0.25,
      "velocity": 100
    },
    {
      "time": 3.5,
      "note": 84,
      "duration": 0.5,
      "velocity": 100
    },
    {
      "time": 4.0,
      "note": 82,
      "duration": 0.375,
      "velocity": 100
    },
    {
      "time": 4.375,
      "note": 82,
      "duration": 0.125,
      "velocity": 100
    },
    {
      "time": 4.5,
      "note": 82,
      "duration": 0.125,
      "velocity": 100
    },
    {
      "time": 4.625,
      "note": 79,
      "duration": 0.125,
      "velocity": 100
    },
    {
      "time": 4.75,
      "note": 77,
      "duration": 0.125,
      "velocity": 100
    },
    {
      "time": 4.875,
      "note": 79,
      "duration": 0.125,
      "velocity": 100
    },
    {
      "time": 5.0,
      "note": 82,
      "duration": 0.25,
      "velocity": 100
    },
    {
      "time": 5.25,
      "note": 86,
      "duration": 0.25,
      "velocity": 100
    },
    {
      "time": 5.5,
      "note": 82,
      "duration": 0.5,
      "velocity": 100
    },
    {
      "time": 6.0,
      "note": 82,
      "duration": 0.375,
      "velocity": 100
    },
    {
      "time": 6.375,
      "note": 82,
      "duration": 0.125,
      "velocity": 100
    },
    {
      "time": 6.5,
      "note": 82,
      "duration": 0.125,
      "velocity": 100
    },
    {
      "time": 6.625,
      "note": 79,
      "duration": 0.125,
      "velocity": 100
    },
    {
      "time": 6.75,
      "note": 77,
      "duration": 0.125,
      "velocity": 100
    },
    {
      "time": 6.875,
      "note": 79,
      "duration": 0.125,
      "velocity": 100
    },
    {
      "time": 7.0,
      "note": 82,
      "duration": 0.25,
      "velocity": 100
    },
    {
      "time": 7.25,
      "note": 86,
      "duration": 0.25,
      "velocity": 100
    },
    {
      "time": 7.5,
      "note": 82,
      "duration": 0.5,
      "velocity": 100
    },
    {
      "time": 8.0,
      "note": 81,
      "duration": 2.0,
      "velocity": 100
    },
    {
      "time": 8.0,
      "note": 89,
      "duration": 0.25,
      "velocity": 100
    },
    {
      "time": 8.25,
      "note": 86,
      "duration": 0.125,
      "velocity": 100
    },
    {
      "time": 8.375,
      "note": 86,
      "duration": 0.125,
      "velocity": 100
    },
    {
      "time": 8.5,
      "note": 86,
      "duration": 0.125,
      "velocity": 100
    },
    {
      "time": 8.625,
      "note": 84,
      "duration": 0.125,
      "velocity": 100
    },
    {
      "time": 8.75,
      "note": 86,
      "duration": 0.25,
      "velocity": 100
    },
    {
      "time": 9.0,
      "note": 86,
      "duration": 0.25,
      "velocity": 100
    },
    {
      "time": 9.25,
      "note": 84,
      "duration": 0.125,
      "velocity": 100
    },
    {
      "time": 9.375,
      "note": 86,
      "duration": 0.125,
      "velocity": 100
    },
    {
      "time": 9.5,
      "note": 86,
      "duration": 0.125,
      "velocity": 100
    },
    {
      "time": 9.625,
      "note": 84,
      "duration": 0.125,
      "velocity": 100
    },
    {
      "time": 9.75,
      "note": 86,
      "duration": 0.25,
      "velocity": 100
    },
    {
      "time": 10.0,
      "note": 84,
      "duration": 0.5,
      "velocity": 100
    },
    {
      "time": 10.5,
      "note": 82,
      "duration": 0.5,
      "velocity": 100
    },
    {
      "time": 11.25,
      "note": 82,
      "duration": 0.125,
      "velocity": 100
    },
    {
      "time": 11.375,
      "note": 82,
      "duration": 0.125,
      "velocity": 100
    },
    {
      "time": 11.625,
      "note": 79,
      "duration": 0.125,
      "velocity": 100
    },
    {
      "time": 11.75,
      "note": 82,
      "duration": 0.25,
      "velocity": 100
    },
    {
      "time": 12.0,
      "note": 86,
      "duration": 0.25,
      "velocity": 100
    },
    {
      "time": 12.25,
      "note": 84,
      "duration": 0.25,
      "velocity": 100
    },
    {
      "time": 12.5,
      "note": 82,
      "duration": 0.25,
      "velocity": 100
    },
    {
      "time": 12.75,
      "note": 84,
      "duration": 0.25,
      "velocity": 100
    },
    {
      "time": 13.25,
      "note": 82,
      "duration": 0.125,
      "velocity": 100
    },
    {
      "time": 13.375,
      "note": 82,
      "duration": 0.125,
      "velocity": 100
    },
    {
      "time": 13.625,
      "note": 79,
      "duration": 0.125,
      "velocity": 100
    },
    {
      "time": 13.75,
      "note": 82,
      "duration": 0.25,
      "velocity": 100
    },
    {
      "time": 14.0,
      "note": 86,
      "duration": 0.5,
      "velocity": 100
    },
    {
      "time": 14.5,
      "note": 84,
      "duration": 0.5,
      "velocity": 100
    },
    {
      "time": 15.5,
      "note": 82,
      "duration": 0.125,
      "velocity": 100
    },
    {
      "time": 15.625,
      "note": 82,
      "duration": 0.125,
      "velocity": 100
    },
    {
      "time": 15.875,
      "note": 79,
      "duration": 0.125,
      "velocity": 100
    },
    {
      "time": 16.0,
      "note": 82,
      "duration": 0.25,
      "velocity": 100
    },
    {
      "time": 16.25,
      "note": 86,
      "duration": 0.25,
      "velocity": 100
    },
    {
      "time": 16.5,
      "note": 84,
      "duration": 0.25,
      "velocity": 100
    },
    {
      "time": 16.75,
      "note": 82,
      "duration": 0.25,
      "velocity": 100
    },
    {
      "time": 17.0,
      "note": 84,
      "duration": 0.25,
      "velocity": 100
    },
    {
      "time": 17.5,
      "note": 86,
      "duration": 0.125,
      "velocity": 100
    },
    {
      "time": 17.625,
      "note": 84,
      "duration": 0.125,
      "velocity": 100
    },
    {
      "time": 17.875,
      "note": 82,
      "duration": 0.125,
      "velocity": 100
    },
    {
      "time": 18.0,
      "note": 84,
      "duration": 0.25,
      "velocity": 100
    },
    {
      "time": 18.25,
      "note": 77,
      "duration": 0.5,
      "velocity": 100
    },
    {
      "time": 18.75,
      "note": 77,
      "duration": 0.5,
      "velocity": 100
    },
    {
      "time": 19.25,
      "note": 77,
      "duration": 0.125,
      "velocity": 100
    },
    {
      "time": 19.375,
      "note": 81,
      "duration": 0.125,
      "velocity": 100
    },
    {
      "time": 19.375,
      "note": 77,
      "duration": 0.25,
      "velocity": 100
    },
    {
      "time": 19.625,
      "note": 81,
      "duration": 0.25,
      "velocity": 100
    },
    {
      "time": 19.625,
      "note": 77,
      "duration": 0.125,
      "velocity": 100
    },
    {
      "time": 19.75,
      "note": 81,
      "duration": 0.125,
      "velocity": 100
    },
    {
      "time": 19.75,
      "note": 77,
      "duration": 0.25,
      "velocity": 100
    },
    {
      "time": 20.0,
      "note": 81,
      "duration": 0.25,
      "velocity": 100
    },
    {
      "time": 20.0,
      "note": 77,
      "duration": 0.25,
      "velocity": 100
    },
    {
      "time": 20.25,
      "note": 81,
      "duration": 0.25,
      "velocity": 100
    },
    {
      "time": 20.25,
      "note": 77,
      "duration": 1.0,
      "velocity": 100
    },
    {
      "time": 21.25,
      "note": 87,
      "duration": 1.0,
      "velocity": 100
    },
    {
      "time": 20.25,
      "note": 87,
      "duration": 0.125,
      "velocity": 100
    },
    {
      "time": 20.375,
      "note": 84,
      "duration": 0.125,
      "velocity": 100
    },
    {
      "time": 20.5,
      "note": 87,
      "duration": 0.125,
      "velocity": 100
    },
    {
      "time": 20.625,
      "note": 84,
      "duration": 0.125,
      "velocity": 100
    },
    {
      "time": 20.75,
      "note": 87,
      "duration": 0.125,
      "velocity": 100
    },
    {
      "time": 20.875,
      "note": 84,
      "duration": 0.125,
      "velocity": 100
    },
    {
      "time": 21.0,
      "note": 87,
      "duration": 0.125,
      "velocity": 100
    },
    {
      "time": 21.125,
      "note": 84,
      "duration": 0.125,
      "velocity": 100
    },
    {
      "time": 21.25,
      "note": 87,
      "duration": 0.125,
      "velocity": 100
    },
    {
      "time": 21.375,
      "note": 84,
      "duration": 0.125,
      "velocity": 100
    },
    {
      "time": 21.5,
      "note": 87,
      "duration": 0.125,
      "velocity": 100
    },
    {
      "time": 21.625,
      "note": 84,
      "duration": 0.125,
      "velocity": 100
    },
    {
      "time": 21.75,
      "note": 87,
      "duration": 0.125,
      "velocity": 100
    },
    {
      "time": 21.875,
      "note": 84,
      "duration": 0.125,
      "velocity": 100
    },
    {
      "time": 22.0,
      "note": 84,
      "duration": 0.125,
      "velocity": 100
    },
    {
      "time": 22.125,
      "note": 84,
      "duration": 0.125,
      "velocity": 100
    },
    {
      "time": 22.25,
      "note": 84,
      "duration": 0.375,
      "velocity": 100
    },
    {
      "time": 22.625,
      "note": 82,
      "duration": 0.125,
      "velocity": 100
    },
    {
      "time": 22.75,
      "note": 82,
      "duration": 0.5,
      "velocity": 100
    },
    {
      "time": 23.25,
      "note": 82,
      "duration": 0.375,
      "velocity": 100
    },
    {
      "time": 23.625,
      "note": 82,
      "duration": 0.125,
      "velocity": 100
    },
    {
      "time": 23.75,
      "note": 82,
      "duration": 0.5,
      "velocity": 100
    },
    {
      "time": 24.5,
      "note": 84,
      "duration": 0.125,
      "velocity": 100
    },
    {
      "time": 24.625,
      "note": 84,
      "duration": 0.125,
      "velocity": 100
    },
    {
      "time": 24.75,
      "note": 86,
      "duration": 0.125,
      "velocity": 100
    },
    {
      "time": 24.875,
      "note": 87,
      "duration": 0.125,
      "velocity": 100
    },
    {
      "time": 25.125,
      "note": 79,
      "duration": 0.125,
      "velocity": 100
    },
    {
      "time": 25.25,
      "note": 84,
      "duration": 0.125,
      "velocity": 100
    },
    {
      "time": 25.375,
      "note": 87,
      "duration": 0.125,
      "velocity": 100
    },
    {
      "time": 25.5,
      "note": 84,
      "duration": 0.125,
      "velocity": 100
    },
    {
      "time": 25.625,
      "note": 84,
      "duration": 0.125,
      "velocity": 100
    },
    {
      "time": 25.75,
      "note": 86,
      "duration": 0.125,
      "velocity": 100
    },
    {
      "time": 25.875,
      "note": 87,
      "duration": 0.125,
      "velocity": 100
    },
    {
      "time": 26.125,
      "note": 79,
      "duration": 0.125,
      "velocity": 100
    },
    {
      "time": 26.25,
      "note": 84,
      "duration": 0.125,
      "velocity": 100
    },
    {
      "time": 26.375,
      "note": 87,
      "duration": 0.125,
      "velocity": 100
    },
    {
      "time": 26.5,
      "note": 86,
      "duration": 0.125,
      "velocity": 100
    },
    {
      "time": 26.625,
      "note": 86,
      "duration": 0.125,
      "velocity": 100
    },
    {
      "time": 26.75,
      "note": 84,
      "duration": 0.125,
      "velocity": 100
    },
    {
      "time": 26.875,
      "note": 82,
      "duration": 0.125,
      "velocity": 100
    },
    {
      "time": 27.125,
      "note": 86,
      "duration": 0.125,
      "velocity": 100
    },
    {
      "time": 27.25,
      "note": 82,
      "duration": 0.125,
      "velocity": 100
    },
    {
      "time": 27.375,
      "note": 77,
      "duration": 0.125,
      "velocity": 100
    },
    {
      "time": 27.5,
      "note": 86,
      "duration": 0.125,
      "velocity": 100
    },
    {
      "time": 27.625,
      "note": 86,
      "duration": 0.125,
      "velocity": 100
    },
    {
      "time": 27.75,
      "note": 84,
      "duration": 0.125,
      "velocity": 100
    },
    {
      "time": 27.875,
      "note": 82,
      "duration": 0.125,
      "velocity": 100
    },
    {
      "time": 28.125,
      "note": 86,
      "duration": 0.125,
      "velocity": 100
    },
    {
      "time": 28.25,
      "note": 82,
      "duration": 0.125,
      "velocity": 100
    },
    {
      "time": 28.375,
      "note": 77,
      "duration": 0.125,
      "velocity": 100
    }
  ],
  "chords": [
    {
      "time": 0.0,
      "notes": [
        60,
        63,
        67
      ],
      "duration": 1.6764705882352942
    },
    {
      "time": 1.6764705882352942,
      "notes": [
        67,
        70,
        74
      ],
      "duration": 1.6764705882352942
    },
    {
      "time": 3.3529411764705883,
      "notes": [
        70,
        74,
        77
      ],
      "duration": 1.6764705882352942
    },
    {
      "time": 5.029411764705882,
      "notes": [
        65,
        69,
        72
      ],
      "duration": 1.6764705882352942
    },
    {
      "time": 6.705882352941177,
      "notes": [
        70,
        74,
        77
      ],
      "duration": 1.6764705882352942
    },
    {
      "time": 8.382352941176471,
      "notes": [
        63,
        67,
        70
      ],
      "duration": 1.6764705882352942
    },
    {
      "time": 10.058823529411764,
      "notes": [
        65,
        69,
        72
      ],
      "duration": 1.6764705882352942
    },
    {
      "time": 11.73529411764706,
      "notes": [
        63,
        67,
        70
      ],
      "duration": 1.6764705882352942
    },
    {
      "time": 13.411764705882353,
      "notes": [
        65,
        69,
        72
      ],
      "duration": 1.6764705882352942
    },
    {
      "time": 15.088235294117647,
      "notes": [
        63,
        67,
        70
      ],
      "duration": 1.6764705882352942
    },
    {
      "time": 16.764705882352942,
      "notes": [
        65,
        69,
        72
      ],
      "duration": 1.6764705882352942
    },
    {
      "time": 18.441176470588236,
      "notes": [
        63,
        67,
        70
      ],
      "duration": 1.6764705882352942
    },
    {
      "time": 20.11764705882353,
      "notes": [
        65,
        69,
        72
      ],
      "duration": 1.6764705882352942
    },
    {
      "time": 21.794117647058822,
      "notes": [
        60,
        63,
        67
      ],
      "duration": 1.6764705882352942
    },
    {
      "time": 23.47058823529412,
      "notes": [
        70,
        74,
        77
      ],
      "duration": 1.6764705882352942
    },
    {
      "time": 25.147058823529413,
      "notes": [
        60,
        63,
        67
      ],
      "duration": 1.6764705882352942
    },
    {
      "time": 26.823529411764707,
      "notes": [
        70,
        74,
        77
      ],
      "duration": 1.6764705882352942
    }
  ]
}