{
  "title": "La mano de Dios",
  "artist": "Rodrigo",
  "bpm": 120,
  "duration": 85.75,
  "audioFile": "",
  "notes": [
    {
      "time": 0.375,
      "note": 84,
      "duration": 1.0,
      "velocity": 100
    },
    {
      "time": 1.625,
      "note": 72,
      "duration": 0.25,
      "velocity": 100
    },
    {
      "time": 1.875,
      "note": 77,
      "duration": 0.25,
      "velocity": 100
    },
    {
      "time": 2.125,
      "note": 79,
      "duration": 0.25,
      "velocity": 100
    },
    {
      "time": 2.375,
      "note": 81,
      "duration": 0.25,
      "velocity": 100
    },
    {
      "time": 2.625,
      "note": 79,
      "duration": 0.25,
      "velocity": 100
    },
    {
      "time": 2.875,
      "note": 77,
      "duration": 0.25,
      "velocity": 100
    },
    {
      "time": 3.125,
      "note": 79,
      "duration": 0.125,
      "velocity": 100
    },
    {
      "time": 3.25,
      "note": 81,
      "duration": 0.125,
      "velocity": 100
    },
    {
      "time": 3.375,
      "note": 81,
      "duration": 1.0,
      "velocity": 100
    },
    {
      "time": 4.625,
      "note": 81,
      "duration": 0.25,
      "velocity": 100
    },
    {
      "time": 4.875,
      "note": 79,
      "duration": 0.25,
      "velocity": 100
    },
    {
      "time": 5.125,
      "note": 77,
      "duration": 0.25,
      "velocity": 100
    },
    {
      "time": 3.625,
      "note": 77,
      "duration": 0.25,
      "velocity": 100
    },
    {
      "time": 3.875,
      "note": 79,
      "duration": 0.25,
      "velocity": 100
    },
    {
      "time": 4.125,
      "note": 81,
      "duration": 0.25,
      "velocity": 100
    },
    {
      "time": 4.625,
      "note": 72,
      "duration": 0.25,
      "velocity": 100
    },
    {
      "time": 4.875,
      "note": 77,
      "duration": 0.25,
      "velocity": 100
    },
    {
      "time": 5.125,
      "note": 79,
      "duration": 0.25,
      "velocity": 100
    },
    {
      "time": 5.375,
      "note": 81,
      "duration": 0.25,
      "velocity": 100
    },
    {
      "time": 5.625,
      "note": 79,
      "duration": 0.25,
      "velocity": 100
    },
    {
      "time": 5.875,
      "note": 77,
      "duration": 0.25,
      "velocity": 100
    },
    {
      "time": 6.125,
      "note": 86,
      "duration": 0.25,
      "velocity": 100
    },
    {
      "time": 4.375,
      "note": 77,
      "duration": 1.0,
      "velocity": 100
    },
    {
      "time": 5.375,
      "note": 86,
      "duration": 1.0,
      "velocity": 100
    },
    {
      "time": 5.625,
      "note": 70,
      "duration": 0.25,
      "velocity": 100
    },
    {
      "time": 5.875,
      "note": 72,
      "duration": 0.25,
      "velocity": 100
    },
    {
      "time": 6.125,
      "note": 74,
      "duration": 0.25,
      "velocity": 100
    },
    {
      "time": 6.625,
      "note": 74,
      "duration": 0.25,
      "velocity": 100
    },
    {
      "time": 6.875,
      "note": 72,
      "duration": 0.25,
      "velocity": 100
    },
    {
      "time": 7.125,
      "note": 70,
      "duration": 0.25,
      "velocity": 100
    },
    {
      "time": 7.625,
      "note": 77,
      "duration": 0.25,
      "velocity": 100
    },
    {
      "time": 7.875,
      "note": 82,
      "duration": 0.25,
      "velocity": 100
    },
    {
      "time": 8.125,
      "note": 84,
      "duration": 0.25,
      "velocity": 100
    },
    {
      "time": 8.375,
      "note": 86,
      "duration": 0.25,
      "velocity": 100
    },
    {
      "time": 8.625,
      "note": 84,
      "duration": 0.25,
      "velocity": 100
    },
    {
      "time": 8.875,
      "note": 82,
      "duration": 0.25,
      "velocity": 100
    },
    {
      "time": 9.125,
      "note": 88,
      "duration": 0.25,
      "velocity": 100
    },
    {
      "time": 7.375,
      "note": 70,
      "duration": 1.0,
      "velocity": 100
    },
    {
      "time": 8.375,
      "note": 87,
      "duration": 1.0,
      "velocity": 100
    },
    {
      "time": 8.625,
      "note": 70,
      "duration": 0.25,
      "velocity": 100
    },
    {
      "time": 8.875,
      "note": 72,
      "duration": 0.25,
      "velocity": 100
    },
    {
      "time": 9.125,
      "note": 74,
      "duration": 0.25,
      "velocity": 100
    },
    {
      "time": 9.625,
      "note": 74,
      "duration": 0.25,
      "velocity": 100
    },
    {
      "time": 9.875,
      "note": 72,
      "duration": 0.25,
      "velocity": 100
    },
    {
      "time": 10.125,
      "note": 70,
      "duration": 0.25,
      "velocity": 100
    },
    {
      "time": 10.625,
      "note": 87,
      "duration": 0.25,
      "velocity": 100
    },
    {
      "time": 10.875,
      "note": 87,
      "duration": 0.25,
      "velocity": 100
    },
    {
      "time": 11.125,
      "note": 86,
      "duration": 0.25,
      "velocity": 100
    },
    {
      "time": 11.375,
      "note": 86,
      "duration": 0.25,
      "velocity": 100
    },
    {
      "time": 11.625,
      "note": 82,
      "duration": 0.25,
      "velocity": 100
    },
    {
      "time": 11.875,
      "note": 82,
      "duration": 0.25,
      "velocity": 100
    },
    {
      "time": 12.125,
      "note": 84,
      "duration": 0.25,
      "velocity": 100
    },
    {
      "time": 10.375,
      "note": 70,
      "duration": 1.0,
      "velocity": 100
    },
    {
      "time": 11.375,
      "note": 84,
      "duration": 1.0,
      "velocity": 100
    },
    {
      "time": 12.875,
      "note": 84,
      "duration": 0.125,
      "velocity": 100
    },
    {
      "time": 13.0,
      "note": 86,
      "duration": 0.125,
      "velocity": 100
    },
    {
      "time": 13.125,
      "note": 84,
      "duration": 0.125,
      "velocity": 100
    },
    {
      "time": 13.25,
      "note": 83,
      "duration": 0.125,
      "velocity": 100
    },
    {
      "time": 13.375,
      "note": 84,
      "duration": 1.0,
      "velocity": 100
    },
    {
      "time": 15.125,
      "note": 91,
      "duration": 0.125,
      "velocity": 100
    },
    {
      "time": 15.25,
      "note": 89,
      "duration": 0.125,
      "velocity": 100
    },
    {
      "time": 15.375,
      "note": 91,
      "duration": 0.125,
      "velocity": 100
    },
    {
      "time": 15.5,
      "note": 89,
      "duration": 0.25,
      "velocity": 100
    },
    {
      "time": 15.75,
      "note": 91,
      "duration": 0.125,
      "velocity": 100
    },
    {
      "time": 16.0,
      "note": 89,
      "duration": 0.125,
      "velocity": 100
    },
    {
      "time": 16.125,
      "note": 91,
      "duration": 0.25,
      "velocity": 100
    },
    {
      "time": 16.375,
      "note": 91,
      "duration": 0.5,
      "velocity": 100
    },
    {
      "time": 16.875,
      "note": 91,
      "duration": 0.125,
      "velocity": 100
    },
    {
      "time": 17.0,
      "note": 93,
      "duration": 0.125,
      "velocity": 100
    },
    {
      "time": 17.125,
      "note": 91,
      "duration": 0.125,
      "velocity": 100
    },
    {
      "time": 17.25,
      "note": 89,
      "duration": 0.125,
      "velocity": 100
    },
    {
      "time": 17.375,
      "note": 91,
      "duration": 0.125,
      "velocity": 100
    },
    {
      "time": 17.5,
      "note": 89,
      "duration": 0.25,
      "velocity": 100
    },
    {
      "time": 17.75,
      "note": 91,
      "duration": 0.125,
      "velocity": 100
    },
    {
      "time": 18.0,
      "note": 89,
      "duration": 0.125,
      "velocity": 100
    },
    {
      "time": 18.125,
      "note": 91,
      "duration": 0.25,
      "velocity": 100
    },
    {
      "time": 18.375,
      "note": 91,
      "duration": 0.75,
      "velocity": 100
    },
    {
      "time": 19.125,
      "note": 79,
      "duration": 0.5,
      "velocity": 100
    },
    {
      "time": 19.625,
      "note": 89,
      "duration": 0.5,
      "velocity": 100
    },
    {
      "time": 19.625,
      "note": 86,
      "duration": 0.125,
      "velocity": 100
    },
    {
      "time": 19.75,
      "note": 84,
      "duration": 0.25,
      "velocity": 100
    },
    {
      "time": 20.0,
      "note": 86,
      "duration": 0.125,
      "velocity": 100
    },
    {
      "time": 20.25,
      "note": 84,
      "duration": 0.125,
      "velocity": 100
    },
    {
      "time": 20.375,
      "note": 86,
      "duration": 0.25,
      "velocity": 100
    },
    {
      "time": 20.625,
      "note": 86,
      "duration": 0.75,
      "velocity": 100
    },
    {
      "time": 21.375,
      "note": 86,
      "duration": 0.125,
      "velocity": 100
    },
    {
      "time": 21.5,
      "note": 84,
      "duration": 0.125,
      "velocity": 100
    },
    {
      "time": 21.625,
      "note": 85,
      "duration": 0.125,
      "velocity": 100
    },
    {
      "time": 21.75,
      "note": 84,
      "duration": 0.25,
      "velocity": 100
    },
    {
      "time": 22.0,
      "note": 85,
      "duration": 0.125,
      "velocity": 100
    },
    {
      "time": 22.25,
      "note": 84,
      "duration": 0.125,
      "velocity": 100
    },
    {
      "time": 22.375,
      "note": 85,
      "duration": 0.25,
      "velocity": 100
    },
    {
      "time": 22.625,
      "note": 85,
      "duration": 0.75,
      "velocity": 100
    },
    {
      "time": 23.375,
      "note": 84,
      "duration": 0.125,
      "velocity": 100
    },
    {
      "time": 23.5,
      "note": 85,
      "duration": 0.125,
      "velocity": 100
    },
    {
      "time": 23.625,
      "note": 87,
      "duration": 0.125,
      "velocity": 100
    },
    {
      "time": 23.75,
      "note": 86,
      "duration": 0.25,
      "velocity": 100
    },
    {
      "time": 24.0,
      "note": 87,
      "duration": 0.125,
      "velocity": 100
    },
    {
      "time": 24.25,
      "note": 86,
      "duration": 0.125,
      "velocity": 100
    },
    {
      "time": 24.375,
      "note": 87,
      "duration": 0.25,
      "velocity": 100
    },
    {
      "time": 24.625,
      "note": 87,
      "duration": 1.0,
      "velocity": 100
    },
    {
      "time": 25.625,
      "note": 87,
      "duration": 0.125,
      "velocity": 100
    },
    {
      "time": 25.75,
      "note": 86,
      "duration": 0.25,
      "velocity": 100
    },
    {
      "time": 26.0,
      "note": 87,
      "duration": 0.125,
      "velocity": 100
    },
    {
      "time": 26.25,
      "note": 86,
      "duration": 0.125,
      "velocity": 100
    },
    {
      "time": 26.375,
      "note": 87,
      "duration": 0.25,
      "velocity": 100
    },
    {
      "time": 26.625,
      "note": 87,
      "duration": 0.5,
      "velocity": 100
    },
    {
      "time": 27.125,
      "note": 75,
      "duration": 0.5,
      "velocity": 100
    },
    {
      "time": 27.625,
      "note": 86,
      "duration": 0.5,
      "velocity": 100
    },
    {
      "time": 25.625,
      "note": 84,
      "duration": 0.125,
      "velocity": 100
    },
    {
      "time": 25.75,
      "note": 86,
      "duration": 0.125,
      "velocity": 100
    },
    {
      "time": 25.875,
      "note": 84,
      "duration": 0.25,
      "velocity": 100
    },
    {
      "time": 26.125,
      "note": 84,
      "duration": 1.0,
      "velocity": 100
    },
    {
      "time": 27.125,
      "note": 84,
      "duration": 0.125,
      "velocity": 100
    },
    {
      "time": 27.25,
      "note": 86,
      "duration": 0.125,
      "velocity": 100
    },
    {
      "time": 27.375,
      "note": 84,
      "duration": 0.125,
      "velocity": 100
    },
    {
      "time": 27.5,
      "note": 86,
      "duration": 0.125,
      "velocity": 100
    },
    {
      "time": 27.625,
      "note": 84,
      "duration": 0.125,
      "velocity": 100
    },
    {
      "time": 27.75,
      "note": 86,
      "duration": 0.125,
      "velocity": 100
    },
    {
      "time": 27.875,
      "note": 84,
      "duration": 0.25,
      "velocity": 100
    },
    {
      "time": 28.125,
      "note": 84,
      "duration": 1.0,
      "velocity": 100
    },
    {
      "time": 29.125,
      "note": 86,
      "duration": 0.125,
      "velocity": 100
    },
    {
      "time": 29.25,
      "note": 84,
      "duration": 0.125,
      "velocity": 100
    },
    {
      "time": 29.375,
      "note": 86,
      "duration": 0.25,
      "velocity": 100
    },
    {
      "time": 28.5,
      "note": 72,
      "duration": 0.25,
      "velocity": 100
    },
    {
      "time": 28.75,
      "note": 81,
      "duration": 0.25,
      "velocity": 100
    },
    {
      "time": 29.0,
      "note": 81,
      "duration": 0.25,
      "velocity": 100
    },
    {
      "time": 29.25,
      "note": 81,
      "duration": 0.25,
      "velocity": 100
    },
    {
      "time": 29.5,
      "note": 79,
      "duration": 0.25,
      "velocity": 100
    },
    {
      "time": 29.75,
      "note": 77,
      "duration": 0.25,
      "velocity": 100
    },
    {
      "time": 30.0,
      "note": 81,
      "duration": 0.25,
      "velocity": 100
    },
    {
      "time": 30.25,
      "note": 81,
      "duration": 0.5,
      "velocity": 100
    },
    {
      "time": 30.75,
      "note": 81,
      "duration": 0.25,
      "velocity": 100
    },
    {
      "time": 31.0,
      "note": 81,
      "duration": 0.25,
      "velocity": 100
    },
    {
      "time": 31.25,
      "note": 81,
      "duration": 0.25,
      "velocity": 100
    },
    {
      "time": 31.5,
      "note": 79,
      "duration": 0.25,
      "velocity": 100
    },
    {
      "time": 31.75,
      "note": 77,
      "duration": 0.25,
      "velocity": 100
    },
    {
      "time": 32.0,
      "note": 81,
      "duration": 0.25,
      "velocity": 100
    },
    {
      "time": 32.25,
      "note": 81,
      "duration": 0.25,
      "velocity": 100
    },
    {
      "time": 32.5,
      "note": 81,
      "duration": 0.25,
      "velocity": 100
    },
    {
      "time": 32.75,
      "note": 81,
      "duration": 0.25,
      "velocity": 100
    },
    {
      "time": 33.0,
      "note": 81,
      "duration": 0.25,
      "velocity": 100
    },
    {
      "time": 33.25,
      "note": 81,
      "duration": 0.25,
      "velocity": 100
    },
    {
      "time": 33.5,
      "note": 81,
      "duration": 0.25,
      "velocity": 100
    },
    {
      "time": 33.75,
      "note": 82,
      "duration": 0.25,
      "velocity": 100
    },
    {
      "time": 34.0,
      "note": 82,
      "duration": 0.25,
      "velocity": 100
    },
    {
      "time": 34.25,
      "note": 82,
      "duration": 0.5,
      "velocity": 100
    },
    {
      "time": 34.75,
      "note": 82,
      "duration": 0.25,
      "velocity": 100
    },
    {
      "time": 35.0,
      "note": 82,
      "duration": 0.25,
      "velocity": 100
    },
    {
      "time": 35.25,
      "note": 82,
      "duration": 0.25,
      "velocity": 100
    },
    {
      "time": 35.5,
      "note": 82,
      "duration": 0.25,
      "velocity": 100
    },
    {
      "time": 35.75,
      "note": 82,
      "duration": 0.25,
      "velocity": 100
    },
    {
      "time": 36.0,
      "note": 82,
      "duration": 0.25,
      "velocity": 100
    },
    {
      "time": 36.25,
      "note": 82,
      "duration": 0.25,
      "velocity": 100
    },
    {
      "time": 36.5,
      "note": 82,
      "duration": 0.25,
      "velocity": 100
    },
    {
      "time": 36.75,
      "note": 82,
      "duration": 0.25,
      "velocity": 100
    },
    {
      "time": 37.0,
      "note": 82,
      "duration": 0.25,
      "velocity": 100
    },
    {
      "time": 37.25,
      "note": 82,
      "duration": 0.25,
      "velocity": 100
    },
    {
      "time": 37.5,
      "note": 82,
      "duration": 0.25,
      "velocity": 100
    },
    {
      "time": 37.75,
      "note": 82,
      "duration": 0.25,
      "velocity": 100
    },
    {
      "time": 38.0,
      "note": 82,
      "duration": 0.25,
      "velocity": 100
    },
    {
      "time": 38.25,
      "note": 82,
      "duration": 0.5,
      "velocity": 100
    },
    {
      "time": 39.0,
      "note": 82,
      "duration": 0.125,
      "velocity": 100
    },
    {
      "time": 39.125,
      "note": 82,
      "duration": 0.125,
      "velocity": 100
    },
    {
      "time": 39.25,
      "note": 82,
      "duration": 0.25,
      "velocity": 100
    },
    {
      "time": 39.5,
      "note": 82,
      "duration": 0.25,
      "velocity": 100
    },
    {
      "time": 39.75,
      "note": 82,
      "duration": 0.25,
      "velocity": 100
    },
    {
      "time": 40.0,
      "note": 82,
      "duration": 0.25,
      "velocity": 100
    },
    {
      "time": 40.25,
      "note": 82,
      "duration": 0.25,
      "velocity": 100
    },
    {
      "time": 40.5,
      "note": 81,
      "duration": 0.25,
      "velocity": 100
    },
    {
      "time": 40.75,
      "note": 79,
      "duration": 0.25,
      "velocity": 100
    },
    {
      "time": 41.0,
      "note": 81,
      "duration": 0.25,
      "velocity": 100
    },
    {
      "time": 41.25,
      "note": 82,
      "duration": 0.25,
      "velocity": 100
    },
    {
      "time": 41.5,
      "note": 81,
      "duration": 0.25,
      "velocity": 100
    },
    {
      "time": 41.75,
      "note": 79,
      "duration": 0.25,
      "velocity": 100
    },
    {
      "time": 42.0,
      "note": 77,
      "duration": 0.25,
      "velocity": 100
    },
    {
      "time": 42.25,
      "note": 77,
      "duration": 0.25,
      "velocity": 100
    },
    {
      "time": 42.5,
      "note": 79,
      "duration": 0.25,
      "velocity": 100
    },
    {
      "time": 42.75,
      "note": 79,
      "duration": 1.0,
      "velocity": 100
    },
    {
      "time": 43.75,
      "note": 81,
      "duration": 1.0,
      "velocity": 100
    },
    {
      "time": 43.75,
      "note": 79,
      "duration": 0.5,
      "velocity": 100
    },
    {
      "time": 46.0,
      "note": 85,
      "duration": 0.25,
      "velocity": 100
    },
    {
      "time": 46.25,
      "note": 87,
      "duration": 0.25,
      "velocity": 100
    },
    {
      "time": 46.5,
      "note": 85,
      "duration": 0.25,
      "velocity": 100
    },
    {
      "time": 46.75,
      "note": 84,
      "duration": 0.25,
      "velocity": 100
    },
    {
      "time": 47.25,
      "note": 82,
      "duration": 0.25,
      "velocity": 100
    },
    {
      "time": 47.5,
      "note": 81,
      "duration": 0.25,
      "velocity": 100
    },
    {
      "time": 47.75,
      "note": 82,
      "duration": 0.25,
      "velocity": 100
    },
    {
      "time": 48.5,
      "note": 81,
      "duration": 0.25,
      "velocity": 100
    },
    {
      "time": 48.75,
      "note": 79,
      "duration": 0.25,
      "velocity": 100
    },
    {
      "time": 48.0,
      "note": 82,
      "duration": 0.25,
      "velocity": 100
    },
    {
      "time": 48.25,
      "note": 81,
      "duration": 0.25,
      "velocity": 100
    },
    {
      "time": 48.5,
      "note": 81,
      "duration": 1.5,
      "velocity": 100
    },
    {
      "time": 50.0,
      "note": 84,
      "duration": 0.25,
      "velocity": 100
    },
    {
      "time": 50.25,
      "note": 84,
      "duration": 0.25,
      "velocity": 100
    },
    {
      "time": 50.5,
      "note": 82,
      "duration": 0.25,
      "velocity": 100
    },
    {
      "time": 50.75,
      "note": 81,
      "duration": 0.25,
      "velocity": 100
    },
    {
      "time": 51.0,
      "note": 82,
      "duration": 0.25,
      "velocity": 100
    },
    {
      "time": 51.25,
      "note": 84,
      "duration": 0.25,
      "velocity": 100
    },
    {
      "time": 51.5,
      "note": 84,
      "duration": 0.25,
      "velocity": 100
    },
    {
      "time": 52.25,
      "note": 84,
      "duration": 0.25,
      "velocity": 100
    },
    {
      "time": 52.5,
      "note": 84,
      "duration": 0.25,
      "velocity": 100
    },
    {
      "time": 52.75,
      "note": 84,
      "duration": 0.25,
      "velocity": 100
    },
    {
      "time": 53.0,
      "note": 84,
      "duration": 0.25,
      "velocity": 100
    },
    {
      "time": 53.25,
      "note": 84,
      "duration": 0.25,
      "velocity": 100
    },
    {
      "time": 53.5,
      "note": 84,
      "duration": 0.25,
      "velocity": 100
    },
    {
      "time": 53.75,
      "note": 84,
      "duration": 0.25,
      "velocity": 100
    },
    {
      "time": 54.0,
      "note": 84,
      "duration": 0.125,
      "velocity": 100
    },
    {
      "time": 54.25,
      "note": 84,
      "duration": 0.25,
      "velocity": 100
    },
    {
      "time": 54.5,
      "note": 84,
      "duration": 0.25,
      "velocity": 100
    },
    {
      "time": 54.75,
      "note": 84,
      "duration": 0.25,
      "velocity": 100
    },
    {
      "time": 55.25,
      "note": 84,
      "duration": 0.25,
      "velocity": 100
    },
    {
      "time": 55.5,
      "note": 84,
      "duration": 0.25,
      "velocity": 100
    },
    {
      "time": 55.75,
      "note": 84,
      "duration": 0.25,
      "velocity": 100
    },
    {
      "time": 56.0,
      "note": 84,
      "duration": 0.25,
      "velocity": 100
    },
    {
      "time": 56.25,
      "note": 84,
      "duration": 0.25,
      "velocity": 100
    },
    {
      "time": 56.5,
      "note": 84,
      "duration": 0.25,
      "velocity": 100
    },
    {
      "time": 56.75,
      "note": 84,
      "duration": 0.25,
      "velocity": 100
    },
    {
      "time": 57.0,
      "note": 84,
      "duration": 0.25,
      "velocity": 100
    },
    {
      "time": 57.25,
      "note": 87,
      "duration": 0.25,
      "velocity": 100
    },
    {
      "time": 57.5,
      "note": 87,
      "duration": 0.25,
      "velocity": 100
    },
    {
      "time": 57.75,
      "note": 87,
      "duration": 0.25,
      "velocity": 100
    },
    {
      "time": 58.0,
      "note": 87,
      "duration": 0.25,
      "velocity": 100
    },
    {
      "time": 58.25,
      "note": 87,
      "duration": 0.25,
      "velocity": 100
    },
    {
      "time": 58.5,
      "note": 87,
      "duration": 0.25,
      "velocity": 100
    },
    {
      "time": 58.75,
      "note": 87,
      "duration": 0.25,
      "velocity": 100
    },
    {
      "time": 59.0,
      "note": 87,
      "duration": 0.25,
      "velocity": 100
    },
    {
      "time": 59.25,
      "note": 87,
      "duration": 0.25,
      "velocity": 100
    },
    {
      "time": 59.5,
      "note": 87,
      "duration": 0.25,
      "velocity": 100
    },
    {
      "time": 59.75,
      "note": 87,
      "duration": 0.25,
      "velocity": 100
    },
    {
      "time": 60.0,
      "note": 87,
      "duration": 0.25,
      "velocity": 100
    },
    {
      "time": 60.25,
      "note": 87,
      "duration": 0.25,
      "velocity": 100
    },
    {
      "time": 60.5,
      "note": 87,
      "duration": 0.25,
      "velocity": 100
    },
    {
      "time": 60.75,
      "note": 87,
      "duration": 0.25,
      "velocity": 100
    },
    {
      "time": 61.0,
      "note": 87,
      "duration": 0.25,
      "velocity": 100
    },
    {
      "time": 61.25,
      "note": 87,
      "duration": 0.25,
      "velocity": 100
    },
    {
      "time": 61.5,
      "note": 87,
      "duration": 0.25,
      "velocity": 100
    },
    {
      "time": 61.75,
      "note": 87,
      "duration": 0.25,
      "velocity": 100
    },
    {
      "time": 62.0,
      "note": 84,
      "duration": 1.0,
      "velocity": 100
    },
    {
      "time": 63.0,
      "note": 88,
      "duration": 0.25,
      "velocity": 100
    },
    {
      "time": 63.25,
      "note": 86,
      "duration": 0.25,
      "velocity": 100
    },
    {
      "time": 63.5,
      "note": 86,
      "duration": 1.5,
      "velocity": 100
    },
    {
      "time": 65.25,
      "note": 86,
      "duration": 0.25,
      "velocity": 100
    },
    {
      "time": 65.5,
      "note": 86,
      "duration": 0.25,
      "velocity": 100
    },
    {
      "time": 65.75,
      "note": 86,
      "duration": 0.25,
      "velocity": 100
    },
    {
      "time": 66.0,
      "note": 76,
      "duration": 0.5,
      "velocity": 100
    },
    {
      "time": 66.5,
      "note": 86,
      "duration": 0.5,
      "velocity": 100
    },
    {
      "time": 66.5,
      "note": 88,
      "duration": 0.5,
      "velocity": 100
    },
    {
      "time": 65.0,
      "note": 86,
      "duration": 0.5,
      "velocity": 100
    },
    {
      "time": 65.5,
      "note": 84,
      "duration": 1.5,
      "velocity": 100
    },
    {
      "time": 67.25,
      "note": 86,
      "duration": 0.25,
      "velocity": 100
    },
    {
      "time": 67.5,
      "note": 86,
      "duration": 0.25,
      "velocity": 100
    },
    {
      "time": 67.75,
      "note": 86,
      "duration": 0.25,
      "velocity": 100
    },
    {
      "time": 68.0,
      "note": 84,
      "duration": 0.25,
      "velocity": 100
    },
    {
      "time": 68.25,
      "note": 82,
      "duration": 0.25,
      "velocity": 100
    },
    {
      "time": 68.5,
      "note": 81,
      "duration": 0.75,
      "velocity": 100
    },
    {
      "time": 67.0,
      "note": 79,
      "duration": 0.375,
      "velocity": 100
    },
    {
      "time": 67.375,
      "note": 77,
      "duration": 0.125,
      "velocity": 100
    },
    {
      "time": 67.5,
      "note": 77,
      "duration": 1.5,
      "velocity": 100
    },
    {
      "time": 70.5,
      "note": 79,
      "duration": 0.5,
      "velocity": 100
    },
    {
      "time": 71.0,
      "note": 81,
      "duration": 0.75,
      "velocity": 100
    },
    {
      "time": 71.75,
      "note": 79,
      "duration": 0.25,
      "velocity": 100
    },
    {
      "time": 72.0,
      "note": 81,
      "duration": 0.25,
      "velocity": 100
    },
    {
      "time": 72.25,
      "note": 79,
      "duration": 0.25,
      "velocity": 100
    },
    {
      "time": 72.5,
      "note": 81,
      "duration": 0.25,
      "velocity": 100
    },
    {
      "time": 72.75,
      "note": 79,
      "duration": 0.25,
      "velocity": 100
    },
    {
      "time": 73.0,
      "note": 81,
      "duration": 1.5,
      "velocity": 100
    },
    {
      "time": 74.5,
      "note": 84,
      "duration": 0.5,
      "velocity": 100
    },
    {
      "time": 75.0,
      "note": 82,
      "duration": 1.5,
      "velocity": 100
    },
    {
      "time": 76.5,
      "note": 84,
      "duration": 0.5,
      "velocity": 100
    },
    {
      "time": 77.0,
      "note": 82,
      "duration": 1.5,
      "velocity": 100
    },
    {
      "time": 78.5,
      "note": 81,
      "duration": 0.5,
      "velocity": 100
    },
    {
      "time": 79.0,
      "note": 81,
      "duration": 0.25,
      "velocity": 100
    },
    {
      "time": 79.25,
      "note": 82,
      "duration": 0.25,
      "velocity": 100
    },
    {
      "time": 79.5,
      "note": 81,
      "duration": 0.25,
      "velocity": 100
    },
    {
      "time": 79.75,
      "note": 82,
      "duration": 0.25,
      "velocity": 100
    },
    {
      "time": 79.75,
      "note": 81,
      "duration": 0.25,
      "velocity": 100
    },
    {
      "time": 79.0,
      "note": 82,
      "duration": 0.75,
      "velocity": 100
    },
    {
      "time": 79.75,
      "note": 82,
      "duration": 1.5,
      "velocity": 100
    },
    {
      "time": 81.25,
      "note": 86,
      "duration": 0.5,
      "velocity": 100
    },
    {
      "time": 81.75,
      "note": 84,
      "duration": 1.5,
      "velocity": 100
    },
    {
      "time": 83.25,
      "note": 86,
      "duration": 0.5,
      "velocity": 100
    },
    {
      "time": 83.75,
      "note": 84,
      "duration": 1.5,
      "velocity": 100
    },
    {
      "time": 85.25,
      "note": 79,
      "duration": 0.5,
      "velocity": 100
    }
  ],
  "chords": [
    {
      "time": 0.0,
      "notes": [
        65,
        68,
        72
      ],
      "duration": 2.5984848484848486
    },
    {
      "time": 2.5984848484848486,
      "notes": [
        70,
        73,
        77
      ],
      "duration": 2.5984848484848486
    },
    {
      "time": 5.196969696969697,
      "notes": [
        63,
        67,
        70
      ],
      "duration": 2.5984848484848486
    },
    {
      "time": 7.795454545454546,
      "notes": [
        68,
        72,
        75
      ],
      "duration": 2.5984848484848486
    },
    {
      "time": 10.393939393939394,
      "notes": [
        60,
        64,
        67,
        70
      ],
      "duration": 2.5984848484848486
    },
    {
      "time": 12.992424242424242,
      "notes": [
        65,
        68,
        72
      ],
      "duration": 2.5984848484848486
    },
    {
      "time": 15.590909090909092,
      "notes": [
        70,
        73,
        77
      ],
      "duration": 2.5984848484848486
    },
    {
      "time": 18.18939393939394,
      "notes": [
        63,
        67,
        70
      ],
      "duration": 2.5984848484848486
    },
    {
      "time": 20.78787878787879,
      "notes": [
        68,
        72,
        75
      ],
      "duration": 2.5984848484848486
    },
    {
      "time": 23.386363636363637,
      "notes": [
        60,
        64,
        67,
        70
      ],
      "duration": 2.5984848484848486
    },
    {
      "time": 25.984848484848484,
      "notes": [
        65,
        68,
        72
      ],
      "duration": 2.5984848484848486
    },
    {
      "time": 28.583333333333336,
      "notes": [
        71,
        74,
        78
      ],
      "duration": 2.5984848484848486
    },
    {
      "time": 31.181818181818183,
      "notes": [
        63,
        67,
        70
      ],
      "duration": 2.5984848484848486
    },
    {
      "time": 33.78030303030303,
      "notes": [
        60,
        64,
        67,
        70
      ],
      "duration": 2.5984848484848486
    },
    {
      "time": 36.37878787878788,
      "notes": [
        70,
        73,
        77
      ],
      "duration": 2.5984848484848486
    },
    {
      "time": 38.97727272727273,
      "notes": [
        60,
        64,
        67
      ],
      "duration": 2.5984848484848486
    },
    {
      "time": 41.57575757575758,
      "notes": [
        65,
        68,
        72
      ],
      "duration": 2.5984848484848486
    },
    {
      "time": 44.17424242424243,
      "notes": [
        61,
        65,
        68
      ],
      "duration": 2.5984848484848486
    },
    {
      "time": 46.77272727272727,
      "notes": [
        60,
        64,
        67
      ],
      "duration": 2.5984848484848486
    },
    {
      "time": 49.371212121212125,
      "notes": [
        68,
        72,
        75
      ],
      "duration": 2.5984848484848486
    },
    {
      "time": 51.96969696969697,
      "notes": [
        63,
        67,
        70
      ],
      "duration": 2.5984848484848486
    },
    {
      "time": 54.56818181818182,
      "notes": [
        61,
        65,
        68
      ],
      "duration": 2.5984848484848486
    },
    {
      "time": 57.16666666666667,
      "notes": [
        70,
        73,
        77
      ],
      "duration": 2.5984848484848486
    },
    {
      "time": 59.765151515151516,
      "notes": [
        60,
        64,
        67,
        70
      ],
      "duration": 2.5984848484848486
    },
    {
      "time": 62.36363636363637,
      "notes": [
        70,
        73,
        77
      ],
      "duration": 2.5984848484848486
    },
    {
      "time": 64.96212121212122,
      "notes": [
        60,
        64,
        67,
        70
      ],
      "duration": 2.5984848484848486
    },
    {
      "time": 67.56060606060606,
      "notes": [
        65,
        68,
        72
      ],
      "duration": 2.5984848484848486
    },
    {
      "time": 70.1590909090909,
      "notes": [
        60,
        64,
        67,
        70
      ],
      "duration": 2.5984848484848486
    },
    {
      "time": 72.75757575757576,
      "notes": [
        65,
        68,
        72
      ],
      "duration": 2.5984848484848486
    },
    {
      "time": 75.35606060606061,
      "notes": [
        70,
        73,
        77
      ],
      "duration": 2.5984848484848486
    },
    {
      "time": 77.95454545454545,
      "notes": [
        63,
        67,
        70
      ],
      "duration": 2.5984848484848486
    },
    {
      "time": 80.55303030303031,
      "notes": [
        68,
        72,
        75
      ],
      "duration": 2.5984848484848486
    },
    {
      "time": 83.15151515151516,
      "notes": [
        60,
        64,
        67
      ],
      "duration": 2.5984848484848486
    }
  ]
}