{
  "title": "Por lo que yo te quiero",
  "artist": "Walter Olmos",
  "bpm": 120,
  "duration": 61.125,
  "audioFile": "",
  "notes": [
    {
      "time": 0.625,
      "note": 77,
      "duration": 0.25,
      "velocity": 100
    },
    {
      "time": 0.875,
      "note": 81,
      "duration": 0.25,
      "velocity": 100
    },
    {
      "time": 0.875,
      "note": 77,
      "duration": 0.25,
      "velocity": 100
    },
    {
      "time": 1.125,
      "note": 81,
      "duration": 0.25,
      "velocity": 100
    },
    {
      "time": 1.125,
      "note": 77,
      "duration": 0.25,
      "velocity": 100
    },
    {
      "time": 1.375,
      "note": 81,
      "duration": 0.25,
      "velocity": 100
    },
    {
      "time": 1.375,
      "note": 81,
      "duration": 0.5,
      "velocity": 100
    },
    {
      "time": 1.875,
      "note": 89,
      "duration": 0.5,
      "velocity": 100
    },
    {
      "time": 1.875,
      "note": 81,
      "duration": 0.25,
      "velocity": 100
    },
    {
      "time": 2.125,
      "note": 88,
      "duration": 0.25,
      "velocity": 100
    },
    {
      "time": 2.125,
      "note": 82,
      "duration": 0.25,
      "velocity": 100
    },
    {
      "time": 2.375,
      "note": 89,
      "duration": 0.25,
      "velocity": 100
    },
    {
      "time": 2.375,
      "note": 82,
      "duration": 0.25,
      "velocity": 100
    },
    {
      "time": 2.625,
      "note": 89,
      "duration": 0.25,
      "velocity": 100
    },
    {
      "time": 2.625,
      "note": 77,
      "duration": 0.25,
      "velocity": 100
    },
    {
      "time": 2.875,
      "note": 86,
      "duration": 0.25,
      "velocity": 100
    },
    {
      "time": 2.875,
      "note": 77,
      "duration": 1.0,
      "velocity": 100
    },
    {
      "time": 3.875,
      "note": 86,
      "duration": 1.0,
      "velocity": 100
    },
    {
      "time": 3.875,
      "note": 88,
      "duration": 1.0,
      "velocity": 100
    },
    {
      "time": 4.125,
      "note": 84,
      "duration": 0.25,
      "velocity": 100
    },
    {
      "time": 4.375,
      "note": 88,
      "duration": 0.25,
      "velocity": 100
    },
    {
      "time": 4.375,
      "note": 84,
      "duration": 0.25,
      "velocity": 100
    },
    {
      "time": 4.625,
      "note": 88,
      "duration": 0.25,
      "velocity": 100
    },
    {
      "time": 4.625,
      "note": 84,
      "duration": 0.25,
      "velocity": 100
    },
    {
      "time": 4.875,
      "note": 88,
      "duration": 0.25,
      "velocity": 100
    },
    {
      "time": 4.875,
      "note": 84,
      "duration": 0.5,
      "velocity": 100
    },
    {
      "time": 5.375,
      "note": 88,
      "duration": 0.5,
      "velocity": 100
    },
    {
      "time": 5.375,
      "note": 79,
      "duration": 0.25,
      "velocity": 100
    },
    {
      "time": 5.625,
      "note": 86,
      "duration": 0.25,
      "velocity": 100
    },
    {
      "time": 5.625,
      "note": 81,
      "duration": 0.25,
      "velocity": 100
    },
    {
      "time": 5.875,
      "note": 84,
      "duration": 0.25,
      "velocity": 100
    },
    {
      "time": 5.875,
      "note": 81,
      "duration": 0.25,
      "velocity": 100
    },
    {
      "time": 6.125,
      "note": 84,
      "duration": 0.25,
      "velocity": 100
    },
    {
      "time": 6.125,
      "note": 77,
      "duration": 0.25,
      "velocity": 100
    },
    {
      "time": 6.375,
      "note": 81,
      "duration": 0.25,
      "velocity": 100
    },
    {
      "time": 6.375,
      "note": 77,
      "duration": 1.5,
      "velocity": 100
    },
    {
      "time": 7.875,
      "note": 81,
      "duration": 1.5,
      "velocity": 100
    },
    {
      "time": 6.625,
      "note": 79,
      "duration": 0.5,
      "velocity": 100
    },
    {
      "time": 7.125,
      "note": 82,
      "duration": 0.25,
      "velocity": 100
    },
    {
      "time": 7.375,
      "note": 86,
      "duration": 0.25,
      "velocity": 100
    },
    {
      "time": 7.625,
      "note": 86,
      "duration": 0.25,
      "velocity": 100
    },
    {
      "time": 7.875,
      "note": 82,
      "duration": 0.25,
      "velocity": 100
    },
    {
      "time": 8.125,
      "note": 79,
      "duration": 0.5,
      "velocity": 100
    },
    {
      "time": 8.625,
      "note": 77,
      "duration": 0.5,
      "velocity": 100
    },
    {
      "time": 9.125,
      "note": 81,
      "duration": 0.25,
      "velocity": 100
    },
    {
      "time": 9.375,
      "note": 86,
      "duration": 0.25,
      "velocity": 100
    },
    {
      "time": 9.625,
      "note": 86,
      "duration": 0.75,
      "velocity": 100
    },
    {
      "time": 10.375,
      "note": 79,
      "duration": 0.5,
      "velocity": 100
    },
    {
      "time": 10.875,
      "note": 88,
      "duration": 0.5,
      "velocity": 100
    },
    {
      "time": 10.875,
      "note": 88,
      "duration": 0.5,
      "velocity": 100
    },
    {
      "time": 11.375,
      "note": 86,
      "duration": 0.25,
      "velocity": 100
    },
    {
      "time": 11.625,
      "note": 88,
      "duration": 0.25,
      "velocity": 100
    },
    {
      "time": 11.875,
      "note": 79,
      "duration": 0.5,
      "velocity": 100
    },
    {
      "time": 12.375,
      "note": 88,
      "duration": 0.5,
      "velocity": 100
    },
    {
      "time": 12.375,
      "note": 79,
      "duration": 0.5,
      "velocity": 100
    },
    {
      "time": 12.875,
      "note": 86,
      "duration": 0.5,
      "velocity": 100
    },
    {
      "time": 12.875,
      "note": 76,
      "duration": 0.5,
      "velocity": 100
    },
    {
      "time": 13.375,
      "note": 84,
      "duration": 0.5,
      "velocity": 100
    },
    {
      "time": 13.375,
      "note": 88,
      "duration": 0.5,
      "velocity": 100
    },
    {
      "time": 12.125,
      "note": 77,
      "duration": 1.0,
      "velocity": 100
    },
    {
      "time": 13.125,
      "note": 88,
      "duration": 1.0,
      "velocity": 100
    },
    {
      "time": 13.125,
      "note": 82,
      "duration": 0.5,
      "velocity": 100
    },
    {
      "time": 13.625,
      "note": 88,
      "duration": 0.5,
      "velocity": 100
    },
    {
      "time": 13.625,
      "note": 82,
      "duration": 0.25,
      "velocity": 100
    },
    {
      "time": 13.875,
      "note": 88,
      "duration": 0.25,
      "velocity": 100
    },
    {
      "time": 13.875,
      "note": 81,
      "duration": 0.25,
      "velocity": 100
    },
    {
      "time": 14.125,
      "note": 86,
      "duration": 0.25,
      "velocity": 100
    },
    {
      "time": 14.125,
      "note": 81,
      "duration": 0.25,
      "velocity": 100
    },
    {
      "time": 14.375,
      "note": 86,
      "duration": 0.25,
      "velocity": 100
    },
    {
      "time": 14.375,
      "note": 81,
      "duration": 0.25,
      "velocity": 100
    },
    {
      "time": 14.625,
      "note": 86,
      "duration": 0.25,
      "velocity": 100
    },
    {
      "time": 14.375,
      "note": 76,
      "duration": 0.5,
      "velocity": 100
    },
    {
      "time": 14.875,
      "note": 84,
      "duration": 0.5,
      "velocity": 100
    },
    {
      "time": 14.875,
      "note": 81,
      "duration": 1.5,
      "velocity": 100
    },
    {
      "time": 16.375,
      "note": 86,
      "duration": 1.5,
      "velocity": 100
    },
    {
      "time": 16.375,
      "note": 81,
      "duration": 0.25,
      "velocity": 100
    },
    {
      "time": 16.625,
      "note": 86,
      "duration": 0.25,
      "velocity": 100
    },
    {
      "time": 16.625,
      "note": 84,
      "duration": 0.125,
      "velocity": 100
    },
    {
      "time": 16.75,
      "note": 82,
      "duration": 0.125,
      "velocity": 100
    },
    {
      "time": 16.875,
      "note": 81,
      "duration": 0.25,
      "velocity": 100
    },
    {
      "time": 17.125,
      "note": 81,
      "duration": 0.25,
      "velocity": 100
    },
    {
      "time": 17.375,
      "note": 81,
      "duration": 0.5,
      "velocity": 100
    },
    {
      "time": 18.125,
      "note": 81,
      "duration": 0.25,
      "velocity": 100
    },
    {
      "time": 18.375,
      "note": 79,
      "duration": 0.25,
      "velocity": 100
    },
    {
      "time": 18.625,
      "note": 81,
      "duration": 0.25,
      "velocity": 100
    },
    {
      "time": 18.875,
      "note": 81,
      "duration": 1.5,
      "velocity": 100
    },
    {
      "time": 20.625,
      "note": 79,
      "duration": 0.25,
      "velocity": 100
    },
    {
      "time": 20.875,
      "note": 81,
      "duration": 0.5,
      "velocity": 100
    },
    {
      "time": 21.375,
      "note": 79,
      "duration": 0.5,
      "velocity": 100
    },
    {
      "time": 21.875,
      "note": 81,
      "duration": 0.25,
      "velocity": 100
    },
    {
      "time": 22.125,
      "note": 79,
      "duration": 0.5,
      "velocity": 100
    },
    {
      "time": 22.625,
      "note": 81,
      "duration": 0.25,
      "velocity": 100
    },
    {
      "time": 22.875,
      "note": 81,
      "duration": 1.5,
      "velocity": 100
    },
    {
      "time": 24.625,
      "note": 81,
      "duration": 0.25,
      "velocity": 100
    },
    {
      "time": 24.875,
      "note": 89,
      "duration": 0.25,
      "velocity": 100
    },
    {
      "time": 25.125,
      "note": 89,
      "duration": 0.5,
      "velocity": 100
    },
    {
      "time": 25.625,
      "note": 89,
      "duration": 0.25,
      "velocity": 100
    },
    {
      "time": 25.875,
      "note": 89,
      "duration": 0.5,
      "velocity": 100
    },
    {
      "time": 26.375,
      "note": 89,
      "duration": 0.25,
      "velocity": 100
    },
    {
      "time": 26.625,
      "note": 88,
      "duration": 0.25,
      "velocity": 100
    },
    {
      "time": 26.875,
      "note": 88,
      "duration": 0.25,
      "velocity": 100
    },
    {
      "time": 27.125,
      "note": 86,
      "duration": 0.25,
      "velocity": 100
    },
    {
      "time": 27.375,
      "note": 86,
      "duration": 1.0,
      "velocity": 100
    },
    {
      "time": 28.375,
      "note": 86,
      "duration": 0.5,
      "velocity": 100
    },
    {
      "time": 28.875,
      "note": 76,
      "duration": 0.5,
      "velocity": 100
    },
    {
      "time": 29.375,
      "note": 84,
      "duration": 0.5,
      "velocity": 100
    },
    {
      "time": 29.375,
      "note": 84,
      "duration": 0.5,
      "velocity": 100
    },
    {
      "time": 29.875,
      "note": 76,
      "duration": 0.5,
      "velocity": 100
    },
    {
      "time": 30.375,
      "note": 86,
      "duration": 0.5,
      "velocity": 100
    },
    {
      "time": 30.375,
      "note": 84,
      "duration": 0.5,
      "velocity": 100
    },
    {
      "time": 30.875,
      "note": 79,
      "duration": 0.25,
      "velocity": 100
    },
    {
      "time": 31.125,
      "note": 81,
      "duration": 0.25,
      "velocity": 100
    },
    {
      "time": 31.375,
      "note": 81,
      "duration": 1.5,
      "velocity": 100
    },
    {
      "time": 33.125,
      "note": 79,
      "duration": 0.25,
      "velocity": 100
    },
    {
      "time": 33.375,
      "note": 79,
      "duration": 0.25,
      "velocity": 100
    },
    {
      "time": 33.625,
      "note": 79,
      "duration": 0.75,
      "velocity": 100
    },
    {
      "time": 34.625,
      "note": 79,
      "duration": 0.25,
      "velocity": 100
    },
    {
      "time": 34.875,
      "note": 79,
      "duration": 0.25,
      "velocity": 100
    },
    {
      "time": 35.125,
      "note": 77,
      "duration": 0.25,
      "velocity": 100
    },
    {
      "time": 35.375,
      "note": 79,
      "duration": 0.25,
      "velocity": 100
    },
    {
      "time": 35.625,
      "note": 77,
      "duration": 0.25,
      "velocity": 100
    },
    {
      "time": 35.875,
      "note": 77,
      "duration": 1.0,
      "velocity": 100
    },
    {
      "time": 37.125,
      "note": 77,
      "duration": 0.25,
      "velocity": 100
    },
    {
      "time": 37.375,
      "note": 76,
      "duration": 0.5,
      "velocity": 100
    },
    {
      "time": 37.875,
      "note": 76,
      "duration": 0.25,
      "velocity": 100
    },
    {
      "time": 38.125,
      "note": 76,
      "duration": 0.25,
      "velocity": 100
    },
    {
      "time": 38.625,
      "note": 77,
      "duration": 0.25,
      "velocity": 100
    },
    {
      "time": 38.875,
      "note": 76,
      "duration": 0.25,
      "velocity": 100
    },
    {
      "time": 39.125,
      "note": 74,
      "duration": 0.25,
      "velocity": 100
    },
    {
      "time": 39.375,
      "note": 81,
      "duration": 0.125,
      "velocity": 100
    },
    {
      "time": 39.5,
      "note": 84,
      "duration": 0.125,
      "velocity": 100
    },
    {
      "time": 39.625,
      "note": 86,
      "duration": 0.125,
      "velocity": 100
    },
    {
      "time": 39.75,
      "note": 89,
      "duration": 0.125,
      "velocity": 100
    },
    {
      "time": 39.875,
      "note": 86,
      "duration": 0.125,
      "velocity": 100
    },
    {
      "time": 40.0,
      "note": 84,
      "duration": 0.125,
      "velocity": 100
    },
    {
      "time": 40.125,
      "note": 86,
      "duration": 0.25,
      "velocity": 100
    },
    {
      "time": 40.375,
      "note": 81,
      "duration": 0.125,
      "velocity": 100
    },
    {
      "time": 40.5,
      "note": 84,
      "duration": 0.125,
      "velocity": 100
    },
    {
      "time": 40.625,
      "note": 86,
      "duration": 0.125,
      "velocity": 100
    },
    {
      "time": 40.75,
      "note": 89,
      "duration": 0.125,
      "velocity": 100
    },
    {
      "time": 40.875,
      "note": 86,
      "duration": 0.125,
      "velocity": 100
    },
    {
      "time": 41.0,
      "note": 84,
      "duration": 0.125,
      "velocity": 100
    },
    {
      "time": 41.375,
      "note": 81,
      "duration": 0.25,
      "velocity": 100
    },
    {
      "time": 41.625,
      "note": 81,
      "duration": 0.25,
      "velocity": 100
    },
    {
      "time": 41.875,
      "note": 81,
      "duration": 0.25,
      "velocity": 100
    },
    {
      "time": 42.125,
      "note": 89,
      "duration": 0.5,
      "velocity": 100
    },
    {
      "time": 42.625,
      "note": 88,
      "duration": 0.25,
      "velocity": 100
    },
    {
      "time": 42.875,
      "note": 89,
      "duration": 0.25,
      "velocity": 100
    },
    {
      "time": 43.125,
      "note": 89,
      "duration": 0.25,
      "velocity": 100
    },
    {
      "time": 43.375,
      "note": 86,
      "duration": 0.25,
      "velocity": 100
    },
    {
      "time": 43.625,
      "note": 86,
      "duration": 1.5,
      "velocity": 100
    },
    {
      "time": 45.375,
      "note": 88,
      "duration": 0.25,
      "velocity": 100
    },
    {
      "time": 45.625,
      "note": 88,
      "duration": 0.25,
      "velocity": 100
    },
    {
      "time": 45.875,
      "note": 88,
      "duration": 0.25,
      "velocity": 100
    },
    {
      "time": 46.125,
      "note": 86,
      "duration": 0.5,
      "velocity": 100
    },
    {
      "time": 46.625,
      "note": 84,
      "duration": 0.25,
      "velocity": 100
    },
    {
      "time": 46.875,
      "note": 86,
      "duration": 0.25,
      "velocity": 100
    },
    {
      "time": 47.125,
      "note": 86,
      "duration": 0.75,
      "velocity": 100
    },
    {
      "time": 47.875,
      "note": 76,
      "duration": 0.5,
      "velocity": 100
    },
    {
      "time": 48.375,
      "note": 84,
      "duration": 0.5,
      "velocity": 100
    },
    {
      "time": 48.375,
      "note": 84,
      "duration": 1.0,
      "velocity": 100
    },
    {
      "time": 49.625,
      "note": 82,
      "duration": 0.25,
      "velocity": 100
    },
    {
      "time": 49.875,
      "note": 82,
      "duration": 0.25,
      "velocity": 100
    },
    {
      "time": 50.125,
      "note": 84,
      "duration": 0.25,
      "velocity": 100
    },
    {
      "time": 50.375,
      "note": 86,
      "duration": 0.75,
      "velocity": 100
    },
    {
      "time": 51.125,
      "note": 74,
      "duration": 0.5,
      "velocity": 100
    },
    {
      "time": 51.625,
      "note": 82,
      "duration": 0.5,
      "velocity": 100
    },
    {
      "time": 51.625,
      "note": 81,
      "duration": 0.5,
      "velocity": 100
    },
    {
      "time": 52.125,
      "note": 86,
      "duration": 0.25,
      "velocity": 100
    },
    {
      "time": 52.375,
      "note": 89,
      "duration": 0.25,
      "velocity": 100
    },
    {
      "time": 52.625,
      "note": 89,
      "duration": 0.5,
      "velocity": 100
    },
    {
      "time": 53.375,
      "note": 76,
      "duration": 0.5,
      "velocity": 100
    },
    {
      "time": 53.875,
      "note": 86,
      "duration": 0.5,
      "velocity": 100
    },
    {
      "time": 53.875,
      "note": 88,
      "duration": 0.3333333333333333,
      "velocity": 100
    },
    {
      "time": 54.375,
      "note": 88,
      "duration": 0.25,
      "velocity": 100
    },
    {
      "time": 54.625,
      "note": 88,
      "duration": 0.25,
      "velocity": 100
    },
    {
      "time": 54.875,
      "note": 79,
      "duration": 0.5,
      "velocity": 100
    },
    {
      "time": 55.375,
      "note": 88,
      "duration": 0.5,
      "velocity": 100
    },
    {
      "time": 55.375,
      "note": 86,
      "duration": 0.5,
      "velocity": 100
    },
    {
      "time": 55.875,
      "note": 79,
      "duration": 0.5,
      "velocity": 100
    },
    {
      "time": 56.375,
      "note": 88,
      "duration": 0.5,
      "velocity": 100
    },
    {
      "time": 56.375,
      "note": 88,
      "duration": 0.3333333333333333,
      "velocity": 100
    },
    {
      "time": 56.875,
      "note": 88,
      "duration": 0.25,
      "velocity": 100
    },
    {
      "time": 57.125,
      "note": 86,
      "duration": 0.25,
      "velocity": 100
    },
    {
      "time": 57.375,
      "note": 76,
      "duration": 0.5,
      "velocity": 100
    },
    {
      "time": 57.875,
      "note": 86,
      "duration": 0.5,
      "velocity": 100
    },
    {
      "time": 58.125,
      "note": 84,
      "duration": 0.5,
      "velocity": 100
    },
    {
      "time": 58.625,
      "note": 76,
      "duration": 0.5,
      "velocity": 100
    },
    {
      "time": 59.125,
      "note": 86,
      "duration": 0.5,
      "velocity": 100
    },
    {
      "time": 59.125,
      "note": 86,
      "duration": 0.5,
      "velocity": 100
    }
  ],
  "chords": [
    {
      "time": 0.0,
      "notes": [
        62,
        65,
        69
      ],
      "duration": 2.0375
    },
    {
      "time": 2.0375,
      "notes": [
        70,
        74,
        77
      ],
      "duration": 2.0375
    },
    {
      "time": 4.075,
      "notes": [
        60,
        64,
        67
      ],
      "duration": 2.0375
    },
    {
      "time": 6.112500000000001,
      "notes": [
        65,
        69,
        72
      ],
      "duration": 2.0375
    },
    {
      "time": 8.15,
      "notes": [
        67,
        70,
        74
      ],
      "duration": 2.0375
    },
    {
      "time": 10.1875,
      "notes": [
        62,
        65,
        69
      ],
      "duration": 2.0375
    },
    {
      "time": 12.225000000000001,
      "notes": [
        64,
        68,
        71,
        74
      ],
      "duration": 2.0375
    },
    {
      "time": 14.262500000000001,
      "notes": [
        69,
        73,
        76,
        79
      ],
      "duration": 2.0375
    },
    {
      "time": 16.3,
      "notes": [
        64,
        68,
        71,
        74
      ],
      "duration": 2.0375
    },
    {
      "time": 18.337500000000002,
      "notes": [
        69,
        73,
        76,
        79
      ],
      "duration": 2.0375
    },
    {
      "time": 20.375,
      "notes": [
        62,
        65,
        69
      ],
      "duration": 2.0375
    },
    {
      "time": 22.4125,
      "notes": [
        62,
        65,
        69
      ],
      "duration": 2.0375
    },
    {
      "time": 24.450000000000003,
      "notes": [
        69,
        72,
        76
      ],
      "duration": 2.0375
    },
    {
      "time": 26.4875,
      "notes": [
        70,
        74,
        77
      ],
      "duration": 2.0375
    },
    {
      "time": 28.525000000000002,
      "notes": [
        60,
        64,
        67
      ],
      "duration": 2.0375
    },
    {
      "time": 30.5625,
      "notes": [
        65,
        69,
        72
      ],
      "duration": 2.0375
    },
    {
      "time": 32.6,
      "notes": [
        67,
        70,
        74
      ],
      "duration": 2.0375
    },
    {
      "time": 34.6375,
      "notes": [
        62,
        65,
        69
      ],
      "duration": 2.0375
    },
    {
      "time": 36.675000000000004,
      "notes": [
        64,
        68,
        71,
        74
      ],
      "duration": 2.0375
    },
    {
      "time": 38.7125,
      "notes": [
        69,
        73,
        76
      ],
      "duration": 2.0375
    },
    {
      "time": 40.75,
      "notes": [
        62,
        65,
        69
      ],
      "duration": 2.0375
    },
    {
      "time": 42.7875,
      "notes": [
        70,
        74,
        77
      ],
      "duration": 2.0375
    },
    {
      "time": 44.825,
      "notes": [
        60,
        64,
        67
      ],
      "duration": 2.0375
    },
    {
      "time": 46.862500000000004,
      "notes": [
        65,
        69,
        72
      ],
      "duration": 2.0375
    },
    {
      "time": 48.900000000000006,
      "notes": [
        67,
        70,
        74
      ],
      "duration": 2.0375
    },
    {
      "time": 50.9375,
      "notes": [
        62,
        65,
        69
      ],
      "duration": 2.0375
    },
    {
      "time": 52.975,
      "notes": [
        64,
        68,
        71,
        74
      ],
      "duration": 2.0375
    },
    {
      "time": 55.0125,
      "notes": [
        64,
        68,
        71,
        74
      ],
      "duration": 2.0375
    },
    {
      "time": 57.050000000000004,
      "notes": [
        69,
        73,
        76,
        79
      ],
      "duration": 2.0375
    },
    {
      "time": 59.087500000000006,
      "notes": [
        62,
        65,
        69
      ],
      "duration": 2.0375
    }
  ]
}