{
  "title": "Como le digo",
  "artist": "Rodrigo",
  "bpm": 120,
  "duration": 56.5,
  "audioFile": "",
  "notes": [
    {
      "time": 0.0,
      "note": 83,
      "duration": 0.25,
      "velocity": 100
    },
    {
      "time": 0.25,
      "note": 84,
      "duration": 0.25,
      "velocity": 100
    },
    {
      "time": 0.5,
      "note": 81,
      "duration": 0.5,
      "velocity": 100
    },
    {
      "time": 1.25,
      "note": 83,
      "duration": 0.25,
      "velocity": 100
    },
    {
      "time": 1.5,
      "note": 84,
      "duration": 0.25,
      "velocity": 100
    },
    {
      "time": 1.75,
      "note": 81,
      "duration": 0.25,
      "velocity": 100
    },
    {
      "time": 2.25,
      "note": 81,
      "duration": 0.25,
      "velocity": 100
    },
    {
      "time": 2.5,
      "note": 83,
      "duration": 0.25,
      "velocity": 100
    },
    {
      "time": 2.75,
      "note": 84,
      "duration": 0.25,
      "velocity": 100
    },
    {
      "time": 3.25,
      "note": 81,
      "duration": 0.25,
      "velocity": 100
    },
    {
      "time": 3.5,
      "note": 83,
      "duration": 0.25,
      "velocity": 100
    },
    {
      "time": 3.75,
      "note": 84,
      "duration": 0.25,
      "velocity": 100
    },
    {
      "time": 4.5,
      "note": 81,
      "duration": 0.5,
      "velocity": 100
    },
    {
      "time": 5.25,
      "note": 83,
      "duration": 0.25,
      "velocity": 100
    },
    {
      "time": 5.5,
      "note": 84,
      "duration": 0.25,
      "velocity": 100
    },
    {
      "time": 5.75,
      "note": 81,
      "duration": 0.25,
      "velocity": 100
    },
    {
      "time": 4.0,
      "note": 83,
      "duration": 0.25,
      "velocity": 100
    },
    {
      "time": 4.25,
      "note": 84,
      "duration": 0.25,
      "velocity": 100
    },
    {
      "time": 4.75,
      "note": 81,
      "duration": 0.25,
      "velocity": 100
    },
    {
      "time": 5.0,
      "note": 83,
      "duration": 0.25,
      "velocity": 100
    },
    {
      "time": 5.25,
      "note": 84,
      "duration": 0.25,
      "velocity": 100
    },
    {
      "time": 5.75,
      "note": 81,
      "duration": 0.25,
      "velocity": 100
    },
    {
      "time": 6.0,
      "note": 83,
      "duration": 0.25,
      "velocity": 100
    },
    {
      "time": 6.25,
      "note": 84,
      "duration": 0.25,
      "velocity": 100
    },
    {
      "time": 6.5,
      "note": 83,
      "duration": 0.25,
      "velocity": 100
    },
    {
      "time": 6.75,
      "note": 84,
      "duration": 0.25,
      "velocity": 100
    },
    {
      "time": 7.0,
      "note": 81,
      "duration": 0.5,
      "velocity": 100
    },
    {
      "time": 7.75,
      "note": 83,
      "duration": 0.25,
      "velocity": 100
    },
    {
      "time": 8.0,
      "note": 84,
      "duration": 0.25,
      "velocity": 100
    },
    {
      "time": 8.25,
      "note": 81,
      "duration": 0.25,
      "velocity": 100
    },
    {
      "time": 8.75,
      "note": 84,
      "duration": 0.25,
      "velocity": 100
    },
    {
      "time": 9.0,
      "note": 86,
      "duration": 0.25,
      "velocity": 100
    },
    {
      "time": 9.25,
      "note": 88,
      "duration": 0.25,
      "velocity": 100
    },
    {
      "time": 9.75,
      "note": 84,
      "duration": 0.25,
      "velocity": 100
    },
    {
      "time": 10.0,
      "note": 86,
      "duration": 0.25,
      "velocity": 100
    },
    {
      "time": 10.25,
      "note": 88,
      "duration": 0.25,
      "velocity": 100
    },
    {
      "time": 10.5,
      "note": 88,
      "duration": 0.125,
      "velocity": 100
    },
    {
      "time": 10.625,
      "note": 89,
      "duration": 0.125,
      "velocity": 100
    },
    {
      "time": 10.75,
      "note": 88,
      "duration": 0.125,
      "velocity": 100
    },
    {
      "time": 10.875,
      "note": 86,
      "duration": 0.125,
      "velocity": 100
    },
    {
      "time": 11.0,
      "note": 88,
      "duration": 0.25,
      "velocity": 100
    },
    {
      "time": 11.25,
      "note": 88,
      "duration": 0.125,
      "velocity": 100
    },
    {
      "time": 11.375,
      "note": 89,
      "duration": 0.125,
      "velocity": 100
    },
    {
      "time": 11.5,
      "note": 88,
      "duration": 0.125,
      "velocity": 100
    },
    {
      "time": 11.625,
      "note": 86,
      "duration": 0.125,
      "velocity": 100
    },
    {
      "time": 11.75,
      "note": 88,
      "duration": 0.25,
      "velocity": 100
    },
    {
      "time": 12.0,
      "note": 88,
      "duration": 0.125,
      "velocity": 100
    },
    {
      "time": 12.125,
      "note": 89,
      "duration": 0.125,
      "velocity": 100
    },
    {
      "time": 12.25,
      "note": 88,
      "duration": 0.125,
      "velocity": 100
    },
    {
      "time": 12.375,
      "note": 86,
      "duration": 0.125,
      "velocity": 100
    },
    {
      "time": 12.5,
      "note": 88,
      "duration": 1.5,
      "velocity": 100
    },
    {
      "time": 16.0,
      "note": 76,
      "duration": 0.25,
      "velocity": 100
    },
    {
      "time": 16.25,
      "note": 76,
      "duration": 0.25,
      "velocity": 100
    },
    {
      "time": 16.5,
      "note": 76,
      "duration": 0.25,
      "velocity": 100
    },
    {
      "time": 16.75,
      "note": 76,
      "duration": 0.25,
      "velocity": 100
    },
    {
      "time": 17.0,
      "note": 76,
      "duration": 0.5,
      "velocity": 100
    },
    {
      "time": 18.0,
      "note": 81,
      "duration": 0.25,
      "velocity": 100
    },
    {
      "time": 18.25,
      "note": 79,
      "duration": 0.25,
      "velocity": 100
    },
    {
      "time": 18.5,
      "note": 77,
      "duration": 1.0,
      "velocity": 100
    },
    {
      "time": 20.5,
      "note": 84,
      "duration": 0.25,
      "velocity": 100
    },
    {
      "time": 22.5,
      "note": 79,
      "duration": 0.25,
      "velocity": 100
    },
    {
      "time": 22.75,
      "note": 79,
      "duration": 0.25,
      "velocity": 100
    },
    {
      "time": 23.0,
      "note": 79,
      "duration": 0.5,
      "velocity": 100
    },
    {
      "time": 23.5,
      "note": 81,
      "duration": 0.5,
      "velocity": 100
    },
    {
      "time": 24.0,
      "note": 79,
      "duration": 0.5,
      "velocity": 100
    },
    {
      "time": 24.5,
      "note": 76,
      "duration": 0.25,
      "velocity": 100
    },
    {
      "time": 24.75,
      "note": 76,
      "duration": 1.0,
      "velocity": 100
    },
    {
      "time": 29.0,
      "note": 81,
      "duration": 0.25,
      "velocity": 100
    },
    {
      "time": 29.25,
      "note": 81,
      "duration": 0.5,
      "velocity": 100
    },
    {
      "time": 29.75,
      "note": 84,
      "duration": 0.5,
      "velocity": 100
    },
    {
      "time": 30.25,
      "note": 83,
      "duration": 0.5,
      "velocity": 100
    },
    {
      "time": 28.75,
      "note": 84,
      "duration": 0.25,
      "velocity": 100
    },
    {
      "time": 29.0,
      "note": 84,
      "duration": 0.25,
      "velocity": 100
    },
    {
      "time": 29.25,
      "note": 84,
      "duration": 0.5,
      "velocity": 100
    },
    {
      "time": 30.25,
      "note": 81,
      "duration": 0.25,
      "velocity": 100
    },
    {
      "time": 30.5,
      "note": 81,
      "duration": 0.25,
      "velocity": 100
    },
    {
      "time": 30.0,
      "note": 81,
      "duration": 0.25,
      "velocity": 100
    },
    {
      "time": 30.25,
      "note": 81,
      "duration": 0.5,
      "velocity": 100
    },
    {
      "time": 30.75,
      "note": 84,
      "duration": 0.5,
      "velocity": 100
    },
    {
      "time": 31.25,
      "note": 83,
      "duration": 0.5,
      "velocity": 100
    },
    {
      "time": 31.75,
      "note": 76,
      "duration": 0.5,
      "velocity": 100
    },
    {
      "time": 32.25,
      "note": 84,
      "duration": 0.5,
      "velocity": 100
    },
    {
      "time": 32.25,
      "note": 84,
      "duration": 0.25,
      "velocity": 100
    },
    {
      "time": 32.5,
      "note": 84,
      "duration": 0.25,
      "velocity": 100
    },
    {
      "time": 32.75,
      "note": 84,
      "duration": 0.5,
      "velocity": 100
    },
    {
      "time": 33.75,
      "note": 86,
      "duration": 0.25,
      "velocity": 100
    },
    {
      "time": 34.0,
      "note": 84,
      "duration": 0.25,
      "velocity": 100
    },
    {
      "time": 34.25,
      "note": 76,
      "duration": 0.5,
      "velocity": 100
    },
    {
      "time": 34.75,
      "note": 86,
      "duration": 0.5,
      "velocity": 100
    },
    {
      "time": 34.75,
      "note": 84,
      "duration": 0.5,
      "velocity": 100
    },
    {
      "time": 35.25,
      "note": 86,
      "duration": 0.5,
      "velocity": 100
    },
    {
      "time": 35.75,
      "note": 84,
      "duration": 0.5,
      "velocity": 100
    },
    {
      "time": 34.25,
      "note": 74,
      "duration": 1.0,
      "velocity": 100
    },
    {
      "time": 35.25,
      "note": 74,
      "duration": 0.5,
      "velocity": 100
    },
    {
      "time": 35.75,
      "note": 83,
      "duration": 0.5,
      "velocity": 100
    },
    {
      "time": 35.75,
      "note": 83,
      "duration": 0.5,
      "velocity": 100
    },
    {
      "time": 36.25,
      "note": 84,
      "duration": 0.5,
      "velocity": 100
    },
    {
      "time": 36.75,
      "note": 83,
      "duration": 0.5,
      "velocity": 100
    },
    {
      "time": 35.75,
      "note": 84,
      "duration": 0.25,
      "velocity": 100
    },
    {
      "time": 36.0,
      "note": 84,
      "duration": 0.25,
      "velocity": 100
    },
    {
      "time": 36.25,
      "note": 84,
      "duration": 0.25,
      "velocity": 100
    },
    {
      "time": 36.5,
      "note": 83,
      "duration": 0.25,
      "velocity": 100
    },
    {
      "time": 36.75,
      "note": 81,
      "duration": 0.25,
      "velocity": 100
    },
    {
      "time": 37.0,
      "note": 83,
      "duration": 0.25,
      "velocity": 100
    },
    {
      "time": 37.25,
      "note": 84,
      "duration": 0.25,
      "velocity": 100
    },
    {
      "time": 36.0,
      "note": 86,
      "duration": 0.5,
      "velocity": 100
    },
    {
      "time": 37.5,
      "note": 86,
      "duration": 0.25,
      "velocity": 100
    },
    {
      "time": 37.75,
      "note": 84,
      "duration": 0.25,
      "velocity": 100
    },
    {
      "time": 38.0,
      "note": 74,
      "duration": 0.5,
      "velocity": 100
    },
    {
      "time": 38.5,
      "note": 83,
      "duration": 0.5,
      "velocity": 100
    },
    {
      "time": 38.5,
      "note": 83,
      "duration": 0.5,
      "velocity": 100
    },
    {
      "time": 39.0,
      "note": 83,
      "duration": 0.5,
      "velocity": 100
    },
    {
      "time": 39.5,
      "note": 83,
      "duration": 0.5,
      "velocity": 100
    },
    {
      "time": 38.0,
      "note": 84,
      "duration": 0.5,
      "velocity": 100
    },
    {
      "time": 39.5,
      "note": 84,
      "duration": 0.25,
      "velocity": 100
    },
    {
      "time": 39.75,
      "note": 83,
      "duration": 0.25,
      "velocity": 100
    },
    {
      "time": 40.0,
      "note": 81,
      "duration": 0.5,
      "velocity": 100
    },
    {
      "time": 40.5,
      "note": 81,
      "duration": 0.5,
      "velocity": 100
    },
    {
      "time": 41.25,
      "note": 84,
      "duration": 0.25,
      "velocity": 100
    },
    {
      "time": 41.5,
      "note": 84,
      "duration": 0.25,
      "velocity": 100
    },
    {
      "time": 41.75,
      "note": 84,
      "duration": 0.25,
      "velocity": 100
    },
    {
      "time": 42.0,
      "note": 84,
      "duration": 0.5,
      "velocity": 100
    },
    {
      "time": 43.25,
      "note": 88,
      "duration": 0.5,
      "velocity": 100
    },
    {
      "time": 43.75,
      "note": 76,
      "duration": 0.5,
      "velocity": 100
    },
    {
      "time": 44.25,
      "note": 86,
      "duration": 0.5,
      "velocity": 100
    },
    {
      "time": 44.25,
      "note": 76,
      "duration": 0.5,
      "velocity": 100
    },
    {
      "time": 44.75,
      "note": 86,
      "duration": 0.5,
      "velocity": 100
    },
    {
      "time": 44.75,
      "note": 86,
      "duration": 0.5,
      "velocity": 100
    },
    {
      "time": 45.25,
      "note": 88,
      "duration": 0.5,
      "velocity": 100
    },
    {
      "time": 45.75,
      "note": 86,
      "duration": 0.5,
      "velocity": 100
    },
    {
      "time": 44.25,
      "note": 86,
      "duration": 0.5,
      "velocity": 100
    },
    {
      "time": 44.75,
      "note": 88,
      "duration": 1.5,
      "velocity": 100
    },
    {
      "time": 46.25,
      "note": 88,
      "duration": 0.5,
      "velocity": 100
    },
    {
      "time": 47.5,
      "note": 77,
      "duration": 0.25,
      "velocity": 100
    },
    {
      "time": 47.75,
      "note": 86,
      "duration": 0.25,
      "velocity": 100
    },
    {
      "time": 48.0,
      "note": 86,
      "duration": 0.25,
      "velocity": 100
    },
    {
      "time": 48.25,
      "note": 86,
      "duration": 1.5,
      "velocity": 100
    },
    {
      "time": 49.75,
      "note": 77,
      "duration": 0.5,
      "velocity": 100
    },
    {
      "time": 50.25,
      "note": 77,
      "duration": 1.0,
      "velocity": 100
    },
    {
      "time": 51.25,
      "note": 77,
      "duration": 0.25,
      "velocity": 100
    },
    {
      "time": 51.5,
      "note": 86,
      "duration": 0.5,
      "velocity": 100
    },
    {
      "time": 52.0,
      "note": 76,
      "duration": 0.5,
      "velocity": 100
    },
    {
      "time": 52.5,
      "note": 84,
      "duration": 0.5,
      "velocity": 100
    },
    {
      "time": 52.5,
      "note": 84,
      "duration": 0.5,
      "velocity": 100
    },
    {
      "time": 53.0,
      "note": 84,
      "duration": 0.5,
      "velocity": 100
    },
    {
      "time": 53.5,
      "note": 76,
      "duration": 0.5,
      "velocity": 100
    },
    {
      "time": 54.0,
      "note": 84,
      "duration": 0.5,
      "velocity": 100
    },
    {
      "time": 54.0,
      "note": 83,
      "duration": 0.5,
      "velocity": 100
    },
    {
      "time": 52.5,
      "note": 81,
      "duration": 1.0,
      "velocity": 100
    },
    {
      "time": 53.5,
      "note": 81,
      "duration": 0.25,
      "velocity": 100
    },
    {
      "time": 53.75,
      "note": 84,
      "duration": 0.5,
      "velocity": 100
    },
    {
      "time": 54.25,
      "note": 83,
      "duration": 0.25,
      "velocity": 100
    },
    {
      "time": 55.25,
      "note": 74,
      "duration": 0.5,
      "velocity": 100
    },
    {
      "time": 55.75,
      "note": 83,
      "duration": 0.5,
      "velocity": 100
    },
    {
      "time": 55.75,
      "note": 83,
      "duration": 0.75,
      "velocity": 100
    },
    {
      "time": 54.5,
      "note": 81,
      "duration": 0.25,
      "velocity": 100
    },
    {
      "time": 54.75,
      "note": 81,
      "duration": 0.25,
      "velocity": 100
    },
    {
      "time": 55.0,
      "note": 81,
      "duration": 1.5,
      "velocity": 100
    }
  ],
  "chords": [
    {
      "time": 0.0,
      "notes": [
        69,
        72,
        76
      ],
      "duration": 1.8225806451612903
    },
    {
      "time": 1.8225806451612903,
      "notes": [
        65,
        69,
        72
      ],
      "duration": 1.8225806451612903
    },
    {
      "time": 3.6451612903225805,
      "notes": [
        69,
        72,
        76
      ],
      "duration": 1.8225806451612903
    },
    {
      "time": 5.467741935483871,
      "notes": [
        64,
        68,
        71
      ],
      "duration": 1.8225806451612903
    },
    {
      "time": 7.290322580645161,
      "notes": [
        69,
        72,
        76
      ],
      "duration": 1.8225806451612903
    },
    {
      "time": 9.112903225806452,
      "notes": [
        62,
        65,
        69
      ],
      "duration": 1.8225806451612903
    },
    {
      "time": 10.935483870967742,
      "notes": [
        67,
        71,
        74
      ],
      "duration": 1.8225806451612903
    },
    {
      "time": 12.758064516129032,
      "notes": [
        60,
        64,
        67
      ],
      "duration": 1.8225806451612903
    },
    {
      "time": 14.580645161290322,
      "notes": [
        65,
        69,
        72
      ],
      "duration": 1.8225806451612903
    },
    {
      "time": 16.403225806451612,
      "notes": [
        69,
        72,
        76
      ],
      "duration": 1.8225806451612903
    },
    {
      "time": 18.225806451612904,
      "notes": [
        65,
        69,
        72
      ],
      "duration": 1.8225806451612903
    },
    {
      "time": 20.048387096774192,
      "notes": [
        62,
        65,
        69
      ],
      "duration": 1.8225806451612903
    },
    {
      "time": 21.870967741935484,
      "notes": [
        65,
        69,
        72
      ],
      "duration": 1.8225806451612903
    },
    {
      "time": 23.693548387096772,
      "notes": [
        64,
        68,
        71,
        74
      ],
      "duration": 1.8225806451612903
    },
    {
      "time": 25.516129032258064,
      "notes": [
        64,
        68,
        71,
        74
      ],
      "duration": 1.8225806451612903
    },
    {
      "time": 27.338709677419352,
      "notes": [
        69,
        72,
        76
      ],
      "duration": 1.8225806451612903
    },
    {
      "time": 29.161290322580644,
      "notes": [
        69,
        72,
        76,
        79
      ],
      "duration": 1.8225806451612903
    },
    {
      "time": 30.983870967741936,
      "notes": [
        62,
        65,
        69
      ],
      "duration": 1.8225806451612903
    },
    {
      "time": 32.806451612903224,
      "notes": [
        67,
        71,
        74
      ],
      "duration": 1.8225806451612903
    },
    {
      "time": 34.62903225806451,
      "notes": [
        60,
        64,
        67
      ],
      "duration": 1.8225806451612903
    },
    {
      "time": 36.45161290322581,
      "notes": [
        65,
        69,
        72
      ],
      "duration": 1.8225806451612903
    },
    {
      "time": 38.274193548387096,
      "notes": [
        62,
        65,
        69
      ],
      "duration": 1.8225806451612903
    },
    {
      "time": 40.096774193548384,
      "notes": [
        64,
        68,
        71,
        74
      ],
      "duration": 1.8225806451612903
    },
    {
      "time": 41.91935483870967,
      "notes": [
        69,
        72,
        76
      ],
      "duration": 1.8225806451612903
    },
    {
      "time": 43.74193548387097,
      "notes": [
        62,
        65,
        69
      ],
      "duration": 1.8225806451612903
    },
    {
      "time": 45.564516129032256,
      "notes": [
        67,
        71,
        74
      ],
      "duration": 1.8225806451612903
    },
    {
      "time": 47.387096774193544,
      "notes": [
        60,
        64,
        67
      ],
      "duration": 1.8225806451612903
    },
    {
      "time": 49.20967741935484,
      "notes": [
        65,
        69,
        72
      ],
      "duration": 1.8225806451612903
    },
    {
      "time": 51.03225806451613,
      "notes": [
        62,
        65,
        69
      ],
      "duration": 1.8225806451612903
    },
    {
      "time": 52.854838709677416,
      "notes": [
        64,
        68,
        71,
        74
      ],
      "duration": 1.8225806451612903
    },
    {
      "time": 54.677419354838705,
      "notes": [
        69,
        72,
        76
      ],
      "duration": 1.8225806451612903
    }
  ]
}