{
  "title": "Fuego y pasion",
  "artist": "Rodrigo",
  "bpm": 120,
  "duration": 60.5,
  "audioFile": "",
  "notes": [
    {
      "time": 0.25,
      "note": 74,
      "duration": 0.25,
      "velocity": 100
    },
    {
      "time": 0.5,
      "note": 72,
      "duration": 0.25,
      "velocity": 100
    },
    {
      "time": 0.75,
      "note": 74,
      "duration": 0.25,
      "velocity": 100
    },
    {
      "time": 1.0,
      "note": 79,
      "duration": 0.25,
      "velocity": 100
    },
    {
      "time": 1.25,
      "note": 82,
      "duration": 0.25,
      "velocity": 100
    },
    {
      "time": 1.5,
      "note": 81,
      "duration": 0.25,
      "velocity": 100
    },
    {
      "time": 1.75,
      "note": 79,
      "duration": 0.25,
      "velocity": 100
    },
    {
      "time": 2.0,
      "note": 81,
      "duration": 1.0,
      "velocity": 100
    },
    {
      "time": 3.0,
      "note": 81,
      "duration": 0.5,
      "velocity": 100
    },
    {
      "time": 3.5,
      "note": 81,
      "duration": 0.25,
      "velocity": 100
    },
    {
      "time": 3.75,
      "note": 79,
      "duration": 0.25,
      "velocity": 100
    },
    {
      "time": 4.0,
      "note": 77,
      "duration": 1.0,
      "velocity": 100
    },
    {
      "time": 5.0,
      "note": 77,
      "duration": 0.5,
      "velocity": 100
    },
    {
      "time": 5.5,
      "note": 77,
      "duration": 0.25,
      "velocity": 100
    },
    {
      "time": 5.75,
      "note": 77,
      "duration": 0.125,
      "velocity": 100
    },
    {
      "time": 5.875,
      "note": 75,
      "duration": 0.125,
      "velocity": 100
    },
    {
      "time": 6.5,
      "note": 79,
      "duration": 0.16666666666666666,
      "velocity": 100
    },
    {
      "time": 6.666666666666667,
      "note": 77,
      "duration": 0.16666666666666666,
      "velocity": 100
    },
    {
      "time": 6.833333333333333,
      "note": 79,
      "duration": 0.16666666666666666,
      "velocity": 100
    },
    {
      "time": 7.0,
      "note": 82,
      "duration": 0.25,
      "velocity": 100
    },
    {
      "time": 7.25,
      "note": 86,
      "duration": 0.25,
      "velocity": 100
    },
    {
      "time": 7.5,
      "note": 84,
      "duration": 0.25,
      "velocity": 100
    },
    {
      "time": 7.75,
      "note": 82,
      "duration": 0.25,
      "velocity": 100
    },
    {
      "time": 8.0,
      "note": 86,
      "duration": 0.25,
      "velocity": 100
    },
    {
      "time": 8.25,
      "note": 81,
      "duration": 0.25,
      "velocity": 100
    },
    {
      "time": 8.5,
      "note": 84,
      "duration": 0.25,
      "velocity": 100
    },
    {
      "time": 8.75,
      "note": 86,
      "duration": 0.25,
      "velocity": 100
    },
    {
      "time": 9.75,
      "note": 82,
      "duration": 0.25,
      "velocity": 100
    },
    {
      "time": 10.25,
      "note": 84,
      "duration": 1.0,
      "velocity": 100
    },
    {
      "time": 11.25,
      "note": 82,
      "duration": 0.5,
      "velocity": 100
    },
    {
      "time": 11.75,
      "note": 82,
      "duration": 0.25,
      "velocity": 100
    },
    {
      "time": 12.0,
      "note": 82,
      "duration": 0.25,
      "velocity": 100
    },
    {
      "time": 12.25,
      "note": 82,
      "duration": 0.25,
      "velocity": 100
    },
    {
      "time": 12.5,
      "note": 82,
      "duration": 0.25,
      "velocity": 100
    },
    {
      "time": 12.75,
      "note": 82,
      "duration": 0.25,
      "velocity": 100
    },
    {
      "time": 13.0,
      "note": 82,
      "duration": 0.25,
      "velocity": 100
    },
    {
      "time": 13.25,
      "note": 82,
      "duration": 0.25,
      "velocity": 100
    },
    {
      "time": 13.5,
      "note": 82,
      "duration": 0.25,
      "velocity": 100
    },
    {
      "time": 13.75,
      "note": 81,
      "duration": 0.25,
      "velocity": 100
    },
    {
      "time": 14.0,
      "note": 81,
      "duration": 0.25,
      "velocity": 100
    },
    {
      "time": 14.25,
      "note": 81,
      "duration": 0.25,
      "velocity": 100
    },
    {
      "time": 14.5,
      "note": 81,
      "duration": 0.5,
      "velocity": 100
    },
    {
      "time": 15.0,
      "note": 81,
      "duration": 0.25,
      "velocity": 100
    },
    {
      "time": 15.25,
      "note": 81,
      "duration": 0.25,
      "velocity": 100
    },
    {
      "time": 15.5,
      "note": 81,
      "duration": 0.5,
      "velocity": 100
    },
    {
      "time": 16.0,
      "note": 82,
      "duration": 0.5,
      "velocity": 100
    },
    {
      "time": 16.5,
      "note": 82,
      "duration": 1.0,
      "velocity": 100
    },
    {
      "time": 15.75,
      "note": 72,
      "duration": 0.25,
      "velocity": 100
    },
    {
      "time": 16.0,
      "note": 76,
      "duration": 0.25,
      "velocity": 100
    },
    {
      "time": 16.25,
      "note": 79,
      "duration": 0.25,
      "velocity": 100
    },
    {
      "time": 16.5,
      "note": 79,
      "duration": 0.25,
      "velocity": 100
    },
    {
      "time": 16.75,
      "note": 76,
      "duration": 0.25,
      "velocity": 100
    },
    {
      "time": 17.0,
      "note": 76,
      "duration": 0.25,
      "velocity": 100
    },
    {
      "time": 17.25,
      "note": 79,
      "duration": 0.25,
      "velocity": 100
    },
    {
      "time": 19.25,
      "note": 81,
      "duration": 0.25,
      "velocity": 100
    },
    {
      "time": 17.5,
      "note": 79,
      "duration": 0.25,
      "velocity": 100
    },
    {
      "time": 17.75,
      "note": 77,
      "duration": 0.25,
      "velocity": 100
    },
    {
      "time": 18.0,
      "note": 76,
      "duration": 0.25,
      "velocity": 100
    },
    {
      "time": 18.25,
      "note": 72,
      "duration": 0.25,
      "velocity": 100
    },
    {
      "time": 18.5,
      "note": 81,
      "duration": 0.25,
      "velocity": 100
    },
    {
      "time": 18.75,
      "note": 81,
      "duration": 0.25,
      "velocity": 100
    },
    {
      "time": 19.0,
      "note": 81,
      "duration": 0.25,
      "velocity": 100
    },
    {
      "time": 19.25,
      "note": 81,
      "duration": 0.25,
      "velocity": 100
    },
    {
      "time": 19.5,
      "note": 81,
      "duration": 0.25,
      "velocity": 100
    },
    {
      "time": 19.75,
      "note": 81,
      "duration": 0.25,
      "velocity": 100
    },
    {
      "time": 20.0,
      "note": 79,
      "duration": 0.25,
      "velocity": 100
    },
    {
      "time": 20.25,
      "note": 79,
      "duration": 0.5,
      "velocity": 100
    },
    {
      "time": 18.5,
      "note": 84,
      "duration": 1.0,
      "velocity": 100
    },
    {
      "time": 19.5,
      "note": 76,
      "duration": 0.5,
      "velocity": 100
    },
    {
      "time": 20.0,
      "note": 94,
      "duration": 0.25,
      "velocity": 100
    },
    {
      "time": 20.25,
      "note": 91,
      "duration": 0.375,
      "velocity": 100
    },
    {
      "time": 20.625,
      "note": 89,
      "duration": 0.25,
      "velocity": 100
    },
    {
      "time": 20.25,
      "note": 74,
      "duration": 0.5,
      "velocity": 100
    },
    {
      "time": 20.75,
      "note": 74,
      "duration": 1.0,
      "velocity": 100
    },
    {
      "time": 20.75,
      "note": 91,
      "duration": 0.25,
      "velocity": 100
    },
    {
      "time": 21.0,
      "note": 94,
      "duration": 0.25,
      "velocity": 100
    },
    {
      "time": 21.25,
      "note": 91,
      "duration": 0.25,
      "velocity": 100
    },
    {
      "time": 21.5,
      "note": 89,
      "duration": 0.25,
      "velocity": 100
    },
    {
      "time": 21.75,
      "note": 89,
      "duration": 0.25,
      "velocity": 100
    },
    {
      "time": 22.0,
      "note": 89,
      "duration": 0.25,
      "velocity": 100
    },
    {
      "time": 22.25,
      "note": 91,
      "duration": 1.5,
      "velocity": 100
    },
    {
      "time": 23.75,
      "note": 81,
      "duration": 0.25,
      "velocity": 100
    },
    {
      "time": 24.0,
      "note": 79,
      "duration": 0.25,
      "velocity": 100
    },
    {
      "time": 24.25,
      "note": 79,
      "duration": 0.5,
      "velocity": 100
    },
    {
      "time": 24.75,
      "note": 79,
      "duration": 0.25,
      "velocity": 100
    },
    {
      "time": 25.0,
      "note": 79,
      "duration": 0.25,
      "velocity": 100
    },
    {
      "time": 25.25,
      "note": 81,
      "duration": 0.25,
      "velocity": 100
    },
    {
      "time": 25.5,
      "note": 79,
      "duration": 0.25,
      "velocity": 100
    },
    {
      "time": 25.75,
      "note": 81,
      "duration": 0.25,
      "velocity": 100
    },
    {
      "time": 24.25,
      "note": 81,
      "duration": 0.25,
      "velocity": 100
    },
    {
      "time": 24.5,
      "note": 79,
      "duration": 0.25,
      "velocity": 100
    },
    {
      "time": 24.75,
      "note": 79,
      "duration": 0.25,
      "velocity": 100
    },
    {
      "time": 25.0,
      "note": 79,
      "duration": 0.25,
      "velocity": 100
    },
    {
      "time": 25.25,
      "note": 81,
      "duration": 0.25,
      "velocity": 100
    },
    {
      "time": 25.5,
      "note": 79,
      "duration": 0.5,
      "velocity": 100
    },
    {
      "time": 26.0,
      "note": 81,
      "duration": 0.25,
      "velocity": 100
    },
    {
      "time": 24.25,
      "note": 77,
      "duration": 1.0,
      "velocity": 100
    },
    {
      "time": 26.25,
      "note": 81,
      "duration": 1.0,
      "velocity": 100
    },
    {
      "time": 27.25,
      "note": 81,
      "duration": 0.5,
      "velocity": 100
    },
    {
      "time": 27.75,
      "note": 79,
      "duration": 0.5,
      "velocity": 100
    },
    {
      "time": 28.25,
      "note": 82,
      "duration": 0.25,
      "velocity": 100
    },
    {
      "time": 28.5,
      "note": 81,
      "duration": 0.25,
      "velocity": 100
    },
    {
      "time": 28.75,
      "note": 81,
      "duration": 0.25,
      "velocity": 100
    },
    {
      "time": 29.0,
      "note": 81,
      "duration": 0.25,
      "velocity": 100
    },
    {
      "time": 29.25,
      "note": 81,
      "duration": 0.25,
      "velocity": 100
    },
    {
      "time": 29.5,
      "note": 82,
      "duration": 0.25,
      "velocity": 100
    },
    {
      "time": 29.75,
      "note": 81,
      "duration": 0.25,
      "velocity": 100
    },
    {
      "time": 30.0,
      "note": 82,
      "duration": 0.25,
      "velocity": 100
    },
    {
      "time": 28.75,
      "note": 82,
      "duration": 0.25,
      "velocity": 100
    },
    {
      "time": 29.0,
      "note": 81,
      "duration": 0.25,
      "velocity": 100
    },
    {
      "time": 29.25,
      "note": 81,
      "duration": 0.25,
      "velocity": 100
    },
    {
      "time": 29.5,
      "note": 81,
      "duration": 0.25,
      "velocity": 100
    },
    {
      "time": 29.75,
      "note": 81,
      "duration": 0.25,
      "velocity": 100
    },
    {
      "time": 30.0,
      "note": 84,
      "duration": 0.25,
      "velocity": 100
    },
    {
      "time": 30.25,
      "note": 82,
      "duration": 0.25,
      "velocity": 100
    },
    {
      "time": 30.5,
      "note": 82,
      "duration": 0.25,
      "velocity": 100
    },
    {
      "time": 30.75,
      "note": 82,
      "duration": 0.5,
      "velocity": 100
    },
    {
      "time": 31.25,
      "note": 84,
      "duration": 0.25,
      "velocity": 100
    },
    {
      "time": 31.5,
      "note": 82,
      "duration": 0.25,
      "velocity": 100
    },
    {
      "time": 31.75,
      "note": 81,
      "duration": 1.0,
      "velocity": 100
    },
    {
      "time": 34.5,
      "note": 82,
      "duration": 0.25,
      "velocity": 100
    },
    {
      "time": 32.75,
      "note": 74,
      "duration": 0.5,
      "velocity": 100
    },
    {
      "time": 33.25,
      "note": 82,
      "duration": 0.25,
      "velocity": 100
    },
    {
      "time": 33.5,
      "note": 81,
      "duration": 0.25,
      "velocity": 100
    },
    {
      "time": 33.75,
      "note": 81,
      "duration": 0.25,
      "velocity": 100
    },
    {
      "time": 34.0,
      "note": 81,
      "duration": 0.25,
      "velocity": 100
    },
    {
      "time": 34.25,
      "note": 81,
      "duration": 0.5,
      "velocity": 100
    },
    {
      "time": 34.75,
      "note": 84,
      "duration": 0.25,
      "velocity": 100
    },
    {
      "time": 35.0,
      "note": 82,
      "duration": 0.25,
      "velocity": 100
    },
    {
      "time": 35.25,
      "note": 79,
      "duration": 0.25,
      "velocity": 100
    },
    {
      "time": 35.5,
      "note": 79,
      "duration": 0.25,
      "velocity": 100
    },
    {
      "time": 35.75,
      "note": 79,
      "duration": 0.5,
      "velocity": 100
    },
    {
      "time": 37.5,
      "note": 84,
      "duration": 1.0,
      "velocity": 100
    },
    {
      "time": 39.0,
      "note": 79,
      "duration": 0.25,
      "velocity": 100
    },
    {
      "time": 39.25,
      "note": 81,
      "duration": 0.25,
      "velocity": 100
    },
    {
      "time": 39.5,
      "note": 82,
      "duration": 0.25,
      "velocity": 100
    },
    {
      "time": 39.75,
      "note": 79,
      "duration": 0.25,
      "velocity": 100
    },
    {
      "time": 40.5,
      "note": 86,
      "duration": 0.5,
      "velocity": 100
    },
    {
      "time": 41.0,
      "note": 84,
      "duration": 0.25,
      "velocity": 100
    },
    {
      "time": 41.25,
      "note": 82,
      "duration": 0.25,
      "velocity": 100
    },
    {
      "time": 41.5,
      "note": 74,
      "duration": 0.5,
      "velocity": 100
    },
    {
      "time": 42.0,
      "note": 82,
      "duration": 0.5,
      "velocity": 100
    },
    {
      "time": 42.0,
      "note": 81,
      "duration": 0.5,
      "velocity": 100
    },
    {
      "time": 40.5,
      "note": 82,
      "duration": 0.5,
      "velocity": 100
    },
    {
      "time": 41.0,
      "note": 79,
      "duration": 0.25,
      "velocity": 100
    },
    {
      "time": 41.25,
      "note": 81,
      "duration": 0.25,
      "velocity": 100
    },
    {
      "time": 41.5,
      "note": 82,
      "duration": 0.25,
      "velocity": 100
    },
    {
      "time": 41.75,
      "note": 79,
      "duration": 0.25,
      "velocity": 100
    },
    {
      "time": 42.5,
      "note": 88,
      "duration": 0.5,
      "velocity": 100
    },
    {
      "time": 43.0,
      "note": 86,
      "duration": 0.25,
      "velocity": 100
    },
    {
      "time": 43.25,
      "note": 84,
      "duration": 0.25,
      "velocity": 100
    },
    {
      "time": 43.5,
      "note": 76,
      "duration": 0.5,
      "velocity": 100
    },
    {
      "time": 44.0,
      "note": 84,
      "duration": 0.5,
      "velocity": 100
    },
    {
      "time": 44.0,
      "note": 82,
      "duration": 0.5,
      "velocity": 100
    },
    {
      "time": 42.5,
      "note": 84,
      "duration": 0.5,
      "velocity": 100
    },
    {
      "time": 43.0,
      "note": 79,
      "duration": 0.25,
      "velocity": 100
    },
    {
      "time": 43.25,
      "note": 81,
      "duration": 0.25,
      "velocity": 100
    },
    {
      "time": 43.5,
      "note": 82,
      "duration": 0.25,
      "velocity": 100
    },
    {
      "time": 43.75,
      "note": 79,
      "duration": 0.25,
      "velocity": 100
    },
    {
      "time": 44.5,
      "note": 88,
      "duration": 0.5,
      "velocity": 100
    },
    {
      "time": 45.0,
      "note": 86,
      "duration": 0.25,
      "velocity": 100
    },
    {
      "time": 45.25,
      "note": 84,
      "duration": 0.25,
      "velocity": 100
    },
    {
      "time": 45.5,
      "note": 76,
      "duration": 0.5,
      "velocity": 100
    },
    {
      "time": 46.0,
      "note": 84,
      "duration": 0.5,
      "velocity": 100
    },
    {
      "time": 46.0,
      "note": 82,
      "duration": 0.5,
      "velocity": 100
    },
    {
      "time": 44.5,
      "note": 84,
      "duration": 1.0,
      "velocity": 100
    },
    {
      "time": 45.5,
      "note": 84,
      "duration": 0.5,
      "velocity": 100
    },
    {
      "time": 46.0,
      "note": 79,
      "duration": 0.25,
      "velocity": 100
    },
    {
      "time": 46.25,
      "note": 81,
      "duration": 0.25,
      "velocity": 100
    },
    {
      "time": 44.5,
      "note": 86,
      "duration": 0.5,
      "velocity": 100
    },
    {
      "time": 45.0,
      "note": 84,
      "duration": 0.25,
      "velocity": 100
    },
    {
      "time": 45.25,
      "note": 82,
      "duration": 0.25,
      "velocity": 100
    },
    {
      "time": 45.5,
      "note": 82,
      "duration": 0.25,
      "velocity": 100
    },
    {
      "time": 45.75,
      "note": 81,
      "duration": 0.5,
      "velocity": 100
    },
    {
      "time": 46.25,
      "note": 82,
      "duration": 0.25,
      "velocity": 100
    },
    {
      "time": 46.5,
      "note": 82,
      "duration": 0.5,
      "velocity": 100
    },
    {
      "time": 47.0,
      "note": 82,
      "duration": 0.25,
      "velocity": 100
    },
    {
      "time": 47.25,
      "note": 81,
      "duration": 0.25,
      "velocity": 100
    },
    {
      "time": 47.5,
      "note": 82,
      "duration": 0.5,
      "velocity": 100
    },
    {
      "time": 48.0,
      "note": 82,
      "duration": 0.25,
      "velocity": 100
    },
    {
      "time": 48.25,
      "note": 82,
      "duration": 0.25,
      "velocity": 100
    },
    {
      "time": 48.5,
      "note": 82,
      "duration": 0.25,
      "velocity": 100
    },
    {
      "time": 48.75,
      "note": 84,
      "duration": 0.25,
      "velocity": 100
    },
    {
      "time": 49.0,
      "note": 84,
      "duration": 0.5,
      "velocity": 100
    },
    {
      "time": 49.5,
      "note": 84,
      "duration": 1.0,
      "velocity": 100
    },
    {
      "time": 48.75,
      "note": 67,
      "duration": 0.25,
      "velocity": 100
    },
    {
      "time": 49.0,
      "note": 72,
      "duration": 0.25,
      "velocity": 100
    },
    {
      "time": 49.25,
      "note": 74,
      "duration": 0.25,
      "velocity": 100
    },
    {
      "time": 49.5,
      "note": 76,
      "duration": 0.25,
      "velocity": 100
    },
    {
      "time": 49.75,
      "note": 67,
      "duration": 0.25,
      "velocity": 100
    },
    {
      "time": 50.0,
      "note": 72,
      "duration": 0.25,
      "velocity": 100
    },
    {
      "time": 50.25,
      "note": 72,
      "duration": 0.25,
      "velocity": 100
    },
    {
      "time": 50.75,
      "note": 86,
      "duration": 0.25,
      "velocity": 100
    },
    {
      "time": 51.0,
      "note": 84,
      "duration": 0.25,
      "velocity": 100
    },
    {
      "time": 51.25,
      "note": 86,
      "duration": 0.25,
      "velocity": 100
    },
    {
      "time": 51.5,
      "note": 86,
      "duration": 0.25,
      "velocity": 100
    },
    {
      "time": 51.75,
      "note": 84,
      "duration": 0.25,
      "velocity": 100
    },
    {
      "time": 52.0,
      "note": 86,
      "duration": 0.25,
      "velocity": 100
    },
    {
      "time": 52.25,
      "note": 84,
      "duration": 0.25,
      "velocity": 100
    },
    {
      "time": 52.5,
      "note": 82,
      "duration": 0.25,
      "velocity": 100
    },
    {
      "time": 52.75,
      "note": 82,
      "duration": 0.75,
      "velocity": 100
    },
    {
      "time": 52.75,
      "note": 82,
      "duration": 0.25,
      "velocity": 100
    },
    {
      "time": 53.0,
      "note": 79,
      "duration": 0.25,
      "velocity": 100
    },
    {
      "time": 53.25,
      "note": 78,
      "duration": 0.25,
      "velocity": 100
    },
    {
      "time": 53.5,
      "note": 84,
      "duration": 0.5,
      "velocity": 100
    },
    {
      "time": 54.0,
      "note": 78,
      "duration": 0.25,
      "velocity": 100
    },
    {
      "time": 54.25,
      "note": 77,
      "duration": 0.25,
      "velocity": 100
    },
    {
      "time": 54.75,
      "note": 86,
      "duration": 0.5,
      "velocity": 100
    },
    {
      "time": 55.25,
      "note": 82,
      "duration": 0.25,
      "velocity": 100
    },
    {
      "time": 55.5,
      "note": 77,
      "duration": 0.25,
      "velocity": 100
    },
    {
      "time": 55.5,
      "note": 84,
      "duration": 0.25,
      "velocity": 100
    },
    {
      "time": 55.75,
      "note": 86,
      "duration": 0.25,
      "velocity": 100
    },
    {
      "time": 56.0,
      "note": 84,
      "duration": 0.5,
      "velocity": 100
    },
    {
      "time": 54.5,
      "note": 86,
      "duration": 0.25,
      "velocity": 100
    },
    {
      "time": 54.75,
      "note": 84,
      "duration": 0.25,
      "velocity": 100
    },
    {
      "time": 55.0,
      "note": 84,
      "duration": 0.25,
      "velocity": 100
    },
    {
      "time": 55.25,
      "note": 84,
      "duration": 0.25,
      "velocity": 100
    },
    {
      "time": 55.5,
      "note": 84,
      "duration": 0.25,
      "velocity": 100
    },
    {
      "time": 55.75,
      "note": 84,
      "duration": 0.25,
      "velocity": 100
    },
    {
      "time": 56.0,
      "note": 82,
      "duration": 0.25,
      "velocity": 100
    },
    {
      "time": 56.25,
      "note": 81,
      "duration": 0.25,
      "velocity": 100
    },
    {
      "time": 56.5,
      "note": 81,
      "duration": 0.25,
      "velocity": 100
    },
    {
      "time": 56.75,
      "note": 81,
      "duration": 0.25,
      "velocity": 100
    },
    {
      "time": 57.0,
      "note": 81,
      "duration": 0.25,
      "velocity": 100
    },
    {
      "time": 57.25,
      "note": 81,
      "duration": 0.25,
      "velocity": 100
    },
    {
      "time": 57.5,
      "note": 81,
      "duration": 0.5,
      "velocity": 100
    },
    {
      "time": 58.0,
      "note": 86,
      "duration": 0.25,
      "velocity": 100
    },
    {
      "time": 58.25,
      "note": 82,
      "duration": 0.25,
      "velocity": 100
    },
    {
      "time": 58.5,
      "note": 81,
      "duration": 0.5,
      "velocity": 100
    },
    {
      "time": 59.0,
      "note": 79,
      "duration": 0.5,
      "velocity": 100
    },
    {
      "time": 59.5,
      "note": 79,
      "duration": 1.0,
      "velocity": 100
    }
  ],
  "chords": [
    {
      "time": 0.0,
      "notes": [
        67,
        70,
        74
      ],
      "duration": 2.240740740740741
    },
    {
      "time": 2.240740740740741,
      "notes": [
        69,
        73,
        76
      ],
      "duration": 2.240740740740741
    },
    {
      "time": 4.481481481481482,
      "notes": [
        62,
        66,
        69,
        72
      ],
      "duration": 2.240740740740741
    },
    {
      "time": 6.722222222222223,
      "notes": [
        67,
        70,
        74
      ],
      "duration": 2.240740740740741
    },
    {
      "time": 8.962962962962964,
      "notes": [
        69,
        73,
        76
      ],
      "duration": 2.240740740740741
    },
    {
      "time": 11.203703703703704,
      "notes": [
        62,
        66,
        69,
        72
      ],
      "duration": 2.240740740740741
    },
    {
      "time": 13.444444444444446,
      "notes": [
        67,
        70,
        74
      ],
      "duration": 2.240740740740741
    },
    {
      "time": 15.685185185185187,
      "notes": [
        62,
        66,
        69
      ],
      "duration": 2.240740740740741
    },
    {
      "time": 17.925925925925927,
      "notes": [
        60,
        63,
        67
      ],
      "duration": 2.240740740740741
    },
    {
      "time": 20.166666666666668,
      "notes": [
        62,
        66,
        69,
        72
      ],
      "duration": 2.240740740740741
    },
    {
      "time": 22.40740740740741,
      "notes": [
        67,
        70,
        74
      ],
      "duration": 2.240740740740741
    },
    {
      "time": 24.64814814814815,
      "notes": [
        67,
        71,
        74,
        77
      ],
      "duration": 2.240740740740741
    },
    {
      "time": 26.888888888888893,
      "notes": [
        60,
        63,
        67
      ],
      "duration": 2.240740740740741
    },
    {
      "time": 29.129629629629633,
      "notes": [
        69,
        73,
        76,
        79
      ],
      "duration": 2.240740740740741
    },
    {
      "time": 31.370370370370374,
      "notes": [
        62,
        66,
        69,
        72
      ],
      "duration": 2.240740740740741
    },
    {
      "time": 33.611111111111114,
      "notes": [
        62,
        66,
        69,
        72
      ],
      "duration": 2.240740740740741
    },
    {
      "time": 35.851851851851855,
      "notes": [
        67,
        70,
        74
      ],
      "duration": 2.240740740740741
    },
    {
      "time": 38.092592592592595,
      "notes": [
        60,
        63,
        67
      ],
      "duration": 2.240740740740741
    },
    {
      "time": 40.333333333333336,
      "notes": [
        65,
        69,
        72
      ],
      "duration": 2.240740740740741
    },
    {
      "time": 42.574074074074076,
      "notes": [
        70,
        74,
        77
      ],
      "duration": 2.240740740740741
    },
    {
      "time": 44.81481481481482,
      "notes": [
        67,
        70,
        74
      ],
      "duration": 2.240740740740741
    },
    {
      "time": 47.05555555555556,
      "notes": [
        60,
        63,
        67
      ],
      "duration": 2.240740740740741
    },
    {
      "time": 49.2962962962963,
      "notes": [
        62,
        66,
        69,
        72
      ],
      "duration": 2.240740740740741
    },
    {
      "time": 51.53703703703704,
      "notes": [
        67,
        70,
        74
      ],
      "duration": 2.240740740740741
    },
    {
      "time": 53.777777777777786,
      "notes": [
        63,
        67,
        70
      ],
      "duration": 2.240740740740741
    },
    {
      "time": 56.018518518518526,
      "notes": [
        62,
        66,
        69,
        72
      ],
      "duration": 2.240740740740741
    },
    {
      "time": 58.25925925925927,
      "notes": [
        67,
        70,
        74
      ],
      "duration": 2.240740740740741
    }
  ]
}