{
  "title": "Solo aspirinas",
  "artist": "Damas Gratis",
  "bpm": 120,
  "duration": 57.0,
  "audioFile": "",
  "notes": [
    {
      "time": 0.0,
      "note": 74,
      "duration": 0.25,
      "velocity": 100
    },
    {
      "time": 0.25,
      "note": 81,
      "duration": 0.125,
      "velocity": 100
    },
    {
      "time": 0.375,
      "note": 84,
      "duration": 0.125,
      "velocity": 100
    },
    {
      "time": 0.5,
      "note": 86,
      "duration": 0.25,
      "velocity": 100
    },
    {
      "time": 0.75,
      "note": 81,
      "duration": 0.125,
      "velocity": 100
    },
    {
      "time": 0.875,
      "note": 84,
      "duration": 0.125,
      "velocity": 100
    },
    {
      "time": 1.0,
      "note": 86,
      "duration": 0.25,
      "velocity": 100
    },
    {
      "time": 1.25,
      "note": 81,
      "duration": 0.125,
      "velocity": 100
    },
    {
      "time": 1.375,
      "note": 84,
      "duration": 0.125,
      "velocity": 100
    },
    {
      "time": 1.5,
      "note": 86,
      "duration": 0.25,
      "velocity": 100
    },
    {
      "time": 1.75,
      "note": 81,
      "duration": 0.25,
      "velocity": 100
    },
    {
      "time": 2.0,
      "note": 72,
      "duration": 1.0,
      "velocity": 100
    },
    {
      "time": 3.0,
      "note": 72,
      "duration": 0.5,
      "velocity": 100
    },
    {
      "time": 3.5,
      "note": 76,
      "duration": 0.125,
      "velocity": 100
    },
    {
      "time": 3.625,
      "note": 79,
      "duration": 0.125,
      "velocity": 100
    },
    {
      "time": 3.75,
      "note": 72,
      "duration": 0.25,
      "velocity": 100
    },
    {
      "time": 4.0,
      "note": 74,
      "duration": 0.25,
      "velocity": 100
    },
    {
      "time": 4.25,
      "note": 81,
      "duration": 0.125,
      "velocity": 100
    },
    {
      "time": 4.375,
      "note": 84,
      "duration": 0.125,
      "velocity": 100
    },
    {
      "time": 4.5,
      "note": 86,
      "duration": 0.25,
      "velocity": 100
    },
    {
      "time": 4.75,
      "note": 81,
      "duration": 0.125,
      "velocity": 100
    },
    {
      "time": 4.875,
      "note": 84,
      "duration": 0.125,
      "velocity": 100
    },
    {
      "time": 5.0,
      "note": 86,
      "duration": 0.25,
      "velocity": 100
    },
    {
      "time": 5.25,
      "note": 81,
      "duration": 0.125,
      "velocity": 100
    },
    {
      "time": 5.375,
      "note": 84,
      "duration": 0.125,
      "velocity": 100
    },
    {
      "time": 5.5,
      "note": 86,
      "duration": 0.25,
      "velocity": 100
    },
    {
      "time": 5.75,
      "note": 89,
      "duration": 0.25,
      "velocity": 100
    },
    {
      "time": 6.25,
      "note": 88,
      "duration": 0.5,
      "velocity": 100
    },
    {
      "time": 6.75,
      "note": 88,
      "duration": 0.375,
      "velocity": 100
    },
    {
      "time": 7.125,
      "note": 82,
      "duration": 0.125,
      "velocity": 100
    },
    {
      "time": 7.25,
      "note": 79,
      "duration": 0.375,
      "velocity": 100
    },
    {
      "time": 7.625,
      "note": 79,
      "duration": 0.125,
      "velocity": 100
    },
    {
      "time": 7.75,
      "note": 76,
      "duration": 0.375,
      "velocity": 100
    },
    {
      "time": 8.125,
      "note": 72,
      "duration": 0.125,
      "velocity": 100
    },
    {
      "time": 8.25,
      "note": 74,
      "duration": 0.25,
      "velocity": 100
    },
    {
      "time": 8.5,
      "note": 74,
      "duration": 0.125,
      "velocity": 100
    },
    {
      "time": 8.625,
      "note": 74,
      "duration": 0.125,
      "velocity": 100
    },
    {
      "time": 8.75,
      "note": 77,
      "duration": 0.125,
      "velocity": 100
    },
    {
      "time": 8.875,
      "note": 81,
      "duration": 0.125,
      "velocity": 100
    },
    {
      "time": 9.0,
      "note": 72,
      "duration": 0.25,
      "velocity": 100
    },
    {
      "time": 9.25,
      "note": 74,
      "duration": 0.25,
      "velocity": 100
    },
    {
      "time": 9.5,
      "note": 74,
      "duration": 0.125,
      "velocity": 100
    },
    {
      "time": 9.625,
      "note": 74,
      "duration": 0.125,
      "velocity": 100
    },
    {
      "time": 9.75,
      "note": 77,
      "duration": 0.125,
      "velocity": 100
    },
    {
      "time": 9.875,
      "note": 81,
      "duration": 0.125,
      "velocity": 100
    },
    {
      "time": 10.0,
      "note": 72,
      "duration": 0.25,
      "velocity": 100
    },
    {
      "time": 10.25,
      "note": 74,
      "duration": 0.25,
      "velocity": 100
    },
    {
      "time": 10.5,
      "note": 74,
      "duration": 0.125,
      "velocity": 100
    },
    {
      "time": 10.625,
      "note": 74,
      "duration": 0.125,
      "velocity": 100
    },
    {
      "time": 10.75,
      "note": 77,
      "duration": 0.125,
      "velocity": 100
    },
    {
      "time": 10.875,
      "note": 81,
      "duration": 0.125,
      "velocity": 100
    },
    {
      "time": 11.0,
      "note": 72,
      "duration": 0.25,
      "velocity": 100
    },
    {
      "time": 11.25,
      "note": 74,
      "duration": 0.25,
      "velocity": 100
    },
    {
      "time": 11.5,
      "note": 74,
      "duration": 0.125,
      "velocity": 100
    },
    {
      "time": 11.625,
      "note": 74,
      "duration": 0.125,
      "velocity": 100
    },
    {
      "time": 11.75,
      "note": 74,
      "duration": 0.25,
      "velocity": 100
    },
    {
      "time": 12.0,
      "note": 74,
      "duration": 0.125,
      "velocity": 100
    },
    {
      "time": 12.125,
      "note": 74,
      "duration": 0.125,
      "velocity": 100
    },
    {
      "time": 12.25,
      "note": 74,
      "duration": 1.0,
      "velocity": 100
    },
    {
      "time": 13.25,
      "note": 81,
      "duration": 0.5,
      "velocity": 100
    },
    {
      "time": 14.0,
      "note": 81,
      "duration": 0.25,
      "velocity": 100
    },
    {
      "time": 14.25,
      "note": 81,
      "duration": 0.375,
      "velocity": 100
    },
    {
      "time": 14.625,
      "note": 81,
      "duration": 0.125,
      "velocity": 100
    },
    {
      "time": 14.75,
      "note": 81,
      "duration": 0.125,
      "velocity": 100
    },
    {
      "time": 14.875,
      "note": 77,
      "duration": 0.125,
      "velocity": 100
    },
    {
      "time": 15.0,
      "note": 79,
      "duration": 0.25,
      "velocity": 100
    },
    {
      "time": 15.25,
      "note": 81,
      "duration": 0.5,
      "velocity": 100
    },
    {
      "time": 16.125,
      "note": 81,
      "duration": 0.5,
      "velocity": 100
    },
    {
      "time": 16.625,
      "note": 81,
      "duration": 0.25,
      "velocity": 100
    },
    {
      "time": 16.875,
      "note": 81,
      "duration": 0.125,
      "velocity": 100
    },
    {
      "time": 17.0,
      "note": 81,
      "duration": 0.125,
      "velocity": 100
    },
    {
      "time": 17.125,
      "note": 81,
      "duration": 0.125,
      "velocity": 100
    },
    {
      "time": 17.375,
      "note": 84,
      "duration": 0.25,
      "velocity": 100
    },
    {
      "time": 17.625,
      "note": 84,
      "duration": 0.375,
      "velocity": 100
    },
    {
      "time": 18.0,
      "note": 82,
      "duration": 0.125,
      "velocity": 100
    },
    {
      "time": 18.125,
      "note": 82,
      "duration": 0.5,
      "velocity": 100
    },
    {
      "time": 19.125,
      "note": 69,
      "duration": 0.125,
      "velocity": 100
    },
    {
      "time": 19.25,
      "note": 70,
      "duration": 0.125,
      "velocity": 100
    },
    {
      "time": 19.375,
      "note": 69,
      "duration": 0.125,
      "velocity": 100
    },
    {
      "time": 19.5,
      "note": 70,
      "duration": 0.125,
      "velocity": 100
    },
    {
      "time": 20.125,
      "note": 79,
      "duration": 0.25,
      "velocity": 100
    },
    {
      "time": 20.375,
      "note": 79,
      "duration": 0.25,
      "velocity": 100
    },
    {
      "time": 19.625,
      "note": 67,
      "duration": 1.0,
      "velocity": 100
    },
    {
      "time": 20.625,
      "note": 86,
      "duration": 0.375,
      "velocity": 100
    },
    {
      "time": 21.0,
      "note": 84,
      "duration": 0.125,
      "velocity": 100
    },
    {
      "time": 21.125,
      "note": 84,
      "duration": 0.125,
      "velocity": 100
    },
    {
      "time": 21.25,
      "note": 84,
      "duration": 0.125,
      "velocity": 100
    },
    {
      "time": 21.375,
      "note": 84,
      "duration": 0.25,
      "velocity": 100
    },
    {
      "time": 21.625,
      "note": 84,
      "duration": 0.5,
      "velocity": 100
    },
    {
      "time": 22.125,
      "note": 84,
      "duration": 0.5,
      "velocity": 100
    },
    {
      "time": 23.125,
      "note": 79,
      "duration": 0.375,
      "velocity": 100
    },
    {
      "time": 23.5,
      "note": 79,
      "duration": 0.125,
      "velocity": 100
    },
    {
      "time": 23.625,
      "note": 84,
      "duration": 0.375,
      "velocity": 100
    },
    {
      "time": 24.0,
      "note": 84,
      "duration": 0.125,
      "velocity": 100
    },
    {
      "time": 24.25,
      "note": 79,
      "duration": 0.25,
      "velocity": 100
    },
    {
      "time": 24.5,
      "note": 79,
      "duration": 0.125,
      "velocity": 100
    },
    {
      "time": 24.625,
      "note": 82,
      "duration": 0.375,
      "velocity": 100
    },
    {
      "time": 25.0,
      "note": 81,
      "duration": 0.125,
      "velocity": 100
    },
    {
      "time": 25.125,
      "note": 81,
      "duration": 0.5,
      "velocity": 100
    },
    {
      "time": 26.125,
      "note": 81,
      "duration": 0.25,
      "velocity": 100
    },
    {
      "time": 26.375,
      "note": 81,
      "duration": 0.125,
      "velocity": 100
    },
    {
      "time": 26.5,
      "note": 81,
      "duration": 0.25,
      "velocity": 100
    },
    {
      "time": 26.75,
      "note": 77,
      "duration": 0.125,
      "velocity": 100
    },
    {
      "time": 26.875,
      "note": 74,
      "duration": 1.0,
      "velocity": 100
    },
    {
      "time": 27.875,
      "note": 74,
      "duration": 0.5,
      "velocity": 100
    },
    {
      "time": 29.25,
      "note": 81,
      "duration": 0.125,
      "velocity": 100
    },
    {
      "time": 29.375,
      "note": 81,
      "duration": 0.125,
      "velocity": 100
    },
    {
      "time": 29.5,
      "note": 79,
      "duration": 0.125,
      "velocity": 100
    },
    {
      "time": 29.625,
      "note": 77,
      "duration": 0.25,
      "velocity": 100
    },
    {
      "time": 29.875,
      "note": 76,
      "duration": 0.375,
      "velocity": 100
    },
    {
      "time": 30.25,
      "note": 77,
      "duration": 0.125,
      "velocity": 100
    },
    {
      "time": 30.375,
      "note": 77,
      "duration": 0.5,
      "velocity": 100
    },
    {
      "time": 31.875,
      "note": 82,
      "duration": 0.375,
      "velocity": 100
    },
    {
      "time": 32.25,
      "note": 81,
      "duration": 0.125,
      "velocity": 100
    },
    {
      "time": 32.375,
      "note": 81,
      "duration": 0.375,
      "velocity": 100
    },
    {
      "time": 32.75,
      "note": 79,
      "duration": 0.125,
      "velocity": 100
    },
    {
      "time": 32.875,
      "note": 82,
      "duration": 0.375,
      "velocity": 100
    },
    {
      "time": 33.25,
      "note": 81,
      "duration": 0.125,
      "velocity": 100
    },
    {
      "time": 33.375,
      "note": 81,
      "duration": 0.125,
      "velocity": 100
    },
    {
      "time": 33.5,
      "note": 79,
      "duration": 0.25,
      "velocity": 100
    },
    {
      "time": 33.75,
      "note": 77,
      "duration": 0.125,
      "velocity": 100
    },
    {
      "time": 33.875,
      "note": 77,
      "duration": 0.25,
      "velocity": 100
    },
    {
      "time": 34.125,
      "note": 76,
      "duration": 0.125,
      "velocity": 100
    },
    {
      "time": 34.25,
      "note": 76,
      "duration": 0.5,
      "velocity": 100
    },
    {
      "time": 35.25,
      "note": 91,
      "duration": 0.375,
      "velocity": 100
    },
    {
      "time": 35.625,
      "note": 88,
      "duration": 0.125,
      "velocity": 100
    },
    {
      "time": 36.125,
      "note": 88,
      "duration": 0.75,
      "velocity": 100
    },
    {
      "time": 36.25,
      "note": 79,
      "duration": 0.375,
      "velocity": 100
    },
    {
      "time": 36.625,
      "note": 76,
      "duration": 0.125,
      "velocity": 100
    },
    {
      "time": 36.75,
      "note": 76,
      "duration": 0.375,
      "velocity": 100
    },
    {
      "time": 37.125,
      "note": 74,
      "duration": 0.125,
      "velocity": 100
    },
    {
      "time": 37.25,
      "note": 74,
      "duration": 0.5,
      "velocity": 100
    },
    {
      "time": 38.75,
      "note": 86,
      "duration": 0.125,
      "velocity": 100
    },
    {
      "time": 38.875,
      "note": 84,
      "duration": 0.125,
      "velocity": 100
    },
    {
      "time": 39.0,
      "note": 81,
      "duration": 0.125,
      "velocity": 100
    },
    {
      "time": 39.125,
      "note": 84,
      "duration": 0.125,
      "velocity": 100
    },
    {
      "time": 39.25,
      "note": 86,
      "duration": 0.5,
      "velocity": 100
    },
    {
      "time": 39.75,
      "note": 84,
      "duration": 0.25,
      "velocity": 100
    },
    {
      "time": 40.0,
      "note": 82,
      "duration": 0.25,
      "velocity": 100
    },
    {
      "time": 40.25,
      "note": 79,
      "duration": 0.25,
      "velocity": 100
    },
    {
      "time": 40.5,
      "note": 82,
      "duration": 0.25,
      "velocity": 100
    },
    {
      "time": 39.75,
      "note": 86,
      "duration": 0.125,
      "velocity": 100
    },
    {
      "time": 39.875,
      "note": 84,
      "duration": 0.125,
      "velocity": 100
    },
    {
      "time": 40.0,
      "note": 81,
      "duration": 0.25,
      "velocity": 100
    },
    {
      "time": 40.25,
      "note": 86,
      "duration": 0.5,
      "velocity": 100
    },
    {
      "time": 40.75,
      "note": 86,
      "duration": 0.5,
      "velocity": 100
    },
    {
      "time": 41.75,
      "note": 86,
      "duration": 0.125,
      "velocity": 100
    },
    {
      "time": 41.875,
      "note": 84,
      "duration": 0.125,
      "velocity": 100
    },
    {
      "time": 42.0,
      "note": 81,
      "duration": 0.125,
      "velocity": 100
    },
    {
      "time": 42.125,
      "note": 84,
      "duration": 0.125,
      "velocity": 100
    },
    {
      "time": 42.25,
      "note": 86,
      "duration": 0.25,
      "velocity": 100
    },
    {
      "time": 42.5,
      "note": 81,
      "duration": 0.25,
      "velocity": 100
    },
    {
      "time": 42.75,
      "note": 84,
      "duration": 0.25,
      "velocity": 100
    },
    {
      "time": 43.0,
      "note": 82,
      "duration": 0.25,
      "velocity": 100
    },
    {
      "time": 43.25,
      "note": 79,
      "duration": 0.25,
      "velocity": 100
    },
    {
      "time": 43.5,
      "note": 82,
      "duration": 0.25,
      "velocity": 100
    },
    {
      "time": 42.75,
      "note": 86,
      "duration": 0.125,
      "velocity": 100
    },
    {
      "time": 42.875,
      "note": 84,
      "duration": 0.125,
      "velocity": 100
    },
    {
      "time": 43.0,
      "note": 86,
      "duration": 0.25,
      "velocity": 100
    },
    {
      "time": 43.25,
      "note": 86,
      "duration": 0.5,
      "velocity": 100
    },
    {
      "time": 44.5,
      "note": 84,
      "duration": 0.25,
      "velocity": 100
    },
    {
      "time": 44.75,
      "note": 84,
      "duration": 0.25,
      "velocity": 100
    },
    {
      "time": 45.0,
      "note": 88,
      "duration": 0.5,
      "velocity": 100
    },
    {
      "time": 45.5,
      "note": 86,
      "duration": 0.25,
      "velocity": 100
    },
    {
      "time": 45.75,
      "note": 84,
      "duration": 0.25,
      "velocity": 100
    },
    {
      "time": 46.0,
      "note": 84,
      "duration": 0.25,
      "velocity": 100
    },
    {
      "time": 46.25,
      "note": 82,
      "duration": 0.125,
      "velocity": 100
    },
    {
      "time": 46.375,
      "note": 84,
      "duration": 0.125,
      "velocity": 100
    },
    {
      "time": 46.5,
      "note": 84,
      "duration": 0.5,
      "velocity": 100
    },
    {
      "time": 47.0,
      "note": 88,
      "duration": 0.5,
      "velocity": 100
    },
    {
      "time": 47.5,
      "note": 91,
      "duration": 0.5,
      "velocity": 100
    },
    {
      "time": 47.5,
      "note": 79,
      "duration": 0.5,
      "velocity": 100
    },
    {
      "time": 47.0,
      "note": 84,
      "duration": 0.125,
      "velocity": 100
    },
    {
      "time": 47.125,
      "note": 82,
      "duration": 0.125,
      "velocity": 100
    },
    {
      "time": 47.25,
      "note": 84,
      "duration": 0.25,
      "velocity": 100
    },
    {
      "time": 47.5,
      "note": 84,
      "duration": 0.25,
      "velocity": 100
    },
    {
      "time": 47.75,
      "note": 84,
      "duration": 0.25,
      "velocity": 100
    },
    {
      "time": 48.0,
      "note": 88,
      "duration": 0.375,
      "velocity": 100
    },
    {
      "time": 48.375,
      "note": 86,
      "duration": 0.125,
      "velocity": 100
    },
    {
      "time": 48.625,
      "note": 86,
      "duration": 0.125,
      "velocity": 100
    },
    {
      "time": 48.75,
      "note": 84,
      "duration": 0.25,
      "velocity": 100
    },
    {
      "time": 49.0,
      "note": 86,
      "duration": 0.25,
      "velocity": 100
    },
    {
      "time": 49.25,
      "note": 84,
      "duration": 0.125,
      "velocity": 100
    },
    {
      "time": 49.375,
      "note": 86,
      "duration": 0.125,
      "velocity": 100
    },
    {
      "time": 49.5,
      "note": 86,
      "duration": 0.5,
      "velocity": 100
    },
    {
      "time": 50.5,
      "note": 84,
      "duration": 0.25,
      "velocity": 100
    },
    {
      "time": 50.75,
      "note": 84,
      "duration": 0.25,
      "velocity": 100
    },
    {
      "time": 51.0,
      "note": 88,
      "duration": 0.375,
      "velocity": 100
    },
    {
      "time": 51.375,
      "note": 86,
      "duration": 0.125,
      "velocity": 100
    },
    {
      "time": 51.5,
      "note": 86,
      "duration": 0.125,
      "velocity": 100
    },
    {
      "time": 51.625,
      "note": 84,
      "duration": 0.125,
      "velocity": 100
    },
    {
      "time": 51.75,
      "note": 84,
      "duration": 0.25,
      "velocity": 100
    },
    {
      "time": 52.0,
      "note": 84,
      "duration": 0.25,
      "velocity": 100
    },
    {
      "time": 52.25,
      "note": 82,
      "duration": 0.125,
      "velocity": 100
    },
    {
      "time": 52.375,
      "note": 84,
      "duration": 0.125,
      "velocity": 100
    },
    {
      "time": 52.5,
      "note": 84,
      "duration": 0.5,
      "velocity": 100
    },
    {
      "time": 53.0,
      "note": 88,
      "duration": 0.25,
      "velocity": 100
    },
    {
      "time": 53.25,
      "note": 91,
      "duration": 0.125,
      "velocity": 100
    },
    {
      "time": 53.375,
      "note": 91,
      "duration": 0.125,
      "velocity": 100
    },
    {
      "time": 53.5,
      "note": 86,
      "duration": 0.125,
      "velocity": 100
    },
    {
      "time": 53.625,
      "note": 89,
      "duration": 0.125,
      "velocity": 100
    },
    {
      "time": 53.75,
      "note": 86,
      "duration": 0.125,
      "velocity": 100
    },
    {
      "time": 53.875,
      "note": 89,
      "duration": 0.125,
      "velocity": 100
    },
    {
      "time": 54.0,
      "note": 84,
      "duration": 0.125,
      "velocity": 100
    },
    {
      "time": 54.125,
      "note": 82,
      "duration": 0.125,
      "velocity": 100
    },
    {
      "time": 54.25,
      "note": 84,
      "duration": 0.25,
      "velocity": 100
    },
    {
      "time": 54.5,
      "note": 84,
      "duration": 0.25,
      "velocity": 100
    },
    {
      "time": 54.75,
      "note": 84,
      "duration": 0.25,
      "velocity": 100
    },
    {
      "time": 55.0,
      "note": 88,
      "duration": 0.375,
      "velocity": 100
    },
    {
      "time": 55.375,
      "note": 86,
      "duration": 0.125,
      "velocity": 100
    },
    {
      "time": 55.625,
      "note": 86,
      "duration": 0.25,
      "velocity": 100
    },
    {
      "time": 55.875,
      "note": 84,
      "duration": 0.125,
      "velocity": 100
    },
    {
      "time": 56.0,
      "note": 86,
      "duration": 0.25,
      "velocity": 100
    },
    {
      "time": 56.25,
      "note": 88,
      "duration": 0.125,
      "velocity": 100
    },
    {
      "time": 56.375,
      "note": 86,
      "duration": 0.125,
      "velocity": 100
    },
    {
      "time": 56.5,
      "note": 86,
      "duration": 0.5,
      "velocity": 100
    }
  ],
  "chords": [
    {
      "time": 0.0,
      "notes": [
        62,
        65,
        69
      ],
      "duration": 2.1923076923076925
    },
    {
      "time": 2.1923076923076925,
      "notes": [
        60,
        64,
        67
      ],
      "duration": 2.1923076923076925
    },
    {
      "time": 4.384615384615385,
      "notes": [
        62,
        65,
        69
      ],
      "duration": 2.1923076923076925
    },
    {
      "time": 6.5769230769230775,
      "notes": [
        60,
        64,
        67
      ],
      "duration": 2.1923076923076925
    },
    {
      "time": 8.76923076923077,
      "notes": [
        62,
        65,
        69
      ],
      "duration": 2.1923076923076925
    },
    {
      "time": 10.961538461538463,
      "notes": [
        62,
        65,
        69
      ],
      "duration": 2.1923076923076925
    },
    {
      "time": 13.153846153846155,
      "notes": [
        67,
        70,
        74
      ],
      "duration": 2.1923076923076925
    },
    {
      "time": 15.346153846153847,
      "notes": [
        60,
        64,
        67
      ],
      "duration": 2.1923076923076925
    },
    {
      "time": 17.53846153846154,
      "notes": [
        65,
        69,
        72
      ],
      "duration": 2.1923076923076925
    },
    {
      "time": 19.730769230769234,
      "notes": [
        62,
        65,
        69
      ],
      "duration": 2.1923076923076925
    },
    {
      "time": 21.923076923076927,
      "notes": [
        62,
        65,
        69
      ],
      "duration": 2.1923076923076925
    },
    {
      "time": 24.115384615384617,
      "notes": [
        67,
        70,
        74
      ],
      "duration": 2.1923076923076925
    },
    {
      "time": 26.30769230769231,
      "notes": [
        60,
        64,
        67
      ],
      "duration": 2.1923076923076925
    },
    {
      "time": 28.500000000000004,
      "notes": [
        62,
        65,
        69
      ],
      "duration": 2.1923076923076925
    },
    {
      "time": 30.692307692307693,
      "notes": [
        60,
        64,
        67
      ],
      "duration": 2.1923076923076925
    },
    {
      "time": 32.88461538461539,
      "notes": [
        62,
        65,
        69
      ],
      "duration": 2.1923076923076925
    },
    {
      "time": 35.07692307692308,
      "notes": [
        62,
        65,
        69
      ],
      "duration": 2.1923076923076925
    },
    {
      "time": 37.269230769230774,
      "notes": [
        60,
        64,
        67
      ],
      "duration": 2.1923076923076925
    },
    {
      "time": 39.46153846153847,
      "notes": [
        62,
        65,
        69
      ],
      "duration": 2.1923076923076925
    },
    {
      "time": 41.65384615384616,
      "notes": [
        62,
        65,
        69
      ],
      "duration": 2.1923076923076925
    },
    {
      "time": 43.846153846153854,
      "notes": [
        60,
        64,
        67
      ],
      "duration": 2.1923076923076925
    },
    {
      "time": 46.03846153846154,
      "notes": [
        62,
        65,
        69
      ],
      "duration": 2.1923076923076925
    },
    {
      "time": 48.23076923076923,
      "notes": [
        60,
        64,
        67
      ],
      "duration": 2.1923076923076925
    },
    {
      "time": 50.42307692307693,
      "notes": [
        62,
        65,
        69
      ],
      "duration": 2.1923076923076925
    },
    {
      "time": 52.61538461538462,
      "notes": [
        60,
        64,
        67
      ],
      "duration": 2.1923076923076925
    },
    {
      "time": 54.807692307692314,
      "notes": [
        62,
        66,
        69
      ],
      "duration": 2.1923076923076925
    }
  ]
}