{
  "title": "El colesterol",
  "artist": "Ver. Lia Crucet",
  "bpm": 120,
  "duration": 66.75,
  "audioFile": "",
  "notes": [
    {
      "time": 0.0,
      "note": 74,
      "duration": 0.375,
      "velocity": 100
    },
    {
      "time": 0.375,
      "note": 74,
      "duration": 0.375,
      "velocity": 100
    },
    {
      "time": 0.75,
      "note": 74,
      "duration": 0.25,
      "velocity": 100
    },
    {
      "time": 1.0,
      "note": 79,
      "duration": 0.25,
      "velocity": 100
    },
    {
      "time": 1.0,
      "note": 79,
      "duration": 0.25,
      "velocity": 100
    },
    {
      "time": 1.25,
      "note": 82,
      "duration": 0.25,
      "velocity": 100
    },
    {
      "time": 1.25,
      "note": 79,
      "duration": 0.25,
      "velocity": 100
    },
    {
      "time": 1.5,
      "note": 82,
      "duration": 0.25,
      "velocity": 100
    },
    {
      "time": 1.5,
      "note": 79,
      "duration": 0.25,
      "velocity": 100
    },
    {
      "time": 1.75,
      "note": 82,
      "duration": 0.25,
      "velocity": 100
    },
    {
      "time": 1.75,
      "note": 79,
      "duration": 0.25,
      "velocity": 100
    },
    {
      "time": 2.0,
      "note": 82,
      "duration": 0.25,
      "velocity": 100
    },
    {
      "time": 2.0,
      "note": 82,
      "duration": 0.25,
      "velocity": 100
    },
    {
      "time": 2.25,
      "note": 86,
      "duration": 0.25,
      "velocity": 100
    },
    {
      "time": 2.25,
      "note": 82,
      "duration": 0.25,
      "velocity": 100
    },
    {
      "time": 2.5,
      "note": 86,
      "duration": 0.25,
      "velocity": 100
    },
    {
      "time": 2.5,
      "note": 82,
      "duration": 0.25,
      "velocity": 100
    },
    {
      "time": 2.75,
      "note": 86,
      "duration": 0.25,
      "velocity": 100
    },
    {
      "time": 2.75,
      "note": 82,
      "duration": 0.25,
      "velocity": 100
    },
    {
      "time": 3.0,
      "note": 86,
      "duration": 0.25,
      "velocity": 100
    },
    {
      "time": 3.0,
      "note": 77,
      "duration": 0.25,
      "velocity": 100
    },
    {
      "time": 3.25,
      "note": 81,
      "duration": 0.25,
      "velocity": 100
    },
    {
      "time": 3.25,
      "note": 74,
      "duration": 0.5,
      "velocity": 100
    },
    {
      "time": 3.75,
      "note": 77,
      "duration": 0.5,
      "velocity": 100
    },
    {
      "time": 4.25,
      "note": 74,
      "duration": 0.375,
      "velocity": 100
    },
    {
      "time": 4.625,
      "note": 74,
      "duration": 0.1875,
      "velocity": 100
    },
    {
      "time": 4.8125,
      "note": 74,
      "duration": 0.125,
      "velocity": 100
    },
    {
      "time": 4.9375,
      "note": 77,
      "duration": 0.125,
      "velocity": 100
    },
    {
      "time": 4.0,
      "note": 74,
      "duration": 0.25,
      "velocity": 100
    },
    {
      "time": 4.25,
      "note": 77,
      "duration": 0.25,
      "velocity": 100
    },
    {
      "time": 4.25,
      "note": 77,
      "duration": 0.25,
      "velocity": 100
    },
    {
      "time": 4.5,
      "note": 81,
      "duration": 0.25,
      "velocity": 100
    },
    {
      "time": 4.5,
      "note": 77,
      "duration": 0.25,
      "velocity": 100
    },
    {
      "time": 4.75,
      "note": 81,
      "duration": 0.25,
      "velocity": 100
    },
    {
      "time": 4.75,
      "note": 81,
      "duration": 0.25,
      "velocity": 100
    },
    {
      "time": 4.75,
      "note": 77,
      "duration": 0.25,
      "velocity": 100
    },
    {
      "time": 5.0,
      "note": 77,
      "duration": 0.25,
      "velocity": 100
    },
    {
      "time": 5.25,
      "note": 81,
      "duration": 0.25,
      "velocity": 100
    },
    {
      "time": 5.25,
      "note": 81,
      "duration": 0.25,
      "velocity": 100
    },
    {
      "time": 5.25,
      "note": 86,
      "duration": 0.25,
      "velocity": 100
    },
    {
      "time": 5.5,
      "note": 81,
      "duration": 0.25,
      "velocity": 100
    },
    {
      "time": 5.75,
      "note": 81,
      "duration": 0.25,
      "velocity": 100
    },
    {
      "time": 5.75,
      "note": 86,
      "duration": 0.25,
      "velocity": 100
    },
    {
      "time": 5.75,
      "note": 81,
      "duration": 0.25,
      "velocity": 100
    },
    {
      "time": 6.0,
      "note": 86,
      "duration": 0.25,
      "velocity": 100
    },
    {
      "time": 6.0,
      "note": 79,
      "duration": 0.25,
      "velocity": 100
    },
    {
      "time": 6.25,
      "note": 82,
      "duration": 0.25,
      "velocity": 100
    },
    {
      "time": 6.25,
      "note": 74,
      "duration": 0.5,
      "velocity": 100
    },
    {
      "time": 6.75,
      "note": 79,
      "duration": 0.5,
      "velocity": 100
    },
    {
      "time": 7.25,
      "note": 74,
      "duration": 0.375,
      "velocity": 100
    },
    {
      "time": 7.625,
      "note": 74,
      "duration": 0.375,
      "velocity": 100
    },
    {
      "time": 8.0,
      "note": 81,
      "duration": 0.25,
      "velocity": 100
    },
    {
      "time": 8.25,
      "note": 86,
      "duration": 0.25,
      "velocity": 100
    },
    {
      "time": 8.25,
      "note": 79,
      "duration": 0.25,
      "velocity": 100
    },
    {
      "time": 8.5,
      "note": 82,
      "duration": 0.25,
      "velocity": 100
    },
    {
      "time": 8.5,
      "note": 74,
      "duration": 0.5,
      "velocity": 100
    },
    {
      "time": 9.0,
      "note": 79,
      "duration": 0.5,
      "velocity": 100
    },
    {
      "time": 9.25,
      "note": 82,
      "duration": 0.25,
      "velocity": 100
    },
    {
      "time": 9.5,
      "note": 81,
      "duration": 0.25,
      "velocity": 100
    },
    {
      "time": 9.75,
      "note": 82,
      "duration": 0.25,
      "velocity": 100
    },
    {
      "time": 10.0,
      "note": 79,
      "duration": 0.5,
      "velocity": 100
    },
    {
      "time": 10.5,
      "note": 79,
      "duration": 0.5,
      "velocity": 100
    },
    {
      "time": 11.0,
      "note": 74,
      "duration": 0.5,
      "velocity": 100
    },
    {
      "time": 11.75,
      "note": 76,
      "duration": 0.25,
      "velocity": 100
    },
    {
      "time": 12.0,
      "note": 74,
      "duration": 0.25,
      "velocity": 100
    },
    {
      "time": 12.25,
      "note": 76,
      "duration": 0.25,
      "velocity": 100
    },
    {
      "time": 12.5,
      "note": 74,
      "duration": 0.25,
      "velocity": 100
    },
    {
      "time": 12.75,
      "note": 76,
      "duration": 0.25,
      "velocity": 100
    },
    {
      "time": 13.0,
      "note": 74,
      "duration": 0.25,
      "velocity": 100
    },
    {
      "time": 13.25,
      "note": 81,
      "duration": 0.25,
      "velocity": 100
    },
    {
      "time": 13.5,
      "note": 81,
      "duration": 0.25,
      "velocity": 100
    },
    {
      "time": 13.75,
      "note": 81,
      "duration": 0.25,
      "velocity": 100
    },
    {
      "time": 14.0,
      "note": 77,
      "duration": 0.5,
      "velocity": 100
    },
    {
      "time": 14.5,
      "note": 77,
      "duration": 0.5,
      "velocity": 100
    },
    {
      "time": 15.0,
      "note": 74,
      "duration": 0.5,
      "velocity": 100
    },
    {
      "time": 15.75,
      "note": 76,
      "duration": 0.25,
      "velocity": 100
    },
    {
      "time": 16.0,
      "note": 74,
      "duration": 0.25,
      "velocity": 100
    },
    {
      "time": 16.25,
      "note": 76,
      "duration": 0.25,
      "velocity": 100
    },
    {
      "time": 16.5,
      "note": 74,
      "duration": 0.25,
      "velocity": 100
    },
    {
      "time": 16.75,
      "note": 76,
      "duration": 0.25,
      "velocity": 100
    },
    {
      "time": 17.0,
      "note": 74,
      "duration": 0.25,
      "velocity": 100
    },
    {
      "time": 17.25,
      "note": 82,
      "duration": 0.25,
      "velocity": 100
    },
    {
      "time": 17.5,
      "note": 81,
      "duration": 0.25,
      "velocity": 100
    },
    {
      "time": 17.75,
      "note": 82,
      "duration": 0.25,
      "velocity": 100
    },
    {
      "time": 18.0,
      "note": 74,
      "duration": 0.25,
      "velocity": 100
    },
    {
      "time": 18.25,
      "note": 76,
      "duration": 0.25,
      "velocity": 100
    },
    {
      "time": 18.5,
      "note": 74,
      "duration": 0.25,
      "velocity": 100
    },
    {
      "time": 18.75,
      "note": 76,
      "duration": 0.25,
      "velocity": 100
    },
    {
      "time": 19.0,
      "note": 86,
      "duration": 0.5,
      "velocity": 100
    },
    {
      "time": 19.5,
      "note": 86,
      "duration": 0.5,
      "velocity": 100
    },
    {
      "time": 20.0,
      "note": 79,
      "duration": 0.5,
      "velocity": 100
    },
    {
      "time": 20.5,
      "note": 79,
      "duration": 0.25,
      "velocity": 100
    },
    {
      "time": 20.75,
      "note": 79,
      "duration": 0.25,
      "velocity": 100
    },
    {
      "time": 21.0,
      "note": 82,
      "duration": 0.5,
      "velocity": 100
    },
    {
      "time": 21.5,
      "note": 81,
      "duration": 0.25,
      "velocity": 100
    },
    {
      "time": 21.75,
      "note": 79,
      "duration": 0.25,
      "velocity": 100
    },
    {
      "time": 22.0,
      "note": 82,
      "duration": 0.5,
      "velocity": 100
    },
    {
      "time": 22.5,
      "note": 79,
      "duration": 0.5,
      "velocity": 100
    },
    {
      "time": 23.5,
      "note": 74,
      "duration": 0.25,
      "velocity": 100
    },
    {
      "time": 23.75,
      "note": 74,
      "duration": 0.25,
      "velocity": 100
    },
    {
      "time": 24.0,
      "note": 79,
      "duration": 0.5,
      "velocity": 100
    },
    {
      "time": 24.5,
      "note": 79,
      "duration": 0.25,
      "velocity": 100
    },
    {
      "time": 24.75,
      "note": 79,
      "duration": 0.25,
      "velocity": 100
    },
    {
      "time": 25.0,
      "note": 82,
      "duration": 0.5,
      "velocity": 100
    },
    {
      "time": 25.5,
      "note": 81,
      "duration": 0.25,
      "velocity": 100
    },
    {
      "time": 25.75,
      "note": 79,
      "duration": 0.25,
      "velocity": 100
    },
    {
      "time": 26.0,
      "note": 81,
      "duration": 0.75,
      "velocity": 100
    },
    {
      "time": 26.75,
      "note": 77,
      "duration": 1.0,
      "velocity": 100
    },
    {
      "time": 27.75,
      "note": 77,
      "duration": 0.5,
      "velocity": 100
    },
    {
      "time": 26.0,
      "note": 84,
      "duration": 0.5,
      "velocity": 100
    },
    {
      "time": 26.5,
      "note": 84,
      "duration": 0.25,
      "velocity": 100
    },
    {
      "time": 26.75,
      "note": 84,
      "duration": 0.25,
      "velocity": 100
    },
    {
      "time": 27.0,
      "note": 84,
      "duration": 0.5,
      "velocity": 100
    },
    {
      "time": 27.5,
      "note": 82,
      "duration": 0.25,
      "velocity": 100
    },
    {
      "time": 27.75,
      "note": 81,
      "duration": 0.25,
      "velocity": 100
    },
    {
      "time": 27.75,
      "note": 82,
      "duration": 0.5,
      "velocity": 100
    },
    {
      "time": 28.25,
      "note": 82,
      "duration": 0.25,
      "velocity": 100
    },
    {
      "time": 28.5,
      "note": 82,
      "duration": 0.25,
      "velocity": 100
    },
    {
      "time": 28.75,
      "note": 82,
      "duration": 0.5,
      "velocity": 100
    },
    {
      "time": 29.25,
      "note": 81,
      "duration": 0.25,
      "velocity": 100
    },
    {
      "time": 29.5,
      "note": 79,
      "duration": 0.25,
      "velocity": 100
    },
    {
      "time": 30.0,
      "note": 81,
      "duration": 0.5,
      "velocity": 100
    },
    {
      "time": 30.5,
      "note": 81,
      "duration": 0.25,
      "velocity": 100
    },
    {
      "time": 30.75,
      "note": 81,
      "duration": 0.25,
      "velocity": 100
    },
    {
      "time": 31.0,
      "note": 81,
      "duration": 0.5,
      "velocity": 100
    },
    {
      "time": 31.5,
      "note": 79,
      "duration": 0.25,
      "velocity": 100
    },
    {
      "time": 31.75,
      "note": 77,
      "duration": 0.25,
      "velocity": 100
    },
    {
      "time": 30.75,
      "note": 81,
      "duration": 0.5,
      "velocity": 100
    },
    {
      "time": 31.25,
      "note": 79,
      "duration": 0.5,
      "velocity": 100
    },
    {
      "time": 32.25,
      "note": 81,
      "duration": 0.25,
      "velocity": 100
    },
    {
      "time": 32.5,
      "note": 82,
      "duration": 0.25,
      "velocity": 100
    },
    {
      "time": 32.75,
      "note": 84,
      "duration": 0.5,
      "velocity": 100
    },
    {
      "time": 33.25,
      "note": 84,
      "duration": 0.25,
      "velocity": 100
    },
    {
      "time": 33.5,
      "note": 84,
      "duration": 0.25,
      "velocity": 100
    },
    {
      "time": 33.75,
      "note": 84,
      "duration": 0.5,
      "velocity": 100
    },
    {
      "time": 34.25,
      "note": 82,
      "duration": 0.25,
      "velocity": 100
    },
    {
      "time": 34.5,
      "note": 81,
      "duration": 0.25,
      "velocity": 100
    },
    {
      "time": 34.5,
      "note": 82,
      "duration": 0.5,
      "velocity": 100
    },
    {
      "time": 35.0,
      "note": 82,
      "duration": 0.25,
      "velocity": 100
    },
    {
      "time": 35.25,
      "note": 82,
      "duration": 0.25,
      "velocity": 100
    },
    {
      "time": 35.5,
      "note": 82,
      "duration": 0.5,
      "velocity": 100
    },
    {
      "time": 36.0,
      "note": 81,
      "duration": 0.25,
      "velocity": 100
    },
    {
      "time": 36.25,
      "note": 79,
      "duration": 0.25,
      "velocity": 100
    },
    {
      "time": 36.5,
      "note": 81,
      "duration": 0.5,
      "velocity": 100
    },
    {
      "time": 37.0,
      "note": 81,
      "duration": 0.25,
      "velocity": 100
    },
    {
      "time": 37.25,
      "note": 81,
      "duration": 0.25,
      "velocity": 100
    },
    {
      "time": 37.5,
      "note": 81,
      "duration": 0.5,
      "velocity": 100
    },
    {
      "time": 38.0,
      "note": 79,
      "duration": 0.25,
      "velocity": 100
    },
    {
      "time": 38.25,
      "note": 77,
      "duration": 0.25,
      "velocity": 100
    },
    {
      "time": 37.25,
      "note": 81,
      "duration": 0.5,
      "velocity": 100
    },
    {
      "time": 37.75,
      "note": 79,
      "duration": 0.5,
      "velocity": 100
    },
    {
      "time": 38.75,
      "note": 74,
      "duration": 0.25,
      "velocity": 100
    },
    {
      "time": 39.0,
      "note": 74,
      "duration": 0.25,
      "velocity": 100
    },
    {
      "time": 39.25,
      "note": 82,
      "duration": 0.25,
      "velocity": 100
    },
    {
      "time": 39.5,
      "note": 82,
      "duration": 0.25,
      "velocity": 100
    },
    {
      "time": 39.75,
      "note": 81,
      "duration": 0.25,
      "velocity": 100
    },
    {
      "time": 40.0,
      "note": 79,
      "duration": 0.25,
      "velocity": 100
    },
    {
      "time": 40.25,
      "note": 82,
      "duration": 0.25,
      "velocity": 100
    },
    {
      "time": 40.5,
      "note": 82,
      "duration": 0.25,
      "velocity": 100
    },
    {
      "time": 40.75,
      "note": 81,
      "duration": 0.25,
      "velocity": 100
    },
    {
      "time": 41.0,
      "note": 79,
      "duration": 0.25,
      "velocity": 100
    },
    {
      "time": 41.25,
      "note": 81,
      "duration": 0.5,
      "velocity": 100
    },
    {
      "time": 41.75,
      "note": 77,
      "duration": 0.25,
      "velocity": 100
    },
    {
      "time": 42.0,
      "note": 79,
      "duration": 0.25,
      "velocity": 100
    },
    {
      "time": 42.25,
      "note": 81,
      "duration": 0.25,
      "velocity": 100
    },
    {
      "time": 42.5,
      "note": 81,
      "duration": 0.25,
      "velocity": 100
    },
    {
      "time": 42.75,
      "note": 79,
      "duration": 0.25,
      "velocity": 100
    },
    {
      "time": 43.0,
      "note": 77,
      "duration": 0.25,
      "velocity": 100
    },
    {
      "time": 42.0,
      "note": 81,
      "duration": 0.5,
      "velocity": 100
    },
    {
      "time": 42.5,
      "note": 77,
      "duration": 0.25,
      "velocity": 100
    },
    {
      "time": 42.75,
      "note": 79,
      "duration": 0.25,
      "velocity": 100
    },
    {
      "time": 43.0,
      "note": 81,
      "duration": 0.25,
      "velocity": 100
    },
    {
      "time": 43.25,
      "note": 81,
      "duration": 0.25,
      "velocity": 100
    },
    {
      "time": 43.5,
      "note": 79,
      "duration": 0.25,
      "velocity": 100
    },
    {
      "time": 43.75,
      "note": 81,
      "duration": 0.25,
      "velocity": 100
    },
    {
      "time": 44.0,
      "note": 82,
      "duration": 0.25,
      "velocity": 100
    },
    {
      "time": 44.25,
      "note": 82,
      "duration": 0.25,
      "velocity": 100
    },
    {
      "time": 44.5,
      "note": 74,
      "duration": 0.25,
      "velocity": 100
    },
    {
      "time": 44.75,
      "note": 74,
      "duration": 0.25,
      "velocity": 100
    },
    {
      "time": 45.0,
      "note": 75,
      "duration": 0.5,
      "velocity": 100
    },
    {
      "time": 45.5,
      "note": 74,
      "duration": 0.5,
      "velocity": 100
    },
    {
      "time": 46.25,
      "note": 82,
      "duration": 0.5,
      "velocity": 100
    },
    {
      "time": 46.75,
      "note": 79,
      "duration": 0.25,
      "velocity": 100
    },
    {
      "time": 47.0,
      "note": 81,
      "duration": 0.25,
      "velocity": 100
    },
    {
      "time": 47.25,
      "note": 82,
      "duration": 0.25,
      "velocity": 100
    },
    {
      "time": 47.5,
      "note": 82,
      "duration": 0.25,
      "velocity": 100
    },
    {
      "time": 47.75,
      "note": 81,
      "duration": 0.25,
      "velocity": 100
    },
    {
      "time": 48.0,
      "note": 79,
      "duration": 0.25,
      "velocity": 100
    },
    {
      "time": 48.25,
      "note": 81,
      "duration": 0.5,
      "velocity": 100
    },
    {
      "time": 48.75,
      "note": 77,
      "duration": 1.0,
      "velocity": 100
    },
    {
      "time": 49.75,
      "note": 77,
      "duration": 0.25,
      "velocity": 100
    },
    {
      "time": 50.0,
      "note": 79,
      "duration": 0.25,
      "velocity": 100
    },
    {
      "time": 50.0,
      "note": 81,
      "duration": 0.25,
      "velocity": 100
    },
    {
      "time": 50.25,
      "note": 81,
      "duration": 0.25,
      "velocity": 100
    },
    {
      "time": 50.5,
      "note": 79,
      "duration": 0.25,
      "velocity": 100
    },
    {
      "time": 50.75,
      "note": 77,
      "duration": 0.25,
      "velocity": 100
    },
    {
      "time": 51.0,
      "note": 81,
      "duration": 0.5,
      "velocity": 100
    },
    {
      "time": 51.5,
      "note": 77,
      "duration": 1.0,
      "velocity": 100
    },
    {
      "time": 52.5,
      "note": 77,
      "duration": 0.25,
      "velocity": 100
    },
    {
      "time": 52.75,
      "note": 79,
      "duration": 0.25,
      "velocity": 100
    },
    {
      "time": 51.0,
      "note": 82,
      "duration": 0.5,
      "velocity": 100
    },
    {
      "time": 51.5,
      "note": 82,
      "duration": 0.5,
      "velocity": 100
    },
    {
      "time": 52.0,
      "note": 74,
      "duration": 0.5,
      "velocity": 100
    },
    {
      "time": 52.5,
      "note": 74,
      "duration": 0.5,
      "velocity": 100
    },
    {
      "time": 51.0,
      "note": 79,
      "duration": 0.5,
      "velocity": 100
    },
    {
      "time": 52.25,
      "note": 79,
      "duration": 0.25,
      "velocity": 100
    },
    {
      "time": 52.5,
      "note": 79,
      "duration": 0.125,
      "velocity": 100
    },
    {
      "time": 52.625,
      "note": 79,
      "duration": 0.375,
      "velocity": 100
    },
    {
      "time": 53.0,
      "note": 82,
      "duration": 0.25,
      "velocity": 100
    },
    {
      "time": 53.25,
      "note": 82,
      "duration": 0.25,
      "velocity": 100
    },
    {
      "time": 53.75,
      "note": 79,
      "duration": 0.25,
      "velocity": 100
    },
    {
      "time": 54.0,
      "note": 82,
      "duration": 0.5,
      "velocity": 100
    },
    {
      "time": 54.5,
      "note": 86,
      "duration": 0.5,
      "velocity": 100
    },
    {
      "time": 55.0,
      "note": 86,
      "duration": 0.5,
      "velocity": 100
    },
    {
      "time": 55.5,
      "note": 81,
      "duration": 0.25,
      "velocity": 100
    },
    {
      "time": 55.75,
      "note": 81,
      "duration": 0.25,
      "velocity": 100
    },
    {
      "time": 56.0,
      "note": 81,
      "duration": 0.25,
      "velocity": 100
    },
    {
      "time": 56.25,
      "note": 81,
      "duration": 0.25,
      "velocity": 100
    },
    {
      "time": 55.0,
      "note": 84,
      "duration": 0.25,
      "velocity": 100
    },
    {
      "time": 55.25,
      "note": 84,
      "duration": 0.25,
      "velocity": 100
    },
    {
      "time": 55.75,
      "note": 81,
      "duration": 0.25,
      "velocity": 100
    },
    {
      "time": 56.0,
      "note": 84,
      "duration": 0.5,
      "velocity": 100
    },
    {
      "time": 56.5,
      "note": 86,
      "duration": 0.5,
      "velocity": 100
    },
    {
      "time": 57.0,
      "note": 86,
      "duration": 0.5,
      "velocity": 100
    },
    {
      "time": 58.25,
      "note": 79,
      "duration": 0.25,
      "velocity": 100
    },
    {
      "time": 58.5,
      "note": 79,
      "duration": 0.25,
      "velocity": 100
    },
    {
      "time": 58.75,
      "note": 79,
      "duration": 0.25,
      "velocity": 100
    },
    {
      "time": 59.0,
      "note": 82,
      "duration": 0.25,
      "velocity": 100
    },
    {
      "time": 59.25,
      "note": 82,
      "duration": 0.5,
      "velocity": 100
    },
    {
      "time": 59.75,
      "note": 79,
      "duration": 0.25,
      "velocity": 100
    },
    {
      "time": 60.0,
      "note": 82,
      "duration": 0.5,
      "velocity": 100
    },
    {
      "time": 60.5,
      "note": 86,
      "duration": 0.5,
      "velocity": 100
    },
    {
      "time": 61.0,
      "note": 86,
      "duration": 0.5,
      "velocity": 100
    },
    {
      "time": 61.75,
      "note": 84,
      "duration": 0.5,
      "velocity": 100
    },
    {
      "time": 61.5,
      "note": 81,
      "duration": 0.25,
      "velocity": 100
    },
    {
      "time": 61.75,
      "note": 81,
      "duration": 0.25,
      "velocity": 100
    },
    {
      "time": 62.0,
      "note": 81,
      "duration": 0.25,
      "velocity": 100
    },
    {
      "time": 62.25,
      "note": 81,
      "duration": 0.25,
      "velocity": 100
    },
    {
      "time": 62.5,
      "note": 76,
      "duration": 0.5,
      "velocity": 100
    },
    {
      "time": 63.0,
      "note": 84,
      "duration": 0.5,
      "velocity": 100
    },
    {
      "time": 63.0,
      "note": 84,
      "duration": 0.5,
      "velocity": 100
    },
    {
      "time": 63.5,
      "note": 81,
      "duration": 0.25,
      "velocity": 100
    },
    {
      "time": 63.75,
      "note": 84,
      "duration": 0.5,
      "velocity": 100
    },
    {
      "time": 64.25,
      "note": 86,
      "duration": 0.5,
      "velocity": 100
    },
    {
      "time": 64.75,
      "note": 86,
      "duration": 0.5,
      "velocity": 100
    },
    {
      "time": 66.0,
      "note": 79,
      "duration": 0.25,
      "velocity": 100
    },
    {
      "time": 66.25,
      "note": 79,
      "duration": 0.25,
      "velocity": 100
    },
    {
      "time": 66.5,
      "note": 79,
      "duration": 0.25,
      "velocity": 100
    }
  ],
  "chords": [
    {
      "time": 0.0,
      "notes": [
        67,
        70,
        74
      ],
      "duration": 2.225
    },
    {
      "time": 2.225,
      "notes": [
        62,
        66,
        69,
        72
      ],
      "duration": 2.225
    },
    {
      "time": 4.45,
      "notes": [
        67,
        70,
        74
      ],
      "duration": 2.225
    },
    {
      "time": 6.675000000000001,
      "notes": [
        67,
        70,
        74
      ],
      "duration": 2.225
    },
    {
      "time": 8.9,
      "notes": [
        62,
        66,
        69,
        72
      ],
      "duration": 2.225
    },
    {
      "time": 11.125,
      "notes": [
        67,
        70,
        74
      ],
      "duration": 2.225
    },
    {
      "time": 13.350000000000001,
      "notes": [
        67,
        70,
        74
      ],
      "duration": 2.225
    },
    {
      "time": 15.575000000000001,
      "notes": [
        67,
        70,
        74
      ],
      "duration": 2.225
    },
    {
      "time": 17.8,
      "notes": [
        63,
        67,
        70
      ],
      "duration": 2.225
    },
    {
      "time": 20.025000000000002,
      "notes": [
        62,
        66,
        69,
        72
      ],
      "duration": 2.225
    },
    {
      "time": 22.25,
      "notes": [
        60,
        63,
        67
      ],
      "duration": 2.225
    },
    {
      "time": 24.475,
      "notes": [
        62,
        66,
        69,
        72
      ],
      "duration": 2.225
    },
    {
      "time": 26.700000000000003,
      "notes": [
        67,
        70,
        74
      ],
      "duration": 2.225
    },
    {
      "time": 28.925,
      "notes": [
        62,
        66,
        69,
        72
      ],
      "duration": 2.225
    },
    {
      "time": 31.150000000000002,
      "notes": [
        67,
        70,
        74
      ],
      "duration": 2.225
    },
    {
      "time": 33.375,
      "notes": [
        60,
        63,
        67
      ],
      "duration": 2.225
    },
    {
      "time": 35.6,
      "notes": [
        62,
        66,
        69,
        72
      ],
      "duration": 2.225
    },
    {
      "time": 37.825,
      "notes": [
        67,
        70,
        74
      ],
      "duration": 2.225
    },
    {
      "time": 40.050000000000004,
      "notes": [
        62,
        66,
        69,
        72
      ],
      "duration": 2.225
    },
    {
      "time": 42.275,
      "notes": [
        67,
        70,
        74
      ],
      "duration": 2.225
    },
    {
      "time": 44.5,
      "notes": [
        67,
        70,
        74
      ],
      "duration": 2.225
    },
    {
      "time": 46.725,
      "notes": [
        62,
        66,
        69,
        72
      ],
      "duration": 2.225
    },
    {
      "time": 48.95,
      "notes": [
        67,
        70,
        74
      ],
      "duration": 2.225
    },
    {
      "time": 51.175000000000004,
      "notes": [
        62,
        66,
        69,
        72
      ],
      "duration": 2.225
    },
    {
      "time": 53.400000000000006,
      "notes": [
        67,
        70,
        74
      ],
      "duration": 2.225
    },
    {
      "time": 55.625,
      "notes": [
        67,
        70,
        74
      ],
      "duration": 2.225
    },
    {
      "time": 57.85,
      "notes": [
        62,
        66,
        69,
        72
      ],
      "duration": 2.225
    },
    {
      "time": 60.075,
      "notes": [
        67,
        70,
        74
      ],
      "duration": 2.225
    },
    {
      "time": 62.300000000000004,
      "notes": [
        62,
        66,
        69,
        72
      ],
      "duration": 2.225
    },
    {
      "time": 64.525,
      "notes": [
        67,
        70,
        74
      ],
      "duration": 2.225
    }
  ]
}