{
  "title": "No me abandones",
  "artist": "Los Avila",
  "bpm": 120,
  "duration": 35.5,
  "audioFile": "",
  "notes": [
    {
      "time": 0.0,
      "note": 81,
      "duration": 0.125,
      "velocity": 100
    },
    {
      "time": 0.125,
      "note": 84,
      "duration": 0.125,
      "velocity": 100
    },
    {
      "time": 0.25,
      "note": 81,
      "duration": 0.125,
      "velocity": 100
    },
    {
      "time": 0.375,
      "note": 84,
      "duration": 0.125,
      "velocity": 100
    },
    {
      "time": 0.5,
      "note": 86,
      "duration": 0.25,
      "velocity": 100
    },
    {
      "time": 0.75,
      "note": 86,
      "duration": 0.125,
      "velocity": 100
    },
    {
      "time": 0.875,
      "note": 89,
      "duration": 0.125,
      "velocity": 100
    },
    {
      "time": 1.125,
      "note": 89,
      "duration": 0.125,
      "velocity": 100
    },
    {
      "time": 1.25,
      "note": 88,
      "duration": 0.125,
      "velocity": 100
    },
    {
      "time": 1.375,
      "note": 89,
      "duration": 0.125,
      "velocity": 100
    },
    {
      "time": 1.5,
      "note": 88,
      "duration": 0.25,
      "velocity": 100
    },
    {
      "time": 1.75,
      "note": 86,
      "duration": 0.25,
      "velocity": 100
    },
    {
      "time": 2.0,
      "note": 81,
      "duration": 0.125,
      "velocity": 100
    },
    {
      "time": 2.125,
      "note": 84,
      "duration": 0.125,
      "velocity": 100
    },
    {
      "time": 2.25,
      "note": 81,
      "duration": 0.125,
      "velocity": 100
    },
    {
      "time": 2.375,
      "note": 84,
      "duration": 0.125,
      "velocity": 100
    },
    {
      "time": 2.5,
      "note": 86,
      "duration": 0.25,
      "velocity": 100
    },
    {
      "time": 2.75,
      "note": 86,
      "duration": 0.125,
      "velocity": 100
    },
    {
      "time": 2.875,
      "note": 89,
      "duration": 0.125,
      "velocity": 100
    },
    {
      "time": 3.125,
      "note": 89,
      "duration": 0.125,
      "velocity": 100
    },
    {
      "time": 3.25,
      "note": 88,
      "duration": 0.125,
      "velocity": 100
    },
    {
      "time": 3.375,
      "note": 89,
      "duration": 0.125,
      "velocity": 100
    },
    {
      "time": 3.5,
      "note": 84,
      "duration": 0.5,
      "velocity": 100
    },
    {
      "time": 4.0,
      "note": 79,
      "duration": 0.125,
      "velocity": 100
    },
    {
      "time": 4.125,
      "note": 82,
      "duration": 0.125,
      "velocity": 100
    },
    {
      "time": 4.25,
      "note": 79,
      "duration": 0.125,
      "velocity": 100
    },
    {
      "time": 4.375,
      "note": 82,
      "duration": 0.125,
      "velocity": 100
    },
    {
      "time": 4.5,
      "note": 84,
      "duration": 0.25,
      "velocity": 100
    },
    {
      "time": 4.75,
      "note": 84,
      "duration": 0.125,
      "velocity": 100
    },
    {
      "time": 4.875,
      "note": 88,
      "duration": 0.125,
      "velocity": 100
    },
    {
      "time": 5.125,
      "note": 88,
      "duration": 0.125,
      "velocity": 100
    },
    {
      "time": 5.25,
      "note": 86,
      "duration": 0.125,
      "velocity": 100
    },
    {
      "time": 5.375,
      "note": 88,
      "duration": 0.125,
      "velocity": 100
    },
    {
      "time": 5.5,
      "note": 86,
      "duration": 0.25,
      "velocity": 100
    },
    {
      "time": 5.75,
      "note": 84,
      "duration": 0.25,
      "velocity": 100
    },
    {
      "time": 6.0,
      "note": 79,
      "duration": 0.125,
      "velocity": 100
    },
    {
      "time": 6.125,
      "note": 82,
      "duration": 0.125,
      "velocity": 100
    },
    {
      "time": 6.25,
      "note": 79,
      "duration": 0.125,
      "velocity": 100
    },
    {
      "time": 6.375,
      "note": 82,
      "duration": 0.125,
      "velocity": 100
    },
    {
      "time": 6.5,
      "note": 84,
      "duration": 0.25,
      "velocity": 100
    },
    {
      "time": 6.75,
      "note": 84,
      "duration": 0.125,
      "velocity": 100
    },
    {
      "time": 6.875,
      "note": 88,
      "duration": 0.125,
      "velocity": 100
    },
    {
      "time": 7.125,
      "note": 88,
      "duration": 0.125,
      "velocity": 100
    },
    {
      "time": 7.25,
      "note": 86,
      "duration": 0.125,
      "velocity": 100
    },
    {
      "time": 7.375,
      "note": 84,
      "duration": 0.125,
      "velocity": 100
    },
    {
      "time": 7.5,
      "note": 86,
      "duration": 0.5,
      "velocity": 100
    },
    {
      "time": 8.0,
      "note": 81,
      "duration": 0.125,
      "velocity": 100
    },
    {
      "time": 8.125,
      "note": 84,
      "duration": 0.125,
      "velocity": 100
    },
    {
      "time": 8.25,
      "note": 81,
      "duration": 0.125,
      "velocity": 100
    },
    {
      "time": 8.375,
      "note": 84,
      "duration": 0.125,
      "velocity": 100
    },
    {
      "time": 8.625,
      "note": 81,
      "duration": 0.25,
      "velocity": 100
    },
    {
      "time": 8.875,
      "note": 81,
      "duration": 0.125,
      "velocity": 100
    },
    {
      "time": 9.0,
      "note": 89,
      "duration": 0.25,
      "velocity": 100
    },
    {
      "time": 9.25,
      "note": 88,
      "duration": 0.25,
      "velocity": 100
    },
    {
      "time": 9.5,
      "note": 84,
      "duration": 0.375,
      "velocity": 100
    },
    {
      "time": 9.875,
      "note": 84,
      "duration": 0.125,
      "velocity": 100
    },
    {
      "time": 10.0,
      "note": 82,
      "duration": 0.125,
      "velocity": 100
    },
    {
      "time": 10.125,
      "note": 84,
      "duration": 0.125,
      "velocity": 100
    },
    {
      "time": 10.25,
      "note": 82,
      "duration": 0.125,
      "velocity": 100
    },
    {
      "time": 10.375,
      "note": 79,
      "duration": 0.125,
      "velocity": 100
    },
    {
      "time": 10.5,
      "note": 82,
      "duration": 0.125,
      "velocity": 100
    },
    {
      "time": 10.625,
      "note": 84,
      "duration": 0.125,
      "velocity": 100
    },
    {
      "time": 10.75,
      "note": 82,
      "duration": 0.125,
      "velocity": 100
    },
    {
      "time": 10.875,
      "note": 79,
      "duration": 0.125,
      "velocity": 100
    },
    {
      "time": 11.0,
      "note": 82,
      "duration": 0.25,
      "velocity": 100
    },
    {
      "time": 11.25,
      "note": 84,
      "duration": 0.25,
      "velocity": 100
    },
    {
      "time": 11.5,
      "note": 86,
      "duration": 0.375,
      "velocity": 100
    },
    {
      "time": 11.875,
      "note": 86,
      "duration": 0.125,
      "velocity": 100
    },
    {
      "time": 12.0,
      "note": 84,
      "duration": 0.125,
      "velocity": 100
    },
    {
      "time": 12.125,
      "note": 86,
      "duration": 0.125,
      "velocity": 100
    },
    {
      "time": 12.25,
      "note": 84,
      "duration": 0.125,
      "velocity": 100
    },
    {
      "time": 12.375,
      "note": 81,
      "duration": 0.125,
      "velocity": 100
    },
    {
      "time": 12.5,
      "note": 84,
      "duration": 0.125,
      "velocity": 100
    },
    {
      "time": 12.625,
      "note": 86,
      "duration": 0.125,
      "velocity": 100
    },
    {
      "time": 12.75,
      "note": 84,
      "duration": 0.125,
      "velocity": 100
    },
    {
      "time": 12.875,
      "note": 81,
      "duration": 0.125,
      "velocity": 100
    },
    {
      "time": 13.0,
      "note": 84,
      "duration": 0.25,
      "velocity": 100
    },
    {
      "time": 13.25,
      "note": 86,
      "duration": 0.25,
      "velocity": 100
    },
    {
      "time": 13.5,
      "note": 84,
      "duration": 0.375,
      "velocity": 100
    },
    {
      "time": 13.875,
      "note": 84,
      "duration": 0.125,
      "velocity": 100
    },
    {
      "time": 14.0,
      "note": 82,
      "duration": 0.125,
      "velocity": 100
    },
    {
      "time": 14.125,
      "note": 84,
      "duration": 0.125,
      "velocity": 100
    },
    {
      "time": 14.25,
      "note": 82,
      "duration": 0.125,
      "velocity": 100
    },
    {
      "time": 14.375,
      "note": 79,
      "duration": 0.125,
      "velocity": 100
    },
    {
      "time": 14.5,
      "note": 82,
      "duration": 0.125,
      "velocity": 100
    },
    {
      "time": 14.625,
      "note": 84,
      "duration": 0.125,
      "velocity": 100
    },
    {
      "time": 14.75,
      "note": 82,
      "duration": 0.125,
      "velocity": 100
    },
    {
      "time": 14.875,
      "note": 79,
      "duration": 0.125,
      "velocity": 100
    },
    {
      "time": 15.0,
      "note": 82,
      "duration": 0.25,
      "velocity": 100
    },
    {
      "time": 15.25,
      "note": 84,
      "duration": 0.25,
      "velocity": 100
    },
    {
      "time": 15.5,
      "note": 86,
      "duration": 1.0,
      "velocity": 100
    },
    {
      "time": 16.5,
      "note": 86,
      "duration": 1.0,
      "velocity": 100
    },
    {
      "time": 17.5,
      "note": 81,
      "duration": 0.125,
      "velocity": 100
    },
    {
      "time": 17.625,
      "note": 81,
      "duration": 0.125,
      "velocity": 100
    },
    {
      "time": 17.75,
      "note": 81,
      "duration": 0.125,
      "velocity": 100
    },
    {
      "time": 17.875,
      "note": 81,
      "duration": 0.125,
      "velocity": 100
    },
    {
      "time": 18.0,
      "note": 77,
      "duration": 0.25,
      "velocity": 100
    },
    {
      "time": 18.25,
      "note": 74,
      "duration": 0.125,
      "velocity": 100
    },
    {
      "time": 18.375,
      "note": 81,
      "duration": 0.125,
      "velocity": 100
    },
    {
      "time": 18.625,
      "note": 81,
      "duration": 0.125,
      "velocity": 100
    },
    {
      "time": 18.75,
      "note": 81,
      "duration": 0.125,
      "velocity": 100
    },
    {
      "time": 18.875,
      "note": 81,
      "duration": 0.125,
      "velocity": 100
    },
    {
      "time": 19.0,
      "note": 77,
      "duration": 0.25,
      "velocity": 100
    },
    {
      "time": 19.25,
      "note": 74,
      "duration": 0.25,
      "velocity": 100
    },
    {
      "time": 19.5,
      "note": 88,
      "duration": 0.5,
      "velocity": 100
    },
    {
      "time": 20.0,
      "note": 88,
      "duration": 0.5,
      "velocity": 100
    },
    {
      "time": 20.625,
      "note": 86,
      "duration": 0.125,
      "velocity": 100
    },
    {
      "time": 20.75,
      "note": 86,
      "duration": 0.125,
      "velocity": 100
    },
    {
      "time": 20.875,
      "note": 86,
      "duration": 0.125,
      "velocity": 100
    },
    {
      "time": 21.0,
      "note": 86,
      "duration": 0.25,
      "velocity": 100
    },
    {
      "time": 21.25,
      "note": 84,
      "duration": 0.25,
      "velocity": 100
    },
    {
      "time": 21.5,
      "note": 86,
      "duration": 0.5,
      "velocity": 100
    },
    {
      "time": 22.0,
      "note": 86,
      "duration": 0.125,
      "velocity": 100
    },
    {
      "time": 22.125,
      "note": 88,
      "duration": 0.125,
      "velocity": 100
    },
    {
      "time": 22.25,
      "note": 86,
      "duration": 0.125,
      "velocity": 100
    },
    {
      "time": 22.375,
      "note": 84,
      "duration": 0.125,
      "velocity": 100
    },
    {
      "time": 22.5,
      "note": 84,
      "duration": 0.5,
      "velocity": 100
    },
    {
      "time": 22.625,
      "note": 76,
      "duration": 0.25,
      "velocity": 100
    },
    {
      "time": 22.875,
      "note": 76,
      "duration": 0.25,
      "velocity": 100
    },
    {
      "time": 23.0,
      "note": 79,
      "duration": 0.25,
      "velocity": 100
    },
    {
      "time": 23.25,
      "note": 77,
      "duration": 0.125,
      "velocity": 100
    },
    {
      "time": 23.375,
      "note": 76,
      "duration": 0.125,
      "velocity": 100
    },
    {
      "time": 23.5,
      "note": 84,
      "duration": 0.125,
      "velocity": 100
    },
    {
      "time": 23.625,
      "note": 84,
      "duration": 0.125,
      "velocity": 100
    },
    {
      "time": 23.75,
      "note": 84,
      "duration": 0.125,
      "velocity": 100
    },
    {
      "time": 23.875,
      "note": 84,
      "duration": 0.125,
      "velocity": 100
    },
    {
      "time": 24.0,
      "note": 82,
      "duration": 0.25,
      "velocity": 100
    },
    {
      "time": 24.25,
      "note": 79,
      "duration": 0.125,
      "velocity": 100
    },
    {
      "time": 24.375,
      "note": 84,
      "duration": 0.125,
      "velocity": 100
    },
    {
      "time": 24.5,
      "note": 84,
      "duration": 0.125,
      "velocity": 100
    },
    {
      "time": 24.625,
      "note": 84,
      "duration": 0.125,
      "velocity": 100
    },
    {
      "time": 24.75,
      "note": 84,
      "duration": 0.125,
      "velocity": 100
    },
    {
      "time": 24.875,
      "note": 84,
      "duration": 0.125,
      "velocity": 100
    },
    {
      "time": 25.0,
      "note": 82,
      "duration": 0.25,
      "velocity": 100
    },
    {
      "time": 25.25,
      "note": 79,
      "duration": 0.25,
      "velocity": 100
    },
    {
      "time": 25.625,
      "note": 88,
      "duration": 0.125,
      "velocity": 100
    },
    {
      "time": 25.75,
      "note": 88,
      "duration": 0.125,
      "velocity": 100
    },
    {
      "time": 25.875,
      "note": 88,
      "duration": 0.125,
      "velocity": 100
    },
    {
      "time": 26.0,
      "note": 89,
      "duration": 0.25,
      "velocity": 100
    },
    {
      "time": 26.25,
      "note": 88,
      "duration": 0.25,
      "velocity": 100
    },
    {
      "time": 26.5,
      "note": 88,
      "duration": 0.5,
      "velocity": 100
    },
    {
      "time": 27.0,
      "note": 88,
      "duration": 0.375,
      "velocity": 100
    },
    {
      "time": 27.375,
      "note": 86,
      "duration": 0.125,
      "velocity": 100
    },
    {
      "time": 27.5,
      "note": 86,
      "duration": 0.5,
      "velocity": 100
    },
    {
      "time": 28.0,
      "note": 77,
      "duration": 0.25,
      "velocity": 100
    },
    {
      "time": 28.25,
      "note": 77,
      "duration": 0.25,
      "velocity": 100
    },
    {
      "time": 27.625,
      "note": 81,
      "duration": 0.25,
      "velocity": 100
    },
    {
      "time": 27.875,
      "note": 81,
      "duration": 0.125,
      "velocity": 100
    },
    {
      "time": 28.0,
      "note": 89,
      "duration": 0.25,
      "velocity": 100
    },
    {
      "time": 28.25,
      "note": 88,
      "duration": 0.25,
      "velocity": 100
    },
    {
      "time": 28.5,
      "note": 84,
      "duration": 0.375,
      "velocity": 100
    },
    {
      "time": 28.875,
      "note": 84,
      "duration": 0.125,
      "velocity": 100
    },
    {
      "time": 29.0,
      "note": 84,
      "duration": 0.125,
      "velocity": 100
    },
    {
      "time": 29.125,
      "note": 84,
      "duration": 0.125,
      "velocity": 100
    },
    {
      "time": 29.25,
      "note": 84,
      "duration": 0.125,
      "velocity": 100
    },
    {
      "time": 29.375,
      "note": 84,
      "duration": 0.125,
      "velocity": 100
    },
    {
      "time": 29.5,
      "note": 84,
      "duration": 0.125,
      "velocity": 100
    },
    {
      "time": 29.625,
      "note": 84,
      "duration": 0.125,
      "velocity": 100
    },
    {
      "time": 29.75,
      "note": 84,
      "duration": 0.125,
      "velocity": 100
    },
    {
      "time": 29.875,
      "note": 84,
      "duration": 0.125,
      "velocity": 100
    },
    {
      "time": 30.0,
      "note": 88,
      "duration": 0.25,
      "velocity": 100
    },
    {
      "time": 30.25,
      "note": 84,
      "duration": 0.25,
      "velocity": 100
    },
    {
      "time": 30.5,
      "note": 86,
      "duration": 0.5,
      "velocity": 100
    },
    {
      "time": 31.0,
      "note": 86,
      "duration": 0.125,
      "velocity": 100
    },
    {
      "time": 31.125,
      "note": 86,
      "duration": 0.125,
      "velocity": 100
    },
    {
      "time": 31.25,
      "note": 86,
      "duration": 0.125,
      "velocity": 100
    },
    {
      "time": 31.375,
      "note": 86,
      "duration": 0.125,
      "velocity": 100
    },
    {
      "time": 31.5,
      "note": 86,
      "duration": 0.125,
      "velocity": 100
    },
    {
      "time": 31.625,
      "note": 86,
      "duration": 0.125,
      "velocity": 100
    },
    {
      "time": 31.75,
      "note": 81,
      "duration": 0.125,
      "velocity": 100
    },
    {
      "time": 31.875,
      "note": 81,
      "duration": 0.125,
      "velocity": 100
    },
    {
      "time": 32.0,
      "note": 89,
      "duration": 0.25,
      "velocity": 100
    },
    {
      "time": 32.25,
      "note": 88,
      "duration": 0.25,
      "velocity": 100
    },
    {
      "time": 32.5,
      "note": 84,
      "duration": 0.375,
      "velocity": 100
    },
    {
      "time": 32.875,
      "note": 79,
      "duration": 0.125,
      "velocity": 100
    },
    {
      "time": 33.0,
      "note": 84,
      "duration": 0.125,
      "velocity": 100
    },
    {
      "time": 33.125,
      "note": 84,
      "duration": 0.125,
      "velocity": 100
    },
    {
      "time": 33.25,
      "note": 79,
      "duration": 0.125,
      "velocity": 100
    },
    {
      "time": 33.375,
      "note": 79,
      "duration": 0.125,
      "velocity": 100
    },
    {
      "time": 33.5,
      "note": 84,
      "duration": 0.125,
      "velocity": 100
    },
    {
      "time": 33.625,
      "note": 79,
      "duration": 0.125,
      "velocity": 100
    },
    {
      "time": 33.75,
      "note": 79,
      "duration": 0.125,
      "velocity": 100
    },
    {
      "time": 33.875,
      "note": 79,
      "duration": 0.125,
      "velocity": 100
    },
    {
      "time": 34.0,
      "note": 88,
      "duration": 0.25,
      "velocity": 100
    },
    {
      "time": 34.25,
      "note": 84,
      "duration": 0.25,
      "velocity": 100
    },
    {
      "time": 34.5,
      "note": 88,
      "duration": 0.375,
      "velocity": 100
    },
    {
      "time": 34.875,
      "note": 86,
      "duration": 0.125,
      "velocity": 100
    },
    {
      "time": 35.0,
      "note": 86,
      "duration": 0.5,
      "velocity": 100
    }
  ],
  "chords": [
    {
      "time": 0.0,
      "notes": [
        62,
        65,
        69
      ],
      "duration": 2.730769230769231
    },
    {
      "time": 2.730769230769231,
      "notes": [
        60,
        64,
        67
      ],
      "duration": 2.730769230769231
    },
    {
      "time": 5.461538461538462,
      "notes": [
        62,
        65,
        69
      ],
      "duration": 2.730769230769231
    },
    {
      "time": 8.192307692307693,
      "notes": [
        60,
        64,
        67
      ],
      "duration": 2.730769230769231
    },
    {
      "time": 10.923076923076923,
      "notes": [
        62,
        65,
        69
      ],
      "duration": 2.730769230769231
    },
    {
      "time": 13.653846153846153,
      "notes": [
        60,
        64,
        67
      ],
      "duration": 2.730769230769231
    },
    {
      "time": 16.384615384615387,
      "notes": [
        62,
        65,
        69
      ],
      "duration": 2.730769230769231
    },
    {
      "time": 19.115384615384617,
      "notes": [
        60,
        64,
        67
      ],
      "duration": 2.730769230769231
    },
    {
      "time": 21.846153846153847,
      "notes": [
        62,
        65,
        69
      ],
      "duration": 2.730769230769231
    },
    {
      "time": 24.576923076923077,
      "notes": [
        60,
        64,
        67
      ],
      "duration": 2.730769230769231
    },
    {
      "time": 27.307692307692307,
      "notes": [
        62,
        65,
        69
      ],
      "duration": 2.730769230769231
    },
    {
      "time": 30.03846153846154,
      "notes": [
        60,
        64,
        67
      ],
      "duration": 2.730769230769231
    },
    {
      "time": 32.769230769230774,
      "notes": [
        62,
        65,
        69
      ],
      "duration": 2.730769230769231
    }
  ]
}