{
  "title": "La marca de la gorra",
  "artist": "Mala Fama",
  "bpm": 120,
  "duration": 38.875,
  "audioFile": "",
  "notes": [
    {
      "time": 0.125,
      "note": 82,
      "duration": 0.125,
      "velocity": 100
    },
    {
      "time": 0.25,
      "note": 81,
      "duration": 0.125,
      "velocity": 100
    },
    {
      "time": 0.375,
      "note": 79,
      "duration": 0.125,
      "velocity": 100
    },
    {
      "time": 0.5,
      "note": 82,
      "duration": 0.125,
      "velocity": 100
    },
    {
      "time": 0.625,
      "note": 81,
      "duration": 0.125,
      "velocity": 100
    },
    {
      "time": 0.75,
      "note": 79,
      "duration": 0.125,
      "velocity": 100
    },
    {
      "time": 0.875,
      "note": 76,
      "duration": 0.125,
      "velocity": 100
    },
    {
      "time": 1.0,
      "note": 76,
      "duration": 0.375,
      "velocity": 100
    },
    {
      "time": 1.375,
      "note": 74,
      "duration": 0.125,
      "velocity": 100
    },
    {
      "time": 1.5,
      "note": 74,
      "duration": 0.25,
      "velocity": 100
    },
    {
      "time": 1.75,
      "note": 76,
      "duration": 0.25,
      "velocity": 100
    },
    {
      "time": 2.125,
      "note": 82,
      "duration": 0.125,
      "velocity": 100
    },
    {
      "time": 2.25,
      "note": 81,
      "duration": 0.125,
      "velocity": 100
    },
    {
      "time": 2.375,
      "note": 79,
      "duration": 0.125,
      "velocity": 100
    },
    {
      "time": 2.5,
      "note": 82,
      "duration": 0.125,
      "velocity": 100
    },
    {
      "time": 2.625,
      "note": 81,
      "duration": 0.125,
      "velocity": 100
    },
    {
      "time": 2.75,
      "note": 79,
      "duration": 0.125,
      "velocity": 100
    },
    {
      "time": 2.875,
      "note": 76,
      "duration": 0.125,
      "velocity": 100
    },
    {
      "time": 3.0,
      "note": 76,
      "duration": 0.375,
      "velocity": 100
    },
    {
      "time": 3.375,
      "note": 74,
      "duration": 0.125,
      "velocity": 100
    },
    {
      "time": 3.5,
      "note": 74,
      "duration": 0.125,
      "velocity": 100
    },
    {
      "time": 3.625,
      "note": 74,
      "duration": 0.125,
      "velocity": 100
    },
    {
      "time": 3.75,
      "note": 76,
      "duration": 0.25,
      "velocity": 100
    },
    {
      "time": 4.0,
      "note": 89,
      "duration": 1.0,
      "velocity": 100
    },
    {
      "time": 4.0,
      "note": 76,
      "duration": 0.25,
      "velocity": 100
    },
    {
      "time": 4.25,
      "note": 76,
      "duration": 0.25,
      "velocity": 100
    },
    {
      "time": 4.5,
      "note": 77,
      "duration": 0.25,
      "velocity": 100
    },
    {
      "time": 4.75,
      "note": 79,
      "duration": 0.25,
      "velocity": 100
    },
    {
      "time": 5.0,
      "note": 81,
      "duration": 0.125,
      "velocity": 100
    },
    {
      "time": 5.125,
      "note": 81,
      "duration": 0.125,
      "velocity": 100
    },
    {
      "time": 5.25,
      "note": 81,
      "duration": 0.125,
      "velocity": 100
    },
    {
      "time": 5.375,
      "note": 81,
      "duration": 0.125,
      "velocity": 100
    },
    {
      "time": 5.5,
      "note": 79,
      "duration": 0.125,
      "velocity": 100
    },
    {
      "time": 5.625,
      "note": 81,
      "duration": 0.125,
      "velocity": 100
    },
    {
      "time": 5.75,
      "note": 79,
      "duration": 0.125,
      "velocity": 100
    },
    {
      "time": 5.875,
      "note": 77,
      "duration": 0.125,
      "velocity": 100
    },
    {
      "time": 6.0,
      "note": 76,
      "duration": 0.25,
      "velocity": 100
    },
    {
      "time": 6.25,
      "note": 76,
      "duration": 0.25,
      "velocity": 100
    },
    {
      "time": 6.5,
      "note": 77,
      "duration": 0.25,
      "velocity": 100
    },
    {
      "time": 6.75,
      "note": 79,
      "duration": 0.25,
      "velocity": 100
    },
    {
      "time": 7.0,
      "note": 81,
      "duration": 0.125,
      "velocity": 100
    },
    {
      "time": 7.125,
      "note": 81,
      "duration": 0.125,
      "velocity": 100
    },
    {
      "time": 7.25,
      "note": 81,
      "duration": 0.125,
      "velocity": 100
    },
    {
      "time": 7.375,
      "note": 81,
      "duration": 0.125,
      "velocity": 100
    },
    {
      "time": 7.5,
      "note": 79,
      "duration": 0.125,
      "velocity": 100
    },
    {
      "time": 7.625,
      "note": 81,
      "duration": 0.125,
      "velocity": 100
    },
    {
      "time": 7.75,
      "note": 79,
      "duration": 0.125,
      "velocity": 100
    },
    {
      "time": 7.875,
      "note": 77,
      "duration": 0.125,
      "velocity": 100
    },
    {
      "time": 8.0,
      "note": 89,
      "duration": 1.0,
      "velocity": 100
    },
    {
      "time": 9.0,
      "note": 76,
      "duration": 0.375,
      "velocity": 100
    },
    {
      "time": 9.375,
      "note": 81,
      "duration": 0.0625,
      "velocity": 100
    },
    {
      "time": 9.4375,
      "note": 77,
      "duration": 0.0625,
      "velocity": 100
    },
    {
      "time": 9.5,
      "note": 74,
      "duration": 0.375,
      "velocity": 100
    },
    {
      "time": 9.875,
      "note": 83,
      "duration": 0.0625,
      "velocity": 100
    },
    {
      "time": 9.9375,
      "note": 79,
      "duration": 0.0625,
      "velocity": 100
    },
    {
      "time": 10.0,
      "note": 76,
      "duration": 0.375,
      "velocity": 100
    },
    {
      "time": 10.375,
      "note": 81,
      "duration": 0.0625,
      "velocity": 100
    },
    {
      "time": 10.4375,
      "note": 77,
      "duration": 0.0625,
      "velocity": 100
    },
    {
      "time": 10.5,
      "note": 74,
      "duration": 0.375,
      "velocity": 100
    },
    {
      "time": 10.875,
      "note": 83,
      "duration": 0.0625,
      "velocity": 100
    },
    {
      "time": 10.9375,
      "note": 79,
      "duration": 0.0625,
      "velocity": 100
    },
    {
      "time": 11.0,
      "note": 76,
      "duration": 0.5,
      "velocity": 100
    },
    {
      "time": 11.5,
      "note": 84,
      "duration": 2.0,
      "velocity": 100
    },
    {
      "time": 11.0,
      "note": 77,
      "duration": 0.125,
      "velocity": 100
    },
    {
      "time": 11.125,
      "note": 77,
      "duration": 0.125,
      "velocity": 100
    },
    {
      "time": 11.25,
      "note": 77,
      "duration": 0.125,
      "velocity": 100
    },
    {
      "time": 11.375,
      "note": 77,
      "duration": 0.125,
      "velocity": 100
    },
    {
      "time": 11.5,
      "note": 76,
      "duration": 0.125,
      "velocity": 100
    },
    {
      "time": 11.625,
      "note": 77,
      "duration": 0.125,
      "velocity": 100
    },
    {
      "time": 11.75,
      "note": 76,
      "duration": 0.125,
      "velocity": 100
    },
    {
      "time": 11.875,
      "note": 74,
      "duration": 0.125,
      "velocity": 100
    },
    {
      "time": 12.0,
      "note": 76,
      "duration": 0.5,
      "velocity": 100
    },
    {
      "time": 12.5,
      "note": 76,
      "duration": 0.125,
      "velocity": 100
    },
    {
      "time": 12.625,
      "note": 76,
      "duration": 0.125,
      "velocity": 100
    },
    {
      "time": 12.75,
      "note": 79,
      "duration": 0.125,
      "velocity": 100
    },
    {
      "time": 12.875,
      "note": 79,
      "duration": 0.25,
      "velocity": 100
    },
    {
      "time": 13.125,
      "note": 79,
      "duration": 0.125,
      "velocity": 100
    },
    {
      "time": 13.25,
      "note": 81,
      "duration": 0.125,
      "velocity": 100
    },
    {
      "time": 13.375,
      "note": 82,
      "duration": 0.125,
      "velocity": 100
    },
    {
      "time": 13.5,
      "note": 81,
      "duration": 0.125,
      "velocity": 100
    },
    {
      "time": 13.625,
      "note": 81,
      "duration": 0.125,
      "velocity": 100
    },
    {
      "time": 13.75,
      "note": 79,
      "duration": 0.125,
      "velocity": 100
    },
    {
      "time": 13.875,
      "note": 81,
      "duration": 0.125,
      "velocity": 100
    },
    {
      "time": 14.0,
      "note": 79,
      "duration": 0.125,
      "velocity": 100
    },
    {
      "time": 14.125,
      "note": 77,
      "duration": 0.125,
      "velocity": 100
    },
    {
      "time": 14.25,
      "note": 83,
      "duration": 0.25,
      "velocity": 100
    },
    {
      "time": 14.5,
      "note": 81,
      "duration": 0.125,
      "velocity": 100
    },
    {
      "time": 14.625,
      "note": 83,
      "duration": 0.125,
      "velocity": 100
    },
    {
      "time": 14.75,
      "note": 83,
      "duration": 0.125,
      "velocity": 100
    },
    {
      "time": 14.875,
      "note": 81,
      "duration": 0.125,
      "velocity": 100
    },
    {
      "time": 15.0,
      "note": 83,
      "duration": 0.25,
      "velocity": 100
    },
    {
      "time": 15.25,
      "note": 83,
      "duration": 0.5,
      "velocity": 100
    },
    {
      "time": 16.0,
      "note": 86,
      "duration": 0.125,
      "velocity": 100
    },
    {
      "time": 16.125,
      "note": 86,
      "duration": 0.125,
      "velocity": 100
    },
    {
      "time": 16.25,
      "note": 86,
      "duration": 0.25,
      "velocity": 100
    },
    {
      "time": 16.5,
      "note": 84,
      "duration": 0.25,
      "velocity": 100
    },
    {
      "time": 16.75,
      "note": 84,
      "duration": 0.25,
      "velocity": 100
    },
    {
      "time": 17.0,
      "note": 83,
      "duration": 0.125,
      "velocity": 100
    },
    {
      "time": 17.125,
      "note": 84,
      "duration": 0.125,
      "velocity": 100
    },
    {
      "time": 17.25,
      "note": 84,
      "duration": 0.125,
      "velocity": 100
    },
    {
      "time": 17.375,
      "note": 84,
      "duration": 0.375,
      "velocity": 100
    },
    {
      "time": 18.0,
      "note": 77,
      "duration": 0.25,
      "velocity": 100
    },
    {
      "time": 18.25,
      "note": 81,
      "duration": 0.25,
      "velocity": 100
    },
    {
      "time": 18.5,
      "note": 79,
      "duration": 0.125,
      "velocity": 100
    },
    {
      "time": 18.625,
      "note": 81,
      "duration": 0.125,
      "velocity": 100
    },
    {
      "time": 18.75,
      "note": 81,
      "duration": 0.125,
      "velocity": 100
    },
    {
      "time": 18.875,
      "note": 79,
      "duration": 0.125,
      "velocity": 100
    },
    {
      "time": 19.0,
      "note": 81,
      "duration": 0.25,
      "velocity": 100
    },
    {
      "time": 19.25,
      "note": 81,
      "duration": 0.25,
      "velocity": 100
    },
    {
      "time": 19.5,
      "note": 81,
      "duration": 0.25,
      "velocity": 100
    },
    {
      "time": 19.75,
      "note": 84,
      "duration": 0.25,
      "velocity": 100
    },
    {
      "time": 20.0,
      "note": 84,
      "duration": 0.25,
      "velocity": 100
    },
    {
      "time": 20.25,
      "note": 84,
      "duration": 0.25,
      "velocity": 100
    },
    {
      "time": 20.5,
      "note": 83,
      "duration": 0.25,
      "velocity": 100
    },
    {
      "time": 20.75,
      "note": 83,
      "duration": 0.25,
      "velocity": 100
    },
    {
      "time": 21.0,
      "note": 81,
      "duration": 0.125,
      "velocity": 100
    },
    {
      "time": 21.125,
      "note": 83,
      "duration": 0.125,
      "velocity": 100
    },
    {
      "time": 21.25,
      "note": 83,
      "duration": 0.25,
      "velocity": 100
    },
    {
      "time": 21.5,
      "note": 83,
      "duration": 0.25,
      "velocity": 100
    },
    {
      "time": 22.0,
      "note": 83,
      "duration": 0.25,
      "velocity": 100
    },
    {
      "time": 21.5,
      "note": 67,
      "duration": 0.25,
      "velocity": 100
    },
    {
      "time": 21.75,
      "note": 69,
      "duration": 0.25,
      "velocity": 100
    },
    {
      "time": 22.0,
      "note": 71,
      "duration": 0.25,
      "velocity": 100
    },
    {
      "time": 22.25,
      "note": 84,
      "duration": 0.25,
      "velocity": 100
    },
    {
      "time": 22.5,
      "note": 79,
      "duration": 0.125,
      "velocity": 100
    },
    {
      "time": 22.625,
      "note": 81,
      "duration": 0.125,
      "velocity": 100
    },
    {
      "time": 22.75,
      "note": 81,
      "duration": 0.125,
      "velocity": 100
    },
    {
      "time": 22.875,
      "note": 79,
      "duration": 0.25,
      "velocity": 100
    },
    {
      "time": 23.125,
      "note": 81,
      "duration": 0.125,
      "velocity": 100
    },
    {
      "time": 22.75,
      "note": 81,
      "duration": 0.125,
      "velocity": 100
    },
    {
      "time": 22.875,
      "note": 81,
      "duration": 0.375,
      "velocity": 100
    },
    {
      "time": 23.5,
      "note": 84,
      "duration": 0.125,
      "velocity": 100
    },
    {
      "time": 23.625,
      "note": 84,
      "duration": 0.125,
      "velocity": 100
    },
    {
      "time": 23.75,
      "note": 84,
      "duration": 0.25,
      "velocity": 100
    },
    {
      "time": 24.0,
      "note": 79,
      "duration": 0.25,
      "velocity": 100
    },
    {
      "time": 24.25,
      "note": 81,
      "duration": 0.25,
      "velocity": 100
    },
    {
      "time": 24.5,
      "note": 79,
      "duration": 0.125,
      "velocity": 100
    },
    {
      "time": 24.625,
      "note": 81,
      "duration": 0.125,
      "velocity": 100
    },
    {
      "time": 24.75,
      "note": 81,
      "duration": 0.125,
      "velocity": 100
    },
    {
      "time": 24.875,
      "note": 81,
      "duration": 0.375,
      "velocity": 100
    },
    {
      "time": 25.5,
      "note": 81,
      "duration": 0.25,
      "velocity": 100
    },
    {
      "time": 25.25,
      "note": 69,
      "duration": 0.5,
      "velocity": 100
    },
    {
      "time": 25.5,
      "note": 71,
      "duration": 0.5,
      "velocity": 100
    },
    {
      "time": 26.0,
      "note": 84,
      "duration": 0.25,
      "velocity": 100
    },
    {
      "time": 26.25,
      "note": 84,
      "duration": 0.25,
      "velocity": 100
    },
    {
      "time": 26.5,
      "note": 84,
      "duration": 0.25,
      "velocity": 100
    },
    {
      "time": 26.75,
      "note": 84,
      "duration": 0.125,
      "velocity": 100
    },
    {
      "time": 26.875,
      "note": 84,
      "duration": 0.125,
      "velocity": 100
    },
    {
      "time": 27.0,
      "note": 84,
      "duration": 0.25,
      "velocity": 100
    },
    {
      "time": 27.25,
      "note": 84,
      "duration": 0.25,
      "velocity": 100
    },
    {
      "time": 27.5,
      "note": 86,
      "duration": 0.25,
      "velocity": 100
    },
    {
      "time": 27.75,
      "note": 84,
      "duration": 0.25,
      "velocity": 100
    },
    {
      "time": 28.0,
      "note": 83,
      "duration": 0.375,
      "velocity": 100
    },
    {
      "time": 28.375,
      "note": 84,
      "duration": 0.125,
      "velocity": 100
    },
    {
      "time": 28.5,
      "note": 83,
      "duration": 0.25,
      "velocity": 100
    },
    {
      "time": 28.75,
      "note": 84,
      "duration": 0.25,
      "velocity": 100
    },
    {
      "time": 29.0,
      "note": 83,
      "duration": 0.375,
      "velocity": 100
    },
    {
      "time": 29.375,
      "note": 83,
      "duration": 0.125,
      "velocity": 100
    },
    {
      "time": 29.5,
      "note": 83,
      "duration": 0.25,
      "velocity": 100
    },
    {
      "time": 32.0,
      "note": 83,
      "duration": 0.375,
      "velocity": 100
    },
    {
      "time": 32.375,
      "note": 79,
      "duration": 0.125,
      "velocity": 100
    },
    {
      "time": 32.5,
      "note": 76,
      "duration": 0.5,
      "velocity": 100
    },
    {
      "time": 33.0,
      "note": 76,
      "duration": 0.25,
      "velocity": 100
    },
    {
      "time": 33.375,
      "note": 83,
      "duration": 0.125,
      "velocity": 100
    },
    {
      "time": 33.5,
      "note": 83,
      "duration": 0.125,
      "velocity": 100
    },
    {
      "time": 33.625,
      "note": 83,
      "duration": 0.125,
      "velocity": 100
    },
    {
      "time": 33.75,
      "note": 84,
      "duration": 0.125,
      "velocity": 100
    },
    {
      "time": 33.875,
      "note": 83,
      "duration": 0.125,
      "velocity": 100
    },
    {
      "time": 34.0,
      "note": 81,
      "duration": 0.375,
      "velocity": 100
    },
    {
      "time": 34.375,
      "note": 77,
      "duration": 0.125,
      "velocity": 100
    },
    {
      "time": 34.75,
      "note": 74,
      "duration": 0.5,
      "velocity": 100
    },
    {
      "time": 34.0,
      "note": 77,
      "duration": 0.25,
      "velocity": 100
    },
    {
      "time": 34.25,
      "note": 74,
      "duration": 0.125,
      "velocity": 100
    },
    {
      "time": 34.375,
      "note": 77,
      "duration": 0.25,
      "velocity": 100
    },
    {
      "time": 34.625,
      "note": 77,
      "duration": 0.25,
      "velocity": 100
    },
    {
      "time": 35.125,
      "note": 81,
      "duration": 0.375,
      "velocity": 100
    },
    {
      "time": 35.5,
      "note": 77,
      "duration": 0.125,
      "velocity": 100
    },
    {
      "time": 35.625,
      "note": 74,
      "duration": 0.5,
      "velocity": 100
    },
    {
      "time": 36.125,
      "note": 74,
      "duration": 0.25,
      "velocity": 100
    },
    {
      "time": 36.5,
      "note": 81,
      "duration": 0.125,
      "velocity": 100
    },
    {
      "time": 36.625,
      "note": 81,
      "duration": 0.125,
      "velocity": 100
    },
    {
      "time": 36.75,
      "note": 81,
      "duration": 0.125,
      "velocity": 100
    },
    {
      "time": 36.875,
      "note": 83,
      "duration": 0.125,
      "velocity": 100
    },
    {
      "time": 37.0,
      "note": 81,
      "duration": 0.125,
      "velocity": 100
    },
    {
      "time": 37.125,
      "note": 79,
      "duration": 0.375,
      "velocity": 100
    },
    {
      "time": 37.5,
      "note": 83,
      "duration": 0.125,
      "velocity": 100
    },
    {
      "time": 37.625,
      "note": 83,
      "duration": 0.5,
      "velocity": 100
    },
    {
      "time": 38.125,
      "note": 96,
      "duration": 0.125,
      "velocity": 100
    },
    {
      "time": 38.25,
      "note": 91,
      "duration": 0.125,
      "velocity": 100
    },
    {
      "time": 38.375,
      "note": 88,
      "duration": 0.125,
      "velocity": 100
    },
    {
      "time": 38.5,
      "note": 84,
      "duration": 0.125,
      "velocity": 100
    },
    {
      "time": 38.625,
      "note": 83,
      "duration": 0.25,
      "velocity": 100
    },
    {
      "time": 38.875,
      "note": 89,
      "duration": 0.25,
      "velocity": 100
    },
    {
      "time": 38.875,
      "note": 83,
      "duration": 0.375,
      "velocity": 100
    },
    {
      "time": 39.25,
      "note": 89,
      "duration": 0.375,
      "velocity": 100
    }
  ],
  "chords": [
    {
      "time": 0.0,
      "notes": [
        64,
        67,
        71
      ],
      "duration": 1.21484375
    },
    {
      "time": 1.21484375,
      "notes": [
        62,
        66,
        69
      ],
      "duration": 1.21484375
    },
    {
      "time": 2.4296875,
      "notes": [
        64,
        67,
        71
      ],
      "duration": 1.21484375
    },
    {
      "time": 3.64453125,
      "notes": [
        62,
        66,
        69
      ],
      "duration": 1.21484375
    },
    {
      "time": 4.859375,
      "notes": [
        64,
        67,
        71
      ],
      "duration": 1.21484375
    },
    {
      "time": 6.07421875,
      "notes": [
        62,
        66,
        69
      ],
      "duration": 1.21484375
    },
    {
      "time": 7.2890625,
      "notes": [
        64,
        67,
        71
      ],
      "duration": 1.21484375
    },
    {
      "time": 8.50390625,
      "notes": [
        62,
        66,
        69
      ],
      "duration": 1.21484375
    },
    {
      "time": 9.71875,
      "notes": [
        64,
        67,
        71
      ],
      "duration": 1.21484375
    },
    {
      "time": 10.93359375,
      "notes": [
        62,
        66,
        69
      ],
      "duration": 1.21484375
    },
    {
      "time": 12.1484375,
      "notes": [
        64,
        67,
        71
      ],
      "duration": 1.21484375
    },
    {
      "time": 13.36328125,
      "notes": [
        62,
        66,
        69
      ],
      "duration": 1.21484375
    },
    {
      "time": 14.578125,
      "notes": [
        64,
        67,
        71
      ],
      "duration": 1.21484375
    },
    {
      "time": 15.79296875,
      "notes": [
        62,
        66,
        69
      ],
      "duration": 1.21484375
    },
    {
      "time": 17.0078125,
      "notes": [
        64,
        67,
        71
      ],
      "duration": 1.21484375
    },
    {
      "time": 18.22265625,
      "notes": [
        62,
        66,
        69
      ],
      "duration": 1.21484375
    },
    {
      "time": 19.4375,
      "notes": [
        69,
        72,
        76
      ],
      "duration": 1.21484375
    },
    {
      "time": 20.65234375,
      "notes": [
        62,
        66,
        69
      ],
      "duration": 1.21484375
    },
    {
      "time": 21.8671875,
      "notes": [
        67,
        71,
        74
      ],
      "duration": 1.21484375
    },
    {
      "time": 23.08203125,
      "notes": [
        60,
        64,
        67
      ],
      "duration": 1.21484375
    },
    {
      "time": 24.296875,
      "notes": [
        69,
        72,
        76
      ],
      "duration": 1.21484375
    },
    {
      "time": 25.51171875,
      "notes": [
        60,
        64,
        67
      ],
      "duration": 1.21484375
    },
    {
      "time": 26.7265625,
      "notes": [
        71,
        75,
        78,
        81
      ],
      "duration": 1.21484375
    },
    {
      "time": 27.94140625,
      "notes": [
        64,
        67,
        71
      ],
      "duration": 1.21484375
    },
    {
      "time": 29.15625,
      "notes": [
        62,
        66,
        69
      ],
      "duration": 1.21484375
    },
    {
      "time": 30.37109375,
      "notes": [
        64,
        67,
        71
      ],
      "duration": 1.21484375
    },
    {
      "time": 31.5859375,
      "notes": [
        62,
        66,
        69
      ],
      "duration": 1.21484375
    },
    {
      "time": 32.80078125,
      "notes": [
        64,
        67,
        71
      ],
      "duration": 1.21484375
    },
    {
      "time": 34.015625,
      "notes": [
        64,
        67,
        71
      ],
      "duration": 1.21484375
    },
    {
      "time": 35.23046875,
      "notes": [
        62,
        66,
        69
      ],
      "duration": 1.21484375
    },
    {
      "time": 36.4453125,
      "notes": [
        60,
        64,
        67
      ],
      "duration": 1.21484375
    },
    {
      "time": 37.66015625,
      "notes": [
        71,
        75,
        78,
        81
      ],
      "duration": 1.21484375
    }
  ]
}