{
  "title": "Que calor",
  "artist": "Pibes Chorros",
  "bpm": 120,
  "duration": 51.875,
  "audioFile": "",
  "notes": [
    {
      "time": 0.0,
      "note": 84,
      "duration": 0.25,
      "velocity": 100
    },
    {
      "time": 0.25,
      "note": 84,
      "duration": 0.25,
      "velocity": 100
    },
    {
      "time": 0.5,
      "note": 87,
      "duration": 1.0,
      "velocity": 100
    },
    {
      "time": 1.5,
      "note": 87,
      "duration": 0.5,
      "velocity": 100
    },
    {
      "time": 2.0,
      "note": 84,
      "duration": 0.25,
      "velocity": 100
    },
    {
      "time": 2.25,
      "note": 87,
      "duration": 0.25,
      "velocity": 100
    },
    {
      "time": 2.5,
      "note": 86,
      "duration": 1.0,
      "velocity": 100
    },
    {
      "time": 3.5,
      "note": 86,
      "duration": 0.75,
      "velocity": 100
    },
    {
      "time": 4.25,
      "note": 83,
      "duration": 0.125,
      "velocity": 100
    },
    {
      "time": 4.375,
      "note": 83,
      "duration": 0.125,
      "velocity": 100
    },
    {
      "time": 4.5,
      "note": 86,
      "duration": 0.375,
      "velocity": 100
    },
    {
      "time": 4.875,
      "note": 86,
      "duration": 0.125,
      "velocity": 100
    },
    {
      "time": 5.0,
      "note": 84,
      "duration": 0.25,
      "velocity": 100
    },
    {
      "time": 5.25,
      "note": 83,
      "duration": 0.25,
      "velocity": 100
    },
    {
      "time": 5.5,
      "note": 84,
      "duration": 0.25,
      "velocity": 100
    },
    {
      "time": 5.75,
      "note": 84,
      "duration": 0.125,
      "velocity": 100
    },
    {
      "time": 5.875,
      "note": 86,
      "duration": 0.125,
      "velocity": 100
    },
    {
      "time": 6.0,
      "note": 87,
      "duration": 0.25,
      "velocity": 100
    },
    {
      "time": 6.25,
      "note": 84,
      "duration": 0.125,
      "velocity": 100
    },
    {
      "time": 6.375,
      "note": 86,
      "duration": 0.125,
      "velocity": 100
    },
    {
      "time": 6.75,
      "note": 87,
      "duration": 0.25,
      "velocity": 100
    },
    {
      "time": 7.0,
      "note": 84,
      "duration": 0.125,
      "velocity": 100
    },
    {
      "time": 7.125,
      "note": 84,
      "duration": 0.125,
      "velocity": 100
    },
    {
      "time": 7.25,
      "note": 84,
      "duration": 0.25,
      "velocity": 100
    },
    {
      "time": 7.5,
      "note": 87,
      "duration": 0.25,
      "velocity": 100
    },
    {
      "time": 7.75,
      "note": 86,
      "duration": 1.0,
      "velocity": 100
    },
    {
      "time": 8.75,
      "note": 86,
      "duration": 0.5,
      "velocity": 100
    },
    {
      "time": 9.5,
      "note": 83,
      "duration": 0.125,
      "velocity": 100
    },
    {
      "time": 9.625,
      "note": 83,
      "duration": 0.125,
      "velocity": 100
    },
    {
      "time": 9.75,
      "note": 86,
      "duration": 0.125,
      "velocity": 100
    },
    {
      "time": 9.875,
      "note": 86,
      "duration": 0.25,
      "velocity": 100
    },
    {
      "time": 10.125,
      "note": 86,
      "duration": 0.125,
      "velocity": 100
    },
    {
      "time": 10.25,
      "note": 84,
      "duration": 0.25,
      "velocity": 100
    },
    {
      "time": 10.5,
      "note": 83,
      "duration": 0.25,
      "velocity": 100
    },
    {
      "time": 10.75,
      "note": 84,
      "duration": 0.75,
      "velocity": 100
    },
    {
      "time": 11.5,
      "note": 83,
      "duration": 0.125,
      "velocity": 100
    },
    {
      "time": 11.625,
      "note": 83,
      "duration": 0.125,
      "velocity": 100
    },
    {
      "time": 11.75,
      "note": 86,
      "duration": 0.125,
      "velocity": 100
    },
    {
      "time": 11.875,
      "note": 86,
      "duration": 0.25,
      "velocity": 100
    },
    {
      "time": 12.125,
      "note": 86,
      "duration": 0.125,
      "velocity": 100
    },
    {
      "time": 12.25,
      "note": 84,
      "duration": 0.25,
      "velocity": 100
    },
    {
      "time": 12.5,
      "note": 83,
      "duration": 0.25,
      "velocity": 100
    },
    {
      "time": 12.75,
      "note": 84,
      "duration": 1.0,
      "velocity": 100
    },
    {
      "time": 13.75,
      "note": 77,
      "duration": 1.0,
      "velocity": 100
    },
    {
      "time": 14.75,
      "note": 87,
      "duration": 1.0,
      "velocity": 100
    },
    {
      "time": 13.75,
      "note": 93,
      "duration": 0.125,
      "velocity": 100
    },
    {
      "time": 13.875,
      "note": 91,
      "duration": 0.125,
      "velocity": 100
    },
    {
      "time": 14.0,
      "note": 86,
      "duration": 0.25,
      "velocity": 100
    },
    {
      "time": 14.25,
      "note": 91,
      "duration": 0.125,
      "velocity": 100
    },
    {
      "time": 14.375,
      "note": 93,
      "duration": 0.125,
      "velocity": 100
    },
    {
      "time": 14.5,
      "note": 91,
      "duration": 0.125,
      "velocity": 100
    },
    {
      "time": 14.625,
      "note": 86,
      "duration": 0.25,
      "velocity": 100
    },
    {
      "time": 14.875,
      "note": 91,
      "duration": 0.125,
      "velocity": 100
    },
    {
      "time": 15.0,
      "note": 93,
      "duration": 0.125,
      "velocity": 100
    },
    {
      "time": 15.125,
      "note": 91,
      "duration": 0.125,
      "velocity": 100
    },
    {
      "time": 15.25,
      "note": 86,
      "duration": 0.125,
      "velocity": 100
    },
    {
      "time": 15.375,
      "note": 91,
      "duration": 0.125,
      "velocity": 100
    },
    {
      "time": 15.5,
      "note": 93,
      "duration": 0.125,
      "velocity": 100
    },
    {
      "time": 15.625,
      "note": 91,
      "duration": 0.125,
      "velocity": 100
    },
    {
      "time": 15.75,
      "note": 86,
      "duration": 0.125,
      "velocity": 100
    },
    {
      "time": 15.875,
      "note": 93,
      "duration": 0.125,
      "velocity": 100
    },
    {
      "time": 16.0,
      "note": 91,
      "duration": 0.25,
      "velocity": 100
    },
    {
      "time": 16.25,
      "note": 91,
      "duration": 0.125,
      "velocity": 100
    },
    {
      "time": 16.375,
      "note": 89,
      "duration": 0.125,
      "velocity": 100
    },
    {
      "time": 16.5,
      "note": 87,
      "duration": 0.5,
      "velocity": 100
    },
    {
      "time": 17.0,
      "note": 86,
      "duration": 0.25,
      "velocity": 100
    },
    {
      "time": 17.25,
      "note": 91,
      "duration": 0.25,
      "velocity": 100
    },
    {
      "time": 17.5,
      "note": 93,
      "duration": 0.125,
      "velocity": 100
    },
    {
      "time": 17.625,
      "note": 91,
      "duration": 0.125,
      "velocity": 100
    },
    {
      "time": 17.75,
      "note": 93,
      "duration": 0.125,
      "velocity": 100
    },
    {
      "time": 17.875,
      "note": 91,
      "duration": 0.125,
      "velocity": 100
    },
    {
      "time": 18.0,
      "note": 93,
      "duration": 0.125,
      "velocity": 100
    },
    {
      "time": 18.125,
      "note": 93,
      "duration": 0.125,
      "velocity": 100
    },
    {
      "time": 18.25,
      "note": 91,
      "duration": 0.125,
      "velocity": 100
    },
    {
      "time": 18.375,
      "note": 86,
      "duration": 0.25,
      "velocity": 100
    },
    {
      "time": 18.625,
      "note": 91,
      "duration": 0.125,
      "velocity": 100
    },
    {
      "time": 18.75,
      "note": 93,
      "duration": 0.125,
      "velocity": 100
    },
    {
      "time": 18.875,
      "note": 91,
      "duration": 0.125,
      "velocity": 100
    },
    {
      "time": 19.0,
      "note": 86,
      "duration": 0.25,
      "velocity": 100
    },
    {
      "time": 19.25,
      "note": 91,
      "duration": 0.125,
      "velocity": 100
    },
    {
      "time": 19.375,
      "note": 93,
      "duration": 0.125,
      "velocity": 100
    },
    {
      "time": 19.5,
      "note": 91,
      "duration": 0.125,
      "velocity": 100
    },
    {
      "time": 19.625,
      "note": 86,
      "duration": 0.125,
      "velocity": 100
    },
    {
      "time": 19.75,
      "note": 91,
      "duration": 0.125,
      "velocity": 100
    },
    {
      "time": 19.875,
      "note": 93,
      "duration": 0.125,
      "velocity": 100
    },
    {
      "time": 20.0,
      "note": 91,
      "duration": 0.125,
      "velocity": 100
    },
    {
      "time": 20.125,
      "note": 89,
      "duration": 0.125,
      "velocity": 100
    },
    {
      "time": 20.25,
      "note": 87,
      "duration": 0.125,
      "velocity": 100
    },
    {
      "time": 20.375,
      "note": 84,
      "duration": 0.375,
      "velocity": 100
    },
    {
      "time": 20.75,
      "note": 84,
      "duration": 0.125,
      "velocity": 100
    },
    {
      "time": 20.875,
      "note": 86,
      "duration": 0.375,
      "velocity": 100
    },
    {
      "time": 21.25,
      "note": 86,
      "duration": 0.125,
      "velocity": 100
    },
    {
      "time": 21.375,
      "note": 84,
      "duration": 0.25,
      "velocity": 100
    },
    {
      "time": 21.625,
      "note": 84,
      "duration": 0.25,
      "velocity": 100
    },
    {
      "time": 21.875,
      "note": 87,
      "duration": 0.125,
      "velocity": 100
    },
    {
      "time": 22.0,
      "note": 91,
      "duration": 0.125,
      "velocity": 100
    },
    {
      "time": 22.125,
      "note": 87,
      "duration": 0.125,
      "velocity": 100
    },
    {
      "time": 22.25,
      "note": 84,
      "duration": 0.125,
      "velocity": 100
    },
    {
      "time": 22.375,
      "note": 86,
      "duration": 0.25,
      "velocity": 100
    },
    {
      "time": 22.625,
      "note": 86,
      "duration": 0.25,
      "velocity": 100
    },
    {
      "time": 22.875,
      "note": 89,
      "duration": 0.125,
      "velocity": 100
    },
    {
      "time": 23.0,
      "note": 91,
      "duration": 0.125,
      "velocity": 100
    },
    {
      "time": 23.125,
      "note": 89,
      "duration": 0.125,
      "velocity": 100
    },
    {
      "time": 23.25,
      "note": 87,
      "duration": 0.125,
      "velocity": 100
    },
    {
      "time": 23.375,
      "note": 84,
      "duration": 0.25,
      "velocity": 100
    },
    {
      "time": 23.625,
      "note": 84,
      "duration": 0.25,
      "velocity": 100
    },
    {
      "time": 23.875,
      "note": 87,
      "duration": 0.125,
      "velocity": 100
    },
    {
      "time": 24.0,
      "note": 91,
      "duration": 0.125,
      "velocity": 100
    },
    {
      "time": 24.125,
      "note": 87,
      "duration": 0.125,
      "velocity": 100
    },
    {
      "time": 24.25,
      "note": 84,
      "duration": 0.125,
      "velocity": 100
    },
    {
      "time": 24.375,
      "note": 86,
      "duration": 0.25,
      "velocity": 100
    },
    {
      "time": 24.625,
      "note": 86,
      "duration": 0.25,
      "velocity": 100
    },
    {
      "time": 24.875,
      "note": 89,
      "duration": 0.125,
      "velocity": 100
    },
    {
      "time": 25.0,
      "note": 91,
      "duration": 0.125,
      "velocity": 100
    },
    {
      "time": 25.125,
      "note": 89,
      "duration": 0.125,
      "velocity": 100
    },
    {
      "time": 25.25,
      "note": 87,
      "duration": 0.125,
      "velocity": 100
    },
    {
      "time": 25.375,
      "note": 84,
      "duration": 0.25,
      "velocity": 100
    },
    {
      "time": 25.625,
      "note": 84,
      "duration": 0.25,
      "velocity": 100
    },
    {
      "time": 25.875,
      "note": 84,
      "duration": 0.25,
      "velocity": 100
    },
    {
      "time": 26.125,
      "note": 84,
      "duration": 0.25,
      "velocity": 100
    },
    {
      "time": 26.625,
      "note": 84,
      "duration": 0.25,
      "velocity": 100
    },
    {
      "time": 26.875,
      "note": 84,
      "duration": 0.125,
      "velocity": 100
    },
    {
      "time": 27.0,
      "note": 86,
      "duration": 0.125,
      "velocity": 100
    },
    {
      "time": 27.125,
      "note": 87,
      "duration": 0.25,
      "velocity": 100
    },
    {
      "time": 27.375,
      "note": 84,
      "duration": 0.125,
      "velocity": 100
    },
    {
      "time": 27.5,
      "note": 86,
      "duration": 0.125,
      "velocity": 100
    },
    {
      "time": 27.625,
      "note": 87,
      "duration": 0.5,
      "velocity": 100
    },
    {
      "time": 28.125,
      "note": 84,
      "duration": 0.25,
      "velocity": 100
    },
    {
      "time": 28.375,
      "note": 87,
      "duration": 0.25,
      "velocity": 100
    },
    {
      "time": 28.625,
      "note": 86,
      "duration": 1.0,
      "velocity": 100
    },
    {
      "time": 29.625,
      "note": 86,
      "duration": 0.5,
      "velocity": 100
    },
    {
      "time": 30.375,
      "note": 83,
      "duration": 0.125,
      "velocity": 100
    },
    {
      "time": 30.5,
      "note": 83,
      "duration": 0.125,
      "velocity": 100
    },
    {
      "time": 30.625,
      "note": 86,
      "duration": 0.125,
      "velocity": 100
    },
    {
      "time": 30.75,
      "note": 86,
      "duration": 0.25,
      "velocity": 100
    },
    {
      "time": 31.0,
      "note": 86,
      "duration": 0.125,
      "velocity": 100
    },
    {
      "time": 31.125,
      "note": 84,
      "duration": 0.25,
      "velocity": 100
    },
    {
      "time": 31.375,
      "note": 83,
      "duration": 0.25,
      "velocity": 100
    },
    {
      "time": 31.625,
      "note": 84,
      "duration": 0.25,
      "velocity": 100
    },
    {
      "time": 31.875,
      "note": 84,
      "duration": 0.125,
      "velocity": 100
    },
    {
      "time": 32.0,
      "note": 86,
      "duration": 0.125,
      "velocity": 100
    },
    {
      "time": 32.125,
      "note": 87,
      "duration": 0.25,
      "velocity": 100
    },
    {
      "time": 32.375,
      "note": 84,
      "duration": 0.125,
      "velocity": 100
    },
    {
      "time": 32.5,
      "note": 86,
      "duration": 0.125,
      "velocity": 100
    },
    {
      "time": 32.625,
      "note": 87,
      "duration": 0.25,
      "velocity": 100
    },
    {
      "time": 32.875,
      "note": 84,
      "duration": 0.25,
      "velocity": 100
    },
    {
      "time": 33.125,
      "note": 84,
      "duration": 0.25,
      "velocity": 100
    },
    {
      "time": 33.375,
      "note": 87,
      "duration": 0.25,
      "velocity": 100
    },
    {
      "time": 33.625,
      "note": 86,
      "duration": 1.0,
      "velocity": 100
    },
    {
      "time": 34.625,
      "note": 86,
      "duration": 0.5,
      "velocity": 100
    },
    {
      "time": 35.375,
      "note": 83,
      "duration": 0.125,
      "velocity": 100
    },
    {
      "time": 35.5,
      "note": 83,
      "duration": 0.125,
      "velocity": 100
    },
    {
      "time": 35.625,
      "note": 86,
      "duration": 0.125,
      "velocity": 100
    },
    {
      "time": 35.75,
      "note": 86,
      "duration": 0.25,
      "velocity": 100
    },
    {
      "time": 36.0,
      "note": 86,
      "duration": 0.125,
      "velocity": 100
    },
    {
      "time": 36.125,
      "note": 84,
      "duration": 0.25,
      "velocity": 100
    },
    {
      "time": 36.375,
      "note": 83,
      "duration": 0.25,
      "velocity": 100
    },
    {
      "time": 36.625,
      "note": 84,
      "duration": 0.75,
      "velocity": 100
    },
    {
      "time": 37.375,
      "note": 83,
      "duration": 0.125,
      "velocity": 100
    },
    {
      "time": 37.5,
      "note": 83,
      "duration": 0.125,
      "velocity": 100
    },
    {
      "time": 37.625,
      "note": 86,
      "duration": 0.125,
      "velocity": 100
    },
    {
      "time": 37.75,
      "note": 86,
      "duration": 0.25,
      "velocity": 100
    },
    {
      "time": 38.0,
      "note": 86,
      "duration": 0.125,
      "velocity": 100
    },
    {
      "time": 38.125,
      "note": 84,
      "duration": 0.25,
      "velocity": 100
    },
    {
      "time": 38.375,
      "note": 83,
      "duration": 0.25,
      "velocity": 100
    },
    {
      "time": 38.625,
      "note": 84,
      "duration": 1.0,
      "velocity": 100
    },
    {
      "time": 39.625,
      "note": 77,
      "duration": 1.0,
      "velocity": 100
    },
    {
      "time": 40.625,
      "note": 87,
      "duration": 1.0,
      "velocity": 100
    },
    {
      "time": 39.625,
      "note": 87,
      "duration": 0.25,
      "velocity": 100
    },
    {
      "time": 39.875,
      "note": 84,
      "duration": 0.125,
      "velocity": 100
    },
    {
      "time": 40.0,
      "note": 84,
      "duration": 0.125,
      "velocity": 100
    },
    {
      "time": 40.125,
      "note": 84,
      "duration": 0.25,
      "velocity": 100
    },
    {
      "time": 40.375,
      "note": 87,
      "duration": 0.25,
      "velocity": 100
    },
    {
      "time": 40.625,
      "note": 86,
      "duration": 1.0,
      "velocity": 100
    },
    {
      "time": 41.625,
      "note": 86,
      "duration": 0.5,
      "velocity": 100
    },
    {
      "time": 42.375,
      "note": 67,
      "duration": 0.125,
      "velocity": 100
    },
    {
      "time": 42.5,
      "note": 67,
      "duration": 0.125,
      "velocity": 100
    },
    {
      "time": 42.625,
      "note": 79,
      "duration": 0.125,
      "velocity": 100
    },
    {
      "time": 42.75,
      "note": 79,
      "duration": 0.125,
      "velocity": 100
    },
    {
      "time": 42.875,
      "note": 67,
      "duration": 0.125,
      "velocity": 100
    },
    {
      "time": 43.0,
      "note": 67,
      "duration": 0.125,
      "velocity": 100
    },
    {
      "time": 43.125,
      "note": 79,
      "duration": 0.125,
      "velocity": 100
    },
    {
      "time": 43.25,
      "note": 79,
      "duration": 0.125,
      "velocity": 100
    },
    {
      "time": 43.375,
      "note": 67,
      "duration": 0.125,
      "velocity": 100
    },
    {
      "time": 43.5,
      "note": 67,
      "duration": 0.125,
      "velocity": 100
    },
    {
      "time": 43.625,
      "note": 72,
      "duration": 0.5,
      "velocity": 100
    },
    {
      "time": 44.125,
      "note": 87,
      "duration": 0.125,
      "velocity": 100
    },
    {
      "time": 44.25,
      "note": 91,
      "duration": 0.125,
      "velocity": 100
    },
    {
      "time": 44.375,
      "note": 87,
      "duration": 0.125,
      "velocity": 100
    },
    {
      "time": 44.5,
      "note": 84,
      "duration": 0.125,
      "velocity": 100
    },
    {
      "time": 44.625,
      "note": 86,
      "duration": 0.25,
      "velocity": 100
    },
    {
      "time": 44.875,
      "note": 86,
      "duration": 0.25,
      "velocity": 100
    },
    {
      "time": 45.125,
      "note": 89,
      "duration": 0.125,
      "velocity": 100
    },
    {
      "time": 45.25,
      "note": 91,
      "duration": 0.125,
      "velocity": 100
    },
    {
      "time": 45.375,
      "note": 89,
      "duration": 0.125,
      "velocity": 100
    },
    {
      "time": 45.5,
      "note": 87,
      "duration": 0.125,
      "velocity": 100
    },
    {
      "time": 45.625,
      "note": 84,
      "duration": 0.25,
      "velocity": 100
    },
    {
      "time": 45.875,
      "note": 84,
      "duration": 0.25,
      "velocity": 100
    },
    {
      "time": 46.125,
      "note": 87,
      "duration": 0.125,
      "velocity": 100
    },
    {
      "time": 46.25,
      "note": 91,
      "duration": 0.125,
      "velocity": 100
    },
    {
      "time": 46.375,
      "note": 87,
      "duration": 0.125,
      "velocity": 100
    },
    {
      "time": 46.5,
      "note": 84,
      "duration": 0.125,
      "velocity": 100
    },
    {
      "time": 46.625,
      "note": 86,
      "duration": 0.25,
      "velocity": 100
    },
    {
      "time": 46.875,
      "note": 86,
      "duration": 0.25,
      "velocity": 100
    },
    {
      "time": 47.125,
      "note": 89,
      "duration": 0.125,
      "velocity": 100
    },
    {
      "time": 47.25,
      "note": 91,
      "duration": 0.125,
      "velocity": 100
    },
    {
      "time": 47.375,
      "note": 89,
      "duration": 0.125,
      "velocity": 100
    },
    {
      "time": 47.5,
      "note": 87,
      "duration": 0.125,
      "velocity": 100
    },
    {
      "time": 47.625,
      "note": 84,
      "duration": 0.25,
      "velocity": 100
    },
    {
      "time": 47.875,
      "note": 84,
      "duration": 0.25,
      "velocity": 100
    },
    {
      "time": 48.125,
      "note": 84,
      "duration": 0.25,
      "velocity": 100
    },
    {
      "time": 48.375,
      "note": 84,
      "duration": 0.25,
      "velocity": 100
    },
    {
      "time": 48.625,
      "note": 77,
      "duration": 1.0,
      "velocity": 100
    },
    {
      "time": 49.625,
      "note": 87,
      "duration": 1.0,
      "velocity": 100
    },
    {
      "time": 48.625,
      "note": 79,
      "duration": 0.25,
      "velocity": 100
    },
    {
      "time": 48.875,
      "note": 79,
      "duration": 0.125,
      "velocity": 100
    },
    {
      "time": 49.0,
      "note": 83,
      "duration": 0.125,
      "velocity": 100
    },
    {
      "time": 49.125,
      "note": 86,
      "duration": 0.25,
      "velocity": 100
    },
    {
      "time": 49.375,
      "note": 84,
      "duration": 0.125,
      "velocity": 100
    },
    {
      "time": 49.5,
      "note": 83,
      "duration": 0.125,
      "velocity": 100
    },
    {
      "time": 49.625,
      "note": 75,
      "duration": 0.5,
      "velocity": 100
    },
    {
      "time": 50.125,
      "note": 84,
      "duration": 0.5,
      "velocity": 100
    },
    {
      "time": 50.125,
      "note": 84,
      "duration": 0.125,
      "velocity": 100
    },
    {
      "time": 50.25,
      "note": 86,
      "duration": 0.125,
      "velocity": 100
    },
    {
      "time": 50.375,
      "note": 87,
      "duration": 0.25,
      "velocity": 100
    },
    {
      "time": 50.625,
      "note": 84,
      "duration": 0.125,
      "velocity": 100
    },
    {
      "time": 50.75,
      "note": 87,
      "duration": 0.125,
      "velocity": 100
    },
    {
      "time": 50.875,
      "note": 79,
      "duration": 0.125,
      "velocity": 100
    },
    {
      "time": 51.0,
      "note": 79,
      "duration": 0.125,
      "velocity": 100
    },
    {
      "time": 51.125,
      "note": 79,
      "duration": 0.125,
      "velocity": 100
    },
    {
      "time": 51.25,
      "note": 83,
      "duration": 0.125,
      "velocity": 100
    },
    {
      "time": 51.375,
      "note": 86,
      "duration": 0.25,
      "velocity": 100
    },
    {
      "time": 51.625,
      "note": 84,
      "duration": 0.125,
      "velocity": 100
    },
    {
      "time": 51.75,
      "note": 83,
      "duration": 0.125,
      "velocity": 100
    }
  ],
  "chords": [
    {
      "time": 0.0,
      "notes": [
        67,
        71,
        74
      ],
      "duration": 1.525735294117647
    },
    {
      "time": 1.525735294117647,
      "notes": [
        60,
        63,
        67
      ],
      "duration": 1.525735294117647
    },
    {
      "time": 3.051470588235294,
      "notes": [
        67,
        71,
        74
      ],
      "duration": 1.525735294117647
    },
    {
      "time": 4.577205882352941,
      "notes": [
        60,
        63,
        67
      ],
      "duration": 1.525735294117647
    },
    {
      "time": 6.102941176470588,
      "notes": [
        67,
        71,
        74
      ],
      "duration": 1.525735294117647
    },
    {
      "time": 7.628676470588235,
      "notes": [
        60,
        63,
        67
      ],
      "duration": 1.525735294117647
    },
    {
      "time": 9.154411764705882,
      "notes": [
        60,
        63,
        67
      ],
      "duration": 1.525735294117647
    },
    {
      "time": 10.680147058823529,
      "notes": [
        67,
        71,
        74
      ],
      "duration": 1.525735294117647
    },
    {
      "time": 12.205882352941176,
      "notes": [
        60,
        63,
        67
      ],
      "duration": 1.525735294117647
    },
    {
      "time": 13.731617647058822,
      "notes": [
        67,
        71,
        74
      ],
      "duration": 1.525735294117647
    },
    {
      "time": 15.25735294117647,
      "notes": [
        60,
        63,
        67
      ],
      "duration": 1.525735294117647
    },
    {
      "time": 16.783088235294116,
      "notes": [
        60,
        63,
        67
      ],
      "duration": 1.525735294117647
    },
    {
      "time": 18.308823529411764,
      "notes": [
        67,
        71,
        74
      ],
      "duration": 1.525735294117647
    },
    {
      "time": 19.83455882352941,
      "notes": [
        60,
        63,
        67
      ],
      "duration": 1.525735294117647
    },
    {
      "time": 21.360294117647058,
      "notes": [
        67,
        71,
        74
      ],
      "duration": 1.525735294117647
    },
    {
      "time": 22.886029411764703,
      "notes": [
        60,
        63,
        67
      ],
      "duration": 1.525735294117647
    },
    {
      "time": 24.41176470588235,
      "notes": [
        60,
        63,
        67
      ],
      "duration": 1.525735294117647
    },
    {
      "time": 25.9375,
      "notes": [
        67,
        71,
        74
      ],
      "duration": 1.525735294117647
    },
    {
      "time": 27.463235294117645,
      "notes": [
        60,
        63,
        67
      ],
      "duration": 1.525735294117647
    },
    {
      "time": 28.988970588235293,
      "notes": [
        67,
        71,
        74
      ],
      "duration": 1.525735294117647
    },
    {
      "time": 30.51470588235294,
      "notes": [
        60,
        63,
        67
      ],
      "duration": 1.525735294117647
    },
    {
      "time": 32.04044117647059,
      "notes": [
        67,
        71,
        74
      ],
      "duration": 1.525735294117647
    },
    {
      "time": 33.56617647058823,
      "notes": [
        60,
        63,
        67
      ],
      "duration": 1.525735294117647
    },
    {
      "time": 35.09191176470588,
      "notes": [
        60,
        63,
        67
      ],
      "duration": 1.525735294117647
    },
    {
      "time": 36.61764705882353,
      "notes": [
        67,
        71,
        74
      ],
      "duration": 1.525735294117647
    },
    {
      "time": 38.143382352941174,
      "notes": [
        60,
        63,
        67
      ],
      "duration": 1.525735294117647
    },
    {
      "time": 39.66911764705882,
      "notes": [
        67,
        71,
        74
      ],
      "duration": 1.525735294117647
    },
    {
      "time": 41.19485294117647,
      "notes": [
        60,
        63,
        67
      ],
      "duration": 1.525735294117647
    },
    {
      "time": 42.720588235294116,
      "notes": [
        67,
        71,
        74
      ],
      "duration": 1.525735294117647
    },
    {
      "time": 44.24632352941176,
      "notes": [
        60,
        63,
        67
      ],
      "duration": 1.525735294117647
    },
    {
      "time": 45.772058823529406,
      "notes": [
        60,
        63,
        67
      ],
      "duration": 1.525735294117647
    },
    {
      "time": 47.29779411764706,
      "notes": [
        67,
        71,
        74
      ],
      "duration": 1.525735294117647
    },
    {
      "time": 48.8235294117647,
      "notes": [
        60,
        63,
        67
      ],
      "duration": 1.525735294117647
    },
    {
      "time": 50.34926470588235,
      "notes": [
        67,
        71,
        74
      ],
      "duration": 1.525735294117647
    }
  ]
}