{
  "title": "Yo me enamore",
  "artist": "Amar Azul",
  "bpm": 120,
  "duration": 27.375,
  "audioFile": "",
  "notes": [
    {
      "time": 0.375,
      "note": 81,
      "duration": 0.125,
      "velocity": 100
    },
    {
      "time": 0.5,
      "note": 86,
      "duration": 0.25,
      "velocity": 100
    },
    {
      "time": 0.75,
      "note": 81,
      "duration": 0.125,
      "velocity": 100
    },
    {
      "time": 0.875,
      "note": 86,
      "duration": 0.125,
      "velocity": 100
    },
    {
      "time": 1.0,
      "note": 89,
      "duration": 0.25,
      "velocity": 100
    },
    {
      "time": 1.25,
      "note": 89,
      "duration": 0.125,
      "velocity": 100
    },
    {
      "time": 1.375,
      "note": 88,
      "duration": 0.125,
      "velocity": 100
    },
    {
      "time": 1.625,
      "note": 88,
      "duration": 0.125,
      "velocity": 100
    },
    {
      "time": 1.75,
      "note": 89,
      "duration": 0.125,
      "velocity": 100
    },
    {
      "time": 1.875,
      "note": 88,
      "duration": 0.125,
      "velocity": 100
    },
    {
      "time": 2.0,
      "note": 86,
      "duration": 0.375,
      "velocity": 100
    },
    {
      "time": 2.375,
      "note": 81,
      "duration": 0.125,
      "velocity": 100
    },
    {
      "time": 2.5,
      "note": 86,
      "duration": 0.25,
      "velocity": 100
    },
    {
      "time": 2.75,
      "note": 81,
      "duration": 0.125,
      "velocity": 100
    },
    {
      "time": 2.875,
      "note": 86,
      "duration": 0.125,
      "velocity": 100
    },
    {
      "time": 3.0,
      "note": 89,
      "duration": 0.25,
      "velocity": 100
    },
    {
      "time": 3.25,
      "note": 89,
      "duration": 0.125,
      "velocity": 100
    },
    {
      "time": 3.375,
      "note": 88,
      "duration": 0.125,
      "velocity": 100
    },
    {
      "time": 3.625,
      "note": 91,
      "duration": 0.125,
      "velocity": 100
    },
    {
      "time": 3.75,
      "note": 88,
      "duration": 0.125,
      "velocity": 100
    },
    {
      "time": 3.875,
      "note": 86,
      "duration": 0.125,
      "velocity": 100
    },
    {
      "time": 4.0,
      "note": 84,
      "duration": 0.375,
      "velocity": 100
    },
    {
      "time": 4.375,
      "note": 79,
      "duration": 0.125,
      "velocity": 100
    },
    {
      "time": 4.5,
      "note": 84,
      "duration": 0.25,
      "velocity": 100
    },
    {
      "time": 4.75,
      "note": 79,
      "duration": 0.125,
      "velocity": 100
    },
    {
      "time": 4.875,
      "note": 84,
      "duration": 0.125,
      "velocity": 100
    },
    {
      "time": 5.0,
      "note": 88,
      "duration": 0.25,
      "velocity": 100
    },
    {
      "time": 5.25,
      "note": 88,
      "duration": 0.125,
      "velocity": 100
    },
    {
      "time": 5.375,
      "note": 86,
      "duration": 0.125,
      "velocity": 100
    },
    {
      "time": 5.625,
      "note": 86,
      "duration": 0.125,
      "velocity": 100
    },
    {
      "time": 5.75,
      "note": 88,
      "duration": 0.125,
      "velocity": 100
    },
    {
      "time": 5.875,
      "note": 86,
      "duration": 0.125,
      "velocity": 100
    },
    {
      "time": 6.25,
      "note": 84,
      "duration": 0.375,
      "velocity": 100
    },
    {
      "time": 6.625,
      "note": 79,
      "duration": 0.125,
      "velocity": 100
    },
    {
      "time": 6.75,
      "note": 84,
      "duration": 0.25,
      "velocity": 100
    },
    {
      "time": 7.0,
      "note": 79,
      "duration": 0.125,
      "velocity": 100
    },
    {
      "time": 7.125,
      "note": 84,
      "duration": 0.125,
      "velocity": 100
    },
    {
      "time": 7.25,
      "note": 88,
      "duration": 0.125,
      "velocity": 100
    },
    {
      "time": 7.5,
      "note": 88,
      "duration": 0.125,
      "velocity": 100
    },
    {
      "time": 7.625,
      "note": 88,
      "duration": 0.125,
      "velocity": 100
    },
    {
      "time": 7.875,
      "note": 88,
      "duration": 0.125,
      "velocity": 100
    },
    {
      "time": 8.0,
      "note": 89,
      "duration": 0.125,
      "velocity": 100
    },
    {
      "time": 8.125,
      "note": 88,
      "duration": 0.125,
      "velocity": 100
    },
    {
      "time": 8.25,
      "note": 76,
      "duration": 0.5,
      "velocity": 100
    },
    {
      "time": 8.75,
      "note": 86,
      "duration": 0.5,
      "velocity": 100
    },
    {
      "time": 8.75,
      "note": 81,
      "duration": 0.125,
      "velocity": 100
    },
    {
      "time": 8.875,
      "note": 86,
      "duration": 0.25,
      "velocity": 100
    },
    {
      "time": 9.125,
      "note": 81,
      "duration": 0.125,
      "velocity": 100
    },
    {
      "time": 9.25,
      "note": 86,
      "duration": 0.125,
      "velocity": 100
    },
    {
      "time": 9.375,
      "note": 86,
      "duration": 0.5,
      "velocity": 100
    },
    {
      "time": 10.0,
      "note": 81,
      "duration": 0.125,
      "velocity": 100
    },
    {
      "time": 10.125,
      "note": 81,
      "duration": 0.125,
      "velocity": 100
    },
    {
      "time": 10.625,
      "note": 77,
      "duration": 0.125,
      "velocity": 100
    },
    {
      "time": 10.75,
      "note": 81,
      "duration": 0.25,
      "velocity": 100
    },
    {
      "time": 11.0,
      "note": 79,
      "duration": 0.125,
      "velocity": 100
    },
    {
      "time": 11.125,
      "note": 81,
      "duration": 0.125,
      "velocity": 100
    },
    {
      "time": 10.25,
      "note": 74,
      "duration": 0.25,
      "velocity": 100
    },
    {
      "time": 10.5,
      "note": 77,
      "duration": 0.25,
      "velocity": 100
    },
    {
      "time": 10.75,
      "note": 81,
      "duration": 0.25,
      "velocity": 100
    },
    {
      "time": 10.75,
      "note": 81,
      "duration": 0.125,
      "velocity": 100
    },
    {
      "time": 10.875,
      "note": 81,
      "duration": 0.25,
      "velocity": 100
    },
    {
      "time": 11.125,
      "note": 79,
      "duration": 0.125,
      "velocity": 100
    },
    {
      "time": 11.25,
      "note": 81,
      "duration": 0.25,
      "velocity": 100
    },
    {
      "time": 11.5,
      "note": 79,
      "duration": 0.125,
      "velocity": 100
    },
    {
      "time": 11.625,
      "note": 81,
      "duration": 0.125,
      "velocity": 100
    },
    {
      "time": 12.125,
      "note": 77,
      "duration": 0.125,
      "velocity": 100
    },
    {
      "time": 12.25,
      "note": 81,
      "duration": 0.25,
      "velocity": 100
    },
    {
      "time": 12.5,
      "note": 79,
      "duration": 0.125,
      "velocity": 100
    },
    {
      "time": 12.625,
      "note": 81,
      "duration": 0.125,
      "velocity": 100
    },
    {
      "time": 12.875,
      "note": 81,
      "duration": 0.25,
      "velocity": 100
    },
    {
      "time": 13.125,
      "note": 79,
      "duration": 0.125,
      "velocity": 100
    },
    {
      "time": 13.25,
      "note": 81,
      "duration": 0.25,
      "velocity": 100
    },
    {
      "time": 13.5,
      "note": 79,
      "duration": 0.125,
      "velocity": 100
    },
    {
      "time": 13.625,
      "note": 84,
      "duration": 0.125,
      "velocity": 100
    },
    {
      "time": 14.125,
      "note": 74,
      "duration": 0.5,
      "velocity": 100
    },
    {
      "time": 14.625,
      "note": 77,
      "duration": 0.5,
      "velocity": 100
    },
    {
      "time": 14.625,
      "note": 84,
      "duration": 0.5,
      "velocity": 100
    },
    {
      "time": 14.625,
      "note": 84,
      "duration": 0.25,
      "velocity": 100
    },
    {
      "time": 14.875,
      "note": 84,
      "duration": 0.125,
      "velocity": 100
    },
    {
      "time": 15.0,
      "note": 84,
      "duration": 0.125,
      "velocity": 100
    },
    {
      "time": 15.25,
      "note": 84,
      "duration": 0.25,
      "velocity": 100
    },
    {
      "time": 15.5,
      "note": 84,
      "duration": 0.125,
      "velocity": 100
    },
    {
      "time": 15.625,
      "note": 84,
      "duration": 0.25,
      "velocity": 100
    },
    {
      "time": 15.875,
      "note": 84,
      "duration": 0.125,
      "velocity": 100
    },
    {
      "time": 16.0,
      "note": 86,
      "duration": 0.125,
      "velocity": 100
    },
    {
      "time": 16.25,
      "note": 84,
      "duration": 0.125,
      "velocity": 100
    },
    {
      "time": 16.375,
      "note": 84,
      "duration": 0.125,
      "velocity": 100
    },
    {
      "time": 16.5,
      "note": 84,
      "duration": 0.125,
      "velocity": 100
    },
    {
      "time": 16.625,
      "note": 81,
      "duration": 0.25,
      "velocity": 100
    },
    {
      "time": 16.875,
      "note": 79,
      "duration": 0.25,
      "velocity": 100
    },
    {
      "time": 17.125,
      "note": 81,
      "duration": 0.375,
      "velocity": 100
    },
    {
      "time": 17.5,
      "note": 79,
      "duration": 0.125,
      "velocity": 100
    },
    {
      "time": 17.625,
      "note": 77,
      "duration": 0.5,
      "velocity": 100
    },
    {
      "time": 17.5,
      "note": 74,
      "duration": 0.125,
      "velocity": 100
    },
    {
      "time": 17.625,
      "note": 77,
      "duration": 0.125,
      "velocity": 100
    },
    {
      "time": 17.75,
      "note": 74,
      "duration": 0.125,
      "velocity": 100
    },
    {
      "time": 17.875,
      "note": 77,
      "duration": 0.125,
      "velocity": 100
    },
    {
      "time": 17.875,
      "note": 72,
      "duration": 0.125,
      "velocity": 100
    },
    {
      "time": 18.0,
      "note": 76,
      "duration": 0.125,
      "velocity": 100
    },
    {
      "time": 18.0,
      "note": 74,
      "duration": 0.25,
      "velocity": 100
    },
    {
      "time": 18.25,
      "note": 77,
      "duration": 0.25,
      "velocity": 100
    },
    {
      "time": 18.625,
      "note": 77,
      "duration": 0.125,
      "velocity": 100
    },
    {
      "time": 18.75,
      "note": 81,
      "duration": 0.25,
      "velocity": 100
    },
    {
      "time": 19.0,
      "note": 79,
      "duration": 0.125,
      "velocity": 100
    },
    {
      "time": 19.125,
      "note": 81,
      "duration": 0.125,
      "velocity": 100
    },
    {
      "time": 18.25,
      "note": 69,
      "duration": 0.5,
      "velocity": 100
    },
    {
      "time": 18.75,
      "note": 74,
      "duration": 0.5,
      "velocity": 100
    },
    {
      "time": 19.25,
      "note": 81,
      "duration": 1.0,
      "velocity": 100
    },
    {
      "time": 20.5,
      "note": 86,
      "duration": 0.25,
      "velocity": 100
    },
    {
      "time": 20.75,
      "note": 81,
      "duration": 0.25,
      "velocity": 100
    },
    {
      "time": 21.0,
      "note": 86,
      "duration": 0.25,
      "velocity": 100
    },
    {
      "time": 21.25,
      "note": 84,
      "duration": 0.375,
      "velocity": 100
    },
    {
      "time": 21.625,
      "note": 79,
      "duration": 0.125,
      "velocity": 100
    },
    {
      "time": 21.75,
      "note": 88,
      "duration": 0.125,
      "velocity": 100
    },
    {
      "time": 21.75,
      "note": 79,
      "duration": 0.125,
      "velocity": 100
    },
    {
      "time": 21.875,
      "note": 88,
      "duration": 0.125,
      "velocity": 100
    },
    {
      "time": 21.875,
      "note": 77,
      "duration": 0.125,
      "velocity": 100
    },
    {
      "time": 22.0,
      "note": 86,
      "duration": 0.125,
      "velocity": 100
    },
    {
      "time": 22.0,
      "note": 77,
      "duration": 0.125,
      "velocity": 100
    },
    {
      "time": 22.125,
      "note": 86,
      "duration": 0.125,
      "velocity": 100
    },
    {
      "time": 22.625,
      "note": 84,
      "duration": 0.25,
      "velocity": 100
    },
    {
      "time": 22.875,
      "note": 84,
      "duration": 0.25,
      "velocity": 100
    },
    {
      "time": 22.125,
      "note": 76,
      "duration": 0.5,
      "velocity": 100
    },
    {
      "time": 22.625,
      "note": 84,
      "duration": 0.5,
      "velocity": 100
    },
    {
      "time": 23.125,
      "note": 88,
      "duration": 0.375,
      "velocity": 100
    },
    {
      "time": 23.5,
      "note": 84,
      "duration": 0.125,
      "velocity": 100
    },
    {
      "time": 23.625,
      "note": 84,
      "duration": 0.5,
      "velocity": 100
    },
    {
      "time": 24.375,
      "note": 79,
      "duration": 0.5,
      "velocity": 100
    },
    {
      "time": 24.875,
      "note": 88,
      "duration": 0.5,
      "velocity": 100
    },
    {
      "time": 24.875,
      "note": 84,
      "duration": 0.25,
      "velocity": 100
    },
    {
      "time": 25.125,
      "note": 88,
      "duration": 0.25,
      "velocity": 100
    },
    {
      "time": 25.375,
      "note": 86,
      "duration": 0.5,
      "velocity": 100
    },
    {
      "time": 25.875,
      "note": 81,
      "duration": 0.125,
      "velocity": 100
    },
    {
      "time": 26.0,
      "note": 79,
      "duration": 0.125,
      "velocity": 100
    },
    {
      "time": 26.125,
      "note": 81,
      "duration": 0.125,
      "velocity": 100
    },
    {
      "time": 26.25,
      "note": 74,
      "duration": 0.375,
      "velocity": 100
    },
    {
      "time": 26.625,
      "note": 77,
      "duration": 0.25,
      "velocity": 100
    },
    {
      "time": 26.875,
      "note": 81,
      "duration": 0.25,
      "velocity": 100
    },
    {
      "time": 27.125,
      "note": 74,
      "duration": 0.25,
      "velocity": 100
    },
    {
      "time": 27.375,
      "note": 77,
      "duration": 0.25,
      "velocity": 100
    }
  ],
  "chords": [
    {
      "time": 0.0,
      "notes": [
        62,
        65,
        69
      ],
      "duration": 3.0416666666666665
    },
    {
      "time": 3.0416666666666665,
      "notes": [
        60,
        64,
        67
      ],
      "duration": 3.0416666666666665
    },
    {
      "time": 6.083333333333333,
      "notes": [
        62,
        65,
        69
      ],
      "duration": 3.0416666666666665
    },
    {
      "time": 9.125,
      "notes": [
        62,
        65,
        69
      ],
      "duration": 3.0416666666666665
    },
    {
      "time": 12.166666666666666,
      "notes": [
        62,
        65,
        69
      ],
      "duration": 3.0416666666666665
    },
    {
      "time": 15.208333333333332,
      "notes": [
        60,
        64,
        67
      ],
      "duration": 3.0416666666666665
    },
    {
      "time": 18.25,
      "notes": [
        62,
        65,
        69
      ],
      "duration": 3.0416666666666665
    },
    {
      "time": 21.291666666666664,
      "notes": [
        60,
        64,
        67
      ],
      "duration": 3.0416666666666665
    },
    {
      "time": 24.333333333333332,
      "notes": [
        62,
        65,
        69
      ],
      "duration": 3.0416666666666665
    }
  ]
}