{
  "title": "La vecina",
  "artist": "Amar Azul",
  "bpm": 120,
  "duration": 34.5,
  "audioFile": "",
  "notes": [
    {
      "time": 0.5,
      "note": 83,
      "duration": 0.125,
      "velocity": 100
    },
    {
      "time": 0.625,
      "note": 86,
      "duration": 0.125,
      "velocity": 100
    },
    {
      "time": 0.625,
      "note": 83,
      "duration": 0.125,
      "velocity": 100
    },
    {
      "time": 0.75,
      "note": 86,
      "duration": 0.125,
      "velocity": 100
    },
    {
      "time": 0.75,
      "note": 83,
      "duration": 0.125,
      "velocity": 100
    },
    {
      "time": 0.875,
      "note": 86,
      "duration": 0.125,
      "velocity": 100
    },
    {
      "time": 0.875,
      "note": 83,
      "duration": 0.25,
      "velocity": 100
    },
    {
      "time": 1.125,
      "note": 86,
      "duration": 0.25,
      "velocity": 100
    },
    {
      "time": 1.125,
      "note": 77,
      "duration": 0.125,
      "velocity": 100
    },
    {
      "time": 1.25,
      "note": 83,
      "duration": 0.125,
      "velocity": 100
    },
    {
      "time": 1.25,
      "note": 77,
      "duration": 0.25,
      "velocity": 100
    },
    {
      "time": 1.5,
      "note": 83,
      "duration": 0.25,
      "velocity": 100
    },
    {
      "time": 1.5,
      "note": 71,
      "duration": 0.125,
      "velocity": 100
    },
    {
      "time": 1.625,
      "note": 74,
      "duration": 0.125,
      "velocity": 100
    },
    {
      "time": 1.625,
      "note": 74,
      "duration": 0.125,
      "velocity": 100
    },
    {
      "time": 1.75,
      "note": 77,
      "duration": 0.125,
      "velocity": 100
    },
    {
      "time": 1.875,
      "note": 74,
      "duration": 0.25,
      "velocity": 100
    },
    {
      "time": 2.125,
      "note": 77,
      "duration": 0.25,
      "velocity": 100
    },
    {
      "time": 2.125,
      "note": 74,
      "duration": 0.125,
      "velocity": 100
    },
    {
      "time": 2.25,
      "note": 77,
      "duration": 0.125,
      "velocity": 100
    },
    {
      "time": 2.375,
      "note": 83,
      "duration": 0.125,
      "velocity": 100
    },
    {
      "time": 2.5,
      "note": 86,
      "duration": 0.125,
      "velocity": 100
    },
    {
      "time": 2.5,
      "note": 83,
      "duration": 0.125,
      "velocity": 100
    },
    {
      "time": 2.625,
      "note": 86,
      "duration": 0.125,
      "velocity": 100
    },
    {
      "time": 2.625,
      "note": 83,
      "duration": 0.125,
      "velocity": 100
    },
    {
      "time": 2.75,
      "note": 86,
      "duration": 0.125,
      "velocity": 100
    },
    {
      "time": 2.75,
      "note": 83,
      "duration": 0.25,
      "velocity": 100
    },
    {
      "time": 3.0,
      "note": 86,
      "duration": 0.25,
      "velocity": 100
    },
    {
      "time": 3.0,
      "note": 71,
      "duration": 0.125,
      "velocity": 100
    },
    {
      "time": 3.125,
      "note": 74,
      "duration": 0.125,
      "velocity": 100
    },
    {
      "time": 3.125,
      "note": 74,
      "duration": 0.25,
      "velocity": 100
    },
    {
      "time": 3.375,
      "note": 77,
      "duration": 0.25,
      "velocity": 100
    },
    {
      "time": 3.375,
      "note": 77,
      "duration": 0.125,
      "velocity": 100
    },
    {
      "time": 3.5,
      "note": 83,
      "duration": 0.125,
      "velocity": 100
    },
    {
      "time": 3.5,
      "note": 76,
      "duration": 0.125,
      "velocity": 100
    },
    {
      "time": 3.625,
      "note": 81,
      "duration": 0.125,
      "velocity": 100
    },
    {
      "time": 3.75,
      "note": 76,
      "duration": 0.25,
      "velocity": 100
    },
    {
      "time": 4.0,
      "note": 81,
      "duration": 0.25,
      "velocity": 100
    },
    {
      "time": 4.0,
      "note": 76,
      "duration": 0.125,
      "velocity": 100
    },
    {
      "time": 4.125,
      "note": 81,
      "duration": 0.125,
      "velocity": 100
    },
    {
      "time": 4.25,
      "note": 81,
      "duration": 0.125,
      "velocity": 100
    },
    {
      "time": 4.375,
      "note": 84,
      "duration": 0.125,
      "velocity": 100
    },
    {
      "time": 4.375,
      "note": 81,
      "duration": 0.125,
      "velocity": 100
    },
    {
      "time": 4.5,
      "note": 84,
      "duration": 0.125,
      "velocity": 100
    },
    {
      "time": 4.5,
      "note": 81,
      "duration": 0.125,
      "velocity": 100
    },
    {
      "time": 4.625,
      "note": 84,
      "duration": 0.125,
      "velocity": 100
    },
    {
      "time": 4.625,
      "note": 81,
      "duration": 0.375,
      "velocity": 100
    },
    {
      "time": 5.0,
      "note": 84,
      "duration": 0.375,
      "velocity": 100
    },
    {
      "time": 5.0,
      "note": 76,
      "duration": 0.125,
      "velocity": 100
    },
    {
      "time": 5.125,
      "note": 81,
      "duration": 0.125,
      "velocity": 100
    },
    {
      "time": 5.125,
      "note": 76,
      "duration": 0.25,
      "velocity": 100
    },
    {
      "time": 5.375,
      "note": 81,
      "duration": 0.25,
      "velocity": 100
    },
    {
      "time": 5.375,
      "note": 69,
      "duration": 0.125,
      "velocity": 100
    },
    {
      "time": 5.5,
      "note": 72,
      "duration": 0.125,
      "velocity": 100
    },
    {
      "time": 5.5,
      "note": 72,
      "duration": 0.125,
      "velocity": 100
    },
    {
      "time": 5.625,
      "note": 76,
      "duration": 0.125,
      "velocity": 100
    },
    {
      "time": 5.75,
      "note": 72,
      "duration": 0.25,
      "velocity": 100
    },
    {
      "time": 6.0,
      "note": 76,
      "duration": 0.25,
      "velocity": 100
    },
    {
      "time": 6.0,
      "note": 72,
      "duration": 0.125,
      "velocity": 100
    },
    {
      "time": 6.125,
      "note": 76,
      "duration": 0.125,
      "velocity": 100
    },
    {
      "time": 6.25,
      "note": 81,
      "duration": 0.125,
      "velocity": 100
    },
    {
      "time": 6.375,
      "note": 84,
      "duration": 0.125,
      "velocity": 100
    },
    {
      "time": 6.375,
      "note": 81,
      "duration": 0.125,
      "velocity": 100
    },
    {
      "time": 6.5,
      "note": 84,
      "duration": 0.125,
      "velocity": 100
    },
    {
      "time": 6.5,
      "note": 81,
      "duration": 0.125,
      "velocity": 100
    },
    {
      "time": 6.625,
      "note": 84,
      "duration": 0.125,
      "velocity": 100
    },
    {
      "time": 6.625,
      "note": 81,
      "duration": 0.375,
      "velocity": 100
    },
    {
      "time": 7.0,
      "note": 84,
      "duration": 0.375,
      "velocity": 100
    },
    {
      "time": 7.0,
      "note": 69,
      "duration": 0.125,
      "velocity": 100
    },
    {
      "time": 7.125,
      "note": 72,
      "duration": 0.125,
      "velocity": 100
    },
    {
      "time": 7.125,
      "note": 72,
      "duration": 0.25,
      "velocity": 100
    },
    {
      "time": 7.375,
      "note": 76,
      "duration": 0.25,
      "velocity": 100
    },
    {
      "time": 7.375,
      "note": 76,
      "duration": 0.125,
      "velocity": 100
    },
    {
      "time": 7.5,
      "note": 81,
      "duration": 0.125,
      "velocity": 100
    },
    {
      "time": 7.5,
      "note": 77,
      "duration": 0.125,
      "velocity": 100
    },
    {
      "time": 7.625,
      "note": 83,
      "duration": 0.125,
      "velocity": 100
    },
    {
      "time": 7.75,
      "note": 77,
      "duration": 0.25,
      "velocity": 100
    },
    {
      "time": 8.0,
      "note": 83,
      "duration": 0.25,
      "velocity": 100
    },
    {
      "time": 8.0,
      "note": 77,
      "duration": 0.125,
      "velocity": 100
    },
    {
      "time": 8.125,
      "note": 83,
      "duration": 0.125,
      "velocity": 100
    },
    {
      "time": 8.25,
      "note": 86,
      "duration": 0.125,
      "velocity": 100
    },
    {
      "time": 8.375,
      "note": 89,
      "duration": 0.125,
      "velocity": 100
    },
    {
      "time": 8.375,
      "note": 86,
      "duration": 0.125,
      "velocity": 100
    },
    {
      "time": 8.5,
      "note": 89,
      "duration": 0.125,
      "velocity": 100
    },
    {
      "time": 8.5,
      "note": 86,
      "duration": 0.125,
      "velocity": 100
    },
    {
      "time": 8.625,
      "note": 89,
      "duration": 0.125,
      "velocity": 100
    },
    {
      "time": 8.625,
      "note": 86,
      "duration": 0.125,
      "velocity": 100
    },
    {
      "time": 8.75,
      "note": 89,
      "duration": 0.125,
      "velocity": 100
    },
    {
      "time": 8.75,
      "note": 83,
      "duration": 0.125,
      "velocity": 100
    },
    {
      "time": 8.875,
      "note": 86,
      "duration": 0.125,
      "velocity": 100
    },
    {
      "time": 9.0,
      "note": 83,
      "duration": 0.125,
      "velocity": 100
    },
    {
      "time": 9.125,
      "note": 86,
      "duration": 0.125,
      "velocity": 100
    },
    {
      "time": 9.125,
      "note": 77,
      "duration": 0.125,
      "velocity": 100
    },
    {
      "time": 9.25,
      "note": 83,
      "duration": 0.125,
      "velocity": 100
    },
    {
      "time": 9.25,
      "note": 77,
      "duration": 0.125,
      "velocity": 100
    },
    {
      "time": 9.375,
      "note": 83,
      "duration": 0.125,
      "velocity": 100
    },
    {
      "time": 9.375,
      "note": 77,
      "duration": 0.125,
      "velocity": 100
    },
    {
      "time": 9.5,
      "note": 83,
      "duration": 0.125,
      "velocity": 100
    },
    {
      "time": 9.5,
      "note": 77,
      "duration": 0.125,
      "velocity": 100
    },
    {
      "time": 9.625,
      "note": 83,
      "duration": 0.125,
      "velocity": 100
    },
    {
      "time": 9.625,
      "note": 83,
      "duration": 0.25,
      "velocity": 100
    },
    {
      "time": 9.875,
      "note": 86,
      "duration": 0.25,
      "velocity": 100
    },
    {
      "time": 9.875,
      "note": 83,
      "duration": 0.125,
      "velocity": 100
    },
    {
      "time": 10.0,
      "note": 86,
      "duration": 0.125,
      "velocity": 100
    },
    {
      "time": 10.0,
      "note": 83,
      "duration": 0.125,
      "velocity": 100
    },
    {
      "time": 10.125,
      "note": 86,
      "duration": 0.125,
      "velocity": 100
    },
    {
      "time": 10.25,
      "note": 86,
      "duration": 0.125,
      "velocity": 100
    },
    {
      "time": 10.375,
      "note": 89,
      "duration": 0.125,
      "velocity": 100
    },
    {
      "time": 10.375,
      "note": 86,
      "duration": 0.125,
      "velocity": 100
    },
    {
      "time": 10.5,
      "note": 89,
      "duration": 0.125,
      "velocity": 100
    },
    {
      "time": 10.5,
      "note": 86,
      "duration": 0.125,
      "velocity": 100
    },
    {
      "time": 10.625,
      "note": 89,
      "duration": 0.125,
      "velocity": 100
    },
    {
      "time": 10.625,
      "note": 86,
      "duration": 0.125,
      "velocity": 100
    },
    {
      "time": 10.75,
      "note": 89,
      "duration": 0.125,
      "velocity": 100
    },
    {
      "time": 10.75,
      "note": 83,
      "duration": 0.25,
      "velocity": 100
    },
    {
      "time": 11.0,
      "note": 86,
      "duration": 0.25,
      "velocity": 100
    },
    {
      "time": 11.0,
      "note": 83,
      "duration": 0.125,
      "velocity": 100
    },
    {
      "time": 11.125,
      "note": 86,
      "duration": 0.125,
      "velocity": 100
    },
    {
      "time": 11.125,
      "note": 77,
      "duration": 0.125,
      "velocity": 100
    },
    {
      "time": 11.25,
      "note": 83,
      "duration": 0.125,
      "velocity": 100
    },
    {
      "time": 11.25,
      "note": 83,
      "duration": 0.125,
      "velocity": 100
    },
    {
      "time": 11.375,
      "note": 86,
      "duration": 0.125,
      "velocity": 100
    },
    {
      "time": 11.375,
      "note": 77,
      "duration": 0.125,
      "velocity": 100
    },
    {
      "time": 11.5,
      "note": 83,
      "duration": 0.125,
      "velocity": 100
    },
    {
      "time": 11.5,
      "note": 83,
      "duration": 0.125,
      "velocity": 100
    },
    {
      "time": 11.625,
      "note": 86,
      "duration": 0.125,
      "velocity": 100
    },
    {
      "time": 11.625,
      "note": 81,
      "duration": 0.125,
      "velocity": 100
    },
    {
      "time": 11.75,
      "note": 84,
      "duration": 0.125,
      "velocity": 100
    },
    {
      "time": 11.875,
      "note": 81,
      "duration": 0.125,
      "velocity": 100
    },
    {
      "time": 12.0,
      "note": 84,
      "duration": 0.125,
      "velocity": 100
    },
    {
      "time": 12.0,
      "note": 81,
      "duration": 0.125,
      "velocity": 100
    },
    {
      "time": 12.125,
      "note": 84,
      "duration": 0.125,
      "velocity": 100
    },
    {
      "time": 12.25,
      "note": 84,
      "duration": 0.125,
      "velocity": 100
    },
    {
      "time": 12.375,
      "note": 88,
      "duration": 0.125,
      "velocity": 100
    },
    {
      "time": 12.375,
      "note": 84,
      "duration": 0.125,
      "velocity": 100
    },
    {
      "time": 12.5,
      "note": 88,
      "duration": 0.125,
      "velocity": 100
    },
    {
      "time": 12.5,
      "note": 84,
      "duration": 0.125,
      "velocity": 100
    },
    {
      "time": 12.625,
      "note": 88,
      "duration": 0.125,
      "velocity": 100
    },
    {
      "time": 12.625,
      "note": 84,
      "duration": 0.125,
      "velocity": 100
    },
    {
      "time": 12.75,
      "note": 88,
      "duration": 0.125,
      "velocity": 100
    },
    {
      "time": 12.75,
      "note": 81,
      "duration": 0.25,
      "velocity": 100
    },
    {
      "time": 13.0,
      "note": 84,
      "duration": 0.25,
      "velocity": 100
    },
    {
      "time": 13.0,
      "note": 81,
      "duration": 0.125,
      "velocity": 100
    },
    {
      "time": 13.125,
      "note": 84,
      "duration": 0.125,
      "velocity": 100
    },
    {
      "time": 13.125,
      "note": 76,
      "duration": 0.125,
      "velocity": 100
    },
    {
      "time": 13.25,
      "note": 81,
      "duration": 0.125,
      "velocity": 100
    },
    {
      "time": 13.25,
      "note": 76,
      "duration": 0.125,
      "velocity": 100
    },
    {
      "time": 13.375,
      "note": 81,
      "duration": 0.125,
      "velocity": 100
    },
    {
      "time": 13.375,
      "note": 76,
      "duration": 0.125,
      "velocity": 100
    },
    {
      "time": 13.5,
      "note": 81,
      "duration": 0.125,
      "velocity": 100
    },
    {
      "time": 13.5,
      "note": 76,
      "duration": 0.125,
      "velocity": 100
    },
    {
      "time": 13.625,
      "note": 81,
      "duration": 0.125,
      "velocity": 100
    },
    {
      "time": 13.625,
      "note": 81,
      "duration": 0.25,
      "velocity": 100
    },
    {
      "time": 13.875,
      "note": 84,
      "duration": 0.25,
      "velocity": 100
    },
    {
      "time": 13.875,
      "note": 81,
      "duration": 0.125,
      "velocity": 100
    },
    {
      "time": 14.0,
      "note": 84,
      "duration": 0.125,
      "velocity": 100
    },
    {
      "time": 14.0,
      "note": 81,
      "duration": 0.125,
      "velocity": 100
    },
    {
      "time": 14.125,
      "note": 84,
      "duration": 0.125,
      "velocity": 100
    },
    {
      "time": 14.25,
      "note": 84,
      "duration": 0.125,
      "velocity": 100
    },
    {
      "time": 14.375,
      "note": 88,
      "duration": 0.125,
      "velocity": 100
    },
    {
      "time": 14.375,
      "note": 84,
      "duration": 0.125,
      "velocity": 100
    },
    {
      "time": 14.5,
      "note": 88,
      "duration": 0.125,
      "velocity": 100
    },
    {
      "time": 14.5,
      "note": 84,
      "duration": 0.125,
      "velocity": 100
    },
    {
      "time": 14.625,
      "note": 88,
      "duration": 0.125,
      "velocity": 100
    },
    {
      "time": 14.625,
      "note": 84,
      "duration": 0.125,
      "velocity": 100
    },
    {
      "time": 14.75,
      "note": 88,
      "duration": 0.125,
      "velocity": 100
    },
    {
      "time": 14.75,
      "note": 81,
      "duration": 0.25,
      "velocity": 100
    },
    {
      "time": 15.0,
      "note": 84,
      "duration": 0.25,
      "velocity": 100
    },
    {
      "time": 15.0,
      "note": 81,
      "duration": 0.125,
      "velocity": 100
    },
    {
      "time": 15.125,
      "note": 84,
      "duration": 0.125,
      "velocity": 100
    },
    {
      "time": 15.125,
      "note": 76,
      "duration": 0.125,
      "velocity": 100
    },
    {
      "time": 15.25,
      "note": 81,
      "duration": 0.125,
      "velocity": 100
    },
    {
      "time": 15.25,
      "note": 81,
      "duration": 0.125,
      "velocity": 100
    },
    {
      "time": 15.375,
      "note": 84,
      "duration": 0.125,
      "velocity": 100
    },
    {
      "time": 15.375,
      "note": 76,
      "duration": 0.125,
      "velocity": 100
    },
    {
      "time": 15.5,
      "note": 81,
      "duration": 0.125,
      "velocity": 100
    },
    {
      "time": 15.5,
      "note": 81,
      "duration": 0.125,
      "velocity": 100
    },
    {
      "time": 15.625,
      "note": 84,
      "duration": 0.125,
      "velocity": 100
    },
    {
      "time": 15.625,
      "note": 83,
      "duration": 1.0,
      "velocity": 100
    },
    {
      "time": 16.625,
      "note": 86,
      "duration": 1.0,
      "velocity": 100
    },
    {
      "time": 16.75,
      "note": 74,
      "duration": 0.125,
      "velocity": 100
    },
    {
      "time": 16.875,
      "note": 77,
      "duration": 0.125,
      "velocity": 100
    },
    {
      "time": 16.875,
      "note": 83,
      "duration": 0.125,
      "velocity": 100
    },
    {
      "time": 16.875,
      "note": 74,
      "duration": 0.125,
      "velocity": 100
    },
    {
      "time": 17.0,
      "note": 77,
      "duration": 0.125,
      "velocity": 100
    },
    {
      "time": 17.0,
      "note": 83,
      "duration": 0.125,
      "velocity": 100
    },
    {
      "time": 17.0,
      "note": 74,
      "duration": 0.125,
      "velocity": 100
    },
    {
      "time": 17.125,
      "note": 77,
      "duration": 0.125,
      "velocity": 100
    },
    {
      "time": 17.125,
      "note": 83,
      "duration": 0.125,
      "velocity": 100
    },
    {
      "time": 17.125,
      "note": 74,
      "duration": 0.5,
      "velocity": 100
    },
    {
      "time": 17.625,
      "note": 77,
      "duration": 0.5,
      "velocity": 100
    },
    {
      "time": 17.625,
      "note": 83,
      "duration": 0.5,
      "velocity": 100
    },
    {
      "time": 17.625,
      "note": 83,
      "duration": 0.125,
      "velocity": 100
    },
    {
      "time": 17.75,
      "note": 83,
      "duration": 0.125,
      "velocity": 100
    },
    {
      "time": 17.875,
      "note": 83,
      "duration": 0.125,
      "velocity": 100
    },
    {
      "time": 18.0,
      "note": 83,
      "duration": 0.125,
      "velocity": 100
    },
    {
      "time": 18.125,
      "note": 83,
      "duration": 0.125,
      "velocity": 100
    },
    {
      "time": 18.25,
      "note": 83,
      "duration": 0.125,
      "velocity": 100
    },
    {
      "time": 18.375,
      "note": 83,
      "duration": 0.125,
      "velocity": 100
    },
    {
      "time": 18.5,
      "note": 83,
      "duration": 0.125,
      "velocity": 100
    },
    {
      "time": 18.625,
      "note": 86,
      "duration": 0.25,
      "velocity": 100
    },
    {
      "time": 18.875,
      "note": 83,
      "duration": 0.25,
      "velocity": 100
    },
    {
      "time": 19.125,
      "note": 83,
      "duration": 0.5,
      "velocity": 100
    },
    {
      "time": 19.125,
      "note": 74,
      "duration": 0.25,
      "velocity": 100
    },
    {
      "time": 19.375,
      "note": 77,
      "duration": 0.25,
      "velocity": 100
    },
    {
      "time": 19.375,
      "note": 72,
      "duration": 0.25,
      "velocity": 100
    },
    {
      "time": 19.625,
      "note": 76,
      "duration": 0.25,
      "velocity": 100
    },
    {
      "time": 19.625,
      "note": 83,
      "duration": 0.125,
      "velocity": 100
    },
    {
      "time": 19.75,
      "note": 83,
      "duration": 0.125,
      "velocity": 100
    },
    {
      "time": 19.875,
      "note": 83,
      "duration": 0.125,
      "velocity": 100
    },
    {
      "time": 20.0,
      "note": 83,
      "duration": 0.125,
      "velocity": 100
    },
    {
      "time": 20.125,
      "note": 83,
      "duration": 0.125,
      "velocity": 100
    },
    {
      "time": 20.25,
      "note": 83,
      "duration": 0.125,
      "velocity": 100
    },
    {
      "time": 20.375,
      "note": 83,
      "duration": 0.125,
      "velocity": 100
    },
    {
      "time": 20.5,
      "note": 83,
      "duration": 0.125,
      "velocity": 100
    },
    {
      "time": 19.625,
      "note": 86,
      "duration": 0.25,
      "velocity": 100
    },
    {
      "time": 19.875,
      "note": 83,
      "duration": 0.25,
      "velocity": 100
    },
    {
      "time": 21.125,
      "note": 81,
      "duration": 0.125,
      "velocity": 100
    },
    {
      "time": 21.25,
      "note": 81,
      "duration": 0.125,
      "velocity": 100
    },
    {
      "time": 21.375,
      "note": 81,
      "duration": 0.125,
      "velocity": 100
    },
    {
      "time": 21.5,
      "note": 81,
      "duration": 0.125,
      "velocity": 100
    },
    {
      "time": 21.625,
      "note": 81,
      "duration": 0.125,
      "velocity": 100
    },
    {
      "time": 21.75,
      "note": 81,
      "duration": 0.125,
      "velocity": 100
    },
    {
      "time": 21.875,
      "note": 81,
      "duration": 0.125,
      "velocity": 100
    },
    {
      "time": 22.0,
      "note": 81,
      "duration": 0.125,
      "velocity": 100
    },
    {
      "time": 21.125,
      "note": 65,
      "duration": 1.0,
      "velocity": 100
    },
    {
      "time": 22.125,
      "note": 69,
      "duration": 1.0,
      "velocity": 100
    },
    {
      "time": 22.125,
      "note": 84,
      "duration": 0.25,
      "velocity": 100
    },
    {
      "time": 22.375,
      "note": 81,
      "duration": 0.125,
      "velocity": 100
    },
    {
      "time": 22.625,
      "note": 81,
      "duration": 0.25,
      "velocity": 100
    },
    {
      "time": 22.875,
      "note": 81,
      "duration": 0.25,
      "velocity": 100
    },
    {
      "time": 23.125,
      "note": 84,
      "duration": 0.375,
      "velocity": 100
    },
    {
      "time": 23.5,
      "note": 81,
      "duration": 0.125,
      "velocity": 100
    },
    {
      "time": 23.625,
      "note": 81,
      "duration": 0.25,
      "velocity": 100
    },
    {
      "time": 23.875,
      "note": 81,
      "duration": 0.125,
      "velocity": 100
    },
    {
      "time": 24.0,
      "note": 83,
      "duration": 0.125,
      "velocity": 100
    },
    {
      "time": 24.3125,
      "note": 95,
      "duration": 0.25,
      "velocity": 100
    },
    {
      "time": 24.5625,
      "note": 95,
      "duration": 0.125,
      "velocity": 100
    },
    {
      "time": 24.6875,
      "note": 95,
      "duration": 0.5,
      "velocity": 100
    },
    {
      "time": 25.1875,
      "note": 89,
      "duration": 0.5,
      "velocity": 100
    },
    {
      "time": 25.6875,
      "note": 86,
      "duration": 0.5,
      "velocity": 100
    },
    {
      "time": 24.125,
      "note": 83,
      "duration": 0.5,
      "velocity": 100
    },
    {
      "time": 24.625,
      "note": 83,
      "duration": 0.5,
      "velocity": 100
    },
    {
      "time": 25.125,
      "note": 69,
      "duration": 0.25,
      "velocity": 100
    },
    {
      "time": 25.375,
      "note": 70,
      "duration": 0.25,
      "velocity": 100
    },
    {
      "time": 26.125,
      "note": 83,
      "duration": 0.125,
      "velocity": 100
    },
    {
      "time": 26.25,
      "note": 83,
      "duration": 0.25,
      "velocity": 100
    },
    {
      "time": 26.5,
      "note": 83,
      "duration": 0.25,
      "velocity": 100
    },
    {
      "time": 26.75,
      "note": 86,
      "duration": 0.25,
      "velocity": 100
    },
    {
      "time": 27.0,
      "note": 83,
      "duration": 0.25,
      "velocity": 100
    },
    {
      "time": 27.25,
      "note": 86,
      "duration": 0.25,
      "velocity": 100
    },
    {
      "time": 27.5,
      "note": 83,
      "duration": 0.125,
      "velocity": 100
    },
    {
      "time": 27.625,
      "note": 81,
      "duration": 0.125,
      "velocity": 100
    },
    {
      "time": 27.75,
      "note": 81,
      "duration": 0.5,
      "velocity": 100
    },
    {
      "time": 27.875,
      "note": 81,
      "duration": 0.25,
      "velocity": 100
    },
    {
      "time": 28.125,
      "note": 84,
      "duration": 0.25,
      "velocity": 100
    },
    {
      "time": 28.125,
      "note": 81,
      "duration": 0.25,
      "velocity": 100
    },
    {
      "time": 28.375,
      "note": 84,
      "duration": 0.25,
      "velocity": 100
    },
    {
      "time": 28.375,
      "note": 76,
      "duration": 0.125,
      "velocity": 100
    },
    {
      "time": 28.5,
      "note": 81,
      "duration": 0.125,
      "velocity": 100
    },
    {
      "time": 28.5,
      "note": 81,
      "duration": 0.125,
      "velocity": 100
    },
    {
      "time": 28.625,
      "note": 84,
      "duration": 0.125,
      "velocity": 100
    },
    {
      "time": 28.625,
      "note": 84,
      "duration": 0.25,
      "velocity": 100
    },
    {
      "time": 28.875,
      "note": 88,
      "duration": 0.25,
      "velocity": 100
    },
    {
      "time": 28.875,
      "note": 84,
      "duration": 0.125,
      "velocity": 100
    },
    {
      "time": 29.0,
      "note": 84,
      "duration": 0.125,
      "velocity": 100
    },
    {
      "time": 29.125,
      "note": 84,
      "duration": 0.125,
      "velocity": 100
    },
    {
      "time": 29.25,
      "note": 88,
      "duration": 0.125,
      "velocity": 100
    },
    {
      "time": 29.5,
      "note": 86,
      "duration": 0.125,
      "velocity": 100
    },
    {
      "time": 29.625,
      "note": 84,
      "duration": 0.125,
      "velocity": 100
    },
    {
      "time": 29.75,
      "note": 86,
      "duration": 0.125,
      "velocity": 100
    },
    {
      "time": 29.875,
      "note": 86,
      "duration": 0.125,
      "velocity": 100
    },
    {
      "time": 30.0,
      "note": 83,
      "duration": 0.125,
      "velocity": 100
    },
    {
      "time": 30.25,
      "note": 83,
      "duration": 0.125,
      "velocity": 100
    },
    {
      "time": 30.375,
      "note": 83,
      "duration": 0.25,
      "velocity": 100
    },
    {
      "time": 30.625,
      "note": 83,
      "duration": 0.25,
      "velocity": 100
    },
    {
      "time": 30.875,
      "note": 84,
      "duration": 0.125,
      "velocity": 100
    },
    {
      "time": 31.0,
      "note": 84,
      "duration": 0.125,
      "velocity": 100
    },
    {
      "time": 31.125,
      "note": 84,
      "duration": 0.125,
      "velocity": 100
    },
    {
      "time": 31.25,
      "note": 88,
      "duration": 0.125,
      "velocity": 100
    },
    {
      "time": 31.5,
      "note": 86,
      "duration": 0.5,
      "velocity": 100
    },
    {
      "time": 32.0,
      "note": 84,
      "duration": 0.5,
      "velocity": 100
    },
    {
      "time": 32.5,
      "note": 86,
      "duration": 0.375,
      "velocity": 100
    },
    {
      "time": 32.875,
      "note": 83,
      "duration": 0.125,
      "velocity": 100
    },
    {
      "time": 33.0,
      "note": 83,
      "duration": 0.5,
      "velocity": 100
    },
    {
      "time": 33.5,
      "note": 83,
      "duration": 0.5,
      "velocity": 100
    }
  ],
  "chords": [
    {
      "time": 0.0,
      "notes": [
        71,
        74,
        78
      ],
      "duration": 2.6538461538461537
    },
    {
      "time": 2.6538461538461537,
      "notes": [
        69,
        73,
        76
      ],
      "duration": 2.6538461538461537
    },
    {
      "time": 5.3076923076923075,
      "notes": [
        71,
        74,
        78
      ],
      "duration": 2.6538461538461537
    },
    {
      "time": 7.961538461538462,
      "notes": [
        69,
        73,
        76
      ],
      "duration": 2.6538461538461537
    },
    {
      "time": 10.615384615384615,
      "notes": [
        71,
        74,
        78
      ],
      "duration": 2.6538461538461537
    },
    {
      "time": 13.269230769230768,
      "notes": [
        71,
        74,
        78
      ],
      "duration": 2.6538461538461537
    },
    {
      "time": 15.923076923076923,
      "notes": [
        67,
        71,
        74
      ],
      "duration": 2.6538461538461537
    },
    {
      "time": 18.576923076923077,
      "notes": [
        66,
        69,
        73
      ],
      "duration": 2.6538461538461537
    },
    {
      "time": 21.23076923076923,
      "notes": [
        69,
        73,
        76
      ],
      "duration": 2.6538461538461537
    },
    {
      "time": 23.884615384615383,
      "notes": [
        71,
        74,
        78
      ],
      "duration": 2.6538461538461537
    },
    {
      "time": 26.538461538461537,
      "notes": [
        71,
        74,
        78
      ],
      "duration": 2.6538461538461537
    },
    {
      "time": 29.19230769230769,
      "notes": [
        69,
        73,
        76
      ],
      "duration": 2.6538461538461537
    },
    {
      "time": 31.846153846153847,
      "notes": [
        71,
        74,
        78
      ],
      "duration": 2.6538461538461537
    }
  ]
}