{
  "title": "No me vuelvo a enamorar",
  "artist": "Grupo Enlace",
  "bpm": 120,
  "duration": 35.25,
  "audioFile": "",
  "notes": [
    {
      "time": 0.5,
      "note": 81,
      "duration": 0.125,
      "velocity": 100
    },
    {
      "time": 0.625,
      "note": 83,
      "duration": 0.125,
      "velocity": 100
    },
    {
      "time": 0.0,
      "note": 84,
      "duration": 0.25,
      "velocity": 100
    },
    {
      "time": 0.25,
      "note": 88,
      "duration": 0.125,
      "velocity": 100
    },
    {
      "time": 0.375,
      "note": 91,
      "duration": 0.125,
      "velocity": 100
    },
    {
      "time": 0.5,
      "note": 91,
      "duration": 0.5,
      "velocity": 100
    },
    {
      "time": 1.0,
      "note": 84,
      "duration": 0.25,
      "velocity": 100
    },
    {
      "time": 1.25,
      "note": 88,
      "duration": 0.25,
      "velocity": 100
    },
    {
      "time": 1.5,
      "note": 88,
      "duration": 0.25,
      "velocity": 100
    },
    {
      "time": 1.75,
      "note": 88,
      "duration": 0.125,
      "velocity": 100
    },
    {
      "time": 1.875,
      "note": 88,
      "duration": 0.125,
      "velocity": 100
    },
    {
      "time": 2.0,
      "note": 88,
      "duration": 0.25,
      "velocity": 100
    },
    {
      "time": 2.25,
      "note": 86,
      "duration": 0.25,
      "velocity": 100
    },
    {
      "time": 2.5,
      "note": 86,
      "duration": 0.25,
      "velocity": 100
    },
    {
      "time": 2.75,
      "note": 84,
      "duration": 0.25,
      "velocity": 100
    },
    {
      "time": 3.0,
      "note": 83,
      "duration": 0.5,
      "velocity": 100
    },
    {
      "time": 3.0,
      "note": 79,
      "duration": 0.25,
      "velocity": 100
    },
    {
      "time": 3.25,
      "note": 83,
      "duration": 0.125,
      "velocity": 100
    },
    {
      "time": 3.375,
      "note": 86,
      "duration": 0.125,
      "velocity": 100
    },
    {
      "time": 3.5,
      "note": 86,
      "duration": 0.5,
      "velocity": 100
    },
    {
      "time": 4.5,
      "note": 79,
      "duration": 0.125,
      "velocity": 100
    },
    {
      "time": 4.625,
      "note": 81,
      "duration": 0.125,
      "velocity": 100
    },
    {
      "time": 4.0,
      "note": 84,
      "duration": 0.25,
      "velocity": 100
    },
    {
      "time": 4.25,
      "note": 86,
      "duration": 0.125,
      "velocity": 100
    },
    {
      "time": 4.375,
      "note": 91,
      "duration": 0.125,
      "velocity": 100
    },
    {
      "time": 4.5,
      "note": 91,
      "duration": 0.5,
      "velocity": 100
    },
    {
      "time": 5.0,
      "note": 83,
      "duration": 0.25,
      "velocity": 100
    },
    {
      "time": 5.25,
      "note": 86,
      "duration": 0.25,
      "velocity": 100
    },
    {
      "time": 5.5,
      "note": 86,
      "duration": 0.25,
      "velocity": 100
    },
    {
      "time": 5.75,
      "note": 86,
      "duration": 0.125,
      "velocity": 100
    },
    {
      "time": 5.875,
      "note": 88,
      "duration": 0.125,
      "velocity": 100
    },
    {
      "time": 6.0,
      "note": 88,
      "duration": 0.25,
      "velocity": 100
    },
    {
      "time": 6.25,
      "note": 86,
      "duration": 0.25,
      "velocity": 100
    },
    {
      "time": 6.5,
      "note": 84,
      "duration": 0.25,
      "velocity": 100
    },
    {
      "time": 6.75,
      "note": 83,
      "duration": 0.25,
      "velocity": 100
    },
    {
      "time": 7.0,
      "note": 81,
      "duration": 0.5,
      "velocity": 100
    },
    {
      "time": 7.0,
      "note": 81,
      "duration": 0.25,
      "velocity": 100
    },
    {
      "time": 7.25,
      "note": 84,
      "duration": 0.125,
      "velocity": 100
    },
    {
      "time": 7.375,
      "note": 88,
      "duration": 0.125,
      "velocity": 100
    },
    {
      "time": 7.5,
      "note": 88,
      "duration": 0.5,
      "velocity": 100
    },
    {
      "time": 8.0,
      "note": 81,
      "duration": 0.375,
      "velocity": 100
    },
    {
      "time": 8.375,
      "note": 76,
      "duration": 0.125,
      "velocity": 100
    },
    {
      "time": 8.5,
      "note": 81,
      "duration": 0.25,
      "velocity": 100
    },
    {
      "time": 8.75,
      "note": 79,
      "duration": 0.125,
      "velocity": 100
    },
    {
      "time": 8.875,
      "note": 81,
      "duration": 0.125,
      "velocity": 100
    },
    {
      "time": 9.0,
      "note": 81,
      "duration": 0.375,
      "velocity": 100
    },
    {
      "time": 9.375,
      "note": 76,
      "duration": 0.125,
      "velocity": 100
    },
    {
      "time": 9.5,
      "note": 81,
      "duration": 0.25,
      "velocity": 100
    },
    {
      "time": 9.75,
      "note": 79,
      "duration": 0.125,
      "velocity": 100
    },
    {
      "time": 9.875,
      "note": 81,
      "duration": 0.125,
      "velocity": 100
    },
    {
      "time": 10.0,
      "note": 81,
      "duration": 0.375,
      "velocity": 100
    },
    {
      "time": 10.375,
      "note": 76,
      "duration": 0.125,
      "velocity": 100
    },
    {
      "time": 10.5,
      "note": 81,
      "duration": 0.25,
      "velocity": 100
    },
    {
      "time": 10.75,
      "note": 79,
      "duration": 0.125,
      "velocity": 100
    },
    {
      "time": 10.875,
      "note": 81,
      "duration": 0.125,
      "velocity": 100
    },
    {
      "time": 11.0,
      "note": 81,
      "duration": 0.25,
      "velocity": 100
    },
    {
      "time": 11.25,
      "note": 81,
      "duration": 0.25,
      "velocity": 100
    },
    {
      "time": 11.5,
      "note": 84,
      "duration": 0.25,
      "velocity": 100
    },
    {
      "time": 11.75,
      "note": 88,
      "duration": 0.25,
      "velocity": 100
    },
    {
      "time": 12.0,
      "note": 86,
      "duration": 0.375,
      "velocity": 100
    },
    {
      "time": 12.375,
      "note": 79,
      "duration": 0.125,
      "velocity": 100
    },
    {
      "time": 12.5,
      "note": 83,
      "duration": 0.25,
      "velocity": 100
    },
    {
      "time": 12.75,
      "note": 81,
      "duration": 0.125,
      "velocity": 100
    },
    {
      "time": 12.875,
      "note": 83,
      "duration": 0.125,
      "velocity": 100
    },
    {
      "time": 13.0,
      "note": 83,
      "duration": 0.375,
      "velocity": 100
    },
    {
      "time": 13.375,
      "note": 79,
      "duration": 0.125,
      "velocity": 100
    },
    {
      "time": 13.5,
      "note": 83,
      "duration": 0.25,
      "velocity": 100
    },
    {
      "time": 13.75,
      "note": 81,
      "duration": 0.125,
      "velocity": 100
    },
    {
      "time": 13.875,
      "note": 83,
      "duration": 0.125,
      "velocity": 100
    },
    {
      "time": 14.0,
      "note": 83,
      "duration": 0.375,
      "velocity": 100
    },
    {
      "time": 14.375,
      "note": 86,
      "duration": 0.125,
      "velocity": 100
    },
    {
      "time": 14.5,
      "note": 86,
      "duration": 0.25,
      "velocity": 100
    },
    {
      "time": 14.75,
      "note": 86,
      "duration": 0.125,
      "velocity": 100
    },
    {
      "time": 14.875,
      "note": 88,
      "duration": 0.125,
      "velocity": 100
    },
    {
      "time": 15.0,
      "note": 88,
      "duration": 0.25,
      "velocity": 100
    },
    {
      "time": 15.25,
      "note": 86,
      "duration": 0.25,
      "velocity": 100
    },
    {
      "time": 15.5,
      "note": 84,
      "duration": 0.25,
      "velocity": 100
    },
    {
      "time": 15.75,
      "note": 83,
      "duration": 0.25,
      "velocity": 100
    },
    {
      "time": 16.0,
      "note": 81,
      "duration": 1.0,
      "velocity": 100
    },
    {
      "time": 17.0,
      "note": 81,
      "duration": 0.5,
      "velocity": 100
    },
    {
      "time": 18.75,
      "note": 81,
      "duration": 0.125,
      "velocity": 100
    },
    {
      "time": 18.875,
      "note": 83,
      "duration": 0.125,
      "velocity": 100
    },
    {
      "time": 19.0,
      "note": 84,
      "duration": 0.25,
      "velocity": 100
    },
    {
      "time": 19.25,
      "note": 88,
      "duration": 0.25,
      "velocity": 100
    },
    {
      "time": 19.5,
      "note": 88,
      "duration": 0.25,
      "velocity": 100
    },
    {
      "time": 19.75,
      "note": 88,
      "duration": 0.125,
      "velocity": 100
    },
    {
      "time": 19.875,
      "note": 88,
      "duration": 0.125,
      "velocity": 100
    },
    {
      "time": 20.0,
      "note": 88,
      "duration": 0.25,
      "velocity": 100
    },
    {
      "time": 20.25,
      "note": 86,
      "duration": 0.25,
      "velocity": 100
    },
    {
      "time": 20.5,
      "note": 86,
      "duration": 0.25,
      "velocity": 100
    },
    {
      "time": 20.75,
      "note": 84,
      "duration": 0.25,
      "velocity": 100
    },
    {
      "time": 21.0,
      "note": 83,
      "duration": 1.0,
      "velocity": 100
    },
    {
      "time": 22.75,
      "note": 79,
      "duration": 0.125,
      "velocity": 100
    },
    {
      "time": 22.875,
      "note": 81,
      "duration": 0.125,
      "velocity": 100
    },
    {
      "time": 23.0,
      "note": 83,
      "duration": 0.25,
      "velocity": 100
    },
    {
      "time": 23.25,
      "note": 86,
      "duration": 0.25,
      "velocity": 100
    },
    {
      "time": 23.5,
      "note": 86,
      "duration": 0.25,
      "velocity": 100
    },
    {
      "time": 23.75,
      "note": 86,
      "duration": 0.125,
      "velocity": 100
    },
    {
      "time": 23.875,
      "note": 88,
      "duration": 0.125,
      "velocity": 100
    },
    {
      "time": 24.0,
      "note": 88,
      "duration": 0.25,
      "velocity": 100
    },
    {
      "time": 24.25,
      "note": 86,
      "duration": 0.25,
      "velocity": 100
    },
    {
      "time": 24.5,
      "note": 84,
      "duration": 0.25,
      "velocity": 100
    },
    {
      "time": 24.75,
      "note": 83,
      "duration": 0.25,
      "velocity": 100
    },
    {
      "time": 25.0,
      "note": 81,
      "duration": 1.0,
      "velocity": 100
    },
    {
      "time": 26.25,
      "note": 81,
      "duration": 0.375,
      "velocity": 100
    },
    {
      "time": 26.625,
      "note": 76,
      "duration": 0.125,
      "velocity": 100
    },
    {
      "time": 26.75,
      "note": 81,
      "duration": 0.25,
      "velocity": 100
    },
    {
      "time": 27.0,
      "note": 79,
      "duration": 0.125,
      "velocity": 100
    },
    {
      "time": 27.125,
      "note": 81,
      "duration": 0.125,
      "velocity": 100
    },
    {
      "time": 27.25,
      "note": 81,
      "duration": 0.375,
      "velocity": 100
    },
    {
      "time": 27.625,
      "note": 76,
      "duration": 0.125,
      "velocity": 100
    },
    {
      "time": 27.75,
      "note": 81,
      "duration": 0.25,
      "velocity": 100
    },
    {
      "time": 28.0,
      "note": 79,
      "duration": 0.125,
      "velocity": 100
    },
    {
      "time": 28.125,
      "note": 81,
      "duration": 0.125,
      "velocity": 100
    },
    {
      "time": 28.25,
      "note": 81,
      "duration": 0.375,
      "velocity": 100
    },
    {
      "time": 28.625,
      "note": 76,
      "duration": 0.125,
      "velocity": 100
    },
    {
      "time": 28.75,
      "note": 81,
      "duration": 0.25,
      "velocity": 100
    },
    {
      "time": 29.0,
      "note": 79,
      "duration": 0.125,
      "velocity": 100
    },
    {
      "time": 29.125,
      "note": 81,
      "duration": 0.125,
      "velocity": 100
    },
    {
      "time": 29.25,
      "note": 81,
      "duration": 0.25,
      "velocity": 100
    },
    {
      "time": 29.5,
      "note": 81,
      "duration": 0.25,
      "velocity": 100
    },
    {
      "time": 29.75,
      "note": 84,
      "duration": 0.25,
      "velocity": 100
    },
    {
      "time": 30.0,
      "note": 88,
      "duration": 0.25,
      "velocity": 100
    },
    {
      "time": 30.25,
      "note": 86,
      "duration": 0.375,
      "velocity": 100
    },
    {
      "time": 30.625,
      "note": 79,
      "duration": 0.125,
      "velocity": 100
    },
    {
      "time": 30.75,
      "note": 83,
      "duration": 0.25,
      "velocity": 100
    },
    {
      "time": 31.0,
      "note": 81,
      "duration": 0.125,
      "velocity": 100
    },
    {
      "time": 31.125,
      "note": 83,
      "duration": 0.125,
      "velocity": 100
    },
    {
      "time": 31.25,
      "note": 83,
      "duration": 0.375,
      "velocity": 100
    },
    {
      "time": 31.625,
      "note": 79,
      "duration": 0.125,
      "velocity": 100
    },
    {
      "time": 31.75,
      "note": 83,
      "duration": 0.25,
      "velocity": 100
    },
    {
      "time": 32.0,
      "note": 81,
      "duration": 0.125,
      "velocity": 100
    },
    {
      "time": 32.125,
      "note": 83,
      "duration": 0.125,
      "velocity": 100
    },
    {
      "time": 32.25,
      "note": 83,
      "duration": 0.375,
      "velocity": 100
    },
    {
      "time": 32.625,
      "note": 86,
      "duration": 0.125,
      "velocity": 100
    },
    {
      "time": 32.75,
      "note": 86,
      "duration": 0.25,
      "velocity": 100
    },
    {
      "time": 33.0,
      "note": 86,
      "duration": 0.125,
      "velocity": 100
    },
    {
      "time": 33.125,
      "note": 88,
      "duration": 0.125,
      "velocity": 100
    },
    {
      "time": 33.25,
      "note": 88,
      "duration": 0.25,
      "velocity": 100
    },
    {
      "time": 33.5,
      "note": 86,
      "duration": 0.25,
      "velocity": 100
    },
    {
      "time": 33.75,
      "note": 84,
      "duration": 0.25,
      "velocity": 100
    },
    {
      "time": 34.0,
      "note": 83,
      "duration": 0.25,
      "velocity": 100
    },
    {
      "time": 34.25,
      "note": 81,
      "duration": 1.0,
      "velocity": 100
    }
  ],
  "chords": [
    {
      "time": 0.0,
      "notes": [
        69,
        72,
        76
      ],
      "duration": 3.525
    },
    {
      "time": 3.525,
      "notes": [
        67,
        71,
        74
      ],
      "duration": 3.525
    },
    {
      "time": 7.05,
      "notes": [
        69,
        72,
        76
      ],
      "duration": 3.525
    },
    {
      "time": 10.575,
      "notes": [
        69,
        72,
        76
      ],
      "duration": 3.525
    },
    {
      "time": 14.1,
      "notes": [
        67,
        71,
        74
      ],
      "duration": 3.525
    },
    {
      "time": 17.625,
      "notes": [
        69,
        72,
        76
      ],
      "duration": 3.525
    },
    {
      "time": 21.15,
      "notes": [
        67,
        71,
        74
      ],
      "duration": 3.525
    },
    {
      "time": 24.675,
      "notes": [
        69,
        72,
        76
      ],
      "duration": 3.525
    },
    {
      "time": 28.2,
      "notes": [
        69,
        72,
        76
      ],
      "duration": 3.525
    },
    {
      "time": 31.724999999999998,
      "notes": [
        67,
        71,
        74
      ],
      "duration": 3.525
    }
  ]
}