{
  "title": "Corazon mentiroso",
  "artist": "Karina",
  "bpm": 120,
  "duration": 40.625,
  "audioFile": "",
  "notes": [
    {
      "time": 0.5,
      "note": 82,
      "duration": 0.25,
      "velocity": 100
    },
    {
      "time": 0.75,
      "note": 81,
      "duration": 0.25,
      "velocity": 100
    },
    {
      "time": 1.0,
      "note": 81,
      "duration": 0.5,
      "velocity": 100
    },
    {
      "time": 1.5,
      "note": 77,
      "duration": 0.5,
      "velocity": 100
    },
    {
      "time": 2.0,
      "note": 77,
      "duration": 0.125,
      "velocity": 100
    },
    {
      "time": 2.125,
      "note": 81,
      "duration": 0.25,
      "velocity": 100
    },
    {
      "time": 2.375,
      "note": 77,
      "duration": 0.125,
      "velocity": 100
    },
    {
      "time": 2.5,
      "note": 81,
      "duration": 0.25,
      "velocity": 100
    },
    {
      "time": 2.75,
      "note": 82,
      "duration": 0.25,
      "velocity": 100
    },
    {
      "time": 3.0,
      "note": 81,
      "duration": 0.5,
      "velocity": 100
    },
    {
      "time": 3.5,
      "note": 77,
      "duration": 0.5,
      "velocity": 100
    },
    {
      "time": 4.25,
      "note": 81,
      "duration": 0.25,
      "velocity": 100
    },
    {
      "time": 4.5,
      "note": 81,
      "duration": 0.25,
      "velocity": 100
    },
    {
      "time": 4.75,
      "note": 81,
      "duration": 0.25,
      "velocity": 100
    },
    {
      "time": 5.0,
      "note": 81,
      "duration": 0.25,
      "velocity": 100
    },
    {
      "time": 5.25,
      "note": 79,
      "duration": 0.125,
      "velocity": 100
    },
    {
      "time": 5.375,
      "note": 79,
      "duration": 0.125,
      "velocity": 100
    },
    {
      "time": 5.5,
      "note": 79,
      "duration": 0.5,
      "velocity": 100
    },
    {
      "time": 6.125,
      "note": 79,
      "duration": 0.25,
      "velocity": 100
    },
    {
      "time": 6.375,
      "note": 79,
      "duration": 0.125,
      "velocity": 100
    },
    {
      "time": 6.5,
      "note": 81,
      "duration": 0.25,
      "velocity": 100
    },
    {
      "time": 6.75,
      "note": 82,
      "duration": 0.25,
      "velocity": 100
    },
    {
      "time": 7.0,
      "note": 77,
      "duration": 0.75,
      "velocity": 100
    },
    {
      "time": 7.75,
      "note": 75,
      "duration": 0.25,
      "velocity": 100
    },
    {
      "time": 8.0,
      "note": 75,
      "duration": 1.0,
      "velocity": 100
    },
    {
      "time": 9.375,
      "note": 82,
      "duration": 0.125,
      "velocity": 100
    },
    {
      "time": 9.5,
      "note": 82,
      "duration": 0.25,
      "velocity": 100
    },
    {
      "time": 9.75,
      "note": 86,
      "duration": 0.125,
      "velocity": 100
    },
    {
      "time": 9.875,
      "note": 89,
      "duration": 0.25,
      "velocity": 100
    },
    {
      "time": 10.125,
      "note": 86,
      "duration": 0.125,
      "velocity": 100
    },
    {
      "time": 10.25,
      "note": 81,
      "duration": 0.125,
      "velocity": 100
    },
    {
      "time": 10.375,
      "note": 81,
      "duration": 0.125,
      "velocity": 100
    },
    {
      "time": 10.5,
      "note": 81,
      "duration": 0.25,
      "velocity": 100
    },
    {
      "time": 10.75,
      "note": 81,
      "duration": 0.125,
      "velocity": 100
    },
    {
      "time": 10.875,
      "note": 87,
      "duration": 0.125,
      "velocity": 100
    },
    {
      "time": 11.0,
      "note": 89,
      "duration": 0.125,
      "velocity": 100
    },
    {
      "time": 11.125,
      "note": 87,
      "duration": 0.125,
      "velocity": 100
    },
    {
      "time": 11.25,
      "note": 89,
      "duration": 0.125,
      "velocity": 100
    },
    {
      "time": 11.375,
      "note": 82,
      "duration": 0.125,
      "velocity": 100
    },
    {
      "time": 11.5,
      "note": 82,
      "duration": 0.25,
      "velocity": 100
    },
    {
      "time": 11.75,
      "note": 86,
      "duration": 0.125,
      "velocity": 100
    },
    {
      "time": 11.875,
      "note": 89,
      "duration": 0.25,
      "velocity": 100
    },
    {
      "time": 12.125,
      "note": 86,
      "duration": 0.125,
      "velocity": 100
    },
    {
      "time": 12.25,
      "note": 93,
      "duration": 0.125,
      "velocity": 100
    },
    {
      "time": 12.375,
      "note": 93,
      "duration": 1.0,
      "velocity": 100
    },
    {
      "time": 13.875,
      "note": 77,
      "duration": 0.25,
      "velocity": 100
    },
    {
      "time": 14.125,
      "note": 75,
      "duration": 0.25,
      "velocity": 100
    },
    {
      "time": 14.375,
      "note": 77,
      "duration": 0.5,
      "velocity": 100
    },
    {
      "time": 14.875,
      "note": 69,
      "duration": 0.5,
      "velocity": 100
    },
    {
      "time": 15.375,
      "note": 77,
      "duration": 0.125,
      "velocity": 100
    },
    {
      "time": 15.5,
      "note": 77,
      "duration": 0.125,
      "velocity": 100
    },
    {
      "time": 15.625,
      "note": 77,
      "duration": 0.125,
      "velocity": 100
    },
    {
      "time": 15.75,
      "note": 77,
      "duration": 0.125,
      "velocity": 100
    },
    {
      "time": 15.875,
      "note": 75,
      "duration": 0.25,
      "velocity": 100
    },
    {
      "time": 16.125,
      "note": 74,
      "duration": 0.25,
      "velocity": 100
    },
    {
      "time": 16.375,
      "note": 77,
      "duration": 0.5,
      "velocity": 100
    },
    {
      "time": 16.875,
      "note": 69,
      "duration": 0.5,
      "velocity": 100
    },
    {
      "time": 17.375,
      "note": 77,
      "duration": 0.125,
      "velocity": 100
    },
    {
      "time": 17.5,
      "note": 77,
      "duration": 0.125,
      "velocity": 100
    },
    {
      "time": 17.625,
      "note": 77,
      "duration": 0.125,
      "velocity": 100
    },
    {
      "time": 17.75,
      "note": 77,
      "duration": 0.125,
      "velocity": 100
    },
    {
      "time": 17.875,
      "note": 75,
      "duration": 0.25,
      "velocity": 100
    },
    {
      "time": 18.125,
      "note": 74,
      "duration": 0.25,
      "velocity": 100
    },
    {
      "time": 18.375,
      "note": 79,
      "duration": 0.5,
      "velocity": 100
    },
    {
      "time": 18.875,
      "note": 70,
      "duration": 0.5,
      "velocity": 100
    },
    {
      "time": 19.375,
      "note": 78,
      "duration": 0.125,
      "velocity": 100
    },
    {
      "time": 19.5,
      "note": 78,
      "duration": 0.125,
      "velocity": 100
    },
    {
      "time": 19.625,
      "note": 78,
      "duration": 0.125,
      "velocity": 100
    },
    {
      "time": 19.75,
      "note": 78,
      "duration": 0.125,
      "velocity": 100
    },
    {
      "time": 19.875,
      "note": 81,
      "duration": 0.25,
      "velocity": 100
    },
    {
      "time": 20.125,
      "note": 78,
      "duration": 0.25,
      "velocity": 100
    },
    {
      "time": 20.375,
      "note": 77,
      "duration": 0.25,
      "velocity": 100
    },
    {
      "time": 20.625,
      "note": 75,
      "duration": 0.125,
      "velocity": 100
    },
    {
      "time": 20.75,
      "note": 77,
      "duration": 0.125,
      "velocity": 100
    },
    {
      "time": 20.875,
      "note": 77,
      "duration": 0.5,
      "velocity": 100
    },
    {
      "time": 21.875,
      "note": 77,
      "duration": 0.25,
      "velocity": 100
    },
    {
      "time": 22.125,
      "note": 75,
      "duration": 0.25,
      "velocity": 100
    },
    {
      "time": 22.375,
      "note": 77,
      "duration": 0.25,
      "velocity": 100
    },
    {
      "time": 22.625,
      "note": 75,
      "duration": 0.125,
      "velocity": 100
    },
    {
      "time": 22.75,
      "note": 77,
      "duration": 0.125,
      "velocity": 100
    },
    {
      "time": 22.875,
      "note": 77,
      "duration": 0.5,
      "velocity": 100
    },
    {
      "time": 24.375,
      "note": 82,
      "duration": 0.25,
      "velocity": 100
    },
    {
      "time": 24.625,
      "note": 82,
      "duration": 0.25,
      "velocity": 100
    },
    {
      "time": 24.875,
      "note": 82,
      "duration": 0.5,
      "velocity": 100
    },
    {
      "time": 25.5,
      "note": 82,
      "duration": 0.25,
      "velocity": 100
    },
    {
      "time": 25.75,
      "note": 82,
      "duration": 0.125,
      "velocity": 100
    },
    {
      "time": 25.875,
      "note": 82,
      "duration": 0.25,
      "velocity": 100
    },
    {
      "time": 26.125,
      "note": 77,
      "duration": 0.25,
      "velocity": 100
    },
    {
      "time": 26.375,
      "note": 81,
      "duration": 0.25,
      "velocity": 100
    },
    {
      "time": 26.625,
      "note": 81,
      "duration": 0.25,
      "velocity": 100
    },
    {
      "time": 26.875,
      "note": 81,
      "duration": 0.5,
      "velocity": 100
    },
    {
      "time": 28.375,
      "note": 79,
      "duration": 0.25,
      "velocity": 100
    },
    {
      "time": 28.625,
      "note": 79,
      "duration": 0.25,
      "velocity": 100
    },
    {
      "time": 28.875,
      "note": 79,
      "duration": 0.5,
      "velocity": 100
    },
    {
      "time": 29.5,
      "note": 79,
      "duration": 0.25,
      "velocity": 100
    },
    {
      "time": 29.75,
      "note": 79,
      "duration": 0.125,
      "velocity": 100
    },
    {
      "time": 29.875,
      "note": 81,
      "duration": 0.25,
      "velocity": 100
    },
    {
      "time": 30.125,
      "note": 82,
      "duration": 0.25,
      "velocity": 100
    },
    {
      "time": 30.375,
      "note": 82,
      "duration": 0.25,
      "velocity": 100
    },
    {
      "time": 30.625,
      "note": 81,
      "duration": 0.25,
      "velocity": 100
    },
    {
      "time": 30.875,
      "note": 82,
      "duration": 0.25,
      "velocity": 100
    },
    {
      "time": 31.125,
      "note": 81,
      "duration": 0.25,
      "velocity": 100
    },
    {
      "time": 31.375,
      "note": 82,
      "duration": 0.25,
      "velocity": 100
    },
    {
      "time": 31.625,
      "note": 81,
      "duration": 0.25,
      "velocity": 100
    },
    {
      "time": 31.875,
      "note": 82,
      "duration": 0.25,
      "velocity": 100
    },
    {
      "time": 32.125,
      "note": 81,
      "duration": 0.25,
      "velocity": 100
    },
    {
      "time": 32.375,
      "note": 81,
      "duration": 0.5,
      "velocity": 100
    },
    {
      "time": 32.875,
      "note": 77,
      "duration": 0.5,
      "velocity": 100
    },
    {
      "time": 33.375,
      "note": 77,
      "duration": 0.125,
      "velocity": 100
    },
    {
      "time": 33.5,
      "note": 81,
      "duration": 0.25,
      "velocity": 100
    },
    {
      "time": 33.75,
      "note": 77,
      "duration": 0.125,
      "velocity": 100
    },
    {
      "time": 33.875,
      "note": 81,
      "duration": 0.25,
      "velocity": 100
    },
    {
      "time": 34.125,
      "note": 82,
      "duration": 0.25,
      "velocity": 100
    },
    {
      "time": 34.375,
      "note": 81,
      "duration": 0.375,
      "velocity": 100
    },
    {
      "time": 34.75,
      "note": 77,
      "duration": 0.125,
      "velocity": 100
    },
    {
      "time": 34.875,
      "note": 77,
      "duration": 0.5,
      "velocity": 100
    },
    {
      "time": 35.625,
      "note": 81,
      "duration": 0.25,
      "velocity": 100
    },
    {
      "time": 35.875,
      "note": 81,
      "duration": 0.25,
      "velocity": 100
    },
    {
      "time": 36.125,
      "note": 81,
      "duration": 0.25,
      "velocity": 100
    },
    {
      "time": 36.625,
      "note": 81,
      "duration": 0.25,
      "velocity": 100
    },
    {
      "time": 36.875,
      "note": 79,
      "duration": 0.125,
      "velocity": 100
    },
    {
      "time": 37.0,
      "note": 79,
      "duration": 0.125,
      "velocity": 100
    },
    {
      "time": 37.125,
      "note": 79,
      "duration": 0.5,
      "velocity": 100
    },
    {
      "time": 37.75,
      "note": 79,
      "duration": 0.25,
      "velocity": 100
    },
    {
      "time": 38.0,
      "note": 79,
      "duration": 0.125,
      "velocity": 100
    },
    {
      "time": 38.125,
      "note": 81,
      "duration": 0.25,
      "velocity": 100
    },
    {
      "time": 38.375,
      "note": 82,
      "duration": 0.25,
      "velocity": 100
    },
    {
      "time": 38.625,
      "note": 77,
      "duration": 0.75,
      "velocity": 100
    },
    {
      "time": 39.375,
      "note": 75,
      "duration": 0.25,
      "velocity": 100
    },
    {
      "time": 39.625,
      "note": 75,
      "duration": 0.5,
      "velocity": 100
    },
    {
      "time": 40.125,
      "note": 82,
      "duration": 0.25,
      "velocity": 100
    },
    {
      "time": 40.375,
      "note": 81,
      "duration": 0.25,
      "velocity": 100
    }
  ],
  "chords": [
    {
      "time": 0.0,
      "notes": [
        61,
        65,
        68
      ],
      "duration": 2.03125
    },
    {
      "time": 2.03125,
      "notes": [
        65,
        68,
        72
      ],
      "duration": 2.03125
    },
    {
      "time": 4.0625,
      "notes": [
        66,
        70,
        73
      ],
      "duration": 2.03125
    },
    {
      "time": 6.09375,
      "notes": [
        68,
        72,
        75
      ],
      "duration": 2.03125
    },
    {
      "time": 8.125,
      "notes": [
        70,
        73,
        77
      ],
      "duration": 2.03125
    },
    {
      "time": 10.15625,
      "notes": [
        68,
        72,
        75
      ],
      "duration": 2.03125
    },
    {
      "time": 12.1875,
      "notes": [
        70,
        73,
        77
      ],
      "duration": 2.03125
    },
    {
      "time": 14.21875,
      "notes": [
        61,
        65,
        68
      ],
      "duration": 2.03125
    },
    {
      "time": 16.25,
      "notes": [
        65,
        68,
        72
      ],
      "duration": 2.03125
    },
    {
      "time": 18.28125,
      "notes": [
        66,
        70,
        73
      ],
      "duration": 2.03125
    },
    {
      "time": 20.3125,
      "notes": [
        68,
        72,
        75
      ],
      "duration": 2.03125
    },
    {
      "time": 22.34375,
      "notes": [
        68,
        72,
        75
      ],
      "duration": 2.03125
    },
    {
      "time": 24.375,
      "notes": [
        70,
        73,
        77
      ],
      "duration": 2.03125
    },
    {
      "time": 26.40625,
      "notes": [
        65,
        68,
        72
      ],
      "duration": 2.03125
    },
    {
      "time": 28.4375,
      "notes": [
        66,
        70,
        73
      ],
      "duration": 2.03125
    },
    {
      "time": 30.46875,
      "notes": [
        68,
        72,
        75
      ],
      "duration": 2.03125
    },
    {
      "time": 32.5,
      "notes": [
        61,
        65,
        68
      ],
      "duration": 2.03125
    },
    {
      "time": 34.53125,
      "notes": [
        65,
        68,
        72
      ],
      "duration": 2.03125
    },
    {
      "time": 36.5625,
      "notes": [
        66,
        70,
        73
      ],
      "duration": 2.03125
    },
    {
      "time": 38.59375,
      "notes": [
        68,
        72,
        75
      ],
      "duration": 2.03125
    }
  ]
}