{
  "title": "Chiquilina (Una rafaga de amor)",
  "artist": "Rafaga",
  "bpm": 120,
  "duration": 42.375,
  "audioFile": "",
  "notes": [
    {
      "time": 0.0,
      "note": 88,
      "duration": 0.125,
      "velocity": 100
    },
    {
      "time": 0.125,
      "note": 81,
      "duration": 0.125,
      "velocity": 100
    },
    {
      "time": 0.25,
      "note": 84,
      "duration": 0.125,
      "velocity": 100
    },
    {
      "time": 0.375,
      "note": 88,
      "duration": 0.125,
      "velocity": 100
    },
    {
      "time": 0.5,
      "note": 88,
      "duration": 0.125,
      "velocity": 100
    },
    {
      "time": 0.625,
      "note": 81,
      "duration": 0.125,
      "velocity": 100
    },
    {
      "time": 0.75,
      "note": 84,
      "duration": 0.125,
      "velocity": 100
    },
    {
      "time": 0.875,
      "note": 88,
      "duration": 0.125,
      "velocity": 100
    },
    {
      "time": 1.0,
      "note": 89,
      "duration": 0.25,
      "velocity": 100
    },
    {
      "time": 1.25,
      "note": 89,
      "duration": 0.25,
      "velocity": 100
    },
    {
      "time": 1.5,
      "note": 89,
      "duration": 0.125,
      "velocity": 100
    },
    {
      "time": 1.625,
      "note": 88,
      "duration": 0.125,
      "velocity": 100
    },
    {
      "time": 1.75,
      "note": 86,
      "duration": 0.125,
      "velocity": 100
    },
    {
      "time": 1.875,
      "note": 84,
      "duration": 0.125,
      "velocity": 100
    },
    {
      "time": 2.125,
      "note": 81,
      "duration": 0.125,
      "velocity": 100
    },
    {
      "time": 2.25,
      "note": 84,
      "duration": 0.125,
      "velocity": 100
    },
    {
      "time": 2.375,
      "note": 88,
      "duration": 0.125,
      "velocity": 100
    },
    {
      "time": 2.5,
      "note": 88,
      "duration": 0.125,
      "velocity": 100
    },
    {
      "time": 2.625,
      "note": 81,
      "duration": 0.125,
      "velocity": 100
    },
    {
      "time": 2.75,
      "note": 84,
      "duration": 0.125,
      "velocity": 100
    },
    {
      "time": 2.875,
      "note": 88,
      "duration": 0.125,
      "velocity": 100
    },
    {
      "time": 3.0,
      "note": 89,
      "duration": 0.25,
      "velocity": 100
    },
    {
      "time": 3.25,
      "note": 89,
      "duration": 0.25,
      "velocity": 100
    },
    {
      "time": 3.5,
      "note": 89,
      "duration": 0.125,
      "velocity": 100
    },
    {
      "time": 3.625,
      "note": 88,
      "duration": 0.125,
      "velocity": 100
    },
    {
      "time": 3.75,
      "note": 86,
      "duration": 0.125,
      "velocity": 100
    },
    {
      "time": 3.875,
      "note": 84,
      "duration": 0.125,
      "velocity": 100
    },
    {
      "time": 4.125,
      "note": 81,
      "duration": 0.125,
      "velocity": 100
    },
    {
      "time": 4.25,
      "note": 84,
      "duration": 0.125,
      "velocity": 100
    },
    {
      "time": 4.375,
      "note": 88,
      "duration": 0.125,
      "velocity": 100
    },
    {
      "time": 4.5,
      "note": 88,
      "duration": 0.125,
      "velocity": 100
    },
    {
      "time": 4.625,
      "note": 81,
      "duration": 0.125,
      "velocity": 100
    },
    {
      "time": 4.75,
      "note": 84,
      "duration": 0.125,
      "velocity": 100
    },
    {
      "time": 4.875,
      "note": 88,
      "duration": 0.125,
      "velocity": 100
    },
    {
      "time": 4.5,
      "note": 86,
      "duration": 0.25,
      "velocity": 100
    },
    {
      "time": 4.75,
      "note": 86,
      "duration": 0.25,
      "velocity": 100
    },
    {
      "time": 5.0,
      "note": 86,
      "duration": 0.125,
      "velocity": 100
    },
    {
      "time": 5.125,
      "note": 84,
      "duration": 0.125,
      "velocity": 100
    },
    {
      "time": 5.25,
      "note": 86,
      "duration": 0.125,
      "velocity": 100
    },
    {
      "time": 5.375,
      "note": 88,
      "duration": 0.125,
      "velocity": 100
    },
    {
      "time": 5.875,
      "note": 81,
      "duration": 0.125,
      "velocity": 100
    },
    {
      "time": 6.0,
      "note": 84,
      "duration": 0.125,
      "velocity": 100
    },
    {
      "time": 6.125,
      "note": 88,
      "duration": 0.125,
      "velocity": 100
    },
    {
      "time": 6.25,
      "note": 88,
      "duration": 0.125,
      "velocity": 100
    },
    {
      "time": 6.375,
      "note": 81,
      "duration": 0.125,
      "velocity": 100
    },
    {
      "time": 6.5,
      "note": 84,
      "duration": 0.125,
      "velocity": 100
    },
    {
      "time": 6.625,
      "note": 88,
      "duration": 0.125,
      "velocity": 100
    },
    {
      "time": 6.75,
      "note": 86,
      "duration": 0.25,
      "velocity": 100
    },
    {
      "time": 7.0,
      "note": 86,
      "duration": 0.25,
      "velocity": 100
    },
    {
      "time": 7.25,
      "note": 86,
      "duration": 0.125,
      "velocity": 100
    },
    {
      "time": 7.375,
      "note": 84,
      "duration": 0.125,
      "velocity": 100
    },
    {
      "time": 7.5,
      "note": 83,
      "duration": 0.25,
      "velocity": 100
    },
    {
      "time": 7.75,
      "note": 81,
      "duration": 0.375,
      "velocity": 100
    },
    {
      "time": 8.125,
      "note": 84,
      "duration": 0.125,
      "velocity": 100
    },
    {
      "time": 8.25,
      "note": 84,
      "duration": 0.125,
      "velocity": 100
    },
    {
      "time": 8.375,
      "note": 83,
      "duration": 0.125,
      "velocity": 100
    },
    {
      "time": 8.5,
      "note": 81,
      "duration": 0.25,
      "velocity": 100
    },
    {
      "time": 8.875,
      "note": 76,
      "duration": 0.125,
      "velocity": 100
    },
    {
      "time": 9.0,
      "note": 76,
      "duration": 0.25,
      "velocity": 100
    },
    {
      "time": 9.25,
      "note": 77,
      "duration": 0.25,
      "velocity": 100
    },
    {
      "time": 9.5,
      "note": 79,
      "duration": 0.25,
      "velocity": 100
    },
    {
      "time": 8.875,
      "note": 76,
      "duration": 0.25,
      "velocity": 100
    },
    {
      "time": 9.125,
      "note": 76,
      "duration": 0.25,
      "velocity": 100
    },
    {
      "time": 9.375,
      "note": 77,
      "duration": 0.5,
      "velocity": 100
    },
    {
      "time": 9.375,
      "note": 81,
      "duration": 0.25,
      "velocity": 100
    },
    {
      "time": 9.625,
      "note": 81,
      "duration": 0.25,
      "velocity": 100
    },
    {
      "time": 10.125,
      "note": 88,
      "duration": 0.25,
      "velocity": 100
    },
    {
      "time": 10.375,
      "note": 86,
      "duration": 0.125,
      "velocity": 100
    },
    {
      "time": 10.5,
      "note": 88,
      "duration": 0.125,
      "velocity": 100
    },
    {
      "time": 10.625,
      "note": 88,
      "duration": 0.5,
      "velocity": 100
    },
    {
      "time": 10.125,
      "note": 81,
      "duration": 0.5,
      "velocity": 100
    },
    {
      "time": 11.5,
      "note": 74,
      "duration": 0.5,
      "velocity": 100
    },
    {
      "time": 12.0,
      "note": 77,
      "duration": 0.5,
      "velocity": 100
    },
    {
      "time": 12.0,
      "note": 84,
      "duration": 0.5,
      "velocity": 100
    },
    {
      "time": 12.0,
      "note": 84,
      "duration": 0.25,
      "velocity": 100
    },
    {
      "time": 12.25,
      "note": 83,
      "duration": 0.125,
      "velocity": 100
    },
    {
      "time": 12.375,
      "note": 84,
      "duration": 0.125,
      "velocity": 100
    },
    {
      "time": 12.5,
      "note": 84,
      "duration": 0.25,
      "velocity": 100
    },
    {
      "time": 12.75,
      "note": 83,
      "duration": 0.125,
      "velocity": 100
    },
    {
      "time": 12.875,
      "note": 81,
      "duration": 0.125,
      "velocity": 100
    },
    {
      "time": 13.0,
      "note": 81,
      "duration": 0.5,
      "velocity": 100
    },
    {
      "time": 14.0,
      "note": 81,
      "duration": 0.25,
      "velocity": 100
    },
    {
      "time": 14.25,
      "note": 81,
      "duration": 0.25,
      "velocity": 100
    },
    {
      "time": 14.5,
      "note": 88,
      "duration": 0.25,
      "velocity": 100
    },
    {
      "time": 14.75,
      "note": 86,
      "duration": 0.125,
      "velocity": 100
    },
    {
      "time": 14.875,
      "note": 88,
      "duration": 0.125,
      "velocity": 100
    },
    {
      "time": 15.0,
      "note": 88,
      "duration": 0.5,
      "velocity": 100
    },
    {
      "time": 15.625,
      "note": 84,
      "duration": 0.25,
      "velocity": 100
    },
    {
      "time": 15.875,
      "note": 84,
      "duration": 0.125,
      "velocity": 100
    },
    {
      "time": 16.0,
      "note": 83,
      "duration": 0.25,
      "velocity": 100
    },
    {
      "time": 16.25,
      "note": 84,
      "duration": 0.125,
      "velocity": 100
    },
    {
      "time": 16.375,
      "note": 86,
      "duration": 0.125,
      "velocity": 100
    },
    {
      "time": 16.25,
      "note": 86,
      "duration": 1.0,
      "velocity": 100
    },
    {
      "time": 17.5,
      "note": 86,
      "duration": 0.125,
      "velocity": 100
    },
    {
      "time": 17.625,
      "note": 86,
      "duration": 0.125,
      "velocity": 100
    },
    {
      "time": 17.75,
      "note": 86,
      "duration": 0.25,
      "velocity": 100
    },
    {
      "time": 18.0,
      "note": 88,
      "duration": 0.125,
      "velocity": 100
    },
    {
      "time": 18.125,
      "note": 89,
      "duration": 0.125,
      "velocity": 100
    },
    {
      "time": 18.25,
      "note": 89,
      "duration": 0.125,
      "velocity": 100
    },
    {
      "time": 18.375,
      "note": 89,
      "duration": 0.25,
      "velocity": 100
    },
    {
      "time": 18.625,
      "note": 89,
      "duration": 0.125,
      "velocity": 100
    },
    {
      "time": 18.75,
      "note": 89,
      "duration": 0.125,
      "velocity": 100
    },
    {
      "time": 18.875,
      "note": 89,
      "duration": 0.25,
      "velocity": 100
    },
    {
      "time": 19.125,
      "note": 89,
      "duration": 0.125,
      "velocity": 100
    },
    {
      "time": 19.25,
      "note": 89,
      "duration": 0.125,
      "velocity": 100
    },
    {
      "time": 19.375,
      "note": 89,
      "duration": 0.375,
      "velocity": 100
    },
    {
      "time": 20.0,
      "note": 91,
      "duration": 0.125,
      "velocity": 100
    },
    {
      "time": 20.125,
      "note": 89,
      "duration": 0.125,
      "velocity": 100
    },
    {
      "time": 20.25,
      "note": 88,
      "duration": 0.375,
      "velocity": 100
    },
    {
      "time": 20.625,
      "note": 86,
      "duration": 0.125,
      "velocity": 100
    },
    {
      "time": 20.75,
      "note": 84,
      "duration": 0.125,
      "velocity": 100
    },
    {
      "time": 20.875,
      "note": 86,
      "duration": 0.125,
      "velocity": 100
    },
    {
      "time": 21.0,
      "note": 88,
      "duration": 0.25,
      "velocity": 100
    },
    {
      "time": 21.25,
      "note": 88,
      "duration": 0.125,
      "velocity": 100
    },
    {
      "time": 21.375,
      "note": 88,
      "duration": 0.375,
      "velocity": 100
    },
    {
      "time": 22.0,
      "note": 81,
      "duration": 0.125,
      "velocity": 100
    },
    {
      "time": 22.125,
      "note": 83,
      "duration": 0.125,
      "velocity": 100
    },
    {
      "time": 22.25,
      "note": 84,
      "duration": 0.5,
      "velocity": 100
    },
    {
      "time": 22.75,
      "note": 84,
      "duration": 0.375,
      "velocity": 100
    },
    {
      "time": 23.125,
      "note": 84,
      "duration": 0.125,
      "velocity": 100
    },
    {
      "time": 23.25,
      "note": 84,
      "duration": 0.25,
      "velocity": 100
    },
    {
      "time": 23.5,
      "note": 84,
      "duration": 0.25,
      "velocity": 100
    },
    {
      "time": 23.75,
      "note": 86,
      "duration": 0.25,
      "velocity": 100
    },
    {
      "time": 24.0,
      "note": 84,
      "duration": 0.25,
      "velocity": 100
    },
    {
      "time": 24.25,
      "note": 88,
      "duration": 0.375,
      "velocity": 100
    },
    {
      "time": 24.625,
      "note": 86,
      "duration": 0.125,
      "velocity": 100
    },
    {
      "time": 24.75,
      "note": 83,
      "duration": 0.5,
      "velocity": 100
    },
    {
      "time": 24.75,
      "note": 81,
      "duration": 0.25,
      "velocity": 100
    },
    {
      "time": 25.0,
      "note": 81,
      "duration": 0.25,
      "velocity": 100
    },
    {
      "time": 25.25,
      "note": 89,
      "duration": 1.0,
      "velocity": 100
    },
    {
      "time": 25.25,
      "note": 88,
      "duration": 0.5,
      "velocity": 100
    },
    {
      "time": 25.75,
      "note": 86,
      "duration": 0.5,
      "velocity": 100
    },
    {
      "time": 26.625,
      "note": 88,
      "duration": 0.25,
      "velocity": 100
    },
    {
      "time": 26.875,
      "note": 84,
      "duration": 0.25,
      "velocity": 100
    },
    {
      "time": 27.125,
      "note": 88,
      "duration": 0.25,
      "velocity": 100
    },
    {
      "time": 27.375,
      "note": 93,
      "duration": 0.25,
      "velocity": 100
    },
    {
      "time": 26.625,
      "note": 86,
      "duration": 0.25,
      "velocity": 100
    },
    {
      "time": 26.875,
      "note": 84,
      "duration": 0.25,
      "velocity": 100
    },
    {
      "time": 27.125,
      "note": 84,
      "duration": 0.5,
      "velocity": 100
    },
    {
      "time": 26.875,
      "note": 91,
      "duration": 0.125,
      "velocity": 100
    },
    {
      "time": 27.0,
      "note": 91,
      "duration": 0.25,
      "velocity": 100
    },
    {
      "time": 27.25,
      "note": 89,
      "duration": 0.125,
      "velocity": 100
    },
    {
      "time": 27.375,
      "note": 89,
      "duration": 0.125,
      "velocity": 100
    },
    {
      "time": 27.5,
      "note": 89,
      "duration": 0.125,
      "velocity": 100
    },
    {
      "time": 27.625,
      "note": 86,
      "duration": 0.25,
      "velocity": 100
    },
    {
      "time": 28.0,
      "note": 79,
      "duration": 0.125,
      "velocity": 100
    },
    {
      "time": 28.125,
      "note": 83,
      "duration": 0.125,
      "velocity": 100
    },
    {
      "time": 28.25,
      "note": 86,
      "duration": 0.125,
      "velocity": 100
    },
    {
      "time": 28.375,
      "note": 89,
      "duration": 0.125,
      "velocity": 100
    },
    {
      "time": 28.5,
      "note": 89,
      "duration": 0.125,
      "velocity": 100
    },
    {
      "time": 28.625,
      "note": 86,
      "duration": 0.125,
      "velocity": 100
    },
    {
      "time": 28.75,
      "note": 89,
      "duration": 0.125,
      "velocity": 100
    },
    {
      "time": 28.875,
      "note": 88,
      "duration": 0.125,
      "velocity": 100
    },
    {
      "time": 29.0,
      "note": 88,
      "duration": 0.25,
      "velocity": 100
    },
    {
      "time": 29.25,
      "note": 86,
      "duration": 0.125,
      "velocity": 100
    },
    {
      "time": 29.375,
      "note": 86,
      "duration": 0.125,
      "velocity": 100
    },
    {
      "time": 29.5,
      "note": 86,
      "duration": 0.125,
      "velocity": 100
    },
    {
      "time": 29.625,
      "note": 84,
      "duration": 0.25,
      "velocity": 100
    },
    {
      "time": 28.875,
      "note": 88,
      "duration": 0.25,
      "velocity": 100
    },
    {
      "time": 29.125,
      "note": 84,
      "duration": 0.25,
      "velocity": 100
    },
    {
      "time": 29.375,
      "note": 88,
      "duration": 0.25,
      "velocity": 100
    },
    {
      "time": 29.625,
      "note": 93,
      "duration": 0.25,
      "velocity": 100
    },
    {
      "time": 29.875,
      "note": 91,
      "duration": 0.125,
      "velocity": 100
    },
    {
      "time": 30.0,
      "note": 91,
      "duration": 0.25,
      "velocity": 100
    },
    {
      "time": 30.25,
      "note": 89,
      "duration": 0.125,
      "velocity": 100
    },
    {
      "time": 30.375,
      "note": 89,
      "duration": 0.125,
      "velocity": 100
    },
    {
      "time": 30.5,
      "note": 89,
      "duration": 0.125,
      "velocity": 100
    },
    {
      "time": 30.625,
      "note": 86,
      "duration": 0.25,
      "velocity": 100
    },
    {
      "time": 31.041666666666668,
      "note": 98,
      "duration": 0.16666666666666666,
      "velocity": 100
    },
    {
      "time": 31.208333333333332,
      "note": 96,
      "duration": 0.16666666666666666,
      "velocity": 100
    },
    {
      "time": 31.375,
      "note": 95,
      "duration": 0.125,
      "velocity": 100
    },
    {
      "time": 31.5,
      "note": 93,
      "duration": 0.25,
      "velocity": 100
    },
    {
      "time": 31.75,
      "note": 89,
      "duration": 0.125,
      "velocity": 100
    },
    {
      "time": 31.875,
      "note": 88,
      "duration": 0.25,
      "velocity": 100
    },
    {
      "time": 32.125,
      "note": 89,
      "duration": 0.125,
      "velocity": 100
    },
    {
      "time": 32.25,
      "note": 88,
      "duration": 0.125,
      "velocity": 100
    },
    {
      "time": 32.375,
      "note": 86,
      "duration": 0.25,
      "velocity": 100
    },
    {
      "time": 32.625,
      "note": 86,
      "duration": 0.125,
      "velocity": 100
    },
    {
      "time": 32.75,
      "note": 95,
      "duration": 0.125,
      "velocity": 100
    },
    {
      "time": 32.875,
      "note": 95,
      "duration": 1.0,
      "velocity": 100
    },
    {
      "time": 33.875,
      "note": 88,
      "duration": 0.5,
      "velocity": 100
    },
    {
      "time": 34.375,
      "note": 88,
      "duration": 0.5,
      "velocity": 100
    },
    {
      "time": 34.125,
      "note": 88,
      "duration": 0.375,
      "velocity": 100
    },
    {
      "time": 34.5,
      "note": 88,
      "duration": 0.125,
      "velocity": 100
    },
    {
      "time": 34.625,
      "note": 88,
      "duration": 0.125,
      "velocity": 100
    },
    {
      "time": 34.75,
      "note": 88,
      "duration": 0.375,
      "velocity": 100
    },
    {
      "time": 35.125,
      "note": 88,
      "duration": 0.25,
      "velocity": 100
    },
    {
      "time": 35.375,
      "note": 88,
      "duration": 0.25,
      "velocity": 100
    },
    {
      "time": 35.625,
      "note": 88,
      "duration": 0.25,
      "velocity": 100
    },
    {
      "time": 35.875,
      "note": 84,
      "duration": 0.25,
      "velocity": 100
    },
    {
      "time": 36.125,
      "note": 89,
      "duration": 1.0,
      "velocity": 100
    },
    {
      "time": 37.75,
      "note": 74,
      "duration": 0.5,
      "velocity": 100
    },
    {
      "time": 38.25,
      "note": 77,
      "duration": 0.5,
      "velocity": 100
    },
    {
      "time": 38.25,
      "note": 84,
      "duration": 0.5,
      "velocity": 100
    },
    {
      "time": 37.125,
      "note": 83,
      "duration": 0.125,
      "velocity": 100
    },
    {
      "time": 37.25,
      "note": 81,
      "duration": 0.25,
      "velocity": 100
    },
    {
      "time": 37.5,
      "note": 88,
      "duration": 0.125,
      "velocity": 100
    },
    {
      "time": 37.625,
      "note": 88,
      "duration": 0.125,
      "velocity": 100
    },
    {
      "time": 37.75,
      "note": 88,
      "duration": 0.25,
      "velocity": 100
    },
    {
      "time": 38.0,
      "note": 88,
      "duration": 0.125,
      "velocity": 100
    },
    {
      "time": 38.125,
      "note": 88,
      "duration": 0.125,
      "velocity": 100
    },
    {
      "time": 38.25,
      "note": 88,
      "duration": 0.25,
      "velocity": 100
    },
    {
      "time": 38.5,
      "note": 88,
      "duration": 0.125,
      "velocity": 100
    },
    {
      "time": 38.625,
      "note": 88,
      "duration": 0.125,
      "velocity": 100
    },
    {
      "time": 38.75,
      "note": 84,
      "duration": 0.25,
      "velocity": 100
    },
    {
      "time": 39.0,
      "note": 86,
      "duration": 0.125,
      "velocity": 100
    },
    {
      "time": 39.125,
      "note": 86,
      "duration": 0.5,
      "velocity": 100
    },
    {
      "time": 39.875,
      "note": 79,
      "duration": 0.5,
      "velocity": 100
    },
    {
      "time": 40.375,
      "note": 89,
      "duration": 0.5,
      "velocity": 100
    },
    {
      "time": 40.375,
      "note": 88,
      "duration": 0.375,
      "velocity": 100
    },
    {
      "time": 40.75,
      "note": 83,
      "duration": 0.125,
      "velocity": 100
    },
    {
      "time": 40.875,
      "note": 84,
      "duration": 0.125,
      "velocity": 100
    },
    {
      "time": 41.0,
      "note": 83,
      "duration": 0.25,
      "velocity": 100
    },
    {
      "time": 41.25,
      "note": 81,
      "duration": 0.125,
      "velocity": 100
    },
    {
      "time": 41.375,
      "note": 81,
      "duration": 1.0,
      "velocity": 100
    }
  ],
  "chords": [
    {
      "time": 0.0,
      "notes": [
        69,
        72,
        76
      ],
      "duration": 1.4612068965517242
    },
    {
      "time": 1.4612068965517242,
      "notes": [
        62,
        65,
        69
      ],
      "duration": 1.4612068965517242
    },
    {
      "time": 2.9224137931034484,
      "notes": [
        69,
        72,
        76
      ],
      "duration": 1.4612068965517242
    },
    {
      "time": 4.383620689655173,
      "notes": [
        62,
        65,
        69
      ],
      "duration": 1.4612068965517242
    },
    {
      "time": 5.844827586206897,
      "notes": [
        69,
        72,
        76,
        79
      ],
      "duration": 1.4612068965517242
    },
    {
      "time": 7.306034482758621,
      "notes": [
        67,
        71,
        74
      ],
      "duration": 1.4612068965517242
    },
    {
      "time": 8.767241379310345,
      "notes": [
        69,
        72,
        76
      ],
      "duration": 1.4612068965517242
    },
    {
      "time": 10.22844827586207,
      "notes": [
        67,
        71,
        74
      ],
      "duration": 1.4612068965517242
    },
    {
      "time": 11.689655172413794,
      "notes": [
        69,
        72,
        76
      ],
      "duration": 1.4612068965517242
    },
    {
      "time": 13.150862068965518,
      "notes": [
        64,
        68,
        71,
        74
      ],
      "duration": 1.4612068965517242
    },
    {
      "time": 14.612068965517242,
      "notes": [
        64,
        68,
        71,
        74
      ],
      "duration": 1.4612068965517242
    },
    {
      "time": 16.073275862068968,
      "notes": [
        69,
        72,
        76
      ],
      "duration": 1.4612068965517242
    },
    {
      "time": 17.53448275862069,
      "notes": [
        69,
        73,
        76,
        79
      ],
      "duration": 1.4612068965517242
    },
    {
      "time": 18.995689655172413,
      "notes": [
        62,
        65,
        69
      ],
      "duration": 1.4612068965517242
    },
    {
      "time": 20.45689655172414,
      "notes": [
        67,
        71,
        74,
        77
      ],
      "duration": 1.4612068965517242
    },
    {
      "time": 21.918103448275865,
      "notes": [
        60,
        64,
        67
      ],
      "duration": 1.4612068965517242
    },
    {
      "time": 23.379310344827587,
      "notes": [
        65,
        69,
        72
      ],
      "duration": 1.4612068965517242
    },
    {
      "time": 24.84051724137931,
      "notes": [
        62,
        65,
        69
      ],
      "duration": 1.4612068965517242
    },
    {
      "time": 26.301724137931036,
      "notes": [
        64,
        68,
        71,
        74
      ],
      "duration": 1.4612068965517242
    },
    {
      "time": 27.76293103448276,
      "notes": [
        67,
        71,
        74,
        77
      ],
      "duration": 1.4612068965517242
    },
    {
      "time": 29.224137931034484,
      "notes": [
        69,
        72,
        76
      ],
      "duration": 1.4612068965517242
    },
    {
      "time": 30.685344827586206,
      "notes": [
        67,
        71,
        74,
        77
      ],
      "duration": 1.4612068965517242
    },
    {
      "time": 32.146551724137936,
      "notes": [
        62,
        65,
        69
      ],
      "duration": 1.4612068965517242
    },
    {
      "time": 33.60775862068966,
      "notes": [
        69,
        72,
        76
      ],
      "duration": 1.4612068965517242
    },
    {
      "time": 35.06896551724138,
      "notes": [
        62,
        65,
        69
      ],
      "duration": 1.4612068965517242
    },
    {
      "time": 36.5301724137931,
      "notes": [
        64,
        68,
        71,
        74
      ],
      "duration": 1.4612068965517242
    },
    {
      "time": 37.991379310344826,
      "notes": [
        69,
        72,
        76
      ],
      "duration": 1.4612068965517242
    },
    {
      "time": 39.452586206896555,
      "notes": [
        62,
        65,
        69
      ],
      "duration": 1.4612068965517242
    },
    {
      "time": 40.91379310344828,
      "notes": [
        64,
        68,
        71,
        74
      ],
      "duration": 1.4612068965517242
    }
  ]
}