{
  "title": "Como me voy a olvidar",
  "artist": "Los Autenticos Decadentes",
  "bpm": 120,
  "duration": 75.875,
  "audioFile": "",
  "notes": [
    {
      "time": 0.25,
      "note": 79,
      "duration": 0.125,
      "velocity": 100
    },
    {
      "time": 0.375,
      "note": 79,
      "duration": 0.125,
      "velocity": 100
    },
    {
      "time": 0.5,
      "note": 79,
      "duration": 0.25,
      "velocity": 100
    },
    {
      "time": 0.75,
      "note": 82,
      "duration": 0.25,
      "velocity": 100
    },
    {
      "time": 1.0,
      "note": 86,
      "duration": 0.5,
      "velocity": 100
    },
    {
      "time": 2.25,
      "note": 79,
      "duration": 0.125,
      "velocity": 100
    },
    {
      "time": 2.375,
      "note": 79,
      "duration": 0.125,
      "velocity": 100
    },
    {
      "time": 2.5,
      "note": 79,
      "duration": 0.25,
      "velocity": 100
    },
    {
      "time": 2.75,
      "note": 82,
      "duration": 0.25,
      "velocity": 100
    },
    {
      "time": 1.25,
      "note": 70,
      "duration": 0.125,
      "velocity": 100
    },
    {
      "time": 1.375,
      "note": 70,
      "duration": 0.125,
      "velocity": 100
    },
    {
      "time": 1.5,
      "note": 70,
      "duration": 0.25,
      "velocity": 100
    },
    {
      "time": 1.75,
      "note": 72,
      "duration": 0.25,
      "velocity": 100
    },
    {
      "time": 2.0,
      "note": 86,
      "duration": 0.5,
      "velocity": 100
    },
    {
      "time": 3.25,
      "note": 79,
      "duration": 0.125,
      "velocity": 100
    },
    {
      "time": 3.375,
      "note": 79,
      "duration": 0.125,
      "velocity": 100
    },
    {
      "time": 3.5,
      "note": 79,
      "duration": 0.25,
      "velocity": 100
    },
    {
      "time": 3.75,
      "note": 82,
      "duration": 0.25,
      "velocity": 100
    },
    {
      "time": 2.25,
      "note": 70,
      "duration": 0.125,
      "velocity": 100
    },
    {
      "time": 2.375,
      "note": 70,
      "duration": 0.125,
      "velocity": 100
    },
    {
      "time": 2.5,
      "note": 70,
      "duration": 0.25,
      "velocity": 100
    },
    {
      "time": 2.75,
      "note": 72,
      "duration": 0.25,
      "velocity": 100
    },
    {
      "time": 3.0,
      "note": 86,
      "duration": 0.25,
      "velocity": 100
    },
    {
      "time": 3.25,
      "note": 79,
      "duration": 0.125,
      "velocity": 100
    },
    {
      "time": 3.375,
      "note": 79,
      "duration": 0.125,
      "velocity": 100
    },
    {
      "time": 3.5,
      "note": 79,
      "duration": 0.25,
      "velocity": 100
    },
    {
      "time": 3.75,
      "note": 82,
      "duration": 0.25,
      "velocity": 100
    },
    {
      "time": 4.0,
      "note": 86,
      "duration": 0.5,
      "velocity": 100
    },
    {
      "time": 4.75,
      "note": 79,
      "duration": 0.5,
      "velocity": 100
    },
    {
      "time": 5.25,
      "note": 87,
      "duration": 0.5,
      "velocity": 100
    },
    {
      "time": 5.25,
      "note": 86,
      "duration": 0.5,
      "velocity": 100
    },
    {
      "time": 5.75,
      "note": 81,
      "duration": 0.5,
      "velocity": 100
    },
    {
      "time": 6.25,
      "note": 81,
      "duration": 0.25,
      "velocity": 100
    },
    {
      "time": 6.5,
      "note": 81,
      "duration": 0.125,
      "velocity": 100
    },
    {
      "time": 6.625,
      "note": 81,
      "duration": 0.125,
      "velocity": 100
    },
    {
      "time": 6.75,
      "note": 81,
      "duration": 0.25,
      "velocity": 100
    },
    {
      "time": 7.0,
      "note": 82,
      "duration": 0.25,
      "velocity": 100
    },
    {
      "time": 7.25,
      "note": 84,
      "duration": 1.0,
      "velocity": 100
    },
    {
      "time": 8.25,
      "note": 84,
      "duration": 0.5,
      "velocity": 100
    },
    {
      "time": 8.5,
      "note": 69,
      "duration": 0.125,
      "velocity": 100
    },
    {
      "time": 8.625,
      "note": 69,
      "duration": 0.125,
      "velocity": 100
    },
    {
      "time": 8.75,
      "note": 69,
      "duration": 0.25,
      "velocity": 100
    },
    {
      "time": 9.0,
      "note": 70,
      "duration": 0.25,
      "velocity": 100
    },
    {
      "time": 7.25,
      "note": 84,
      "duration": 0.5,
      "velocity": 100
    },
    {
      "time": 8.5,
      "note": 81,
      "duration": 0.125,
      "velocity": 100
    },
    {
      "time": 8.625,
      "note": 81,
      "duration": 0.125,
      "velocity": 100
    },
    {
      "time": 8.75,
      "note": 81,
      "duration": 0.25,
      "velocity": 100
    },
    {
      "time": 9.0,
      "note": 82,
      "duration": 0.25,
      "velocity": 100
    },
    {
      "time": 7.5,
      "note": 69,
      "duration": 0.125,
      "velocity": 100
    },
    {
      "time": 7.625,
      "note": 69,
      "duration": 0.125,
      "velocity": 100
    },
    {
      "time": 7.75,
      "note": 69,
      "duration": 0.25,
      "velocity": 100
    },
    {
      "time": 8.0,
      "note": 70,
      "duration": 0.25,
      "velocity": 100
    },
    {
      "time": 8.25,
      "note": 84,
      "duration": 0.25,
      "velocity": 100
    },
    {
      "time": 8.5,
      "note": 81,
      "duration": 0.125,
      "velocity": 100
    },
    {
      "time": 8.625,
      "note": 81,
      "duration": 0.125,
      "velocity": 100
    },
    {
      "time": 8.75,
      "note": 81,
      "duration": 0.25,
      "velocity": 100
    },
    {
      "time": 9.0,
      "note": 82,
      "duration": 0.25,
      "velocity": 100
    },
    {
      "time": 9.25,
      "note": 84,
      "duration": 0.5,
      "velocity": 100
    },
    {
      "time": 10.0,
      "note": 74,
      "duration": 0.5,
      "velocity": 100
    },
    {
      "time": 10.5,
      "note": 82,
      "duration": 0.5,
      "velocity": 100
    },
    {
      "time": 10.5,
      "note": 81,
      "duration": 0.5,
      "velocity": 100
    },
    {
      "time": 11.0,
      "note": 79,
      "duration": 1.0,
      "velocity": 100
    },
    {
      "time": 12.75,
      "note": 84,
      "duration": 1.0,
      "velocity": 100
    },
    {
      "time": 13.75,
      "note": 85,
      "duration": 0.5,
      "velocity": 100
    },
    {
      "time": 14.25,
      "note": 82,
      "duration": 0.25,
      "velocity": 100
    },
    {
      "time": 14.5,
      "note": 84,
      "duration": 0.25,
      "velocity": 100
    },
    {
      "time": 12.5,
      "note": 86,
      "duration": 1.0,
      "velocity": 100
    },
    {
      "time": 13.75,
      "note": 82,
      "duration": 0.25,
      "velocity": 100
    },
    {
      "time": 14.0,
      "note": 82,
      "duration": 0.25,
      "velocity": 100
    },
    {
      "time": 14.25,
      "note": 84,
      "duration": 0.25,
      "velocity": 100
    },
    {
      "time": 12.75,
      "note": 76,
      "duration": 0.5,
      "velocity": 100
    },
    {
      "time": 13.25,
      "note": 77,
      "duration": 0.25,
      "velocity": 100
    },
    {
      "time": 13.5,
      "note": 76,
      "duration": 0.25,
      "velocity": 100
    },
    {
      "time": 13.5,
      "note": 75,
      "duration": 0.25,
      "velocity": 100
    },
    {
      "time": 13.75,
      "note": 74,
      "duration": 0.25,
      "velocity": 100
    },
    {
      "time": 14.0,
      "note": 70,
      "duration": 0.25,
      "velocity": 100
    },
    {
      "time": 14.25,
      "note": 69,
      "duration": 0.25,
      "velocity": 100
    },
    {
      "time": 14.5,
      "note": 86,
      "duration": 0.25,
      "velocity": 100
    },
    {
      "time": 14.75,
      "note": 86,
      "duration": 0.25,
      "velocity": 100
    },
    {
      "time": 15.0,
      "note": 86,
      "duration": 0.5,
      "velocity": 100
    },
    {
      "time": 15.5,
      "note": 86,
      "duration": 0.25,
      "velocity": 100
    },
    {
      "time": 15.75,
      "note": 86,
      "duration": 0.25,
      "velocity": 100
    },
    {
      "time": 16.0,
      "note": 89,
      "duration": 0.25,
      "velocity": 100
    },
    {
      "time": 16.25,
      "note": 88,
      "duration": 0.25,
      "velocity": 100
    },
    {
      "time": 14.5,
      "note": 67,
      "duration": 0.5,
      "velocity": 100
    },
    {
      "time": 15.0,
      "note": 67,
      "duration": 0.25,
      "velocity": 100
    },
    {
      "time": 15.25,
      "note": 69,
      "duration": 0.25,
      "velocity": 100
    },
    {
      "time": 15.5,
      "note": 70,
      "duration": 0.5,
      "velocity": 100
    },
    {
      "time": 16.5,
      "note": 86,
      "duration": 0.25,
      "velocity": 100
    },
    {
      "time": 16.75,
      "note": 84,
      "duration": 0.25,
      "velocity": 100
    },
    {
      "time": 17.0,
      "note": 84,
      "duration": 1.0,
      "velocity": 100
    },
    {
      "time": 18.5,
      "note": 84,
      "duration": 0.5,
      "velocity": 100
    },
    {
      "time": 19.0,
      "note": 86,
      "duration": 0.25,
      "velocity": 100
    },
    {
      "time": 19.25,
      "note": 84,
      "duration": 0.25,
      "velocity": 100
    },
    {
      "time": 19.5,
      "note": 82,
      "duration": 0.5,
      "velocity": 100
    },
    {
      "time": 20.0,
      "note": 81,
      "duration": 0.25,
      "velocity": 100
    },
    {
      "time": 20.25,
      "note": 79,
      "duration": 0.25,
      "velocity": 100
    },
    {
      "time": 20.5,
      "note": 77,
      "duration": 1.0,
      "velocity": 100
    },
    {
      "time": 21.75,
      "note": 77,
      "duration": 0.25,
      "velocity": 100
    },
    {
      "time": 22.0,
      "note": 77,
      "duration": 0.25,
      "velocity": 100
    },
    {
      "time": 22.25,
      "note": 81,
      "duration": 0.25,
      "velocity": 100
    },
    {
      "time": 22.5,
      "note": 84,
      "duration": 1.0,
      "velocity": 100
    },
    {
      "time": 23.5,
      "note": 85,
      "duration": 0.25,
      "velocity": 100
    },
    {
      "time": 23.75,
      "note": 85,
      "duration": 0.25,
      "velocity": 100
    },
    {
      "time": 24.0,
      "note": 85,
      "duration": 0.25,
      "velocity": 100
    },
    {
      "time": 24.25,
      "note": 85,
      "duration": 0.25,
      "velocity": 100
    },
    {
      "time": 22.5,
      "note": 76,
      "duration": 0.5,
      "velocity": 100
    },
    {
      "time": 23.0,
      "note": 85,
      "duration": 0.5,
      "velocity": 100
    },
    {
      "time": 23.0,
      "note": 82,
      "duration": 0.75,
      "velocity": 100
    },
    {
      "time": 24.75,
      "note": 86,
      "duration": 0.25,
      "velocity": 100
    },
    {
      "time": 25.0,
      "note": 89,
      "duration": 0.125,
      "velocity": 100
    },
    {
      "time": 25.125,
      "note": 89,
      "duration": 0.25,
      "velocity": 100
    },
    {
      "time": 25.375,
      "note": 88,
      "duration": 0.25,
      "velocity": 100
    },
    {
      "time": 25.625,
      "note": 86,
      "duration": 0.25,
      "velocity": 100
    },
    {
      "time": 25.875,
      "note": 82,
      "duration": 0.125,
      "velocity": 100
    },
    {
      "time": 26.0,
      "note": 82,
      "duration": 0.25,
      "velocity": 100
    },
    {
      "time": 26.25,
      "note": 81,
      "duration": 0.25,
      "velocity": 100
    },
    {
      "time": 26.5,
      "note": 79,
      "duration": 1.0,
      "velocity": 100
    },
    {
      "time": 27.75,
      "note": 79,
      "duration": 0.25,
      "velocity": 100
    },
    {
      "time": 28.0,
      "note": 79,
      "duration": 0.25,
      "velocity": 100
    },
    {
      "time": 28.25,
      "note": 82,
      "duration": 0.25,
      "velocity": 100
    },
    {
      "time": 28.5,
      "note": 86,
      "duration": 0.25,
      "velocity": 100
    },
    {
      "time": 28.75,
      "note": 86,
      "duration": 0.125,
      "velocity": 100
    },
    {
      "time": 28.875,
      "note": 86,
      "duration": 0.25,
      "velocity": 100
    },
    {
      "time": 29.125,
      "note": 86,
      "duration": 0.25,
      "velocity": 100
    },
    {
      "time": 29.375,
      "note": 86,
      "duration": 0.5,
      "velocity": 100
    },
    {
      "time": 29.875,
      "note": 88,
      "duration": 0.25,
      "velocity": 100
    },
    {
      "time": 30.125,
      "note": 86,
      "duration": 0.25,
      "velocity": 100
    },
    {
      "time": 30.375,
      "note": 76,
      "duration": 0.5,
      "velocity": 100
    },
    {
      "time": 30.875,
      "note": 86,
      "duration": 0.5,
      "velocity": 100
    },
    {
      "time": 30.875,
      "note": 84,
      "duration": 0.75,
      "velocity": 100
    },
    {
      "time": 32.625,
      "note": 84,
      "duration": 1.0,
      "velocity": 100
    },
    {
      "time": 33.625,
      "note": 85,
      "duration": 0.375,
      "velocity": 100
    },
    {
      "time": 34.0,
      "note": 85,
      "duration": 0.125,
      "velocity": 100
    },
    {
      "time": 34.125,
      "note": 85,
      "duration": 0.25,
      "velocity": 100
    },
    {
      "time": 34.375,
      "note": 85,
      "duration": 0.25,
      "velocity": 100
    },
    {
      "time": 32.625,
      "note": 81,
      "duration": 1.0,
      "velocity": 100
    },
    {
      "time": 33.625,
      "note": 81,
      "duration": 0.25,
      "velocity": 100
    },
    {
      "time": 33.875,
      "note": 77,
      "duration": 0.25,
      "velocity": 100
    },
    {
      "time": 34.125,
      "note": 77,
      "duration": 0.25,
      "velocity": 100
    },
    {
      "time": 34.375,
      "note": 81,
      "duration": 0.25,
      "velocity": 100
    },
    {
      "time": 34.625,
      "note": 86,
      "duration": 0.375,
      "velocity": 100
    },
    {
      "time": 35.0,
      "note": 86,
      "duration": 0.125,
      "velocity": 100
    },
    {
      "time": 35.125,
      "note": 86,
      "duration": 0.25,
      "velocity": 100
    },
    {
      "time": 35.375,
      "note": 86,
      "duration": 0.25,
      "velocity": 100
    },
    {
      "time": 35.625,
      "note": 84,
      "duration": 0.5,
      "velocity": 100
    },
    {
      "time": 36.125,
      "note": 82,
      "duration": 0.25,
      "velocity": 100
    },
    {
      "time": 36.375,
      "note": 81,
      "duration": 0.25,
      "velocity": 100
    },
    {
      "time": 36.625,
      "note": 81,
      "duration": 0.25,
      "velocity": 100
    },
    {
      "time": 36.875,
      "note": 79,
      "duration": 0.75,
      "velocity": 100
    },
    {
      "time": 37.875,
      "note": 86,
      "duration": 0.25,
      "velocity": 100
    },
    {
      "time": 38.125,
      "note": 88,
      "duration": 0.25,
      "velocity": 100
    },
    {
      "time": 38.375,
      "note": 86,
      "duration": 0.25,
      "velocity": 100
    },
    {
      "time": 38.625,
      "note": 84,
      "duration": 1.0,
      "velocity": 100
    },
    {
      "time": 39.625,
      "note": 84,
      "duration": 1.0,
      "velocity": 100
    },
    {
      "time": 40.625,
      "note": 84,
      "duration": 0.25,
      "velocity": 100
    },
    {
      "time": 40.875,
      "note": 84,
      "duration": 0.25,
      "velocity": 100
    },
    {
      "time": 41.125,
      "note": 86,
      "duration": 0.25,
      "velocity": 100
    },
    {
      "time": 41.375,
      "note": 84,
      "duration": 0.25,
      "velocity": 100
    },
    {
      "time": 41.625,
      "note": 84,
      "duration": 0.5,
      "velocity": 100
    },
    {
      "time": 42.125,
      "note": 82,
      "duration": 1.5,
      "velocity": 100
    },
    {
      "time": 43.875,
      "note": 86,
      "duration": 0.25,
      "velocity": 100
    },
    {
      "time": 44.125,
      "note": 86,
      "duration": 0.25,
      "velocity": 100
    },
    {
      "time": 44.375,
      "note": 86,
      "duration": 0.25,
      "velocity": 100
    },
    {
      "time": 44.625,
      "note": 86,
      "duration": 0.375,
      "velocity": 100
    },
    {
      "time": 45.0,
      "note": 84,
      "duration": 0.125,
      "velocity": 100
    },
    {
      "time": 45.125,
      "note": 84,
      "duration": 0.25,
      "velocity": 100
    },
    {
      "time": 45.375,
      "note": 82,
      "duration": 0.25,
      "velocity": 100
    },
    {
      "time": 45.625,
      "note": 84,
      "duration": 0.5,
      "velocity": 100
    },
    {
      "time": 46.125,
      "note": 86,
      "duration": 0.5,
      "velocity": 100
    },
    {
      "time": 46.875,
      "note": 86,
      "duration": 0.25,
      "velocity": 100
    },
    {
      "time": 47.125,
      "note": 88,
      "duration": 0.25,
      "velocity": 100
    },
    {
      "time": 47.375,
      "note": 86,
      "duration": 0.25,
      "velocity": 100
    },
    {
      "time": 47.625,
      "note": 84,
      "duration": 1.0,
      "velocity": 100
    },
    {
      "time": 48.625,
      "note": 84,
      "duration": 1.0,
      "velocity": 100
    },
    {
      "time": 49.625,
      "note": 84,
      "duration": 0.25,
      "velocity": 100
    },
    {
      "time": 49.875,
      "note": 84,
      "duration": 0.25,
      "velocity": 100
    },
    {
      "time": 50.125,
      "note": 86,
      "duration": 0.25,
      "velocity": 100
    },
    {
      "time": 50.375,
      "note": 84,
      "duration": 0.25,
      "velocity": 100
    },
    {
      "time": 50.625,
      "note": 82,
      "duration": 1.0,
      "velocity": 100
    },
    {
      "time": 51.625,
      "note": 82,
      "duration": 0.25,
      "velocity": 100
    },
    {
      "time": 51.875,
      "note": 82,
      "duration": 0.25,
      "velocity": 100
    },
    {
      "time": 52.125,
      "note": 81,
      "duration": 0.25,
      "velocity": 100
    },
    {
      "time": 52.375,
      "note": 82,
      "duration": 0.25,
      "velocity": 100
    },
    {
      "time": 52.625,
      "note": 84,
      "duration": 0.375,
      "velocity": 100
    },
    {
      "time": 53.0,
      "note": 84,
      "duration": 0.125,
      "velocity": 100
    },
    {
      "time": 53.125,
      "note": 84,
      "duration": 0.25,
      "velocity": 100
    },
    {
      "time": 53.375,
      "note": 84,
      "duration": 0.25,
      "velocity": 100
    },
    {
      "time": 53.625,
      "note": 84,
      "duration": 0.25,
      "velocity": 100
    },
    {
      "time": 53.875,
      "note": 82,
      "duration": 0.25,
      "velocity": 100
    },
    {
      "time": 54.125,
      "note": 81,
      "duration": 0.25,
      "velocity": 100
    },
    {
      "time": 54.375,
      "note": 79,
      "duration": 0.25,
      "velocity": 100
    },
    {
      "time": 54.625,
      "note": 81,
      "duration": 1.0,
      "velocity": 100
    },
    {
      "time": 56.875,
      "note": 84,
      "duration": 1.0,
      "velocity": 100
    },
    {
      "time": 57.875,
      "note": 79,
      "duration": 0.25,
      "velocity": 100
    },
    {
      "time": 58.125,
      "note": 81,
      "duration": 0.25,
      "velocity": 100
    },
    {
      "time": 58.375,
      "note": 82,
      "duration": 0.25,
      "velocity": 100
    },
    {
      "time": 58.625,
      "note": 81,
      "duration": 0.25,
      "velocity": 100
    },
    {
      "time": 58.875,
      "note": 81,
      "duration": 0.25,
      "velocity": 100
    },
    {
      "time": 56.625,
      "note": 79,
      "duration": 0.25,
      "velocity": 100
    },
    {
      "time": 56.875,
      "note": 81,
      "duration": 0.25,
      "velocity": 100
    },
    {
      "time": 57.125,
      "note": 82,
      "duration": 0.25,
      "velocity": 100
    },
    {
      "time": 57.375,
      "note": 81,
      "duration": 0.25,
      "velocity": 100
    },
    {
      "time": 57.625,
      "note": 81,
      "duration": 0.25,
      "velocity": 100
    },
    {
      "time": 57.875,
      "note": 79,
      "duration": 0.75,
      "velocity": 100
    },
    {
      "time": 58.875,
      "note": 79,
      "duration": 0.25,
      "velocity": 100
    },
    {
      "time": 59.125,
      "note": 81,
      "duration": 0.25,
      "velocity": 100
    },
    {
      "time": 59.375,
      "note": 82,
      "duration": 0.25,
      "velocity": 100
    },
    {
      "time": 59.625,
      "note": 81,
      "duration": 0.25,
      "velocity": 100
    },
    {
      "time": 59.875,
      "note": 79,
      "duration": 0.25,
      "velocity": 100
    },
    {
      "time": 60.125,
      "note": 81,
      "duration": 0.25,
      "velocity": 100
    },
    {
      "time": 60.375,
      "note": 82,
      "duration": 0.25,
      "velocity": 100
    },
    {
      "time": 60.625,
      "note": 76,
      "duration": 0.5,
      "velocity": 100
    },
    {
      "time": 61.125,
      "note": 84,
      "duration": 0.5,
      "velocity": 100
    },
    {
      "time": 61.125,
      "note": 84,
      "duration": 0.5,
      "velocity": 100
    },
    {
      "time": 61.625,
      "note": 82,
      "duration": 0.25,
      "velocity": 100
    },
    {
      "time": 61.875,
      "note": 74,
      "duration": 0.5,
      "velocity": 100
    },
    {
      "time": 62.375,
      "note": 82,
      "duration": 0.5,
      "velocity": 100
    },
    {
      "time": 62.375,
      "note": 81,
      "duration": 0.75,
      "velocity": 100
    },
    {
      "time": 63.125,
      "note": 76,
      "duration": 0.5,
      "velocity": 100
    },
    {
      "time": 63.625,
      "note": 84,
      "duration": 0.5,
      "velocity": 100
    },
    {
      "time": 63.625,
      "note": 84,
      "duration": 0.5,
      "velocity": 100
    },
    {
      "time": 64.125,
      "note": 74,
      "duration": 0.5,
      "velocity": 100
    },
    {
      "time": 64.625,
      "note": 82,
      "duration": 0.5,
      "velocity": 100
    },
    {
      "time": 64.625,
      "note": 81,
      "duration": 0.5,
      "velocity": 100
    },
    {
      "time": 63.125,
      "note": 76,
      "duration": 0.5,
      "velocity": 100
    },
    {
      "time": 63.625,
      "note": 84,
      "duration": 0.5,
      "velocity": 100
    },
    {
      "time": 63.625,
      "note": 84,
      "duration": 0.5,
      "velocity": 100
    },
    {
      "time": 64.125,
      "note": 82,
      "duration": 0.25,
      "velocity": 100
    },
    {
      "time": 64.375,
      "note": 81,
      "duration": 0.5,
      "velocity": 100
    },
    {
      "time": 64.875,
      "note": 77,
      "duration": 0.5,
      "velocity": 100
    },
    {
      "time": 65.375,
      "note": 84,
      "duration": 1.0,
      "velocity": 100
    },
    {
      "time": 66.625,
      "note": 77,
      "duration": 0.25,
      "velocity": 100
    },
    {
      "time": 66.875,
      "note": 79,
      "duration": 0.25,
      "velocity": 100
    },
    {
      "time": 67.125,
      "note": 81,
      "duration": 0.25,
      "velocity": 100
    },
    {
      "time": 65.375,
      "note": 74,
      "duration": 0.5,
      "velocity": 100
    },
    {
      "time": 65.875,
      "note": 82,
      "duration": 0.5,
      "velocity": 100
    },
    {
      "time": 65.875,
      "note": 82,
      "duration": 0.5,
      "velocity": 100
    },
    {
      "time": 66.375,
      "note": 81,
      "duration": 0.25,
      "velocity": 100
    },
    {
      "time": 66.625,
      "note": 81,
      "duration": 0.25,
      "velocity": 100
    },
    {
      "time": 66.875,
      "note": 79,
      "duration": 0.75,
      "velocity": 100
    },
    {
      "time": 67.625,
      "note": 76,
      "duration": 0.5,
      "velocity": 100
    },
    {
      "time": 68.125,
      "note": 86,
      "duration": 0.5,
      "velocity": 100
    },
    {
      "time": 68.125,
      "note": 84,
      "duration": 0.5,
      "velocity": 100
    },
    {
      "time": 68.625,
      "note": 82,
      "duration": 0.25,
      "velocity": 100
    },
    {
      "time": 68.875,
      "note": 81,
      "duration": 0.5,
      "velocity": 100
    },
    {
      "time": 69.375,
      "note": 79,
      "duration": 0.5,
      "velocity": 100
    },
    {
      "time": 69.875,
      "note": 76,
      "duration": 0.5,
      "velocity": 100
    },
    {
      "time": 70.375,
      "note": 86,
      "duration": 0.5,
      "velocity": 100
    },
    {
      "time": 70.375,
      "note": 84,
      "duration": 0.5,
      "velocity": 100
    },
    {
      "time": 70.875,
      "note": 74,
      "duration": 0.5,
      "velocity": 100
    },
    {
      "time": 71.375,
      "note": 82,
      "duration": 0.5,
      "velocity": 100
    },
    {
      "time": 71.375,
      "note": 81,
      "duration": 0.5,
      "velocity": 100
    },
    {
      "time": 70.125,
      "note": 79,
      "duration": 0.25,
      "velocity": 100
    },
    {
      "time": 70.375,
      "note": 81,
      "duration": 0.25,
      "velocity": 100
    },
    {
      "time": 70.625,
      "note": 82,
      "duration": 0.25,
      "velocity": 100
    },
    {
      "time": 70.875,
      "note": 81,
      "duration": 0.25,
      "velocity": 100
    },
    {
      "time": 71.125,
      "note": 79,
      "duration": 0.25,
      "velocity": 100
    },
    {
      "time": 71.375,
      "note": 81,
      "duration": 0.25,
      "velocity": 100
    },
    {
      "time": 71.625,
      "note": 82,
      "duration": 0.25,
      "velocity": 100
    },
    {
      "time": 71.875,
      "note": 76,
      "duration": 0.5,
      "velocity": 100
    },
    {
      "time": 72.375,
      "note": 84,
      "duration": 0.5,
      "velocity": 100
    },
    {
      "time": 72.375,
      "note": 84,
      "duration": 0.5,
      "velocity": 100
    },
    {
      "time": 72.875,
      "note": 74,
      "duration": 0.5,
      "velocity": 100
    },
    {
      "time": 73.375,
      "note": 82,
      "duration": 0.5,
      "velocity": 100
    },
    {
      "time": 73.375,
      "note": 74,
      "duration": 0.5,
      "velocity": 100
    },
    {
      "time": 73.875,
      "note": 82,
      "duration": 0.5,
      "velocity": 100
    },
    {
      "time": 71.875,
      "note": 84,
      "duration": 1.0,
      "velocity": 100
    },
    {
      "time": 72.875,
      "note": 77,
      "duration": 0.5,
      "velocity": 100
    },
    {
      "time": 73.375,
      "note": 85,
      "duration": 0.5,
      "velocity": 100
    },
    {
      "time": 73.375,
      "note": 84,
      "duration": 0.5,
      "velocity": 100
    },
    {
      "time": 71.875,
      "note": 76,
      "duration": 0.5,
      "velocity": 100
    },
    {
      "time": 72.375,
      "note": 86,
      "duration": 0.5,
      "velocity": 100
    },
    {
      "time": 72.375,
      "note": 84,
      "duration": 0.5,
      "velocity": 100
    },
    {
      "time": 72.875,
      "note": 74,
      "duration": 0.5,
      "velocity": 100
    },
    {
      "time": 73.375,
      "note": 82,
      "duration": 0.5,
      "velocity": 100
    },
    {
      "time": 73.375,
      "note": 81,
      "duration": 0.5,
      "velocity": 100
    },
    {
      "time": 72.125,
      "note": 74,
      "duration": 0.25,
      "velocity": 100
    },
    {
      "time": 72.375,
      "note": 74,
      "duration": 0.25,
      "velocity": 100
    },
    {
      "time": 72.625,
      "note": 74,
      "duration": 0.25,
      "velocity": 100
    },
    {
      "time": 72.875,
      "note": 74,
      "duration": 0.25,
      "velocity": 100
    },
    {
      "time": 73.125,
      "note": 74,
      "duration": 0.25,
      "velocity": 100
    },
    {
      "time": 73.375,
      "note": 74,
      "duration": 0.25,
      "velocity": 100
    },
    {
      "time": 73.625,
      "note": 74,
      "duration": 0.25,
      "velocity": 100
    },
    {
      "time": 73.875,
      "note": 82,
      "duration": 0.25,
      "velocity": 100
    },
    {
      "time": 74.125,
      "note": 81,
      "duration": 0.5,
      "velocity": 100
    },
    {
      "time": 74.625,
      "note": 79,
      "duration": 0.25,
      "velocity": 100
    },
    {
      "time": 74.875,
      "note": 79,
      "duration": 0.5,
      "velocity": 100
    }
  ],
  "chords": [
    {
      "time": 0.0,
      "notes": [
        67,
        70,
        74
      ],
      "duration": 3.4488636363636362
    },
    {
      "time": 3.4488636363636362,
      "notes": [
        62,
        66,
        69
      ],
      "duration": 3.4488636363636362
    },
    {
      "time": 6.8977272727272725,
      "notes": [
        67,
        70,
        74
      ],
      "duration": 3.4488636363636362
    },
    {
      "time": 10.346590909090908,
      "notes": [
        67,
        70,
        74
      ],
      "duration": 3.4488636363636362
    },
    {
      "time": 13.795454545454545,
      "notes": [
        62,
        66,
        69
      ],
      "duration": 3.4488636363636362
    },
    {
      "time": 17.24431818181818,
      "notes": [
        67,
        70,
        74
      ],
      "duration": 3.4488636363636362
    },
    {
      "time": 20.693181818181817,
      "notes": [
        62,
        66,
        69
      ],
      "duration": 3.4488636363636362
    },
    {
      "time": 24.142045454545453,
      "notes": [
        67,
        70,
        74
      ],
      "duration": 3.4488636363636362
    },
    {
      "time": 27.59090909090909,
      "notes": [
        62,
        66,
        69
      ],
      "duration": 3.4488636363636362
    },
    {
      "time": 31.039772727272727,
      "notes": [
        67,
        70,
        74
      ],
      "duration": 3.4488636363636362
    },
    {
      "time": 34.48863636363636,
      "notes": [
        65,
        69,
        72
      ],
      "duration": 3.4488636363636362
    },
    {
      "time": 37.9375,
      "notes": [
        70,
        74,
        77
      ],
      "duration": 3.4488636363636362
    },
    {
      "time": 41.38636363636363,
      "notes": [
        65,
        69,
        72
      ],
      "duration": 3.4488636363636362
    },
    {
      "time": 44.83522727272727,
      "notes": [
        70,
        74,
        77
      ],
      "duration": 3.4488636363636362
    },
    {
      "time": 48.28409090909091,
      "notes": [
        65,
        69,
        72
      ],
      "duration": 3.4488636363636362
    },
    {
      "time": 51.73295454545455,
      "notes": [
        70,
        74,
        77
      ],
      "duration": 3.4488636363636362
    },
    {
      "time": 55.18181818181818,
      "notes": [
        69,
        73,
        76
      ],
      "duration": 3.4488636363636362
    },
    {
      "time": 58.63068181818181,
      "notes": [
        67,
        70,
        74
      ],
      "duration": 3.4488636363636362
    },
    {
      "time": 62.07954545454545,
      "notes": [
        62,
        66,
        69
      ],
      "duration": 3.4488636363636362
    },
    {
      "time": 65.5284090909091,
      "notes": [
        67,
        70,
        74
      ],
      "duration": 3.4488636363636362
    },
    {
      "time": 68.97727272727272,
      "notes": [
        62,
        66,
        69
      ],
      "duration": 3.4488636363636362
    },
    {
      "time": 72.42613636363636,
      "notes": [
        67,
        70,
        74
      ],
      "duration": 3.4488636363636362
    }
  ]
}