{
  "title": "Las pibas quieren cha cha",
  "artist": "El Empuje",
  "bpm": 120,
  "duration": 40.25,
  "audioFile": "",
  "notes": [
    {
      "time": 0.0,
      "note": 81,
      "duration": 0.125,
      "velocity": 100
    },
    {
      "time": 0.125,
      "note": 86,
      "duration": 0.125,
      "velocity": 100
    },
    {
      "time": 0.25,
      "note": 86,
      "duration": 0.125,
      "velocity": 100
    },
    {
      "time": 0.375,
      "note": 86,
      "duration": 0.125,
      "velocity": 100
    },
    {
      "time": 0.5,
      "note": 86,
      "duration": 0.125,
      "velocity": 100
    },
    {
      "time": 0.625,
      "note": 89,
      "duration": 0.125,
      "velocity": 100
    },
    {
      "time": 0.75,
      "note": 86,
      "duration": 0.25,
      "velocity": 100
    },
    {
      "time": 1.0,
      "note": 81,
      "duration": 0.125,
      "velocity": 100
    },
    {
      "time": 1.125,
      "note": 86,
      "duration": 0.125,
      "velocity": 100
    },
    {
      "time": 1.25,
      "note": 86,
      "duration": 0.125,
      "velocity": 100
    },
    {
      "time": 1.375,
      "note": 86,
      "duration": 0.125,
      "velocity": 100
    },
    {
      "time": 1.5,
      "note": 86,
      "duration": 0.125,
      "velocity": 100
    },
    {
      "time": 1.625,
      "note": 89,
      "duration": 0.125,
      "velocity": 100
    },
    {
      "time": 1.75,
      "note": 86,
      "duration": 0.25,
      "velocity": 100
    },
    {
      "time": 2.0,
      "note": 86,
      "duration": 0.125,
      "velocity": 100
    },
    {
      "time": 2.125,
      "note": 84,
      "duration": 0.125,
      "velocity": 100
    },
    {
      "time": 2.25,
      "note": 84,
      "duration": 0.125,
      "velocity": 100
    },
    {
      "time": 2.375,
      "note": 84,
      "duration": 0.125,
      "velocity": 100
    },
    {
      "time": 2.5,
      "note": 84,
      "duration": 0.125,
      "velocity": 100
    },
    {
      "time": 2.625,
      "note": 88,
      "duration": 0.125,
      "velocity": 100
    },
    {
      "time": 2.75,
      "note": 88,
      "duration": 0.125,
      "velocity": 100
    },
    {
      "time": 2.875,
      "note": 86,
      "duration": 0.125,
      "velocity": 100
    },
    {
      "time": 3.0,
      "note": 84,
      "duration": 0.125,
      "velocity": 100
    },
    {
      "time": 3.125,
      "note": 86,
      "duration": 0.125,
      "velocity": 100
    },
    {
      "time": 3.25,
      "note": 86,
      "duration": 0.125,
      "velocity": 100
    },
    {
      "time": 3.375,
      "note": 86,
      "duration": 0.125,
      "velocity": 100
    },
    {
      "time": 3.5,
      "note": 89,
      "duration": 0.125,
      "velocity": 100
    },
    {
      "time": 3.625,
      "note": 86,
      "duration": 0.375,
      "velocity": 100
    },
    {
      "time": 4.0,
      "note": 86,
      "duration": 0.125,
      "velocity": 100
    },
    {
      "time": 4.125,
      "note": 84,
      "duration": 0.125,
      "velocity": 100
    },
    {
      "time": 4.25,
      "note": 84,
      "duration": 0.125,
      "velocity": 100
    },
    {
      "time": 4.375,
      "note": 84,
      "duration": 0.125,
      "velocity": 100
    },
    {
      "time": 4.5,
      "note": 84,
      "duration": 0.125,
      "velocity": 100
    },
    {
      "time": 4.625,
      "note": 88,
      "duration": 0.125,
      "velocity": 100
    },
    {
      "time": 4.75,
      "note": 88,
      "duration": 0.125,
      "velocity": 100
    },
    {
      "time": 4.875,
      "note": 86,
      "duration": 0.125,
      "velocity": 100
    },
    {
      "time": 5.0,
      "note": 84,
      "duration": 0.125,
      "velocity": 100
    },
    {
      "time": 5.125,
      "note": 86,
      "duration": 0.125,
      "velocity": 100
    },
    {
      "time": 5.25,
      "note": 86,
      "duration": 0.125,
      "velocity": 100
    },
    {
      "time": 5.375,
      "note": 86,
      "duration": 0.125,
      "velocity": 100
    },
    {
      "time": 5.5,
      "note": 89,
      "duration": 0.125,
      "velocity": 100
    },
    {
      "time": 5.625,
      "note": 86,
      "duration": 0.375,
      "velocity": 100
    },
    {
      "time": 6.0,
      "note": 86,
      "duration": 0.125,
      "velocity": 100
    },
    {
      "time": 5.625,
      "note": 77,
      "duration": 0.375,
      "velocity": 100
    },
    {
      "time": 6.0,
      "note": 79,
      "duration": 0.25,
      "velocity": 100
    },
    {
      "time": 6.25,
      "note": 86,
      "duration": 0.5,
      "velocity": 100
    },
    {
      "time": 7.125,
      "note": 81,
      "duration": 0.125,
      "velocity": 100
    },
    {
      "time": 6.25,
      "note": 81,
      "duration": 0.25,
      "velocity": 100
    },
    {
      "time": 6.5,
      "note": 79,
      "duration": 0.25,
      "velocity": 100
    },
    {
      "time": 6.75,
      "note": 77,
      "duration": 0.25,
      "velocity": 100
    },
    {
      "time": 7.0,
      "note": 76,
      "duration": 0.25,
      "velocity": 100
    },
    {
      "time": 7.625,
      "note": 86,
      "duration": 0.125,
      "velocity": 100
    },
    {
      "time": 7.75,
      "note": 86,
      "duration": 0.125,
      "velocity": 100
    },
    {
      "time": 7.875,
      "note": 86,
      "duration": 0.125,
      "velocity": 100
    },
    {
      "time": 8.0,
      "note": 86,
      "duration": 0.125,
      "velocity": 100
    },
    {
      "time": 8.125,
      "note": 89,
      "duration": 0.125,
      "velocity": 100
    },
    {
      "time": 8.25,
      "note": 86,
      "duration": 0.25,
      "velocity": 100
    },
    {
      "time": 8.5,
      "note": 81,
      "duration": 0.125,
      "velocity": 100
    },
    {
      "time": 7.625,
      "note": 74,
      "duration": 1.0,
      "velocity": 100
    },
    {
      "time": 8.625,
      "note": 86,
      "duration": 0.125,
      "velocity": 100
    },
    {
      "time": 8.75,
      "note": 86,
      "duration": 0.125,
      "velocity": 100
    },
    {
      "time": 8.875,
      "note": 86,
      "duration": 0.125,
      "velocity": 100
    },
    {
      "time": 9.0,
      "note": 86,
      "duration": 0.125,
      "velocity": 100
    },
    {
      "time": 9.125,
      "note": 89,
      "duration": 0.125,
      "velocity": 100
    },
    {
      "time": 9.25,
      "note": 86,
      "duration": 0.25,
      "velocity": 100
    },
    {
      "time": 9.5,
      "note": 86,
      "duration": 0.125,
      "velocity": 100
    },
    {
      "time": 9.625,
      "note": 84,
      "duration": 0.125,
      "velocity": 100
    },
    {
      "time": 9.75,
      "note": 84,
      "duration": 0.125,
      "velocity": 100
    },
    {
      "time": 9.875,
      "note": 84,
      "duration": 0.125,
      "velocity": 100
    },
    {
      "time": 10.0,
      "note": 84,
      "duration": 0.125,
      "velocity": 100
    },
    {
      "time": 10.125,
      "note": 88,
      "duration": 0.125,
      "velocity": 100
    },
    {
      "time": 10.25,
      "note": 88,
      "duration": 0.125,
      "velocity": 100
    },
    {
      "time": 10.375,
      "note": 86,
      "duration": 0.125,
      "velocity": 100
    },
    {
      "time": 10.5,
      "note": 84,
      "duration": 0.125,
      "velocity": 100
    },
    {
      "time": 10.625,
      "note": 86,
      "duration": 0.125,
      "velocity": 100
    },
    {
      "time": 10.75,
      "note": 86,
      "duration": 0.125,
      "velocity": 100
    },
    {
      "time": 10.875,
      "note": 86,
      "duration": 0.125,
      "velocity": 100
    },
    {
      "time": 11.0,
      "note": 89,
      "duration": 0.125,
      "velocity": 100
    },
    {
      "time": 11.125,
      "note": 86,
      "duration": 0.125,
      "velocity": 100
    },
    {
      "time": 11.25,
      "note": 89,
      "duration": 0.125,
      "velocity": 100
    },
    {
      "time": 11.375,
      "note": 86,
      "duration": 0.125,
      "velocity": 100
    },
    {
      "time": 11.5,
      "note": 81,
      "duration": 0.125,
      "velocity": 100
    },
    {
      "time": 11.625,
      "note": 84,
      "duration": 0.125,
      "velocity": 100
    },
    {
      "time": 11.75,
      "note": 84,
      "duration": 0.125,
      "velocity": 100
    },
    {
      "time": 11.875,
      "note": 84,
      "duration": 0.125,
      "velocity": 100
    },
    {
      "time": 12.0,
      "note": 84,
      "duration": 0.125,
      "velocity": 100
    },
    {
      "time": 12.125,
      "note": 88,
      "duration": 0.125,
      "velocity": 100
    },
    {
      "time": 12.25,
      "note": 88,
      "duration": 0.125,
      "velocity": 100
    },
    {
      "time": 12.375,
      "note": 86,
      "duration": 0.125,
      "velocity": 100
    },
    {
      "time": 12.5,
      "note": 84,
      "duration": 0.125,
      "velocity": 100
    },
    {
      "time": 12.625,
      "note": 86,
      "duration": 0.125,
      "velocity": 100
    },
    {
      "time": 12.75,
      "note": 86,
      "duration": 0.125,
      "velocity": 100
    },
    {
      "time": 12.875,
      "note": 86,
      "duration": 0.125,
      "velocity": 100
    },
    {
      "time": 13.0,
      "note": 89,
      "duration": 0.125,
      "velocity": 100
    },
    {
      "time": 13.125,
      "note": 86,
      "duration": 0.125,
      "velocity": 100
    },
    {
      "time": 13.25,
      "note": 89,
      "duration": 0.125,
      "velocity": 100
    },
    {
      "time": 13.375,
      "note": 86,
      "duration": 0.125,
      "velocity": 100
    },
    {
      "time": 13.5,
      "note": 89,
      "duration": 0.125,
      "velocity": 100
    },
    {
      "time": 13.625,
      "note": 86,
      "duration": 0.5,
      "velocity": 100
    },
    {
      "time": 14.125,
      "note": 86,
      "duration": 0.125,
      "velocity": 100
    },
    {
      "time": 14.25,
      "note": 86,
      "duration": 0.25,
      "velocity": 100
    },
    {
      "time": 14.5,
      "note": 86,
      "duration": 0.125,
      "velocity": 100
    },
    {
      "time": 13.625,
      "note": 74,
      "duration": 0.375,
      "velocity": 100
    },
    {
      "time": 14.0,
      "note": 74,
      "duration": 0.25,
      "velocity": 100
    },
    {
      "time": 14.25,
      "note": 72,
      "duration": 0.25,
      "velocity": 100
    },
    {
      "time": 14.5,
      "note": 72,
      "duration": 0.125,
      "velocity": 100
    },
    {
      "time": 14.625,
      "note": 84,
      "duration": 0.125,
      "velocity": 100
    },
    {
      "time": 14.75,
      "note": 84,
      "duration": 0.125,
      "velocity": 100
    },
    {
      "time": 14.875,
      "note": 84,
      "duration": 0.125,
      "velocity": 100
    },
    {
      "time": 15.0,
      "note": 84,
      "duration": 0.125,
      "velocity": 100
    },
    {
      "time": 15.125,
      "note": 88,
      "duration": 0.375,
      "velocity": 100
    },
    {
      "time": 15.5,
      "note": 84,
      "duration": 0.125,
      "velocity": 100
    },
    {
      "time": 14.625,
      "note": 72,
      "duration": 0.375,
      "velocity": 100
    },
    {
      "time": 15.0,
      "note": 72,
      "duration": 0.25,
      "velocity": 100
    },
    {
      "time": 15.25,
      "note": 86,
      "duration": 0.25,
      "velocity": 100
    },
    {
      "time": 15.5,
      "note": 81,
      "duration": 0.25,
      "velocity": 100
    },
    {
      "time": 15.875,
      "note": 81,
      "duration": 0.25,
      "velocity": 100
    },
    {
      "time": 16.125,
      "note": 81,
      "duration": 0.125,
      "velocity": 100
    },
    {
      "time": 16.25,
      "note": 81,
      "duration": 0.25,
      "velocity": 100
    },
    {
      "time": 16.5,
      "note": 79,
      "duration": 0.25,
      "velocity": 100
    },
    {
      "time": 16.875,
      "note": 81,
      "duration": 0.25,
      "velocity": 100
    },
    {
      "time": 17.125,
      "note": 81,
      "duration": 0.125,
      "velocity": 100
    },
    {
      "time": 17.25,
      "note": 81,
      "duration": 0.25,
      "velocity": 100
    },
    {
      "time": 17.5,
      "note": 77,
      "duration": 0.25,
      "velocity": 100
    },
    {
      "time": 17.875,
      "note": 86,
      "duration": 0.25,
      "velocity": 100
    },
    {
      "time": 18.125,
      "note": 86,
      "duration": 0.125,
      "velocity": 100
    },
    {
      "time": 18.25,
      "note": 84,
      "duration": 0.125,
      "velocity": 100
    },
    {
      "time": 18.375,
      "note": 84,
      "duration": 0.125,
      "velocity": 100
    },
    {
      "time": 18.5,
      "note": 84,
      "duration": 0.125,
      "velocity": 100
    },
    {
      "time": 18.625,
      "note": 84,
      "duration": 0.125,
      "velocity": 100
    },
    {
      "time": 18.75,
      "note": 88,
      "duration": 0.125,
      "velocity": 100
    },
    {
      "time": 18.875,
      "note": 86,
      "duration": 0.25,
      "velocity": 100
    },
    {
      "time": 19.125,
      "note": 84,
      "duration": 0.125,
      "velocity": 100
    },
    {
      "time": 19.25,
      "note": 86,
      "duration": 0.25,
      "velocity": 100
    },
    {
      "time": 19.5,
      "note": 81,
      "duration": 0.125,
      "velocity": 100
    },
    {
      "time": 19.625,
      "note": 79,
      "duration": 0.125,
      "velocity": 100
    },
    {
      "time": 19.75,
      "note": 79,
      "duration": 0.25,
      "velocity": 100
    },
    {
      "time": 20.0,
      "note": 79,
      "duration": 0.125,
      "velocity": 100
    },
    {
      "time": 20.125,
      "note": 79,
      "duration": 0.25,
      "velocity": 100
    },
    {
      "time": 20.375,
      "note": 79,
      "duration": 0.125,
      "velocity": 100
    },
    {
      "time": 19.75,
      "note": 67,
      "duration": 0.25,
      "velocity": 100
    },
    {
      "time": 20.0,
      "note": 67,
      "duration": 0.25,
      "velocity": 100
    },
    {
      "time": 20.25,
      "note": 81,
      "duration": 0.25,
      "velocity": 100
    },
    {
      "time": 20.5,
      "note": 81,
      "duration": 0.125,
      "velocity": 100
    },
    {
      "time": 20.625,
      "note": 81,
      "duration": 0.125,
      "velocity": 100
    },
    {
      "time": 20.75,
      "note": 79,
      "duration": 0.25,
      "velocity": 100
    },
    {
      "time": 21.0,
      "note": 81,
      "duration": 0.25,
      "velocity": 100
    },
    {
      "time": 21.25,
      "note": 74,
      "duration": 0.375,
      "velocity": 100
    },
    {
      "time": 21.625,
      "note": 79,
      "duration": 0.125,
      "velocity": 100
    },
    {
      "time": 21.75,
      "note": 79,
      "duration": 0.25,
      "velocity": 100
    },
    {
      "time": 22.0,
      "note": 79,
      "duration": 0.125,
      "velocity": 100
    },
    {
      "time": 22.125,
      "note": 79,
      "duration": 0.25,
      "velocity": 100
    },
    {
      "time": 22.375,
      "note": 79,
      "duration": 0.125,
      "velocity": 100
    },
    {
      "time": 21.75,
      "note": 67,
      "duration": 0.25,
      "velocity": 100
    },
    {
      "time": 22.0,
      "note": 67,
      "duration": 0.25,
      "velocity": 100
    },
    {
      "time": 22.25,
      "note": 81,
      "duration": 0.25,
      "velocity": 100
    },
    {
      "time": 22.5,
      "note": 81,
      "duration": 0.125,
      "velocity": 100
    },
    {
      "time": 22.625,
      "note": 81,
      "duration": 0.125,
      "velocity": 100
    },
    {
      "time": 22.75,
      "note": 79,
      "duration": 0.25,
      "velocity": 100
    },
    {
      "time": 23.0,
      "note": 81,
      "duration": 0.25,
      "velocity": 100
    },
    {
      "time": 23.25,
      "note": 74,
      "duration": 1.0,
      "velocity": 100
    },
    {
      "time": 24.25,
      "note": 74,
      "duration": 0.375,
      "velocity": 100
    },
    {
      "time": 24.625,
      "note": 81,
      "duration": 0.125,
      "velocity": 100
    },
    {
      "time": 24.75,
      "note": 81,
      "duration": 0.25,
      "velocity": 100
    },
    {
      "time": 25.0,
      "note": 81,
      "duration": 0.125,
      "velocity": 100
    },
    {
      "time": 25.125,
      "note": 81,
      "duration": 0.125,
      "velocity": 100
    },
    {
      "time": 24.25,
      "note": 86,
      "duration": 0.25,
      "velocity": 100
    },
    {
      "time": 24.5,
      "note": 86,
      "duration": 0.125,
      "velocity": 100
    },
    {
      "time": 24.625,
      "note": 81,
      "duration": 0.125,
      "velocity": 100
    },
    {
      "time": 24.75,
      "note": 81,
      "duration": 0.25,
      "velocity": 100
    },
    {
      "time": 25.0,
      "note": 81,
      "duration": 0.125,
      "velocity": 100
    },
    {
      "time": 25.125,
      "note": 81,
      "duration": 0.125,
      "velocity": 100
    },
    {
      "time": 25.25,
      "note": 86,
      "duration": 0.25,
      "velocity": 100
    },
    {
      "time": 25.5,
      "note": 86,
      "duration": 0.25,
      "velocity": 100
    },
    {
      "time": 25.75,
      "note": 86,
      "duration": 0.125,
      "velocity": 100
    },
    {
      "time": 25.875,
      "note": 81,
      "duration": 0.25,
      "velocity": 100
    },
    {
      "time": 26.125,
      "note": 81,
      "duration": 0.125,
      "velocity": 100
    },
    {
      "time": 26.25,
      "note": 81,
      "duration": 0.25,
      "velocity": 100
    },
    {
      "time": 26.5,
      "note": 79,
      "duration": 0.25,
      "velocity": 100
    },
    {
      "time": 26.75,
      "note": 79,
      "duration": 0.125,
      "velocity": 100
    },
    {
      "time": 26.875,
      "note": 81,
      "duration": 0.25,
      "velocity": 100
    },
    {
      "time": 27.125,
      "note": 81,
      "duration": 0.125,
      "velocity": 100
    },
    {
      "time": 27.25,
      "note": 81,
      "duration": 0.25,
      "velocity": 100
    },
    {
      "time": 27.5,
      "note": 77,
      "duration": 0.125,
      "velocity": 100
    },
    {
      "time": 27.625,
      "note": 81,
      "duration": 0.125,
      "velocity": 100
    },
    {
      "time": 27.75,
      "note": 81,
      "duration": 0.25,
      "velocity": 100
    },
    {
      "time": 28.0,
      "note": 81,
      "duration": 0.125,
      "velocity": 100
    },
    {
      "time": 28.125,
      "note": 81,
      "duration": 0.125,
      "velocity": 100
    },
    {
      "time": 28.25,
      "note": 86,
      "duration": 0.25,
      "velocity": 100
    },
    {
      "time": 28.5,
      "note": 86,
      "duration": 0.125,
      "velocity": 100
    },
    {
      "time": 28.625,
      "note": 81,
      "duration": 0.125,
      "velocity": 100
    },
    {
      "time": 28.75,
      "note": 81,
      "duration": 0.25,
      "velocity": 100
    },
    {
      "time": 29.0,
      "note": 81,
      "duration": 0.125,
      "velocity": 100
    },
    {
      "time": 29.125,
      "note": 89,
      "duration": 0.125,
      "velocity": 100
    },
    {
      "time": 29.25,
      "note": 86,
      "duration": 0.25,
      "velocity": 100
    },
    {
      "time": 29.5,
      "note": 86,
      "duration": 0.25,
      "velocity": 100
    },
    {
      "time": 29.75,
      "note": 86,
      "duration": 0.125,
      "velocity": 100
    },
    {
      "time": 29.875,
      "note": 81,
      "duration": 0.25,
      "velocity": 100
    },
    {
      "time": 30.125,
      "note": 81,
      "duration": 0.125,
      "velocity": 100
    },
    {
      "time": 30.25,
      "note": 81,
      "duration": 0.125,
      "velocity": 100
    },
    {
      "time": 30.375,
      "note": 79,
      "duration": 0.25,
      "velocity": 100
    },
    {
      "time": 30.625,
      "note": 77,
      "duration": 0.125,
      "velocity": 100
    },
    {
      "time": 30.75,
      "note": 79,
      "duration": 0.25,
      "velocity": 100
    },
    {
      "time": 31.0,
      "note": 77,
      "duration": 0.25,
      "velocity": 100
    },
    {
      "time": 31.25,
      "note": 74,
      "duration": 0.5,
      "velocity": 100
    },
    {
      "time": 31.875,
      "note": 81,
      "duration": 0.25,
      "velocity": 100
    },
    {
      "time": 32.125,
      "note": 81,
      "duration": 0.125,
      "velocity": 100
    },
    {
      "time": 32.25,
      "note": 81,
      "duration": 0.125,
      "velocity": 100
    },
    {
      "time": 32.375,
      "note": 79,
      "duration": 0.25,
      "velocity": 100
    },
    {
      "time": 32.625,
      "note": 77,
      "duration": 0.125,
      "velocity": 100
    },
    {
      "time": 32.75,
      "note": 79,
      "duration": 0.25,
      "velocity": 100
    },
    {
      "time": 33.0,
      "note": 77,
      "duration": 0.25,
      "velocity": 100
    },
    {
      "time": 33.25,
      "note": 74,
      "duration": 0.375,
      "velocity": 100
    },
    {
      "time": 33.625,
      "note": 77,
      "duration": 0.125,
      "velocity": 100
    },
    {
      "time": 33.75,
      "note": 74,
      "duration": 0.5,
      "velocity": 100
    },
    {
      "time": 34.25,
      "note": 74,
      "duration": 0.375,
      "velocity": 100
    },
    {
      "time": 34.625,
      "note": 81,
      "duration": 0.125,
      "velocity": 100
    },
    {
      "time": 34.75,
      "note": 81,
      "duration": 0.25,
      "velocity": 100
    },
    {
      "time": 35.0,
      "note": 81,
      "duration": 0.125,
      "velocity": 100
    },
    {
      "time": 35.125,
      "note": 81,
      "duration": 0.125,
      "velocity": 100
    },
    {
      "time": 35.25,
      "note": 74,
      "duration": 1.0,
      "velocity": 100
    },
    {
      "time": 36.25,
      "note": 69,
      "duration": 0.125,
      "velocity": 100
    },
    {
      "time": 36.375,
      "note": 72,
      "duration": 0.125,
      "velocity": 100
    },
    {
      "time": 36.5,
      "note": 69,
      "duration": 0.125,
      "velocity": 100
    },
    {
      "time": 36.625,
      "note": 72,
      "duration": 0.125,
      "velocity": 100
    },
    {
      "time": 36.75,
      "note": 74,
      "duration": 0.5,
      "velocity": 100
    },
    {
      "time": 37.25,
      "note": 74,
      "duration": 1.0,
      "velocity": 100
    },
    {
      "time": 38.25,
      "note": 69,
      "duration": 0.125,
      "velocity": 100
    },
    {
      "time": 38.375,
      "note": 72,
      "duration": 0.125,
      "velocity": 100
    },
    {
      "time": 38.5,
      "note": 69,
      "duration": 0.125,
      "velocity": 100
    },
    {
      "time": 38.625,
      "note": 72,
      "duration": 0.125,
      "velocity": 100
    },
    {
      "time": 38.75,
      "note": 74,
      "duration": 0.5,
      "velocity": 100
    },
    {
      "time": 39.25,
      "note": 74,
      "duration": 1.0,
      "velocity": 100
    }
  ],
  "chords": [
    {
      "time": 0.0,
      "notes": [
        62,
        65,
        69
      ],
      "duration": 1.3879310344827587
    },
    {
      "time": 1.3879310344827587,
      "notes": [
        60,
        64,
        67
      ],
      "duration": 1.3879310344827587
    },
    {
      "time": 2.7758620689655173,
      "notes": [
        62,
        65,
        69
      ],
      "duration": 1.3879310344827587
    },
    {
      "time": 4.163793103448276,
      "notes": [
        60,
        64,
        67
      ],
      "duration": 1.3879310344827587
    },
    {
      "time": 5.551724137931035,
      "notes": [
        62,
        65,
        69
      ],
      "duration": 1.3879310344827587
    },
    {
      "time": 6.939655172413794,
      "notes": [
        62,
        65,
        69
      ],
      "duration": 1.3879310344827587
    },
    {
      "time": 8.327586206896552,
      "notes": [
        60,
        64,
        67
      ],
      "duration": 1.3879310344827587
    },
    {
      "time": 9.715517241379311,
      "notes": [
        62,
        65,
        69
      ],
      "duration": 1.3879310344827587
    },
    {
      "time": 11.10344827586207,
      "notes": [
        60,
        64,
        67
      ],
      "duration": 1.3879310344827587
    },
    {
      "time": 12.491379310344827,
      "notes": [
        62,
        65,
        69
      ],
      "duration": 1.3879310344827587
    },
    {
      "time": 13.879310344827587,
      "notes": [
        60,
        64,
        67
      ],
      "duration": 1.3879310344827587
    },
    {
      "time": 15.267241379310345,
      "notes": [
        62,
        65,
        69
      ],
      "duration": 1.3879310344827587
    },
    {
      "time": 16.655172413793103,
      "notes": [
        69,
        73,
        76,
        79
      ],
      "duration": 1.3879310344827587
    },
    {
      "time": 18.04310344827586,
      "notes": [
        62,
        65,
        69
      ],
      "duration": 1.3879310344827587
    },
    {
      "time": 19.431034482758623,
      "notes": [
        60,
        64,
        67
      ],
      "duration": 1.3879310344827587
    },
    {
      "time": 20.81896551724138,
      "notes": [
        62,
        65,
        69
      ],
      "duration": 1.3879310344827587
    },
    {
      "time": 22.20689655172414,
      "notes": [
        69,
        73,
        76,
        79
      ],
      "duration": 1.3879310344827587
    },
    {
      "time": 23.594827586206897,
      "notes": [
        62,
        66,
        69
      ],
      "duration": 1.3879310344827587
    },
    {
      "time": 24.982758620689655,
      "notes": [
        69,
        73,
        76,
        79
      ],
      "duration": 1.3879310344827587
    },
    {
      "time": 26.370689655172416,
      "notes": [
        62,
        65,
        69
      ],
      "duration": 1.3879310344827587
    },
    {
      "time": 27.758620689655174,
      "notes": [
        62,
        65,
        69
      ],
      "duration": 1.3879310344827587
    },
    {
      "time": 29.146551724137932,
      "notes": [
        69,
        73,
        76,
        79
      ],
      "duration": 1.3879310344827587
    },
    {
      "time": 30.53448275862069,
      "notes": [
        62,
        65,
        69
      ],
      "duration": 1.3879310344827587
    },
    {
      "time": 31.92241379310345,
      "notes": [
        69,
        73,
        76,
        79
      ],
      "duration": 1.3879310344827587
    },
    {
      "time": 33.310344827586206,
      "notes": [
        62,
        65,
        69
      ],
      "duration": 1.3879310344827587
    },
    {
      "time": 34.69827586206897,
      "notes": [
        69,
        73,
        76,
        79
      ],
      "duration": 1.3879310344827587
    },
    {
      "time": 36.08620689655172,
      "notes": [
        62,
        65,
        69
      ],
      "duration": 1.3879310344827587
    },
    {
      "time": 37.474137931034484,
      "notes": [
        62,
        66,
        69
      ],
      "duration": 1.3879310344827587
    },
    {
      "time": 38.862068965517246,
      "notes": [
        60,
        64,
        67
      ],
      "duration": 1.3879310344827587
    }
  ]
}