{
  "title": "Tranquila",
  "artist": "Javier Garcia",
  "bpm": 120,
  "duration": 61.625,
  "audioFile": "",
  "notes": [
    {
      "time": 0.0,
      "note": 71,
      "duration": 0.375,
      "velocity": 100
    },
    {
      "time": 0.375,
      "note": 74,
      "duration": 0.125,
      "velocity": 100
    },
    {
      "time": 0.75,
      "note": 77,
      "duration": 0.25,
      "velocity": 100
    },
    {
      "time": 1.0,
      "note": 71,
      "duration": 0.375,
      "velocity": 100
    },
    {
      "time": 1.375,
      "note": 74,
      "duration": 0.125,
      "velocity": 100
    },
    {
      "time": 1.75,
      "note": 77,
      "duration": 0.25,
      "velocity": 100
    },
    {
      "time": 2.375,
      "note": 77,
      "duration": 0.125,
      "velocity": 100
    },
    {
      "time": 2.5,
      "note": 79,
      "duration": 0.125,
      "velocity": 100
    },
    {
      "time": 2.625,
      "note": 77,
      "duration": 0.125,
      "velocity": 100
    },
    {
      "time": 2.75,
      "note": 76,
      "duration": 0.125,
      "velocity": 100
    },
    {
      "time": 2.875,
      "note": 74,
      "duration": 0.125,
      "velocity": 100
    },
    {
      "time": 3.5,
      "note": 72,
      "duration": 0.375,
      "velocity": 100
    },
    {
      "time": 3.875,
      "note": 76,
      "duration": 0.125,
      "velocity": 100
    },
    {
      "time": 3.0,
      "note": 72,
      "duration": 0.375,
      "velocity": 100
    },
    {
      "time": 3.375,
      "note": 76,
      "duration": 0.125,
      "velocity": 100
    },
    {
      "time": 3.75,
      "note": 77,
      "duration": 0.25,
      "velocity": 100
    },
    {
      "time": 4.0,
      "note": 65,
      "duration": 0.375,
      "velocity": 100
    },
    {
      "time": 4.375,
      "note": 76,
      "duration": 0.125,
      "velocity": 100
    },
    {
      "time": 4.75,
      "note": 77,
      "duration": 0.25,
      "velocity": 100
    },
    {
      "time": 5.375,
      "note": 79,
      "duration": 0.125,
      "velocity": 100
    },
    {
      "time": 5.5,
      "note": 79,
      "duration": 0.125,
      "velocity": 100
    },
    {
      "time": 5.625,
      "note": 79,
      "duration": 0.25,
      "velocity": 100
    },
    {
      "time": 5.875,
      "note": 79,
      "duration": 0.125,
      "velocity": 100
    },
    {
      "time": 6.0,
      "note": 79,
      "duration": 0.125,
      "velocity": 100
    },
    {
      "time": 6.125,
      "note": 77,
      "duration": 0.25,
      "velocity": 100
    },
    {
      "time": 6.375,
      "note": 74,
      "duration": 0.125,
      "velocity": 100
    },
    {
      "time": 6.5,
      "note": 77,
      "duration": 0.5,
      "velocity": 100
    },
    {
      "time": 7.0,
      "note": 83,
      "duration": 0.125,
      "velocity": 100
    },
    {
      "time": 7.125,
      "note": 83,
      "duration": 0.25,
      "velocity": 100
    },
    {
      "time": 7.375,
      "note": 83,
      "duration": 0.125,
      "velocity": 100
    },
    {
      "time": 7.5,
      "note": 83,
      "duration": 0.25,
      "velocity": 100
    },
    {
      "time": 7.75,
      "note": 81,
      "duration": 0.125,
      "velocity": 100
    },
    {
      "time": 7.875,
      "note": 84,
      "duration": 0.125,
      "velocity": 100
    },
    {
      "time": 8.5,
      "note": 84,
      "duration": 0.125,
      "velocity": 100
    },
    {
      "time": 8.625,
      "note": 84,
      "duration": 0.375,
      "velocity": 100
    },
    {
      "time": 8.0,
      "note": 84,
      "duration": 0.125,
      "velocity": 100
    },
    {
      "time": 8.125,
      "note": 84,
      "duration": 0.25,
      "velocity": 100
    },
    {
      "time": 8.375,
      "note": 84,
      "duration": 0.125,
      "velocity": 100
    },
    {
      "time": 8.5,
      "note": 84,
      "duration": 0.25,
      "velocity": 100
    },
    {
      "time": 8.75,
      "note": 83,
      "duration": 0.125,
      "velocity": 100
    },
    {
      "time": 8.875,
      "note": 86,
      "duration": 0.125,
      "velocity": 100
    },
    {
      "time": 9.0,
      "note": 86,
      "duration": 0.125,
      "velocity": 100
    },
    {
      "time": 9.125,
      "note": 86,
      "duration": 0.375,
      "velocity": 100
    },
    {
      "time": 9.75,
      "note": 76,
      "duration": 0.5,
      "velocity": 100
    },
    {
      "time": 10.25,
      "note": 86,
      "duration": 0.5,
      "velocity": 100
    },
    {
      "time": 10.25,
      "note": 86,
      "duration": 0.125,
      "velocity": 100
    },
    {
      "time": 10.375,
      "note": 83,
      "duration": 0.375,
      "velocity": 100
    },
    {
      "time": 10.75,
      "note": 86,
      "duration": 0.125,
      "velocity": 100
    },
    {
      "time": 10.875,
      "note": 86,
      "duration": 0.125,
      "velocity": 100
    },
    {
      "time": 11.0,
      "note": 84,
      "duration": 0.25,
      "velocity": 100
    },
    {
      "time": 11.75,
      "note": 84,
      "duration": 0.125,
      "velocity": 100
    },
    {
      "time": 11.875,
      "note": 81,
      "duration": 0.375,
      "velocity": 100
    },
    {
      "time": 11.25,
      "note": 81,
      "duration": 0.125,
      "velocity": 100
    },
    {
      "time": 11.375,
      "note": 81,
      "duration": 0.25,
      "velocity": 100
    },
    {
      "time": 11.625,
      "note": 81,
      "duration": 0.125,
      "velocity": 100
    },
    {
      "time": 11.75,
      "note": 81,
      "duration": 0.25,
      "velocity": 100
    },
    {
      "time": 12.0,
      "note": 81,
      "duration": 0.125,
      "velocity": 100
    },
    {
      "time": 12.125,
      "note": 86,
      "duration": 0.125,
      "velocity": 100
    },
    {
      "time": 12.25,
      "note": 86,
      "duration": 0.125,
      "velocity": 100
    },
    {
      "time": 12.375,
      "note": 83,
      "duration": 0.375,
      "velocity": 100
    },
    {
      "time": 13.125,
      "note": 76,
      "duration": 0.25,
      "velocity": 100
    },
    {
      "time": 13.375,
      "note": 83,
      "duration": 0.25,
      "velocity": 100
    },
    {
      "time": 13.375,
      "note": 83,
      "duration": 0.125,
      "velocity": 100
    },
    {
      "time": 13.5,
      "note": 83,
      "duration": 0.25,
      "velocity": 100
    },
    {
      "time": 13.75,
      "note": 83,
      "duration": 0.125,
      "velocity": 100
    },
    {
      "time": 13.875,
      "note": 83,
      "duration": 0.25,
      "velocity": 100
    },
    {
      "time": 14.125,
      "note": 81,
      "duration": 0.125,
      "velocity": 100
    },
    {
      "time": 14.25,
      "note": 84,
      "duration": 0.125,
      "velocity": 100
    },
    {
      "time": 14.875,
      "note": 84,
      "duration": 0.125,
      "velocity": 100
    },
    {
      "time": 15.0,
      "note": 84,
      "duration": 0.375,
      "velocity": 100
    },
    {
      "time": 15.75,
      "note": 84,
      "duration": 0.125,
      "velocity": 100
    },
    {
      "time": 15.875,
      "note": 84,
      "duration": 0.25,
      "velocity": 100
    },
    {
      "time": 16.125,
      "note": 84,
      "duration": 0.125,
      "velocity": 100
    },
    {
      "time": 16.25,
      "note": 84,
      "duration": 0.25,
      "velocity": 100
    },
    {
      "time": 16.5,
      "note": 83,
      "duration": 0.125,
      "velocity": 100
    },
    {
      "time": 16.625,
      "note": 86,
      "duration": 0.125,
      "velocity": 100
    },
    {
      "time": 16.75,
      "note": 86,
      "duration": 0.125,
      "velocity": 100
    },
    {
      "time": 16.875,
      "note": 86,
      "duration": 0.375,
      "velocity": 100
    },
    {
      "time": 17.25,
      "note": 86,
      "duration": 0.25,
      "velocity": 100
    },
    {
      "time": 17.5,
      "note": 86,
      "duration": 0.25,
      "velocity": 100
    },
    {
      "time": 17.75,
      "note": 86,
      "duration": 0.5,
      "velocity": 100
    },
    {
      "time": 18.25,
      "note": 77,
      "duration": 0.25,
      "velocity": 100
    },
    {
      "time": 18.5,
      "note": 77,
      "duration": 0.125,
      "velocity": 100
    },
    {
      "time": 18.625,
      "note": 76,
      "duration": 0.125,
      "velocity": 100
    },
    {
      "time": 19.25,
      "note": 76,
      "duration": 0.125,
      "velocity": 100
    },
    {
      "time": 19.375,
      "note": 76,
      "duration": 0.375,
      "velocity": 100
    },
    {
      "time": 19.625,
      "note": 84,
      "duration": 0.25,
      "velocity": 100
    },
    {
      "time": 19.875,
      "note": 84,
      "duration": 0.25,
      "velocity": 100
    },
    {
      "time": 20.125,
      "note": 84,
      "duration": 0.5,
      "velocity": 100
    },
    {
      "time": 20.875,
      "note": 76,
      "duration": 0.125,
      "velocity": 100
    },
    {
      "time": 21.0,
      "note": 79,
      "duration": 0.125,
      "velocity": 100
    },
    {
      "time": 21.125,
      "note": 79,
      "duration": 0.125,
      "velocity": 100
    },
    {
      "time": 21.25,
      "note": 77,
      "duration": 0.375,
      "velocity": 100
    },
    {
      "time": 21.625,
      "note": 83,
      "duration": 0.25,
      "velocity": 100
    },
    {
      "time": 21.875,
      "note": 83,
      "duration": 0.25,
      "velocity": 100
    },
    {
      "time": 22.125,
      "note": 83,
      "duration": 0.5,
      "velocity": 100
    },
    {
      "time": 22.625,
      "note": 83,
      "duration": 0.25,
      "velocity": 100
    },
    {
      "time": 22.875,
      "note": 83,
      "duration": 0.125,
      "velocity": 100
    },
    {
      "time": 23.0,
      "note": 81,
      "duration": 0.125,
      "velocity": 100
    },
    {
      "time": 23.625,
      "note": 81,
      "duration": 0.125,
      "velocity": 100
    },
    {
      "time": 23.75,
      "note": 81,
      "duration": 0.375,
      "velocity": 100
    },
    {
      "time": 24.0,
      "note": 81,
      "duration": 0.25,
      "velocity": 100
    },
    {
      "time": 24.25,
      "note": 81,
      "duration": 0.25,
      "velocity": 100
    },
    {
      "time": 24.75,
      "note": 81,
      "duration": 0.5,
      "velocity": 100
    },
    {
      "time": 24.5,
      "note": 83,
      "duration": 0.125,
      "velocity": 100
    },
    {
      "time": 24.625,
      "note": 83,
      "duration": 0.375,
      "velocity": 100
    },
    {
      "time": 25.0,
      "note": 83,
      "duration": 0.25,
      "velocity": 100
    },
    {
      "time": 25.25,
      "note": 83,
      "duration": 0.25,
      "velocity": 100
    },
    {
      "time": 25.5,
      "note": 83,
      "duration": 0.5,
      "velocity": 100
    },
    {
      "time": 26.0,
      "note": 83,
      "duration": 0.25,
      "velocity": 100
    },
    {
      "time": 26.25,
      "note": 83,
      "duration": 0.125,
      "velocity": 100
    },
    {
      "time": 26.375,
      "note": 81,
      "duration": 0.125,
      "velocity": 100
    },
    {
      "time": 27.0,
      "note": 81,
      "duration": 0.125,
      "velocity": 100
    },
    {
      "time": 27.125,
      "note": 81,
      "duration": 0.375,
      "velocity": 100
    },
    {
      "time": 27.375,
      "note": 81,
      "duration": 0.25,
      "velocity": 100
    },
    {
      "time": 27.625,
      "note": 81,
      "duration": 0.25,
      "velocity": 100
    },
    {
      "time": 27.875,
      "note": 81,
      "duration": 0.5,
      "velocity": 100
    },
    {
      "time": 28.625,
      "note": 81,
      "duration": 0.125,
      "velocity": 100
    },
    {
      "time": 28.75,
      "note": 83,
      "duration": 0.125,
      "velocity": 100
    },
    {
      "time": 28.875,
      "note": 83,
      "duration": 0.125,
      "velocity": 100
    },
    {
      "time": 29.0,
      "note": 83,
      "duration": 0.375,
      "velocity": 100
    },
    {
      "time": 29.875,
      "note": 81,
      "duration": 0.5,
      "velocity": 100
    },
    {
      "time": 30.625,
      "note": 81,
      "duration": 0.125,
      "velocity": 100
    },
    {
      "time": 30.75,
      "note": 83,
      "duration": 0.125,
      "velocity": 100
    },
    {
      "time": 29.875,
      "note": 83,
      "duration": 0.125,
      "velocity": 100
    },
    {
      "time": 30.0,
      "note": 83,
      "duration": 0.375,
      "velocity": 100
    },
    {
      "time": 30.375,
      "note": 83,
      "duration": 0.25,
      "velocity": 100
    },
    {
      "time": 30.625,
      "note": 86,
      "duration": 0.25,
      "velocity": 100
    },
    {
      "time": 30.875,
      "note": 86,
      "duration": 0.25,
      "velocity": 100
    },
    {
      "time": 31.125,
      "note": 83,
      "duration": 0.25,
      "velocity": 100
    },
    {
      "time": 31.375,
      "note": 77,
      "duration": 0.125,
      "velocity": 100
    },
    {
      "time": 31.5,
      "note": 76,
      "duration": 0.25,
      "velocity": 100
    },
    {
      "time": 31.75,
      "note": 76,
      "duration": 0.125,
      "velocity": 100
    },
    {
      "time": 31.875,
      "note": 76,
      "duration": 0.125,
      "velocity": 100
    },
    {
      "time": 32.0,
      "note": 74,
      "duration": 0.125,
      "velocity": 100
    },
    {
      "time": 32.125,
      "note": 74,
      "duration": 0.125,
      "velocity": 100
    },
    {
      "time": 32.25,
      "note": 71,
      "duration": 0.125,
      "velocity": 100
    },
    {
      "time": 32.375,
      "note": 74,
      "duration": 0.125,
      "velocity": 100
    },
    {
      "time": 32.5,
      "note": 71,
      "duration": 0.125,
      "velocity": 100
    },
    {
      "time": 32.625,
      "note": 76,
      "duration": 0.125,
      "velocity": 100
    },
    {
      "time": 32.75,
      "note": 71,
      "duration": 0.125,
      "velocity": 100
    },
    {
      "time": 32.875,
      "note": 77,
      "duration": 0.25,
      "velocity": 100
    },
    {
      "time": 33.125,
      "note": 77,
      "duration": 0.25,
      "velocity": 100
    },
    {
      "time": 33.375,
      "note": 83,
      "duration": 0.25,
      "velocity": 100
    },
    {
      "time": 33.625,
      "note": 86,
      "duration": 0.25,
      "velocity": 100
    },
    {
      "time": 33.875,
      "note": 84,
      "duration": 0.125,
      "velocity": 100
    },
    {
      "time": 34.0,
      "note": 83,
      "duration": 0.125,
      "velocity": 100
    },
    {
      "time": 34.625,
      "note": 81,
      "duration": 0.125,
      "velocity": 100
    },
    {
      "time": 34.75,
      "note": 83,
      "duration": 0.125,
      "velocity": 100
    },
    {
      "time": 34.875,
      "note": 89,
      "duration": 0.25,
      "velocity": 100
    },
    {
      "time": 34.375,
      "note": 79,
      "duration": 0.5,
      "velocity": 100
    },
    {
      "time": 34.875,
      "note": 88,
      "duration": 0.5,
      "velocity": 100
    },
    {
      "time": 34.875,
      "note": 88,
      "duration": 0.5,
      "velocity": 100
    },
    {
      "time": 35.375,
      "note": 88,
      "duration": 0.375,
      "velocity": 100
    },
    {
      "time": 35.75,
      "note": 84,
      "duration": 0.125,
      "velocity": 100
    },
    {
      "time": 35.875,
      "note": 88,
      "duration": 0.125,
      "velocity": 100
    },
    {
      "time": 36.0,
      "note": 89,
      "duration": 0.125,
      "velocity": 100
    },
    {
      "time": 36.125,
      "note": 93,
      "duration": 0.125,
      "velocity": 100
    },
    {
      "time": 36.25,
      "note": 91,
      "duration": 0.125,
      "velocity": 100
    },
    {
      "time": 36.375,
      "note": 91,
      "duration": 0.5,
      "velocity": 100
    },
    {
      "time": 37.0,
      "note": 84,
      "duration": 0.25,
      "velocity": 100
    },
    {
      "time": 37.25,
      "note": 88,
      "duration": 0.125,
      "velocity": 100
    },
    {
      "time": 37.375,
      "note": 88,
      "duration": 0.125,
      "velocity": 100
    },
    {
      "time": 37.5,
      "note": 89,
      "duration": 0.125,
      "velocity": 100
    },
    {
      "time": 37.625,
      "note": 88,
      "duration": 0.25,
      "velocity": 100
    },
    {
      "time": 38.0,
      "note": 83,
      "duration": 0.125,
      "velocity": 100
    },
    {
      "time": 38.125,
      "note": 86,
      "duration": 0.125,
      "velocity": 100
    },
    {
      "time": 38.25,
      "note": 86,
      "duration": 0.125,
      "velocity": 100
    },
    {
      "time": 38.375,
      "note": 88,
      "duration": 0.125,
      "velocity": 100
    },
    {
      "time": 38.5,
      "note": 89,
      "duration": 0.125,
      "velocity": 100
    },
    {
      "time": 38.625,
      "note": 88,
      "duration": 0.125,
      "velocity": 100
    },
    {
      "time": 38.75,
      "note": 86,
      "duration": 0.125,
      "velocity": 100
    },
    {
      "time": 38.875,
      "note": 86,
      "duration": 0.125,
      "velocity": 100
    },
    {
      "time": 39.0,
      "note": 83,
      "duration": 0.25,
      "velocity": 100
    },
    {
      "time": 39.25,
      "note": 88,
      "duration": 0.125,
      "velocity": 100
    },
    {
      "time": 39.375,
      "note": 88,
      "duration": 0.25,
      "velocity": 100
    },
    {
      "time": 39.625,
      "note": 88,
      "duration": 0.125,
      "velocity": 100
    },
    {
      "time": 39.75,
      "note": 86,
      "duration": 0.125,
      "velocity": 100
    },
    {
      "time": 39.875,
      "note": 86,
      "duration": 0.125,
      "velocity": 100
    },
    {
      "time": 40.0,
      "note": 83,
      "duration": 0.25,
      "velocity": 100
    },
    {
      "time": 40.25,
      "note": 88,
      "duration": 0.125,
      "velocity": 100
    },
    {
      "time": 40.375,
      "note": 88,
      "duration": 0.25,
      "velocity": 100
    },
    {
      "time": 40.625,
      "note": 88,
      "duration": 0.125,
      "velocity": 100
    },
    {
      "time": 40.75,
      "note": 86,
      "duration": 0.125,
      "velocity": 100
    },
    {
      "time": 40.875,
      "note": 86,
      "duration": 0.125,
      "velocity": 100
    },
    {
      "time": 41.0,
      "note": 83,
      "duration": 0.125,
      "velocity": 100
    },
    {
      "time": 41.125,
      "note": 86,
      "duration": 0.125,
      "velocity": 100
    },
    {
      "time": 41.25,
      "note": 83,
      "duration": 0.125,
      "velocity": 100
    },
    {
      "time": 41.875,
      "note": 84,
      "duration": 0.125,
      "velocity": 100
    },
    {
      "time": 42.0,
      "note": 81,
      "duration": 0.125,
      "velocity": 100
    },
    {
      "time": 42.125,
      "note": 79,
      "duration": 0.125,
      "velocity": 100
    },
    {
      "time": 42.25,
      "note": 77,
      "duration": 0.125,
      "velocity": 100
    },
    {
      "time": 42.375,
      "note": 77,
      "duration": 0.25,
      "velocity": 100
    },
    {
      "time": 42.625,
      "note": 81,
      "duration": 0.25,
      "velocity": 100
    },
    {
      "time": 42.875,
      "note": 84,
      "duration": 0.25,
      "velocity": 100
    },
    {
      "time": 43.125,
      "note": 88,
      "duration": 0.25,
      "velocity": 100
    },
    {
      "time": 43.375,
      "note": 93,
      "duration": 0.25,
      "velocity": 100
    },
    {
      "time": 43.625,
      "note": 91,
      "duration": 0.125,
      "velocity": 100
    },
    {
      "time": 43.75,
      "note": 91,
      "duration": 0.125,
      "velocity": 100
    },
    {
      "time": 44.0,
      "note": 89,
      "duration": 0.125,
      "velocity": 100
    },
    {
      "time": 44.125,
      "note": 88,
      "duration": 0.125,
      "velocity": 100
    },
    {
      "time": 44.25,
      "note": 86,
      "duration": 0.125,
      "velocity": 100
    },
    {
      "time": 43.625,
      "note": 91,
      "duration": 1.0,
      "velocity": 100
    },
    {
      "time": 44.625,
      "note": 84,
      "duration": 0.375,
      "velocity": 100
    },
    {
      "time": 45.0,
      "note": 88,
      "duration": 0.125,
      "velocity": 100
    },
    {
      "time": 45.125,
      "note": 93,
      "duration": 0.125,
      "velocity": 100
    },
    {
      "time": 45.25,
      "note": 91,
      "duration": 0.25,
      "velocity": 100
    },
    {
      "time": 45.5,
      "note": 88,
      "duration": 0.125,
      "velocity": 100
    },
    {
      "time": 45.625,
      "note": 89,
      "duration": 0.125,
      "velocity": 100
    },
    {
      "time": 45.75,
      "note": 86,
      "duration": 0.125,
      "velocity": 100
    },
    {
      "time": 45.875,
      "note": 84,
      "duration": 0.125,
      "velocity": 100
    },
    {
      "time": 46.0,
      "note": 86,
      "duration": 0.125,
      "velocity": 100
    },
    {
      "time": 46.125,
      "note": 83,
      "duration": 0.125,
      "velocity": 100
    },
    {
      "time": 46.25,
      "note": 77,
      "duration": 0.125,
      "velocity": 100
    },
    {
      "time": 46.375,
      "note": 74,
      "duration": 0.125,
      "velocity": 100
    },
    {
      "time": 46.5,
      "note": 77,
      "duration": 0.125,
      "velocity": 100
    },
    {
      "time": 46.625,
      "note": 86,
      "duration": 0.25,
      "velocity": 100
    },
    {
      "time": 46.875,
      "note": 84,
      "duration": 0.125,
      "velocity": 100
    },
    {
      "time": 47.0,
      "note": 86,
      "duration": 0.125,
      "velocity": 100
    },
    {
      "time": 47.125,
      "note": 86,
      "duration": 0.125,
      "velocity": 100
    },
    {
      "time": 47.25,
      "note": 84,
      "duration": 0.125,
      "velocity": 100
    },
    {
      "time": 47.375,
      "note": 86,
      "duration": 0.25,
      "velocity": 100
    },
    {
      "time": 48.125,
      "note": 86,
      "duration": 0.5,
      "velocity": 100
    },
    {
      "time": 49.125,
      "note": 84,
      "duration": 0.375,
      "velocity": 100
    },
    {
      "time": 49.5,
      "note": 81,
      "duration": 0.125,
      "velocity": 100
    },
    {
      "time": 49.625,
      "note": 84,
      "duration": 0.25,
      "velocity": 100
    },
    {
      "time": 49.875,
      "note": 83,
      "duration": 0.125,
      "velocity": 100
    },
    {
      "time": 50.0,
      "note": 84,
      "duration": 0.125,
      "velocity": 100
    },
    {
      "time": 50.125,
      "note": 84,
      "duration": 0.125,
      "velocity": 100
    },
    {
      "time": 50.25,
      "note": 83,
      "duration": 0.125,
      "velocity": 100
    },
    {
      "time": 50.375,
      "note": 84,
      "duration": 0.25,
      "velocity": 100
    },
    {
      "time": 51.125,
      "note": 83,
      "duration": 0.5,
      "velocity": 100
    },
    {
      "time": 51.625,
      "note": 86,
      "duration": 0.375,
      "velocity": 100
    },
    {
      "time": 52.0,
      "note": 83,
      "duration": 0.125,
      "velocity": 100
    },
    {
      "time": 52.125,
      "note": 83,
      "duration": 0.5,
      "velocity": 100
    },
    {
      "time": 53.625,
      "note": 86,
      "duration": 0.25,
      "velocity": 100
    },
    {
      "time": 53.875,
      "note": 84,
      "duration": 0.125,
      "velocity": 100
    },
    {
      "time": 54.0,
      "note": 86,
      "duration": 0.125,
      "velocity": 100
    },
    {
      "time": 54.125,
      "note": 86,
      "duration": 0.125,
      "velocity": 100
    },
    {
      "time": 54.25,
      "note": 84,
      "duration": 0.125,
      "velocity": 100
    },
    {
      "time": 54.375,
      "note": 86,
      "duration": 0.25,
      "velocity": 100
    },
    {
      "time": 55.125,
      "note": 86,
      "duration": 0.5,
      "velocity": 100
    },
    {
      "time": 55.625,
      "note": 84,
      "duration": 0.375,
      "velocity": 100
    },
    {
      "time": 56.0,
      "note": 81,
      "duration": 0.125,
      "velocity": 100
    },
    {
      "time": 57.5,
      "note": 81,
      "duration": 0.125,
      "velocity": 100
    },
    {
      "time": 57.625,
      "note": 84,
      "duration": 0.25,
      "velocity": 100
    },
    {
      "time": 57.875,
      "note": 83,
      "duration": 0.125,
      "velocity": 100
    },
    {
      "time": 58.0,
      "note": 84,
      "duration": 0.125,
      "velocity": 100
    },
    {
      "time": 58.125,
      "note": 84,
      "duration": 0.125,
      "velocity": 100
    },
    {
      "time": 58.25,
      "note": 83,
      "duration": 0.125,
      "velocity": 100
    },
    {
      "time": 58.375,
      "note": 84,
      "duration": 0.25,
      "velocity": 100
    },
    {
      "time": 59.125,
      "note": 83,
      "duration": 0.5,
      "velocity": 100
    },
    {
      "time": 59.625,
      "note": 86,
      "duration": 0.375,
      "velocity": 100
    },
    {
      "time": 60.0,
      "note": 83,
      "duration": 0.125,
      "velocity": 100
    },
    {
      "time": 61.375,
      "note": 86,
      "duration": 0.125,
      "velocity": 100
    },
    {
      "time": 61.5,
      "note": 86,
      "duration": 0.125,
      "velocity": 100
    }
  ],
  "chords": [
    {
      "time": 0.0,
      "notes": [
        66,
        70,
        73,
        76
      ],
      "duration": 2.6793478260869565
    },
    {
      "time": 2.6793478260869565,
      "notes": [
        71,
        74,
        78
      ],
      "duration": 2.6793478260869565
    },
    {
      "time": 5.358695652173913,
      "notes": [
        66,
        70,
        73,
        76
      ],
      "duration": 2.6793478260869565
    },
    {
      "time": 8.03804347826087,
      "notes": [
        71,
        74,
        78
      ],
      "duration": 2.6793478260869565
    },
    {
      "time": 10.717391304347826,
      "notes": [
        66,
        70,
        73,
        76
      ],
      "duration": 2.6793478260869565
    },
    {
      "time": 13.396739130434783,
      "notes": [
        71,
        74,
        78
      ],
      "duration": 2.6793478260869565
    },
    {
      "time": 16.07608695652174,
      "notes": [
        66,
        70,
        73,
        76
      ],
      "duration": 2.6793478260869565
    },
    {
      "time": 18.755434782608695,
      "notes": [
        71,
        74,
        78
      ],
      "duration": 2.6793478260869565
    },
    {
      "time": 21.434782608695652,
      "notes": [
        66,
        70,
        73,
        76
      ],
      "duration": 2.6793478260869565
    },
    {
      "time": 24.11413043478261,
      "notes": [
        71,
        74,
        78
      ],
      "duration": 2.6793478260869565
    },
    {
      "time": 26.793478260869566,
      "notes": [
        66,
        70,
        73,
        76
      ],
      "duration": 2.6793478260869565
    },
    {
      "time": 29.472826086956523,
      "notes": [
        71,
        74,
        78
      ],
      "duration": 2.6793478260869565
    },
    {
      "time": 32.15217391304348,
      "notes": [
        66,
        70,
        73,
        76
      ],
      "duration": 2.6793478260869565
    },
    {
      "time": 34.83152173913044,
      "notes": [
        71,
        74,
        78
      ],
      "duration": 2.6793478260869565
    },
    {
      "time": 37.51086956521739,
      "notes": [
        71,
        74,
        78
      ],
      "duration": 2.6793478260869565
    },
    {
      "time": 40.19021739130435,
      "notes": [
        66,
        70,
        73,
        76
      ],
      "duration": 2.6793478260869565
    },
    {
      "time": 42.869565217391305,
      "notes": [
        71,
        74,
        78
      ],
      "duration": 2.6793478260869565
    },
    {
      "time": 45.54891304347826,
      "notes": [
        66,
        70,
        73,
        76
      ],
      "duration": 2.6793478260869565
    },
    {
      "time": 48.22826086956522,
      "notes": [
        71,
        74,
        78
      ],
      "duration": 2.6793478260869565
    },
    {
      "time": 50.90760869565217,
      "notes": [
        71,
        74,
        78
      ],
      "duration": 2.6793478260869565
    },
    {
      "time": 53.58695652173913,
      "notes": [
        66,
        70,
        73,
        76
      ],
      "duration": 2.6793478260869565
    },
    {
      "time": 56.266304347826086,
      "notes": [
        71,
        74,
        78
      ],
      "duration": 2.6793478260869565
    },
    {
      "time": 58.94565217391305,
      "notes": [
        71,
        74,
        78
      ],
      "duration": 2.6793478260869565
    }
  ]
}