{
  "title": "La luna y tu",
  "artist": "Rafaga",
  "bpm": 120,
  "duration": 80.8125,
  "audioFile": "",
  "notes": [
    {
      "time": 0.375,
      "note": 71,
      "duration": 0.25,
      "velocity": 100
    },
    {
      "time": 0.625,
      "note": 84,
      "duration": 0.5,
      "velocity": 100
    },
    {
      "time": 1.25,
      "note": 71,
      "duration": 0.25,
      "velocity": 100
    },
    {
      "time": 1.5,
      "note": 70,
      "duration": 0.125,
      "velocity": 100
    },
    {
      "time": 2.25,
      "note": 89,
      "duration": 0.25,
      "velocity": 100
    },
    {
      "time": 2.5,
      "note": 93,
      "duration": 0.125,
      "velocity": 100
    },
    {
      "time": 1.625,
      "note": 70,
      "duration": 0.25,
      "velocity": 100
    },
    {
      "time": 1.875,
      "note": 84,
      "duration": 0.5,
      "velocity": 100
    },
    {
      "time": 2.25,
      "note": 70,
      "duration": 0.25,
      "velocity": 100
    },
    {
      "time": 2.5,
      "note": 68,
      "duration": 0.25,
      "velocity": 100
    },
    {
      "time": 2.75,
      "note": 93,
      "duration": 0.25,
      "velocity": 100
    },
    {
      "time": 3.0,
      "note": 93,
      "duration": 0.25,
      "velocity": 100
    },
    {
      "time": 3.25,
      "note": 88,
      "duration": 0.25,
      "velocity": 100
    },
    {
      "time": 3.5,
      "note": 86,
      "duration": 0.125,
      "velocity": 100
    },
    {
      "time": 3.625,
      "note": 82,
      "duration": 0.125,
      "velocity": 100
    },
    {
      "time": 2.75,
      "note": 68,
      "duration": 0.25,
      "velocity": 100
    },
    {
      "time": 3.0,
      "note": 81,
      "duration": 0.25,
      "velocity": 100
    },
    {
      "time": 3.375,
      "note": 69,
      "duration": 0.25,
      "velocity": 100
    },
    {
      "time": 3.625,
      "note": 68,
      "duration": 0.25,
      "velocity": 100
    },
    {
      "time": 3.875,
      "note": 82,
      "duration": 1.0,
      "velocity": 100
    },
    {
      "time": 3.875,
      "note": 68,
      "duration": 0.25,
      "velocity": 100
    },
    {
      "time": 4.125,
      "note": 80,
      "duration": 0.25,
      "velocity": 100
    },
    {
      "time": 4.375,
      "note": 80,
      "duration": 0.5,
      "velocity": 100
    },
    {
      "time": 4.875,
      "note": 86,
      "duration": 0.25,
      "velocity": 100
    },
    {
      "time": 5.125,
      "note": 82,
      "duration": 0.25,
      "velocity": 100
    },
    {
      "time": 5.625,
      "note": 74,
      "duration": 0.5,
      "velocity": 100
    },
    {
      "time": 6.125,
      "note": 82,
      "duration": 0.5,
      "velocity": 100
    },
    {
      "time": 6.25,
      "note": 82,
      "duration": 0.125,
      "velocity": 100
    },
    {
      "time": 6.375,
      "note": 82,
      "duration": 0.125,
      "velocity": 100
    },
    {
      "time": 6.5,
      "note": 82,
      "duration": 0.125,
      "velocity": 100
    },
    {
      "time": 6.625,
      "note": 82,
      "duration": 0.125,
      "velocity": 100
    },
    {
      "time": 6.75,
      "note": 82,
      "duration": 0.125,
      "velocity": 100
    },
    {
      "time": 6.875,
      "note": 82,
      "duration": 0.125,
      "velocity": 100
    },
    {
      "time": 7.0,
      "note": 82,
      "duration": 0.125,
      "velocity": 100
    },
    {
      "time": 7.125,
      "note": 86,
      "duration": 0.25,
      "velocity": 100
    },
    {
      "time": 7.375,
      "note": 82,
      "duration": 0.25,
      "velocity": 100
    },
    {
      "time": 7.875,
      "note": 74,
      "duration": 0.5,
      "velocity": 100
    },
    {
      "time": 8.375,
      "note": 82,
      "duration": 0.5,
      "velocity": 100
    },
    {
      "time": 8.5,
      "note": 83,
      "duration": 0.125,
      "velocity": 100
    },
    {
      "time": 8.625,
      "note": 83,
      "duration": 0.125,
      "velocity": 100
    },
    {
      "time": 8.75,
      "note": 83,
      "duration": 0.125,
      "velocity": 100
    },
    {
      "time": 8.875,
      "note": 83,
      "duration": 0.125,
      "velocity": 100
    },
    {
      "time": 9.0,
      "note": 83,
      "duration": 0.125,
      "velocity": 100
    },
    {
      "time": 9.125,
      "note": 83,
      "duration": 0.125,
      "velocity": 100
    },
    {
      "time": 9.25,
      "note": 83,
      "duration": 0.125,
      "velocity": 100
    },
    {
      "time": 9.375,
      "note": 86,
      "duration": 0.25,
      "velocity": 100
    },
    {
      "time": 9.625,
      "note": 83,
      "duration": 0.125,
      "velocity": 100
    },
    {
      "time": 9.75,
      "note": 86,
      "duration": 0.125,
      "velocity": 100
    },
    {
      "time": 9.875,
      "note": 86,
      "duration": 0.125,
      "velocity": 100
    },
    {
      "time": 10.0,
      "note": 83,
      "duration": 0.125,
      "velocity": 100
    },
    {
      "time": 10.125,
      "note": 86,
      "duration": 0.25,
      "velocity": 100
    },
    {
      "time": 10.375,
      "note": 83,
      "duration": 1.0,
      "velocity": 100
    },
    {
      "time": 11.375,
      "note": 83,
      "duration": 0.5,
      "velocity": 100
    },
    {
      "time": 12.0,
      "note": 83,
      "duration": 0.125,
      "velocity": 100
    },
    {
      "time": 12.125,
      "note": 86,
      "duration": 0.125,
      "velocity": 100
    },
    {
      "time": 12.25,
      "note": 89,
      "duration": 0.125,
      "velocity": 100
    },
    {
      "time": 12.375,
      "note": 93,
      "duration": 1.0,
      "velocity": 100
    },
    {
      "time": 13.375,
      "note": 93,
      "duration": 0.5,
      "velocity": 100
    },
    {
      "time": 13.875,
      "note": 89,
      "duration": 0.125,
      "velocity": 100
    },
    {
      "time": 14.0,
      "note": 93,
      "duration": 0.125,
      "velocity": 100
    },
    {
      "time": 14.125,
      "note": 89,
      "duration": 0.125,
      "velocity": 100
    },
    {
      "time": 14.25,
      "note": 93,
      "duration": 0.125,
      "velocity": 100
    },
    {
      "time": 14.375,
      "note": 89,
      "duration": 0.125,
      "velocity": 100
    },
    {
      "time": 14.5,
      "note": 93,
      "duration": 0.125,
      "velocity": 100
    },
    {
      "time": 14.625,
      "note": 89,
      "duration": 0.125,
      "velocity": 100
    },
    {
      "time": 14.75,
      "note": 93,
      "duration": 0.125,
      "velocity": 100
    },
    {
      "time": 14.875,
      "note": 89,
      "duration": 0.125,
      "velocity": 100
    },
    {
      "time": 15.0,
      "note": 93,
      "duration": 0.125,
      "velocity": 100
    },
    {
      "time": 15.125,
      "note": 89,
      "duration": 0.125,
      "velocity": 100
    },
    {
      "time": 15.25,
      "note": 93,
      "duration": 0.125,
      "velocity": 100
    },
    {
      "time": 15.375,
      "note": 89,
      "duration": 1.0,
      "velocity": 100
    },
    {
      "time": 16.375,
      "note": 90,
      "duration": 0.25,
      "velocity": 100
    },
    {
      "time": 16.625,
      "note": 88,
      "duration": 0.25,
      "velocity": 100
    },
    {
      "time": 17.125,
      "note": 79,
      "duration": 0.5,
      "velocity": 100
    },
    {
      "time": 17.625,
      "note": 88,
      "duration": 0.5,
      "velocity": 100
    },
    {
      "time": 17.75,
      "note": 81,
      "duration": 0.125,
      "velocity": 100
    },
    {
      "time": 17.875,
      "note": 81,
      "duration": 0.125,
      "velocity": 100
    },
    {
      "time": 18.0,
      "note": 81,
      "duration": 0.125,
      "velocity": 100
    },
    {
      "time": 18.125,
      "note": 81,
      "duration": 0.125,
      "velocity": 100
    },
    {
      "time": 18.25,
      "note": 81,
      "duration": 0.125,
      "velocity": 100
    },
    {
      "time": 18.375,
      "note": 79,
      "duration": 0.125,
      "velocity": 100
    },
    {
      "time": 18.5,
      "note": 81,
      "duration": 0.125,
      "velocity": 100
    },
    {
      "time": 18.625,
      "note": 83,
      "duration": 0.25,
      "velocity": 100
    },
    {
      "time": 18.875,
      "note": 77,
      "duration": 0.25,
      "velocity": 100
    },
    {
      "time": 19.375,
      "note": 77,
      "duration": 0.25,
      "velocity": 100
    },
    {
      "time": 19.75,
      "note": 83,
      "duration": 0.125,
      "velocity": 100
    },
    {
      "time": 19.875,
      "note": 83,
      "duration": 0.125,
      "velocity": 100
    },
    {
      "time": 20.0,
      "note": 83,
      "duration": 0.125,
      "velocity": 100
    },
    {
      "time": 20.125,
      "note": 86,
      "duration": 0.125,
      "velocity": 100
    },
    {
      "time": 20.25,
      "note": 86,
      "duration": 0.125,
      "velocity": 100
    },
    {
      "time": 20.375,
      "note": 83,
      "duration": 0.125,
      "velocity": 100
    },
    {
      "time": 20.5,
      "note": 86,
      "duration": 0.125,
      "velocity": 100
    },
    {
      "time": 20.625,
      "note": 91,
      "duration": 0.25,
      "velocity": 100
    },
    {
      "time": 20.875,
      "note": 88,
      "duration": 0.25,
      "velocity": 100
    },
    {
      "time": 21.375,
      "note": 79,
      "duration": 0.5,
      "velocity": 100
    },
    {
      "time": 21.875,
      "note": 88,
      "duration": 0.5,
      "velocity": 100
    },
    {
      "time": 22.0,
      "note": 81,
      "duration": 0.125,
      "velocity": 100
    },
    {
      "time": 22.125,
      "note": 81,
      "duration": 0.125,
      "velocity": 100
    },
    {
      "time": 22.25,
      "note": 81,
      "duration": 0.125,
      "velocity": 100
    },
    {
      "time": 22.375,
      "note": 81,
      "duration": 0.125,
      "velocity": 100
    },
    {
      "time": 22.5,
      "note": 81,
      "duration": 0.125,
      "velocity": 100
    },
    {
      "time": 22.625,
      "note": 79,
      "duration": 0.125,
      "velocity": 100
    },
    {
      "time": 22.75,
      "note": 81,
      "duration": 0.125,
      "velocity": 100
    },
    {
      "time": 22.875,
      "note": 83,
      "duration": 0.25,
      "velocity": 100
    },
    {
      "time": 23.125,
      "note": 77,
      "duration": 0.125,
      "velocity": 100
    },
    {
      "time": 23.25,
      "note": 83,
      "duration": 0.125,
      "velocity": 100
    },
    {
      "time": 23.375,
      "note": 83,
      "duration": 0.125,
      "velocity": 100
    },
    {
      "time": 23.5,
      "note": 77,
      "duration": 0.125,
      "velocity": 100
    },
    {
      "time": 23.625,
      "note": 83,
      "duration": 0.25,
      "velocity": 100
    },
    {
      "time": 24.0,
      "note": 77,
      "duration": 0.25,
      "velocity": 100
    },
    {
      "time": 24.25,
      "note": 79,
      "duration": 0.25,
      "velocity": 100
    },
    {
      "time": 24.5,
      "note": 81,
      "duration": 0.25,
      "velocity": 100
    },
    {
      "time": 24.75,
      "note": 89,
      "duration": 1.0,
      "velocity": 100
    },
    {
      "time": 25.875,
      "note": 77,
      "duration": 0.125,
      "velocity": 100
    },
    {
      "time": 26.0,
      "note": 77,
      "duration": 0.125,
      "velocity": 100
    },
    {
      "time": 26.125,
      "note": 77,
      "duration": 0.125,
      "velocity": 100
    },
    {
      "time": 26.25,
      "note": 83,
      "duration": 0.25,
      "velocity": 100
    },
    {
      "time": 26.5,
      "note": 77,
      "duration": 0.125,
      "velocity": 100
    },
    {
      "time": 26.625,
      "note": 83,
      "duration": 0.125,
      "velocity": 100
    },
    {
      "time": 26.75,
      "note": 79,
      "duration": 0.5,
      "velocity": 100
    },
    {
      "time": 27.25,
      "note": 89,
      "duration": 0.5,
      "velocity": 100
    },
    {
      "time": 27.25,
      "note": 89,
      "duration": 0.75,
      "velocity": 100
    },
    {
      "time": 28.125,
      "note": 77,
      "duration": 0.125,
      "velocity": 100
    },
    {
      "time": 28.25,
      "note": 77,
      "duration": 0.125,
      "velocity": 100
    },
    {
      "time": 28.375,
      "note": 77,
      "duration": 0.125,
      "velocity": 100
    },
    {
      "time": 28.5,
      "note": 83,
      "duration": 0.25,
      "velocity": 100
    },
    {
      "time": 28.75,
      "note": 77,
      "duration": 0.125,
      "velocity": 100
    },
    {
      "time": 28.875,
      "note": 83,
      "duration": 0.125,
      "velocity": 100
    },
    {
      "time": 29.0,
      "note": 79,
      "duration": 0.5,
      "velocity": 100
    },
    {
      "time": 29.5,
      "note": 89,
      "duration": 0.5,
      "velocity": 100
    },
    {
      "time": 29.5,
      "note": 86,
      "duration": 0.75,
      "velocity": 100
    },
    {
      "time": 30.375,
      "note": 77,
      "duration": 0.125,
      "velocity": 100
    },
    {
      "time": 30.5,
      "note": 77,
      "duration": 0.125,
      "velocity": 100
    },
    {
      "time": 30.625,
      "note": 77,
      "duration": 0.125,
      "velocity": 100
    },
    {
      "time": 30.75,
      "note": 83,
      "duration": 0.25,
      "velocity": 100
    },
    {
      "time": 31.0,
      "note": 77,
      "duration": 0.125,
      "velocity": 100
    },
    {
      "time": 31.125,
      "note": 83,
      "duration": 0.125,
      "velocity": 100
    },
    {
      "time": 31.25,
      "note": 89,
      "duration": 0.25,
      "velocity": 100
    },
    {
      "time": 31.5,
      "note": 89,
      "duration": 0.125,
      "velocity": 100
    },
    {
      "time": 31.625,
      "note": 89,
      "duration": 0.125,
      "velocity": 100
    },
    {
      "time": 31.75,
      "note": 89,
      "duration": 0.25,
      "velocity": 100
    },
    {
      "time": 32.0,
      "note": 89,
      "duration": 0.125,
      "velocity": 100
    },
    {
      "time": 32.125,
      "note": 89,
      "duration": 0.125,
      "velocity": 100
    },
    {
      "time": 32.25,
      "note": 89,
      "duration": 0.25,
      "velocity": 100
    },
    {
      "time": 32.5,
      "note": 89,
      "duration": 0.125,
      "velocity": 100
    },
    {
      "time": 32.625,
      "note": 89,
      "duration": 0.125,
      "velocity": 100
    },
    {
      "time": 32.75,
      "note": 89,
      "duration": 0.25,
      "velocity": 100
    },
    {
      "time": 33.0,
      "note": 88,
      "duration": 0.125,
      "velocity": 100
    },
    {
      "time": 33.125,
      "note": 89,
      "duration": 0.125,
      "velocity": 100
    },
    {
      "time": 33.25,
      "note": 83,
      "duration": 0.5,
      "velocity": 100
    },
    {
      "time": 33.75,
      "note": 91,
      "duration": 0.5,
      "velocity": 100
    },
    {
      "time": 33.75,
      "note": 88,
      "duration": 0.75,
      "velocity": 100
    },
    {
      "time": 34.625,
      "note": 76,
      "duration": 0.125,
      "velocity": 100
    },
    {
      "time": 34.75,
      "note": 76,
      "duration": 0.125,
      "velocity": 100
    },
    {
      "time": 34.875,
      "note": 76,
      "duration": 0.125,
      "velocity": 100
    },
    {
      "time": 35.0,
      "note": 81,
      "duration": 0.25,
      "velocity": 100
    },
    {
      "time": 35.25,
      "note": 76,
      "duration": 0.125,
      "velocity": 100
    },
    {
      "time": 35.375,
      "note": 81,
      "duration": 0.125,
      "velocity": 100
    },
    {
      "time": 35.5,
      "note": 88,
      "duration": 0.25,
      "velocity": 100
    },
    {
      "time": 35.75,
      "note": 88,
      "duration": 0.75,
      "velocity": 100
    },
    {
      "time": 35.75,
      "note": 81,
      "duration": 0.125,
      "velocity": 100
    },
    {
      "time": 35.875,
      "note": 79,
      "duration": 0.125,
      "velocity": 100
    },
    {
      "time": 36.0,
      "note": 79,
      "duration": 0.25,
      "velocity": 100
    },
    {
      "time": 36.25,
      "note": 81,
      "duration": 0.25,
      "velocity": 100
    },
    {
      "time": 36.625,
      "note": 76,
      "duration": 0.125,
      "velocity": 100
    },
    {
      "time": 36.75,
      "note": 76,
      "duration": 0.125,
      "velocity": 100
    },
    {
      "time": 36.875,
      "note": 76,
      "duration": 0.125,
      "velocity": 100
    },
    {
      "time": 37.0,
      "note": 81,
      "duration": 0.25,
      "velocity": 100
    },
    {
      "time": 37.25,
      "note": 76,
      "duration": 0.125,
      "velocity": 100
    },
    {
      "time": 37.375,
      "note": 81,
      "duration": 0.125,
      "velocity": 100
    },
    {
      "time": 37.5,
      "note": 88,
      "duration": 0.25,
      "velocity": 100
    },
    {
      "time": 37.75,
      "note": 84,
      "duration": 0.75,
      "velocity": 100
    },
    {
      "time": 37.75,
      "note": 81,
      "duration": 0.125,
      "velocity": 100
    },
    {
      "time": 37.875,
      "note": 79,
      "duration": 0.125,
      "velocity": 100
    },
    {
      "time": 38.0,
      "note": 79,
      "duration": 0.25,
      "velocity": 100
    },
    {
      "time": 38.25,
      "note": 81,
      "duration": 0.25,
      "velocity": 100
    },
    {
      "time": 38.625,
      "note": 76,
      "duration": 0.125,
      "velocity": 100
    },
    {
      "time": 38.75,
      "note": 76,
      "duration": 0.125,
      "velocity": 100
    },
    {
      "time": 38.875,
      "note": 76,
      "duration": 0.125,
      "velocity": 100
    },
    {
      "time": 39.0,
      "note": 81,
      "duration": 0.25,
      "velocity": 100
    },
    {
      "time": 39.25,
      "note": 81,
      "duration": 0.125,
      "velocity": 100
    },
    {
      "time": 39.375,
      "note": 81,
      "duration": 0.125,
      "velocity": 100
    },
    {
      "time": 39.5,
      "note": 88,
      "duration": 0.25,
      "velocity": 100
    },
    {
      "time": 39.75,
      "note": 88,
      "duration": 0.125,
      "velocity": 100
    },
    {
      "time": 39.875,
      "note": 88,
      "duration": 0.125,
      "velocity": 100
    },
    {
      "time": 40.0,
      "note": 88,
      "duration": 0.25,
      "velocity": 100
    },
    {
      "time": 40.25,
      "note": 88,
      "duration": 0.125,
      "velocity": 100
    },
    {
      "time": 40.375,
      "note": 88,
      "duration": 0.125,
      "velocity": 100
    },
    {
      "time": 40.75,
      "note": 88,
      "duration": 0.25,
      "velocity": 100
    },
    {
      "time": 41.0,
      "note": 88,
      "duration": 0.125,
      "velocity": 100
    },
    {
      "time": 41.125,
      "note": 88,
      "duration": 0.125,
      "velocity": 100
    },
    {
      "time": 41.25,
      "note": 91,
      "duration": 0.25,
      "velocity": 100
    },
    {
      "time": 41.5,
      "note": 91,
      "duration": 0.125,
      "velocity": 100
    },
    {
      "time": 41.625,
      "note": 91,
      "duration": 0.125,
      "velocity": 100
    },
    {
      "time": 40.75,
      "note": 89,
      "duration": 0.375,
      "velocity": 100
    },
    {
      "time": 41.125,
      "note": 88,
      "duration": 0.125,
      "velocity": 100
    },
    {
      "time": 41.25,
      "note": 86,
      "duration": 0.5,
      "velocity": 100
    },
    {
      "time": 41.75,
      "note": 86,
      "duration": 0.5,
      "velocity": 100
    },
    {
      "time": 42.625,
      "note": 79,
      "duration": 0.5,
      "velocity": 100
    },
    {
      "time": 43.125,
      "note": 83,
      "duration": 0.5,
      "velocity": 100
    },
    {
      "time": 43.125,
      "note": 89,
      "duration": 0.5,
      "velocity": 100
    },
    {
      "time": 43.125,
      "note": 91,
      "duration": 0.375,
      "velocity": 100
    },
    {
      "time": 43.5,
      "note": 89,
      "duration": 0.125,
      "velocity": 100
    },
    {
      "time": 43.625,
      "note": 88,
      "duration": 0.5,
      "velocity": 100
    },
    {
      "time": 44.625,
      "note": 88,
      "duration": 0.5,
      "velocity": 100
    },
    {
      "time": 45.75,
      "note": 74,
      "duration": 0.5,
      "velocity": 100
    },
    {
      "time": 46.25,
      "note": 77,
      "duration": 0.5,
      "velocity": 100
    },
    {
      "time": 46.25,
      "note": 84,
      "duration": 0.5,
      "velocity": 100
    },
    {
      "time": 46.25,
      "note": 86,
      "duration": 0.375,
      "velocity": 100
    },
    {
      "time": 46.625,
      "note": 84,
      "duration": 0.125,
      "velocity": 100
    },
    {
      "time": 46.75,
      "note": 84,
      "duration": 0.375,
      "velocity": 100
    },
    {
      "time": 47.125,
      "note": 86,
      "duration": 0.0625,
      "velocity": 100
    },
    {
      "time": 47.1875,
      "note": 84,
      "duration": 0.0625,
      "velocity": 100
    },
    {
      "time": 47.25,
      "note": 83,
      "duration": 0.5,
      "velocity": 100
    },
    {
      "time": 47.375,
      "note": 77,
      "duration": 0.25,
      "velocity": 100
    },
    {
      "time": 47.625,
      "note": 77,
      "duration": 0.25,
      "velocity": 100
    },
    {
      "time": 47.75,
      "note": 79,
      "duration": 0.25,
      "velocity": 100
    },
    {
      "time": 48.0,
      "note": 81,
      "duration": 0.25,
      "velocity": 100
    },
    {
      "time": 48.25,
      "note": 89,
      "duration": 1.0,
      "velocity": 100
    },
    {
      "time": 49.375,
      "note": 83,
      "duration": 0.25,
      "velocity": 100
    },
    {
      "time": 49.625,
      "note": 77,
      "duration": 0.125,
      "velocity": 100
    },
    {
      "time": 49.75,
      "note": 83,
      "duration": 0.25,
      "velocity": 100
    },
    {
      "time": 50.0,
      "note": 77,
      "duration": 0.125,
      "velocity": 100
    },
    {
      "time": 50.125,
      "note": 83,
      "duration": 0.125,
      "velocity": 100
    },
    {
      "time": 50.25,
      "note": 83,
      "duration": 0.125,
      "velocity": 100
    },
    {
      "time": 50.375,
      "note": 77,
      "duration": 0.125,
      "velocity": 100
    },
    {
      "time": 50.5,
      "note": 74,
      "duration": 0.125,
      "velocity": 100
    },
    {
      "time": 50.625,
      "note": 77,
      "duration": 0.125,
      "velocity": 100
    },
    {
      "time": 50.75,
      "note": 72,
      "duration": 0.125,
      "velocity": 100
    },
    {
      "time": 50.875,
      "note": 77,
      "duration": 0.125,
      "velocity": 100
    },
    {
      "time": 51.0,
      "note": 71,
      "duration": 0.25,
      "velocity": 100
    },
    {
      "time": 51.375,
      "note": 83,
      "duration": 0.25,
      "velocity": 100
    },
    {
      "time": 51.625,
      "note": 77,
      "duration": 0.125,
      "velocity": 100
    },
    {
      "time": 51.75,
      "note": 83,
      "duration": 0.25,
      "velocity": 100
    },
    {
      "time": 52.0,
      "note": 77,
      "duration": 0.125,
      "velocity": 100
    },
    {
      "time": 52.125,
      "note": 83,
      "duration": 0.125,
      "velocity": 100
    },
    {
      "time": 52.25,
      "note": 83,
      "duration": 0.125,
      "velocity": 100
    },
    {
      "time": 52.375,
      "note": 77,
      "duration": 0.125,
      "velocity": 100
    },
    {
      "time": 52.5,
      "note": 74,
      "duration": 0.125,
      "velocity": 100
    },
    {
      "time": 52.625,
      "note": 77,
      "duration": 0.125,
      "velocity": 100
    },
    {
      "time": 52.75,
      "note": 72,
      "duration": 0.125,
      "velocity": 100
    },
    {
      "time": 52.875,
      "note": 77,
      "duration": 0.125,
      "velocity": 100
    },
    {
      "time": 53.0,
      "note": 69,
      "duration": 0.25,
      "velocity": 100
    },
    {
      "time": 53.375,
      "note": 81,
      "duration": 0.5,
      "velocity": 100
    },
    {
      "time": 53.875,
      "note": 76,
      "duration": 0.5,
      "velocity": 100
    },
    {
      "time": 54.375,
      "note": 81,
      "duration": 0.25,
      "velocity": 100
    },
    {
      "time": 54.625,
      "note": 76,
      "duration": 0.125,
      "velocity": 100
    },
    {
      "time": 54.75,
      "note": 81,
      "duration": 0.125,
      "velocity": 100
    },
    {
      "time": 54.875,
      "note": 81,
      "duration": 0.125,
      "velocity": 100
    },
    {
      "time": 55.0,
      "note": 76,
      "duration": 0.125,
      "velocity": 100
    },
    {
      "time": 55.125,
      "note": 72,
      "duration": 0.125,
      "velocity": 100
    },
    {
      "time": 55.25,
      "note": 76,
      "duration": 0.125,
      "velocity": 100
    },
    {
      "time": 55.375,
      "note": 71,
      "duration": 0.125,
      "velocity": 100
    },
    {
      "time": 55.5,
      "note": 76,
      "duration": 0.125,
      "velocity": 100
    },
    {
      "time": 55.625,
      "note": 69,
      "duration": 0.25,
      "velocity": 100
    },
    {
      "time": 56.0,
      "note": 81,
      "duration": 0.125,
      "velocity": 100
    },
    {
      "time": 56.125,
      "note": 81,
      "duration": 0.125,
      "velocity": 100
    },
    {
      "time": 56.25,
      "note": 81,
      "duration": 0.125,
      "velocity": 100
    },
    {
      "time": 56.375,
      "note": 81,
      "duration": 0.125,
      "velocity": 100
    },
    {
      "time": 56.5,
      "note": 84,
      "duration": 0.125,
      "velocity": 100
    },
    {
      "time": 56.625,
      "note": 88,
      "duration": 0.25,
      "velocity": 100
    },
    {
      "time": 57.0,
      "note": 81,
      "duration": 0.125,
      "velocity": 100
    },
    {
      "time": 57.125,
      "note": 81,
      "duration": 0.125,
      "velocity": 100
    },
    {
      "time": 57.25,
      "note": 81,
      "duration": 0.125,
      "velocity": 100
    },
    {
      "time": 57.375,
      "note": 84,
      "duration": 0.125,
      "velocity": 100
    },
    {
      "time": 57.5,
      "note": 88,
      "duration": 0.125,
      "velocity": 100
    },
    {
      "time": 57.625,
      "note": 91,
      "duration": 0.25,
      "velocity": 100
    },
    {
      "time": 57.875,
      "note": 89,
      "duration": 0.25,
      "velocity": 100
    },
    {
      "time": 58.125,
      "note": 89,
      "duration": 0.125,
      "velocity": 100
    },
    {
      "time": 58.25,
      "note": 88,
      "duration": 0.125,
      "velocity": 100
    },
    {
      "time": 58.5,
      "note": 88,
      "duration": 0.125,
      "velocity": 100
    },
    {
      "time": 58.625,
      "note": 86,
      "duration": 0.25,
      "velocity": 100
    },
    {
      "time": 59.75,
      "note": 84,
      "duration": 0.25,
      "velocity": 100
    },
    {
      "time": 60.0,
      "note": 84,
      "duration": 0.125,
      "velocity": 100
    },
    {
      "time": 60.25,
      "note": 81,
      "duration": 0.25,
      "velocity": 100
    },
    {
      "time": 60.5,
      "note": 81,
      "duration": 0.125,
      "velocity": 100
    },
    {
      "time": 60.625,
      "note": 89,
      "duration": 1.0,
      "velocity": 100
    },
    {
      "time": 61.625,
      "note": 77,
      "duration": 0.25,
      "velocity": 100
    },
    {
      "time": 61.875,
      "note": 74,
      "duration": 0.125,
      "velocity": 100
    },
    {
      "time": 62.0,
      "note": 77,
      "duration": 0.125,
      "velocity": 100
    },
    {
      "time": 62.25,
      "note": 74,
      "duration": 0.125,
      "velocity": 100
    },
    {
      "time": 62.375,
      "note": 77,
      "duration": 0.25,
      "velocity": 100
    },
    {
      "time": 63.125,
      "note": 74,
      "duration": 0.375,
      "velocity": 100
    },
    {
      "time": 63.5,
      "note": 72,
      "duration": 0.125,
      "velocity": 100
    },
    {
      "time": 63.625,
      "note": 71,
      "duration": 0.5,
      "velocity": 100
    },
    {
      "time": 63.625,
      "note": 89,
      "duration": 0.125,
      "velocity": 100
    },
    {
      "time": 63.75,
      "note": 89,
      "duration": 0.125,
      "velocity": 100
    },
    {
      "time": 63.875,
      "note": 89,
      "duration": 0.125,
      "velocity": 100
    },
    {
      "time": 64.0,
      "note": 89,
      "duration": 0.125,
      "velocity": 100
    },
    {
      "time": 64.125,
      "note": 95,
      "duration": 0.125,
      "velocity": 100
    },
    {
      "time": 64.25,
      "note": 95,
      "duration": 0.125,
      "velocity": 100
    },
    {
      "time": 64.375,
      "note": 95,
      "duration": 0.125,
      "velocity": 100
    },
    {
      "time": 64.5,
      "note": 95,
      "duration": 0.125,
      "velocity": 100
    },
    {
      "time": 64.625,
      "note": 89,
      "duration": 0.125,
      "velocity": 100
    },
    {
      "time": 64.75,
      "note": 89,
      "duration": 0.125,
      "velocity": 100
    },
    {
      "time": 64.875,
      "note": 89,
      "duration": 0.125,
      "velocity": 100
    },
    {
      "time": 65.0,
      "note": 89,
      "duration": 0.125,
      "velocity": 100
    },
    {
      "time": 64.125,
      "note": 71,
      "duration": 1.0,
      "velocity": 100
    },
    {
      "time": 65.125,
      "note": 95,
      "duration": 0.5,
      "velocity": 100
    },
    {
      "time": 65.125,
      "note": 77,
      "duration": 0.125,
      "velocity": 100
    },
    {
      "time": 65.25,
      "note": 77,
      "duration": 0.125,
      "velocity": 100
    },
    {
      "time": 65.375,
      "note": 77,
      "duration": 0.125,
      "velocity": 100
    },
    {
      "time": 65.5,
      "note": 76,
      "duration": 0.25,
      "velocity": 100
    },
    {
      "time": 65.75,
      "note": 77,
      "duration": 0.25,
      "velocity": 100
    },
    {
      "time": 65.125,
      "note": 81,
      "duration": 1.0,
      "velocity": 100
    },
    {
      "time": 66.0,
      "note": 79,
      "duration": 0.375,
      "velocity": 100
    },
    {
      "time": 66.375,
      "note": 77,
      "duration": 0.125,
      "velocity": 100
    },
    {
      "time": 66.5,
      "note": 76,
      "duration": 0.5,
      "velocity": 100
    },
    {
      "time": 67.0,
      "note": 76,
      "duration": 0.5,
      "velocity": 100
    },
    {
      "time": 67.5,
      "note": 81,
      "duration": 0.125,
      "velocity": 100
    },
    {
      "time": 67.625,
      "note": 81,
      "duration": 0.125,
      "velocity": 100
    },
    {
      "time": 67.75,
      "note": 81,
      "duration": 0.125,
      "velocity": 100
    },
    {
      "time": 67.875,
      "note": 84,
      "duration": 0.25,
      "velocity": 100
    },
    {
      "time": 68.125,
      "note": 88,
      "duration": 0.125,
      "velocity": 100
    },
    {
      "time": 68.25,
      "note": 84,
      "duration": 0.125,
      "velocity": 100
    },
    {
      "time": 68.5,
      "note": 81,
      "duration": 0.125,
      "velocity": 100
    },
    {
      "time": 68.625,
      "note": 81,
      "duration": 0.125,
      "velocity": 100
    },
    {
      "time": 68.75,
      "note": 81,
      "duration": 0.125,
      "velocity": 100
    },
    {
      "time": 68.875,
      "note": 84,
      "duration": 0.125,
      "velocity": 100
    },
    {
      "time": 69.0,
      "note": 88,
      "duration": 0.125,
      "velocity": 100
    },
    {
      "time": 69.125,
      "note": 93,
      "duration": 0.25,
      "velocity": 100
    },
    {
      "time": 69.375,
      "note": 93,
      "duration": 1.0,
      "velocity": 100
    },
    {
      "time": 69.375,
      "note": 76,
      "duration": 0.25,
      "velocity": 100
    },
    {
      "time": 69.625,
      "note": 72,
      "duration": 0.125,
      "velocity": 100
    },
    {
      "time": 69.75,
      "note": 76,
      "duration": 0.125,
      "velocity": 100
    },
    {
      "time": 69.875,
      "note": 77,
      "duration": 1.0,
      "velocity": 100
    },
    {
      "time": 70.875,
      "note": 72,
      "duration": 0.125,
      "velocity": 100
    },
    {
      "time": 71.0,
      "note": 76,
      "duration": 0.25,
      "velocity": 100
    },
    {
      "time": 71.75,
      "note": 88,
      "duration": 0.125,
      "velocity": 100
    },
    {
      "time": 71.875,
      "note": 88,
      "duration": 0.125,
      "velocity": 100
    },
    {
      "time": 72.0,
      "note": 88,
      "duration": 0.125,
      "velocity": 100
    },
    {
      "time": 72.125,
      "note": 88,
      "duration": 0.125,
      "velocity": 100
    },
    {
      "time": 71.25,
      "note": 72,
      "duration": 0.375,
      "velocity": 100
    },
    {
      "time": 71.625,
      "note": 71,
      "duration": 0.125,
      "velocity": 100
    },
    {
      "time": 71.75,
      "note": 69,
      "duration": 0.5,
      "velocity": 100
    },
    {
      "time": 72.25,
      "note": 93,
      "duration": 0.125,
      "velocity": 100
    },
    {
      "time": 72.375,
      "note": 93,
      "duration": 0.1875,
      "velocity": 100
    },
    {
      "time": 72.5625,
      "note": 91,
      "duration": 0.25,
      "velocity": 100
    },
    {
      "time": 72.8125,
      "note": 93,
      "duration": 0.125,
      "velocity": 100
    },
    {
      "time": 72.9375,
      "note": 88,
      "duration": 0.125,
      "velocity": 100
    },
    {
      "time": 73.0625,
      "note": 88,
      "duration": 0.125,
      "velocity": 100
    },
    {
      "time": 73.1875,
      "note": 88,
      "duration": 0.125,
      "velocity": 100
    },
    {
      "time": 73.3125,
      "note": 88,
      "duration": 0.125,
      "velocity": 100
    },
    {
      "time": 73.4375,
      "note": 91,
      "duration": 1.0,
      "velocity": 100
    },
    {
      "time": 73.6875,
      "note": 76,
      "duration": 0.125,
      "velocity": 100
    },
    {
      "time": 73.8125,
      "note": 76,
      "duration": 0.125,
      "velocity": 100
    },
    {
      "time": 73.9375,
      "note": 76,
      "duration": 0.125,
      "velocity": 100
    },
    {
      "time": 74.0625,
      "note": 79,
      "duration": 0.375,
      "velocity": 100
    },
    {
      "time": 74.4375,
      "note": 79,
      "duration": 0.125,
      "velocity": 100
    },
    {
      "time": 74.5625,
      "note": 77,
      "duration": 0.375,
      "velocity": 100
    },
    {
      "time": 74.9375,
      "note": 76,
      "duration": 0.125,
      "velocity": 100
    },
    {
      "time": 75.0625,
      "note": 74,
      "duration": 0.5,
      "velocity": 100
    },
    {
      "time": 76.4375,
      "note": 77,
      "duration": 0.125,
      "velocity": 100
    },
    {
      "time": 76.5625,
      "note": 79,
      "duration": 0.375,
      "velocity": 100
    },
    {
      "time": 76.9375,
      "note": 77,
      "duration": 0.125,
      "velocity": 100
    },
    {
      "time": 77.0625,
      "note": 76,
      "duration": 0.5,
      "velocity": 100
    },
    {
      "time": 79.1875,
      "note": 72,
      "duration": 0.125,
      "velocity": 100
    },
    {
      "time": 79.3125,
      "note": 74,
      "duration": 0.25,
      "velocity": 100
    },
    {
      "time": 79.5625,
      "note": 74,
      "duration": 0.125,
      "velocity": 100
    },
    {
      "time": 79.8125,
      "note": 72,
      "duration": 0.375,
      "velocity": 100
    },
    {
      "time": 80.1875,
      "note": 72,
      "duration": 0.125,
      "velocity": 100
    },
    {
      "time": 80.3125,
      "note": 71,
      "duration": 0.5,
      "velocity": 100
    }
  ],
  "chords": [
    {
      "time": 0.0,
      "notes": [
        71,
        74,
        78
      ],
      "duration": 3.5135869565217392
    },
    {
      "time": 3.5135869565217392,
      "notes": [
        69,
        73,
        76
      ],
      "duration": 3.5135869565217392
    },
    {
      "time": 7.0271739130434785,
      "notes": [
        71,
        74,
        78
      ],
      "duration": 3.5135869565217392
    },
    {
      "time": 10.540760869565219,
      "notes": [
        69,
        73,
        76
      ],
      "duration": 3.5135869565217392
    },
    {
      "time": 14.054347826086957,
      "notes": [
        71,
        74,
        78
      ],
      "duration": 3.5135869565217392
    },
    {
      "time": 17.567934782608695,
      "notes": [
        71,
        74,
        78
      ],
      "duration": 3.5135869565217392
    },
    {
      "time": 21.081521739130437,
      "notes": [
        69,
        73,
        76
      ],
      "duration": 3.5135869565217392
    },
    {
      "time": 24.595108695652176,
      "notes": [
        69,
        73,
        76
      ],
      "duration": 3.5135869565217392
    },
    {
      "time": 28.108695652173914,
      "notes": [
        71,
        74,
        78
      ],
      "duration": 3.5135869565217392
    },
    {
      "time": 31.622282608695652,
      "notes": [
        64,
        67,
        71
      ],
      "duration": 3.5135869565217392
    },
    {
      "time": 35.13586956521739,
      "notes": [
        66,
        70,
        73,
        76
      ],
      "duration": 3.5135869565217392
    },
    {
      "time": 38.64945652173913,
      "notes": [
        71,
        74,
        78
      ],
      "duration": 3.5135869565217392
    },
    {
      "time": 42.163043478260875,
      "notes": [
        71,
        74,
        78
      ],
      "duration": 3.5135869565217392
    },
    {
      "time": 45.67663043478261,
      "notes": [
        69,
        73,
        76
      ],
      "duration": 3.5135869565217392
    },
    {
      "time": 49.19021739130435,
      "notes": [
        62,
        66,
        69
      ],
      "duration": 3.5135869565217392
    },
    {
      "time": 52.703804347826086,
      "notes": [
        66,
        70,
        73,
        76
      ],
      "duration": 3.5135869565217392
    },
    {
      "time": 56.21739130434783,
      "notes": [
        71,
        74,
        78
      ],
      "duration": 3.5135869565217392
    },
    {
      "time": 59.73097826086957,
      "notes": [
        69,
        73,
        76
      ],
      "duration": 3.5135869565217392
    },
    {
      "time": 63.244565217391305,
      "notes": [
        66,
        70,
        73,
        76
      ],
      "duration": 3.5135869565217392
    },
    {
      "time": 66.75815217391305,
      "notes": [
        71,
        74,
        78
      ],
      "duration": 3.5135869565217392
    },
    {
      "time": 70.27173913043478,
      "notes": [
        64,
        67,
        71
      ],
      "duration": 3.5135869565217392
    },
    {
      "time": 73.78532608695653,
      "notes": [
        66,
        70,
        73,
        76
      ],
      "duration": 3.5135869565217392
    },
    {
      "time": 77.29891304347827,
      "notes": [
        71,
        74,
        78
      ],
      "duration": 3.5135869565217392
    }
  ]
}