{
  "title": "No me arrepiento",
  "artist": "Gilda",
  "bpm": 120,
  "duration": 29.25,
  "audioFile": "",
  "notes": [
    {
      "time": 0.125,
      "note": 79,
      "duration": 0.125,
      "velocity": 100
    },
    {
      "time": 0.25,
      "note": 84,
      "duration": 0.125,
      "velocity": 100
    },
    {
      "time": 0.375,
      "note": 83,
      "duration": 0.125,
      "velocity": 100
    },
    {
      "time": 0.5,
      "note": 84,
      "duration": 0.125,
      "velocity": 100
    },
    {
      "time": 0.625,
      "note": 86,
      "duration": 0.125,
      "velocity": 100
    },
    {
      "time": 1.25,
      "note": 87,
      "duration": 0.25,
      "velocity": 100
    },
    {
      "time": 1.5,
      "note": 87,
      "duration": 0.125,
      "velocity": 100
    },
    {
      "time": 1.625,
      "note": 86,
      "duration": 0.125,
      "velocity": 100
    },
    {
      "time": 1.875,
      "note": 86,
      "duration": 0.5,
      "velocity": 100
    },
    {
      "time": 1.625,
      "note": 75,
      "duration": 0.5,
      "velocity": 100
    },
    {
      "time": 2.125,
      "note": 82,
      "duration": 0.5,
      "velocity": 100
    },
    {
      "time": 2.125,
      "note": 87,
      "duration": 0.125,
      "velocity": 100
    },
    {
      "time": 2.25,
      "note": 86,
      "duration": 0.125,
      "velocity": 100
    },
    {
      "time": 2.375,
      "note": 87,
      "duration": 0.125,
      "velocity": 100
    },
    {
      "time": 2.5,
      "note": 89,
      "duration": 0.125,
      "velocity": 100
    },
    {
      "time": 2.625,
      "note": 91,
      "duration": 0.25,
      "velocity": 100
    },
    {
      "time": 2.875,
      "note": 91,
      "duration": 0.125,
      "velocity": 100
    },
    {
      "time": 3.0,
      "note": 89,
      "duration": 0.125,
      "velocity": 100
    },
    {
      "time": 3.25,
      "note": 89,
      "duration": 0.125,
      "velocity": 100
    },
    {
      "time": 3.375,
      "note": 87,
      "duration": 0.25,
      "velocity": 100
    },
    {
      "time": 4.0,
      "note": 81,
      "duration": 0.5,
      "velocity": 100
    },
    {
      "time": 4.5,
      "note": 84,
      "duration": 0.5,
      "velocity": 100
    },
    {
      "time": 4.5,
      "note": 91,
      "duration": 0.5,
      "velocity": 100
    },
    {
      "time": 4.5,
      "note": 91,
      "duration": 0.125,
      "velocity": 100
    },
    {
      "time": 4.625,
      "note": 91,
      "duration": 0.125,
      "velocity": 100
    },
    {
      "time": 4.75,
      "note": 93,
      "duration": 0.125,
      "velocity": 100
    },
    {
      "time": 4.875,
      "note": 91,
      "duration": 0.125,
      "velocity": 100
    },
    {
      "time": 5.0,
      "note": 89,
      "duration": 0.25,
      "velocity": 100
    },
    {
      "time": 5.25,
      "note": 89,
      "duration": 0.125,
      "velocity": 100
    },
    {
      "time": 5.375,
      "note": 87,
      "duration": 0.125,
      "velocity": 100
    },
    {
      "time": 5.625,
      "note": 87,
      "duration": 0.125,
      "velocity": 100
    },
    {
      "time": 5.75,
      "note": 86,
      "duration": 0.25,
      "velocity": 100
    },
    {
      "time": 6.375,
      "note": 75,
      "duration": 0.5,
      "velocity": 100
    },
    {
      "time": 6.875,
      "note": 79,
      "duration": 0.5,
      "velocity": 100
    },
    {
      "time": 6.875,
      "note": 86,
      "duration": 0.5,
      "velocity": 100
    },
    {
      "time": 6.875,
      "note": 86,
      "duration": 0.125,
      "velocity": 100
    },
    {
      "time": 7.0,
      "note": 86,
      "duration": 0.125,
      "velocity": 100
    },
    {
      "time": 7.125,
      "note": 87,
      "duration": 0.125,
      "velocity": 100
    },
    {
      "time": 7.25,
      "note": 86,
      "duration": 0.125,
      "velocity": 100
    },
    {
      "time": 7.375,
      "note": 84,
      "duration": 0.25,
      "velocity": 100
    },
    {
      "time": 7.625,
      "note": 84,
      "duration": 0.125,
      "velocity": 100
    },
    {
      "time": 7.75,
      "note": 86,
      "duration": 0.125,
      "velocity": 100
    },
    {
      "time": 8.0,
      "note": 86,
      "duration": 0.5,
      "velocity": 100
    },
    {
      "time": 7.375,
      "note": 77,
      "duration": 1.0,
      "velocity": 100
    },
    {
      "time": 8.375,
      "note": 87,
      "duration": 1.0,
      "velocity": 100
    },
    {
      "time": 7.375,
      "note": 87,
      "duration": 0.25,
      "velocity": 100
    },
    {
      "time": 7.625,
      "note": 91,
      "duration": 0.125,
      "velocity": 100
    },
    {
      "time": 7.75,
      "note": 86,
      "duration": 0.125,
      "velocity": 100
    },
    {
      "time": 7.875,
      "note": 86,
      "duration": 0.125,
      "velocity": 100
    },
    {
      "time": 8.0,
      "note": 91,
      "duration": 0.125,
      "velocity": 100
    },
    {
      "time": 8.125,
      "note": 84,
      "duration": 0.25,
      "velocity": 100
    },
    {
      "time": 8.375,
      "note": 84,
      "duration": 0.25,
      "velocity": 100
    },
    {
      "time": 8.625,
      "note": 82,
      "duration": 0.25,
      "velocity": 100
    },
    {
      "time": 8.875,
      "note": 87,
      "duration": 0.25,
      "velocity": 100
    },
    {
      "time": 9.125,
      "note": 89,
      "duration": 0.25,
      "velocity": 100
    },
    {
      "time": 8.375,
      "note": 91,
      "duration": 0.25,
      "velocity": 100
    },
    {
      "time": 8.625,
      "note": 91,
      "duration": 0.125,
      "velocity": 100
    },
    {
      "time": 8.75,
      "note": 89,
      "duration": 0.125,
      "velocity": 100
    },
    {
      "time": 9.0,
      "note": 87,
      "duration": 0.125,
      "velocity": 100
    },
    {
      "time": 9.125,
      "note": 91,
      "duration": 0.25,
      "velocity": 100
    },
    {
      "time": 9.75,
      "note": 91,
      "duration": 0.125,
      "velocity": 100
    },
    {
      "time": 9.875,
      "note": 91,
      "duration": 0.125,
      "velocity": 100
    },
    {
      "time": 10.0,
      "note": 93,
      "duration": 0.125,
      "velocity": 100
    },
    {
      "time": 10.125,
      "note": 91,
      "duration": 0.125,
      "velocity": 100
    },
    {
      "time": 9.375,
      "note": 79,
      "duration": 0.125,
      "velocity": 100
    },
    {
      "time": 9.5,
      "note": 77,
      "duration": 0.125,
      "velocity": 100
    },
    {
      "time": 9.625,
      "note": 77,
      "duration": 0.125,
      "velocity": 100
    },
    {
      "time": 9.625,
      "note": 91,
      "duration": 0.125,
      "velocity": 100
    },
    {
      "time": 9.75,
      "note": 89,
      "duration": 0.25,
      "velocity": 100
    },
    {
      "time": 10.0,
      "note": 89,
      "duration": 0.125,
      "velocity": 100
    },
    {
      "time": 10.125,
      "note": 87,
      "duration": 0.125,
      "velocity": 100
    },
    {
      "time": 10.25,
      "note": 87,
      "duration": 0.125,
      "velocity": 100
    },
    {
      "time": 10.375,
      "note": 87,
      "duration": 0.125,
      "velocity": 100
    },
    {
      "time": 10.5,
      "note": 86,
      "duration": 0.25,
      "velocity": 100
    },
    {
      "time": 11.125,
      "note": 79,
      "duration": 0.125,
      "velocity": 100
    },
    {
      "time": 11.25,
      "note": 79,
      "duration": 0.125,
      "velocity": 100
    },
    {
      "time": 11.375,
      "note": 79,
      "duration": 0.125,
      "velocity": 100
    },
    {
      "time": 11.5,
      "note": 91,
      "duration": 0.125,
      "velocity": 100
    },
    {
      "time": 11.625,
      "note": 89,
      "duration": 0.125,
      "velocity": 100
    },
    {
      "time": 11.75,
      "note": 87,
      "duration": 0.25,
      "velocity": 100
    },
    {
      "time": 12.0,
      "note": 91,
      "duration": 0.125,
      "velocity": 100
    },
    {
      "time": 12.125,
      "note": 86,
      "duration": 0.125,
      "velocity": 100
    },
    {
      "time": 12.375,
      "note": 91,
      "duration": 0.5,
      "velocity": 100
    },
    {
      "time": 12.25,
      "note": 87,
      "duration": 0.25,
      "velocity": 100
    },
    {
      "time": 12.5,
      "note": 89,
      "duration": 0.25,
      "velocity": 100
    },
    {
      "time": 12.75,
      "note": 91,
      "duration": 0.375,
      "velocity": 100
    },
    {
      "time": 13.125,
      "note": 91,
      "duration": 0.125,
      "velocity": 100
    },
    {
      "time": 13.25,
      "note": 91,
      "duration": 0.25,
      "velocity": 100
    },
    {
      "time": 13.5,
      "note": 91,
      "duration": 0.125,
      "velocity": 100
    },
    {
      "time": 13.625,
      "note": 91,
      "duration": 0.125,
      "velocity": 100
    },
    {
      "time": 13.75,
      "note": 91,
      "duration": 0.125,
      "velocity": 100
    },
    {
      "time": 13.875,
      "note": 91,
      "duration": 0.375,
      "velocity": 100
    },
    {
      "time": 14.5,
      "note": 93,
      "duration": 0.125,
      "velocity": 100
    },
    {
      "time": 14.625,
      "note": 91,
      "duration": 0.125,
      "velocity": 100
    },
    {
      "time": 14.75,
      "note": 89,
      "duration": 0.25,
      "velocity": 100
    },
    {
      "time": 15.0,
      "note": 94,
      "duration": 0.25,
      "velocity": 100
    },
    {
      "time": 15.25,
      "note": 94,
      "duration": 0.125,
      "velocity": 100
    },
    {
      "time": 15.375,
      "note": 93,
      "duration": 0.25,
      "velocity": 100
    },
    {
      "time": 15.625,
      "note": 89,
      "duration": 0.125,
      "velocity": 100
    },
    {
      "time": 15.75,
      "note": 89,
      "duration": 0.125,
      "velocity": 100
    },
    {
      "time": 15.875,
      "note": 89,
      "duration": 0.375,
      "velocity": 100
    },
    {
      "time": 16.5,
      "note": 89,
      "duration": 0.125,
      "velocity": 100
    },
    {
      "time": 16.625,
      "note": 91,
      "duration": 0.125,
      "velocity": 100
    },
    {
      "time": 16.75,
      "note": 93,
      "duration": 0.375,
      "velocity": 100
    },
    {
      "time": 17.125,
      "note": 93,
      "duration": 0.125,
      "velocity": 100
    },
    {
      "time": 17.25,
      "note": 93,
      "duration": 0.25,
      "velocity": 100
    },
    {
      "time": 17.5,
      "note": 93,
      "duration": 0.125,
      "velocity": 100
    },
    {
      "time": 17.625,
      "note": 93,
      "duration": 0.125,
      "velocity": 100
    },
    {
      "time": 17.75,
      "note": 93,
      "duration": 0.125,
      "velocity": 100
    },
    {
      "time": 17.875,
      "note": 87,
      "duration": 0.375,
      "velocity": 100
    },
    {
      "time": 18.25,
      "note": 87,
      "duration": 0.25,
      "velocity": 100
    },
    {
      "time": 18.5,
      "note": 89,
      "duration": 0.125,
      "velocity": 100
    },
    {
      "time": 18.625,
      "note": 87,
      "duration": 0.125,
      "velocity": 100
    },
    {
      "time": 18.75,
      "note": 91,
      "duration": 0.5,
      "velocity": 100
    },
    {
      "time": 19.25,
      "note": 91,
      "duration": 0.125,
      "velocity": 100
    },
    {
      "time": 19.375,
      "note": 89,
      "duration": 0.125,
      "velocity": 100
    },
    {
      "time": 19.5,
      "note": 87,
      "duration": 0.125,
      "velocity": 100
    },
    {
      "time": 19.625,
      "note": 89,
      "duration": 0.125,
      "velocity": 100
    },
    {
      "time": 19.75,
      "note": 89,
      "duration": 0.5,
      "velocity": 100
    },
    {
      "time": 20.5,
      "note": 87,
      "duration": 0.25,
      "velocity": 100
    },
    {
      "time": 20.75,
      "note": 89,
      "duration": 0.25,
      "velocity": 100
    },
    {
      "time": 21.0,
      "note": 91,
      "duration": 0.375,
      "velocity": 100
    },
    {
      "time": 21.375,
      "note": 91,
      "duration": 0.125,
      "velocity": 100
    },
    {
      "time": 21.5,
      "note": 91,
      "duration": 0.25,
      "velocity": 100
    },
    {
      "time": 21.75,
      "note": 91,
      "duration": 0.125,
      "velocity": 100
    },
    {
      "time": 21.875,
      "note": 91,
      "duration": 0.125,
      "velocity": 100
    },
    {
      "time": 22.0,
      "note": 91,
      "duration": 0.125,
      "velocity": 100
    },
    {
      "time": 22.125,
      "note": 91,
      "duration": 0.375,
      "velocity": 100
    },
    {
      "time": 22.75,
      "note": 93,
      "duration": 0.125,
      "velocity": 100
    },
    {
      "time": 22.875,
      "note": 91,
      "duration": 0.125,
      "velocity": 100
    },
    {
      "time": 23.0,
      "note": 89,
      "duration": 0.25,
      "velocity": 100
    },
    {
      "time": 23.25,
      "note": 94,
      "duration": 0.25,
      "velocity": 100
    },
    {
      "time": 23.5,
      "note": 94,
      "duration": 0.125,
      "velocity": 100
    },
    {
      "time": 23.625,
      "note": 93,
      "duration": 0.25,
      "velocity": 100
    },
    {
      "time": 23.875,
      "note": 94,
      "duration": 0.125,
      "velocity": 100
    },
    {
      "time": 24.0,
      "note": 94,
      "duration": 0.125,
      "velocity": 100
    },
    {
      "time": 24.125,
      "note": 89,
      "duration": 0.375,
      "velocity": 100
    },
    {
      "time": 24.75,
      "note": 89,
      "duration": 0.125,
      "velocity": 100
    },
    {
      "time": 24.875,
      "note": 91,
      "duration": 0.125,
      "velocity": 100
    },
    {
      "time": 25.0,
      "note": 93,
      "duration": 0.375,
      "velocity": 100
    },
    {
      "time": 25.375,
      "note": 93,
      "duration": 0.125,
      "velocity": 100
    },
    {
      "time": 25.5,
      "note": 93,
      "duration": 0.25,
      "velocity": 100
    },
    {
      "time": 25.75,
      "note": 93,
      "duration": 0.125,
      "velocity": 100
    },
    {
      "time": 25.875,
      "note": 93,
      "duration": 0.125,
      "velocity": 100
    },
    {
      "time": 26.0,
      "note": 93,
      "duration": 0.125,
      "velocity": 100
    },
    {
      "time": 26.125,
      "note": 93,
      "duration": 0.375,
      "velocity": 100
    },
    {
      "time": 26.5,
      "note": 94,
      "duration": 0.25,
      "velocity": 100
    },
    {
      "time": 26.75,
      "note": 93,
      "duration": 0.25,
      "velocity": 100
    },
    {
      "time": 27.0,
      "note": 91,
      "duration": 0.375,
      "velocity": 100
    },
    {
      "time": 27.375,
      "note": 93,
      "duration": 0.125,
      "velocity": 100
    },
    {
      "time": 27.5,
      "note": 91,
      "duration": 0.375,
      "velocity": 100
    },
    {
      "time": 27.875,
      "note": 93,
      "duration": 0.125,
      "velocity": 100
    },
    {
      "time": 28.0,
      "note": 82,
      "duration": 0.5,
      "velocity": 100
    },
    {
      "time": 28.5,
      "note": 91,
      "duration": 0.5,
      "velocity": 100
    },
    {
      "time": 28.5,
      "note": 79,
      "duration": 0.25,
      "velocity": 100
    },
    {
      "time": 28.75,
      "note": 84,
      "duration": 0.25,
      "velocity": 100
    },
    {
      "time": 29.0,
      "note": 86,
      "duration": 0.25,
      "velocity": 100
    }
  ],
  "chords": [
    {
      "time": 0.0,
      "notes": [
        67,
        71,
        74
      ],
      "duration": 1.3295454545454546
    },
    {
      "time": 1.3295454545454546,
      "notes": [
        60,
        63,
        67
      ],
      "duration": 1.3295454545454546
    },
    {
      "time": 2.659090909090909,
      "notes": [
        63,
        67,
        70
      ],
      "duration": 1.3295454545454546
    },
    {
      "time": 3.9886363636363638,
      "notes": [
        65,
        68,
        72
      ],
      "duration": 1.3295454545454546
    },
    {
      "time": 5.318181818181818,
      "notes": [
        67,
        71,
        74,
        77
      ],
      "duration": 1.3295454545454546
    },
    {
      "time": 6.647727272727273,
      "notes": [
        60,
        63,
        67
      ],
      "duration": 1.3295454545454546
    },
    {
      "time": 7.9772727272727275,
      "notes": [
        67,
        71,
        74
      ],
      "duration": 1.3295454545454546
    },
    {
      "time": 9.306818181818182,
      "notes": [
        60,
        63,
        67
      ],
      "duration": 1.3295454545454546
    },
    {
      "time": 10.636363636363637,
      "notes": [
        63,
        67,
        70
      ],
      "duration": 1.3295454545454546
    },
    {
      "time": 11.965909090909092,
      "notes": [
        65,
        68,
        72
      ],
      "duration": 1.3295454545454546
    },
    {
      "time": 13.295454545454547,
      "notes": [
        67,
        71,
        74,
        77
      ],
      "duration": 1.3295454545454546
    },
    {
      "time": 14.625,
      "notes": [
        60,
        63,
        67
      ],
      "duration": 1.3295454545454546
    },
    {
      "time": 15.954545454545455,
      "notes": [
        60,
        63,
        67
      ],
      "duration": 1.3295454545454546
    },
    {
      "time": 17.28409090909091,
      "notes": [
        63,
        67,
        70
      ],
      "duration": 1.3295454545454546
    },
    {
      "time": 18.613636363636363,
      "notes": [
        70,
        74,
        77
      ],
      "duration": 1.3295454545454546
    },
    {
      "time": 19.94318181818182,
      "notes": [
        68,
        72,
        75
      ],
      "duration": 1.3295454545454546
    },
    {
      "time": 21.272727272727273,
      "notes": [
        63,
        67,
        70
      ],
      "duration": 1.3295454545454546
    },
    {
      "time": 22.602272727272727,
      "notes": [
        70,
        74,
        77,
        80
      ],
      "duration": 1.3295454545454546
    },
    {
      "time": 23.931818181818183,
      "notes": [
        63,
        67,
        70
      ],
      "duration": 1.3295454545454546
    },
    {
      "time": 25.261363636363637,
      "notes": [
        70,
        74,
        77
      ],
      "duration": 1.3295454545454546
    },
    {
      "time": 26.590909090909093,
      "notes": [
        68,
        72,
        75
      ],
      "duration": 1.3295454545454546
    },
    {
      "time": 27.920454545454547,
      "notes": [
        67,
        71,
        74,
        77
      ],
      "duration": 1.3295454545454546
    }
  ]
}