{
  "title": "Pibe Cantina",
  "artist": "Yerba Brava",
  "bpm": 120,
  "duration": 47.5,
  "audioFile": "",
  "notes": [
    {
      "time": 0.0,
      "note": 77,
      "duration": 0.25,
      "velocity": 100
    },
    {
      "time": 0.25,
      "note": 77,
      "duration": 0.125,
      "velocity": 100
    },
    {
      "time": 0.375,
      "note": 83,
      "duration": 0.125,
      "velocity": 100
    },
    {
      "time": 0.5,
      "note": 86,
      "duration": 0.25,
      "velocity": 100
    },
    {
      "time": 0.75,
      "note": 83,
      "duration": 0.125,
      "velocity": 100
    },
    {
      "time": 0.875,
      "note": 77,
      "duration": 0.125,
      "velocity": 100
    },
    {
      "time": 1.0,
      "note": 74,
      "duration": 0.25,
      "velocity": 100
    },
    {
      "time": 1.25,
      "note": 77,
      "duration": 0.125,
      "velocity": 100
    },
    {
      "time": 1.375,
      "note": 83,
      "duration": 0.125,
      "velocity": 100
    },
    {
      "time": 1.5,
      "note": 86,
      "duration": 0.125,
      "velocity": 100
    },
    {
      "time": 1.625,
      "note": 83,
      "duration": 0.125,
      "velocity": 100
    },
    {
      "time": 1.75,
      "note": 77,
      "duration": 0.25,
      "velocity": 100
    },
    {
      "time": 2.0,
      "note": 83,
      "duration": 1.0,
      "velocity": 100
    },
    {
      "time": 3.0,
      "note": 71,
      "duration": 0.25,
      "velocity": 100
    },
    {
      "time": 3.25,
      "note": 71,
      "duration": 0.125,
      "velocity": 100
    },
    {
      "time": 3.375,
      "note": 74,
      "duration": 0.125,
      "velocity": 100
    },
    {
      "time": 3.5,
      "note": 77,
      "duration": 0.25,
      "velocity": 100
    },
    {
      "time": 3.75,
      "note": 74,
      "duration": 0.125,
      "velocity": 100
    },
    {
      "time": 3.875,
      "note": 77,
      "duration": 0.125,
      "velocity": 100
    },
    {
      "time": 4.0,
      "note": 83,
      "duration": 0.25,
      "velocity": 100
    },
    {
      "time": 4.25,
      "note": 81,
      "duration": 0.125,
      "velocity": 100
    },
    {
      "time": 4.375,
      "note": 83,
      "duration": 0.125,
      "velocity": 100
    },
    {
      "time": 4.5,
      "note": 81,
      "duration": 0.125,
      "velocity": 100
    },
    {
      "time": 4.625,
      "note": 81,
      "duration": 0.125,
      "velocity": 100
    },
    {
      "time": 4.75,
      "note": 77,
      "duration": 0.25,
      "velocity": 100
    },
    {
      "time": 5.0,
      "note": 69,
      "duration": 0.25,
      "velocity": 100
    },
    {
      "time": 5.25,
      "note": 69,
      "duration": 0.125,
      "velocity": 100
    },
    {
      "time": 5.375,
      "note": 72,
      "duration": 0.125,
      "velocity": 100
    },
    {
      "time": 5.5,
      "note": 76,
      "duration": 0.25,
      "velocity": 100
    },
    {
      "time": 5.75,
      "note": 72,
      "duration": 0.125,
      "velocity": 100
    },
    {
      "time": 5.875,
      "note": 76,
      "duration": 0.125,
      "velocity": 100
    },
    {
      "time": 6.0,
      "note": 81,
      "duration": 0.25,
      "velocity": 100
    },
    {
      "time": 6.25,
      "note": 79,
      "duration": 0.125,
      "velocity": 100
    },
    {
      "time": 6.375,
      "note": 81,
      "duration": 0.125,
      "velocity": 100
    },
    {
      "time": 6.5,
      "note": 79,
      "duration": 0.125,
      "velocity": 100
    },
    {
      "time": 6.625,
      "note": 79,
      "duration": 0.125,
      "velocity": 100
    },
    {
      "time": 6.75,
      "note": 76,
      "duration": 0.25,
      "velocity": 100
    },
    {
      "time": 7.0,
      "note": 71,
      "duration": 0.5,
      "velocity": 100
    },
    {
      "time": 7.625,
      "note": 77,
      "duration": 0.125,
      "velocity": 100
    },
    {
      "time": 7.75,
      "note": 83,
      "duration": 0.125,
      "velocity": 100
    },
    {
      "time": 7.875,
      "note": 84,
      "duration": 0.125,
      "velocity": 100
    },
    {
      "time": 8.0,
      "note": 86,
      "duration": 0.125,
      "velocity": 100
    },
    {
      "time": 8.125,
      "note": 83,
      "duration": 0.125,
      "velocity": 100
    },
    {
      "time": 8.25,
      "note": 83,
      "duration": 0.125,
      "velocity": 100
    },
    {
      "time": 8.375,
      "note": 84,
      "duration": 0.125,
      "velocity": 100
    },
    {
      "time": 8.5,
      "note": 86,
      "duration": 0.125,
      "velocity": 100
    },
    {
      "time": 8.625,
      "note": 86,
      "duration": 0.125,
      "velocity": 100
    },
    {
      "time": 8.75,
      "note": 84,
      "duration": 0.125,
      "velocity": 100
    },
    {
      "time": 8.875,
      "note": 83,
      "duration": 0.125,
      "velocity": 100
    },
    {
      "time": 9.0,
      "note": 84,
      "duration": 0.375,
      "velocity": 100
    },
    {
      "time": 9.375,
      "note": 84,
      "duration": 0.125,
      "velocity": 100
    },
    {
      "time": 10.125,
      "note": 84,
      "duration": 0.25,
      "velocity": 100
    },
    {
      "time": 10.375,
      "note": 84,
      "duration": 0.125,
      "velocity": 100
    },
    {
      "time": 10.5,
      "note": 84,
      "duration": 0.125,
      "velocity": 100
    },
    {
      "time": 10.625,
      "note": 83,
      "duration": 0.25,
      "velocity": 100
    },
    {
      "time": 10.875,
      "note": 81,
      "duration": 0.125,
      "velocity": 100
    },
    {
      "time": 11.0,
      "note": 83,
      "duration": 0.375,
      "velocity": 100
    },
    {
      "time": 11.375,
      "note": 83,
      "duration": 0.125,
      "velocity": 100
    },
    {
      "time": 12.125,
      "note": 83,
      "duration": 0.25,
      "velocity": 100
    },
    {
      "time": 12.375,
      "note": 83,
      "duration": 0.125,
      "velocity": 100
    },
    {
      "time": 12.5,
      "note": 83,
      "duration": 0.125,
      "velocity": 100
    },
    {
      "time": 12.625,
      "note": 83,
      "duration": 0.125,
      "velocity": 100
    },
    {
      "time": 12.75,
      "note": 81,
      "duration": 0.125,
      "velocity": 100
    },
    {
      "time": 12.875,
      "note": 79,
      "duration": 0.125,
      "velocity": 100
    },
    {
      "time": 13.0,
      "note": 77,
      "duration": 0.25,
      "velocity": 100
    },
    {
      "time": 13.25,
      "note": 76,
      "duration": 0.125,
      "velocity": 100
    },
    {
      "time": 13.375,
      "note": 77,
      "duration": 0.125,
      "velocity": 100
    },
    {
      "time": 13.625,
      "note": 74,
      "duration": 0.125,
      "velocity": 100
    },
    {
      "time": 13.75,
      "note": 77,
      "duration": 0.125,
      "velocity": 100
    },
    {
      "time": 13.875,
      "note": 81,
      "duration": 0.125,
      "velocity": 100
    },
    {
      "time": 14.625,
      "note": 86,
      "duration": 0.125,
      "velocity": 100
    },
    {
      "time": 14.75,
      "note": 83,
      "duration": 0.125,
      "velocity": 100
    },
    {
      "time": 14.875,
      "note": 84,
      "duration": 0.125,
      "velocity": 100
    },
    {
      "time": 14.0,
      "note": 86,
      "duration": 0.375,
      "velocity": 100
    },
    {
      "time": 14.375,
      "note": 86,
      "duration": 0.25,
      "velocity": 100
    },
    {
      "time": 14.875,
      "note": 77,
      "duration": 0.5,
      "velocity": 100
    },
    {
      "time": 15.375,
      "note": 86,
      "duration": 0.125,
      "velocity": 100
    },
    {
      "time": 15.5,
      "note": 83,
      "duration": 0.125,
      "velocity": 100
    },
    {
      "time": 15.625,
      "note": 83,
      "duration": 0.125,
      "velocity": 100
    },
    {
      "time": 15.75,
      "note": 84,
      "duration": 0.125,
      "velocity": 100
    },
    {
      "time": 15.875,
      "note": 86,
      "duration": 0.125,
      "velocity": 100
    },
    {
      "time": 16.0,
      "note": 86,
      "duration": 0.125,
      "velocity": 100
    },
    {
      "time": 16.125,
      "note": 84,
      "duration": 0.125,
      "velocity": 100
    },
    {
      "time": 16.25,
      "note": 83,
      "duration": 0.125,
      "velocity": 100
    },
    {
      "time": 16.125,
      "note": 74,
      "duration": 0.25,
      "velocity": 100
    },
    {
      "time": 16.625,
      "note": 84,
      "duration": 0.375,
      "velocity": 100
    },
    {
      "time": 17.0,
      "note": 84,
      "duration": 0.125,
      "velocity": 100
    },
    {
      "time": 16.5,
      "note": 84,
      "duration": 0.25,
      "velocity": 100
    },
    {
      "time": 16.75,
      "note": 84,
      "duration": 0.125,
      "velocity": 100
    },
    {
      "time": 16.875,
      "note": 84,
      "duration": 0.125,
      "velocity": 100
    },
    {
      "time": 17.0,
      "note": 83,
      "duration": 0.25,
      "velocity": 100
    },
    {
      "time": 17.25,
      "note": 81,
      "duration": 0.125,
      "velocity": 100
    },
    {
      "time": 17.0,
      "note": 69,
      "duration": 0.125,
      "velocity": 100
    },
    {
      "time": 17.125,
      "note": 72,
      "duration": 0.125,
      "velocity": 100
    },
    {
      "time": 17.25,
      "note": 76,
      "duration": 0.125,
      "velocity": 100
    },
    {
      "time": 17.375,
      "note": 83,
      "duration": 0.375,
      "velocity": 100
    },
    {
      "time": 17.75,
      "note": 83,
      "duration": 0.125,
      "velocity": 100
    },
    {
      "time": 17.5,
      "note": 74,
      "duration": 0.125,
      "velocity": 100
    },
    {
      "time": 17.625,
      "note": 83,
      "duration": 0.125,
      "velocity": 100
    },
    {
      "time": 17.75,
      "note": 83,
      "duration": 0.125,
      "velocity": 100
    },
    {
      "time": 17.875,
      "note": 83,
      "duration": 0.125,
      "velocity": 100
    },
    {
      "time": 18.0,
      "note": 83,
      "duration": 0.125,
      "velocity": 100
    },
    {
      "time": 18.125,
      "note": 81,
      "duration": 0.125,
      "velocity": 100
    },
    {
      "time": 18.25,
      "note": 83,
      "duration": 0.125,
      "velocity": 100
    },
    {
      "time": 18.0,
      "note": 67,
      "duration": 0.125,
      "velocity": 100
    },
    {
      "time": 18.125,
      "note": 71,
      "duration": 0.125,
      "velocity": 100
    },
    {
      "time": 18.25,
      "note": 74,
      "duration": 0.125,
      "velocity": 100
    },
    {
      "time": 18.375,
      "note": 84,
      "duration": 0.125,
      "velocity": 100
    },
    {
      "time": 18.5,
      "note": 83,
      "duration": 0.25,
      "velocity": 100
    },
    {
      "time": 18.75,
      "note": 84,
      "duration": 0.125,
      "velocity": 100
    },
    {
      "time": 18.875,
      "note": 84,
      "duration": 0.5,
      "velocity": 100
    },
    {
      "time": 18.375,
      "note": 69,
      "duration": 0.375,
      "velocity": 100
    },
    {
      "time": 18.75,
      "note": 76,
      "duration": 0.25,
      "velocity": 100
    },
    {
      "time": 19.0,
      "note": 76,
      "duration": 0.375,
      "velocity": 100
    },
    {
      "time": 19.375,
      "note": 81,
      "duration": 0.25,
      "velocity": 100
    },
    {
      "time": 19.625,
      "note": 84,
      "duration": 0.5,
      "velocity": 100
    },
    {
      "time": 20.25,
      "note": 84,
      "duration": 0.25,
      "velocity": 100
    },
    {
      "time": 20.5,
      "note": 84,
      "duration": 0.125,
      "velocity": 100
    },
    {
      "time": 20.875,
      "note": 83,
      "duration": 0.125,
      "velocity": 100
    },
    {
      "time": 21.0,
      "note": 83,
      "duration": 0.25,
      "velocity": 100
    },
    {
      "time": 21.25,
      "note": 83,
      "duration": 0.125,
      "velocity": 100
    },
    {
      "time": 21.375,
      "note": 83,
      "duration": 0.25,
      "velocity": 100
    },
    {
      "time": 21.625,
      "note": 83,
      "duration": 0.25,
      "velocity": 100
    },
    {
      "time": 22.375,
      "note": 86,
      "duration": 0.125,
      "velocity": 100
    },
    {
      "time": 22.5,
      "note": 84,
      "duration": 0.25,
      "velocity": 100
    },
    {
      "time": 22.75,
      "note": 83,
      "duration": 0.125,
      "velocity": 100
    },
    {
      "time": 22.875,
      "note": 81,
      "duration": 0.5,
      "velocity": 100
    },
    {
      "time": 24.75,
      "note": 81,
      "duration": 0.125,
      "velocity": 100
    },
    {
      "time": 24.875,
      "note": 83,
      "duration": 0.125,
      "velocity": 100
    },
    {
      "time": 25.0,
      "note": 83,
      "duration": 0.25,
      "velocity": 100
    },
    {
      "time": 25.25,
      "note": 83,
      "duration": 0.125,
      "velocity": 100
    },
    {
      "time": 25.375,
      "note": 83,
      "duration": 0.25,
      "velocity": 100
    },
    {
      "time": 25.625,
      "note": 83,
      "duration": 0.25,
      "velocity": 100
    },
    {
      "time": 26.0,
      "note": 83,
      "duration": 0.25,
      "velocity": 100
    },
    {
      "time": 26.25,
      "note": 83,
      "duration": 0.125,
      "velocity": 100
    },
    {
      "time": 26.375,
      "note": 83,
      "duration": 0.125,
      "velocity": 100
    },
    {
      "time": 26.5,
      "note": 81,
      "duration": 0.25,
      "velocity": 100
    },
    {
      "time": 26.75,
      "note": 83,
      "duration": 0.125,
      "velocity": 100
    },
    {
      "time": 27.375,
      "note": 84,
      "duration": 1.0,
      "velocity": 100
    },
    {
      "time": 26.875,
      "note": 84,
      "duration": 0.5,
      "velocity": 100
    },
    {
      "time": 28.375,
      "note": 89,
      "duration": 0.125,
      "velocity": 100
    },
    {
      "time": 28.5,
      "note": 88,
      "duration": 0.25,
      "velocity": 100
    },
    {
      "time": 28.75,
      "note": 86,
      "duration": 0.125,
      "velocity": 100
    },
    {
      "time": 28.875,
      "note": 88,
      "duration": 0.125,
      "velocity": 100
    },
    {
      "time": 29.0,
      "note": 84,
      "duration": 0.25,
      "velocity": 100
    },
    {
      "time": 29.25,
      "note": 86,
      "duration": 0.125,
      "velocity": 100
    },
    {
      "time": 29.375,
      "note": 88,
      "duration": 0.125,
      "velocity": 100
    },
    {
      "time": 29.5,
      "note": 86,
      "duration": 0.25,
      "velocity": 100
    },
    {
      "time": 29.75,
      "note": 88,
      "duration": 0.125,
      "velocity": 100
    },
    {
      "time": 29.875,
      "note": 89,
      "duration": 0.5,
      "velocity": 100
    },
    {
      "time": 30.5,
      "note": 89,
      "duration": 0.125,
      "velocity": 100
    },
    {
      "time": 30.625,
      "note": 88,
      "duration": 0.125,
      "velocity": 100
    },
    {
      "time": 30.75,
      "note": 86,
      "duration": 0.125,
      "velocity": 100
    },
    {
      "time": 30.875,
      "note": 88,
      "duration": 0.125,
      "velocity": 100
    },
    {
      "time": 31.0,
      "note": 88,
      "duration": 0.25,
      "velocity": 100
    },
    {
      "time": 31.25,
      "note": 88,
      "duration": 0.125,
      "velocity": 100
    },
    {
      "time": 31.375,
      "note": 88,
      "duration": 0.125,
      "velocity": 100
    },
    {
      "time": 31.5,
      "note": 88,
      "duration": 0.125,
      "velocity": 100
    },
    {
      "time": 31.625,
      "note": 86,
      "duration": 0.125,
      "velocity": 100
    },
    {
      "time": 31.75,
      "note": 84,
      "duration": 0.125,
      "velocity": 100
    },
    {
      "time": 31.875,
      "note": 86,
      "duration": 0.5,
      "velocity": 100
    },
    {
      "time": 32.75,
      "note": 74,
      "duration": 0.5,
      "velocity": 100
    },
    {
      "time": 33.25,
      "note": 77,
      "duration": 0.5,
      "velocity": 100
    },
    {
      "time": 33.25,
      "note": 84,
      "duration": 0.5,
      "velocity": 100
    },
    {
      "time": 33.25,
      "note": 88,
      "duration": 0.125,
      "velocity": 100
    },
    {
      "time": 33.375,
      "note": 84,
      "duration": 0.25,
      "velocity": 100
    },
    {
      "time": 33.625,
      "note": 86,
      "duration": 0.125,
      "velocity": 100
    },
    {
      "time": 33.75,
      "note": 88,
      "duration": 0.125,
      "velocity": 100
    },
    {
      "time": 33.875,
      "note": 86,
      "duration": 0.25,
      "velocity": 100
    },
    {
      "time": 34.125,
      "note": 84,
      "duration": 0.125,
      "velocity": 100
    },
    {
      "time": 34.5,
      "note": 89,
      "duration": 0.125,
      "velocity": 100
    },
    {
      "time": 34.625,
      "note": 89,
      "duration": 0.125,
      "velocity": 100
    },
    {
      "time": 34.75,
      "note": 89,
      "duration": 0.125,
      "velocity": 100
    },
    {
      "time": 34.875,
      "note": 88,
      "duration": 0.125,
      "velocity": 100
    },
    {
      "time": 35.0,
      "note": 86,
      "duration": 0.5,
      "velocity": 100
    },
    {
      "time": 35.5,
      "note": 88,
      "duration": 0.125,
      "velocity": 100
    },
    {
      "time": 35.625,
      "note": 88,
      "duration": 0.25,
      "velocity": 100
    },
    {
      "time": 35.875,
      "note": 86,
      "duration": 0.125,
      "velocity": 100
    },
    {
      "time": 36.0,
      "note": 88,
      "duration": 0.125,
      "velocity": 100
    },
    {
      "time": 36.125,
      "note": 84,
      "duration": 0.25,
      "velocity": 100
    },
    {
      "time": 36.375,
      "note": 84,
      "duration": 0.125,
      "velocity": 100
    },
    {
      "time": 36.5,
      "note": 86,
      "duration": 0.125,
      "velocity": 100
    },
    {
      "time": 36.625,
      "note": 84,
      "duration": 0.125,
      "velocity": 100
    },
    {
      "time": 36.75,
      "note": 86,
      "duration": 0.125,
      "velocity": 100
    },
    {
      "time": 36.875,
      "note": 84,
      "duration": 0.125,
      "velocity": 100
    },
    {
      "time": 37.0,
      "note": 86,
      "duration": 0.5,
      "velocity": 100
    },
    {
      "time": 37.5,
      "note": 88,
      "duration": 0.125,
      "velocity": 100
    },
    {
      "time": 37.625,
      "note": 88,
      "duration": 0.25,
      "velocity": 100
    },
    {
      "time": 37.875,
      "note": 88,
      "duration": 0.125,
      "velocity": 100
    },
    {
      "time": 38.0,
      "note": 88,
      "duration": 0.125,
      "velocity": 100
    },
    {
      "time": 38.125,
      "note": 86,
      "duration": 0.25,
      "velocity": 100
    },
    {
      "time": 38.375,
      "note": 84,
      "duration": 0.125,
      "velocity": 100
    },
    {
      "time": 38.5,
      "note": 89,
      "duration": 0.125,
      "velocity": 100
    },
    {
      "time": 38.625,
      "note": 89,
      "duration": 0.125,
      "velocity": 100
    },
    {
      "time": 38.75,
      "note": 89,
      "duration": 0.125,
      "velocity": 100
    },
    {
      "time": 38.875,
      "note": 88,
      "duration": 0.125,
      "velocity": 100
    },
    {
      "time": 39.0,
      "note": 86,
      "duration": 0.5,
      "velocity": 100
    },
    {
      "time": 39.5,
      "note": 88,
      "duration": 0.125,
      "velocity": 100
    },
    {
      "time": 39.625,
      "note": 88,
      "duration": 0.25,
      "velocity": 100
    },
    {
      "time": 39.875,
      "note": 88,
      "duration": 0.125,
      "velocity": 100
    },
    {
      "time": 40.0,
      "note": 88,
      "duration": 0.125,
      "velocity": 100
    },
    {
      "time": 40.125,
      "note": 86,
      "duration": 0.25,
      "velocity": 100
    },
    {
      "time": 40.375,
      "note": 84,
      "duration": 0.125,
      "velocity": 100
    },
    {
      "time": 40.5,
      "note": 86,
      "duration": 0.125,
      "velocity": 100
    },
    {
      "time": 40.625,
      "note": 86,
      "duration": 0.25,
      "velocity": 100
    },
    {
      "time": 40.875,
      "note": 84,
      "duration": 0.125,
      "velocity": 100
    },
    {
      "time": 41.0,
      "note": 86,
      "duration": 0.375,
      "velocity": 100
    },
    {
      "time": 41.375,
      "note": 84,
      "duration": 0.125,
      "velocity": 100
    },
    {
      "time": 41.5,
      "note": 88,
      "duration": 0.125,
      "velocity": 100
    },
    {
      "time": 41.625,
      "note": 84,
      "duration": 0.25,
      "velocity": 100
    },
    {
      "time": 41.875,
      "note": 86,
      "duration": 0.125,
      "velocity": 100
    },
    {
      "time": 42.0,
      "note": 88,
      "duration": 0.125,
      "velocity": 100
    },
    {
      "time": 42.125,
      "note": 84,
      "duration": 0.25,
      "velocity": 100
    },
    {
      "time": 42.375,
      "note": 84,
      "duration": 0.125,
      "velocity": 100
    },
    {
      "time": 42.5,
      "note": 89,
      "duration": 0.125,
      "velocity": 100
    },
    {
      "time": 42.625,
      "note": 89,
      "duration": 0.25,
      "velocity": 100
    },
    {
      "time": 42.875,
      "note": 88,
      "duration": 0.125,
      "velocity": 100
    },
    {
      "time": 43.0,
      "note": 86,
      "duration": 0.5,
      "velocity": 100
    },
    {
      "time": 43.5,
      "note": 86,
      "duration": 0.125,
      "velocity": 100
    },
    {
      "time": 43.625,
      "note": 86,
      "duration": 0.125,
      "velocity": 100
    },
    {
      "time": 43.75,
      "note": 86,
      "duration": 0.125,
      "velocity": 100
    },
    {
      "time": 43.875,
      "note": 84,
      "duration": 0.125,
      "velocity": 100
    },
    {
      "time": 44.0,
      "note": 86,
      "duration": 0.25,
      "velocity": 100
    },
    {
      "time": 44.25,
      "note": 86,
      "duration": 0.25,
      "velocity": 100
    },
    {
      "time": 44.5,
      "note": 84,
      "duration": 0.375,
      "velocity": 100
    },
    {
      "time": 44.875,
      "note": 84,
      "duration": 0.125,
      "velocity": 100
    },
    {
      "time": 45.0,
      "note": 84,
      "duration": 0.125,
      "velocity": 100
    },
    {
      "time": 45.125,
      "note": 84,
      "duration": 0.125,
      "velocity": 100
    },
    {
      "time": 45.25,
      "note": 83,
      "duration": 0.125,
      "velocity": 100
    },
    {
      "time": 45.375,
      "note": 81,
      "duration": 0.125,
      "velocity": 100
    },
    {
      "time": 45.5,
      "note": 83,
      "duration": 1.0,
      "velocity": 100
    },
    {
      "time": 46.5,
      "note": 83,
      "duration": 1.0,
      "velocity": 100
    }
  ],
  "chords": [
    {
      "time": 0.0,
      "notes": [
        71,
        74,
        78
      ],
      "duration": 1.484375
    },
    {
      "time": 1.484375,
      "notes": [
        69,
        73,
        76
      ],
      "duration": 1.484375
    },
    {
      "time": 2.96875,
      "notes": [
        71,
        74,
        78
      ],
      "duration": 1.484375
    },
    {
      "time": 4.453125,
      "notes": [
        69,
        73,
        76
      ],
      "duration": 1.484375
    },
    {
      "time": 5.9375,
      "notes": [
        67,
        71,
        74
      ],
      "duration": 1.484375
    },
    {
      "time": 7.421875,
      "notes": [
        62,
        66,
        69
      ],
      "duration": 1.484375
    },
    {
      "time": 8.90625,
      "notes": [
        71,
        74,
        78
      ],
      "duration": 1.484375
    },
    {
      "time": 10.390625,
      "notes": [
        69,
        73,
        76
      ],
      "duration": 1.484375
    },
    {
      "time": 11.875,
      "notes": [
        67,
        71,
        74
      ],
      "duration": 1.484375
    },
    {
      "time": 13.359375,
      "notes": [
        69,
        73,
        76
      ],
      "duration": 1.484375
    },
    {
      "time": 14.84375,
      "notes": [
        67,
        71,
        74
      ],
      "duration": 1.484375
    },
    {
      "time": 16.328125,
      "notes": [
        62,
        66,
        69
      ],
      "duration": 1.484375
    },
    {
      "time": 17.8125,
      "notes": [
        67,
        71,
        74
      ],
      "duration": 1.484375
    },
    {
      "time": 19.296875,
      "notes": [
        66,
        70,
        73,
        76
      ],
      "duration": 1.484375
    },
    {
      "time": 20.78125,
      "notes": [
        71,
        74,
        78
      ],
      "duration": 1.484375
    },
    {
      "time": 22.265625,
      "notes": [
        69,
        73,
        76
      ],
      "duration": 1.484375
    },
    {
      "time": 23.75,
      "notes": [
        71,
        74,
        78
      ],
      "duration": 1.484375
    },
    {
      "time": 25.234375,
      "notes": [
        69,
        73,
        76
      ],
      "duration": 1.484375
    },
    {
      "time": 26.71875,
      "notes": [
        71,
        74,
        78
      ],
      "duration": 1.484375
    },
    {
      "time": 28.203125,
      "notes": [
        69,
        73,
        76
      ],
      "duration": 1.484375
    },
    {
      "time": 29.6875,
      "notes": [
        71,
        74,
        78
      ],
      "duration": 1.484375
    },
    {
      "time": 31.171875,
      "notes": [
        69,
        73,
        76
      ],
      "duration": 1.484375
    },
    {
      "time": 32.65625,
      "notes": [
        71,
        74,
        78
      ],
      "duration": 1.484375
    },
    {
      "time": 34.140625,
      "notes": [
        69,
        73,
        76
      ],
      "duration": 1.484375
    },
    {
      "time": 35.625,
      "notes": [
        71,
        74,
        78
      ],
      "duration": 1.484375
    },
    {
      "time": 37.109375,
      "notes": [
        69,
        73,
        76
      ],
      "duration": 1.484375
    },
    {
      "time": 38.59375,
      "notes": [
        71,
        74,
        78
      ],
      "duration": 1.484375
    },
    {
      "time": 40.078125,
      "notes": [
        69,
        73,
        76
      ],
      "duration": 1.484375
    },
    {
      "time": 41.5625,
      "notes": [
        71,
        74,
        78
      ],
      "duration": 1.484375
    },
    {
      "time": 43.046875,
      "notes": [
        67,
        71,
        74
      ],
      "duration": 1.484375
    },
    {
      "time": 44.53125,
      "notes": [
        69,
        73,
        76
      ],
      "duration": 1.484375
    },
    {
      "time": 46.015625,
      "notes": [
        71,
        74,
        78
      ],
      "duration": 1.484375
    }
  ]
}