{
  "title": "Fm",
  "artist": "Mentirosa",
  "bpm": 120,
  "duration": 55.75,
  "audioFile": "",
  "notes": [
    {
      "time": 0.0,
      "note": 84,
      "duration": 1.0,
      "velocity": 100
    },
    {
      "time": 1.125,
      "note": 77,
      "duration": 0.25,
      "velocity": 100
    },
    {
      "time": 1.375,
      "note": 77,
      "duration": 0.125,
      "velocity": 100
    },
    {
      "time": 1.5,
      "note": 81,
      "duration": 0.125,
      "velocity": 100
    },
    {
      "time": 1.625,
      "note": 77,
      "duration": 0.25,
      "velocity": 100
    },
    {
      "time": 1.875,
      "note": 81,
      "duration": 0.125,
      "velocity": 100
    },
    {
      "time": 2.0,
      "note": 76,
      "duration": 0.25,
      "velocity": 100
    },
    {
      "time": 2.25,
      "note": 76,
      "duration": 0.125,
      "velocity": 100
    },
    {
      "time": 2.375,
      "note": 79,
      "duration": 0.125,
      "velocity": 100
    },
    {
      "time": 2.5,
      "note": 79,
      "duration": 0.125,
      "velocity": 100
    },
    {
      "time": 2.625,
      "note": 82,
      "duration": 0.125,
      "velocity": 100
    },
    {
      "time": 2.75,
      "note": 81,
      "duration": 0.125,
      "velocity": 100
    },
    {
      "time": 2.875,
      "note": 79,
      "duration": 0.125,
      "velocity": 100
    },
    {
      "time": 3.125,
      "note": 76,
      "duration": 0.25,
      "velocity": 100
    },
    {
      "time": 3.375,
      "note": 76,
      "duration": 0.125,
      "velocity": 100
    },
    {
      "time": 3.5,
      "note": 79,
      "duration": 0.125,
      "velocity": 100
    },
    {
      "time": 3.625,
      "note": 76,
      "duration": 0.25,
      "velocity": 100
    },
    {
      "time": 3.875,
      "note": 79,
      "duration": 0.125,
      "velocity": 100
    },
    {
      "time": 4.0,
      "note": 77,
      "duration": 0.25,
      "velocity": 100
    },
    {
      "time": 4.25,
      "note": 77,
      "duration": 0.125,
      "velocity": 100
    },
    {
      "time": 4.375,
      "note": 76,
      "duration": 0.125,
      "velocity": 100
    },
    {
      "time": 4.5,
      "note": 76,
      "duration": 0.125,
      "velocity": 100
    },
    {
      "time": 4.625,
      "note": 76,
      "duration": 0.125,
      "velocity": 100
    },
    {
      "time": 4.75,
      "note": 77,
      "duration": 0.125,
      "velocity": 100
    },
    {
      "time": 4.875,
      "note": 77,
      "duration": 0.125,
      "velocity": 100
    },
    {
      "time": 5.125,
      "note": 77,
      "duration": 0.25,
      "velocity": 100
    },
    {
      "time": 5.375,
      "note": 77,
      "duration": 0.125,
      "velocity": 100
    },
    {
      "time": 5.5,
      "note": 81,
      "duration": 0.125,
      "velocity": 100
    },
    {
      "time": 5.625,
      "note": 77,
      "duration": 0.25,
      "velocity": 100
    },
    {
      "time": 5.875,
      "note": 81,
      "duration": 0.125,
      "velocity": 100
    },
    {
      "time": 6.0,
      "note": 75,
      "duration": 0.25,
      "velocity": 100
    },
    {
      "time": 6.25,
      "note": 75,
      "duration": 0.125,
      "velocity": 100
    },
    {
      "time": 6.375,
      "note": 79,
      "duration": 0.125,
      "velocity": 100
    },
    {
      "time": 6.5,
      "note": 79,
      "duration": 0.125,
      "velocity": 100
    },
    {
      "time": 6.625,
      "note": 82,
      "duration": 0.125,
      "velocity": 100
    },
    {
      "time": 6.75,
      "note": 81,
      "duration": 0.125,
      "velocity": 100
    },
    {
      "time": 6.875,
      "note": 79,
      "duration": 0.125,
      "velocity": 100
    },
    {
      "time": 7.125,
      "note": 75,
      "duration": 0.25,
      "velocity": 100
    },
    {
      "time": 7.375,
      "note": 75,
      "duration": 0.125,
      "velocity": 100
    },
    {
      "time": 7.5,
      "note": 79,
      "duration": 0.125,
      "velocity": 100
    },
    {
      "time": 7.625,
      "note": 75,
      "duration": 0.25,
      "velocity": 100
    },
    {
      "time": 7.875,
      "note": 79,
      "duration": 0.125,
      "velocity": 100
    },
    {
      "time": 8.0,
      "note": 77,
      "duration": 0.25,
      "velocity": 100
    },
    {
      "time": 8.25,
      "note": 77,
      "duration": 0.125,
      "velocity": 100
    },
    {
      "time": 8.375,
      "note": 75,
      "duration": 0.125,
      "velocity": 100
    },
    {
      "time": 8.75,
      "note": 77,
      "duration": 0.125,
      "velocity": 100
    },
    {
      "time": 8.875,
      "note": 77,
      "duration": 0.125,
      "velocity": 100
    },
    {
      "time": 9.0,
      "note": 84,
      "duration": 1.0,
      "velocity": 100
    },
    {
      "time": 10.125,
      "note": 77,
      "duration": 0.25,
      "velocity": 100
    },
    {
      "time": 10.375,
      "note": 77,
      "duration": 0.125,
      "velocity": 100
    },
    {
      "time": 10.5,
      "note": 79,
      "duration": 0.125,
      "velocity": 100
    },
    {
      "time": 10.625,
      "note": 81,
      "duration": 0.125,
      "velocity": 100
    },
    {
      "time": 10.75,
      "note": 81,
      "duration": 0.125,
      "velocity": 100
    },
    {
      "time": 10.875,
      "note": 81,
      "duration": 0.125,
      "velocity": 100
    },
    {
      "time": 10.5,
      "note": 79,
      "duration": 0.125,
      "velocity": 100
    },
    {
      "time": 10.625,
      "note": 81,
      "duration": 0.125,
      "velocity": 100
    },
    {
      "time": 10.75,
      "note": 81,
      "duration": 0.125,
      "velocity": 100
    },
    {
      "time": 10.875,
      "note": 81,
      "duration": 0.125,
      "velocity": 100
    },
    {
      "time": 11.0,
      "note": 79,
      "duration": 0.125,
      "velocity": 100
    },
    {
      "time": 11.125,
      "note": 81,
      "duration": 0.125,
      "velocity": 100
    },
    {
      "time": 11.25,
      "note": 81,
      "duration": 0.125,
      "velocity": 100
    },
    {
      "time": 11.375,
      "note": 81,
      "duration": 0.125,
      "velocity": 100
    },
    {
      "time": 11.5,
      "note": 79,
      "duration": 0.125,
      "velocity": 100
    },
    {
      "time": 11.625,
      "note": 81,
      "duration": 0.125,
      "velocity": 100
    },
    {
      "time": 11.75,
      "note": 81,
      "duration": 0.125,
      "velocity": 100
    },
    {
      "time": 11.875,
      "note": 81,
      "duration": 0.125,
      "velocity": 100
    },
    {
      "time": 12.0,
      "note": 79,
      "duration": 0.125,
      "velocity": 100
    },
    {
      "time": 12.125,
      "note": 81,
      "duration": 0.125,
      "velocity": 100
    },
    {
      "time": 12.25,
      "note": 81,
      "duration": 0.125,
      "velocity": 100
    },
    {
      "time": 12.375,
      "note": 81,
      "duration": 0.125,
      "velocity": 100
    },
    {
      "time": 12.5,
      "note": 84,
      "duration": 0.25,
      "velocity": 100
    },
    {
      "time": 12.75,
      "note": 84,
      "duration": 0.125,
      "velocity": 100
    },
    {
      "time": 12.875,
      "note": 82,
      "duration": 0.125,
      "velocity": 100
    },
    {
      "time": 13.125,
      "note": 82,
      "duration": 0.125,
      "velocity": 100
    },
    {
      "time": 13.25,
      "note": 81,
      "duration": 0.25,
      "velocity": 100
    },
    {
      "time": 13.625,
      "note": 76,
      "duration": 0.125,
      "velocity": 100
    },
    {
      "time": 13.75,
      "note": 76,
      "duration": 0.25,
      "velocity": 100
    },
    {
      "time": 14.0,
      "note": 77,
      "duration": 0.25,
      "velocity": 100
    },
    {
      "time": 14.25,
      "note": 79,
      "duration": 0.25,
      "velocity": 100
    },
    {
      "time": 14.5,
      "note": 77,
      "duration": 0.25,
      "velocity": 100
    },
    {
      "time": 14.875,
      "note": 72,
      "duration": 0.125,
      "velocity": 100
    },
    {
      "time": 15.0,
      "note": 77,
      "duration": 0.25,
      "velocity": 100
    },
    {
      "time": 15.25,
      "note": 77,
      "duration": 0.125,
      "velocity": 100
    },
    {
      "time": 15.375,
      "note": 77,
      "duration": 0.125,
      "velocity": 100
    },
    {
      "time": 15.5,
      "note": 77,
      "duration": 0.125,
      "velocity": 100
    },
    {
      "time": 15.625,
      "note": 72,
      "duration": 0.125,
      "velocity": 100
    },
    {
      "time": 15.75,
      "note": 72,
      "duration": 0.125,
      "velocity": 100
    },
    {
      "time": 15.875,
      "note": 72,
      "duration": 0.125,
      "velocity": 100
    },
    {
      "time": 16.0,
      "note": 72,
      "duration": 0.25,
      "velocity": 100
    },
    {
      "time": 16.25,
      "note": 70,
      "duration": 0.125,
      "velocity": 100
    },
    {
      "time": 16.375,
      "note": 69,
      "duration": 0.125,
      "velocity": 100
    },
    {
      "time": 16.5,
      "note": 69,
      "duration": 0.375,
      "velocity": 100
    },
    {
      "time": 16.875,
      "note": 72,
      "duration": 0.125,
      "velocity": 100
    },
    {
      "time": 17.0,
      "note": 77,
      "duration": 0.25,
      "velocity": 100
    },
    {
      "time": 17.25,
      "note": 77,
      "duration": 0.125,
      "velocity": 100
    },
    {
      "time": 17.375,
      "note": 77,
      "duration": 0.125,
      "velocity": 100
    },
    {
      "time": 17.5,
      "note": 77,
      "duration": 0.125,
      "velocity": 100
    },
    {
      "time": 17.625,
      "note": 72,
      "duration": 0.25,
      "velocity": 100
    },
    {
      "time": 17.875,
      "note": 72,
      "duration": 0.125,
      "velocity": 100
    },
    {
      "time": 18.0,
      "note": 72,
      "duration": 0.25,
      "velocity": 100
    },
    {
      "time": 18.25,
      "note": 70,
      "duration": 0.125,
      "velocity": 100
    },
    {
      "time": 18.375,
      "note": 69,
      "duration": 0.125,
      "velocity": 100
    },
    {
      "time": 18.5,
      "note": 69,
      "duration": 0.5,
      "velocity": 100
    },
    {
      "time": 19.0,
      "note": 75,
      "duration": 0.375,
      "velocity": 100
    },
    {
      "time": 19.375,
      "note": 77,
      "duration": 0.125,
      "velocity": 100
    },
    {
      "time": 19.5,
      "note": 79,
      "duration": 0.25,
      "velocity": 100
    },
    {
      "time": 19.75,
      "note": 77,
      "duration": 0.125,
      "velocity": 100
    },
    {
      "time": 19.875,
      "note": 75,
      "duration": 0.125,
      "velocity": 100
    },
    {
      "time": 20.0,
      "note": 75,
      "duration": 0.5,
      "velocity": 100
    },
    {
      "time": 20.5,
      "note": 87,
      "duration": 0.125,
      "velocity": 100
    },
    {
      "time": 20.625,
      "note": 87,
      "duration": 0.125,
      "velocity": 100
    },
    {
      "time": 20.75,
      "note": 87,
      "duration": 0.125,
      "velocity": 100
    },
    {
      "time": 20.875,
      "note": 87,
      "duration": 0.125,
      "velocity": 100
    },
    {
      "time": 21.0,
      "note": 87,
      "duration": 0.25,
      "velocity": 100
    },
    {
      "time": 21.25,
      "note": 87,
      "duration": 0.125,
      "velocity": 100
    },
    {
      "time": 21.375,
      "note": 87,
      "duration": 0.125,
      "velocity": 100
    },
    {
      "time": 21.5,
      "note": 87,
      "duration": 0.125,
      "velocity": 100
    },
    {
      "time": 21.625,
      "note": 87,
      "duration": 0.125,
      "velocity": 100
    },
    {
      "time": 21.75,
      "note": 87,
      "duration": 0.125,
      "velocity": 100
    },
    {
      "time": 21.875,
      "note": 87,
      "duration": 0.125,
      "velocity": 100
    },
    {
      "time": 22.0,
      "note": 82,
      "duration": 0.125,
      "velocity": 100
    },
    {
      "time": 22.125,
      "note": 79,
      "duration": 0.125,
      "velocity": 100
    },
    {
      "time": 22.25,
      "note": 75,
      "duration": 0.25,
      "velocity": 100
    },
    {
      "time": 23.0,
      "note": 77,
      "duration": 0.375,
      "velocity": 100
    },
    {
      "time": 23.375,
      "note": 79,
      "duration": 0.125,
      "velocity": 100
    },
    {
      "time": 23.5,
      "note": 81,
      "duration": 0.25,
      "velocity": 100
    },
    {
      "time": 23.75,
      "note": 79,
      "duration": 0.125,
      "velocity": 100
    },
    {
      "time": 23.875,
      "note": 77,
      "duration": 0.125,
      "velocity": 100
    },
    {
      "time": 24.0,
      "note": 77,
      "duration": 0.5,
      "velocity": 100
    },
    {
      "time": 24.875,
      "note": 74,
      "duration": 0.125,
      "velocity": 100
    },
    {
      "time": 25.0,
      "note": 77,
      "duration": 0.25,
      "velocity": 100
    },
    {
      "time": 25.25,
      "note": 74,
      "duration": 0.25,
      "velocity": 100
    },
    {
      "time": 25.5,
      "note": 75,
      "duration": 0.375,
      "velocity": 100
    },
    {
      "time": 25.875,
      "note": 77,
      "duration": 0.125,
      "velocity": 100
    },
    {
      "time": 26.0,
      "note": 75,
      "duration": 0.5,
      "velocity": 100
    },
    {
      "time": 26.5,
      "note": 84,
      "duration": 1.0,
      "velocity": 100
    },
    {
      "time": 28.0,
      "note": 72,
      "duration": 0.25,
      "velocity": 100
    },
    {
      "time": 28.25,
      "note": 69,
      "duration": 0.25,
      "velocity": 100
    },
    {
      "time": 28.5,
      "note": 70,
      "duration": 0.375,
      "velocity": 100
    },
    {
      "time": 28.875,
      "note": 72,
      "duration": 0.125,
      "velocity": 100
    },
    {
      "time": 29.0,
      "note": 70,
      "duration": 0.5,
      "velocity": 100
    },
    {
      "time": 29.5,
      "note": 76,
      "duration": 0.375,
      "velocity": 100
    },
    {
      "time": 29.875,
      "note": 76,
      "duration": 0.125,
      "velocity": 100
    },
    {
      "time": 30.0,
      "note": 76,
      "duration": 0.375,
      "velocity": 100
    },
    {
      "time": 30.375,
      "note": 76,
      "duration": 0.125,
      "velocity": 100
    },
    {
      "time": 31.0,
      "note": 81,
      "duration": 0.375,
      "velocity": 100
    },
    {
      "time": 31.375,
      "note": 79,
      "duration": 0.125,
      "velocity": 100
    },
    {
      "time": 31.5,
      "note": 81,
      "duration": 0.25,
      "velocity": 100
    },
    {
      "time": 31.75,
      "note": 79,
      "duration": 0.125,
      "velocity": 100
    },
    {
      "time": 31.875,
      "note": 77,
      "duration": 0.125,
      "velocity": 100
    },
    {
      "time": 32.0,
      "note": 77,
      "duration": 0.5,
      "velocity": 100
    },
    {
      "time": 33.375,
      "note": 77,
      "duration": 0.25,
      "velocity": 100
    },
    {
      "time": 33.625,
      "note": 77,
      "duration": 0.25,
      "velocity": 100
    },
    {
      "time": 33.875,
      "note": 75,
      "duration": 0.25,
      "velocity": 100
    },
    {
      "time": 34.125,
      "note": 75,
      "duration": 0.25,
      "velocity": 100
    },
    {
      "time": 34.375,
      "note": 75,
      "duration": 0.125,
      "velocity": 100
    },
    {
      "time": 34.5,
      "note": 79,
      "duration": 0.125,
      "velocity": 100
    },
    {
      "time": 34.625,
      "note": 82,
      "duration": 0.125,
      "velocity": 100
    },
    {
      "time": 34.75,
      "note": 79,
      "duration": 0.125,
      "velocity": 100
    },
    {
      "time": 34.875,
      "note": 75,
      "duration": 0.25,
      "velocity": 100
    },
    {
      "time": 35.125,
      "note": 75,
      "duration": 0.25,
      "velocity": 100
    },
    {
      "time": 35.5,
      "note": 75,
      "duration": 0.125,
      "velocity": 100
    },
    {
      "time": 35.625,
      "note": 75,
      "duration": 0.125,
      "velocity": 100
    },
    {
      "time": 35.75,
      "note": 76,
      "duration": 0.125,
      "velocity": 100
    },
    {
      "time": 35.875,
      "note": 77,
      "duration": 0.125,
      "velocity": 100
    },
    {
      "time": 36.0,
      "note": 77,
      "duration": 0.125,
      "velocity": 100
    },
    {
      "time": 36.125,
      "note": 77,
      "duration": 0.125,
      "velocity": 100
    },
    {
      "time": 36.25,
      "note": 77,
      "duration": 0.125,
      "velocity": 100
    },
    {
      "time": 36.375,
      "note": 77,
      "duration": 0.125,
      "velocity": 100
    },
    {
      "time": 36.5,
      "note": 81,
      "duration": 0.125,
      "velocity": 100
    },
    {
      "time": 36.625,
      "note": 84,
      "duration": 0.125,
      "velocity": 100
    },
    {
      "time": 36.75,
      "note": 81,
      "duration": 0.125,
      "velocity": 100
    },
    {
      "time": 36.875,
      "note": 77,
      "duration": 0.25,
      "velocity": 100
    },
    {
      "time": 37.125,
      "note": 77,
      "duration": 0.25,
      "velocity": 100
    },
    {
      "time": 37.375,
      "note": 89,
      "duration": 0.25,
      "velocity": 100
    },
    {
      "time": 37.625,
      "note": 89,
      "duration": 0.25,
      "velocity": 100
    },
    {
      "time": 37.875,
      "note": 87,
      "duration": 0.25,
      "velocity": 100
    },
    {
      "time": 38.125,
      "note": 87,
      "duration": 0.25,
      "velocity": 100
    },
    {
      "time": 38.375,
      "note": 87,
      "duration": 0.125,
      "velocity": 100
    },
    {
      "time": 38.5,
      "note": 91,
      "duration": 0.125,
      "velocity": 100
    },
    {
      "time": 38.625,
      "note": 94,
      "duration": 0.125,
      "velocity": 100
    },
    {
      "time": 38.75,
      "note": 91,
      "duration": 0.125,
      "velocity": 100
    },
    {
      "time": 38.875,
      "note": 84,
      "duration": 1.0,
      "velocity": 100
    },
    {
      "time": 39.875,
      "note": 88,
      "duration": 0.25,
      "velocity": 100
    },
    {
      "time": 40.125,
      "note": 88,
      "duration": 0.25,
      "velocity": 100
    },
    {
      "time": 40.5,
      "note": 70,
      "duration": 0.125,
      "velocity": 100
    },
    {
      "time": 40.625,
      "note": 70,
      "duration": 0.125,
      "velocity": 100
    },
    {
      "time": 40.75,
      "note": 71,
      "duration": 0.125,
      "velocity": 100
    },
    {
      "time": 40.875,
      "note": 72,
      "duration": 0.25,
      "velocity": 100
    },
    {
      "time": 41.125,
      "note": 72,
      "duration": 0.125,
      "velocity": 100
    },
    {
      "time": 41.25,
      "note": 76,
      "duration": 0.125,
      "velocity": 100
    },
    {
      "time": 41.375,
      "note": 76,
      "duration": 0.125,
      "velocity": 100
    },
    {
      "time": 41.5,
      "note": 76,
      "duration": 0.125,
      "velocity": 100
    },
    {
      "time": 41.625,
      "note": 79,
      "duration": 0.25,
      "velocity": 100
    },
    {
      "time": 41.875,
      "note": 79,
      "duration": 0.25,
      "velocity": 100
    },
    {
      "time": 42.125,
      "note": 91,
      "duration": 0.25,
      "velocity": 100
    },
    {
      "time": 42.375,
      "note": 93,
      "duration": 0.25,
      "velocity": 100
    },
    {
      "time": 42.625,
      "note": 91,
      "duration": 0.25,
      "velocity": 100
    },
    {
      "time": 42.875,
      "note": 93,
      "duration": 0.125,
      "velocity": 100
    },
    {
      "time": 43.0,
      "note": 91,
      "duration": 0.125,
      "velocity": 100
    },
    {
      "time": 43.125,
      "note": 89,
      "duration": 0.75,
      "velocity": 100
    },
    {
      "time": 44.625,
      "note": 77,
      "duration": 0.25,
      "velocity": 100
    },
    {
      "time": 44.875,
      "note": 84,
      "duration": 1.0,
      "velocity": 100
    },
    {
      "time": 45.875,
      "note": 76,
      "duration": 0.25,
      "velocity": 100
    },
    {
      "time": 46.125,
      "note": 70,
      "duration": 0.25,
      "velocity": 100
    },
    {
      "time": 46.375,
      "note": 70,
      "duration": 0.125,
      "velocity": 100
    },
    {
      "time": 46.5,
      "note": 70,
      "duration": 0.125,
      "velocity": 100
    },
    {
      "time": 46.625,
      "note": 77,
      "duration": 0.125,
      "velocity": 100
    },
    {
      "time": 46.75,
      "note": 77,
      "duration": 0.125,
      "velocity": 100
    },
    {
      "time": 46.875,
      "note": 76,
      "duration": 0.25,
      "velocity": 100
    },
    {
      "time": 47.125,
      "note": 70,
      "duration": 0.25,
      "velocity": 100
    },
    {
      "time": 47.5,
      "note": 70,
      "duration": 0.125,
      "velocity": 100
    },
    {
      "time": 47.625,
      "note": 70,
      "duration": 0.125,
      "velocity": 100
    },
    {
      "time": 47.75,
      "note": 70,
      "duration": 0.125,
      "velocity": 100
    },
    {
      "time": 47.875,
      "note": 72,
      "duration": 0.25,
      "velocity": 100
    },
    {
      "time": 48.125,
      "note": 72,
      "duration": 0.125,
      "velocity": 100
    },
    {
      "time": 48.25,
      "note": 72,
      "duration": 0.125,
      "velocity": 100
    },
    {
      "time": 48.375,
      "note": 70,
      "duration": 0.125,
      "velocity": 100
    },
    {
      "time": 48.5,
      "note": 72,
      "duration": 0.125,
      "velocity": 100
    },
    {
      "time": 48.625,
      "note": 70,
      "duration": 0.125,
      "velocity": 100
    },
    {
      "time": 48.75,
      "note": 69,
      "duration": 0.5,
      "velocity": 100
    },
    {
      "time": 49.5,
      "note": 77,
      "duration": 0.25,
      "velocity": 100
    },
    {
      "time": 49.75,
      "note": 84,
      "duration": 1.0,
      "velocity": 100
    },
    {
      "time": 50.75,
      "note": 76,
      "duration": 0.25,
      "velocity": 100
    },
    {
      "time": 51.0,
      "note": 70,
      "duration": 0.25,
      "velocity": 100
    },
    {
      "time": 51.25,
      "note": 70,
      "duration": 0.125,
      "velocity": 100
    },
    {
      "time": 51.375,
      "note": 70,
      "duration": 0.125,
      "velocity": 100
    },
    {
      "time": 51.5,
      "note": 77,
      "duration": 0.125,
      "velocity": 100
    },
    {
      "time": 51.625,
      "note": 77,
      "duration": 0.125,
      "velocity": 100
    },
    {
      "time": 51.75,
      "note": 76,
      "duration": 0.25,
      "velocity": 100
    },
    {
      "time": 52.0,
      "note": 70,
      "duration": 0.25,
      "velocity": 100
    },
    {
      "time": 52.375,
      "note": 70,
      "duration": 0.125,
      "velocity": 100
    },
    {
      "time": 52.5,
      "note": 70,
      "duration": 0.125,
      "velocity": 100
    },
    {
      "time": 52.625,
      "note": 70,
      "duration": 0.125,
      "velocity": 100
    },
    {
      "time": 52.75,
      "note": 72,
      "duration": 0.25,
      "velocity": 100
    },
    {
      "time": 53.0,
      "note": 72,
      "duration": 0.125,
      "velocity": 100
    },
    {
      "time": 53.125,
      "note": 76,
      "duration": 0.125,
      "velocity": 100
    },
    {
      "time": 53.375,
      "note": 76,
      "duration": 0.125,
      "velocity": 100
    },
    {
      "time": 53.5,
      "note": 79,
      "duration": 0.25,
      "velocity": 100
    },
    {
      "time": 53.75,
      "note": 79,
      "duration": 0.25,
      "velocity": 100
    },
    {
      "time": 54.0,
      "note": 79,
      "duration": 0.25,
      "velocity": 100
    },
    {
      "time": 54.25,
      "note": 81,
      "duration": 0.25,
      "velocity": 100
    },
    {
      "time": 54.5,
      "note": 79,
      "duration": 0.25,
      "velocity": 100
    },
    {
      "time": 54.75,
      "note": 81,
      "duration": 0.375,
      "velocity": 100
    },
    {
      "time": 55.125,
      "note": 79,
      "duration": 0.125,
      "velocity": 100
    },
    {
      "time": 55.25,
      "note": 77,
      "duration": 0.5,
      "velocity": 100
    }
  ],
  "chords": [
    {
      "time": 0.0,
      "notes": [
        65,
        68,
        72
      ],
      "duration": 2.534090909090909
    },
    {
      "time": 2.534090909090909,
      "notes": [
        63,
        67,
        70
      ],
      "duration": 2.534090909090909
    },
    {
      "time": 5.068181818181818,
      "notes": [
        65,
        68,
        72
      ],
      "duration": 2.534090909090909
    },
    {
      "time": 7.6022727272727275,
      "notes": [
        63,
        67,
        70
      ],
      "duration": 2.534090909090909
    },
    {
      "time": 10.136363636363637,
      "notes": [
        65,
        68,
        72
      ],
      "duration": 2.534090909090909
    },
    {
      "time": 12.670454545454547,
      "notes": [
        60,
        64,
        67
      ],
      "duration": 2.534090909090909
    },
    {
      "time": 15.204545454545455,
      "notes": [
        65,
        68,
        72
      ],
      "duration": 2.534090909090909
    },
    {
      "time": 17.738636363636363,
      "notes": [
        63,
        67,
        70
      ],
      "duration": 2.534090909090909
    },
    {
      "time": 20.272727272727273,
      "notes": [
        61,
        65,
        68
      ],
      "duration": 2.534090909090909
    },
    {
      "time": 22.806818181818183,
      "notes": [
        68,
        72,
        75
      ],
      "duration": 2.534090909090909
    },
    {
      "time": 25.340909090909093,
      "notes": [
        60,
        64,
        67
      ],
      "duration": 2.534090909090909
    },
    {
      "time": 27.875,
      "notes": [
        65,
        68,
        72
      ],
      "duration": 2.534090909090909
    },
    {
      "time": 30.40909090909091,
      "notes": [
        63,
        67,
        70
      ],
      "duration": 2.534090909090909
    },
    {
      "time": 32.94318181818182,
      "notes": [
        65,
        68,
        72
      ],
      "duration": 2.534090909090909
    },
    {
      "time": 35.47727272727273,
      "notes": [
        63,
        67,
        70
      ],
      "duration": 2.534090909090909
    },
    {
      "time": 38.01136363636364,
      "notes": [
        60,
        64,
        67
      ],
      "duration": 2.534090909090909
    },
    {
      "time": 40.54545454545455,
      "notes": [
        65,
        68,
        72
      ],
      "duration": 2.534090909090909
    },
    {
      "time": 43.07954545454545,
      "notes": [
        63,
        67,
        70
      ],
      "duration": 2.534090909090909
    },
    {
      "time": 45.61363636363637,
      "notes": [
        65,
        68,
        72
      ],
      "duration": 2.534090909090909
    },
    {
      "time": 48.14772727272727,
      "notes": [
        63,
        67,
        70
      ],
      "duration": 2.534090909090909
    },
    {
      "time": 50.68181818181819,
      "notes": [
        60,
        64,
        67
      ],
      "duration": 2.534090909090909
    },
    {
      "time": 53.21590909090909,
      "notes": [
        65,
        68,
        72
      ],
      "duration": 2.534090909090909
    }
  ]
}