{
  "title": "Adicto a ti",
  "artist": "Walter Olmios",
  "bpm": 120,
  "duration": 76.75,
  "audioFile": "",
  "notes": [
    {
      "time": 0.25,
      "note": 79,
      "duration": 0.25,
      "velocity": 100
    },
    {
      "time": 0.5,
      "note": 79,
      "duration": 0.25,
      "velocity": 100
    },
    {
      "time": 0.75,
      "note": 79,
      "duration": 0.25,
      "velocity": 100
    },
    {
      "time": 1.0,
      "note": 89,
      "duration": 0.5,
      "velocity": 100
    },
    {
      "time": 1.5,
      "note": 88,
      "duration": 0.25,
      "velocity": 100
    },
    {
      "time": 1.75,
      "note": 88,
      "duration": 0.25,
      "velocity": 100
    },
    {
      "time": 2.25,
      "note": 86,
      "duration": 0.25,
      "velocity": 100
    },
    {
      "time": 2.5,
      "note": 86,
      "duration": 0.25,
      "velocity": 100
    },
    {
      "time": 2.75,
      "note": 86,
      "duration": 0.25,
      "velocity": 100
    },
    {
      "time": 3.0,
      "note": 86,
      "duration": 0.5,
      "velocity": 100
    },
    {
      "time": 3.5,
      "note": 83,
      "duration": 0.25,
      "velocity": 100
    },
    {
      "time": 3.75,
      "note": 83,
      "duration": 0.25,
      "velocity": 100
    },
    {
      "time": 4.0,
      "note": 83,
      "duration": 0.25,
      "velocity": 100
    },
    {
      "time": 4.25,
      "note": 84,
      "duration": 0.25,
      "velocity": 100
    },
    {
      "time": 4.5,
      "note": 84,
      "duration": 1.5,
      "velocity": 100
    },
    {
      "time": 6.25,
      "note": 81,
      "duration": 0.25,
      "velocity": 100
    },
    {
      "time": 6.5,
      "note": 84,
      "duration": 0.25,
      "velocity": 100
    },
    {
      "time": 6.5,
      "note": 81,
      "duration": 0.125,
      "velocity": 100
    },
    {
      "time": 6.625,
      "note": 84,
      "duration": 0.125,
      "velocity": 100
    },
    {
      "time": 6.625,
      "note": 81,
      "duration": 0.25,
      "velocity": 100
    },
    {
      "time": 6.875,
      "note": 84,
      "duration": 0.25,
      "velocity": 100
    },
    {
      "time": 6.875,
      "note": 81,
      "duration": 0.125,
      "velocity": 100
    },
    {
      "time": 7.0,
      "note": 84,
      "duration": 0.125,
      "velocity": 100
    },
    {
      "time": 7.125,
      "note": 81,
      "duration": 0.25,
      "velocity": 100
    },
    {
      "time": 7.375,
      "note": 84,
      "duration": 0.25,
      "velocity": 100
    },
    {
      "time": 7.375,
      "note": 81,
      "duration": 0.125,
      "velocity": 100
    },
    {
      "time": 7.5,
      "note": 84,
      "duration": 0.125,
      "velocity": 100
    },
    {
      "time": 7.625,
      "note": 79,
      "duration": 0.125,
      "velocity": 100
    },
    {
      "time": 7.75,
      "note": 83,
      "duration": 0.125,
      "velocity": 100
    },
    {
      "time": 7.75,
      "note": 77,
      "duration": 0.25,
      "velocity": 100
    },
    {
      "time": 8.0,
      "note": 81,
      "duration": 0.25,
      "velocity": 100
    },
    {
      "time": 8.25,
      "note": 81,
      "duration": 0.25,
      "velocity": 100
    },
    {
      "time": 8.5,
      "note": 84,
      "duration": 0.25,
      "velocity": 100
    },
    {
      "time": 8.5,
      "note": 81,
      "duration": 0.125,
      "velocity": 100
    },
    {
      "time": 8.625,
      "note": 84,
      "duration": 0.125,
      "velocity": 100
    },
    {
      "time": 8.625,
      "note": 81,
      "duration": 0.25,
      "velocity": 100
    },
    {
      "time": 8.875,
      "note": 84,
      "duration": 0.25,
      "velocity": 100
    },
    {
      "time": 8.875,
      "note": 81,
      "duration": 0.125,
      "velocity": 100
    },
    {
      "time": 9.0,
      "note": 84,
      "duration": 0.125,
      "velocity": 100
    },
    {
      "time": 9.125,
      "note": 81,
      "duration": 0.25,
      "velocity": 100
    },
    {
      "time": 9.375,
      "note": 84,
      "duration": 0.25,
      "velocity": 100
    },
    {
      "time": 9.375,
      "note": 81,
      "duration": 0.125,
      "velocity": 100
    },
    {
      "time": 9.5,
      "note": 84,
      "duration": 0.125,
      "velocity": 100
    },
    {
      "time": 9.625,
      "note": 79,
      "duration": 0.125,
      "velocity": 100
    },
    {
      "time": 9.75,
      "note": 83,
      "duration": 0.125,
      "velocity": 100
    },
    {
      "time": 9.75,
      "note": 77,
      "duration": 0.25,
      "velocity": 100
    },
    {
      "time": 10.0,
      "note": 81,
      "duration": 0.25,
      "velocity": 100
    },
    {
      "time": 10.25,
      "note": 74,
      "duration": 0.5,
      "velocity": 100
    },
    {
      "time": 10.75,
      "note": 83,
      "duration": 0.5,
      "velocity": 100
    },
    {
      "time": 10.75,
      "note": 86,
      "duration": 0.5,
      "velocity": 100
    },
    {
      "time": 10.75,
      "note": 83,
      "duration": 0.125,
      "velocity": 100
    },
    {
      "time": 10.875,
      "note": 86,
      "duration": 0.125,
      "velocity": 100
    },
    {
      "time": 10.875,
      "note": 83,
      "duration": 0.25,
      "velocity": 100
    },
    {
      "time": 11.125,
      "note": 86,
      "duration": 0.25,
      "velocity": 100
    },
    {
      "time": 11.125,
      "note": 83,
      "duration": 0.125,
      "velocity": 100
    },
    {
      "time": 11.25,
      "note": 86,
      "duration": 0.125,
      "velocity": 100
    },
    {
      "time": 11.375,
      "note": 83,
      "duration": 0.25,
      "velocity": 100
    },
    {
      "time": 11.625,
      "note": 86,
      "duration": 0.25,
      "velocity": 100
    },
    {
      "time": 11.625,
      "note": 83,
      "duration": 0.125,
      "velocity": 100
    },
    {
      "time": 11.75,
      "note": 86,
      "duration": 0.125,
      "velocity": 100
    },
    {
      "time": 11.875,
      "note": 81,
      "duration": 0.125,
      "velocity": 100
    },
    {
      "time": 12.0,
      "note": 84,
      "duration": 0.125,
      "velocity": 100
    },
    {
      "time": 12.0,
      "note": 79,
      "duration": 0.25,
      "velocity": 100
    },
    {
      "time": 12.25,
      "note": 83,
      "duration": 0.25,
      "velocity": 100
    },
    {
      "time": 12.5,
      "note": 79,
      "duration": 0.5,
      "velocity": 100
    },
    {
      "time": 13.0,
      "note": 88,
      "duration": 0.5,
      "velocity": 100
    },
    {
      "time": 13.0,
      "note": 89,
      "duration": 0.25,
      "velocity": 100
    },
    {
      "time": 13.25,
      "note": 91,
      "duration": 0.25,
      "velocity": 100
    },
    {
      "time": 13.75,
      "note": 81,
      "duration": 0.25,
      "velocity": 100
    },
    {
      "time": 14.0,
      "note": 84,
      "duration": 0.25,
      "velocity": 100
    },
    {
      "time": 14.25,
      "note": 84,
      "duration": 0.25,
      "velocity": 100
    },
    {
      "time": 14.5,
      "note": 76,
      "duration": 0.5,
      "velocity": 100
    },
    {
      "time": 15.0,
      "note": 84,
      "duration": 0.5,
      "velocity": 100
    },
    {
      "time": 15.0,
      "note": 84,
      "duration": 0.5,
      "velocity": 100
    },
    {
      "time": 13.5,
      "note": 84,
      "duration": 0.375,
      "velocity": 100
    },
    {
      "time": 13.875,
      "note": 81,
      "duration": 0.125,
      "velocity": 100
    },
    {
      "time": 14.0,
      "note": 81,
      "duration": 1.5,
      "velocity": 100
    },
    {
      "time": 13.75,
      "note": 69,
      "duration": 0.25,
      "velocity": 100
    },
    {
      "time": 14.0,
      "note": 71,
      "duration": 0.25,
      "velocity": 100
    },
    {
      "time": 14.25,
      "note": 72,
      "duration": 0.25,
      "velocity": 100
    },
    {
      "time": 14.5,
      "note": 74,
      "duration": 0.25,
      "velocity": 100
    },
    {
      "time": 14.75,
      "note": 76,
      "duration": 0.25,
      "velocity": 100
    },
    {
      "time": 15.0,
      "note": 72,
      "duration": 0.125,
      "velocity": 100
    },
    {
      "time": 15.125,
      "note": 74,
      "duration": 0.125,
      "velocity": 100
    },
    {
      "time": 15.25,
      "note": 72,
      "duration": 0.125,
      "velocity": 100
    },
    {
      "time": 15.375,
      "note": 71,
      "duration": 0.125,
      "velocity": 100
    },
    {
      "time": 15.75,
      "note": 84,
      "duration": 0.25,
      "velocity": 100
    },
    {
      "time": 16.0,
      "note": 84,
      "duration": 0.25,
      "velocity": 100
    },
    {
      "time": 16.25,
      "note": 84,
      "duration": 0.25,
      "velocity": 100
    },
    {
      "time": 16.5,
      "note": 84,
      "duration": 0.25,
      "velocity": 100
    },
    {
      "time": 16.5,
      "note": 69,
      "duration": 0.375,
      "velocity": 100
    },
    {
      "time": 16.875,
      "note": 69,
      "duration": 0.25,
      "velocity": 100
    },
    {
      "time": 17.125,
      "note": 69,
      "duration": 0.25,
      "velocity": 100
    },
    {
      "time": 17.375,
      "note": 68,
      "duration": 0.25,
      "velocity": 100
    },
    {
      "time": 16.875,
      "note": 84,
      "duration": 0.5,
      "velocity": 100
    },
    {
      "time": 17.375,
      "note": 84,
      "duration": 0.25,
      "velocity": 100
    },
    {
      "time": 17.625,
      "note": 84,
      "duration": 0.375,
      "velocity": 100
    },
    {
      "time": 18.0,
      "note": 83,
      "duration": 0.125,
      "velocity": 100
    },
    {
      "time": 18.125,
      "note": 83,
      "duration": 1.0,
      "velocity": 100
    },
    {
      "time": 19.125,
      "note": 84,
      "duration": 1.0,
      "velocity": 100
    },
    {
      "time": 17.875,
      "note": 83,
      "duration": 0.25,
      "velocity": 100
    },
    {
      "time": 18.125,
      "note": 83,
      "duration": 0.25,
      "velocity": 100
    },
    {
      "time": 18.375,
      "note": 83,
      "duration": 0.25,
      "velocity": 100
    },
    {
      "time": 18.625,
      "note": 83,
      "duration": 0.25,
      "velocity": 100
    },
    {
      "time": 18.875,
      "note": 84,
      "duration": 0.5,
      "velocity": 100
    },
    {
      "time": 19.375,
      "note": 83,
      "duration": 0.25,
      "velocity": 100
    },
    {
      "time": 19.625,
      "note": 83,
      "duration": 0.375,
      "velocity": 100
    },
    {
      "time": 20.0,
      "note": 81,
      "duration": 0.125,
      "velocity": 100
    },
    {
      "time": 20.125,
      "note": 81,
      "duration": 1.0,
      "velocity": 100
    },
    {
      "time": 21.125,
      "note": 84,
      "duration": 0.25,
      "velocity": 100
    },
    {
      "time": 21.375,
      "note": 84,
      "duration": 0.25,
      "velocity": 100
    },
    {
      "time": 21.625,
      "note": 84,
      "duration": 0.25,
      "velocity": 100
    },
    {
      "time": 21.875,
      "note": 84,
      "duration": 0.75,
      "velocity": 100
    },
    {
      "time": 22.625,
      "note": 84,
      "duration": 0.25,
      "velocity": 100
    },
    {
      "time": 22.875,
      "note": 79,
      "duration": 0.25,
      "velocity": 100
    },
    {
      "time": 23.125,
      "note": 79,
      "duration": 0.25,
      "velocity": 100
    },
    {
      "time": 23.375,
      "note": 79,
      "duration": 0.25,
      "velocity": 100
    },
    {
      "time": 23.625,
      "note": 79,
      "duration": 0.25,
      "velocity": 100
    },
    {
      "time": 23.875,
      "note": 77,
      "duration": 0.25,
      "velocity": 100
    },
    {
      "time": 24.125,
      "note": 79,
      "duration": 0.25,
      "velocity": 100
    },
    {
      "time": 24.375,
      "note": 80,
      "duration": 0.25,
      "velocity": 100
    },
    {
      "time": 25.125,
      "note": 84,
      "duration": 0.25,
      "velocity": 100
    },
    {
      "time": 25.375,
      "note": 84,
      "duration": 0.25,
      "velocity": 100
    },
    {
      "time": 25.625,
      "note": 83,
      "duration": 0.25,
      "velocity": 100
    },
    {
      "time": 25.875,
      "note": 84,
      "duration": 0.25,
      "velocity": 100
    },
    {
      "time": 26.125,
      "note": 84,
      "duration": 0.25,
      "velocity": 100
    },
    {
      "time": 26.375,
      "note": 83,
      "duration": 0.25,
      "velocity": 100
    },
    {
      "time": 26.625,
      "note": 84,
      "duration": 0.25,
      "velocity": 100
    },
    {
      "time": 26.875,
      "note": 84,
      "duration": 0.5,
      "velocity": 100
    },
    {
      "time": 29.125,
      "note": 84,
      "duration": 0.25,
      "velocity": 100
    },
    {
      "time": 29.375,
      "note": 84,
      "duration": 0.25,
      "velocity": 100
    },
    {
      "time": 29.625,
      "note": 83,
      "duration": 0.25,
      "velocity": 100
    },
    {
      "time": 29.875,
      "note": 84,
      "duration": 0.25,
      "velocity": 100
    },
    {
      "time": 30.125,
      "note": 84,
      "duration": 0.25,
      "velocity": 100
    },
    {
      "time": 30.375,
      "note": 83,
      "duration": 0.25,
      "velocity": 100
    },
    {
      "time": 30.625,
      "note": 84,
      "duration": 0.25,
      "velocity": 100
    },
    {
      "time": 30.875,
      "note": 84,
      "duration": 1.0,
      "velocity": 100
    },
    {
      "time": 33.125,
      "note": 84,
      "duration": 0.25,
      "velocity": 100
    },
    {
      "time": 33.375,
      "note": 84,
      "duration": 0.25,
      "velocity": 100
    },
    {
      "time": 33.625,
      "note": 84,
      "duration": 0.25,
      "velocity": 100
    },
    {
      "time": 33.875,
      "note": 76,
      "duration": 0.5,
      "velocity": 100
    },
    {
      "time": 34.375,
      "note": 84,
      "duration": 0.5,
      "velocity": 100
    },
    {
      "time": 34.375,
      "note": 84,
      "duration": 0.5,
      "velocity": 100
    },
    {
      "time": 33.125,
      "note": 86,
      "duration": 0.25,
      "velocity": 100
    },
    {
      "time": 33.375,
      "note": 86,
      "duration": 0.25,
      "velocity": 100
    },
    {
      "time": 33.625,
      "note": 86,
      "duration": 0.25,
      "velocity": 100
    },
    {
      "time": 33.875,
      "note": 86,
      "duration": 0.5,
      "velocity": 100
    },
    {
      "time": 34.375,
      "note": 86,
      "duration": 0.25,
      "velocity": 100
    },
    {
      "time": 34.625,
      "note": 89,
      "duration": 0.25,
      "velocity": 100
    },
    {
      "time": 35.625,
      "note": 84,
      "duration": 0.25,
      "velocity": 100
    },
    {
      "time": 35.875,
      "note": 84,
      "duration": 0.25,
      "velocity": 100
    },
    {
      "time": 36.125,
      "note": 84,
      "duration": 0.25,
      "velocity": 100
    },
    {
      "time": 36.375,
      "note": 76,
      "duration": 0.5,
      "velocity": 100
    },
    {
      "time": 36.875,
      "note": 84,
      "duration": 0.5,
      "velocity": 100
    },
    {
      "time": 36.875,
      "note": 84,
      "duration": 0.5,
      "velocity": 100
    },
    {
      "time": 35.375,
      "note": 84,
      "duration": 0.25,
      "velocity": 100
    },
    {
      "time": 35.625,
      "note": 84,
      "duration": 0.25,
      "velocity": 100
    },
    {
      "time": 35.875,
      "note": 76,
      "duration": 0.25,
      "velocity": 100
    },
    {
      "time": 36.875,
      "note": 83,
      "duration": 0.25,
      "velocity": 100
    },
    {
      "time": 37.125,
      "note": 83,
      "duration": 0.25,
      "velocity": 100
    },
    {
      "time": 37.375,
      "note": 83,
      "duration": 0.25,
      "velocity": 100
    },
    {
      "time": 37.625,
      "note": 83,
      "duration": 0.25,
      "velocity": 100
    },
    {
      "time": 37.875,
      "note": 84,
      "duration": 0.5,
      "velocity": 100
    },
    {
      "time": 38.375,
      "note": 89,
      "duration": 0.25,
      "velocity": 100
    },
    {
      "time": 38.625,
      "note": 74,
      "duration": 1.0,
      "velocity": 100
    },
    {
      "time": 39.625,
      "note": 88,
      "duration": 0.25,
      "velocity": 100
    },
    {
      "time": 39.875,
      "note": 84,
      "duration": 0.25,
      "velocity": 100
    },
    {
      "time": 40.125,
      "note": 84,
      "duration": 0.25,
      "velocity": 100
    },
    {
      "time": 40.375,
      "note": 84,
      "duration": 0.25,
      "velocity": 100
    },
    {
      "time": 40.625,
      "note": 84,
      "duration": 0.25,
      "velocity": 100
    },
    {
      "time": 40.875,
      "note": 84,
      "duration": 0.5,
      "velocity": 100
    },
    {
      "time": 41.375,
      "note": 84,
      "duration": 0.25,
      "velocity": 100
    },
    {
      "time": 41.625,
      "note": 84,
      "duration": 0.5,
      "velocity": 100
    },
    {
      "time": 42.125,
      "note": 84,
      "duration": 0.25,
      "velocity": 100
    },
    {
      "time": 42.375,
      "note": 81,
      "duration": 0.25,
      "velocity": 100
    },
    {
      "time": 42.875,
      "note": 84,
      "duration": 0.5,
      "velocity": 100
    },
    {
      "time": 43.375,
      "note": 76,
      "duration": 0.5,
      "velocity": 100
    },
    {
      "time": 43.875,
      "note": 84,
      "duration": 0.5,
      "velocity": 100
    },
    {
      "time": 43.875,
      "note": 86,
      "duration": 1.0,
      "velocity": 100
    },
    {
      "time": 45.125,
      "note": 84,
      "duration": 0.25,
      "velocity": 100
    },
    {
      "time": 45.375,
      "note": 83,
      "duration": 0.25,
      "velocity": 100
    },
    {
      "time": 45.625,
      "note": 84,
      "duration": 0.25,
      "velocity": 100
    },
    {
      "time": 45.875,
      "note": 84,
      "duration": 1.0,
      "velocity": 100
    },
    {
      "time": 46.875,
      "note": 79,
      "duration": 0.25,
      "velocity": 100
    },
    {
      "time": 47.125,
      "note": 77,
      "duration": 0.25,
      "velocity": 100
    },
    {
      "time": 47.375,
      "note": 77,
      "duration": 0.25,
      "velocity": 100
    },
    {
      "time": 47.625,
      "note": 79,
      "duration": 0.25,
      "velocity": 100
    },
    {
      "time": 48.125,
      "note": 79,
      "duration": 0.5,
      "velocity": 100
    },
    {
      "time": 48.625,
      "note": 79,
      "duration": 0.25,
      "velocity": 100
    },
    {
      "time": 48.875,
      "note": 89,
      "duration": 0.5,
      "velocity": 100
    },
    {
      "time": 49.375,
      "note": 88,
      "duration": 0.5,
      "velocity": 100
    },
    {
      "time": 50.125,
      "note": 79,
      "duration": 0.25,
      "velocity": 100
    },
    {
      "time": 50.375,
      "note": 79,
      "duration": 0.25,
      "velocity": 100
    },
    {
      "time": 50.625,
      "note": 79,
      "duration": 0.25,
      "velocity": 100
    },
    {
      "time": 50.875,
      "note": 89,
      "duration": 0.5,
      "velocity": 100
    },
    {
      "time": 51.375,
      "note": 88,
      "duration": 0.25,
      "velocity": 100
    },
    {
      "time": 51.625,
      "note": 88,
      "duration": 0.25,
      "velocity": 100
    },
    {
      "time": 51.875,
      "note": 88,
      "duration": 0.25,
      "velocity": 100
    },
    {
      "time": 52.125,
      "note": 86,
      "duration": 0.25,
      "velocity": 100
    },
    {
      "time": 52.375,
      "note": 86,
      "duration": 0.25,
      "velocity": 100
    },
    {
      "time": 52.625,
      "note": 86,
      "duration": 0.25,
      "velocity": 100
    },
    {
      "time": 52.875,
      "note": 86,
      "duration": 0.5,
      "velocity": 100
    },
    {
      "time": 53.375,
      "note": 83,
      "duration": 0.25,
      "velocity": 100
    },
    {
      "time": 53.625,
      "note": 84,
      "duration": 0.25,
      "velocity": 100
    },
    {
      "time": 54.125,
      "note": 84,
      "duration": 0.5,
      "velocity": 100
    },
    {
      "time": 54.625,
      "note": 76,
      "duration": 0.5,
      "velocity": 100
    },
    {
      "time": 55.125,
      "note": 84,
      "duration": 0.5,
      "velocity": 100
    },
    {
      "time": 55.125,
      "note": 84,
      "duration": 0.25,
      "velocity": 100
    },
    {
      "time": 55.375,
      "note": 84,
      "duration": 0.25,
      "velocity": 100
    },
    {
      "time": 55.625,
      "note": 84,
      "duration": 0.25,
      "velocity": 100
    },
    {
      "time": 55.875,
      "note": 84,
      "duration": 0.25,
      "velocity": 100
    },
    {
      "time": 56.375,
      "note": 84,
      "duration": 0.25,
      "velocity": 100
    },
    {
      "time": 56.875,
      "note": 84,
      "duration": 0.25,
      "velocity": 100
    },
    {
      "time": 57.125,
      "note": 84,
      "duration": 0.25,
      "velocity": 100
    },
    {
      "time": 57.375,
      "note": 84,
      "duration": 0.25,
      "velocity": 100
    },
    {
      "time": 57.625,
      "note": 84,
      "duration": 0.25,
      "velocity": 100
    },
    {
      "time": 57.875,
      "note": 83,
      "duration": 0.25,
      "velocity": 100
    },
    {
      "time": 58.375,
      "note": 83,
      "duration": 0.5,
      "velocity": 100
    },
    {
      "time": 58.875,
      "note": 76,
      "duration": 0.5,
      "velocity": 100
    },
    {
      "time": 59.375,
      "note": 84,
      "duration": 0.5,
      "velocity": 100
    },
    {
      "time": 59.375,
      "note": 86,
      "duration": 0.3333333333333333,
      "velocity": 100
    },
    {
      "time": 59.708333333333336,
      "note": 84,
      "duration": 0.3333333333333333,
      "velocity": 100
    },
    {
      "time": 60.041666666666664,
      "note": 83,
      "duration": 0.3333333333333333,
      "velocity": 100
    },
    {
      "time": 60.375,
      "note": 84,
      "duration": 1.0,
      "velocity": 100
    },
    {
      "time": 61.375,
      "note": 79,
      "duration": 0.25,
      "velocity": 100
    },
    {
      "time": 61.625,
      "note": 77,
      "duration": 0.25,
      "velocity": 100
    },
    {
      "time": 61.875,
      "note": 77,
      "duration": 0.25,
      "velocity": 100
    },
    {
      "time": 62.125,
      "note": 79,
      "duration": 0.25,
      "velocity": 100
    },
    {
      "time": 62.75,
      "note": 86,
      "duration": 0.25,
      "velocity": 100
    },
    {
      "time": 63.0,
      "note": 83,
      "duration": 0.25,
      "velocity": 100
    },
    {
      "time": 63.25,
      "note": 79,
      "duration": 0.25,
      "velocity": 100
    },
    {
      "time": 63.5,
      "note": 83,
      "duration": 0.25,
      "velocity": 100
    },
    {
      "time": 63.75,
      "note": 86,
      "duration": 0.125,
      "velocity": 100
    },
    {
      "time": 63.875,
      "note": 86,
      "duration": 0.25,
      "velocity": 100
    },
    {
      "time": 64.125,
      "note": 83,
      "duration": 0.125,
      "velocity": 100
    },
    {
      "time": 64.25,
      "note": 86,
      "duration": 0.25,
      "velocity": 100
    },
    {
      "time": 64.5,
      "note": 83,
      "duration": 0.25,
      "velocity": 100
    },
    {
      "time": 64.75,
      "note": 88,
      "duration": 0.25,
      "velocity": 100
    },
    {
      "time": 65.0,
      "note": 84,
      "duration": 0.25,
      "velocity": 100
    },
    {
      "time": 65.25,
      "note": 79,
      "duration": 0.25,
      "velocity": 100
    },
    {
      "time": 65.5,
      "note": 83,
      "duration": 0.5,
      "velocity": 100
    },
    {
      "time": 66.0,
      "note": 88,
      "duration": 0.5,
      "velocity": 100
    },
    {
      "time": 66.5,
      "note": 88,
      "duration": 0.5,
      "velocity": 100
    },
    {
      "time": 64.75,
      "note": 86,
      "duration": 0.25,
      "velocity": 100
    },
    {
      "time": 65.0,
      "note": 83,
      "duration": 0.25,
      "velocity": 100
    },
    {
      "time": 65.25,
      "note": 79,
      "duration": 0.25,
      "velocity": 100
    },
    {
      "time": 65.5,
      "note": 83,
      "duration": 0.25,
      "velocity": 100
    },
    {
      "time": 65.75,
      "note": 86,
      "duration": 0.125,
      "velocity": 100
    },
    {
      "time": 65.875,
      "note": 86,
      "duration": 0.25,
      "velocity": 100
    },
    {
      "time": 66.125,
      "note": 83,
      "duration": 0.125,
      "velocity": 100
    },
    {
      "time": 66.25,
      "note": 86,
      "duration": 0.25,
      "velocity": 100
    },
    {
      "time": 66.5,
      "note": 83,
      "duration": 0.25,
      "velocity": 100
    },
    {
      "time": 66.75,
      "note": 84,
      "duration": 0.5,
      "velocity": 100
    },
    {
      "time": 67.25,
      "note": 76,
      "duration": 0.5,
      "velocity": 100
    },
    {
      "time": 67.75,
      "note": 84,
      "duration": 0.5,
      "velocity": 100
    },
    {
      "time": 68.25,
      "note": 84,
      "duration": 0.5,
      "velocity": 100
    },
    {
      "time": 68.75,
      "note": 86,
      "duration": 0.5,
      "velocity": 100
    },
    {
      "time": 69.25,
      "note": 88,
      "duration": 0.5,
      "velocity": 100
    },
    {
      "time": 69.75,
      "note": 86,
      "duration": 0.5,
      "velocity": 100
    },
    {
      "time": 70.25,
      "note": 84,
      "duration": 0.25,
      "velocity": 100
    },
    {
      "time": 70.5,
      "note": 86,
      "duration": 0.25,
      "velocity": 100
    },
    {
      "time": 70.75,
      "note": 88,
      "duration": 0.5,
      "velocity": 100
    },
    {
      "time": 71.25,
      "note": 84,
      "duration": 0.5,
      "velocity": 100
    },
    {
      "time": 71.75,
      "note": 84,
      "duration": 1.0,
      "velocity": 100
    },
    {
      "time": 72.75,
      "note": 86,
      "duration": 0.5,
      "velocity": 100
    },
    {
      "time": 73.25,
      "note": 88,
      "duration": 0.5,
      "velocity": 100
    },
    {
      "time": 73.75,
      "note": 86,
      "duration": 0.5,
      "velocity": 100
    },
    {
      "time": 74.25,
      "note": 84,
      "duration": 0.25,
      "velocity": 100
    },
    {
      "time": 74.5,
      "note": 86,
      "duration": 0.25,
      "velocity": 100
    },
    {
      "time": 74.75,
      "note": 88,
      "duration": 0.5,
      "velocity": 100
    },
    {
      "time": 75.25,
      "note": 89,
      "duration": 0.5,
      "velocity": 100
    },
    {
      "time": 75.75,
      "note": 88,
      "duration": 1.0,
      "velocity": 100
    }
  ],
  "chords": [
    {
      "time": 0.0,
      "notes": [
        67,
        71,
        74
      ],
      "duration": 2.074324324324324
    },
    {
      "time": 2.074324324324324,
      "notes": [
        60,
        64,
        67
      ],
      "duration": 2.074324324324324
    },
    {
      "time": 4.148648648648648,
      "notes": [
        67,
        71,
        74
      ],
      "duration": 2.074324324324324
    },
    {
      "time": 6.222972972972972,
      "notes": [
        60,
        64,
        67
      ],
      "duration": 2.074324324324324
    },
    {
      "time": 8.297297297297296,
      "notes": [
        65,
        69,
        72
      ],
      "duration": 2.074324324324324
    },
    {
      "time": 10.371621621621621,
      "notes": [
        67,
        71,
        74
      ],
      "duration": 2.074324324324324
    },
    {
      "time": 12.445945945945944,
      "notes": [
        69,
        72,
        76
      ],
      "duration": 2.074324324324324
    },
    {
      "time": 14.520270270270268,
      "notes": [
        67,
        71,
        74
      ],
      "duration": 2.074324324324324
    },
    {
      "time": 16.594594594594593,
      "notes": [
        65,
        69,
        72
      ],
      "duration": 2.074324324324324
    },
    {
      "time": 18.668918918918916,
      "notes": [
        60,
        64,
        67
      ],
      "duration": 2.074324324324324
    },
    {
      "time": 20.743243243243242,
      "notes": [
        67,
        71,
        74
      ],
      "duration": 2.074324324324324
    },
    {
      "time": 22.817567567567565,
      "notes": [
        69,
        72,
        76
      ],
      "duration": 2.074324324324324
    },
    {
      "time": 24.891891891891888,
      "notes": [
        65,
        69,
        72
      ],
      "duration": 2.074324324324324
    },
    {
      "time": 26.966216216216214,
      "notes": [
        67,
        71,
        74
      ],
      "duration": 2.074324324324324
    },
    {
      "time": 29.040540540540537,
      "notes": [
        60,
        64,
        67
      ],
      "duration": 2.074324324324324
    },
    {
      "time": 31.114864864864863,
      "notes": [
        65,
        69,
        72
      ],
      "duration": 2.074324324324324
    },
    {
      "time": 33.189189189189186,
      "notes": [
        67,
        71,
        74
      ],
      "duration": 2.074324324324324
    },
    {
      "time": 35.26351351351351,
      "notes": [
        60,
        64,
        67
      ],
      "duration": 2.074324324324324
    },
    {
      "time": 37.33783783783783,
      "notes": [
        69,
        72,
        76
      ],
      "duration": 2.074324324324324
    },
    {
      "time": 39.41216216216216,
      "notes": [
        65,
        69,
        72
      ],
      "duration": 2.074324324324324
    },
    {
      "time": 41.486486486486484,
      "notes": [
        67,
        71,
        74
      ],
      "duration": 2.074324324324324
    },
    {
      "time": 43.56081081081081,
      "notes": [
        60,
        64,
        67
      ],
      "duration": 2.074324324324324
    },
    {
      "time": 45.63513513513513,
      "notes": [
        67,
        71,
        74
      ],
      "duration": 2.074324324324324
    },
    {
      "time": 47.70945945945945,
      "notes": [
        60,
        64,
        67
      ],
      "duration": 2.074324324324324
    },
    {
      "time": 49.783783783783775,
      "notes": [
        67,
        71,
        74
      ],
      "duration": 2.074324324324324
    },
    {
      "time": 51.858108108108105,
      "notes": [
        69,
        72,
        76
      ],
      "duration": 2.074324324324324
    },
    {
      "time": 53.93243243243243,
      "notes": [
        65,
        69,
        72
      ],
      "duration": 2.074324324324324
    },
    {
      "time": 56.00675675675675,
      "notes": [
        67,
        71,
        74
      ],
      "duration": 2.074324324324324
    },
    {
      "time": 58.081081081081074,
      "notes": [
        60,
        64,
        67
      ],
      "duration": 2.074324324324324
    },
    {
      "time": 60.155405405405396,
      "notes": [
        67,
        71,
        74
      ],
      "duration": 2.074324324324324
    },
    {
      "time": 62.229729729729726,
      "notes": [
        60,
        64,
        67
      ],
      "duration": 2.074324324324324
    },
    {
      "time": 64.30405405405405,
      "notes": [
        67,
        71,
        74
      ],
      "duration": 2.074324324324324
    },
    {
      "time": 66.37837837837837,
      "notes": [
        60,
        64,
        67
      ],
      "duration": 2.074324324324324
    },
    {
      "time": 68.4527027027027,
      "notes": [
        67,
        71,
        74
      ],
      "duration": 2.074324324324324
    },
    {
      "time": 70.52702702702702,
      "notes": [
        60,
        64,
        67
      ],
      "duration": 2.074324324324324
    },
    {
      "time": 72.60135135135134,
      "notes": [
        67,
        71,
        74
      ],
      "duration": 2.074324324324324
    },
    {
      "time": 74.67567567567566,
      "notes": [
        60,
        64,
        67
      ],
      "duration": 2.074324324324324
    }
  ]
}