{
  "title": "2",
  "artist": "Fuga villera No.2",
  "bpm": 120,
  "duration": 48.0,
  "audioFile": "",
  "notes": [
    {
      "time": 8.375,
      "note": 72,
      "duration": 0.125,
      "velocity": 100
    },
    {
      "time": 8.5,
      "note": 74,
      "duration": 0.125,
      "velocity": 100
    },
    {
      "time": 8.625,
      "note": 72,
      "duration": 0.125,
      "velocity": 100
    },
    {
      "time": 8.75,
      "note": 70,
      "duration": 0.125,
      "velocity": 100
    },
    {
      "time": 8.875,
      "note": 69,
      "duration": 0.125,
      "velocity": 100
    },
    {
      "time": 9.0,
      "note": 70,
      "duration": 0.125,
      "velocity": 100
    },
    {
      "time": 9.125,
      "note": 69,
      "duration": 0.125,
      "velocity": 100
    },
    {
      "time": 9.25,
      "note": 67,
      "duration": 0.25,
      "velocity": 100
    },
    {
      "time": 9.75,
      "note": 67,
      "duration": 0.125,
      "velocity": 100
    },
    {
      "time": 9.875,
      "note": 67,
      "duration": 0.125,
      "velocity": 100
    },
    {
      "time": 10.0,
      "note": 72,
      "duration": 0.125,
      "velocity": 100
    },
    {
      "time": 10.125,
      "note": 72,
      "duration": 0.125,
      "velocity": 100
    },
    {
      "time": 10.25,
      "note": 72,
      "duration": 0.125,
      "velocity": 100
    },
    {
      "time": 10.375,
      "note": 72,
      "duration": 0.125,
      "velocity": 100
    },
    {
      "time": 10.5,
      "note": 72,
      "duration": 0.125,
      "velocity": 100
    },
    {
      "time": 10.625,
      "note": 72,
      "duration": 0.125,
      "velocity": 100
    },
    {
      "time": 10.75,
      "note": 70,
      "duration": 0.125,
      "velocity": 100
    },
    {
      "time": 10.875,
      "note": 69,
      "duration": 0.125,
      "velocity": 100
    },
    {
      "time": 11.0,
      "note": 70,
      "duration": 0.25,
      "velocity": 100
    },
    {
      "time": 11.25,
      "note": 70,
      "duration": 0.25,
      "velocity": 100
    },
    {
      "time": 11.5,
      "note": 70,
      "duration": 0.125,
      "velocity": 100
    },
    {
      "time": 11.625,
      "note": 70,
      "duration": 0.125,
      "velocity": 100
    },
    {
      "time": 11.75,
      "note": 70,
      "duration": 0.125,
      "velocity": 100
    },
    {
      "time": 11.875,
      "note": 70,
      "duration": 0.125,
      "velocity": 100
    },
    {
      "time": 15.375,
      "note": 65,
      "duration": 0.125,
      "velocity": 100
    },
    {
      "time": 15.5,
      "note": 67,
      "duration": 0.125,
      "velocity": 100
    },
    {
      "time": 15.625,
      "note": 65,
      "duration": 0.125,
      "velocity": 100
    },
    {
      "time": 15.75,
      "note": 63,
      "duration": 0.125,
      "velocity": 100
    },
    {
      "time": 15.875,
      "note": 62,
      "duration": 0.125,
      "velocity": 100
    },
    {
      "time": 16.0,
      "note": 63,
      "duration": 0.125,
      "velocity": 100
    },
    {
      "time": 16.125,
      "note": 62,
      "duration": 0.125,
      "velocity": 100
    },
    {
      "time": 16.25,
      "note": 60,
      "duration": 0.25,
      "velocity": 100
    },
    {
      "time": 16.75,
      "note": 60,
      "duration": 0.125,
      "velocity": 100
    },
    {
      "time": 16.875,
      "note": 60,
      "duration": 0.125,
      "velocity": 100
    },
    {
      "time": 17.0,
      "note": 65,
      "duration": 0.125,
      "velocity": 100
    },
    {
      "time": 17.125,
      "note": 65,
      "duration": 0.125,
      "velocity": 100
    },
    {
      "time": 17.25,
      "note": 65,
      "duration": 0.125,
      "velocity": 100
    },
    {
      "time": 17.375,
      "note": 65,
      "duration": 0.125,
      "velocity": 100
    },
    {
      "time": 17.5,
      "note": 65,
      "duration": 0.125,
      "velocity": 100
    },
    {
      "time": 17.625,
      "note": 65,
      "duration": 0.125,
      "velocity": 100
    },
    {
      "time": 17.75,
      "note": 63,
      "duration": 0.125,
      "velocity": 100
    },
    {
      "time": 17.875,
      "note": 62,
      "duration": 0.125,
      "velocity": 100
    },
    {
      "time": 18.0,
      "note": 63,
      "duration": 0.25,
      "velocity": 100
    },
    {
      "time": 18.25,
      "note": 63,
      "duration": 0.25,
      "velocity": 100
    },
    {
      "time": 18.5,
      "note": 63,
      "duration": 0.125,
      "velocity": 100
    },
    {
      "time": 18.625,
      "note": 63,
      "duration": 0.125,
      "velocity": 100
    },
    {
      "time": 18.75,
      "note": 63,
      "duration": 0.125,
      "velocity": 100
    },
    {
      "time": 18.875,
      "note": 63,
      "duration": 0.125,
      "velocity": 100
    },
    {
      "time": 19.0,
      "note": 62,
      "duration": 0.125,
      "velocity": 100
    },
    {
      "time": 19.125,
      "note": 62,
      "duration": 0.125,
      "velocity": 100
    },
    {
      "time": 19.25,
      "note": 62,
      "duration": 0.125,
      "velocity": 100
    },
    {
      "time": 19.375,
      "note": 62,
      "duration": 0.125,
      "velocity": 100
    },
    {
      "time": 19.5,
      "note": 62,
      "duration": 0.125,
      "velocity": 100
    },
    {
      "time": 19.625,
      "note": 62,
      "duration": 0.125,
      "velocity": 100
    },
    {
      "time": 19.75,
      "note": 63,
      "duration": 0.125,
      "velocity": 100
    },
    {
      "time": 19.875,
      "note": 62,
      "duration": 0.125,
      "velocity": 100
    },
    {
      "time": 20.0,
      "note": 62,
      "duration": 0.25,
      "velocity": 100
    },
    {
      "time": 20.25,
      "note": 60,
      "duration": 0.25,
      "velocity": 100
    },
    {
      "time": 20.5,
      "note": 60,
      "duration": 0.5,
      "velocity": 100
    },
    {
      "time": 21.0,
      "note": 62,
      "duration": 0.5,
      "velocity": 100
    },
    {
      "time": 21.625,
      "note": 67,
      "duration": 0.25,
      "velocity": 100
    },
    {
      "time": 21.875,
      "note": 67,
      "duration": 0.125,
      "velocity": 100
    },
    {
      "time": 22.0,
      "note": 65,
      "duration": 0.125,
      "velocity": 100
    },
    {
      "time": 22.125,
      "note": 65,
      "duration": 0.125,
      "velocity": 100
    },
    {
      "time": 22.25,
      "note": 65,
      "duration": 0.125,
      "velocity": 100
    },
    {
      "time": 22.375,
      "note": 65,
      "duration": 0.125,
      "velocity": 100
    },
    {
      "time": 22.5,
      "note": 69,
      "duration": 0.375,
      "velocity": 100
    },
    {
      "time": 22.875,
      "note": 65,
      "duration": 0.125,
      "velocity": 100
    },
    {
      "time": 23.0,
      "note": 67,
      "duration": 0.25,
      "velocity": 100
    },
    {
      "time": 23.25,
      "note": 62,
      "duration": 0.25,
      "velocity": 100
    },
    {
      "time": 23.625,
      "note": 62,
      "duration": 0.25,
      "velocity": 100
    },
    {
      "time": 23.875,
      "note": 62,
      "duration": 0.125,
      "velocity": 100
    },
    {
      "time": 24.0,
      "note": 54,
      "duration": 0.125,
      "velocity": 100
    },
    {
      "time": 24.125,
      "note": 54,
      "duration": 0.125,
      "velocity": 100
    },
    {
      "time": 24.25,
      "note": 54,
      "duration": 0.125,
      "velocity": 100
    },
    {
      "time": 24.375,
      "note": 54,
      "duration": 0.125,
      "velocity": 100
    },
    {
      "time": 24.5,
      "note": 57,
      "duration": 0.375,
      "velocity": 100
    },
    {
      "time": 24.875,
      "note": 60,
      "duration": 0.125,
      "velocity": 100
    },
    {
      "time": 25.0,
      "note": 58,
      "duration": 0.25,
      "velocity": 100
    },
    {
      "time": 25.25,
      "note": 55,
      "duration": 0.125,
      "velocity": 100
    },
    {
      "time": 25.375,
      "note": 62,
      "duration": 0.125,
      "velocity": 100
    },
    {
      "time": 25.5,
      "note": 60,
      "duration": 0.125,
      "velocity": 100
    },
    {
      "time": 25.625,
      "note": 60,
      "duration": 0.125,
      "velocity": 100
    },
    {
      "time": 25.75,
      "note": 60,
      "duration": 0.125,
      "velocity": 100
    },
    {
      "time": 25.875,
      "note": 60,
      "duration": 0.125,
      "velocity": 100
    },
    {
      "time": 26.0,
      "note": 58,
      "duration": 0.25,
      "velocity": 100
    },
    {
      "time": 26.25,
      "note": 57,
      "duration": 0.25,
      "velocity": 100
    },
    {
      "time": 26.5,
      "note": 57,
      "duration": 0.25,
      "velocity": 100
    },
    {
      "time": 26.75,
      "note": 60,
      "duration": 0.25,
      "velocity": 100
    },
    {
      "time": 27.0,
      "note": 58,
      "duration": 0.25,
      "velocity": 100
    },
    {
      "time": 27.375,
      "note": 62,
      "duration": 0.125,
      "velocity": 100
    },
    {
      "time": 27.5,
      "note": 63,
      "duration": 0.25,
      "velocity": 100
    },
    {
      "time": 27.75,
      "note": 59,
      "duration": 0.25,
      "velocity": 100
    },
    {
      "time": 28.0,
      "note": 60,
      "duration": 0.5,
      "velocity": 100
    },
    {
      "time": 28.5,
      "note": 55,
      "duration": 0.25,
      "velocity": 100
    },
    {
      "time": 28.75,
      "note": 55,
      "duration": 0.125,
      "velocity": 100
    },
    {
      "time": 28.875,
      "note": 57,
      "duration": 0.125,
      "velocity": 100
    },
    {
      "time": 29.0,
      "note": 58,
      "duration": 0.25,
      "velocity": 100
    },
    {
      "time": 29.25,
      "note": 60,
      "duration": 0.125,
      "velocity": 100
    },
    {
      "time": 29.375,
      "note": 62,
      "duration": 0.125,
      "velocity": 100
    },
    {
      "time": 29.5,
      "note": 50,
      "duration": 0.25,
      "velocity": 100
    },
    {
      "time": 29.75,
      "note": 58,
      "duration": 0.125,
      "velocity": 100
    },
    {
      "time": 29.875,
      "note": 56,
      "duration": 0.125,
      "velocity": 100
    },
    {
      "time": 30.0,
      "note": 55,
      "duration": 0.25,
      "velocity": 100
    },
    {
      "time": 30.25,
      "note": 55,
      "duration": 0.25,
      "velocity": 100
    },
    {
      "time": 30.5,
      "note": 55,
      "duration": 0.375,
      "velocity": 100
    },
    {
      "time": 30.875,
      "note": 55,
      "duration": 0.125,
      "velocity": 100
    },
    {
      "time": 31.0,
      "note": 55,
      "duration": 0.5,
      "velocity": 100
    },
    {
      "time": 31.5,
      "note": 53,
      "duration": 0.5,
      "velocity": 100
    },
    {
      "time": 32.0,
      "note": 51,
      "duration": 0.25,
      "velocity": 100
    },
    {
      "time": 32.25,
      "note": 55,
      "duration": 0.25,
      "velocity": 100
    },
    {
      "time": 32.5,
      "note": 54,
      "duration": 0.5,
      "velocity": 100
    },
    {
      "time": 33.0,
      "note": 55,
      "duration": 0.5,
      "velocity": 100
    },
    {
      "time": 33.5,
      "note": 62,
      "duration": 0.5,
      "velocity": 100
    },
    {
      "time": 34.0,
      "note": 60,
      "duration": 0.5,
      "velocity": 100
    },
    {
      "time": 34.5,
      "note": 60,
      "duration": 0.375,
      "velocity": 100
    },
    {
      "time": 34.875,
      "note": 60,
      "duration": 0.125,
      "velocity": 100
    },
    {
      "time": 35.0,
      "note": 55,
      "duration": 0.125,
      "velocity": 100
    },
    {
      "time": 35.125,
      "note": 55,
      "duration": 0.125,
      "velocity": 100
    },
    {
      "time": 35.25,
      "note": 55,
      "duration": 0.125,
      "velocity": 100
    },
    {
      "time": 35.375,
      "note": 55,
      "duration": 0.125,
      "velocity": 100
    },
    {
      "time": 35.5,
      "note": 55,
      "duration": 0.25,
      "velocity": 100
    },
    {
      "time": 35.75,
      "note": 55,
      "duration": 0.25,
      "velocity": 100
    },
    {
      "time": 36.0,
      "note": 50,
      "duration": 0.25,
      "velocity": 100
    },
    {
      "time": 36.25,
      "note": 50,
      "duration": 0.125,
      "velocity": 100
    },
    {
      "time": 36.375,
      "note": 50,
      "duration": 0.125,
      "velocity": 100
    },
    {
      "time": 36.5,
      "note": 48,
      "duration": 0.25,
      "velocity": 100
    },
    {
      "time": 36.75,
      "note": 50,
      "duration": 0.25,
      "velocity": 100
    },
    {
      "time": 37.0,
      "note": 43,
      "duration": 0.25,
      "velocity": 100
    },
    {
      "time": 37.375,
      "note": 46,
      "duration": 0.125,
      "velocity": 100
    },
    {
      "time": 37.5,
      "note": 45,
      "duration": 0.25,
      "velocity": 100
    },
    {
      "time": 37.75,
      "note": 46,
      "duration": 0.125,
      "velocity": 100
    },
    {
      "time": 37.875,
      "note": 48,
      "duration": 0.125,
      "velocity": 100
    },
    {
      "time": 38.0,
      "note": 50,
      "duration": 0.25,
      "velocity": 100
    },
    {
      "time": 38.25,
      "note": 50,
      "duration": 0.125,
      "velocity": 100
    },
    {
      "time": 38.375,
      "note": 50,
      "duration": 0.125,
      "velocity": 100
    },
    {
      "time": 38.5,
      "note": 48,
      "duration": 0.25,
      "velocity": 100
    },
    {
      "time": 38.75,
      "note": 50,
      "duration": 0.25,
      "velocity": 100
    },
    {
      "time": 39.0,
      "note": 43,
      "duration": 1.0,
      "velocity": 100
    },
    {
      "time": 40.0,
      "note": 48,
      "duration": 0.25,
      "velocity": 100
    },
    {
      "time": 40.25,
      "note": 51,
      "duration": 0.25,
      "velocity": 100
    },
    {
      "time": 40.5,
      "note": 51,
      "duration": 0.5,
      "velocity": 100
    },
    {
      "time": 41.0,
      "note": 50,
      "duration": 0.25,
      "velocity": 100
    },
    {
      "time": 41.25,
      "note": 46,
      "duration": 0.25,
      "velocity": 100
    },
    {
      "time": 41.5,
      "note": 46,
      "duration": 0.125,
      "velocity": 100
    },
    {
      "time": 41.625,
      "note": 46,
      "duration": 0.25,
      "velocity": 100
    },
    {
      "time": 41.875,
      "note": 47,
      "duration": 0.125,
      "velocity": 100
    },
    {
      "time": 42.0,
      "note": 48,
      "duration": 0.125,
      "velocity": 100
    },
    {
      "time": 42.125,
      "note": 48,
      "duration": 0.125,
      "velocity": 100
    },
    {
      "time": 42.25,
      "note": 48,
      "duration": 0.125,
      "velocity": 100
    },
    {
      "time": 42.375,
      "note": 50,
      "duration": 0.125,
      "velocity": 100
    },
    {
      "time": 42.5,
      "note": 51,
      "duration": 0.375,
      "velocity": 100
    },
    {
      "time": 42.875,
      "note": 48,
      "duration": 0.125,
      "velocity": 100
    },
    {
      "time": 43.0,
      "note": 47,
      "duration": 0.25,
      "velocity": 100
    },
    {
      "time": 43.25,
      "note": 47,
      "duration": 0.25,
      "velocity": 100
    },
    {
      "time": 43.75,
      "note": 43,
      "duration": 0.125,
      "velocity": 100
    },
    {
      "time": 43.875,
      "note": 43,
      "duration": 0.125,
      "velocity": 100
    },
    {
      "time": 44.0,
      "note": 48,
      "duration": 0.125,
      "velocity": 100
    },
    {
      "time": 44.125,
      "note": 48,
      "duration": 0.125,
      "velocity": 100
    },
    {
      "time": 44.25,
      "note": 51,
      "duration": 0.125,
      "velocity": 100
    },
    {
      "time": 44.375,
      "note": 51,
      "duration": 0.125,
      "velocity": 100
    },
    {
      "time": 44.5,
      "note": 50,
      "duration": 0.125,
      "velocity": 100
    },
    {
      "time": 44.625,
      "note": 50,
      "duration": 0.125,
      "velocity": 100
    },
    {
      "time": 44.75,
      "note": 50,
      "duration": 0.125,
      "velocity": 100
    },
    {
      "time": 44.875,
      "note": 50,
      "duration": 0.125,
      "velocity": 100
    },
    {
      "time": 45.0,
      "note": 55,
      "duration": 0.25,
      "velocity": 100
    },
    {
      "time": 45.25,
      "note": 58,
      "duration": 0.25,
      "velocity": 100
    },
    {
      "time": 45.5,
      "note": 58,
      "duration": 0.125,
      "velocity": 100
    },
    {
      "time": 45.625,
      "note": 58,
      "duration": 0.125,
      "velocity": 100
    },
    {
      "time": 45.75,
      "note": 58,
      "duration": 0.125,
      "velocity": 100
    },
    {
      "time": 45.875,
      "note": 58,
      "duration": 0.125,
      "velocity": 100
    },
    {
      "time": 46.0,
      "note": 57,
      "duration": 0.125,
      "velocity": 100
    },
    {
      "time": 46.125,
      "note": 57,
      "duration": 0.125,
      "velocity": 100
    },
    {
      "time": 46.25,
      "note": 57,
      "duration": 0.125,
      "velocity": 100
    },
    {
      "time": 46.375,
      "note": 57,
      "duration": 0.125,
      "velocity": 100
    },
    {
      "time": 46.5,
      "note": 53,
      "duration": 0.125,
      "velocity": 100
    },
    {
      "time": 46.625,
      "note": 53,
      "duration": 0.125,
      "velocity": 100
    },
    {
      "time": 46.75,
      "note": 53,
      "duration": 0.125,
      "velocity": 100
    },
    {
      "time": 46.875,
      "note": 53,
      "duration": 0.125,
      "velocity": 100
    },
    {
      "time": 47.0,
      "note": 50,
      "duration": 0.25,
      "velocity": 100
    },
    {
      "time": 47.25,
      "note": 53,
      "duration": 0.0625,
      "velocity": 100
    },
    {
      "time": 47.3125,
      "note": 55,
      "duration": 0.1875,
      "velocity": 100
    },
    {
      "time": 47.5,
      "note": 43,
      "duration": 0.5,
      "velocity": 100
    }
  ],
  "chords": [
    {
      "time": 0.0,
      "notes": [
        71,
        75,
        78
      ],
      "duration": 9.6
    },
    {
      "time": 9.6,
      "notes": [
        64,
        68,
        71
      ],
      "duration": 9.6
    },
    {
      "time": 19.2,
      "notes": [
        71,
        75,
        78
      ],
      "duration": 9.6
    },
    {
      "time": 28.799999999999997,
      "notes": [
        71,
        75,
        78
      ],
      "duration": 9.6
    },
    {
      "time": 38.4,
      "notes": [
        64,
        68,
        71
      ],
      "duration": 9.6
    }
  ]
}