{
  "title": "ĂŹĂŹĂŹ",
  "artist": "Choque de cometas",
  "bpm": 120,
  "duration": 36.75,
  "audioFile": "",
  "notes": [
    {
      "time": 0.0,
      "note": 84,
      "duration": 0.125,
      "velocity": 100
    },
    {
      "time": 0.125,
      "note": 86,
      "duration": 0.125,
      "velocity": 100
    },
    {
      "time": 0.25,
      "note": 84,
      "duration": 0.125,
      "velocity": 100
    },
    {
      "time": 0.375,
      "note": 86,
      "duration": 0.125,
      "velocity": 100
    },
    {
      "time": 0.5,
      "note": 82,
      "duration": 0.25,
      "velocity": 100
    },
    {
      "time": 0.75,
      "note": 79,
      "duration": 0.25,
      "velocity": 100
    },
    {
      "time": 1.0,
      "note": 84,
      "duration": 0.125,
      "velocity": 100
    },
    {
      "time": 1.125,
      "note": 86,
      "duration": 0.125,
      "velocity": 100
    },
    {
      "time": 1.25,
      "note": 84,
      "duration": 0.125,
      "velocity": 100
    },
    {
      "time": 1.375,
      "note": 86,
      "duration": 0.125,
      "velocity": 100
    },
    {
      "time": 1.5,
      "note": 82,
      "duration": 0.25,
      "velocity": 100
    },
    {
      "time": 1.75,
      "note": 79,
      "duration": 0.25,
      "velocity": 100
    },
    {
      "time": 2.125,
      "note": 79,
      "duration": 0.25,
      "velocity": 100
    },
    {
      "time": 2.375,
      "note": 79,
      "duration": 0.125,
      "velocity": 100
    },
    {
      "time": 2.5,
      "note": 82,
      "duration": 0.25,
      "velocity": 100
    },
    {
      "time": 2.75,
      "note": 86,
      "duration": 0.25,
      "velocity": 100
    },
    {
      "time": 3.0,
      "note": 89,
      "duration": 0.125,
      "velocity": 100
    },
    {
      "time": 3.125,
      "note": 89,
      "duration": 0.125,
      "velocity": 100
    },
    {
      "time": 3.25,
      "note": 89,
      "duration": 0.125,
      "velocity": 100
    },
    {
      "time": 3.375,
      "note": 87,
      "duration": 0.125,
      "velocity": 100
    },
    {
      "time": 3.5,
      "note": 89,
      "duration": 0.125,
      "velocity": 100
    },
    {
      "time": 3.625,
      "note": 87,
      "duration": 0.125,
      "velocity": 100
    },
    {
      "time": 3.75,
      "note": 84,
      "duration": 0.25,
      "velocity": 100
    },
    {
      "time": 4.0,
      "note": 84,
      "duration": 0.125,
      "velocity": 100
    },
    {
      "time": 4.125,
      "note": 87,
      "duration": 0.125,
      "velocity": 100
    },
    {
      "time": 4.25,
      "note": 86,
      "duration": 0.125,
      "velocity": 100
    },
    {
      "time": 4.375,
      "note": 87,
      "duration": 0.125,
      "velocity": 100
    },
    {
      "time": 4.5,
      "note": 84,
      "duration": 0.5,
      "velocity": 100
    },
    {
      "time": 5.0,
      "note": 84,
      "duration": 1.0,
      "velocity": 100
    },
    {
      "time": 5.0,
      "note": 86,
      "duration": 0.125,
      "velocity": 100
    },
    {
      "time": 5.125,
      "note": 88,
      "duration": 0.125,
      "velocity": 100
    },
    {
      "time": 5.25,
      "note": 86,
      "duration": 0.125,
      "velocity": 100
    },
    {
      "time": 5.375,
      "note": 88,
      "duration": 0.125,
      "velocity": 100
    },
    {
      "time": 5.5,
      "note": 84,
      "duration": 0.25,
      "velocity": 100
    },
    {
      "time": 5.75,
      "note": 81,
      "duration": 0.25,
      "velocity": 100
    },
    {
      "time": 6.625,
      "note": 81,
      "duration": 0.25,
      "velocity": 100
    },
    {
      "time": 6.875,
      "note": 84,
      "duration": 0.25,
      "velocity": 100
    },
    {
      "time": 6.875,
      "note": 81,
      "duration": 0.125,
      "velocity": 100
    },
    {
      "time": 7.0,
      "note": 84,
      "duration": 0.125,
      "velocity": 100
    },
    {
      "time": 7.0,
      "note": 81,
      "duration": 0.25,
      "velocity": 100
    },
    {
      "time": 7.25,
      "note": 84,
      "duration": 0.25,
      "velocity": 100
    },
    {
      "time": 7.25,
      "note": 81,
      "duration": 0.25,
      "velocity": 100
    },
    {
      "time": 7.5,
      "note": 84,
      "duration": 0.25,
      "velocity": 100
    },
    {
      "time": 7.5,
      "note": 91,
      "duration": 0.125,
      "velocity": 100
    },
    {
      "time": 7.625,
      "note": 91,
      "duration": 0.125,
      "velocity": 100
    },
    {
      "time": 7.75,
      "note": 91,
      "duration": 0.125,
      "velocity": 100
    },
    {
      "time": 7.875,
      "note": 89,
      "duration": 0.125,
      "velocity": 100
    },
    {
      "time": 8.0,
      "note": 91,
      "duration": 0.125,
      "velocity": 100
    },
    {
      "time": 8.125,
      "note": 89,
      "duration": 0.125,
      "velocity": 100
    },
    {
      "time": 8.25,
      "note": 86,
      "duration": 0.25,
      "velocity": 100
    },
    {
      "time": 7.625,
      "note": 91,
      "duration": 0.5,
      "velocity": 100
    },
    {
      "time": 8.125,
      "note": 86,
      "duration": 0.5,
      "velocity": 100
    },
    {
      "time": 9.125,
      "note": 79,
      "duration": 0.125,
      "velocity": 100
    },
    {
      "time": 9.25,
      "note": 79,
      "duration": 0.125,
      "velocity": 100
    },
    {
      "time": 9.375,
      "note": 79,
      "duration": 0.125,
      "velocity": 100
    },
    {
      "time": 9.5,
      "note": 77,
      "duration": 0.125,
      "velocity": 100
    },
    {
      "time": 9.625,
      "note": 79,
      "duration": 0.125,
      "velocity": 100
    },
    {
      "time": 9.75,
      "note": 81,
      "duration": 0.125,
      "velocity": 100
    },
    {
      "time": 9.875,
      "note": 82,
      "duration": 0.25,
      "velocity": 100
    },
    {
      "time": 10.125,
      "note": 84,
      "duration": 1.0,
      "velocity": 100
    },
    {
      "time": 11.25,
      "note": 86,
      "duration": 0.125,
      "velocity": 100
    },
    {
      "time": 11.375,
      "note": 91,
      "duration": 0.125,
      "velocity": 100
    },
    {
      "time": 11.5,
      "note": 86,
      "duration": 0.125,
      "velocity": 100
    },
    {
      "time": 11.625,
      "note": 91,
      "duration": 0.25,
      "velocity": 100
    },
    {
      "time": 11.875,
      "note": 86,
      "duration": 0.125,
      "velocity": 100
    },
    {
      "time": 12.0,
      "note": 91,
      "duration": 0.125,
      "velocity": 100
    },
    {
      "time": 12.125,
      "note": 89,
      "duration": 0.25,
      "velocity": 100
    },
    {
      "time": 12.375,
      "note": 89,
      "duration": 0.125,
      "velocity": 100
    },
    {
      "time": 12.5,
      "note": 84,
      "duration": 0.125,
      "velocity": 100
    },
    {
      "time": 12.75,
      "note": 84,
      "duration": 0.125,
      "velocity": 100
    },
    {
      "time": 12.875,
      "note": 81,
      "duration": 0.25,
      "velocity": 100
    },
    {
      "time": 13.125,
      "note": 81,
      "duration": 0.125,
      "velocity": 100
    },
    {
      "time": 13.25,
      "note": 81,
      "duration": 0.125,
      "velocity": 100
    },
    {
      "time": 13.375,
      "note": 84,
      "duration": 0.125,
      "velocity": 100
    },
    {
      "time": 13.5,
      "note": 81,
      "duration": 0.125,
      "velocity": 100
    },
    {
      "time": 13.625,
      "note": 89,
      "duration": 0.25,
      "velocity": 100
    },
    {
      "time": 13.875,
      "note": 84,
      "duration": 0.125,
      "velocity": 100
    },
    {
      "time": 14.0,
      "note": 89,
      "duration": 0.125,
      "velocity": 100
    },
    {
      "time": 14.125,
      "note": 91,
      "duration": 0.25,
      "velocity": 100
    },
    {
      "time": 14.375,
      "note": 91,
      "duration": 0.125,
      "velocity": 100
    },
    {
      "time": 14.5,
      "note": 86,
      "duration": 0.125,
      "velocity": 100
    },
    {
      "time": 14.75,
      "note": 86,
      "duration": 0.125,
      "velocity": 100
    },
    {
      "time": 14.875,
      "note": 82,
      "duration": 0.25,
      "velocity": 100
    },
    {
      "time": 15.125,
      "note": 82,
      "duration": 0.5,
      "velocity": 100
    },
    {
      "time": 15.625,
      "note": 91,
      "duration": 0.5,
      "velocity": 100
    },
    {
      "time": 15.625,
      "note": 67,
      "duration": 0.125,
      "velocity": 100
    },
    {
      "time": 15.75,
      "note": 70,
      "duration": 0.125,
      "velocity": 100
    },
    {
      "time": 15.875,
      "note": 72,
      "duration": 0.125,
      "velocity": 100
    },
    {
      "time": 16.0,
      "note": 73,
      "duration": 0.125,
      "velocity": 100
    },
    {
      "time": 16.125,
      "note": 74,
      "duration": 0.125,
      "velocity": 100
    },
    {
      "time": 16.25,
      "note": 77,
      "duration": 0.125,
      "velocity": 100
    },
    {
      "time": 16.375,
      "note": 79,
      "duration": 0.125,
      "velocity": 100
    },
    {
      "time": 16.5,
      "note": 82,
      "duration": 0.125,
      "velocity": 100
    },
    {
      "time": 16.625,
      "note": 84,
      "duration": 0.125,
      "velocity": 100
    },
    {
      "time": 16.75,
      "note": 89,
      "duration": 0.125,
      "velocity": 100
    },
    {
      "time": 16.875,
      "note": 88,
      "duration": 0.125,
      "velocity": 100
    },
    {
      "time": 17.0,
      "note": 87,
      "duration": 0.125,
      "velocity": 100
    },
    {
      "time": 17.125,
      "note": 86,
      "duration": 0.125,
      "velocity": 100
    },
    {
      "time": 17.5,
      "note": 84,
      "duration": 1.0,
      "velocity": 100
    },
    {
      "time": 18.5,
      "note": 82,
      "duration": 0.125,
      "velocity": 100
    },
    {
      "time": 18.625,
      "note": 81,
      "duration": 0.125,
      "velocity": 100
    },
    {
      "time": 18.75,
      "note": 81,
      "duration": 0.125,
      "velocity": 100
    },
    {
      "time": 18.875,
      "note": 79,
      "duration": 0.125,
      "velocity": 100
    },
    {
      "time": 19.0,
      "note": 79,
      "duration": 0.125,
      "velocity": 100
    },
    {
      "time": 19.125,
      "note": 74,
      "duration": 0.375,
      "velocity": 100
    },
    {
      "time": 19.5,
      "note": 82,
      "duration": 0.125,
      "velocity": 100
    },
    {
      "time": 19.625,
      "note": 81,
      "duration": 0.125,
      "velocity": 100
    },
    {
      "time": 19.75,
      "note": 81,
      "duration": 0.125,
      "velocity": 100
    },
    {
      "time": 19.875,
      "note": 79,
      "duration": 0.125,
      "velocity": 100
    },
    {
      "time": 20.0,
      "note": 79,
      "duration": 0.125,
      "velocity": 100
    },
    {
      "time": 20.125,
      "note": 74,
      "duration": 0.375,
      "velocity": 100
    },
    {
      "time": 20.5,
      "note": 74,
      "duration": 0.125,
      "velocity": 100
    },
    {
      "time": 20.625,
      "note": 74,
      "duration": 0.125,
      "velocity": 100
    },
    {
      "time": 20.75,
      "note": 74,
      "duration": 0.125,
      "velocity": 100
    },
    {
      "time": 20.875,
      "note": 74,
      "duration": 0.125,
      "velocity": 100
    },
    {
      "time": 21.0,
      "note": 86,
      "duration": 0.25,
      "velocity": 100
    },
    {
      "time": 21.25,
      "note": 88,
      "duration": 0.125,
      "velocity": 100
    },
    {
      "time": 21.375,
      "note": 84,
      "duration": 0.125,
      "velocity": 100
    },
    {
      "time": 21.5,
      "note": 84,
      "duration": 0.25,
      "velocity": 100
    },
    {
      "time": 21.625,
      "note": 77,
      "duration": 0.125,
      "velocity": 100
    },
    {
      "time": 21.75,
      "note": 81,
      "duration": 0.125,
      "velocity": 100
    },
    {
      "time": 21.875,
      "note": 84,
      "duration": 0.125,
      "velocity": 100
    },
    {
      "time": 22.0,
      "note": 88,
      "duration": 0.25,
      "velocity": 100
    },
    {
      "time": 22.25,
      "note": 88,
      "duration": 0.125,
      "velocity": 100
    },
    {
      "time": 22.375,
      "note": 84,
      "duration": 0.125,
      "velocity": 100
    },
    {
      "time": 22.5,
      "note": 84,
      "duration": 0.125,
      "velocity": 100
    },
    {
      "time": 22.625,
      "note": 77,
      "duration": 0.125,
      "velocity": 100
    },
    {
      "time": 22.75,
      "note": 81,
      "duration": 0.125,
      "velocity": 100
    },
    {
      "time": 22.875,
      "note": 84,
      "duration": 0.125,
      "velocity": 100
    },
    {
      "time": 23.0,
      "note": 88,
      "duration": 0.25,
      "velocity": 100
    },
    {
      "time": 23.25,
      "note": 84,
      "duration": 0.125,
      "velocity": 100
    },
    {
      "time": 23.375,
      "note": 81,
      "duration": 0.125,
      "velocity": 100
    },
    {
      "time": 23.5,
      "note": 84,
      "duration": 1.0,
      "velocity": 100
    },
    {
      "time": 23.5,
      "note": 88,
      "duration": 0.125,
      "velocity": 100
    },
    {
      "time": 23.625,
      "note": 86,
      "duration": 0.125,
      "velocity": 100
    },
    {
      "time": 23.75,
      "note": 86,
      "duration": 0.125,
      "velocity": 100
    },
    {
      "time": 23.875,
      "note": 84,
      "duration": 0.125,
      "velocity": 100
    },
    {
      "time": 24.0,
      "note": 84,
      "duration": 0.125,
      "velocity": 100
    },
    {
      "time": 24.125,
      "note": 79,
      "duration": 0.375,
      "velocity": 100
    },
    {
      "time": 24.5,
      "note": 79,
      "duration": 0.125,
      "velocity": 100
    },
    {
      "time": 24.625,
      "note": 79,
      "duration": 0.125,
      "velocity": 100
    },
    {
      "time": 24.75,
      "note": 79,
      "duration": 0.125,
      "velocity": 100
    },
    {
      "time": 24.875,
      "note": 79,
      "duration": 0.125,
      "velocity": 100
    },
    {
      "time": 25.0,
      "note": 79,
      "duration": 0.125,
      "velocity": 100
    },
    {
      "time": 25.125,
      "note": 79,
      "duration": 0.25,
      "velocity": 100
    },
    {
      "time": 25.375,
      "note": 82,
      "duration": 0.125,
      "velocity": 100
    },
    {
      "time": 25.5,
      "note": 82,
      "duration": 0.25,
      "velocity": 100
    },
    {
      "time": 25.75,
      "note": 82,
      "duration": 0.125,
      "velocity": 100
    },
    {
      "time": 25.875,
      "note": 79,
      "duration": 0.125,
      "velocity": 100
    },
    {
      "time": 26.0,
      "note": 77,
      "duration": 0.125,
      "velocity": 100
    },
    {
      "time": 26.125,
      "note": 79,
      "duration": 0.125,
      "velocity": 100
    },
    {
      "time": 26.25,
      "note": 77,
      "duration": 0.125,
      "velocity": 100
    },
    {
      "time": 26.375,
      "note": 74,
      "duration": 0.125,
      "velocity": 100
    },
    {
      "time": 26.5,
      "note": 77,
      "duration": 0.125,
      "velocity": 100
    },
    {
      "time": 26.625,
      "note": 74,
      "duration": 0.25,
      "velocity": 100
    },
    {
      "time": 26.875,
      "note": 74,
      "duration": 0.5,
      "velocity": 100
    },
    {
      "time": 27.5,
      "note": 74,
      "duration": 0.125,
      "velocity": 100
    },
    {
      "time": 27.625,
      "note": 74,
      "duration": 0.25,
      "velocity": 100
    },
    {
      "time": 27.875,
      "note": 70,
      "duration": 0.125,
      "velocity": 100
    },
    {
      "time": 28.375,
      "note": 84,
      "duration": 0.25,
      "velocity": 100
    },
    {
      "time": 28.625,
      "note": 81,
      "duration": 0.25,
      "velocity": 100
    },
    {
      "time": 28.875,
      "note": 77,
      "duration": 0.125,
      "velocity": 100
    },
    {
      "time": 28.125,
      "note": 86,
      "duration": 0.25,
      "velocity": 100
    },
    {
      "time": 28.375,
      "note": 86,
      "duration": 0.125,
      "velocity": 100
    },
    {
      "time": 28.5,
      "note": 86,
      "duration": 0.125,
      "velocity": 100
    },
    {
      "time": 28.625,
      "note": 86,
      "duration": 0.25,
      "velocity": 100
    },
    {
      "time": 28.875,
      "note": 84,
      "duration": 0.125,
      "velocity": 100
    },
    {
      "time": 28.125,
      "note": 74,
      "duration": 0.25,
      "velocity": 100
    },
    {
      "time": 28.375,
      "note": 72,
      "duration": 0.25,
      "velocity": 100
    },
    {
      "time": 28.625,
      "note": 74,
      "duration": 0.125,
      "velocity": 100
    },
    {
      "time": 28.75,
      "note": 72,
      "duration": 0.125,
      "velocity": 100
    },
    {
      "time": 28.875,
      "note": 70,
      "duration": 0.125,
      "velocity": 100
    },
    {
      "time": 29.0,
      "note": 84,
      "duration": 0.5,
      "velocity": 100
    },
    {
      "time": 29.125,
      "note": 65,
      "duration": 0.125,
      "velocity": 100
    },
    {
      "time": 29.25,
      "note": 69,
      "duration": 0.125,
      "velocity": 100
    },
    {
      "time": 29.375,
      "note": 72,
      "duration": 0.125,
      "velocity": 100
    },
    {
      "time": 29.5,
      "note": 75,
      "duration": 0.25,
      "velocity": 100
    },
    {
      "time": 29.75,
      "note": 72,
      "duration": 0.125,
      "velocity": 100
    },
    {
      "time": 29.875,
      "note": 69,
      "duration": 0.125,
      "velocity": 100
    },
    {
      "time": 30.125,
      "note": 87,
      "duration": 0.25,
      "velocity": 100
    },
    {
      "time": 30.375,
      "note": 87,
      "duration": 0.125,
      "velocity": 100
    },
    {
      "time": 30.5,
      "note": 87,
      "duration": 0.125,
      "velocity": 100
    },
    {
      "time": 30.625,
      "note": 87,
      "duration": 0.25,
      "velocity": 100
    },
    {
      "time": 30.875,
      "note": 86,
      "duration": 0.125,
      "velocity": 100
    },
    {
      "time": 30.0,
      "note": 69,
      "duration": 1.0,
      "velocity": 100
    },
    {
      "time": 31.0,
      "note": 72,
      "duration": 1.0,
      "velocity": 100
    },
    {
      "time": 31.0,
      "note": 86,
      "duration": 0.25,
      "velocity": 100
    },
    {
      "time": 31.125,
      "note": 67,
      "duration": 0.25,
      "velocity": 100
    },
    {
      "time": 31.375,
      "note": 67,
      "duration": 0.25,
      "velocity": 100
    },
    {
      "time": 31.5,
      "note": 70,
      "duration": 0.125,
      "velocity": 100
    },
    {
      "time": 31.625,
      "note": 69,
      "duration": 0.125,
      "velocity": 100
    },
    {
      "time": 31.75,
      "note": 70,
      "duration": 0.125,
      "velocity": 100
    },
    {
      "time": 31.875,
      "note": 74,
      "duration": 0.125,
      "velocity": 100
    },
    {
      "time": 32.0,
      "note": 84,
      "duration": 1.0,
      "velocity": 100
    },
    {
      "time": 32.0,
      "note": 84,
      "duration": 0.125,
      "velocity": 100
    },
    {
      "time": 32.125,
      "note": 81,
      "duration": 0.25,
      "velocity": 100
    },
    {
      "time": 32.375,
      "note": 84,
      "duration": 0.125,
      "velocity": 100
    },
    {
      "time": 32.5,
      "note": 84,
      "duration": 0.25,
      "velocity": 100
    },
    {
      "time": 32.75,
      "note": 81,
      "duration": 0.25,
      "velocity": 100
    },
    {
      "time": 32.125,
      "note": 65,
      "duration": 0.125,
      "velocity": 100
    },
    {
      "time": 32.25,
      "note": 69,
      "duration": 0.125,
      "velocity": 100
    },
    {
      "time": 32.375,
      "note": 72,
      "duration": 0.125,
      "velocity": 100
    },
    {
      "time": 32.5,
      "note": 76,
      "duration": 0.25,
      "velocity": 100
    },
    {
      "time": 32.75,
      "note": 72,
      "duration": 0.125,
      "velocity": 100
    },
    {
      "time": 32.875,
      "note": 69,
      "duration": 0.125,
      "velocity": 100
    },
    {
      "time": 33.125,
      "note": 77,
      "duration": 0.25,
      "velocity": 100
    },
    {
      "time": 33.375,
      "note": 77,
      "duration": 0.125,
      "velocity": 100
    },
    {
      "time": 33.5,
      "note": 77,
      "duration": 0.25,
      "velocity": 100
    },
    {
      "time": 33.75,
      "note": 77,
      "duration": 0.125,
      "velocity": 100
    },
    {
      "time": 33.875,
      "note": 79,
      "duration": 0.125,
      "velocity": 100
    },
    {
      "time": 34.0,
      "note": 79,
      "duration": 1.0,
      "velocity": 100
    },
    {
      "time": 34.125,
      "note": 82,
      "duration": 0.125,
      "velocity": 100
    },
    {
      "time": 34.25,
      "note": 79,
      "duration": 0.125,
      "velocity": 100
    },
    {
      "time": 34.375,
      "note": 77,
      "duration": 0.125,
      "velocity": 100
    },
    {
      "time": 34.5,
      "note": 79,
      "duration": 0.125,
      "velocity": 100
    },
    {
      "time": 34.625,
      "note": 77,
      "duration": 0.125,
      "velocity": 100
    },
    {
      "time": 34.75,
      "note": 74,
      "duration": 0.125,
      "velocity": 100
    },
    {
      "time": 34.875,
      "note": 77,
      "duration": 0.125,
      "velocity": 100
    },
    {
      "time": 35.125,
      "note": 74,
      "duration": 0.25,
      "velocity": 100
    },
    {
      "time": 35.375,
      "note": 74,
      "duration": 0.5,
      "velocity": 100
    },
    {
      "time": 35.875,
      "note": 74,
      "duration": 0.25,
      "velocity": 100
    },
    {
      "time": 36.125,
      "note": 74,
      "duration": 0.125,
      "velocity": 100
    },
    {
      "time": 36.25,
      "note": 74,
      "duration": 0.5,
      "velocity": 100
    }
  ],
  "chords": [
    {
      "time": 0.0,
      "notes": [
        67,
        70,
        74
      ],
      "duration": 2.161764705882353
    },
    {
      "time": 2.161764705882353,
      "notes": [
        65,
        69,
        72
      ],
      "duration": 2.161764705882353
    },
    {
      "time": 4.323529411764706,
      "notes": [
        60,
        63,
        67
      ],
      "duration": 2.161764705882353
    },
    {
      "time": 6.485294117647058,
      "notes": [
        67,
        70,
        74
      ],
      "duration": 2.161764705882353
    },
    {
      "time": 8.647058823529411,
      "notes": [
        67,
        70,
        74
      ],
      "duration": 2.161764705882353
    },
    {
      "time": 10.808823529411764,
      "notes": [
        65,
        69,
        72
      ],
      "duration": 2.161764705882353
    },
    {
      "time": 12.970588235294116,
      "notes": [
        67,
        70,
        74
      ],
      "duration": 2.161764705882353
    },
    {
      "time": 15.13235294117647,
      "notes": [
        67,
        70,
        74
      ],
      "duration": 2.161764705882353
    },
    {
      "time": 17.294117647058822,
      "notes": [
        67,
        70,
        74
      ],
      "duration": 2.161764705882353
    },
    {
      "time": 19.455882352941174,
      "notes": [
        65,
        69,
        72
      ],
      "duration": 2.161764705882353
    },
    {
      "time": 21.61764705882353,
      "notes": [
        60,
        63,
        67
      ],
      "duration": 2.161764705882353
    },
    {
      "time": 23.77941176470588,
      "notes": [
        67,
        70,
        74
      ],
      "duration": 2.161764705882353
    },
    {
      "time": 25.941176470588232,
      "notes": [
        67,
        70,
        74
      ],
      "duration": 2.161764705882353
    },
    {
      "time": 28.102941176470587,
      "notes": [
        65,
        69,
        72
      ],
      "duration": 2.161764705882353
    },
    {
      "time": 30.26470588235294,
      "notes": [
        67,
        70,
        74
      ],
      "duration": 2.161764705882353
    },
    {
      "time": 32.42647058823529,
      "notes": [
        65,
        69,
        72
      ],
      "duration": 2.161764705882353
    },
    {
      "time": 34.588235294117645,
      "notes": [
        67,
        70,
        74
      ],
      "duration": 2.161764705882353
    }
  ]
}