{
  "title": "Carinito",
  "artist": "Los hijos del sol (Peru)",
  "bpm": 120,
  "duration": 46.125,
  "audioFile": "",
  "notes": [
    {
      "time": 0.875,
      "note": 91,
      "duration": 0.125,
      "velocity": 100
    },
    {
      "time": 0.0,
      "note": 69,
      "duration": 0.375,
      "velocity": 100
    },
    {
      "time": 0.375,
      "note": 64,
      "duration": 0.125,
      "velocity": 100
    },
    {
      "time": 0.5,
      "note": 69,
      "duration": 0.5,
      "velocity": 100
    },
    {
      "time": 1.0,
      "note": 88,
      "duration": 0.125,
      "velocity": 100
    },
    {
      "time": 1.125,
      "note": 88,
      "duration": 0.25,
      "velocity": 100
    },
    {
      "time": 1.375,
      "note": 84,
      "duration": 0.125,
      "velocity": 100
    },
    {
      "time": 1.5,
      "note": 88,
      "duration": 0.25,
      "velocity": 100
    },
    {
      "time": 1.5,
      "note": 67,
      "duration": 0.25,
      "velocity": 100
    },
    {
      "time": 1.75,
      "note": 69,
      "duration": 0.25,
      "velocity": 100
    },
    {
      "time": 1.5,
      "note": 84,
      "duration": 0.125,
      "velocity": 100
    },
    {
      "time": 1.625,
      "note": 81,
      "duration": 0.125,
      "velocity": 100
    },
    {
      "time": 1.75,
      "note": 81,
      "duration": 0.25,
      "velocity": 100
    },
    {
      "time": 2.0,
      "note": 77,
      "duration": 0.25,
      "velocity": 100
    },
    {
      "time": 2.25,
      "note": 72,
      "duration": 0.5,
      "velocity": 100
    },
    {
      "time": 2.25,
      "note": 72,
      "duration": 0.375,
      "velocity": 100
    },
    {
      "time": 2.625,
      "note": 67,
      "duration": 0.125,
      "velocity": 100
    },
    {
      "time": 2.75,
      "note": 72,
      "duration": 0.5,
      "velocity": 100
    },
    {
      "time": 3.25,
      "note": 88,
      "duration": 0.125,
      "velocity": 100
    },
    {
      "time": 3.375,
      "note": 91,
      "duration": 0.125,
      "velocity": 100
    },
    {
      "time": 3.5,
      "note": 88,
      "duration": 0.125,
      "velocity": 100
    },
    {
      "time": 3.625,
      "note": 86,
      "duration": 0.125,
      "velocity": 100
    },
    {
      "time": 3.75,
      "note": 88,
      "duration": 0.125,
      "velocity": 100
    },
    {
      "time": 3.875,
      "note": 86,
      "duration": 0.125,
      "velocity": 100
    },
    {
      "time": 4.0,
      "note": 84,
      "duration": 0.125,
      "velocity": 100
    },
    {
      "time": 4.125,
      "note": 86,
      "duration": 0.125,
      "velocity": 100
    },
    {
      "time": 4.25,
      "note": 72,
      "duration": 0.375,
      "velocity": 100
    },
    {
      "time": 4.625,
      "note": 67,
      "duration": 0.125,
      "velocity": 100
    },
    {
      "time": 4.75,
      "note": 72,
      "duration": 0.5,
      "velocity": 100
    },
    {
      "time": 5.125,
      "note": 88,
      "duration": 0.125,
      "velocity": 100
    },
    {
      "time": 5.25,
      "note": 91,
      "duration": 0.125,
      "velocity": 100
    },
    {
      "time": 5.375,
      "note": 88,
      "duration": 0.125,
      "velocity": 100
    },
    {
      "time": 5.5,
      "note": 88,
      "duration": 0.25,
      "velocity": 100
    },
    {
      "time": 5.375,
      "note": 72,
      "duration": 0.25,
      "velocity": 100
    },
    {
      "time": 5.625,
      "note": 74,
      "duration": 0.25,
      "velocity": 100
    },
    {
      "time": 5.875,
      "note": 72,
      "duration": 0.25,
      "velocity": 100
    },
    {
      "time": 5.625,
      "note": 88,
      "duration": 0.125,
      "velocity": 100
    },
    {
      "time": 5.75,
      "note": 88,
      "duration": 0.25,
      "velocity": 100
    },
    {
      "time": 6.0,
      "note": 84,
      "duration": 0.125,
      "velocity": 100
    },
    {
      "time": 6.125,
      "note": 88,
      "duration": 0.25,
      "velocity": 100
    },
    {
      "time": 6.375,
      "note": 69,
      "duration": 0.375,
      "velocity": 100
    },
    {
      "time": 6.75,
      "note": 64,
      "duration": 0.125,
      "velocity": 100
    },
    {
      "time": 6.875,
      "note": 69,
      "duration": 0.5,
      "velocity": 100
    },
    {
      "time": 7.25,
      "note": 91,
      "duration": 0.125,
      "velocity": 100
    },
    {
      "time": 7.375,
      "note": 88,
      "duration": 0.125,
      "velocity": 100
    },
    {
      "time": 7.5,
      "note": 86,
      "duration": 0.125,
      "velocity": 100
    },
    {
      "time": 7.625,
      "note": 84,
      "duration": 0.125,
      "velocity": 100
    },
    {
      "time": 7.75,
      "note": 86,
      "duration": 0.125,
      "velocity": 100
    },
    {
      "time": 7.875,
      "note": 84,
      "duration": 0.125,
      "velocity": 100
    },
    {
      "time": 8.0,
      "note": 81,
      "duration": 0.125,
      "velocity": 100
    },
    {
      "time": 8.125,
      "note": 81,
      "duration": 0.25,
      "velocity": 100
    },
    {
      "time": 8.375,
      "note": 77,
      "duration": 0.25,
      "velocity": 100
    },
    {
      "time": 8.625,
      "note": 88,
      "duration": 0.125,
      "velocity": 100
    },
    {
      "time": 8.75,
      "note": 86,
      "duration": 0.125,
      "velocity": 100
    },
    {
      "time": 8.875,
      "note": 84,
      "duration": 0.125,
      "velocity": 100
    },
    {
      "time": 9.0,
      "note": 86,
      "duration": 0.125,
      "velocity": 100
    },
    {
      "time": 9.125,
      "note": 84,
      "duration": 0.125,
      "velocity": 100
    },
    {
      "time": 9.25,
      "note": 81,
      "duration": 0.125,
      "velocity": 100
    },
    {
      "time": 9.375,
      "note": 79,
      "duration": 0.125,
      "velocity": 100
    },
    {
      "time": 9.5,
      "note": 76,
      "duration": 0.125,
      "velocity": 100
    },
    {
      "time": 9.125,
      "note": 88,
      "duration": 0.0625,
      "velocity": 100
    },
    {
      "time": 9.1875,
      "note": 91,
      "duration": 0.0625,
      "velocity": 100
    },
    {
      "time": 9.25,
      "note": 88,
      "duration": 0.125,
      "velocity": 100
    },
    {
      "time": 9.375,
      "note": 86,
      "duration": 0.0625,
      "velocity": 100
    },
    {
      "time": 9.4375,
      "note": 88,
      "duration": 0.0625,
      "velocity": 100
    },
    {
      "time": 9.5,
      "note": 86,
      "duration": 0.125,
      "velocity": 100
    },
    {
      "time": 9.0,
      "note": 88,
      "duration": 0.5,
      "velocity": 100
    },
    {
      "time": 9.5,
      "note": 84,
      "duration": 0.0625,
      "velocity": 100
    },
    {
      "time": 9.5625,
      "note": 86,
      "duration": 0.0625,
      "velocity": 100
    },
    {
      "time": 9.625,
      "note": 84,
      "duration": 0.25,
      "velocity": 100
    },
    {
      "time": 9.875,
      "note": 84,
      "duration": 0.125,
      "velocity": 100
    },
    {
      "time": 10.0,
      "note": 84,
      "duration": 0.0625,
      "velocity": 100
    },
    {
      "time": 10.0625,
      "note": 86,
      "duration": 0.0625,
      "velocity": 100
    },
    {
      "time": 10.125,
      "note": 84,
      "duration": 0.25,
      "velocity": 100
    },
    {
      "time": 10.375,
      "note": 84,
      "duration": 0.125,
      "velocity": 100
    },
    {
      "time": 10.5,
      "note": 84,
      "duration": 0.375,
      "velocity": 100
    },
    {
      "time": 10.875,
      "note": 88,
      "duration": 0.125,
      "velocity": 100
    },
    {
      "time": 11.0,
      "note": 88,
      "duration": 0.25,
      "velocity": 100
    },
    {
      "time": 11.25,
      "note": 86,
      "duration": 0.25,
      "velocity": 100
    },
    {
      "time": 11.5,
      "note": 84,
      "duration": 0.375,
      "velocity": 100
    },
    {
      "time": 11.875,
      "note": 84,
      "duration": 0.125,
      "velocity": 100
    },
    {
      "time": 12.0,
      "note": 84,
      "duration": 0.375,
      "velocity": 100
    },
    {
      "time": 12.375,
      "note": 84,
      "duration": 0.125,
      "velocity": 100
    },
    {
      "time": 12.5,
      "note": 84,
      "duration": 0.375,
      "velocity": 100
    },
    {
      "time": 12.875,
      "note": 88,
      "duration": 0.125,
      "velocity": 100
    },
    {
      "time": 13.0,
      "note": 88,
      "duration": 0.25,
      "velocity": 100
    },
    {
      "time": 13.25,
      "note": 86,
      "duration": 0.25,
      "velocity": 100
    },
    {
      "time": 13.5,
      "note": 84,
      "duration": 0.375,
      "velocity": 100
    },
    {
      "time": 13.875,
      "note": 84,
      "duration": 0.125,
      "velocity": 100
    },
    {
      "time": 14.0,
      "note": 84,
      "duration": 0.375,
      "velocity": 100
    },
    {
      "time": 14.375,
      "note": 84,
      "duration": 0.125,
      "velocity": 100
    },
    {
      "time": 14.5,
      "note": 84,
      "duration": 0.375,
      "velocity": 100
    },
    {
      "time": 14.875,
      "note": 84,
      "duration": 0.125,
      "velocity": 100
    },
    {
      "time": 15.0,
      "note": 84,
      "duration": 0.25,
      "velocity": 100
    },
    {
      "time": 15.25,
      "note": 83,
      "duration": 0.25,
      "velocity": 100
    },
    {
      "time": 15.5,
      "note": 81,
      "duration": 0.375,
      "velocity": 100
    },
    {
      "time": 15.875,
      "note": 81,
      "duration": 0.125,
      "velocity": 100
    },
    {
      "time": 16.0,
      "note": 81,
      "duration": 0.375,
      "velocity": 100
    },
    {
      "time": 16.375,
      "note": 81,
      "duration": 0.125,
      "velocity": 100
    },
    {
      "time": 16.5,
      "note": 81,
      "duration": 0.375,
      "velocity": 100
    },
    {
      "time": 16.875,
      "note": 76,
      "duration": 0.125,
      "velocity": 100
    },
    {
      "time": 17.0,
      "note": 76,
      "duration": 0.25,
      "velocity": 100
    },
    {
      "time": 17.25,
      "note": 74,
      "duration": 0.25,
      "velocity": 100
    },
    {
      "time": 17.5,
      "note": 72,
      "duration": 0.375,
      "velocity": 100
    },
    {
      "time": 17.875,
      "note": 72,
      "duration": 0.125,
      "velocity": 100
    },
    {
      "time": 18.0,
      "note": 72,
      "duration": 0.375,
      "velocity": 100
    },
    {
      "time": 18.375,
      "note": 72,
      "duration": 0.125,
      "velocity": 100
    },
    {
      "time": 18.5,
      "note": 72,
      "duration": 0.375,
      "velocity": 100
    },
    {
      "time": 18.875,
      "note": 76,
      "duration": 0.125,
      "velocity": 100
    },
    {
      "time": 19.0,
      "note": 76,
      "duration": 0.25,
      "velocity": 100
    },
    {
      "time": 19.25,
      "note": 74,
      "duration": 0.25,
      "velocity": 100
    },
    {
      "time": 19.5,
      "note": 72,
      "duration": 0.375,
      "velocity": 100
    },
    {
      "time": 19.875,
      "note": 72,
      "duration": 0.125,
      "velocity": 100
    },
    {
      "time": 20.0,
      "note": 72,
      "duration": 0.375,
      "velocity": 100
    },
    {
      "time": 20.375,
      "note": 72,
      "duration": 0.125,
      "velocity": 100
    },
    {
      "time": 20.5,
      "note": 72,
      "duration": 0.375,
      "velocity": 100
    },
    {
      "time": 20.875,
      "note": 76,
      "duration": 0.125,
      "velocity": 100
    },
    {
      "time": 21.0,
      "note": 76,
      "duration": 0.25,
      "velocity": 100
    },
    {
      "time": 21.25,
      "note": 74,
      "duration": 0.25,
      "velocity": 100
    },
    {
      "time": 21.5,
      "note": 72,
      "duration": 0.375,
      "velocity": 100
    },
    {
      "time": 21.875,
      "note": 72,
      "duration": 0.125,
      "velocity": 100
    },
    {
      "time": 22.0,
      "note": 72,
      "duration": 0.375,
      "velocity": 100
    },
    {
      "time": 22.375,
      "note": 72,
      "duration": 0.125,
      "velocity": 100
    },
    {
      "time": 22.5,
      "note": 72,
      "duration": 0.375,
      "velocity": 100
    },
    {
      "time": 22.875,
      "note": 72,
      "duration": 0.125,
      "velocity": 100
    },
    {
      "time": 23.0,
      "note": 72,
      "duration": 0.25,
      "velocity": 100
    },
    {
      "time": 23.25,
      "note": 71,
      "duration": 0.25,
      "velocity": 100
    },
    {
      "time": 23.5,
      "note": 69,
      "duration": 0.375,
      "velocity": 100
    },
    {
      "time": 23.875,
      "note": 69,
      "duration": 0.125,
      "velocity": 100
    },
    {
      "time": 24.0,
      "note": 69,
      "duration": 0.375,
      "velocity": 100
    },
    {
      "time": 24.375,
      "note": 69,
      "duration": 0.125,
      "velocity": 100
    },
    {
      "time": 24.5,
      "note": 88,
      "duration": 0.125,
      "velocity": 100
    },
    {
      "time": 24.625,
      "note": 88,
      "duration": 0.25,
      "velocity": 100
    },
    {
      "time": 24.875,
      "note": 88,
      "duration": 0.125,
      "velocity": 100
    },
    {
      "time": 25.0,
      "note": 88,
      "duration": 0.25,
      "velocity": 100
    },
    {
      "time": 25.25,
      "note": 84,
      "duration": 0.25,
      "velocity": 100
    },
    {
      "time": 25.5,
      "note": 81,
      "duration": 0.25,
      "velocity": 100
    },
    {
      "time": 24.5,
      "note": 69,
      "duration": 1.0,
      "velocity": 100
    },
    {
      "time": 25.5,
      "note": 84,
      "duration": 0.375,
      "velocity": 100
    },
    {
      "time": 25.875,
      "note": 81,
      "duration": 0.125,
      "velocity": 100
    },
    {
      "time": 26.0,
      "note": 81,
      "duration": 0.5,
      "velocity": 100
    },
    {
      "time": 27.0,
      "note": 84,
      "duration": 0.25,
      "velocity": 100
    },
    {
      "time": 27.25,
      "note": 86,
      "duration": 0.25,
      "velocity": 100
    },
    {
      "time": 27.5,
      "note": 88,
      "duration": 0.375,
      "velocity": 100
    },
    {
      "time": 27.875,
      "note": 84,
      "duration": 0.125,
      "velocity": 100
    },
    {
      "time": 28.0,
      "note": 84,
      "duration": 0.5,
      "velocity": 100
    },
    {
      "time": 29.0,
      "note": 84,
      "duration": 0.25,
      "velocity": 100
    },
    {
      "time": 29.25,
      "note": 86,
      "duration": 0.25,
      "velocity": 100
    },
    {
      "time": 29.5,
      "note": 88,
      "duration": 0.75,
      "velocity": 100
    },
    {
      "time": 29.5,
      "note": 86,
      "duration": 0.75,
      "velocity": 100
    },
    {
      "time": 30.25,
      "note": 79,
      "duration": 0.5,
      "velocity": 100
    },
    {
      "time": 30.75,
      "note": 88,
      "duration": 0.5,
      "velocity": 100
    },
    {
      "time": 30.75,
      "note": 84,
      "duration": 0.375,
      "velocity": 100
    },
    {
      "time": 31.125,
      "note": 81,
      "duration": 0.125,
      "velocity": 100
    },
    {
      "time": 31.25,
      "note": 81,
      "duration": 0.5,
      "velocity": 100
    },
    {
      "time": 31.875,
      "note": 72,
      "duration": 0.125,
      "velocity": 100
    },
    {
      "time": 32.0,
      "note": 74,
      "duration": 0.125,
      "velocity": 100
    },
    {
      "time": 32.125,
      "note": 76,
      "duration": 0.125,
      "velocity": 100
    },
    {
      "time": 32.25,
      "note": 77,
      "duration": 0.125,
      "velocity": 100
    },
    {
      "time": 32.375,
      "note": 79,
      "duration": 0.125,
      "velocity": 100
    },
    {
      "time": 32.5,
      "note": 81,
      "duration": 0.125,
      "velocity": 100
    },
    {
      "time": 32.625,
      "note": 83,
      "duration": 0.125,
      "velocity": 100
    },
    {
      "time": 32.0,
      "note": 84,
      "duration": 0.5,
      "velocity": 100
    },
    {
      "time": 32.5,
      "note": 93,
      "duration": 0.5,
      "velocity": 100
    },
    {
      "time": 32.0,
      "note": 81,
      "duration": 1.0,
      "velocity": 100
    },
    {
      "time": 33.0,
      "note": 93,
      "duration": 1.5,
      "velocity": 100
    },
    {
      "time": 33.0,
      "note": 81,
      "duration": 0.5,
      "velocity": 100
    },
    {
      "time": 33.5,
      "note": 79,
      "duration": 0.5,
      "velocity": 100
    },
    {
      "time": 34.0,
      "note": 91,
      "duration": 1.0,
      "velocity": 100
    },
    {
      "time": 35.0,
      "note": 95,
      "duration": 1.0,
      "velocity": 100
    },
    {
      "time": 34.0,
      "note": 79,
      "duration": 0.375,
      "velocity": 100
    },
    {
      "time": 34.375,
      "note": 76,
      "duration": 0.125,
      "velocity": 100
    },
    {
      "time": 34.5,
      "note": 76,
      "duration": 0.5,
      "velocity": 100
    },
    {
      "time": 35.0,
      "note": 84,
      "duration": 1.0,
      "velocity": 100
    },
    {
      "time": 36.0,
      "note": 84,
      "duration": 0.25,
      "velocity": 100
    },
    {
      "time": 36.25,
      "note": 84,
      "duration": 0.25,
      "velocity": 100
    },
    {
      "time": 36.5,
      "note": 84,
      "duration": 0.5,
      "velocity": 100
    },
    {
      "time": 37.0,
      "note": 81,
      "duration": 0.25,
      "velocity": 100
    },
    {
      "time": 37.25,
      "note": 88,
      "duration": 0.375,
      "velocity": 100
    },
    {
      "time": 37.625,
      "note": 83,
      "duration": 0.125,
      "velocity": 100
    },
    {
      "time": 37.75,
      "note": 83,
      "duration": 0.5,
      "velocity": 100
    },
    {
      "time": 38.75,
      "note": 88,
      "duration": 0.25,
      "velocity": 100
    },
    {
      "time": 39.0,
      "note": 86,
      "duration": 0.25,
      "velocity": 100
    },
    {
      "time": 39.25,
      "note": 88,
      "duration": 0.375,
      "velocity": 100
    },
    {
      "time": 39.625,
      "note": 84,
      "duration": 0.125,
      "velocity": 100
    },
    {
      "time": 39.75,
      "note": 84,
      "duration": 0.5,
      "velocity": 100
    },
    {
      "time": 40.75,
      "note": 84,
      "duration": 0.25,
      "velocity": 100
    },
    {
      "time": 41.0,
      "note": 86,
      "duration": 0.25,
      "velocity": 100
    },
    {
      "time": 41.25,
      "note": 88,
      "duration": 0.75,
      "velocity": 100
    },
    {
      "time": 42.0,
      "note": 83,
      "duration": 0.5,
      "velocity": 100
    },
    {
      "time": 42.5,
      "note": 91,
      "duration": 0.5,
      "velocity": 100
    },
    {
      "time": 42.5,
      "note": 86,
      "duration": 0.75,
      "velocity": 100
    },
    {
      "time": 43.25,
      "note": 79,
      "duration": 0.5,
      "velocity": 100
    },
    {
      "time": 43.75,
      "note": 88,
      "duration": 0.5,
      "velocity": 100
    },
    {
      "time": 43.75,
      "note": 84,
      "duration": 0.375,
      "velocity": 100
    },
    {
      "time": 44.125,
      "note": 81,
      "duration": 0.125,
      "velocity": 100
    },
    {
      "time": 44.25,
      "note": 81,
      "duration": 0.5,
      "velocity": 100
    },
    {
      "time": 44.875,
      "note": 84,
      "duration": 0.25,
      "velocity": 100
    },
    {
      "time": 45.125,
      "note": 84,
      "duration": 0.25,
      "velocity": 100
    },
    {
      "time": 45.375,
      "note": 84,
      "duration": 0.5,
      "velocity": 100
    },
    {
      "time": 45.875,
      "note": 81,
      "duration": 0.25,
      "velocity": 100
    }
  ],
  "chords": [
    {
      "time": 0.0,
      "notes": [
        60,
        64,
        67
      ],
      "duration": 2.5625
    },
    {
      "time": 2.5625,
      "notes": [
        69,
        72,
        76
      ],
      "duration": 2.5625
    },
    {
      "time": 5.125,
      "notes": [
        60,
        64,
        67
      ],
      "duration": 2.5625
    },
    {
      "time": 7.6875,
      "notes": [
        69,
        72,
        76
      ],
      "duration": 2.5625
    },
    {
      "time": 10.25,
      "notes": [
        69,
        72,
        76
      ],
      "duration": 2.5625
    },
    {
      "time": 12.8125,
      "notes": [
        60,
        64,
        67
      ],
      "duration": 2.5625
    },
    {
      "time": 15.375,
      "notes": [
        64,
        68,
        71,
        74
      ],
      "duration": 2.5625
    },
    {
      "time": 17.9375,
      "notes": [
        69,
        72,
        76
      ],
      "duration": 2.5625
    },
    {
      "time": 20.5,
      "notes": [
        65,
        69,
        72
      ],
      "duration": 2.5625
    },
    {
      "time": 23.0625,
      "notes": [
        67,
        71,
        74
      ],
      "duration": 2.5625
    },
    {
      "time": 25.625,
      "notes": [
        60,
        64,
        67
      ],
      "duration": 2.5625
    },
    {
      "time": 28.1875,
      "notes": [
        60,
        64,
        67,
        70
      ],
      "duration": 2.5625
    },
    {
      "time": 30.75,
      "notes": [
        60,
        64,
        67,
        70
      ],
      "duration": 2.5625
    },
    {
      "time": 33.3125,
      "notes": [
        64,
        68,
        71,
        74
      ],
      "duration": 2.5625
    },
    {
      "time": 35.875,
      "notes": [
        69,
        72,
        76
      ],
      "duration": 2.5625
    },
    {
      "time": 38.4375,
      "notes": [
        60,
        64,
        67
      ],
      "duration": 2.5625
    },
    {
      "time": 41.0,
      "notes": [
        64,
        68,
        71,
        74
      ],
      "duration": 2.5625
    },
    {
      "time": 43.5625,
      "notes": [
        69,
        72,
        76
      ],
      "duration": 2.5625
    }
  ]
}