{
  "title": "Rick Astley - Never Gonna Give You Up (Official Video) (4K Remaster)",
  "artist": "Rick Astley",
  "bpm": 112.3,
  "duration": 213.0,
  "audioFile": "songs/never-gonna/audio.mp3",
  "notes": [
    {
      "time": 1.556,
      "note": 95,
      "duration": 0.15,
      "velocity": 100
    },
    {
      "time": 1.788,
      "note": 61,
      "duration": 0.15,
      "velocity": 100
    },
    {
      "time": 2.067,
      "note": 61,
      "duration": 0.15,
      "velocity": 100
    },
    {
      "time": 2.299,
      "note": 63,
      "duration": 0.15,
      "velocity": 100
    },
    {
      "time": 2.438,
      "note": 63,
      "duration": 0.15,
      "velocity": 100
    },
    {
      "time": 2.601,
      "note": 75,
      "duration": 0.15,
      "velocity": 100
    },
    {
      "time": 2.74,
      "note": 63,
      "duration": 0.15,
      "velocity": 100
    },
    {
      "time": 2.879,
      "note": 63,
      "duration": 0.15,
      "velocity": 100
    },
    {
      "time": 3.158,
      "note": 52,
      "duration": 0.15,
      "velocity": 100
    },
    {
      "time": 3.622,
      "note": 63,
      "duration": 0.15,
      "velocity": 100
    },
    {
      "time": 3.762,
      "note": 53,
      "duration": 0.15,
      "velocity": 100
    },
    {
      "time": 3.901,
      "note": 53,
      "duration": 0.15,
      "velocity": 100
    },
    {
      "time": 4.11,
      "note": 63,
      "duration": 0.15,
      "velocity": 100
    },
    {
      "time": 4.249,
      "note": 52,
      "duration": 0.15,
      "velocity": 100
    },
    {
      "time": 4.389,
      "note": 58,
      "duration": 0.15,
      "velocity": 100
    },
    {
      "time": 4.528,
      "note": 63,
      "duration": 0.15,
      "velocity": 100
    },
    {
      "time": 4.667,
      "note": 63,
      "duration": 0.15,
      "velocity": 100
    },
    {
      "time": 4.807,
      "note": 63,
      "duration": 0.15,
      "velocity": 100
    },
    {
      "time": 5.201,
      "note": 78,
      "duration": 0.15,
      "velocity": 100
    },
    {
      "time": 5.457,
      "note": 66,
      "duration": 0.15,
      "velocity": 100
    },
    {
      "time": 5.596,
      "note": 61,
      "duration": 0.15,
      "velocity": 100
    },
    {
      "time": 5.782,
      "note": 65,
      "duration": 0.15,
      "velocity": 100
    },
    {
      "time": 5.921,
      "note": 65,
      "duration": 0.15,
      "velocity": 100
    },
    {
      "time": 6.06,
      "note": 65,
      "duration": 0.15,
      "velocity": 100
    },
    {
      "time": 6.2,
      "note": 66,
      "duration": 0.15,
      "velocity": 100
    },
    {
      "time": 6.339,
      "note": 66,
      "duration": 0.15,
      "velocity": 100
    },
    {
      "time": 6.478,
      "note": 87,
      "duration": 0.15,
      "velocity": 100
    },
    {
      "time": 6.618,
      "note": 87,
      "duration": 0.15,
      "velocity": 100
    },
    {
      "time": 6.85,
      "note": 63,
      "duration": 0.15,
      "velocity": 100
    },
    {
      "time": 7.152,
      "note": 63,
      "duration": 0.15,
      "velocity": 100
    },
    {
      "time": 7.732,
      "note": 91,
      "duration": 0.15,
      "velocity": 100
    },
    {
      "time": 7.872,
      "note": 87,
      "duration": 0.15,
      "velocity": 100
    },
    {
      "time": 9.009,
      "note": 87,
      "duration": 0.15,
      "velocity": 100
    },
    {
      "time": 9.149,
      "note": 80,
      "duration": 0.15,
      "velocity": 100
    },
    {
      "time": 9.288,
      "note": 80,
      "duration": 0.15,
      "velocity": 100
    },
    {
      "time": 9.427,
      "note": 80,
      "duration": 0.15,
      "velocity": 100
    },
    {
      "time": 9.567,
      "note": 85,
      "duration": 0.15,
      "velocity": 100
    },
    {
      "time": 9.706,
      "note": 92,
      "duration": 0.15,
      "velocity": 100
    },
    {
      "time": 9.845,
      "note": 61,
      "duration": 0.15,
      "velocity": 100
    },
    {
      "time": 9.985,
      "note": 89,
      "duration": 0.15,
      "velocity": 100
    },
    {
      "time": 10.124,
      "note": 65,
      "duration": 0.15,
      "velocity": 100
    },
    {
      "time": 10.263,
      "note": 66,
      "duration": 0.15,
      "velocity": 100
    },
    {
      "time": 10.403,
      "note": 66,
      "duration": 0.15,
      "velocity": 100
    },
    {
      "time": 10.542,
      "note": 61,
      "duration": 0.15,
      "velocity": 100
    },
    {
      "time": 10.681,
      "note": 63,
      "duration": 0.15,
      "velocity": 100
    },
    {
      "time": 10.82,
      "note": 63,
      "duration": 0.15,
      "velocity": 100
    },
    {
      "time": 10.96,
      "note": 63,
      "duration": 0.15,
      "velocity": 100
    },
    {
      "time": 11.099,
      "note": 63,
      "duration": 0.15,
      "velocity": 100
    },
    {
      "time": 11.238,
      "note": 63,
      "duration": 0.15,
      "velocity": 100
    },
    {
      "time": 11.378,
      "note": 63,
      "duration": 0.15,
      "velocity": 100
    },
    {
      "time": 11.517,
      "note": 63,
      "duration": 0.15,
      "velocity": 100
    },
    {
      "time": 11.656,
      "note": 63,
      "duration": 0.15,
      "velocity": 100
    },
    {
      "time": 11.958,
      "note": 63,
      "duration": 0.15,
      "velocity": 100
    },
    {
      "time": 12.098,
      "note": 63,
      "duration": 0.15,
      "velocity": 100
    },
    {
      "time": 12.237,
      "note": 63,
      "duration": 0.15,
      "velocity": 100
    },
    {
      "time": 12.376,
      "note": 63,
      "duration": 0.15,
      "velocity": 100
    },
    {
      "time": 12.516,
      "note": 63,
      "duration": 0.15,
      "velocity": 100
    },
    {
      "time": 12.655,
      "note": 63,
      "duration": 0.15,
      "velocity": 100
    },
    {
      "time": 12.794,
      "note": 53,
      "duration": 0.15,
      "velocity": 100
    },
    {
      "time": 12.934,
      "note": 54,
      "duration": 0.15,
      "velocity": 100
    },
    {
      "time": 13.746,
      "note": 51,
      "duration": 0.15,
      "velocity": 100
    },
    {
      "time": 14.443,
      "note": 54,
      "duration": 0.15,
      "velocity": 100
    },
    {
      "time": 14.814,
      "note": 52,
      "duration": 0.15,
      "velocity": 100
    },
    {
      "time": 16.927,
      "note": 51,
      "duration": 0.15,
      "velocity": 100
    },
    {
      "time": 17.415,
      "note": 54,
      "duration": 0.15,
      "velocity": 100
    },
    {
      "time": 17.554,
      "note": 51,
      "duration": 0.15,
      "velocity": 100
    },
    {
      "time": 17.694,
      "note": 54,
      "duration": 0.15,
      "velocity": 100
    },
    {
      "time": 17.833,
      "note": 53,
      "duration": 0.15,
      "velocity": 100
    },
    {
      "time": 17.972,
      "note": 51,
      "duration": 0.15,
      "velocity": 100
    },
    {
      "time": 18.112,
      "note": 50,
      "duration": 0.15,
      "velocity": 100
    },
    {
      "time": 21.78,
      "note": 75,
      "duration": 0.15,
      "velocity": 100
    },
    {
      "time": 22.175,
      "note": 52,
      "duration": 0.15,
      "velocity": 100
    },
    {
      "time": 22.314,
      "note": 70,
      "duration": 0.15,
      "velocity": 100
    },
    {
      "time": 22.454,
      "note": 72,
      "duration": 0.15,
      "velocity": 100
    },
    {
      "time": 23.522,
      "note": 70,
      "duration": 0.15,
      "velocity": 100
    },
    {
      "time": 23.754,
      "note": 77,
      "duration": 0.15,
      "velocity": 100
    },
    {
      "time": 24.985,
      "note": 56,
      "duration": 0.15,
      "velocity": 100
    },
    {
      "time": 25.124,
      "note": 61,
      "duration": 0.15,
      "velocity": 100
    },
    {
      "time": 25.263,
      "note": 84,
      "duration": 0.15,
      "velocity": 100
    },
    {
      "time": 26.192,
      "note": 64,
      "duration": 0.15,
      "velocity": 100
    },
    {
      "time": 26.424,
      "note": 52,
      "duration": 0.15,
      "velocity": 100
    },
    {
      "time": 26.564,
      "note": 52,
      "duration": 0.15,
      "velocity": 100
    },
    {
      "time": 27.376,
      "note": 58,
      "duration": 0.15,
      "velocity": 100
    },
    {
      "time": 27.516,
      "note": 60,
      "duration": 0.15,
      "velocity": 100
    },
    {
      "time": 27.655,
      "note": 60,
      "duration": 0.15,
      "velocity": 100
    },
    {
      "time": 27.794,
      "note": 60,
      "duration": 0.15,
      "velocity": 100
    },
    {
      "time": 28.561,
      "note": 52,
      "duration": 0.15,
      "velocity": 100
    },
    {
      "time": 31.231,
      "note": 55,
      "duration": 0.15,
      "velocity": 100
    },
    {
      "time": 31.37,
      "note": 57,
      "duration": 0.15,
      "velocity": 100
    },
    {
      "time": 31.765,
      "note": 60,
      "duration": 0.15,
      "velocity": 100
    },
    {
      "time": 31.904,
      "note": 54,
      "duration": 0.15,
      "velocity": 100
    },
    {
      "time": 34.273,
      "note": 59,
      "duration": 0.15,
      "velocity": 100
    },
    {
      "time": 34.923,
      "note": 58,
      "duration": 0.15,
      "velocity": 100
    },
    {
      "time": 35.178,
      "note": 94,
      "duration": 0.15,
      "velocity": 100
    },
    {
      "time": 38.801,
      "note": 60,
      "duration": 0.15,
      "velocity": 100
    },
    {
      "time": 38.963,
      "note": 60,
      "duration": 0.15,
      "velocity": 100
    },
    {
      "time": 39.102,
      "note": 60,
      "duration": 0.15,
      "velocity": 100
    },
    {
      "time": 40.403,
      "note": 56,
      "duration": 0.15,
      "velocity": 100
    },
    {
      "time": 46.417,
      "note": 72,
      "duration": 0.15,
      "velocity": 100
    },
    {
      "time": 46.835,
      "note": 68,
      "duration": 0.15,
      "velocity": 100
    },
    {
      "time": 47.183,
      "note": 73,
      "duration": 0.15,
      "velocity": 100
    },
    {
      "time": 47.322,
      "note": 73,
      "duration": 0.15,
      "velocity": 100
    },
    {
      "time": 47.462,
      "note": 73,
      "duration": 0.15,
      "velocity": 100
    },
    {
      "time": 47.601,
      "note": 65,
      "duration": 0.15,
      "velocity": 100
    },
    {
      "time": 47.787,
      "note": 65,
      "duration": 0.15,
      "velocity": 100
    },
    {
      "time": 47.926,
      "note": 66,
      "duration": 0.15,
      "velocity": 100
    },
    {
      "time": 48.39,
      "note": 66,
      "duration": 0.15,
      "velocity": 100
    },
    {
      "time": 48.971,
      "note": 68,
      "duration": 0.15,
      "velocity": 100
    },
    {
      "time": 49.11,
      "note": 72,
      "duration": 0.15,
      "velocity": 100
    },
    {
      "time": 49.25,
      "note": 72,
      "duration": 0.15,
      "velocity": 100
    },
    {
      "time": 49.389,
      "note": 72,
      "duration": 0.15,
      "velocity": 100
    },
    {
      "time": 49.528,
      "note": 72,
      "duration": 0.15,
      "velocity": 100
    },
    {
      "time": 49.667,
      "note": 72,
      "duration": 0.15,
      "velocity": 100
    },
    {
      "time": 50.132,
      "note": 68,
      "duration": 0.15,
      "velocity": 100
    },
    {
      "time": 50.271,
      "note": 68,
      "duration": 0.15,
      "velocity": 100
    },
    {
      "time": 50.48,
      "note": 68,
      "duration": 0.15,
      "velocity": 100
    },
    {
      "time": 50.62,
      "note": 72,
      "duration": 0.15,
      "velocity": 100
    },
    {
      "time": 50.759,
      "note": 68,
      "duration": 0.15,
      "velocity": 100
    },
    {
      "time": 50.898,
      "note": 72,
      "duration": 0.15,
      "velocity": 100
    },
    {
      "time": 51.037,
      "note": 68,
      "duration": 0.15,
      "velocity": 100
    },
    {
      "time": 51.177,
      "note": 68,
      "duration": 0.15,
      "velocity": 100
    },
    {
      "time": 51.595,
      "note": 68,
      "duration": 0.15,
      "velocity": 100
    },
    {
      "time": 51.734,
      "note": 68,
      "duration": 0.15,
      "velocity": 100
    },
    {
      "time": 51.873,
      "note": 68,
      "duration": 0.15,
      "velocity": 100
    },
    {
      "time": 52.013,
      "note": 68,
      "duration": 0.15,
      "velocity": 100
    },
    {
      "time": 52.152,
      "note": 67,
      "duration": 0.15,
      "velocity": 100
    },
    {
      "time": 52.291,
      "note": 67,
      "duration": 0.15,
      "velocity": 100
    },
    {
      "time": 52.431,
      "note": 67,
      "duration": 0.15,
      "velocity": 100
    },
    {
      "time": 52.57,
      "note": 68,
      "duration": 0.15,
      "velocity": 100
    },
    {
      "time": 52.709,
      "note": 73,
      "duration": 0.15,
      "velocity": 100
    },
    {
      "time": 52.849,
      "note": 68,
      "duration": 0.15,
      "velocity": 100
    },
    {
      "time": 52.988,
      "note": 68,
      "duration": 0.15,
      "velocity": 100
    },
    {
      "time": 53.127,
      "note": 68,
      "duration": 0.15,
      "velocity": 100
    },
    {
      "time": 53.267,
      "note": 69,
      "duration": 0.15,
      "velocity": 100
    },
    {
      "time": 53.406,
      "note": 68,
      "duration": 0.15,
      "velocity": 100
    },
    {
      "time": 53.545,
      "note": 68,
      "duration": 0.15,
      "velocity": 100
    },
    {
      "time": 53.685,
      "note": 72,
      "duration": 0.15,
      "velocity": 100
    },
    {
      "time": 53.824,
      "note": 72,
      "duration": 0.15,
      "velocity": 100
    },
    {
      "time": 53.963,
      "note": 68,
      "duration": 0.15,
      "velocity": 100
    },
    {
      "time": 54.242,
      "note": 63,
      "duration": 0.15,
      "velocity": 100
    },
    {
      "time": 54.381,
      "note": 65,
      "duration": 0.15,
      "velocity": 100
    },
    {
      "time": 54.52,
      "note": 65,
      "duration": 0.15,
      "velocity": 100
    },
    {
      "time": 54.66,
      "note": 72,
      "duration": 0.15,
      "velocity": 100
    },
    {
      "time": 54.799,
      "note": 63,
      "duration": 0.15,
      "velocity": 100
    },
    {
      "time": 54.938,
      "note": 65,
      "duration": 0.15,
      "velocity": 100
    },
    {
      "time": 55.078,
      "note": 75,
      "duration": 0.15,
      "velocity": 100
    },
    {
      "time": 55.217,
      "note": 70,
      "duration": 0.15,
      "velocity": 100
    },
    {
      "time": 55.356,
      "note": 61,
      "duration": 0.15,
      "velocity": 100
    },
    {
      "time": 55.496,
      "note": 65,
      "duration": 0.15,
      "velocity": 100
    },
    {
      "time": 55.635,
      "note": 65,
      "duration": 0.15,
      "velocity": 100
    },
    {
      "time": 55.774,
      "note": 65,
      "duration": 0.15,
      "velocity": 100
    },
    {
      "time": 55.914,
      "note": 65,
      "duration": 0.15,
      "velocity": 100
    },
    {
      "time": 56.053,
      "note": 66,
      "duration": 0.15,
      "velocity": 100
    },
    {
      "time": 56.192,
      "note": 62,
      "duration": 0.15,
      "velocity": 100
    },
    {
      "time": 56.332,
      "note": 95,
      "duration": 0.15,
      "velocity": 100
    },
    {
      "time": 56.471,
      "note": 66,
      "duration": 0.15,
      "velocity": 100
    },
    {
      "time": 56.61,
      "note": 58,
      "duration": 0.15,
      "velocity": 100
    },
    {
      "time": 56.75,
      "note": 66,
      "duration": 0.15,
      "velocity": 100
    },
    {
      "time": 56.889,
      "note": 66,
      "duration": 0.15,
      "velocity": 100
    },
    {
      "time": 57.028,
      "note": 66,
      "duration": 0.15,
      "velocity": 100
    },
    {
      "time": 57.168,
      "note": 75,
      "duration": 0.15,
      "velocity": 100
    },
    {
      "time": 57.307,
      "note": 82,
      "duration": 0.15,
      "velocity": 100
    },
    {
      "time": 57.446,
      "note": 82,
      "duration": 0.15,
      "velocity": 100
    },
    {
      "time": 57.585,
      "note": 75,
      "duration": 0.15,
      "velocity": 100
    },
    {
      "time": 57.725,
      "note": 72,
      "duration": 0.15,
      "velocity": 100
    },
    {
      "time": 57.864,
      "note": 72,
      "duration": 0.15,
      "velocity": 100
    },
    {
      "time": 58.003,
      "note": 72,
      "duration": 0.15,
      "velocity": 100
    },
    {
      "time": 58.143,
      "note": 72,
      "duration": 0.15,
      "velocity": 100
    },
    {
      "time": 58.282,
      "note": 72,
      "duration": 0.15,
      "velocity": 100
    },
    {
      "time": 58.421,
      "note": 60,
      "duration": 0.15,
      "velocity": 100
    },
    {
      "time": 58.561,
      "note": 61,
      "duration": 0.15,
      "velocity": 100
    },
    {
      "time": 58.7,
      "note": 68,
      "duration": 0.15,
      "velocity": 100
    },
    {
      "time": 58.839,
      "note": 77,
      "duration": 0.15,
      "velocity": 100
    },
    {
      "time": 59.095,
      "note": 72,
      "duration": 0.15,
      "velocity": 100
    },
    {
      "time": 59.234,
      "note": 68,
      "duration": 0.15,
      "velocity": 100
    },
    {
      "time": 59.373,
      "note": 77,
      "duration": 0.15,
      "velocity": 100
    },
    {
      "time": 59.513,
      "note": 61,
      "duration": 0.15,
      "velocity": 100
    },
    {
      "time": 59.652,
      "note": 77,
      "duration": 0.15,
      "velocity": 100
    },
    {
      "time": 59.791,
      "note": 65,
      "duration": 0.15,
      "velocity": 100
    },
    {
      "time": 60.581,
      "note": 96,
      "duration": 0.15,
      "velocity": 100
    },
    {
      "time": 60.72,
      "note": 65,
      "duration": 0.15,
      "velocity": 100
    },
    {
      "time": 61.254,
      "note": 52,
      "duration": 0.15,
      "velocity": 100
    },
    {
      "time": 75.72,
      "note": 51,
      "duration": 0.15,
      "velocity": 100
    },
    {
      "time": 75.999,
      "note": 51,
      "duration": 0.15,
      "velocity": 100
    },
    {
      "time": 76.138,
      "note": 53,
      "duration": 0.15,
      "velocity": 100
    },
    {
      "time": 76.278,
      "note": 53,
      "duration": 0.15,
      "velocity": 100
    },
    {
      "time": 76.579,
      "note": 54,
      "duration": 0.15,
      "velocity": 100
    },
    {
      "time": 76.742,
      "note": 52,
      "duration": 0.15,
      "velocity": 100
    },
    {
      "time": 76.881,
      "note": 53,
      "duration": 0.15,
      "velocity": 100
    },
    {
      "time": 77.113,
      "note": 72,
      "duration": 0.15,
      "velocity": 100
    },
    {
      "time": 77.253,
      "note": 53,
      "duration": 0.15,
      "velocity": 100
    },
    {
      "time": 77.392,
      "note": 53,
      "duration": 0.15,
      "velocity": 100
    },
    {
      "time": 77.671,
      "note": 57,
      "duration": 0.15,
      "velocity": 100
    },
    {
      "time": 78.042,
      "note": 69,
      "duration": 0.15,
      "velocity": 100
    },
    {
      "time": 78.182,
      "note": 61,
      "duration": 0.15,
      "velocity": 100
    },
    {
      "time": 78.321,
      "note": 55,
      "duration": 0.15,
      "velocity": 100
    },
    {
      "time": 78.46,
      "note": 56,
      "duration": 0.15,
      "velocity": 100
    },
    {
      "time": 78.716,
      "note": 53,
      "duration": 0.15,
      "velocity": 100
    },
    {
      "time": 78.855,
      "note": 58,
      "duration": 0.15,
      "velocity": 100
    },
    {
      "time": 79.11,
      "note": 55,
      "duration": 0.15,
      "velocity": 100
    },
    {
      "time": 79.25,
      "note": 56,
      "duration": 0.15,
      "velocity": 100
    },
    {
      "time": 79.412,
      "note": 56,
      "duration": 0.15,
      "velocity": 100
    },
    {
      "time": 79.552,
      "note": 53,
      "duration": 0.15,
      "velocity": 100
    },
    {
      "time": 79.784,
      "note": 56,
      "duration": 0.15,
      "velocity": 100
    },
    {
      "time": 79.923,
      "note": 56,
      "duration": 0.15,
      "velocity": 100
    },
    {
      "time": 80.155,
      "note": 69,
      "duration": 0.15,
      "velocity": 100
    },
    {
      "time": 80.295,
      "note": 53,
      "duration": 0.15,
      "velocity": 100
    },
    {
      "time": 80.434,
      "note": 57,
      "duration": 0.15,
      "velocity": 100
    },
    {
      "time": 80.852,
      "note": 55,
      "duration": 0.15,
      "velocity": 100
    },
    {
      "time": 81.247,
      "note": 72,
      "duration": 0.15,
      "velocity": 100
    },
    {
      "time": 81.502,
      "note": 54,
      "duration": 0.15,
      "velocity": 100
    },
    {
      "time": 81.92,
      "note": 52,
      "duration": 0.15,
      "velocity": 100
    },
    {
      "time": 82.083,
      "note": 56,
      "duration": 0.15,
      "velocity": 100
    },
    {
      "time": 82.268,
      "note": 69,
      "duration": 0.15,
      "velocity": 100
    },
    {
      "time": 82.408,
      "note": 51,
      "duration": 0.15,
      "velocity": 100
    },
    {
      "time": 82.547,
      "note": 53,
      "duration": 0.15,
      "velocity": 100
    },
    {
      "time": 82.686,
      "note": 56,
      "duration": 0.15,
      "velocity": 100
    },
    {
      "time": 82.988,
      "note": 56,
      "duration": 0.15,
      "velocity": 100
    },
    {
      "time": 83.336,
      "note": 68,
      "duration": 0.15,
      "velocity": 100
    },
    {
      "time": 83.476,
      "note": 56,
      "duration": 0.15,
      "velocity": 100
    },
    {
      "time": 83.615,
      "note": 52,
      "duration": 0.15,
      "velocity": 100
    },
    {
      "time": 84.01,
      "note": 56,
      "duration": 0.15,
      "velocity": 100
    },
    {
      "time": 84.451,
      "note": 56,
      "duration": 0.15,
      "velocity": 100
    },
    {
      "time": 84.66,
      "note": 57,
      "duration": 0.15,
      "velocity": 100
    },
    {
      "time": 84.799,
      "note": 56,
      "duration": 0.15,
      "velocity": 100
    },
    {
      "time": 85.078,
      "note": 56,
      "duration": 0.15,
      "velocity": 100
    },
    {
      "time": 85.217,
      "note": 68,
      "duration": 0.15,
      "velocity": 100
    },
    {
      "time": 85.473,
      "note": 56,
      "duration": 0.15,
      "velocity": 100
    },
    {
      "time": 85.612,
      "note": 56,
      "duration": 0.15,
      "velocity": 100
    },
    {
      "time": 85.751,
      "note": 54,
      "duration": 0.15,
      "velocity": 100
    },
    {
      "time": 85.891,
      "note": 50,
      "duration": 0.15,
      "velocity": 100
    },
    {
      "time": 86.03,
      "note": 58,
      "duration": 0.15,
      "velocity": 100
    },
    {
      "time": 86.169,
      "note": 54,
      "duration": 0.15,
      "velocity": 100
    },
    {
      "time": 86.309,
      "note": 61,
      "duration": 0.15,
      "velocity": 100
    },
    {
      "time": 86.448,
      "note": 70,
      "duration": 0.15,
      "velocity": 100
    },
    {
      "time": 86.587,
      "note": 61,
      "duration": 0.15,
      "velocity": 100
    },
    {
      "time": 86.727,
      "note": 56,
      "duration": 0.15,
      "velocity": 100
    },
    {
      "time": 87.725,
      "note": 51,
      "duration": 0.15,
      "velocity": 100
    },
    {
      "time": 88.143,
      "note": 53,
      "duration": 0.15,
      "velocity": 100
    },
    {
      "time": 88.282,
      "note": 53,
      "duration": 0.15,
      "velocity": 100
    },
    {
      "time": 88.422,
      "note": 53,
      "duration": 0.15,
      "velocity": 100
    },
    {
      "time": 88.561,
      "note": 65,
      "duration": 0.15,
      "velocity": 100
    },
    {
      "time": 88.7,
      "note": 54,
      "duration": 0.15,
      "velocity": 100
    },
    {
      "time": 93.367,
      "note": 68,
      "duration": 0.15,
      "velocity": 100
    },
    {
      "time": 93.507,
      "note": 68,
      "duration": 0.15,
      "velocity": 100
    },
    {
      "time": 93.646,
      "note": 68,
      "duration": 0.15,
      "velocity": 100
    },
    {
      "time": 93.785,
      "note": 65,
      "duration": 0.15,
      "velocity": 100
    },
    {
      "time": 93.925,
      "note": 65,
      "duration": 0.15,
      "velocity": 100
    },
    {
      "time": 94.064,
      "note": 56,
      "duration": 0.15,
      "velocity": 100
    },
    {
      "time": 94.203,
      "note": 85,
      "duration": 0.15,
      "velocity": 100
    },
    {
      "time": 94.343,
      "note": 68,
      "duration": 0.15,
      "velocity": 100
    },
    {
      "time": 94.482,
      "note": 67,
      "duration": 0.15,
      "velocity": 100
    },
    {
      "time": 94.621,
      "note": 68,
      "duration": 0.15,
      "velocity": 100
    },
    {
      "time": 94.761,
      "note": 68,
      "duration": 0.15,
      "velocity": 100
    },
    {
      "time": 94.9,
      "note": 73,
      "duration": 0.15,
      "velocity": 100
    },
    {
      "time": 95.039,
      "note": 68,
      "duration": 0.15,
      "velocity": 100
    },
    {
      "time": 95.179,
      "note": 72,
      "duration": 0.15,
      "velocity": 100
    },
    {
      "time": 95.318,
      "note": 60,
      "duration": 0.15,
      "velocity": 100
    },
    {
      "time": 95.457,
      "note": 60,
      "duration": 0.15,
      "velocity": 100
    },
    {
      "time": 95.597,
      "note": 68,
      "duration": 0.15,
      "velocity": 100
    },
    {
      "time": 95.736,
      "note": 60,
      "duration": 0.15,
      "velocity": 100
    },
    {
      "time": 95.875,
      "note": 72,
      "duration": 0.15,
      "velocity": 100
    },
    {
      "time": 96.015,
      "note": 68,
      "duration": 0.15,
      "velocity": 100
    },
    {
      "time": 96.154,
      "note": 68,
      "duration": 0.15,
      "velocity": 100
    },
    {
      "time": 96.293,
      "note": 68,
      "duration": 0.15,
      "velocity": 100
    },
    {
      "time": 96.432,
      "note": 65,
      "duration": 0.15,
      "velocity": 100
    },
    {
      "time": 96.572,
      "note": 65,
      "duration": 0.15,
      "velocity": 100
    },
    {
      "time": 96.711,
      "note": 65,
      "duration": 0.15,
      "velocity": 100
    },
    {
      "time": 96.85,
      "note": 63,
      "duration": 0.15,
      "velocity": 100
    },
    {
      "time": 96.99,
      "note": 65,
      "duration": 0.15,
      "velocity": 100
    },
    {
      "time": 97.129,
      "note": 68,
      "duration": 0.15,
      "velocity": 100
    },
    {
      "time": 97.268,
      "note": 72,
      "duration": 0.15,
      "velocity": 100
    },
    {
      "time": 97.408,
      "note": 72,
      "duration": 0.15,
      "velocity": 100
    },
    {
      "time": 97.547,
      "note": 66,
      "duration": 0.15,
      "velocity": 100
    },
    {
      "time": 97.686,
      "note": 65,
      "duration": 0.15,
      "velocity": 100
    },
    {
      "time": 97.826,
      "note": 65,
      "duration": 0.15,
      "velocity": 100
    },
    {
      "time": 97.965,
      "note": 65,
      "duration": 0.15,
      "velocity": 100
    },
    {
      "time": 98.104,
      "note": 65,
      "duration": 0.15,
      "velocity": 100
    },
    {
      "time": 98.244,
      "note": 73,
      "duration": 0.15,
      "velocity": 100
    },
    {
      "time": 98.383,
      "note": 73,
      "duration": 0.15,
      "velocity": 100
    },
    {
      "time": 98.522,
      "note": 95,
      "duration": 0.15,
      "velocity": 100
    },
    {
      "time": 98.662,
      "note": 61,
      "duration": 0.15,
      "velocity": 100
    },
    {
      "time": 98.801,
      "note": 66,
      "duration": 0.15,
      "velocity": 100
    },
    {
      "time": 98.94,
      "note": 66,
      "duration": 0.15,
      "velocity": 100
    },
    {
      "time": 99.08,
      "note": 66,
      "duration": 0.15,
      "velocity": 100
    },
    {
      "time": 99.219,
      "note": 66,
      "duration": 0.15,
      "velocity": 100
    },
    {
      "time": 99.358,
      "note": 80,
      "duration": 0.15,
      "velocity": 100
    },
    {
      "time": 99.498,
      "note": 68,
      "duration": 0.15,
      "velocity": 100
    },
    {
      "time": 99.637,
      "note": 80,
      "duration": 0.15,
      "velocity": 100
    },
    {
      "time": 99.776,
      "note": 75,
      "duration": 0.15,
      "velocity": 100
    },
    {
      "time": 99.915,
      "note": 68,
      "duration": 0.15,
      "velocity": 100
    },
    {
      "time": 100.055,
      "note": 68,
      "duration": 0.15,
      "velocity": 100
    },
    {
      "time": 100.194,
      "note": 75,
      "duration": 0.15,
      "velocity": 100
    },
    {
      "time": 100.333,
      "note": 75,
      "duration": 0.15,
      "velocity": 100
    },
    {
      "time": 100.473,
      "note": 68,
      "duration": 0.15,
      "velocity": 100
    },
    {
      "time": 100.612,
      "note": 68,
      "duration": 0.15,
      "velocity": 100
    },
    {
      "time": 100.751,
      "note": 75,
      "duration": 0.15,
      "velocity": 100
    },
    {
      "time": 100.937,
      "note": 56,
      "duration": 0.15,
      "velocity": 100
    },
    {
      "time": 101.076,
      "note": 52,
      "duration": 0.15,
      "velocity": 100
    },
    {
      "time": 101.285,
      "note": 56,
      "duration": 0.15,
      "velocity": 100
    },
    {
      "time": 101.425,
      "note": 52,
      "duration": 0.15,
      "velocity": 100
    },
    {
      "time": 101.564,
      "note": 52,
      "duration": 0.15,
      "velocity": 100
    },
    {
      "time": 101.703,
      "note": 52,
      "duration": 0.15,
      "velocity": 100
    },
    {
      "time": 101.843,
      "note": 56,
      "duration": 0.15,
      "velocity": 100
    },
    {
      "time": 101.982,
      "note": 51,
      "duration": 0.15,
      "velocity": 100
    },
    {
      "time": 102.237,
      "note": 50,
      "duration": 0.15,
      "velocity": 100
    },
    {
      "time": 102.377,
      "note": 56,
      "duration": 0.15,
      "velocity": 100
    },
    {
      "time": 102.516,
      "note": 56,
      "duration": 0.15,
      "velocity": 100
    },
    {
      "time": 102.725,
      "note": 61,
      "duration": 0.15,
      "velocity": 100
    },
    {
      "time": 102.864,
      "note": 58,
      "duration": 0.15,
      "velocity": 100
    },
    {
      "time": 103.004,
      "note": 57,
      "duration": 0.15,
      "velocity": 100
    },
    {
      "time": 103.143,
      "note": 55,
      "duration": 0.15,
      "velocity": 100
    },
    {
      "time": 103.445,
      "note": 61,
      "duration": 0.15,
      "velocity": 100
    },
    {
      "time": 103.584,
      "note": 56,
      "duration": 0.15,
      "velocity": 100
    },
    {
      "time": 104.234,
      "note": 56,
      "duration": 0.15,
      "velocity": 100
    },
    {
      "time": 105.767,
      "note": 58,
      "duration": 0.15,
      "velocity": 100
    },
    {
      "time": 105.906,
      "note": 58,
      "duration": 0.15,
      "velocity": 100
    },
    {
      "time": 110.922,
      "note": 66,
      "duration": 0.15,
      "velocity": 100
    },
    {
      "time": 111.061,
      "note": 65,
      "duration": 0.15,
      "velocity": 100
    },
    {
      "time": 111.247,
      "note": 67,
      "duration": 0.15,
      "velocity": 100
    },
    {
      "time": 111.386,
      "note": 67,
      "duration": 0.15,
      "velocity": 100
    },
    {
      "time": 111.525,
      "note": 67,
      "duration": 0.15,
      "velocity": 100
    },
    {
      "time": 111.665,
      "note": 68,
      "duration": 0.15,
      "velocity": 100
    },
    {
      "time": 111.804,
      "note": 61,
      "duration": 0.15,
      "velocity": 100
    },
    {
      "time": 111.943,
      "note": 68,
      "duration": 0.15,
      "velocity": 100
    },
    {
      "time": 112.083,
      "note": 67,
      "duration": 0.15,
      "velocity": 100
    },
    {
      "time": 112.222,
      "note": 72,
      "duration": 0.15,
      "velocity": 100
    },
    {
      "time": 112.361,
      "note": 68,
      "duration": 0.15,
      "velocity": 100
    },
    {
      "time": 112.501,
      "note": 68,
      "duration": 0.15,
      "velocity": 100
    },
    {
      "time": 112.64,
      "note": 72,
      "duration": 0.15,
      "velocity": 100
    },
    {
      "time": 112.779,
      "note": 60,
      "duration": 0.15,
      "velocity": 100
    },
    {
      "time": 112.919,
      "note": 75,
      "duration": 0.15,
      "velocity": 100
    },
    {
      "time": 113.058,
      "note": 72,
      "duration": 0.15,
      "velocity": 100
    },
    {
      "time": 113.197,
      "note": 63,
      "duration": 0.15,
      "velocity": 100
    },
    {
      "time": 113.36,
      "note": 60,
      "duration": 0.15,
      "velocity": 100
    },
    {
      "time": 113.499,
      "note": 65,
      "duration": 0.15,
      "velocity": 100
    },
    {
      "time": 113.638,
      "note": 65,
      "duration": 0.15,
      "velocity": 100
    },
    {
      "time": 113.778,
      "note": 65,
      "duration": 0.15,
      "velocity": 100
    },
    {
      "time": 113.917,
      "note": 65,
      "duration": 0.15,
      "velocity": 100
    },
    {
      "time": 114.056,
      "note": 65,
      "duration": 0.15,
      "velocity": 100
    },
    {
      "time": 114.196,
      "note": 65,
      "duration": 0.15,
      "velocity": 100
    },
    {
      "time": 114.335,
      "note": 65,
      "duration": 0.15,
      "velocity": 100
    },
    {
      "time": 114.474,
      "note": 66,
      "duration": 0.15,
      "velocity": 100
    },
    {
      "time": 114.614,
      "note": 65,
      "duration": 0.15,
      "velocity": 100
    },
    {
      "time": 114.753,
      "note": 65,
      "duration": 0.15,
      "velocity": 100
    },
    {
      "time": 114.892,
      "note": 65,
      "duration": 0.15,
      "velocity": 100
    },
    {
      "time": 115.032,
      "note": 65,
      "duration": 0.15,
      "velocity": 100
    },
    {
      "time": 115.241,
      "note": 65,
      "duration": 0.15,
      "velocity": 100
    },
    {
      "time": 115.38,
      "note": 66,
      "duration": 0.15,
      "velocity": 100
    },
    {
      "time": 115.519,
      "note": 70,
      "duration": 0.15,
      "velocity": 100
    },
    {
      "time": 115.659,
      "note": 66,
      "duration": 0.15,
      "velocity": 100
    },
    {
      "time": 115.798,
      "note": 66,
      "duration": 0.15,
      "velocity": 100
    },
    {
      "time": 115.937,
      "note": 66,
      "duration": 0.15,
      "velocity": 100
    },
    {
      "time": 116.077,
      "note": 77,
      "duration": 0.15,
      "velocity": 100
    },
    {
      "time": 116.216,
      "note": 51,
      "duration": 0.15,
      "velocity": 100
    },
    {
      "time": 116.402,
      "note": 75,
      "duration": 0.15,
      "velocity": 100
    },
    {
      "time": 116.657,
      "note": 68,
      "duration": 0.15,
      "velocity": 100
    },
    {
      "time": 116.796,
      "note": 68,
      "duration": 0.15,
      "velocity": 100
    },
    {
      "time": 116.936,
      "note": 72,
      "duration": 0.15,
      "velocity": 100
    },
    {
      "time": 117.075,
      "note": 63,
      "duration": 0.15,
      "velocity": 100
    },
    {
      "time": 117.214,
      "note": 72,
      "duration": 0.15,
      "velocity": 100
    },
    {
      "time": 117.354,
      "note": 63,
      "duration": 0.15,
      "velocity": 100
    },
    {
      "time": 117.493,
      "note": 63,
      "duration": 0.15,
      "velocity": 100
    },
    {
      "time": 117.632,
      "note": 68,
      "duration": 0.15,
      "velocity": 100
    },
    {
      "time": 117.772,
      "note": 68,
      "duration": 0.15,
      "velocity": 100
    },
    {
      "time": 117.911,
      "note": 68,
      "duration": 0.15,
      "velocity": 100
    },
    {
      "time": 118.05,
      "note": 77,
      "duration": 0.15,
      "velocity": 100
    },
    {
      "time": 118.19,
      "note": 56,
      "duration": 0.15,
      "velocity": 100
    },
    {
      "time": 118.329,
      "note": 65,
      "duration": 0.15,
      "velocity": 100
    },
    {
      "time": 118.468,
      "note": 56,
      "duration": 0.15,
      "velocity": 100
    },
    {
      "time": 118.608,
      "note": 68,
      "duration": 0.15,
      "velocity": 100
    },
    {
      "time": 118.747,
      "note": 68,
      "duration": 0.15,
      "velocity": 100
    },
    {
      "time": 118.886,
      "note": 68,
      "duration": 0.15,
      "velocity": 100
    },
    {
      "time": 119.025,
      "note": 56,
      "duration": 0.15,
      "velocity": 100
    },
    {
      "time": 119.188,
      "note": 56,
      "duration": 0.15,
      "velocity": 100
    },
    {
      "time": 119.327,
      "note": 56,
      "duration": 0.15,
      "velocity": 100
    },
    {
      "time": 119.467,
      "note": 56,
      "duration": 0.15,
      "velocity": 100
    },
    {
      "time": 119.606,
      "note": 56,
      "duration": 0.15,
      "velocity": 100
    },
    {
      "time": 119.769,
      "note": 61,
      "duration": 0.15,
      "velocity": 100
    },
    {
      "time": 119.908,
      "note": 61,
      "duration": 0.15,
      "velocity": 100
    },
    {
      "time": 120.14,
      "note": 94,
      "duration": 0.15,
      "velocity": 100
    },
    {
      "time": 120.279,
      "note": 70,
      "duration": 0.15,
      "velocity": 100
    },
    {
      "time": 120.419,
      "note": 54,
      "duration": 0.15,
      "velocity": 100
    },
    {
      "time": 120.558,
      "note": 52,
      "duration": 0.15,
      "velocity": 100
    },
    {
      "time": 120.697,
      "note": 64,
      "duration": 0.15,
      "velocity": 100
    },
    {
      "time": 120.883,
      "note": 61,
      "duration": 0.15,
      "velocity": 100
    },
    {
      "time": 121.022,
      "note": 53,
      "duration": 0.15,
      "velocity": 100
    },
    {
      "time": 121.162,
      "note": 53,
      "duration": 0.15,
      "velocity": 100
    },
    {
      "time": 121.301,
      "note": 56,
      "duration": 0.15,
      "velocity": 100
    },
    {
      "time": 121.44,
      "note": 70,
      "duration": 0.15,
      "velocity": 100
    },
    {
      "time": 121.58,
      "note": 94,
      "duration": 0.15,
      "velocity": 100
    },
    {
      "time": 121.719,
      "note": 70,
      "duration": 0.15,
      "velocity": 100
    },
    {
      "time": 121.858,
      "note": 70,
      "duration": 0.15,
      "velocity": 100
    },
    {
      "time": 121.998,
      "note": 70,
      "duration": 0.15,
      "velocity": 100
    },
    {
      "time": 122.137,
      "note": 94,
      "duration": 0.15,
      "velocity": 100
    },
    {
      "time": 122.276,
      "note": 65,
      "duration": 0.15,
      "velocity": 100
    },
    {
      "time": 122.416,
      "note": 70,
      "duration": 0.15,
      "velocity": 100
    },
    {
      "time": 122.555,
      "note": 51,
      "duration": 0.15,
      "velocity": 100
    },
    {
      "time": 122.717,
      "note": 65,
      "duration": 0.15,
      "velocity": 100
    },
    {
      "time": 122.857,
      "note": 65,
      "duration": 0.15,
      "velocity": 100
    },
    {
      "time": 122.996,
      "note": 70,
      "duration": 0.15,
      "velocity": 100
    },
    {
      "time": 123.135,
      "note": 70,
      "duration": 0.15,
      "velocity": 100
    },
    {
      "time": 123.275,
      "note": 65,
      "duration": 0.15,
      "velocity": 100
    },
    {
      "time": 123.414,
      "note": 56,
      "duration": 0.15,
      "velocity": 100
    },
    {
      "time": 123.553,
      "note": 63,
      "duration": 0.15,
      "velocity": 100
    },
    {
      "time": 123.693,
      "note": 56,
      "duration": 0.15,
      "velocity": 100
    },
    {
      "time": 123.832,
      "note": 56,
      "duration": 0.15,
      "velocity": 100
    },
    {
      "time": 123.995,
      "note": 61,
      "duration": 0.15,
      "velocity": 100
    },
    {
      "time": 124.273,
      "note": 56,
      "duration": 0.15,
      "velocity": 100
    },
    {
      "time": 124.413,
      "note": 51,
      "duration": 0.15,
      "velocity": 100
    },
    {
      "time": 124.552,
      "note": 66,
      "duration": 0.15,
      "velocity": 100
    },
    {
      "time": 124.691,
      "note": 54,
      "duration": 0.15,
      "velocity": 100
    },
    {
      "time": 124.83,
      "note": 52,
      "duration": 0.15,
      "velocity": 100
    },
    {
      "time": 125.039,
      "note": 61,
      "duration": 0.15,
      "velocity": 100
    },
    {
      "time": 125.179,
      "note": 61,
      "duration": 0.15,
      "velocity": 100
    },
    {
      "time": 125.318,
      "note": 53,
      "duration": 0.15,
      "velocity": 100
    },
    {
      "time": 125.457,
      "note": 53,
      "duration": 0.15,
      "velocity": 100
    },
    {
      "time": 125.597,
      "note": 71,
      "duration": 0.15,
      "velocity": 100
    },
    {
      "time": 125.736,
      "note": 52,
      "duration": 0.15,
      "velocity": 100
    },
    {
      "time": 125.875,
      "note": 70,
      "duration": 0.15,
      "velocity": 100
    },
    {
      "time": 126.015,
      "note": 70,
      "duration": 0.15,
      "velocity": 100
    },
    {
      "time": 126.154,
      "note": 63,
      "duration": 0.15,
      "velocity": 100
    },
    {
      "time": 126.34,
      "note": 94,
      "duration": 0.15,
      "velocity": 100
    },
    {
      "time": 126.479,
      "note": 70,
      "duration": 0.15,
      "velocity": 100
    },
    {
      "time": 126.618,
      "note": 65,
      "duration": 0.15,
      "velocity": 100
    },
    {
      "time": 126.758,
      "note": 52,
      "duration": 0.15,
      "velocity": 100
    },
    {
      "time": 126.897,
      "note": 60,
      "duration": 0.15,
      "velocity": 100
    },
    {
      "time": 127.036,
      "note": 70,
      "duration": 0.15,
      "velocity": 100
    },
    {
      "time": 127.176,
      "note": 71,
      "duration": 0.15,
      "velocity": 100
    },
    {
      "time": 127.315,
      "note": 70,
      "duration": 0.15,
      "velocity": 100
    },
    {
      "time": 127.454,
      "note": 65,
      "duration": 0.15,
      "velocity": 100
    },
    {
      "time": 127.594,
      "note": 70,
      "duration": 0.15,
      "velocity": 100
    },
    {
      "time": 127.733,
      "note": 70,
      "duration": 0.15,
      "velocity": 100
    },
    {
      "time": 127.872,
      "note": 56,
      "duration": 0.15,
      "velocity": 100
    },
    {
      "time": 128.012,
      "note": 56,
      "duration": 0.15,
      "velocity": 100
    },
    {
      "time": 128.151,
      "note": 63,
      "duration": 0.15,
      "velocity": 100
    },
    {
      "time": 128.29,
      "note": 61,
      "duration": 0.15,
      "velocity": 100
    },
    {
      "time": 128.43,
      "note": 56,
      "duration": 0.15,
      "velocity": 100
    },
    {
      "time": 128.569,
      "note": 51,
      "duration": 0.15,
      "velocity": 100
    },
    {
      "time": 128.708,
      "note": 52,
      "duration": 0.15,
      "velocity": 100
    },
    {
      "time": 128.848,
      "note": 54,
      "duration": 0.15,
      "velocity": 100
    },
    {
      "time": 128.987,
      "note": 53,
      "duration": 0.15,
      "velocity": 100
    },
    {
      "time": 129.149,
      "note": 51,
      "duration": 0.15,
      "velocity": 100
    },
    {
      "time": 129.289,
      "note": 61,
      "duration": 0.15,
      "velocity": 100
    },
    {
      "time": 129.428,
      "note": 51,
      "duration": 0.15,
      "velocity": 100
    },
    {
      "time": 129.567,
      "note": 54,
      "duration": 0.15,
      "velocity": 100
    },
    {
      "time": 129.707,
      "note": 64,
      "duration": 0.15,
      "velocity": 100
    },
    {
      "time": 129.846,
      "note": 70,
      "duration": 0.15,
      "velocity": 100
    },
    {
      "time": 130.032,
      "note": 94,
      "duration": 0.15,
      "velocity": 100
    },
    {
      "time": 130.171,
      "note": 70,
      "duration": 0.15,
      "velocity": 100
    },
    {
      "time": 130.31,
      "note": 70,
      "duration": 0.15,
      "velocity": 100
    },
    {
      "time": 130.45,
      "note": 70,
      "duration": 0.15,
      "velocity": 100
    },
    {
      "time": 130.589,
      "note": 94,
      "duration": 0.15,
      "velocity": 100
    },
    {
      "time": 130.728,
      "note": 65,
      "duration": 0.15,
      "velocity": 100
    },
    {
      "time": 130.868,
      "note": 70,
      "duration": 0.15,
      "velocity": 100
    },
    {
      "time": 131.007,
      "note": 61,
      "duration": 0.15,
      "velocity": 100
    },
    {
      "time": 131.146,
      "note": 65,
      "duration": 0.15,
      "velocity": 100
    },
    {
      "time": 131.402,
      "note": 71,
      "duration": 0.15,
      "velocity": 100
    },
    {
      "time": 131.541,
      "note": 70,
      "duration": 0.15,
      "velocity": 100
    },
    {
      "time": 131.68,
      "note": 65,
      "duration": 0.15,
      "velocity": 100
    },
    {
      "time": 131.82,
      "note": 56,
      "duration": 0.15,
      "velocity": 100
    },
    {
      "time": 131.959,
      "note": 70,
      "duration": 0.15,
      "velocity": 100
    },
    {
      "time": 132.145,
      "note": 53,
      "duration": 0.15,
      "velocity": 100
    },
    {
      "time": 132.284,
      "note": 56,
      "duration": 0.15,
      "velocity": 100
    },
    {
      "time": 132.423,
      "note": 61,
      "duration": 0.15,
      "velocity": 100
    },
    {
      "time": 132.563,
      "note": 61,
      "duration": 0.15,
      "velocity": 100
    },
    {
      "time": 132.725,
      "note": 52,
      "duration": 0.15,
      "velocity": 100
    },
    {
      "time": 132.865,
      "note": 51,
      "duration": 0.15,
      "velocity": 100
    },
    {
      "time": 133.004,
      "note": 53,
      "duration": 0.15,
      "velocity": 100
    },
    {
      "time": 133.143,
      "note": 52,
      "duration": 0.15,
      "velocity": 100
    },
    {
      "time": 133.283,
      "note": 53,
      "duration": 0.15,
      "velocity": 100
    },
    {
      "time": 133.538,
      "note": 50,
      "duration": 0.15,
      "velocity": 100
    },
    {
      "time": 133.677,
      "note": 53,
      "duration": 0.15,
      "velocity": 100
    },
    {
      "time": 133.817,
      "note": 53,
      "duration": 0.15,
      "velocity": 100
    },
    {
      "time": 133.956,
      "note": 63,
      "duration": 0.15,
      "velocity": 100
    },
    {
      "time": 134.095,
      "note": 70,
      "duration": 0.15,
      "velocity": 100
    },
    {
      "time": 134.235,
      "note": 70,
      "duration": 0.15,
      "velocity": 100
    },
    {
      "time": 134.374,
      "note": 70,
      "duration": 0.15,
      "velocity": 100
    },
    {
      "time": 134.513,
      "note": 63,
      "duration": 0.15,
      "velocity": 100
    },
    {
      "time": 134.653,
      "note": 70,
      "duration": 0.15,
      "velocity": 100
    },
    {
      "time": 134.792,
      "note": 94,
      "duration": 0.15,
      "velocity": 100
    },
    {
      "time": 134.931,
      "note": 96,
      "duration": 0.15,
      "velocity": 100
    },
    {
      "time": 135.07,
      "note": 65,
      "duration": 0.15,
      "velocity": 100
    },
    {
      "time": 135.21,
      "note": 96,
      "duration": 0.15,
      "velocity": 100
    },
    {
      "time": 135.349,
      "note": 70,
      "duration": 0.15,
      "velocity": 100
    },
    {
      "time": 135.488,
      "note": 58,
      "duration": 0.15,
      "velocity": 100
    },
    {
      "time": 135.628,
      "note": 65,
      "duration": 0.15,
      "velocity": 100
    },
    {
      "time": 135.767,
      "note": 65,
      "duration": 0.15,
      "velocity": 100
    },
    {
      "time": 135.906,
      "note": 65,
      "duration": 0.15,
      "velocity": 100
    },
    {
      "time": 136.046,
      "note": 68,
      "duration": 0.15,
      "velocity": 100
    },
    {
      "time": 136.185,
      "note": 70,
      "duration": 0.15,
      "velocity": 100
    },
    {
      "time": 136.324,
      "note": 65,
      "duration": 0.15,
      "velocity": 100
    },
    {
      "time": 136.649,
      "note": 65,
      "duration": 0.15,
      "velocity": 100
    },
    {
      "time": 148.933,
      "note": 52,
      "duration": 0.15,
      "velocity": 100
    },
    {
      "time": 150.906,
      "note": 52,
      "duration": 0.15,
      "velocity": 100
    },
    {
      "time": 151.046,
      "note": 51,
      "duration": 0.15,
      "velocity": 100
    },
    {
      "time": 151.255,
      "note": 51,
      "duration": 0.15,
      "velocity": 100
    },
    {
      "time": 152.3,
      "note": 72,
      "duration": 0.15,
      "velocity": 100
    },
    {
      "time": 152.439,
      "note": 60,
      "duration": 0.15,
      "velocity": 100
    },
    {
      "time": 152.602,
      "note": 72,
      "duration": 0.15,
      "velocity": 100
    },
    {
      "time": 152.741,
      "note": 54,
      "duration": 0.15,
      "velocity": 100
    },
    {
      "time": 152.88,
      "note": 54,
      "duration": 0.15,
      "velocity": 100
    },
    {
      "time": 153.02,
      "note": 60,
      "duration": 0.15,
      "velocity": 100
    },
    {
      "time": 153.159,
      "note": 68,
      "duration": 0.15,
      "velocity": 100
    },
    {
      "time": 153.298,
      "note": 68,
      "duration": 0.15,
      "velocity": 100
    },
    {
      "time": 153.437,
      "note": 84,
      "duration": 0.15,
      "velocity": 100
    },
    {
      "time": 153.577,
      "note": 72,
      "duration": 0.15,
      "velocity": 100
    },
    {
      "time": 153.716,
      "note": 68,
      "duration": 0.15,
      "velocity": 100
    },
    {
      "time": 153.855,
      "note": 68,
      "duration": 0.15,
      "velocity": 100
    },
    {
      "time": 154.088,
      "note": 68,
      "duration": 0.15,
      "velocity": 100
    },
    {
      "time": 154.227,
      "note": 56,
      "duration": 0.15,
      "velocity": 100
    },
    {
      "time": 154.366,
      "note": 68,
      "duration": 0.15,
      "velocity": 100
    },
    {
      "time": 154.506,
      "note": 68,
      "duration": 0.15,
      "velocity": 100
    },
    {
      "time": 154.761,
      "note": 55,
      "duration": 0.15,
      "velocity": 100
    },
    {
      "time": 154.9,
      "note": 68,
      "duration": 0.15,
      "velocity": 100
    },
    {
      "time": 155.133,
      "note": 75,
      "duration": 0.15,
      "velocity": 100
    },
    {
      "time": 155.272,
      "note": 69,
      "duration": 0.15,
      "velocity": 100
    },
    {
      "time": 155.411,
      "note": 63,
      "duration": 0.15,
      "velocity": 100
    },
    {
      "time": 155.55,
      "note": 68,
      "duration": 0.15,
      "velocity": 100
    },
    {
      "time": 155.69,
      "note": 68,
      "duration": 0.15,
      "velocity": 100
    },
    {
      "time": 155.829,
      "note": 68,
      "duration": 0.15,
      "velocity": 100
    },
    {
      "time": 155.968,
      "note": 56,
      "duration": 0.15,
      "velocity": 100
    },
    {
      "time": 156.201,
      "note": 67,
      "duration": 0.15,
      "velocity": 100
    },
    {
      "time": 156.34,
      "note": 52,
      "duration": 0.15,
      "velocity": 100
    },
    {
      "time": 156.479,
      "note": 69,
      "duration": 0.15,
      "velocity": 100
    },
    {
      "time": 156.619,
      "note": 68,
      "duration": 0.15,
      "velocity": 100
    },
    {
      "time": 156.874,
      "note": 72,
      "duration": 0.15,
      "velocity": 100
    },
    {
      "time": 157.013,
      "note": 68,
      "duration": 0.15,
      "velocity": 100
    },
    {
      "time": 157.246,
      "note": 69,
      "duration": 0.15,
      "velocity": 100
    },
    {
      "time": 157.385,
      "note": 56,
      "duration": 0.15,
      "velocity": 100
    },
    {
      "time": 157.524,
      "note": 57,
      "duration": 0.15,
      "velocity": 100
    },
    {
      "time": 157.919,
      "note": 69,
      "duration": 0.15,
      "velocity": 100
    },
    {
      "time": 158.058,
      "note": 56,
      "duration": 0.15,
      "velocity": 100
    },
    {
      "time": 158.314,
      "note": 69,
      "duration": 0.15,
      "velocity": 100
    },
    {
      "time": 158.453,
      "note": 68,
      "duration": 0.15,
      "velocity": 100
    },
    {
      "time": 158.592,
      "note": 68,
      "duration": 0.15,
      "velocity": 100
    },
    {
      "time": 158.732,
      "note": 68,
      "duration": 0.15,
      "velocity": 100
    },
    {
      "time": 158.871,
      "note": 68,
      "duration": 0.15,
      "velocity": 100
    },
    {
      "time": 159.01,
      "note": 86,
      "duration": 0.15,
      "velocity": 100
    },
    {
      "time": 159.15,
      "note": 68,
      "duration": 0.15,
      "velocity": 100
    },
    {
      "time": 159.359,
      "note": 77,
      "duration": 0.15,
      "velocity": 100
    },
    {
      "time": 159.498,
      "note": 56,
      "duration": 0.15,
      "velocity": 100
    },
    {
      "time": 160.055,
      "note": 56,
      "duration": 0.15,
      "velocity": 100
    },
    {
      "time": 160.45,
      "note": 54,
      "duration": 0.15,
      "velocity": 100
    },
    {
      "time": 160.636,
      "note": 54,
      "duration": 0.15,
      "velocity": 100
    },
    {
      "time": 160.775,
      "note": 54,
      "duration": 0.15,
      "velocity": 100
    },
    {
      "time": 160.914,
      "note": 67,
      "duration": 0.15,
      "velocity": 100
    },
    {
      "time": 161.146,
      "note": 54,
      "duration": 0.15,
      "velocity": 100
    },
    {
      "time": 161.286,
      "note": 54,
      "duration": 0.15,
      "velocity": 100
    },
    {
      "time": 161.448,
      "note": 82,
      "duration": 0.15,
      "velocity": 100
    },
    {
      "time": 161.588,
      "note": 70,
      "duration": 0.15,
      "velocity": 100
    },
    {
      "time": 161.727,
      "note": 82,
      "duration": 0.15,
      "velocity": 100
    },
    {
      "time": 161.89,
      "note": 68,
      "duration": 0.15,
      "velocity": 100
    },
    {
      "time": 162.029,
      "note": 58,
      "duration": 0.15,
      "velocity": 100
    },
    {
      "time": 162.168,
      "note": 58,
      "duration": 0.15,
      "velocity": 100
    },
    {
      "time": 162.307,
      "note": 61,
      "duration": 0.15,
      "velocity": 100
    },
    {
      "time": 162.447,
      "note": 61,
      "duration": 0.15,
      "velocity": 100
    },
    {
      "time": 162.586,
      "note": 61,
      "duration": 0.15,
      "velocity": 100
    },
    {
      "time": 162.795,
      "note": 79,
      "duration": 0.15,
      "velocity": 100
    },
    {
      "time": 162.934,
      "note": 70,
      "duration": 0.15,
      "velocity": 100
    },
    {
      "time": 163.074,
      "note": 72,
      "duration": 0.15,
      "velocity": 100
    },
    {
      "time": 163.213,
      "note": 68,
      "duration": 0.15,
      "velocity": 100
    },
    {
      "time": 163.538,
      "note": 72,
      "duration": 0.15,
      "velocity": 100
    },
    {
      "time": 163.677,
      "note": 68,
      "duration": 0.15,
      "velocity": 100
    },
    {
      "time": 163.817,
      "note": 68,
      "duration": 0.15,
      "velocity": 100
    },
    {
      "time": 163.956,
      "note": 68,
      "duration": 0.15,
      "velocity": 100
    },
    {
      "time": 164.212,
      "note": 53,
      "duration": 0.15,
      "velocity": 100
    },
    {
      "time": 164.351,
      "note": 53,
      "duration": 0.15,
      "velocity": 100
    },
    {
      "time": 164.49,
      "note": 53,
      "duration": 0.15,
      "velocity": 100
    },
    {
      "time": 165.698,
      "note": 53,
      "duration": 0.15,
      "velocity": 100
    },
    {
      "time": 165.86,
      "note": 52,
      "duration": 0.15,
      "velocity": 100
    },
    {
      "time": 165.999,
      "note": 52,
      "duration": 0.15,
      "velocity": 100
    },
    {
      "time": 166.51,
      "note": 51,
      "duration": 0.15,
      "velocity": 100
    },
    {
      "time": 166.928,
      "note": 51,
      "duration": 0.15,
      "velocity": 100
    },
    {
      "time": 168.112,
      "note": 89,
      "duration": 0.15,
      "velocity": 100
    },
    {
      "time": 168.67,
      "note": 57,
      "duration": 0.15,
      "velocity": 100
    },
    {
      "time": 169.041,
      "note": 61,
      "duration": 0.15,
      "velocity": 100
    },
    {
      "time": 169.552,
      "note": 54,
      "duration": 0.15,
      "velocity": 100
    },
    {
      "time": 169.808,
      "note": 50,
      "duration": 0.15,
      "velocity": 100
    },
    {
      "time": 169.947,
      "note": 90,
      "duration": 0.15,
      "velocity": 100
    },
    {
      "time": 170.086,
      "note": 56,
      "duration": 0.15,
      "velocity": 100
    },
    {
      "time": 170.249,
      "note": 94,
      "duration": 0.15,
      "velocity": 100
    },
    {
      "time": 170.411,
      "note": 54,
      "duration": 0.15,
      "velocity": 100
    },
    {
      "time": 170.551,
      "note": 54,
      "duration": 0.15,
      "velocity": 100
    },
    {
      "time": 170.69,
      "note": 61,
      "duration": 0.15,
      "velocity": 100
    },
    {
      "time": 170.829,
      "note": 61,
      "duration": 0.15,
      "velocity": 100
    },
    {
      "time": 171.317,
      "note": 60,
      "duration": 0.15,
      "velocity": 100
    },
    {
      "time": 171.456,
      "note": 60,
      "duration": 0.15,
      "velocity": 100
    },
    {
      "time": 171.595,
      "note": 60,
      "duration": 0.15,
      "velocity": 100
    },
    {
      "time": 171.735,
      "note": 60,
      "duration": 0.15,
      "velocity": 100
    },
    {
      "time": 171.874,
      "note": 60,
      "duration": 0.15,
      "velocity": 100
    },
    {
      "time": 172.013,
      "note": 56,
      "duration": 0.15,
      "velocity": 100
    },
    {
      "time": 172.153,
      "note": 56,
      "duration": 0.15,
      "velocity": 100
    },
    {
      "time": 173.244,
      "note": 58,
      "duration": 0.15,
      "velocity": 100
    },
    {
      "time": 173.383,
      "note": 58,
      "duration": 0.15,
      "velocity": 100
    },
    {
      "time": 173.523,
      "note": 58,
      "duration": 0.15,
      "velocity": 100
    },
    {
      "time": 173.662,
      "note": 61,
      "duration": 0.15,
      "velocity": 100
    },
    {
      "time": 175.357,
      "note": 52,
      "duration": 0.15,
      "velocity": 100
    },
    {
      "time": 176.727,
      "note": 60,
      "duration": 0.15,
      "velocity": 100
    },
    {
      "time": 176.936,
      "note": 52,
      "duration": 0.15,
      "velocity": 100
    },
    {
      "time": 177.075,
      "note": 52,
      "duration": 0.15,
      "velocity": 100
    },
    {
      "time": 177.215,
      "note": 52,
      "duration": 0.15,
      "velocity": 100
    },
    {
      "time": 177.354,
      "note": 56,
      "duration": 0.15,
      "velocity": 100
    },
    {
      "time": 177.493,
      "note": 58,
      "duration": 0.15,
      "velocity": 100
    },
    {
      "time": 177.633,
      "note": 50,
      "duration": 0.15,
      "velocity": 100
    },
    {
      "time": 178.074,
      "note": 52,
      "duration": 0.15,
      "velocity": 100
    },
    {
      "time": 178.283,
      "note": 56,
      "duration": 0.15,
      "velocity": 100
    },
    {
      "time": 178.422,
      "note": 55,
      "duration": 0.15,
      "velocity": 100
    },
    {
      "time": 178.561,
      "note": 56,
      "duration": 0.15,
      "velocity": 100
    },
    {
      "time": 178.77,
      "note": 56,
      "duration": 0.15,
      "velocity": 100
    },
    {
      "time": 178.91,
      "note": 58,
      "duration": 0.15,
      "velocity": 100
    },
    {
      "time": 179.072,
      "note": 52,
      "duration": 0.15,
      "velocity": 100
    },
    {
      "time": 179.606,
      "note": 50,
      "duration": 0.15,
      "velocity": 100
    },
    {
      "time": 179.815,
      "note": 60,
      "duration": 0.15,
      "velocity": 100
    },
    {
      "time": 179.955,
      "note": 60,
      "duration": 0.15,
      "velocity": 100
    },
    {
      "time": 180.628,
      "note": 52,
      "duration": 0.15,
      "velocity": 100
    },
    {
      "time": 180.767,
      "note": 52,
      "duration": 0.15,
      "velocity": 100
    },
    {
      "time": 181.859,
      "note": 58,
      "duration": 0.15,
      "velocity": 100
    },
    {
      "time": 182.555,
      "note": 65,
      "duration": 0.15,
      "velocity": 100
    },
    {
      "time": 183.159,
      "note": 54,
      "duration": 0.15,
      "velocity": 100
    },
    {
      "time": 183.298,
      "note": 54,
      "duration": 0.15,
      "velocity": 100
    },
    {
      "time": 183.438,
      "note": 54,
      "duration": 0.15,
      "velocity": 100
    },
    {
      "time": 183.67,
      "note": 53,
      "duration": 0.15,
      "velocity": 100
    },
    {
      "time": 183.809,
      "note": 52,
      "duration": 0.15,
      "velocity": 100
    },
    {
      "time": 183.948,
      "note": 75,
      "duration": 0.15,
      "velocity": 100
    },
    {
      "time": 184.088,
      "note": 63,
      "duration": 0.15,
      "velocity": 100
    },
    {
      "time": 184.227,
      "note": 68,
      "duration": 0.15,
      "velocity": 100
    },
    {
      "time": 184.366,
      "note": 60,
      "duration": 0.15,
      "velocity": 100
    },
    {
      "time": 184.506,
      "note": 60,
      "duration": 0.15,
      "velocity": 100
    },
    {
      "time": 184.808,
      "note": 52,
      "duration": 0.15,
      "velocity": 100
    },
    {
      "time": 185.202,
      "note": 60,
      "duration": 0.15,
      "velocity": 100
    },
    {
      "time": 185.342,
      "note": 60,
      "duration": 0.15,
      "velocity": 100
    },
    {
      "time": 185.481,
      "note": 60,
      "duration": 0.15,
      "velocity": 100
    },
    {
      "time": 185.62,
      "note": 60,
      "duration": 0.15,
      "velocity": 100
    },
    {
      "time": 185.76,
      "note": 60,
      "duration": 0.15,
      "velocity": 100
    },
    {
      "time": 185.899,
      "note": 60,
      "duration": 0.15,
      "velocity": 100
    },
    {
      "time": 186.038,
      "note": 60,
      "duration": 0.15,
      "velocity": 100
    },
    {
      "time": 186.201,
      "note": 60,
      "duration": 0.15,
      "velocity": 100
    },
    {
      "time": 186.619,
      "note": 61,
      "duration": 0.15,
      "velocity": 100
    },
    {
      "time": 186.805,
      "note": 61,
      "duration": 0.15,
      "velocity": 100
    },
    {
      "time": 187.083,
      "note": 95,
      "duration": 0.15,
      "velocity": 100
    },
    {
      "time": 187.222,
      "note": 61,
      "duration": 0.15,
      "velocity": 100
    },
    {
      "time": 187.362,
      "note": 67,
      "duration": 0.15,
      "velocity": 100
    },
    {
      "time": 187.501,
      "note": 67,
      "duration": 0.15,
      "velocity": 100
    },
    {
      "time": 187.64,
      "note": 70,
      "duration": 0.15,
      "velocity": 100
    },
    {
      "time": 187.78,
      "note": 65,
      "duration": 0.15,
      "velocity": 100
    },
    {
      "time": 187.919,
      "note": 66,
      "duration": 0.15,
      "velocity": 100
    },
    {
      "time": 188.058,
      "note": 66,
      "duration": 0.15,
      "velocity": 100
    },
    {
      "time": 188.198,
      "note": 63,
      "duration": 0.15,
      "velocity": 100
    },
    {
      "time": 188.337,
      "note": 72,
      "duration": 0.15,
      "velocity": 100
    },
    {
      "time": 188.476,
      "note": 60,
      "duration": 0.15,
      "velocity": 100
    },
    {
      "time": 188.616,
      "note": 72,
      "duration": 0.15,
      "velocity": 100
    },
    {
      "time": 188.755,
      "note": 72,
      "duration": 0.15,
      "velocity": 100
    },
    {
      "time": 188.894,
      "note": 75,
      "duration": 0.15,
      "velocity": 100
    },
    {
      "time": 189.034,
      "note": 75,
      "duration": 0.15,
      "velocity": 100
    },
    {
      "time": 189.173,
      "note": 63,
      "duration": 0.15,
      "velocity": 100
    },
    {
      "time": 189.312,
      "note": 63,
      "duration": 0.15,
      "velocity": 100
    },
    {
      "time": 189.452,
      "note": 65,
      "duration": 0.15,
      "velocity": 100
    },
    {
      "time": 189.591,
      "note": 63,
      "duration": 0.15,
      "velocity": 100
    },
    {
      "time": 189.73,
      "note": 75,
      "duration": 0.15,
      "velocity": 100
    },
    {
      "time": 189.87,
      "note": 63,
      "duration": 0.15,
      "velocity": 100
    },
    {
      "time": 190.009,
      "note": 63,
      "duration": 0.15,
      "velocity": 100
    },
    {
      "time": 190.148,
      "note": 75,
      "duration": 0.15,
      "velocity": 100
    },
    {
      "time": 190.288,
      "note": 58,
      "duration": 0.15,
      "velocity": 100
    },
    {
      "time": 190.427,
      "note": 65,
      "duration": 0.15,
      "velocity": 100
    },
    {
      "time": 190.566,
      "note": 65,
      "duration": 0.15,
      "velocity": 100
    },
    {
      "time": 190.705,
      "note": 65,
      "duration": 0.15,
      "velocity": 100
    },
    {
      "time": 190.845,
      "note": 58,
      "duration": 0.15,
      "velocity": 100
    },
    {
      "time": 190.984,
      "note": 75,
      "duration": 0.15,
      "velocity": 100
    },
    {
      "time": 191.193,
      "note": 66,
      "duration": 0.15,
      "velocity": 100
    },
    {
      "time": 191.332,
      "note": 65,
      "duration": 0.15,
      "velocity": 100
    },
    {
      "time": 191.472,
      "note": 60,
      "duration": 0.15,
      "velocity": 100
    },
    {
      "time": 191.611,
      "note": 58,
      "duration": 0.15,
      "velocity": 100
    },
    {
      "time": 191.75,
      "note": 61,
      "duration": 0.15,
      "velocity": 100
    },
    {
      "time": 191.89,
      "note": 65,
      "duration": 0.15,
      "velocity": 100
    },
    {
      "time": 192.029,
      "note": 73,
      "duration": 0.15,
      "velocity": 100
    },
    {
      "time": 192.168,
      "note": 77,
      "duration": 0.15,
      "velocity": 100
    },
    {
      "time": 192.308,
      "note": 94,
      "duration": 0.15,
      "velocity": 100
    },
    {
      "time": 192.47,
      "note": 63,
      "duration": 0.15,
      "velocity": 100
    },
    {
      "time": 192.61,
      "note": 63,
      "duration": 0.15,
      "velocity": 100
    },
    {
      "time": 192.749,
      "note": 75,
      "duration": 0.15,
      "velocity": 100
    },
    {
      "time": 192.888,
      "note": 60,
      "duration": 0.15,
      "velocity": 100
    },
    {
      "time": 193.027,
      "note": 60,
      "duration": 0.15,
      "velocity": 100
    },
    {
      "time": 193.167,
      "note": 72,
      "duration": 0.15,
      "velocity": 100
    },
    {
      "time": 193.306,
      "note": 72,
      "duration": 0.15,
      "velocity": 100
    },
    {
      "time": 193.445,
      "note": 63,
      "duration": 0.15,
      "velocity": 100
    },
    {
      "time": 193.585,
      "note": 63,
      "duration": 0.15,
      "velocity": 100
    },
    {
      "time": 193.724,
      "note": 56,
      "duration": 0.15,
      "velocity": 100
    },
    {
      "time": 193.863,
      "note": 56,
      "duration": 0.15,
      "velocity": 100
    },
    {
      "time": 194.003,
      "note": 56,
      "duration": 0.15,
      "velocity": 100
    },
    {
      "time": 194.142,
      "note": 56,
      "duration": 0.15,
      "velocity": 100
    },
    {
      "time": 194.281,
      "note": 56,
      "duration": 0.15,
      "velocity": 100
    },
    {
      "time": 194.421,
      "note": 56,
      "duration": 0.15,
      "velocity": 100
    },
    {
      "time": 194.56,
      "note": 56,
      "duration": 0.15,
      "velocity": 100
    },
    {
      "time": 194.699,
      "note": 56,
      "duration": 0.15,
      "velocity": 100
    },
    {
      "time": 194.932,
      "note": 56,
      "duration": 0.15,
      "velocity": 100
    },
    {
      "time": 195.164,
      "note": 57,
      "duration": 0.15,
      "velocity": 100
    },
    {
      "time": 195.303,
      "note": 56,
      "duration": 0.15,
      "velocity": 100
    },
    {
      "time": 195.442,
      "note": 56,
      "duration": 0.15,
      "velocity": 100
    },
    {
      "time": 195.651,
      "note": 56,
      "duration": 0.15,
      "velocity": 100
    },
    {
      "time": 195.791,
      "note": 58,
      "duration": 0.15,
      "velocity": 100
    },
    {
      "time": 195.93,
      "note": 70,
      "duration": 0.15,
      "velocity": 100
    },
    {
      "time": 196.069,
      "note": 58,
      "duration": 0.15,
      "velocity": 100
    },
    {
      "time": 196.209,
      "note": 54,
      "duration": 0.15,
      "velocity": 100
    },
    {
      "time": 196.348,
      "note": 54,
      "duration": 0.15,
      "velocity": 100
    },
    {
      "time": 196.487,
      "note": 51,
      "duration": 0.15,
      "velocity": 100
    },
    {
      "time": 196.627,
      "note": 56,
      "duration": 0.15,
      "velocity": 100
    },
    {
      "time": 196.766,
      "note": 56,
      "duration": 0.15,
      "velocity": 100
    },
    {
      "time": 196.905,
      "note": 60,
      "duration": 0.15,
      "velocity": 100
    },
    {
      "time": 197.509,
      "note": 52,
      "duration": 0.15,
      "velocity": 100
    },
    {
      "time": 198.786,
      "note": 53,
      "duration": 0.15,
      "velocity": 100
    },
    {
      "time": 199.436,
      "note": 65,
      "duration": 0.15,
      "velocity": 100
    },
    {
      "time": 199.576,
      "note": 60,
      "duration": 0.15,
      "velocity": 100
    },
    {
      "time": 199.97,
      "note": 65,
      "duration": 0.15,
      "velocity": 100
    },
    {
      "time": 200.11,
      "note": 65,
      "duration": 0.15,
      "velocity": 100
    },
    {
      "time": 200.319,
      "note": 65,
      "duration": 0.15,
      "velocity": 100
    },
    {
      "time": 200.597,
      "note": 61,
      "duration": 0.15,
      "velocity": 100
    },
    {
      "time": 200.737,
      "note": 60,
      "duration": 0.15,
      "velocity": 100
    },
    {
      "time": 200.876,
      "note": 94,
      "duration": 0.15,
      "velocity": 100
    },
    {
      "time": 201.015,
      "note": 75,
      "duration": 0.15,
      "velocity": 100
    },
    {
      "time": 201.154,
      "note": 68,
      "duration": 0.15,
      "velocity": 100
    },
    {
      "time": 201.294,
      "note": 63,
      "duration": 0.15,
      "velocity": 100
    },
    {
      "time": 201.433,
      "note": 60,
      "duration": 0.15,
      "velocity": 100
    },
    {
      "time": 201.572,
      "note": 68,
      "duration": 0.15,
      "velocity": 100
    },
    {
      "time": 201.712,
      "note": 60,
      "duration": 0.15,
      "velocity": 100
    },
    {
      "time": 201.921,
      "note": 51,
      "duration": 0.15,
      "velocity": 100
    },
    {
      "time": 202.06,
      "note": 63,
      "duration": 0.15,
      "velocity": 100
    },
    {
      "time": 202.199,
      "note": 60,
      "duration": 0.15,
      "velocity": 100
    },
    {
      "time": 202.339,
      "note": 60,
      "duration": 0.15,
      "velocity": 100
    },
    {
      "time": 202.478,
      "note": 60,
      "duration": 0.15,
      "velocity": 100
    },
    {
      "time": 202.617,
      "note": 60,
      "duration": 0.15,
      "velocity": 100
    },
    {
      "time": 202.757,
      "note": 60,
      "duration": 0.15,
      "velocity": 100
    },
    {
      "time": 202.896,
      "note": 60,
      "duration": 0.15,
      "velocity": 100
    },
    {
      "time": 203.476,
      "note": 61,
      "duration": 0.15,
      "velocity": 100
    },
    {
      "time": 204.173,
      "note": 95,
      "duration": 0.15,
      "velocity": 100
    },
    {
      "time": 204.312,
      "note": 67,
      "duration": 0.15,
      "velocity": 100
    },
    {
      "time": 204.452,
      "note": 67,
      "duration": 0.15,
      "velocity": 100
    },
    {
      "time": 208.84,
      "note": 51,
      "duration": 0.15,
      "velocity": 100
    }
  ],
  "chords": [
    {
      "time": 1.672,
      "notes": [
        51,
        52,
        58,
        59
      ],
      "duration": 0.534
    },
    {
      "time": 2.206,
      "notes": [
        56,
        57,
        58,
        59
      ],
      "duration": 0.511
    },
    {
      "time": 2.717,
      "notes": [
        51,
        55,
        56,
        57
      ],
      "duration": 0.534
    },
    {
      "time": 3.251,
      "notes": [
        51,
        53,
        54,
        56
      ],
      "duration": 0.534
    },
    {
      "time": 3.785,
      "notes": [
        48,
        49,
        53,
        54
      ],
      "duration": 0.534
    },
    {
      "time": 4.319,
      "notes": [
        48,
        57,
        58,
        59
      ],
      "duration": 0.511
    },
    {
      "time": 4.83,
      "notes": [
        48,
        49,
        58,
        59
      ],
      "duration": 0.534
    },
    {
      "time": 5.364,
      "notes": [
        51,
        52,
        58,
        59
      ],
      "duration": 0.534
    },
    {
      "time": 5.898,
      "notes": [
        51,
        52,
        58,
        59
      ],
      "duration": 0.534
    },
    {
      "time": 6.432,
      "notes": [
        55,
        56,
        57,
        58
      ],
      "duration": 0.511
    },
    {
      "time": 6.943,
      "notes": [
        55,
        56,
        57,
        58
      ],
      "duration": 0.534
    },
    {
      "time": 7.477,
      "notes": [
        53,
        54,
        56,
        57
      ],
      "duration": 0.534
    },
    {
      "time": 8.011,
      "notes": [
        48,
        49,
        53,
        54
      ],
      "duration": 0.534
    },
    {
      "time": 8.545,
      "notes": [
        56,
        57,
        58,
        59
      ],
      "duration": 0.534
    },
    {
      "time": 9.079,
      "notes": [
        51,
        55,
        56,
        57
      ],
      "duration": 0.511
    },
    {
      "time": 9.59,
      "notes": [
        49,
        50,
        51,
        58
      ],
      "duration": 0.534
    },
    {
      "time": 10.124,
      "notes": [
        51,
        52,
        58,
        59
      ],
      "duration": 0.534
    },
    {
      "time": 10.658,
      "notes": [
        56,
        57,
        58,
        59
      ],
      "duration": 0.534
    },
    {
      "time": 11.192,
      "notes": [
        51,
        56,
        57,
        58
      ],
      "duration": 0.511
    },
    {
      "time": 11.703,
      "notes": [
        51,
        53,
        54,
        56
      ],
      "duration": 0.534
    },
    {
      "time": 12.237,
      "notes": [
        48,
        49,
        53,
        54
      ],
      "duration": 0.534
    },
    {
      "time": 12.771,
      "notes": [
        48,
        57,
        58,
        59
      ],
      "duration": 0.511
    },
    {
      "time": 13.282,
      "notes": [
        48,
        49,
        58,
        59
      ],
      "duration": 0.534
    },
    {
      "time": 13.816,
      "notes": [
        51,
        52,
        58,
        59
      ],
      "duration": 0.534
    },
    {
      "time": 14.35,
      "notes": [
        48,
        51,
        52,
        58
      ],
      "duration": 0.534
    },
    {
      "time": 14.884,
      "notes": [
        56,
        57,
        58,
        59
      ],
      "duration": 0.511
    },
    {
      "time": 15.395,
      "notes": [
        55,
        56,
        57,
        58
      ],
      "duration": 0.534
    },
    {
      "time": 15.929,
      "notes": [
        53,
        54,
        56,
        57
      ],
      "duration": 0.534
    },
    {
      "time": 16.463,
      "notes": [
        48,
        49,
        53,
        54
      ],
      "duration": 0.534
    },
    {
      "time": 16.997,
      "notes": [
        56,
        57,
        58,
        59
      ],
      "duration": 0.534
    },
    {
      "time": 17.531,
      "notes": [
        49,
        56,
        57,
        58
      ],
      "duration": 0.511
    },
    {
      "time": 18.042,
      "notes": [
        49,
        57,
        58,
        59
      ],
      "duration": 0.534
    },
    {
      "time": 18.576,
      "notes": [
        49,
        57,
        58,
        59
      ],
      "duration": 0.534
    },
    {
      "time": 19.11,
      "notes": [
        48,
        56,
        57,
        58
      ],
      "duration": 0.511
    },
    {
      "time": 19.621,
      "notes": [
        53,
        54,
        58,
        59
      ],
      "duration": 0.534
    },
    {
      "time": 20.155,
      "notes": [
        53,
        57,
        58,
        59
      ],
      "duration": 0.534
    },
    {
      "time": 20.689,
      "notes": [
        49,
        57,
        58,
        59
      ],
      "duration": 0.534
    },
    {
      "time": 21.223,
      "notes": [
        48,
        49,
        58,
        59
      ],
      "duration": 0.534
    },
    {
      "time": 21.757,
      "notes": [
        52,
        53,
        54,
        55
      ],
      "duration": 0.511
    },
    {
      "time": 22.268,
      "notes": [
        53,
        57,
        58,
        59
      ],
      "duration": 0.534
    },
    {
      "time": 22.802,
      "notes": [
        49,
        57,
        58,
        59
      ],
      "duration": 0.534
    },
    {
      "time": 23.336,
      "notes": [
        48,
        56,
        57,
        58
      ],
      "duration": 0.511
    },
    {
      "time": 23.847,
      "notes": [
        48,
        57,
        58,
        59
      ],
      "duration": 0.534
    },
    {
      "time": 24.381,
      "notes": [
        51,
        52,
        58,
        59
      ],
      "duration": 0.534
    },
    {
      "time": 24.915,
      "notes": [
        51,
        52,
        58,
        59
      ],
      "duration": 0.534
    },
    {
      "time": 25.449,
      "notes": [
        51,
        55,
        56,
        57
      ],
      "duration": 0.534
    },
    {
      "time": 25.983,
      "notes": [
        53,
        54,
        56,
        57
      ],
      "duration": 0.511
    },
    {
      "time": 26.494,
      "notes": [
        53,
        56,
        57,
        58
      ],
      "duration": 0.534
    },
    {
      "time": 27.028,
      "notes": [
        48,
        49,
        58,
        59
      ],
      "duration": 0.534
    },
    {
      "time": 27.562,
      "notes": [
        48,
        56,
        57,
        58
      ],
      "duration": 0.511
    },
    {
      "time": 28.073,
      "notes": [
        53,
        57,
        58,
        59
      ],
      "duration": 0.534
    },
    {
      "time": 28.607,
      "notes": [
        53,
        57,
        58,
        59
      ],
      "duration": 0.534
    },
    {
      "time": 29.141,
      "notes": [
        49,
        57,
        58,
        59
      ],
      "duration": 0.534
    },
    {
      "time": 29.675,
      "notes": [
        48,
        49,
        50,
        59
      ],
      "duration": 0.534
    },
    {
      "time": 30.209,
      "notes": [
        52,
        53,
        54,
        55
      ],
      "duration": 0.511
    },
    {
      "time": 30.72,
      "notes": [
        53,
        57,
        58,
        59
      ],
      "duration": 0.534
    },
    {
      "time": 31.254,
      "notes": [
        49,
        57,
        58,
        59
      ],
      "duration": 0.534
    },
    {
      "time": 31.788,
      "notes": [
        48,
        56,
        57,
        58
      ],
      "duration": 0.511
    },
    {
      "time": 32.299,
      "notes": [
        48,
        57,
        58,
        59
      ],
      "duration": 0.534
    },
    {
      "time": 32.833,
      "notes": [
        51,
        52,
        58,
        59
      ],
      "duration": 0.534
    },
    {
      "time": 33.367,
      "notes": [
        51,
        52,
        58,
        59
      ],
      "duration": 0.534
    },
    {
      "time": 33.901,
      "notes": [
        51,
        55,
        56,
        57
      ],
      "duration": 0.511
    },
    {
      "time": 34.412,
      "notes": [
        54,
        55,
        56,
        57
      ],
      "duration": 0.534
    },
    {
      "time": 34.946,
      "notes": [
        53,
        56,
        57,
        59
      ],
      "duration": 0.534
    },
    {
      "time": 35.48,
      "notes": [
        49,
        57,
        58,
        59
      ],
      "duration": 0.534
    },
    {
      "time": 36.014,
      "notes": [
        48,
        49,
        56,
        57
      ],
      "duration": 0.511
    },
    {
      "time": 36.525,
      "notes": [
        53,
        57,
        58,
        59
      ],
      "duration": 0.534
    },
    {
      "time": 37.059,
      "notes": [
        53,
        57,
        58,
        59
      ],
      "duration": 0.511
    },
    {
      "time": 37.57,
      "notes": [
        56,
        57,
        58,
        59
      ],
      "duration": 0.557
    },
    {
      "time": 38.127,
      "notes": [
        48,
        49,
        50,
        59
      ],
      "duration": 0.534
    },
    {
      "time": 38.661,
      "notes": [
        52,
        53,
        54,
        55
      ],
      "duration": 0.511
    },
    {
      "time": 39.172,
      "notes": [
        53,
        57,
        58,
        59
      ],
      "duration": 0.511
    },
    {
      "time": 39.683,
      "notes": [
        56,
        57,
        58,
        59
      ],
      "duration": 0.534
    },
    {
      "time": 40.217,
      "notes": [
        48,
        56,
        57,
        58
      ],
      "duration": 0.534
    },
    {
      "time": 40.751,
      "notes": [
        53,
        54,
        58,
        59
      ],
      "duration": 0.534
    },
    {
      "time": 41.285,
      "notes": [
        53,
        57,
        58,
        59
      ],
      "duration": 0.534
    },
    {
      "time": 41.819,
      "notes": [
        49,
        57,
        58,
        59
      ],
      "duration": 0.534
    },
    {
      "time": 42.353,
      "notes": [
        48,
        49,
        50,
        59
      ],
      "duration": 0.534
    },
    {
      "time": 42.887,
      "notes": [
        52,
        53,
        54,
        55
      ],
      "duration": 0.534
    },
    {
      "time": 43.421,
      "notes": [
        51,
        55,
        56,
        58
      ],
      "duration": 0.488
    },
    {
      "time": 43.909,
      "notes": [
        48,
        51,
        58,
        59
      ],
      "duration": 0.557
    },
    {
      "time": 44.466,
      "notes": [
        51,
        56,
        57,
        58
      ],
      "duration": 0.511
    },
    {
      "time": 44.977,
      "notes": [
        51,
        55,
        56,
        57
      ],
      "duration": 0.534
    },
    {
      "time": 45.511,
      "notes": [
        51,
        53,
        54,
        56
      ],
      "duration": 0.511
    },
    {
      "time": 46.022,
      "notes": [
        48,
        49,
        53,
        54
      ],
      "duration": 0.557
    },
    {
      "time": 46.579,
      "notes": [
        48,
        57,
        58,
        59
      ],
      "duration": 0.511
    },
    {
      "time": 47.09,
      "notes": [
        48,
        49,
        58,
        59
      ],
      "duration": 0.534
    },
    {
      "time": 47.624,
      "notes": [
        51,
        52,
        58,
        59
      ],
      "duration": 0.534
    },
    {
      "time": 48.158,
      "notes": [
        48,
        51,
        52,
        58
      ],
      "duration": 0.534
    },
    {
      "time": 48.692,
      "notes": [
        55,
        56,
        57,
        58
      ],
      "duration": 0.511
    },
    {
      "time": 49.203,
      "notes": [
        55,
        56,
        57,
        58
      ],
      "duration": 0.534
    },
    {
      "time": 49.737,
      "notes": [
        53,
        54,
        56,
        57
      ],
      "duration": 0.534
    },
    {
      "time": 50.271,
      "notes": [
        48,
        49,
        53,
        54
      ],
      "duration": 0.511
    },
    {
      "time": 50.782,
      "notes": [
        56,
        57,
        58,
        59
      ],
      "duration": 0.534
    },
    {
      "time": 51.316,
      "notes": [
        55,
        56,
        57,
        58
      ],
      "duration": 0.534
    },
    {
      "time": 51.85,
      "notes": [
        49,
        50,
        51,
        58
      ],
      "duration": 0.534
    },
    {
      "time": 52.384,
      "notes": [
        48,
        51,
        52,
        58
      ],
      "duration": 0.534
    },
    {
      "time": 52.918,
      "notes": [
        55,
        56,
        57,
        58
      ],
      "duration": 0.511
    },
    {
      "time": 53.429,
      "notes": [
        51,
        56,
        57,
        58
      ],
      "duration": 0.534
    },
    {
      "time": 53.963,
      "notes": [
        51,
        53,
        54,
        56
      ],
      "duration": 0.534
    },
    {
      "time": 54.497,
      "notes": [
        48,
        49,
        53,
        54
      ],
      "duration": 0.534
    },
    {
      "time": 55.031,
      "notes": [
        48,
        57,
        58,
        59
      ],
      "duration": 0.511
    },
    {
      "time": 55.542,
      "notes": [
        48,
        49,
        58,
        59
      ],
      "duration": 0.534
    },
    {
      "time": 56.076,
      "notes": [
        51,
        52,
        58,
        59
      ],
      "duration": 0.534
    },
    {
      "time": 56.61,
      "notes": [
        48,
        51,
        58,
        59
      ],
      "duration": 0.534
    },
    {
      "time": 57.144,
      "notes": [
        56,
        57,
        58,
        59
      ],
      "duration": 0.511
    },
    {
      "time": 57.655,
      "notes": [
        55,
        56,
        57,
        58
      ],
      "duration": 0.511
    },
    {
      "time": 58.166,
      "notes": [
        53,
        54,
        56,
        57
      ],
      "duration": 0.557
    },
    {
      "time": 58.723,
      "notes": [
        48,
        49,
        53,
        54
      ],
      "duration": 0.511
    },
    {
      "time": 59.234,
      "notes": [
        56,
        57,
        58,
        59
      ],
      "duration": 0.534
    },
    {
      "time": 59.768,
      "notes": [
        55,
        56,
        57,
        58
      ],
      "duration": 0.511
    },
    {
      "time": 60.279,
      "notes": [
        49,
        57,
        58,
        59
      ],
      "duration": 0.534
    },
    {
      "time": 60.813,
      "notes": [
        49,
        57,
        58,
        59
      ],
      "duration": 0.534
    },
    {
      "time": 61.347,
      "notes": [
        48,
        56,
        57,
        58
      ],
      "duration": 0.511
    },
    {
      "time": 61.858,
      "notes": [
        53,
        57,
        58,
        59
      ],
      "duration": 0.534
    },
    {
      "time": 62.392,
      "notes": [
        53,
        57,
        58,
        59
      ],
      "duration": 0.534
    },
    {
      "time": 62.926,
      "notes": [
        49,
        57,
        58,
        59
      ],
      "duration": 0.534
    },
    {
      "time": 63.46,
      "notes": [
        48,
        49,
        58,
        59
      ],
      "duration": 0.534
    },
    {
      "time": 63.994,
      "notes": [
        52,
        53,
        54,
        55
      ],
      "duration": 0.511
    },
    {
      "time": 64.505,
      "notes": [
        53,
        57,
        58,
        59
      ],
      "duration": 0.534
    },
    {
      "time": 65.039,
      "notes": [
        49,
        57,
        58,
        59
      ],
      "duration": 0.534
    },
    {
      "time": 65.573,
      "notes": [
        48,
        56,
        57,
        58
      ],
      "duration": 0.511
    },
    {
      "time": 66.084,
      "notes": [
        48,
        57,
        58,
        59
      ],
      "duration": 0.534
    },
    {
      "time": 66.618,
      "notes": [
        51,
        52,
        58,
        59
      ],
      "duration": 0.557
    },
    {
      "time": 67.175,
      "notes": [
        51,
        52,
        58,
        59
      ],
      "duration": 0.534
    },
    {
      "time": 67.709,
      "notes": [
        51,
        55,
        56,
        57
      ],
      "duration": 0.488
    },
    {
      "time": 68.197,
      "notes": [
        53,
        54,
        56,
        57
      ],
      "duration": 0.534
    },
    {
      "time": 68.731,
      "notes": [
        53,
        56,
        57,
        59
      ],
      "duration": 0.534
    },
    {
      "time": 69.265,
      "notes": [
        49,
        57,
        58,
        59
      ],
      "duration": 0.534
    },
    {
      "time": 69.799,
      "notes": [
        48,
        56,
        57,
        58
      ],
      "duration": 0.534
    },
    {
      "time": 70.333,
      "notes": [
        53,
        57,
        58,
        59
      ],
      "duration": 0.511
    },
    {
      "time": 70.844,
      "notes": [
        53,
        57,
        58,
        59
      ],
      "duration": 0.534
    },
    {
      "time": 71.378,
      "notes": [
        49,
        57,
        58,
        59
      ],
      "duration": 0.534
    },
    {
      "time": 71.912,
      "notes": [
        48,
        49,
        58,
        59
      ],
      "duration": 0.534
    },
    {
      "time": 72.446,
      "notes": [
        52,
        53,
        54,
        55
      ],
      "duration": 0.511
    },
    {
      "time": 72.957,
      "notes": [
        53,
        57,
        58,
        59
      ],
      "duration": 0.534
    },
    {
      "time": 73.491,
      "notes": [
        56,
        57,
        58,
        59
      ],
      "duration": 0.534
    },
    {
      "time": 74.025,
      "notes": [
        48,
        56,
        57,
        58
      ],
      "duration": 0.511
    },
    {
      "time": 74.536,
      "notes": [
        48,
        57,
        58,
        59
      ],
      "duration": 0.534
    },
    {
      "time": 75.07,
      "notes": [
        51,
        52,
        58,
        59
      ],
      "duration": 0.534
    },
    {
      "time": 75.604,
      "notes": [
        51,
        52,
        58,
        59
      ],
      "duration": 0.534
    },
    {
      "time": 76.138,
      "notes": [
        51,
        55,
        56,
        57
      ],
      "duration": 0.534
    },
    {
      "time": 76.672,
      "notes": [
        54,
        55,
        56,
        57
      ],
      "duration": 0.534
    },
    {
      "time": 77.206,
      "notes": [
        56,
        57,
        58,
        59
      ],
      "duration": 0.534
    },
    {
      "time": 77.74,
      "notes": [
        49,
        57,
        58,
        59
      ],
      "duration": 0.511
    },
    {
      "time": 78.251,
      "notes": [
        48,
        56,
        57,
        58
      ],
      "duration": 0.534
    },
    {
      "time": 78.785,
      "notes": [
        53,
        57,
        58,
        59
      ],
      "duration": 0.534
    },
    {
      "time": 79.319,
      "notes": [
        53,
        57,
        58,
        59
      ],
      "duration": 0.534
    },
    {
      "time": 79.853,
      "notes": [
        48,
        57,
        58,
        59
      ],
      "duration": 0.511
    },
    {
      "time": 80.364,
      "notes": [
        48,
        49,
        50,
        59
      ],
      "duration": 0.534
    },
    {
      "time": 80.898,
      "notes": [
        52,
        53,
        54,
        55
      ],
      "duration": 0.511
    },
    {
      "time": 81.409,
      "notes": [
        53,
        57,
        58,
        59
      ],
      "duration": 0.534
    },
    {
      "time": 81.943,
      "notes": [
        49,
        57,
        58,
        59
      ],
      "duration": 0.557
    },
    {
      "time": 82.5,
      "notes": [
        48,
        56,
        57,
        58
      ],
      "duration": 0.511
    },
    {
      "time": 83.011,
      "notes": [
        53,
        57,
        58,
        59
      ],
      "duration": 0.511
    },
    {
      "time": 83.522,
      "notes": [
        53,
        57,
        58,
        59
      ],
      "duration": 0.534
    },
    {
      "time": 84.056,
      "notes": [
        56,
        57,
        58,
        59
      ],
      "duration": 0.534
    },
    {
      "time": 84.59,
      "notes": [
        48,
        49,
        50,
        59
      ],
      "duration": 0.534
    },
    {
      "time": 85.124,
      "notes": [
        52,
        53,
        54,
        55
      ],
      "duration": 0.534
    },
    {
      "time": 85.658,
      "notes": [
        51,
        52,
        56,
        58
      ],
      "duration": 0.511
    },
    {
      "time": 86.169,
      "notes": [
        48,
        51,
        58,
        59
      ],
      "duration": 0.534
    },
    {
      "time": 86.703,
      "notes": [
        55,
        56,
        57,
        58
      ],
      "duration": 0.511
    },
    {
      "time": 87.214,
      "notes": [
        51,
        55,
        56,
        57
      ],
      "duration": 0.557
    },
    {
      "time": 87.771,
      "notes": [
        51,
        53,
        56,
        57
      ],
      "duration": 0.511
    },
    {
      "time": 88.282,
      "notes": [
        48,
        49,
        53,
        54
      ],
      "duration": 0.534
    },
    {
      "time": 88.816,
      "notes": [
        48,
        57,
        58,
        59
      ],
      "duration": 0.534
    },
    {
      "time": 89.35,
      "notes": [
        48,
        49,
        58,
        59
      ],
      "duration": 0.534
    },
    {
      "time": 89.884,
      "notes": [
        51,
        52,
        58,
        59
      ],
      "duration": 0.511
    },
    {
      "time": 90.395,
      "notes": [
        48,
        51,
        52,
        58
      ],
      "duration": 0.534
    },
    {
      "time": 90.929,
      "notes": [
        55,
        56,
        57,
        58
      ],
      "duration": 0.511
    },
    {
      "time": 91.44,
      "notes": [
        55,
        56,
        57,
        58
      ],
      "duration": 0.534
    },
    {
      "time": 91.974,
      "notes": [
        53,
        54,
        56,
        57
      ],
      "duration": 0.534
    },
    {
      "time": 92.508,
      "notes": [
        48,
        49,
        53,
        54
      ],
      "duration": 0.534
    },
    {
      "time": 93.042,
      "notes": [
        56,
        57,
        58,
        59
      ],
      "duration": 0.511
    },
    {
      "time": 93.553,
      "notes": [
        51,
        55,
        56,
        57
      ],
      "duration": 0.534
    },
    {
      "time": 94.087,
      "notes": [
        49,
        51,
        56,
        58
      ],
      "duration": 0.534
    },
    {
      "time": 94.621,
      "notes": [
        48,
        51,
        58,
        59
      ],
      "duration": 0.534
    },
    {
      "time": 95.155,
      "notes": [
        56,
        57,
        58,
        59
      ],
      "duration": 0.511
    },
    {
      "time": 95.666,
      "notes": [
        51,
        56,
        57,
        58
      ],
      "duration": 0.534
    },
    {
      "time": 96.2,
      "notes": [
        51,
        53,
        54,
        56
      ],
      "duration": 0.534
    },
    {
      "time": 96.734,
      "notes": [
        48,
        49,
        53,
        54
      ],
      "duration": 0.534
    },
    {
      "time": 97.268,
      "notes": [
        48,
        57,
        58,
        59
      ],
      "duration": 0.511
    },
    {
      "time": 97.779,
      "notes": [
        48,
        49,
        58,
        59
      ],
      "duration": 0.534
    },
    {
      "time": 98.313,
      "notes": [
        51,
        52,
        58,
        59
      ],
      "duration": 0.534
    },
    {
      "time": 98.847,
      "notes": [
        48,
        51,
        58,
        59
      ],
      "duration": 0.534
    },
    {
      "time": 99.381,
      "notes": [
        55,
        56,
        57,
        58
      ],
      "duration": 0.511
    },
    {
      "time": 99.892,
      "notes": [
        55,
        56,
        57,
        58
      ],
      "duration": 0.534
    },
    {
      "time": 100.426,
      "notes": [
        53,
        54,
        56,
        57
      ],
      "duration": 0.534
    },
    {
      "time": 100.96,
      "notes": [
        48,
        49,
        53,
        54
      ],
      "duration": 0.534
    },
    {
      "time": 101.494,
      "notes": [
        56,
        57,
        58,
        59
      ],
      "duration": 0.511
    },
    {
      "time": 102.005,
      "notes": [
        55,
        56,
        57,
        58
      ],
      "duration": 0.534
    },
    {
      "time": 102.539,
      "notes": [
        49,
        50,
        51,
        52
      ],
      "duration": 0.534
    },
    {
      "time": 103.073,
      "notes": [
        48,
        51,
        52,
        58
      ],
      "duration": 0.534
    },
    {
      "time": 103.607,
      "notes": [
        55,
        56,
        57,
        58
      ],
      "duration": 0.511
    },
    {
      "time": 104.118,
      "notes": [
        51,
        56,
        57,
        58
      ],
      "duration": 0.534
    },
    {
      "time": 104.652,
      "notes": [
        51,
        53,
        56,
        57
      ],
      "duration": 0.534
    },
    {
      "time": 105.186,
      "notes": [
        48,
        49,
        53,
        54
      ],
      "duration": 0.534
    },
    {
      "time": 105.72,
      "notes": [
        48,
        57,
        58,
        59
      ],
      "duration": 0.511
    },
    {
      "time": 106.231,
      "notes": [
        48,
        49,
        58,
        59
      ],
      "duration": 0.534
    },
    {
      "time": 106.765,
      "notes": [
        51,
        52,
        58,
        59
      ],
      "duration": 0.534
    },
    {
      "time": 107.299,
      "notes": [
        48,
        51,
        58,
        59
      ],
      "duration": 0.534
    },
    {
      "time": 107.833,
      "notes": [
        55,
        56,
        57,
        58
      ],
      "duration": 0.511
    },
    {
      "time": 108.344,
      "notes": [
        55,
        56,
        57,
        58
      ],
      "duration": 0.534
    },
    {
      "time": 108.878,
      "notes": [
        53,
        54,
        56,
        57
      ],
      "duration": 0.534
    },
    {
      "time": 109.412,
      "notes": [
        48,
        49,
        53,
        54
      ],
      "duration": 0.511
    },
    {
      "time": 109.923,
      "notes": [
        56,
        57,
        58,
        59
      ],
      "duration": 0.534
    },
    {
      "time": 110.457,
      "notes": [
        55,
        56,
        57,
        58
      ],
      "duration": 0.534
    },
    {
      "time": 110.991,
      "notes": [
        49,
        51,
        52,
        58
      ],
      "duration": 0.534
    },
    {
      "time": 111.525,
      "notes": [
        48,
        51,
        52,
        58
      ],
      "duration": 0.534
    },
    {
      "time": 112.06,
      "notes": [
        55,
        56,
        57,
        58
      ],
      "duration": 0.511
    },
    {
      "time": 112.57,
      "notes": [
        51,
        56,
        57,
        58
      ],
      "duration": 0.534
    },
    {
      "time": 113.104,
      "notes": [
        51,
        53,
        54,
        56
      ],
      "duration": 0.534
    },
    {
      "time": 113.638,
      "notes": [
        48,
        49,
        53,
        54
      ],
      "duration": 0.534
    },
    {
      "time": 114.173,
      "notes": [
        48,
        57,
        58,
        59
      ],
      "duration": 0.511
    },
    {
      "time": 114.683,
      "notes": [
        48,
        49,
        58,
        59
      ],
      "duration": 0.534
    },
    {
      "time": 115.217,
      "notes": [
        51,
        52,
        58,
        59
      ],
      "duration": 0.534
    },
    {
      "time": 115.751,
      "notes": [
        49,
        51,
        58,
        59
      ],
      "duration": 0.534
    },
    {
      "time": 116.286,
      "notes": [
        56,
        57,
        58,
        59
      ],
      "duration": 0.511
    },
    {
      "time": 116.796,
      "notes": [
        55,
        56,
        57,
        58
      ],
      "duration": 0.511
    },
    {
      "time": 117.307,
      "notes": [
        53,
        54,
        56,
        57
      ],
      "duration": 0.557
    },
    {
      "time": 117.864,
      "notes": [
        48,
        49,
        53,
        54
      ],
      "duration": 0.511
    },
    {
      "time": 118.375,
      "notes": [
        56,
        57,
        58,
        59
      ],
      "duration": 0.534
    },
    {
      "time": 118.909,
      "notes": [
        51,
        55,
        56,
        57
      ],
      "duration": 0.511
    },
    {
      "time": 119.42,
      "notes": [
        49,
        50,
        51,
        56
      ],
      "duration": 0.534
    },
    {
      "time": 119.954,
      "notes": [
        49,
        51,
        52,
        54
      ],
      "duration": 0.557
    },
    {
      "time": 120.512,
      "notes": [
        49,
        50,
        51,
        53
      ],
      "duration": 0.511
    },
    {
      "time": 121.022,
      "notes": [
        51,
        52,
        53,
        54
      ],
      "duration": 0.511
    },
    {
      "time": 121.533,
      "notes": [
        53,
        56,
        57,
        58
      ],
      "duration": 0.534
    },
    {
      "time": 122.067,
      "notes": [
        49,
        57,
        58,
        59
      ],
      "duration": 0.534
    },
    {
      "time": 122.601,
      "notes": [
        48,
        49,
        50,
        59
      ],
      "duration": 0.534
    },
    {
      "time": 123.135,
      "notes": [
        48,
        57,
        58,
        59
      ],
      "duration": 0.511
    },
    {
      "time": 123.646,
      "notes": [
        49,
        50,
        51,
        58
      ],
      "duration": 0.534
    },
    {
      "time": 124.18,
      "notes": [
        49,
        50,
        51,
        52
      ],
      "duration": 0.534
    },
    {
      "time": 124.714,
      "notes": [
        49,
        50,
        51,
        53
      ],
      "duration": 0.534
    },
    {
      "time": 125.248,
      "notes": [
        51,
        52,
        53,
        54
      ],
      "duration": 0.511
    },
    {
      "time": 125.759,
      "notes": [
        53,
        56,
        57,
        58
      ],
      "duration": 0.534
    },
    {
      "time": 126.293,
      "notes": [
        49,
        57,
        58,
        59
      ],
      "duration": 0.534
    },
    {
      "time": 126.827,
      "notes": [
        48,
        49,
        58,
        59
      ],
      "duration": 0.534
    },
    {
      "time": 127.361,
      "notes": [
        48,
        57,
        58,
        59
      ],
      "duration": 0.511
    },
    {
      "time": 127.872,
      "notes": [
        49,
        50,
        51,
        58
      ],
      "duration": 0.534
    },
    {
      "time": 128.406,
      "notes": [
        49,
        50,
        51,
        52
      ],
      "duration": 0.534
    },
    {
      "time": 128.94,
      "notes": [
        49,
        50,
        51,
        52
      ],
      "duration": 0.534
    },
    {
      "time": 129.474,
      "notes": [
        51,
        52,
        53,
        54
      ],
      "duration": 0.511
    },
    {
      "time": 129.985,
      "notes": [
        54,
        56,
        57,
        58
      ],
      "duration": 0.534
    },
    {
      "time": 130.519,
      "notes": [
        56,
        57,
        58,
        59
      ],
      "duration": 0.534
    },
    {
      "time": 131.053,
      "notes": [
        48,
        49,
        50,
        59
      ],
      "duration": 0.534
    },
    {
      "time": 131.587,
      "notes": [
        48,
        57,
        58,
        59
      ],
      "duration": 0.511
    },
    {
      "time": 132.098,
      "notes": [
        49,
        50,
        51,
        58
      ],
      "duration": 0.534
    },
    {
      "time": 132.632,
      "notes": [
        49,
        50,
        51,
        52
      ],
      "duration": 0.534
    },
    {
      "time": 133.166,
      "notes": [
        49,
        50,
        51,
        53
      ],
      "duration": 0.534
    },
    {
      "time": 133.7,
      "notes": [
        51,
        52,
        53,
        54
      ],
      "duration": 0.534
    },
    {
      "time": 134.235,
      "notes": [
        53,
        56,
        57,
        58
      ],
      "duration": 0.511
    },
    {
      "time": 134.745,
      "notes": [
        49,
        57,
        58,
        59
      ],
      "duration": 0.557
    },
    {
      "time": 135.303,
      "notes": [
        48,
        49,
        58,
        59
      ],
      "duration": 0.534
    },
    {
      "time": 135.837,
      "notes": [
        48,
        57,
        58,
        59
      ],
      "duration": 0.511
    },
    {
      "time": 136.348,
      "notes": [
        48,
        49,
        50,
        59
      ],
      "duration": 0.534
    },
    {
      "time": 136.882,
      "notes": [
        48,
        52,
        58,
        59
      ],
      "duration": 0.534
    },
    {
      "time": 137.416,
      "notes": [
        48,
        57,
        58,
        59
      ],
      "duration": 0.534
    },
    {
      "time": 137.95,
      "notes": [
        50,
        52,
        53,
        57
      ],
      "duration": 0.534
    },
    {
      "time": 138.484,
      "notes": [
        48,
        52,
        53,
        54
      ],
      "duration": 0.534
    },
    {
      "time": 139.018,
      "notes": [
        48,
        51,
        52,
        53
      ],
      "duration": 0.534
    },
    {
      "time": 139.552,
      "notes": [
        51,
        52,
        53,
        56
      ],
      "duration": 0.534
    },
    {
      "time": 140.086,
      "notes": [
        51,
        52,
        56,
        57
      ],
      "duration": 0.534
    },
    {
      "time": 140.62,
      "notes": [
        51,
        52,
        56,
        57
      ],
      "duration": 0.534
    },
    {
      "time": 141.154,
      "notes": [
        51,
        52,
        53,
        54
      ],
      "duration": 0.534
    },
    {
      "time": 141.688,
      "notes": [
        49,
        51,
        52,
        56
      ],
      "duration": 0.534
    },
    {
      "time": 142.222,
      "notes": [
        51,
        52,
        53,
        57
      ],
      "duration": 0.534
    },
    {
      "time": 142.756,
      "notes": [
        50,
        52,
        53,
        54
      ],
      "duration": 0.534
    },
    {
      "time": 143.29,
      "notes": [
        48,
        52,
        53,
        54
      ],
      "duration": 0.534
    },
    {
      "time": 143.824,
      "notes": [
        51,
        52,
        53,
        56
      ],
      "duration": 0.534
    },
    {
      "time": 144.358,
      "notes": [
        48,
        51,
        52,
        53
      ],
      "duration": 0.534
    },
    {
      "time": 144.893,
      "notes": [
        48,
        52,
        55,
        56
      ],
      "duration": 0.534
    },
    {
      "time": 145.427,
      "notes": [
        51,
        52,
        53,
        55
      ],
      "duration": 0.534
    },
    {
      "time": 145.961,
      "notes": [
        51,
        52,
        55,
        56
      ],
      "duration": 0.534
    },
    {
      "time": 146.495,
      "notes": [
        51,
        52,
        57,
        58
      ],
      "duration": 0.534
    },
    {
      "time": 147.029,
      "notes": [
        50,
        53,
        54,
        55
      ],
      "duration": 0.534
    },
    {
      "time": 147.563,
      "notes": [
        51,
        52,
        53,
        59
      ],
      "duration": 0.534
    },
    {
      "time": 148.097,
      "notes": [
        50,
        51,
        52,
        56
      ],
      "duration": 0.534
    },
    {
      "time": 148.631,
      "notes": [
        51,
        52,
        53,
        56
      ],
      "duration": 0.534
    },
    {
      "time": 149.165,
      "notes": [
        49,
        54,
        58,
        59
      ],
      "duration": 0.511
    },
    {
      "time": 149.676,
      "notes": [
        52,
        56,
        57,
        58
      ],
      "duration": 0.511
    },
    {
      "time": 150.187,
      "notes": [
        49,
        51,
        56,
        57
      ],
      "duration": 0.511
    },
    {
      "time": 150.698,
      "notes": [
        52,
        53,
        54,
        56
      ],
      "duration": 0.511
    },
    {
      "time": 151.208,
      "notes": [
        54,
        55,
        56,
        57
      ],
      "duration": 0.511
    },
    {
      "time": 151.719,
      "notes": [
        51,
        52,
        53,
        58
      ],
      "duration": 0.511
    },
    {
      "time": 152.23,
      "notes": [
        48,
        56,
        58,
        59
      ],
      "duration": 0.511
    },
    {
      "time": 152.741,
      "notes": [
        48,
        51,
        53,
        57
      ],
      "duration": 0.511
    },
    {
      "time": 153.252,
      "notes": [
        48,
        57,
        58,
        59
      ],
      "duration": 0.511
    },
    {
      "time": 153.763,
      "notes": [
        48,
        49,
        58,
        59
      ],
      "duration": 0.534
    },
    {
      "time": 154.297,
      "notes": [
        48,
        56,
        57,
        58
      ],
      "duration": 0.511
    },
    {
      "time": 154.807,
      "notes": [
        53,
        57,
        58,
        59
      ],
      "duration": 0.534
    },
    {
      "time": 155.341,
      "notes": [
        53,
        57,
        58,
        59
      ],
      "duration": 0.534
    },
    {
      "time": 155.876,
      "notes": [
        49,
        57,
        58,
        59
      ],
      "duration": 0.534
    },
    {
      "time": 156.41,
      "notes": [
        48,
        49,
        55,
        59
      ],
      "duration": 0.534
    },
    {
      "time": 156.944,
      "notes": [
        52,
        53,
        54,
        55
      ],
      "duration": 0.511
    },
    {
      "time": 157.455,
      "notes": [
        53,
        57,
        58,
        59
      ],
      "duration": 0.534
    },
    {
      "time": 157.989,
      "notes": [
        49,
        57,
        58,
        59
      ],
      "duration": 0.534
    },
    {
      "time": 158.523,
      "notes": [
        48,
        56,
        57,
        58
      ],
      "duration": 0.511
    },
    {
      "time": 159.033,
      "notes": [
        53,
        57,
        58,
        59
      ],
      "duration": 0.534
    },
    {
      "time": 159.568,
      "notes": [
        53,
        57,
        58,
        59
      ],
      "duration": 0.534
    },
    {
      "time": 160.102,
      "notes": [
        49,
        57,
        58,
        59
      ],
      "duration": 0.534
    },
    {
      "time": 160.636,
      "notes": [
        48,
        49,
        57,
        59
      ],
      "duration": 0.534
    },
    {
      "time": 161.17,
      "notes": [
        52,
        53,
        54,
        55
      ],
      "duration": 0.534
    },
    {
      "time": 161.704,
      "notes": [
        54,
        55,
        56,
        58
      ],
      "duration": 0.511
    },
    {
      "time": 162.215,
      "notes": [
        48,
        51,
        58,
        59
      ],
      "duration": 0.534
    },
    {
      "time": 162.749,
      "notes": [
        56,
        57,
        58,
        59
      ],
      "duration": 0.511
    },
    {
      "time": 163.26,
      "notes": [
        51,
        56,
        57,
        58
      ],
      "duration": 0.534
    },
    {
      "time": 163.794,
      "notes": [
        51,
        53,
        54,
        56
      ],
      "duration": 0.534
    },
    {
      "time": 164.328,
      "notes": [
        48,
        49,
        53,
        54
      ],
      "duration": 0.534
    },
    {
      "time": 164.862,
      "notes": [
        48,
        57,
        58,
        59
      ],
      "duration": 0.511
    },
    {
      "time": 165.373,
      "notes": [
        48,
        57,
        58,
        59
      ],
      "duration": 0.534
    },
    {
      "time": 165.907,
      "notes": [
        51,
        52,
        58,
        59
      ],
      "duration": 0.534
    },
    {
      "time": 166.441,
      "notes": [
        48,
        51,
        52,
        58
      ],
      "duration": 0.534
    },
    {
      "time": 166.975,
      "notes": [
        55,
        56,
        57,
        58
      ],
      "duration": 0.511
    },
    {
      "time": 167.486,
      "notes": [
        55,
        56,
        57,
        58
      ],
      "duration": 0.534
    },
    {
      "time": 168.02,
      "notes": [
        53,
        54,
        56,
        57
      ],
      "duration": 0.534
    },
    {
      "time": 168.554,
      "notes": [
        48,
        49,
        53,
        54
      ],
      "duration": 0.511
    },
    {
      "time": 169.064,
      "notes": [
        56,
        57,
        58,
        59
      ],
      "duration": 0.534
    },
    {
      "time": 169.599,
      "notes": [
        51,
        55,
        56,
        57
      ],
      "duration": 0.534
    },
    {
      "time": 170.133,
      "notes": [
        49,
        50,
        51,
        58
      ],
      "duration": 0.534
    },
    {
      "time": 170.667,
      "notes": [
        48,
        51,
        58,
        59
      ],
      "duration": 0.534
    },
    {
      "time": 171.201,
      "notes": [
        55,
        56,
        57,
        58
      ],
      "duration": 0.511
    },
    {
      "time": 171.712,
      "notes": [
        51,
        55,
        56,
        57
      ],
      "duration": 0.534
    },
    {
      "time": 172.246,
      "notes": [
        51,
        53,
        54,
        56
      ],
      "duration": 0.534
    },
    {
      "time": 172.78,
      "notes": [
        48,
        49,
        53,
        54
      ],
      "duration": 0.534
    },
    {
      "time": 173.314,
      "notes": [
        48,
        57,
        58,
        59
      ],
      "duration": 0.511
    },
    {
      "time": 173.825,
      "notes": [
        48,
        57,
        58,
        59
      ],
      "duration": 0.511
    },
    {
      "time": 174.335,
      "notes": [
        51,
        52,
        58,
        59
      ],
      "duration": 0.534
    },
    {
      "time": 174.869,
      "notes": [
        51,
        52,
        58,
        59
      ],
      "duration": 0.534
    },
    {
      "time": 175.404,
      "notes": [
        55,
        56,
        57,
        58
      ],
      "duration": 0.534
    },
    {
      "time": 175.938,
      "notes": [
        55,
        56,
        57,
        58
      ],
      "duration": 0.534
    },
    {
      "time": 176.472,
      "notes": [
        53,
        54,
        56,
        57
      ],
      "duration": 0.534
    },
    {
      "time": 177.006,
      "notes": [
        48,
        49,
        53,
        54
      ],
      "duration": 0.534
    },
    {
      "time": 177.54,
      "notes": [
        56,
        57,
        58,
        59
      ],
      "duration": 0.511
    },
    {
      "time": 178.051,
      "notes": [
        55,
        56,
        57,
        58
      ],
      "duration": 0.511
    },
    {
      "time": 178.561,
      "notes": [
        49,
        50,
        51,
        58
      ],
      "duration": 0.534
    },
    {
      "time": 179.096,
      "notes": [
        48,
        51,
        52,
        58
      ],
      "duration": 0.534
    },
    {
      "time": 179.63,
      "notes": [
        56,
        57,
        58,
        59
      ],
      "duration": 0.534
    },
    {
      "time": 180.164,
      "notes": [
        51,
        56,
        57,
        58
      ],
      "duration": 0.534
    },
    {
      "time": 180.698,
      "notes": [
        51,
        53,
        56,
        57
      ],
      "duration": 0.511
    },
    {
      "time": 181.209,
      "notes": [
        48,
        49,
        53,
        54
      ],
      "duration": 0.534
    },
    {
      "time": 181.743,
      "notes": [
        48,
        57,
        58,
        59
      ],
      "duration": 0.534
    },
    {
      "time": 182.277,
      "notes": [
        48,
        49,
        58,
        59
      ],
      "duration": 0.511
    },
    {
      "time": 182.787,
      "notes": [
        51,
        52,
        58,
        59
      ],
      "duration": 0.534
    },
    {
      "time": 183.322,
      "notes": [
        48,
        51,
        52,
        58
      ],
      "duration": 0.534
    },
    {
      "time": 183.856,
      "notes": [
        55,
        56,
        57,
        58
      ],
      "duration": 0.511
    },
    {
      "time": 184.366,
      "notes": [
        55,
        56,
        57,
        58
      ],
      "duration": 0.534
    },
    {
      "time": 184.9,
      "notes": [
        53,
        54,
        56,
        57
      ],
      "duration": 0.534
    },
    {
      "time": 185.435,
      "notes": [
        48,
        49,
        53,
        54
      ],
      "duration": 0.534
    },
    {
      "time": 185.969,
      "notes": [
        56,
        57,
        58,
        59
      ],
      "duration": 0.534
    },
    {
      "time": 186.503,
      "notes": [
        51,
        55,
        56,
        57
      ],
      "duration": 0.511
    },
    {
      "time": 187.014,
      "notes": [
        49,
        50,
        51,
        52
      ],
      "duration": 0.534
    },
    {
      "time": 187.548,
      "notes": [
        48,
        51,
        52,
        58
      ],
      "duration": 0.534
    },
    {
      "time": 188.082,
      "notes": [
        55,
        56,
        57,
        58
      ],
      "duration": 0.511
    },
    {
      "time": 188.592,
      "notes": [
        51,
        55,
        56,
        57
      ],
      "duration": 0.534
    },
    {
      "time": 189.127,
      "notes": [
        51,
        53,
        54,
        56
      ],
      "duration": 0.534
    },
    {
      "time": 189.661,
      "notes": [
        48,
        49,
        53,
        54
      ],
      "duration": 0.534
    },
    {
      "time": 190.195,
      "notes": [
        48,
        57,
        58,
        59
      ],
      "duration": 0.534
    },
    {
      "time": 190.729,
      "notes": [
        48,
        49,
        58,
        59
      ],
      "duration": 0.534
    },
    {
      "time": 191.263,
      "notes": [
        51,
        52,
        58,
        59
      ],
      "duration": 0.511
    },
    {
      "time": 191.774,
      "notes": [
        48,
        51,
        58,
        59
      ],
      "duration": 0.534
    },
    {
      "time": 192.308,
      "notes": [
        55,
        56,
        57,
        58
      ],
      "duration": 0.511
    },
    {
      "time": 192.819,
      "notes": [
        55,
        56,
        57,
        58
      ],
      "duration": 0.534
    },
    {
      "time": 193.353,
      "notes": [
        53,
        54,
        56,
        57
      ],
      "duration": 0.534
    },
    {
      "time": 193.887,
      "notes": [
        48,
        49,
        53,
        54
      ],
      "duration": 0.534
    },
    {
      "time": 194.421,
      "notes": [
        56,
        57,
        58,
        59
      ],
      "duration": 0.534
    },
    {
      "time": 194.955,
      "notes": [
        55,
        56,
        57,
        58
      ],
      "duration": 0.511
    },
    {
      "time": 195.466,
      "notes": [
        49,
        50,
        51,
        58
      ],
      "duration": 0.534
    },
    {
      "time": 196.0,
      "notes": [
        48,
        51,
        58,
        59
      ],
      "duration": 0.534
    },
    {
      "time": 196.534,
      "notes": [
        55,
        56,
        57,
        58
      ],
      "duration": 0.511
    },
    {
      "time": 197.045,
      "notes": [
        51,
        56,
        57,
        58
      ],
      "duration": 0.557
    },
    {
      "time": 197.602,
      "notes": [
        51,
        53,
        56,
        57
      ],
      "duration": 0.511
    },
    {
      "time": 198.113,
      "notes": [
        48,
        49,
        53,
        54
      ],
      "duration": 0.557
    },
    {
      "time": 198.67,
      "notes": [
        48,
        57,
        58,
        59
      ],
      "duration": 0.511
    },
    {
      "time": 199.181,
      "notes": [
        48,
        49,
        58,
        59
      ],
      "duration": 0.534
    },
    {
      "time": 199.715,
      "notes": [
        51,
        52,
        58,
        59
      ],
      "duration": 0.534
    },
    {
      "time": 200.249,
      "notes": [
        48,
        51,
        58,
        59
      ],
      "duration": 0.534
    },
    {
      "time": 200.783,
      "notes": [
        55,
        56,
        57,
        58
      ],
      "duration": 0.511
    },
    {
      "time": 201.294,
      "notes": [
        55,
        56,
        57,
        58
      ],
      "duration": 0.511
    }
  ]
}