{
  "title": "Navidad Negra",
  "artist": "Jose Barros",
  "bpm": 120,
  "duration": 26.25,
  "audioFile": "",
  "notes": [
    {
      "time": 0.0,
      "note": 74,
      "duration": 0.25,
      "velocity": 100
    },
    {
      "time": 0.25,
      "note": 77,
      "duration": 0.25,
      "velocity": 100
    },
    {
      "time": 0.5,
      "note": 81,
      "duration": 0.125,
      "velocity": 100
    },
    {
      "time": 0.625,
      "note": 81,
      "duration": 0.25,
      "velocity": 100
    },
    {
      "time": 0.875,
      "note": 81,
      "duration": 0.125,
      "velocity": 100
    },
    {
      "time": 1.0,
      "note": 79,
      "duration": 0.25,
      "velocity": 100
    },
    {
      "time": 1.25,
      "note": 82,
      "duration": 0.25,
      "velocity": 100
    },
    {
      "time": 1.5,
      "note": 81,
      "duration": 0.5,
      "velocity": 100
    },
    {
      "time": 2.0,
      "note": 74,
      "duration": 0.25,
      "velocity": 100
    },
    {
      "time": 2.25,
      "note": 77,
      "duration": 0.25,
      "velocity": 100
    },
    {
      "time": 2.5,
      "note": 81,
      "duration": 0.125,
      "velocity": 100
    },
    {
      "time": 2.625,
      "note": 81,
      "duration": 0.25,
      "velocity": 100
    },
    {
      "time": 2.875,
      "note": 81,
      "duration": 0.125,
      "velocity": 100
    },
    {
      "time": 3.0,
      "note": 79,
      "duration": 0.25,
      "velocity": 100
    },
    {
      "time": 3.25,
      "note": 77,
      "duration": 0.25,
      "velocity": 100
    },
    {
      "time": 3.5,
      "note": 74,
      "duration": 0.5,
      "velocity": 100
    },
    {
      "time": 4.0,
      "note": 74,
      "duration": 0.25,
      "velocity": 100
    },
    {
      "time": 4.25,
      "note": 77,
      "duration": 0.25,
      "velocity": 100
    },
    {
      "time": 4.5,
      "note": 74,
      "duration": 0.5,
      "velocity": 100
    },
    {
      "time": 5.0,
      "note": 86,
      "duration": 0.5,
      "velocity": 100
    },
    {
      "time": 5.0,
      "note": 86,
      "duration": 0.125,
      "velocity": 100
    },
    {
      "time": 5.125,
      "note": 88,
      "duration": 0.125,
      "velocity": 100
    },
    {
      "time": 5.25,
      "note": 88,
      "duration": 0.125,
      "velocity": 100
    },
    {
      "time": 5.375,
      "note": 79,
      "duration": 0.5,
      "velocity": 100
    },
    {
      "time": 5.875,
      "note": 89,
      "duration": 0.5,
      "velocity": 100
    },
    {
      "time": 5.875,
      "note": 74,
      "duration": 0.25,
      "velocity": 100
    },
    {
      "time": 6.125,
      "note": 74,
      "duration": 0.125,
      "velocity": 100
    },
    {
      "time": 6.25,
      "note": 77,
      "duration": 0.25,
      "velocity": 100
    },
    {
      "time": 6.5,
      "note": 81,
      "duration": 0.125,
      "velocity": 100
    },
    {
      "time": 6.625,
      "note": 86,
      "duration": 0.125,
      "velocity": 100
    },
    {
      "time": 6.75,
      "note": 86,
      "duration": 0.125,
      "velocity": 100
    },
    {
      "time": 6.875,
      "note": 86,
      "duration": 0.25,
      "velocity": 100
    },
    {
      "time": 7.125,
      "note": 86,
      "duration": 0.5,
      "velocity": 100
    },
    {
      "time": 7.25,
      "note": 74,
      "duration": 0.125,
      "velocity": 100
    },
    {
      "time": 7.375,
      "note": 74,
      "duration": 0.125,
      "velocity": 100
    },
    {
      "time": 7.5,
      "note": 84,
      "duration": 0.25,
      "velocity": 100
    },
    {
      "time": 7.75,
      "note": 88,
      "duration": 0.125,
      "velocity": 100
    },
    {
      "time": 7.875,
      "note": 86,
      "duration": 0.25,
      "velocity": 100
    },
    {
      "time": 8.125,
      "note": 84,
      "duration": 0.25,
      "velocity": 100
    },
    {
      "time": 8.375,
      "note": 82,
      "duration": 0.5,
      "velocity": 100
    },
    {
      "time": 8.875,
      "note": 81,
      "duration": 0.5,
      "velocity": 100
    },
    {
      "time": 9.125,
      "note": 69,
      "duration": 0.125,
      "velocity": 100
    },
    {
      "time": 9.25,
      "note": 69,
      "duration": 0.125,
      "velocity": 100
    },
    {
      "time": 9.375,
      "note": 81,
      "duration": 0.25,
      "velocity": 100
    },
    {
      "time": 9.625,
      "note": 79,
      "duration": 0.125,
      "velocity": 100
    },
    {
      "time": 9.75,
      "note": 79,
      "duration": 0.125,
      "velocity": 100
    },
    {
      "time": 9.875,
      "note": 81,
      "duration": 0.25,
      "velocity": 100
    },
    {
      "time": 10.125,
      "note": 82,
      "duration": 0.25,
      "velocity": 100
    },
    {
      "time": 10.375,
      "note": 84,
      "duration": 0.5,
      "velocity": 100
    },
    {
      "time": 10.875,
      "note": 81,
      "duration": 0.5,
      "velocity": 100
    },
    {
      "time": 11.375,
      "note": 81,
      "duration": 0.25,
      "velocity": 100
    },
    {
      "time": 11.625,
      "note": 76,
      "duration": 0.125,
      "velocity": 100
    },
    {
      "time": 11.75,
      "note": 77,
      "duration": 0.125,
      "velocity": 100
    },
    {
      "time": 11.875,
      "note": 79,
      "duration": 0.25,
      "velocity": 100
    },
    {
      "time": 12.125,
      "note": 81,
      "duration": 0.25,
      "velocity": 100
    },
    {
      "time": 12.375,
      "note": 77,
      "duration": 0.5,
      "velocity": 100
    },
    {
      "time": 12.875,
      "note": 74,
      "duration": 0.25,
      "velocity": 100
    },
    {
      "time": 13.125,
      "note": 72,
      "duration": 0.125,
      "velocity": 100
    },
    {
      "time": 13.25,
      "note": 74,
      "duration": 0.125,
      "velocity": 100
    },
    {
      "time": 13.375,
      "note": 74,
      "duration": 0.5,
      "velocity": 100
    },
    {
      "time": 14.25,
      "note": 81,
      "duration": 0.125,
      "velocity": 100
    },
    {
      "time": 14.625,
      "note": 81,
      "duration": 0.125,
      "velocity": 100
    },
    {
      "time": 14.75,
      "note": 81,
      "duration": 0.25,
      "velocity": 100
    },
    {
      "time": 15.0,
      "note": 81,
      "duration": 0.125,
      "velocity": 100
    },
    {
      "time": 15.125,
      "note": 84,
      "duration": 0.25,
      "velocity": 100
    },
    {
      "time": 15.375,
      "note": 86,
      "duration": 0.125,
      "velocity": 100
    },
    {
      "time": 15.5,
      "note": 88,
      "duration": 0.125,
      "velocity": 100
    },
    {
      "time": 15.625,
      "note": 88,
      "duration": 0.125,
      "velocity": 100
    },
    {
      "time": 15.75,
      "note": 88,
      "duration": 0.375,
      "velocity": 100
    },
    {
      "time": 16.5,
      "note": 77,
      "duration": 0.5,
      "velocity": 100
    },
    {
      "time": 17.0,
      "note": 81,
      "duration": 0.5,
      "velocity": 100
    },
    {
      "time": 17.0,
      "note": 88,
      "duration": 0.5,
      "velocity": 100
    },
    {
      "time": 17.0,
      "note": 89,
      "duration": 0.125,
      "velocity": 100
    },
    {
      "time": 17.125,
      "note": 89,
      "duration": 0.25,
      "velocity": 100
    },
    {
      "time": 17.375,
      "note": 88,
      "duration": 0.125,
      "velocity": 100
    },
    {
      "time": 17.5,
      "note": 89,
      "duration": 0.25,
      "velocity": 100
    },
    {
      "time": 17.75,
      "note": 88,
      "duration": 0.125,
      "velocity": 100
    },
    {
      "time": 17.875,
      "note": 89,
      "duration": 0.125,
      "velocity": 100
    },
    {
      "time": 18.0,
      "note": 89,
      "duration": 0.125,
      "velocity": 100
    },
    {
      "time": 18.125,
      "note": 86,
      "duration": 0.375,
      "velocity": 100
    },
    {
      "time": 18.75,
      "note": 76,
      "duration": 0.5,
      "velocity": 100
    },
    {
      "time": 19.25,
      "note": 86,
      "duration": 0.5,
      "velocity": 100
    },
    {
      "time": 19.25,
      "note": 89,
      "duration": 0.125,
      "velocity": 100
    },
    {
      "time": 19.375,
      "note": 86,
      "duration": 0.25,
      "velocity": 100
    },
    {
      "time": 19.625,
      "note": 86,
      "duration": 0.125,
      "velocity": 100
    },
    {
      "time": 19.75,
      "note": 84,
      "duration": 0.25,
      "velocity": 100
    },
    {
      "time": 20.0,
      "note": 84,
      "duration": 0.125,
      "velocity": 100
    },
    {
      "time": 20.125,
      "note": 82,
      "duration": 0.125,
      "velocity": 100
    },
    {
      "time": 20.25,
      "note": 82,
      "duration": 0.25,
      "velocity": 100
    },
    {
      "time": 20.5,
      "note": 81,
      "duration": 0.5,
      "velocity": 100
    },
    {
      "time": 20.25,
      "note": 84,
      "duration": 0.125,
      "velocity": 100
    },
    {
      "time": 20.375,
      "note": 86,
      "duration": 0.25,
      "velocity": 100
    },
    {
      "time": 20.625,
      "note": 84,
      "duration": 0.125,
      "velocity": 100
    },
    {
      "time": 20.75,
      "note": 81,
      "duration": 0.25,
      "velocity": 100
    },
    {
      "time": 21.0,
      "note": 79,
      "duration": 0.125,
      "velocity": 100
    },
    {
      "time": 21.125,
      "note": 81,
      "duration": 0.125,
      "velocity": 100
    },
    {
      "time": 21.25,
      "note": 81,
      "duration": 0.125,
      "velocity": 100
    },
    {
      "time": 21.375,
      "note": 77,
      "duration": 0.25,
      "velocity": 100
    },
    {
      "time": 21.625,
      "note": 77,
      "duration": 0.125,
      "velocity": 100
    },
    {
      "time": 21.75,
      "note": 77,
      "duration": 0.25,
      "velocity": 100
    },
    {
      "time": 22.0,
      "note": 81,
      "duration": 0.25,
      "velocity": 100
    },
    {
      "time": 22.25,
      "note": 84,
      "duration": 0.5,
      "velocity": 100
    },
    {
      "time": 22.75,
      "note": 86,
      "duration": 0.25,
      "velocity": 100
    },
    {
      "time": 23.0,
      "note": 86,
      "duration": 0.125,
      "velocity": 100
    },
    {
      "time": 23.125,
      "note": 86,
      "duration": 0.125,
      "velocity": 100
    },
    {
      "time": 23.25,
      "note": 86,
      "duration": 0.125,
      "velocity": 100
    },
    {
      "time": 23.375,
      "note": 81,
      "duration": 0.125,
      "velocity": 100
    },
    {
      "time": 23.5,
      "note": 81,
      "duration": 0.25,
      "velocity": 100
    },
    {
      "time": 23.75,
      "note": 76,
      "duration": 0.25,
      "velocity": 100
    },
    {
      "time": 24.0,
      "note": 77,
      "duration": 0.25,
      "velocity": 100
    },
    {
      "time": 24.25,
      "note": 79,
      "duration": 0.5,
      "velocity": 100
    },
    {
      "time": 24.75,
      "note": 81,
      "duration": 0.25,
      "velocity": 100
    },
    {
      "time": 25.0,
      "note": 79,
      "duration": 0.125,
      "velocity": 100
    },
    {
      "time": 25.125,
      "note": 81,
      "duration": 0.125,
      "velocity": 100
    },
    {
      "time": 25.25,
      "note": 81,
      "duration": 0.125,
      "velocity": 100
    },
    {
      "time": 25.375,
      "note": 77,
      "duration": 0.375,
      "velocity": 100
    },
    {
      "time": 25.75,
      "note": 77,
      "duration": 0.25,
      "velocity": 100
    },
    {
      "time": 26.0,
      "note": 81,
      "duration": 0.25,
      "velocity": 100
    }
  ],
  "chords": [
    {
      "time": 0.0,
      "notes": [
        62,
        65,
        69
      ],
      "duration": 1.25
    },
    {
      "time": 1.25,
      "notes": [
        62,
        65,
        69
      ],
      "duration": 1.25
    },
    {
      "time": 2.5,
      "notes": [
        70,
        74,
        77
      ],
      "duration": 1.25
    },
    {
      "time": 3.75,
      "notes": [
        60,
        64,
        67
      ],
      "duration": 1.25
    },
    {
      "time": 5.0,
      "notes": [
        65,
        69,
        72
      ],
      "duration": 1.25
    },
    {
      "time": 6.25,
      "notes": [
        62,
        65,
        69
      ],
      "duration": 1.25
    },
    {
      "time": 7.5,
      "notes": [
        67,
        70,
        74
      ],
      "duration": 1.25
    },
    {
      "time": 8.75,
      "notes": [
        69,
        73,
        76,
        79
      ],
      "duration": 1.25
    },
    {
      "time": 10.0,
      "notes": [
        62,
        65,
        69
      ],
      "duration": 1.25
    },
    {
      "time": 11.25,
      "notes": [
        69,
        73,
        76,
        79
      ],
      "duration": 1.25
    },
    {
      "time": 12.5,
      "notes": [
        62,
        65,
        69
      ],
      "duration": 1.25
    },
    {
      "time": 13.75,
      "notes": [
        70,
        74,
        77
      ],
      "duration": 1.25
    },
    {
      "time": 15.0,
      "notes": [
        60,
        64,
        67
      ],
      "duration": 1.25
    },
    {
      "time": 16.25,
      "notes": [
        65,
        69,
        72
      ],
      "duration": 1.25
    },
    {
      "time": 17.5,
      "notes": [
        69,
        73,
        76,
        79
      ],
      "duration": 1.25
    },
    {
      "time": 18.75,
      "notes": [
        62,
        65,
        69
      ],
      "duration": 1.25
    },
    {
      "time": 20.0,
      "notes": [
        70,
        74,
        77
      ],
      "duration": 1.25
    },
    {
      "time": 21.25,
      "notes": [
        60,
        64,
        67
      ],
      "duration": 1.25
    },
    {
      "time": 22.5,
      "notes": [
        65,
        69,
        72
      ],
      "duration": 1.25
    },
    {
      "time": 23.75,
      "notes": [
        69,
        73,
        76,
        79
      ],
      "duration": 1.25
    },
    {
      "time": 25.0,
      "notes": [
        62,
        65,
        69
      ],
      "duration": 1.25
    }
  ]
}