{
  "title": "Negra, ron y velas",
  "artist": "Morgan Blanco",
  "bpm": 120,
  "duration": 49.875,
  "audioFile": "",
  "notes": [
    {
      "time": 0.125,
      "note": 79,
      "duration": 0.125,
      "velocity": 100
    },
    {
      "time": 0.25,
      "note": 82,
      "duration": 0.125,
      "velocity": 100
    },
    {
      "time": 0.25,
      "note": 82,
      "duration": 0.25,
      "velocity": 100
    },
    {
      "time": 0.5,
      "note": 86,
      "duration": 0.25,
      "velocity": 100
    },
    {
      "time": 0.5,
      "note": 82,
      "duration": 0.25,
      "velocity": 100
    },
    {
      "time": 0.75,
      "note": 86,
      "duration": 0.25,
      "velocity": 100
    },
    {
      "time": 0.75,
      "note": 84,
      "duration": 0.25,
      "velocity": 100
    },
    {
      "time": 1.0,
      "note": 87,
      "duration": 0.25,
      "velocity": 100
    },
    {
      "time": 1.0,
      "note": 79,
      "duration": 0.25,
      "velocity": 100
    },
    {
      "time": 1.25,
      "note": 84,
      "duration": 0.25,
      "velocity": 100
    },
    {
      "time": 1.25,
      "note": 75,
      "duration": 0.25,
      "velocity": 100
    },
    {
      "time": 1.5,
      "note": 79,
      "duration": 0.25,
      "velocity": 100
    },
    {
      "time": 1.5,
      "note": 79,
      "duration": 0.125,
      "velocity": 100
    },
    {
      "time": 1.625,
      "note": 84,
      "duration": 0.125,
      "velocity": 100
    },
    {
      "time": 1.625,
      "note": 84,
      "duration": 0.125,
      "velocity": 100
    },
    {
      "time": 1.75,
      "note": 87,
      "duration": 0.125,
      "velocity": 100
    },
    {
      "time": 1.75,
      "note": 84,
      "duration": 0.125,
      "velocity": 100
    },
    {
      "time": 1.875,
      "note": 87,
      "duration": 0.125,
      "velocity": 100
    },
    {
      "time": 1.875,
      "note": 84,
      "duration": 0.25,
      "velocity": 100
    },
    {
      "time": 2.125,
      "note": 87,
      "duration": 0.25,
      "velocity": 100
    },
    {
      "time": 2.125,
      "note": 79,
      "duration": 0.125,
      "velocity": 100
    },
    {
      "time": 2.25,
      "note": 84,
      "duration": 0.125,
      "velocity": 100
    },
    {
      "time": 2.25,
      "note": 75,
      "duration": 0.25,
      "velocity": 100
    },
    {
      "time": 2.5,
      "note": 79,
      "duration": 0.25,
      "velocity": 100
    },
    {
      "time": 2.5,
      "note": 79,
      "duration": 0.25,
      "velocity": 100
    },
    {
      "time": 2.75,
      "note": 84,
      "duration": 0.25,
      "velocity": 100
    },
    {
      "time": 2.75,
      "note": 75,
      "duration": 0.25,
      "velocity": 100
    },
    {
      "time": 3.0,
      "note": 79,
      "duration": 0.25,
      "velocity": 100
    },
    {
      "time": 3.0,
      "note": 79,
      "duration": 0.25,
      "velocity": 100
    },
    {
      "time": 3.25,
      "note": 84,
      "duration": 0.25,
      "velocity": 100
    },
    {
      "time": 3.25,
      "note": 75,
      "duration": 0.25,
      "velocity": 100
    },
    {
      "time": 3.5,
      "note": 79,
      "duration": 0.25,
      "velocity": 100
    },
    {
      "time": 3.5,
      "note": 79,
      "duration": 0.25,
      "velocity": 100
    },
    {
      "time": 3.75,
      "note": 84,
      "duration": 0.25,
      "velocity": 100
    },
    {
      "time": 3.75,
      "note": 75,
      "duration": 0.75,
      "velocity": 100
    },
    {
      "time": 4.5,
      "note": 84,
      "duration": 0.75,
      "velocity": 100
    },
    {
      "time": 4.5,
      "note": 87,
      "duration": 0.75,
      "velocity": 100
    },
    {
      "time": 4.5,
      "note": 77,
      "duration": 0.125,
      "velocity": 100
    },
    {
      "time": 4.625,
      "note": 82,
      "duration": 0.125,
      "velocity": 100
    },
    {
      "time": 4.625,
      "note": 77,
      "duration": 0.25,
      "velocity": 100
    },
    {
      "time": 4.875,
      "note": 82,
      "duration": 0.25,
      "velocity": 100
    },
    {
      "time": 4.875,
      "note": 77,
      "duration": 0.25,
      "velocity": 100
    },
    {
      "time": 5.125,
      "note": 82,
      "duration": 0.25,
      "velocity": 100
    },
    {
      "time": 5.125,
      "note": 82,
      "duration": 0.25,
      "velocity": 100
    },
    {
      "time": 5.375,
      "note": 86,
      "duration": 0.25,
      "velocity": 100
    },
    {
      "time": 5.375,
      "note": 77,
      "duration": 0.25,
      "velocity": 100
    },
    {
      "time": 5.625,
      "note": 82,
      "duration": 0.25,
      "velocity": 100
    },
    {
      "time": 5.625,
      "note": 74,
      "duration": 0.25,
      "velocity": 100
    },
    {
      "time": 5.875,
      "note": 77,
      "duration": 0.25,
      "velocity": 100
    },
    {
      "time": 5.875,
      "note": 77,
      "duration": 0.125,
      "velocity": 100
    },
    {
      "time": 6.0,
      "note": 82,
      "duration": 0.125,
      "velocity": 100
    },
    {
      "time": 6.0,
      "note": 82,
      "duration": 0.125,
      "velocity": 100
    },
    {
      "time": 6.125,
      "note": 86,
      "duration": 0.125,
      "velocity": 100
    },
    {
      "time": 6.125,
      "note": 82,
      "duration": 0.125,
      "velocity": 100
    },
    {
      "time": 6.25,
      "note": 86,
      "duration": 0.125,
      "velocity": 100
    },
    {
      "time": 6.25,
      "note": 82,
      "duration": 0.25,
      "velocity": 100
    },
    {
      "time": 6.5,
      "note": 86,
      "duration": 0.25,
      "velocity": 100
    },
    {
      "time": 6.5,
      "note": 77,
      "duration": 0.125,
      "velocity": 100
    },
    {
      "time": 6.625,
      "note": 82,
      "duration": 0.125,
      "velocity": 100
    },
    {
      "time": 6.625,
      "note": 74,
      "duration": 0.25,
      "velocity": 100
    },
    {
      "time": 6.875,
      "note": 77,
      "duration": 0.25,
      "velocity": 100
    },
    {
      "time": 6.875,
      "note": 77,
      "duration": 0.25,
      "velocity": 100
    },
    {
      "time": 7.125,
      "note": 82,
      "duration": 0.25,
      "velocity": 100
    },
    {
      "time": 7.125,
      "note": 74,
      "duration": 0.25,
      "velocity": 100
    },
    {
      "time": 7.375,
      "note": 77,
      "duration": 0.25,
      "velocity": 100
    },
    {
      "time": 7.375,
      "note": 77,
      "duration": 0.25,
      "velocity": 100
    },
    {
      "time": 7.625,
      "note": 82,
      "duration": 0.25,
      "velocity": 100
    },
    {
      "time": 7.625,
      "note": 74,
      "duration": 0.25,
      "velocity": 100
    },
    {
      "time": 7.875,
      "note": 77,
      "duration": 0.25,
      "velocity": 100
    },
    {
      "time": 7.875,
      "note": 77,
      "duration": 0.25,
      "velocity": 100
    },
    {
      "time": 8.125,
      "note": 82,
      "duration": 0.25,
      "velocity": 100
    },
    {
      "time": 8.125,
      "note": 74,
      "duration": 0.75,
      "velocity": 100
    },
    {
      "time": 8.875,
      "note": 82,
      "duration": 0.75,
      "velocity": 100
    },
    {
      "time": 8.875,
      "note": 86,
      "duration": 0.75,
      "velocity": 100
    },
    {
      "time": 8.875,
      "note": 79,
      "duration": 0.125,
      "velocity": 100
    },
    {
      "time": 9.0,
      "note": 82,
      "duration": 0.125,
      "velocity": 100
    },
    {
      "time": 9.0,
      "note": 82,
      "duration": 0.25,
      "velocity": 100
    },
    {
      "time": 9.25,
      "note": 86,
      "duration": 0.25,
      "velocity": 100
    },
    {
      "time": 9.25,
      "note": 82,
      "duration": 0.25,
      "velocity": 100
    },
    {
      "time": 9.5,
      "note": 86,
      "duration": 0.25,
      "velocity": 100
    },
    {
      "time": 9.5,
      "note": 74,
      "duration": 0.25,
      "velocity": 100
    },
    {
      "time": 9.75,
      "note": 77,
      "duration": 0.25,
      "velocity": 100
    },
    {
      "time": 9.75,
      "note": 77,
      "duration": 0.25,
      "velocity": 100
    },
    {
      "time": 10.0,
      "note": 82,
      "duration": 0.25,
      "velocity": 100
    },
    {
      "time": 10.0,
      "note": 74,
      "duration": 0.25,
      "velocity": 100
    },
    {
      "time": 10.25,
      "note": 77,
      "duration": 0.25,
      "velocity": 100
    },
    {
      "time": 10.25,
      "note": 77,
      "duration": 0.25,
      "velocity": 100
    },
    {
      "time": 10.5,
      "note": 82,
      "duration": 0.25,
      "velocity": 100
    },
    {
      "time": 10.5,
      "note": 74,
      "duration": 0.75,
      "velocity": 100
    },
    {
      "time": 11.25,
      "note": 82,
      "duration": 0.75,
      "velocity": 100
    },
    {
      "time": 11.25,
      "note": 86,
      "duration": 0.75,
      "velocity": 100
    },
    {
      "time": 11.25,
      "note": 79,
      "duration": 0.125,
      "velocity": 100
    },
    {
      "time": 11.375,
      "note": 82,
      "duration": 0.125,
      "velocity": 100
    },
    {
      "time": 11.375,
      "note": 87,
      "duration": 0.25,
      "velocity": 100
    },
    {
      "time": 11.625,
      "note": 86,
      "duration": 0.25,
      "velocity": 100
    },
    {
      "time": 11.875,
      "note": 84,
      "duration": 0.5,
      "velocity": 100
    },
    {
      "time": 12.625,
      "note": 79,
      "duration": 0.25,
      "velocity": 100
    },
    {
      "time": 12.875,
      "note": 75,
      "duration": 0.25,
      "velocity": 100
    },
    {
      "time": 13.125,
      "note": 79,
      "duration": 0.25,
      "velocity": 100
    },
    {
      "time": 13.375,
      "note": 75,
      "duration": 0.25,
      "velocity": 100
    },
    {
      "time": 13.625,
      "note": 79,
      "duration": 0.25,
      "velocity": 100
    },
    {
      "time": 13.875,
      "note": 75,
      "duration": 0.25,
      "velocity": 100
    },
    {
      "time": 14.125,
      "note": 79,
      "duration": 0.25,
      "velocity": 100
    },
    {
      "time": 14.375,
      "note": 75,
      "duration": 0.25,
      "velocity": 100
    },
    {
      "time": 14.625,
      "note": 74,
      "duration": 0.125,
      "velocity": 100
    },
    {
      "time": 14.75,
      "note": 72,
      "duration": 0.125,
      "velocity": 100
    },
    {
      "time": 14.875,
      "note": 72,
      "duration": 0.375,
      "velocity": 100
    },
    {
      "time": 15.25,
      "note": 77,
      "duration": 0.5,
      "velocity": 100
    },
    {
      "time": 15.75,
      "note": 86,
      "duration": 0.25,
      "velocity": 100
    },
    {
      "time": 16.0,
      "note": 84,
      "duration": 0.25,
      "velocity": 100
    },
    {
      "time": 16.25,
      "note": 82,
      "duration": 0.5,
      "velocity": 100
    },
    {
      "time": 17.0,
      "note": 77,
      "duration": 0.25,
      "velocity": 100
    },
    {
      "time": 17.25,
      "note": 74,
      "duration": 0.25,
      "velocity": 100
    },
    {
      "time": 17.5,
      "note": 77,
      "duration": 0.25,
      "velocity": 100
    },
    {
      "time": 17.75,
      "note": 74,
      "duration": 0.25,
      "velocity": 100
    },
    {
      "time": 18.0,
      "note": 77,
      "duration": 0.25,
      "velocity": 100
    },
    {
      "time": 18.25,
      "note": 74,
      "duration": 0.25,
      "velocity": 100
    },
    {
      "time": 18.5,
      "note": 77,
      "duration": 0.25,
      "velocity": 100
    },
    {
      "time": 18.75,
      "note": 74,
      "duration": 0.25,
      "velocity": 100
    },
    {
      "time": 19.0,
      "note": 72,
      "duration": 0.125,
      "velocity": 100
    },
    {
      "time": 19.125,
      "note": 70,
      "duration": 0.125,
      "velocity": 100
    },
    {
      "time": 19.25,
      "note": 70,
      "duration": 0.375,
      "velocity": 100
    },
    {
      "time": 19.625,
      "note": 79,
      "duration": 0.125,
      "velocity": 100
    },
    {
      "time": 19.75,
      "note": 87,
      "duration": 0.25,
      "velocity": 100
    },
    {
      "time": 20.0,
      "note": 86,
      "duration": 0.25,
      "velocity": 100
    },
    {
      "time": 20.25,
      "note": 74,
      "duration": 0.25,
      "velocity": 100
    },
    {
      "time": 20.5,
      "note": 77,
      "duration": 0.25,
      "velocity": 100
    },
    {
      "time": 20.75,
      "note": 74,
      "duration": 0.25,
      "velocity": 100
    },
    {
      "time": 21.0,
      "note": 72,
      "duration": 0.125,
      "velocity": 100
    },
    {
      "time": 21.125,
      "note": 70,
      "duration": 0.125,
      "velocity": 100
    },
    {
      "time": 21.25,
      "note": 70,
      "duration": 0.375,
      "velocity": 100
    },
    {
      "time": 21.25,
      "note": 75,
      "duration": 0.25,
      "velocity": 100
    },
    {
      "time": 21.5,
      "note": 82,
      "duration": 0.25,
      "velocity": 100
    },
    {
      "time": 21.5,
      "note": 86,
      "duration": 0.25,
      "velocity": 100
    },
    {
      "time": 21.75,
      "note": 86,
      "duration": 0.25,
      "velocity": 100
    },
    {
      "time": 22.0,
      "note": 77,
      "duration": 1.0,
      "velocity": 100
    },
    {
      "time": 23.0,
      "note": 87,
      "duration": 1.0,
      "velocity": 100
    },
    {
      "time": 23.0,
      "note": 87,
      "duration": 0.25,
      "velocity": 100
    },
    {
      "time": 23.25,
      "note": 84,
      "duration": 0.25,
      "velocity": 100
    },
    {
      "time": 23.5,
      "note": 79,
      "duration": 0.25,
      "velocity": 100
    },
    {
      "time": 23.75,
      "note": 84,
      "duration": 0.125,
      "velocity": 100
    },
    {
      "time": 23.875,
      "note": 87,
      "duration": 0.125,
      "velocity": 100
    },
    {
      "time": 24.0,
      "note": 87,
      "duration": 0.125,
      "velocity": 100
    },
    {
      "time": 24.125,
      "note": 87,
      "duration": 0.375,
      "velocity": 100
    },
    {
      "time": 24.5,
      "note": 87,
      "duration": 0.5,
      "velocity": 100
    },
    {
      "time": 22.0,
      "note": 81,
      "duration": 3.0,
      "velocity": 100
    },
    {
      "time": 24.5,
      "note": 75,
      "duration": 0.25,
      "velocity": 100
    },
    {
      "time": 24.75,
      "note": 79,
      "duration": 0.25,
      "velocity": 100
    },
    {
      "time": 24.75,
      "note": 79,
      "duration": 0.25,
      "velocity": 100
    },
    {
      "time": 25.0,
      "note": 84,
      "duration": 0.25,
      "velocity": 100
    },
    {
      "time": 25.0,
      "note": 75,
      "duration": 0.25,
      "velocity": 100
    },
    {
      "time": 25.25,
      "note": 79,
      "duration": 0.25,
      "velocity": 100
    },
    {
      "time": 25.25,
      "note": 79,
      "duration": 0.25,
      "velocity": 100
    },
    {
      "time": 25.5,
      "note": 84,
      "duration": 0.25,
      "velocity": 100
    },
    {
      "time": 25.5,
      "note": 75,
      "duration": 0.25,
      "velocity": 100
    },
    {
      "time": 25.75,
      "note": 79,
      "duration": 0.25,
      "velocity": 100
    },
    {
      "time": 25.75,
      "note": 79,
      "duration": 0.25,
      "velocity": 100
    },
    {
      "time": 26.0,
      "note": 84,
      "duration": 0.25,
      "velocity": 100
    },
    {
      "time": 26.0,
      "note": 84,
      "duration": 0.375,
      "velocity": 100
    },
    {
      "time": 26.375,
      "note": 87,
      "duration": 0.375,
      "velocity": 100
    },
    {
      "time": 26.375,
      "note": 82,
      "duration": 0.125,
      "velocity": 100
    },
    {
      "time": 26.5,
      "note": 82,
      "duration": 0.25,
      "velocity": 100
    },
    {
      "time": 26.75,
      "note": 82,
      "duration": 0.25,
      "velocity": 100
    },
    {
      "time": 27.0,
      "note": 86,
      "duration": 0.25,
      "velocity": 100
    },
    {
      "time": 27.25,
      "note": 82,
      "duration": 0.25,
      "velocity": 100
    },
    {
      "time": 27.5,
      "note": 77,
      "duration": 0.25,
      "velocity": 100
    },
    {
      "time": 27.75,
      "note": 82,
      "duration": 0.125,
      "velocity": 100
    },
    {
      "time": 27.875,
      "note": 86,
      "duration": 0.125,
      "velocity": 100
    },
    {
      "time": 28.0,
      "note": 86,
      "duration": 0.125,
      "velocity": 100
    },
    {
      "time": 28.125,
      "note": 86,
      "duration": 0.375,
      "velocity": 100
    },
    {
      "time": 28.5,
      "note": 86,
      "duration": 0.5,
      "velocity": 100
    },
    {
      "time": 28.375,
      "note": 77,
      "duration": 0.5,
      "velocity": 100
    },
    {
      "time": 28.875,
      "note": 82,
      "duration": 0.5,
      "velocity": 100
    },
    {
      "time": 28.5,
      "note": 74,
      "duration": 0.25,
      "velocity": 100
    },
    {
      "time": 28.75,
      "note": 77,
      "duration": 0.25,
      "velocity": 100
    },
    {
      "time": 28.75,
      "note": 77,
      "duration": 0.25,
      "velocity": 100
    },
    {
      "time": 29.0,
      "note": 82,
      "duration": 0.25,
      "velocity": 100
    },
    {
      "time": 29.0,
      "note": 74,
      "duration": 0.25,
      "velocity": 100
    },
    {
      "time": 29.25,
      "note": 77,
      "duration": 0.25,
      "velocity": 100
    },
    {
      "time": 29.25,
      "note": 77,
      "duration": 0.25,
      "velocity": 100
    },
    {
      "time": 29.5,
      "note": 82,
      "duration": 0.25,
      "velocity": 100
    },
    {
      "time": 29.5,
      "note": 74,
      "duration": 0.25,
      "velocity": 100
    },
    {
      "time": 29.75,
      "note": 77,
      "duration": 0.25,
      "velocity": 100
    },
    {
      "time": 29.75,
      "note": 77,
      "duration": 0.25,
      "velocity": 100
    },
    {
      "time": 30.0,
      "note": 82,
      "duration": 0.25,
      "velocity": 100
    },
    {
      "time": 30.0,
      "note": 77,
      "duration": 1.0,
      "velocity": 100
    },
    {
      "time": 31.0,
      "note": 81,
      "duration": 1.0,
      "velocity": 100
    },
    {
      "time": 31.0,
      "note": 84,
      "duration": 1.0,
      "velocity": 100
    },
    {
      "time": 31.0,
      "note": 87,
      "duration": 1.0,
      "velocity": 100
    },
    {
      "time": 29.0,
      "note": 87,
      "duration": 0.25,
      "velocity": 100
    },
    {
      "time": 29.25,
      "note": 84,
      "duration": 0.25,
      "velocity": 100
    },
    {
      "time": 29.5,
      "note": 79,
      "duration": 0.25,
      "velocity": 100
    },
    {
      "time": 29.75,
      "note": 84,
      "duration": 0.125,
      "velocity": 100
    },
    {
      "time": 29.875,
      "note": 87,
      "duration": 0.125,
      "velocity": 100
    },
    {
      "time": 30.0,
      "note": 87,
      "duration": 0.125,
      "velocity": 100
    },
    {
      "time": 30.125,
      "note": 87,
      "duration": 0.375,
      "velocity": 100
    },
    {
      "time": 30.5,
      "note": 87,
      "duration": 0.5,
      "velocity": 100
    },
    {
      "time": 30.375,
      "note": 79,
      "duration": 0.125,
      "velocity": 100
    },
    {
      "time": 30.5,
      "note": 84,
      "duration": 0.125,
      "velocity": 100
    },
    {
      "time": 30.5,
      "note": 75,
      "duration": 0.25,
      "velocity": 100
    },
    {
      "time": 30.75,
      "note": 79,
      "duration": 0.25,
      "velocity": 100
    },
    {
      "time": 30.75,
      "note": 79,
      "duration": 0.25,
      "velocity": 100
    },
    {
      "time": 31.0,
      "note": 84,
      "duration": 0.25,
      "velocity": 100
    },
    {
      "time": 31.0,
      "note": 75,
      "duration": 0.25,
      "velocity": 100
    },
    {
      "time": 31.25,
      "note": 79,
      "duration": 0.25,
      "velocity": 100
    },
    {
      "time": 31.25,
      "note": 79,
      "duration": 0.25,
      "velocity": 100
    },
    {
      "time": 31.5,
      "note": 84,
      "duration": 0.25,
      "velocity": 100
    },
    {
      "time": 31.5,
      "note": 75,
      "duration": 0.25,
      "velocity": 100
    },
    {
      "time": 31.75,
      "note": 79,
      "duration": 0.25,
      "velocity": 100
    },
    {
      "time": 31.75,
      "note": 79,
      "duration": 0.25,
      "velocity": 100
    },
    {
      "time": 32.0,
      "note": 84,
      "duration": 0.25,
      "velocity": 100
    },
    {
      "time": 32.0,
      "note": 84,
      "duration": 0.375,
      "velocity": 100
    },
    {
      "time": 32.375,
      "note": 87,
      "duration": 0.375,
      "velocity": 100
    },
    {
      "time": 32.375,
      "note": 82,
      "duration": 0.125,
      "velocity": 100
    },
    {
      "time": 32.5,
      "note": 82,
      "duration": 0.25,
      "velocity": 100
    },
    {
      "time": 32.75,
      "note": 82,
      "duration": 0.25,
      "velocity": 100
    },
    {
      "time": 33.0,
      "note": 86,
      "duration": 0.25,
      "velocity": 100
    },
    {
      "time": 33.25,
      "note": 82,
      "duration": 0.25,
      "velocity": 100
    },
    {
      "time": 33.5,
      "note": 77,
      "duration": 0.25,
      "velocity": 100
    },
    {
      "time": 33.75,
      "note": 82,
      "duration": 0.125,
      "velocity": 100
    },
    {
      "time": 33.875,
      "note": 86,
      "duration": 0.125,
      "velocity": 100
    },
    {
      "time": 34.0,
      "note": 86,
      "duration": 0.125,
      "velocity": 100
    },
    {
      "time": 34.125,
      "note": 86,
      "duration": 0.375,
      "velocity": 100
    },
    {
      "time": 34.5,
      "note": 86,
      "duration": 0.5,
      "velocity": 100
    },
    {
      "time": 34.375,
      "note": 77,
      "duration": 0.125,
      "velocity": 100
    },
    {
      "time": 34.5,
      "note": 82,
      "duration": 0.125,
      "velocity": 100
    },
    {
      "time": 34.5,
      "note": 74,
      "duration": 0.25,
      "velocity": 100
    },
    {
      "time": 34.75,
      "note": 77,
      "duration": 0.25,
      "velocity": 100
    },
    {
      "time": 34.75,
      "note": 77,
      "duration": 0.25,
      "velocity": 100
    },
    {
      "time": 35.0,
      "note": 82,
      "duration": 0.25,
      "velocity": 100
    },
    {
      "time": 35.0,
      "note": 74,
      "duration": 0.25,
      "velocity": 100
    },
    {
      "time": 35.25,
      "note": 77,
      "duration": 0.25,
      "velocity": 100
    },
    {
      "time": 35.25,
      "note": 77,
      "duration": 0.25,
      "velocity": 100
    },
    {
      "time": 35.5,
      "note": 82,
      "duration": 0.25,
      "velocity": 100
    },
    {
      "time": 35.5,
      "note": 74,
      "duration": 0.25,
      "velocity": 100
    },
    {
      "time": 35.75,
      "note": 77,
      "duration": 0.25,
      "velocity": 100
    },
    {
      "time": 35.75,
      "note": 77,
      "duration": 0.25,
      "velocity": 100
    },
    {
      "time": 36.0,
      "note": 82,
      "duration": 0.25,
      "velocity": 100
    },
    {
      "time": 36.0,
      "note": 77,
      "duration": 1.0,
      "velocity": 100
    },
    {
      "time": 37.0,
      "note": 84,
      "duration": 1.0,
      "velocity": 100
    },
    {
      "time": 37.0,
      "note": 87,
      "duration": 1.0,
      "velocity": 100
    },
    {
      "time": 35.375,
      "note": 77,
      "duration": 1.0,
      "velocity": 100
    },
    {
      "time": 36.375,
      "note": 87,
      "duration": 1.0,
      "velocity": 100
    },
    {
      "time": 36.375,
      "note": 87,
      "duration": 0.25,
      "velocity": 100
    },
    {
      "time": 36.625,
      "note": 87,
      "duration": 0.25,
      "velocity": 100
    },
    {
      "time": 36.875,
      "note": 86,
      "duration": 0.25,
      "velocity": 100
    },
    {
      "time": 37.125,
      "note": 86,
      "duration": 0.125,
      "velocity": 100
    },
    {
      "time": 37.25,
      "note": 84,
      "duration": 0.125,
      "velocity": 100
    },
    {
      "time": 37.375,
      "note": 84,
      "duration": 0.125,
      "velocity": 100
    },
    {
      "time": 37.5,
      "note": 84,
      "duration": 0.25,
      "velocity": 100
    },
    {
      "time": 37.75,
      "note": 79,
      "duration": 0.125,
      "velocity": 100
    },
    {
      "time": 37.875,
      "note": 79,
      "duration": 0.125,
      "velocity": 100
    },
    {
      "time": 38.0,
      "note": 79,
      "duration": 0.125,
      "velocity": 100
    },
    {
      "time": 38.125,
      "note": 79,
      "duration": 0.25,
      "velocity": 100
    },
    {
      "time": 38.375,
      "note": 87,
      "duration": 0.25,
      "velocity": 100
    },
    {
      "time": 38.625,
      "note": 87,
      "duration": 0.25,
      "velocity": 100
    },
    {
      "time": 38.875,
      "note": 86,
      "duration": 0.25,
      "velocity": 100
    },
    {
      "time": 39.125,
      "note": 86,
      "duration": 0.125,
      "velocity": 100
    },
    {
      "time": 39.25,
      "note": 84,
      "duration": 0.125,
      "velocity": 100
    },
    {
      "time": 39.375,
      "note": 84,
      "duration": 0.125,
      "velocity": 100
    },
    {
      "time": 39.5,
      "note": 84,
      "duration": 0.25,
      "velocity": 100
    },
    {
      "time": 39.75,
      "note": 77,
      "duration": 0.125,
      "velocity": 100
    },
    {
      "time": 39.875,
      "note": 77,
      "duration": 0.25,
      "velocity": 100
    },
    {
      "time": 40.125,
      "note": 77,
      "duration": 0.25,
      "velocity": 100
    },
    {
      "time": 40.375,
      "note": 86,
      "duration": 0.25,
      "velocity": 100
    },
    {
      "time": 40.625,
      "note": 86,
      "duration": 0.25,
      "velocity": 100
    },
    {
      "time": 40.875,
      "note": 84,
      "duration": 0.25,
      "velocity": 100
    },
    {
      "time": 41.125,
      "note": 84,
      "duration": 0.125,
      "velocity": 100
    },
    {
      "time": 41.25,
      "note": 82,
      "duration": 0.125,
      "velocity": 100
    },
    {
      "time": 41.375,
      "note": 82,
      "duration": 0.125,
      "velocity": 100
    },
    {
      "time": 41.5,
      "note": 82,
      "duration": 0.25,
      "velocity": 100
    },
    {
      "time": 41.75,
      "note": 77,
      "duration": 0.125,
      "velocity": 100
    },
    {
      "time": 41.875,
      "note": 77,
      "duration": 0.125,
      "velocity": 100
    },
    {
      "time": 42.0,
      "note": 77,
      "duration": 0.125,
      "velocity": 100
    },
    {
      "time": 42.125,
      "note": 77,
      "duration": 0.25,
      "velocity": 100
    },
    {
      "time": 42.375,
      "note": 86,
      "duration": 0.25,
      "velocity": 100
    },
    {
      "time": 42.625,
      "note": 86,
      "duration": 0.25,
      "velocity": 100
    },
    {
      "time": 42.875,
      "note": 84,
      "duration": 0.25,
      "velocity": 100
    },
    {
      "time": 43.125,
      "note": 84,
      "duration": 0.125,
      "velocity": 100
    },
    {
      "time": 43.25,
      "note": 82,
      "duration": 0.125,
      "velocity": 100
    },
    {
      "time": 43.375,
      "note": 82,
      "duration": 0.125,
      "velocity": 100
    },
    {
      "time": 43.5,
      "note": 82,
      "duration": 0.25,
      "velocity": 100
    },
    {
      "time": 43.5,
      "note": 79,
      "duration": 0.125,
      "velocity": 100
    },
    {
      "time": 43.625,
      "note": 79,
      "duration": 0.25,
      "velocity": 100
    },
    {
      "time": 43.875,
      "note": 79,
      "duration": 0.25,
      "velocity": 100
    },
    {
      "time": 44.125,
      "note": 77,
      "duration": 1.0,
      "velocity": 100
    },
    {
      "time": 45.125,
      "note": 87,
      "duration": 1.0,
      "velocity": 100
    },
    {
      "time": 45.125,
      "note": 87,
      "duration": 0.25,
      "velocity": 100
    },
    {
      "time": 45.375,
      "note": 87,
      "duration": 0.25,
      "velocity": 100
    },
    {
      "time": 45.625,
      "note": 86,
      "duration": 0.25,
      "velocity": 100
    },
    {
      "time": 45.875,
      "note": 86,
      "duration": 0.125,
      "velocity": 100
    },
    {
      "time": 46.0,
      "note": 84,
      "duration": 0.125,
      "velocity": 100
    },
    {
      "time": 44.125,
      "note": 87,
      "duration": 0.25,
      "velocity": 100
    },
    {
      "time": 44.375,
      "note": 87,
      "duration": 0.25,
      "velocity": 100
    },
    {
      "time": 44.625,
      "note": 86,
      "duration": 0.25,
      "velocity": 100
    },
    {
      "time": 44.875,
      "note": 86,
      "duration": 0.125,
      "velocity": 100
    },
    {
      "time": 45.0,
      "note": 84,
      "duration": 0.125,
      "velocity": 100
    },
    {
      "time": 45.125,
      "note": 84,
      "duration": 0.125,
      "velocity": 100
    },
    {
      "time": 45.25,
      "note": 84,
      "duration": 0.25,
      "velocity": 100
    },
    {
      "time": 45.5,
      "note": 77,
      "duration": 0.125,
      "velocity": 100
    },
    {
      "time": 45.625,
      "note": 77,
      "duration": 0.125,
      "velocity": 100
    },
    {
      "time": 45.75,
      "note": 77,
      "duration": 0.125,
      "velocity": 100
    },
    {
      "time": 45.875,
      "note": 77,
      "duration": 0.25,
      "velocity": 100
    },
    {
      "time": 46.125,
      "note": 86,
      "duration": 0.25,
      "velocity": 100
    },
    {
      "time": 46.375,
      "note": 86,
      "duration": 0.25,
      "velocity": 100
    },
    {
      "time": 46.625,
      "note": 84,
      "duration": 0.25,
      "velocity": 100
    },
    {
      "time": 46.875,
      "note": 84,
      "duration": 0.125,
      "velocity": 100
    },
    {
      "time": 47.0,
      "note": 82,
      "duration": 0.125,
      "velocity": 100
    },
    {
      "time": 47.125,
      "note": 82,
      "duration": 0.125,
      "velocity": 100
    },
    {
      "time": 47.25,
      "note": 82,
      "duration": 0.25,
      "velocity": 100
    },
    {
      "time": 47.5,
      "note": 77,
      "duration": 0.125,
      "velocity": 100
    },
    {
      "time": 47.625,
      "note": 77,
      "duration": 0.125,
      "velocity": 100
    },
    {
      "time": 47.75,
      "note": 77,
      "duration": 0.125,
      "velocity": 100
    },
    {
      "time": 47.875,
      "note": 77,
      "duration": 0.25,
      "velocity": 100
    },
    {
      "time": 48.125,
      "note": 86,
      "duration": 0.25,
      "velocity": 100
    },
    {
      "time": 48.375,
      "note": 86,
      "duration": 0.25,
      "velocity": 100
    },
    {
      "time": 48.625,
      "note": 84,
      "duration": 0.25,
      "velocity": 100
    },
    {
      "time": 48.875,
      "note": 84,
      "duration": 0.125,
      "velocity": 100
    },
    {
      "time": 49.0,
      "note": 82,
      "duration": 0.125,
      "velocity": 100
    },
    {
      "time": 49.125,
      "note": 82,
      "duration": 0.125,
      "velocity": 100
    },
    {
      "time": 49.25,
      "note": 82,
      "duration": 0.25,
      "velocity": 100
    },
    {
      "time": 49.25,
      "note": 79,
      "duration": 0.125,
      "velocity": 100
    },
    {
      "time": 49.375,
      "note": 79,
      "duration": 0.25,
      "velocity": 100
    },
    {
      "time": 49.625,
      "note": 79,
      "duration": 0.25,
      "velocity": 100
    }
  ],
  "chords": [
    {
      "time": 0.0,
      "notes": [
        60,
        63,
        67
      ],
      "duration": 4.15625
    },
    {
      "time": 4.15625,
      "notes": [
        70,
        74,
        77
      ],
      "duration": 4.15625
    },
    {
      "time": 8.3125,
      "notes": [
        60,
        63,
        67
      ],
      "duration": 4.15625
    },
    {
      "time": 12.46875,
      "notes": [
        70,
        74,
        77
      ],
      "duration": 4.15625
    },
    {
      "time": 16.625,
      "notes": [
        60,
        63,
        67
      ],
      "duration": 4.15625
    },
    {
      "time": 20.78125,
      "notes": [
        70,
        74,
        77
      ],
      "duration": 4.15625
    },
    {
      "time": 24.9375,
      "notes": [
        60,
        63,
        67
      ],
      "duration": 4.15625
    },
    {
      "time": 29.09375,
      "notes": [
        70,
        74,
        77
      ],
      "duration": 4.15625
    },
    {
      "time": 33.25,
      "notes": [
        60,
        63,
        67
      ],
      "duration": 4.15625
    },
    {
      "time": 37.40625,
      "notes": [
        70,
        74,
        77
      ],
      "duration": 4.15625
    },
    {
      "time": 41.5625,
      "notes": [
        60,
        63,
        67
      ],
      "duration": 4.15625
    },
    {
      "time": 45.71875,
      "notes": [
        70,
        74,
        77
      ],
      "duration": 4.15625
    }
  ]
}