{
  "title": "El Tano pastita",
  "artist": "Pibes Chorros",
  "bpm": 120,
  "duration": 36.0,
  "audioFile": "",
  "notes": [
    {
      "time": 0.375,
      "note": 79,
      "duration": 0.125,
      "velocity": 100
    },
    {
      "time": 0.5,
      "note": 84,
      "duration": 0.25,
      "velocity": 100
    },
    {
      "time": 0.75,
      "note": 84,
      "duration": 0.125,
      "velocity": 100
    },
    {
      "time": 0.875,
      "note": 84,
      "duration": 0.125,
      "velocity": 100
    },
    {
      "time": 0.0,
      "note": 72,
      "duration": 1.0,
      "velocity": 100
    },
    {
      "time": 1.0,
      "note": 82,
      "duration": 0.25,
      "velocity": 100
    },
    {
      "time": 1.25,
      "note": 82,
      "duration": 0.125,
      "velocity": 100
    },
    {
      "time": 1.375,
      "note": 82,
      "duration": 0.125,
      "velocity": 100
    },
    {
      "time": 1.5,
      "note": 86,
      "duration": 0.25,
      "velocity": 100
    },
    {
      "time": 1.75,
      "note": 84,
      "duration": 0.125,
      "velocity": 100
    },
    {
      "time": 1.875,
      "note": 82,
      "duration": 0.125,
      "velocity": 100
    },
    {
      "time": 2.0,
      "note": 84,
      "duration": 0.375,
      "velocity": 100
    },
    {
      "time": 2.375,
      "note": 79,
      "duration": 0.125,
      "velocity": 100
    },
    {
      "time": 2.5,
      "note": 79,
      "duration": 0.5,
      "velocity": 100
    },
    {
      "time": 3.0,
      "note": 79,
      "duration": 0.5,
      "velocity": 100
    },
    {
      "time": 3.5,
      "note": 72,
      "duration": 0.125,
      "velocity": 100
    },
    {
      "time": 3.625,
      "note": 75,
      "duration": 0.125,
      "velocity": 100
    },
    {
      "time": 3.75,
      "note": 72,
      "duration": 0.125,
      "velocity": 100
    },
    {
      "time": 3.875,
      "note": 70,
      "duration": 0.125,
      "velocity": 100
    },
    {
      "time": 4.375,
      "note": 79,
      "duration": 0.125,
      "velocity": 100
    },
    {
      "time": 4.5,
      "note": 84,
      "duration": 0.25,
      "velocity": 100
    },
    {
      "time": 4.75,
      "note": 84,
      "duration": 0.125,
      "velocity": 100
    },
    {
      "time": 4.875,
      "note": 84,
      "duration": 0.125,
      "velocity": 100
    },
    {
      "time": 4.0,
      "note": 72,
      "duration": 1.0,
      "velocity": 100
    },
    {
      "time": 5.0,
      "note": 82,
      "duration": 0.25,
      "velocity": 100
    },
    {
      "time": 5.25,
      "note": 82,
      "duration": 0.125,
      "velocity": 100
    },
    {
      "time": 5.375,
      "note": 82,
      "duration": 0.125,
      "velocity": 100
    },
    {
      "time": 5.625,
      "note": 86,
      "duration": 0.125,
      "velocity": 100
    },
    {
      "time": 5.75,
      "note": 84,
      "duration": 0.125,
      "velocity": 100
    },
    {
      "time": 5.875,
      "note": 82,
      "duration": 0.125,
      "velocity": 100
    },
    {
      "time": 6.0,
      "note": 84,
      "duration": 0.375,
      "velocity": 100
    },
    {
      "time": 6.375,
      "note": 87,
      "duration": 0.125,
      "velocity": 100
    },
    {
      "time": 6.5,
      "note": 84,
      "duration": 0.5,
      "velocity": 100
    },
    {
      "time": 7.0,
      "note": 84,
      "duration": 0.5,
      "velocity": 100
    },
    {
      "time": 7.5,
      "note": 72,
      "duration": 0.125,
      "velocity": 100
    },
    {
      "time": 7.625,
      "note": 75,
      "duration": 0.125,
      "velocity": 100
    },
    {
      "time": 7.75,
      "note": 72,
      "duration": 0.125,
      "velocity": 100
    },
    {
      "time": 7.875,
      "note": 70,
      "duration": 0.125,
      "velocity": 100
    },
    {
      "time": 8.0,
      "note": 84,
      "duration": 1.0,
      "velocity": 100
    },
    {
      "time": 8.5,
      "note": 72,
      "duration": 0.25,
      "velocity": 100
    },
    {
      "time": 8.75,
      "note": 74,
      "duration": 0.25,
      "velocity": 100
    },
    {
      "time": 9.375,
      "note": 82,
      "duration": 0.125,
      "velocity": 100
    },
    {
      "time": 9.5,
      "note": 87,
      "duration": 0.125,
      "velocity": 100
    },
    {
      "time": 9.625,
      "note": 87,
      "duration": 0.125,
      "velocity": 100
    },
    {
      "time": 9.75,
      "note": 87,
      "duration": 0.125,
      "velocity": 100
    },
    {
      "time": 9.875,
      "note": 87,
      "duration": 0.125,
      "velocity": 100
    },
    {
      "time": 9.0,
      "note": 75,
      "duration": 1.0,
      "velocity": 100
    },
    {
      "time": 10.0,
      "note": 86,
      "duration": 0.25,
      "velocity": 100
    },
    {
      "time": 10.25,
      "note": 86,
      "duration": 0.125,
      "velocity": 100
    },
    {
      "time": 10.375,
      "note": 86,
      "duration": 0.125,
      "velocity": 100
    },
    {
      "time": 10.625,
      "note": 86,
      "duration": 0.125,
      "velocity": 100
    },
    {
      "time": 10.75,
      "note": 84,
      "duration": 0.125,
      "velocity": 100
    },
    {
      "time": 10.875,
      "note": 82,
      "duration": 0.125,
      "velocity": 100
    },
    {
      "time": 11.0,
      "note": 84,
      "duration": 0.375,
      "velocity": 100
    },
    {
      "time": 11.375,
      "note": 79,
      "duration": 0.125,
      "velocity": 100
    },
    {
      "time": 11.5,
      "note": 79,
      "duration": 0.5,
      "velocity": 100
    },
    {
      "time": 12.0,
      "note": 79,
      "duration": 0.5,
      "velocity": 100
    },
    {
      "time": 12.5,
      "note": 72,
      "duration": 0.25,
      "velocity": 100
    },
    {
      "time": 12.75,
      "note": 70,
      "duration": 0.25,
      "velocity": 100
    },
    {
      "time": 13.375,
      "note": 81,
      "duration": 0.125,
      "velocity": 100
    },
    {
      "time": 13.5,
      "note": 81,
      "duration": 0.125,
      "velocity": 100
    },
    {
      "time": 13.625,
      "note": 81,
      "duration": 0.125,
      "velocity": 100
    },
    {
      "time": 13.75,
      "note": 84,
      "duration": 0.125,
      "velocity": 100
    },
    {
      "time": 13.875,
      "note": 84,
      "duration": 0.125,
      "velocity": 100
    },
    {
      "time": 13.0,
      "note": 69,
      "duration": 1.0,
      "velocity": 100
    },
    {
      "time": 14.0,
      "note": 82,
      "duration": 0.25,
      "velocity": 100
    },
    {
      "time": 14.25,
      "note": 82,
      "duration": 0.125,
      "velocity": 100
    },
    {
      "time": 14.375,
      "note": 82,
      "duration": 0.125,
      "velocity": 100
    },
    {
      "time": 14.625,
      "note": 86,
      "duration": 0.125,
      "velocity": 100
    },
    {
      "time": 14.75,
      "note": 84,
      "duration": 0.125,
      "velocity": 100
    },
    {
      "time": 14.875,
      "note": 82,
      "duration": 0.125,
      "velocity": 100
    },
    {
      "time": 15.0,
      "note": 84,
      "duration": 0.375,
      "velocity": 100
    },
    {
      "time": 15.375,
      "note": 87,
      "duration": 0.125,
      "velocity": 100
    },
    {
      "time": 15.5,
      "note": 84,
      "duration": 0.5,
      "velocity": 100
    },
    {
      "time": 16.0,
      "note": 84,
      "duration": 1.0,
      "velocity": 100
    },
    {
      "time": 17.0,
      "note": 77,
      "duration": 1.0,
      "velocity": 100
    },
    {
      "time": 18.0,
      "note": 87,
      "duration": 1.0,
      "velocity": 100
    },
    {
      "time": 17.0,
      "note": 79,
      "duration": 0.25,
      "velocity": 100
    },
    {
      "time": 17.25,
      "note": 79,
      "duration": 0.125,
      "velocity": 100
    },
    {
      "time": 17.375,
      "note": 86,
      "duration": 0.125,
      "velocity": 100
    },
    {
      "time": 17.5,
      "note": 89,
      "duration": 0.25,
      "velocity": 100
    },
    {
      "time": 17.75,
      "note": 87,
      "duration": 0.125,
      "velocity": 100
    },
    {
      "time": 17.875,
      "note": 86,
      "duration": 0.125,
      "velocity": 100
    },
    {
      "time": 18.0,
      "note": 79,
      "duration": 0.25,
      "velocity": 100
    },
    {
      "time": 18.25,
      "note": 79,
      "duration": 0.125,
      "velocity": 100
    },
    {
      "time": 18.375,
      "note": 84,
      "duration": 0.125,
      "velocity": 100
    },
    {
      "time": 18.5,
      "note": 87,
      "duration": 0.25,
      "velocity": 100
    },
    {
      "time": 18.75,
      "note": 86,
      "duration": 0.25,
      "velocity": 100
    },
    {
      "time": 19.0,
      "note": 79,
      "duration": 0.125,
      "velocity": 100
    },
    {
      "time": 19.125,
      "note": 81,
      "duration": 0.125,
      "velocity": 100
    },
    {
      "time": 19.25,
      "note": 79,
      "duration": 0.125,
      "velocity": 100
    },
    {
      "time": 19.375,
      "note": 77,
      "duration": 0.125,
      "velocity": 100
    },
    {
      "time": 19.5,
      "note": 79,
      "duration": 0.125,
      "velocity": 100
    },
    {
      "time": 19.625,
      "note": 81,
      "duration": 0.125,
      "velocity": 100
    },
    {
      "time": 19.75,
      "note": 79,
      "duration": 0.125,
      "velocity": 100
    },
    {
      "time": 19.875,
      "note": 77,
      "duration": 0.125,
      "velocity": 100
    },
    {
      "time": 20.0,
      "note": 72,
      "duration": 1.0,
      "velocity": 100
    },
    {
      "time": 21.0,
      "note": 75,
      "duration": 1.0,
      "velocity": 100
    },
    {
      "time": 21.0,
      "note": 79,
      "duration": 1.0,
      "velocity": 100
    },
    {
      "time": 21.0,
      "note": 84,
      "duration": 1.0,
      "velocity": 100
    },
    {
      "time": 21.375,
      "note": 79,
      "duration": 0.125,
      "velocity": 100
    },
    {
      "time": 21.5,
      "note": 84,
      "duration": 0.25,
      "velocity": 100
    },
    {
      "time": 21.75,
      "note": 84,
      "duration": 0.125,
      "velocity": 100
    },
    {
      "time": 21.875,
      "note": 84,
      "duration": 0.125,
      "velocity": 100
    },
    {
      "time": 22.0,
      "note": 82,
      "duration": 0.25,
      "velocity": 100
    },
    {
      "time": 22.25,
      "note": 82,
      "duration": 0.125,
      "velocity": 100
    },
    {
      "time": 22.375,
      "note": 82,
      "duration": 0.125,
      "velocity": 100
    },
    {
      "time": 22.5,
      "note": 82,
      "duration": 0.125,
      "velocity": 100
    },
    {
      "time": 22.625,
      "note": 86,
      "duration": 0.125,
      "velocity": 100
    },
    {
      "time": 22.75,
      "note": 84,
      "duration": 0.125,
      "velocity": 100
    },
    {
      "time": 22.875,
      "note": 82,
      "duration": 0.125,
      "velocity": 100
    },
    {
      "time": 23.0,
      "note": 84,
      "duration": 0.375,
      "velocity": 100
    },
    {
      "time": 23.375,
      "note": 79,
      "duration": 0.125,
      "velocity": 100
    },
    {
      "time": 23.5,
      "note": 84,
      "duration": 0.25,
      "velocity": 100
    },
    {
      "time": 23.75,
      "note": 84,
      "duration": 0.125,
      "velocity": 100
    },
    {
      "time": 23.875,
      "note": 84,
      "duration": 0.125,
      "velocity": 100
    },
    {
      "time": 24.0,
      "note": 82,
      "duration": 0.25,
      "velocity": 100
    },
    {
      "time": 24.25,
      "note": 82,
      "duration": 0.125,
      "velocity": 100
    },
    {
      "time": 24.375,
      "note": 82,
      "duration": 0.125,
      "velocity": 100
    },
    {
      "time": 24.5,
      "note": 82,
      "duration": 0.125,
      "velocity": 100
    },
    {
      "time": 24.625,
      "note": 86,
      "duration": 0.125,
      "velocity": 100
    },
    {
      "time": 24.75,
      "note": 84,
      "duration": 0.125,
      "velocity": 100
    },
    {
      "time": 24.875,
      "note": 82,
      "duration": 0.125,
      "velocity": 100
    },
    {
      "time": 25.0,
      "note": 84,
      "duration": 0.375,
      "velocity": 100
    },
    {
      "time": 25.375,
      "note": 87,
      "duration": 0.125,
      "velocity": 100
    },
    {
      "time": 25.5,
      "note": 84,
      "duration": 0.5,
      "velocity": 100
    },
    {
      "time": 26.0,
      "note": 84,
      "duration": 1.0,
      "velocity": 100
    },
    {
      "time": 27.0,
      "note": 96,
      "duration": 0.25,
      "velocity": 100
    },
    {
      "time": 27.25,
      "note": 96,
      "duration": 0.125,
      "velocity": 100
    },
    {
      "time": 27.375,
      "note": 96,
      "duration": 0.125,
      "velocity": 100
    },
    {
      "time": 27.5,
      "note": 91,
      "duration": 0.25,
      "velocity": 100
    },
    {
      "time": 27.75,
      "note": 91,
      "duration": 0.125,
      "velocity": 100
    },
    {
      "time": 27.875,
      "note": 91,
      "duration": 0.125,
      "velocity": 100
    },
    {
      "time": 28.0,
      "note": 87,
      "duration": 0.25,
      "velocity": 100
    },
    {
      "time": 28.25,
      "note": 87,
      "duration": 0.125,
      "velocity": 100
    },
    {
      "time": 28.375,
      "note": 87,
      "duration": 0.125,
      "velocity": 100
    },
    {
      "time": 28.5,
      "note": 84,
      "duration": 0.25,
      "velocity": 100
    },
    {
      "time": 28.75,
      "note": 84,
      "duration": 0.125,
      "velocity": 100
    },
    {
      "time": 28.875,
      "note": 84,
      "duration": 0.125,
      "velocity": 100
    },
    {
      "time": 29.0,
      "note": 79,
      "duration": 0.25,
      "velocity": 100
    },
    {
      "time": 29.25,
      "note": 79,
      "duration": 0.125,
      "velocity": 100
    },
    {
      "time": 29.375,
      "note": 79,
      "duration": 0.125,
      "velocity": 100
    },
    {
      "time": 29.5,
      "note": 84,
      "duration": 0.125,
      "velocity": 100
    },
    {
      "time": 29.625,
      "note": 87,
      "duration": 0.125,
      "velocity": 100
    },
    {
      "time": 29.75,
      "note": 84,
      "duration": 0.125,
      "velocity": 100
    },
    {
      "time": 29.875,
      "note": 79,
      "duration": 0.125,
      "velocity": 100
    },
    {
      "time": 30.0,
      "note": 86,
      "duration": 0.25,
      "velocity": 100
    },
    {
      "time": 30.25,
      "note": 89,
      "duration": 0.25,
      "velocity": 100
    },
    {
      "time": 30.25,
      "note": 84,
      "duration": 0.25,
      "velocity": 100
    },
    {
      "time": 30.5,
      "note": 87,
      "duration": 0.25,
      "velocity": 100
    },
    {
      "time": 30.5,
      "note": 83,
      "duration": 0.5,
      "velocity": 100
    },
    {
      "time": 31.0,
      "note": 86,
      "duration": 0.5,
      "velocity": 100
    },
    {
      "time": 31.0,
      "note": 95,
      "duration": 0.25,
      "velocity": 100
    },
    {
      "time": 31.25,
      "note": 95,
      "duration": 0.125,
      "velocity": 100
    },
    {
      "time": 31.375,
      "note": 95,
      "duration": 0.125,
      "velocity": 100
    },
    {
      "time": 31.5,
      "note": 91,
      "duration": 0.25,
      "velocity": 100
    },
    {
      "time": 31.75,
      "note": 91,
      "duration": 0.125,
      "velocity": 100
    },
    {
      "time": 31.875,
      "note": 91,
      "duration": 0.125,
      "velocity": 100
    },
    {
      "time": 32.0,
      "note": 86,
      "duration": 0.25,
      "velocity": 100
    },
    {
      "time": 32.25,
      "note": 86,
      "duration": 0.125,
      "velocity": 100
    },
    {
      "time": 32.375,
      "note": 86,
      "duration": 0.125,
      "velocity": 100
    },
    {
      "time": 32.5,
      "note": 83,
      "duration": 0.25,
      "velocity": 100
    },
    {
      "time": 32.75,
      "note": 83,
      "duration": 0.125,
      "velocity": 100
    },
    {
      "time": 32.875,
      "note": 83,
      "duration": 0.125,
      "velocity": 100
    },
    {
      "time": 33.0,
      "note": 79,
      "duration": 0.25,
      "velocity": 100
    },
    {
      "time": 33.25,
      "note": 79,
      "duration": 0.125,
      "velocity": 100
    },
    {
      "time": 33.375,
      "note": 79,
      "duration": 0.125,
      "velocity": 100
    },
    {
      "time": 33.5,
      "note": 83,
      "duration": 0.125,
      "velocity": 100
    },
    {
      "time": 33.625,
      "note": 86,
      "duration": 0.125,
      "velocity": 100
    },
    {
      "time": 33.75,
      "note": 83,
      "duration": 0.125,
      "velocity": 100
    },
    {
      "time": 33.875,
      "note": 79,
      "duration": 0.125,
      "velocity": 100
    },
    {
      "time": 34.0,
      "note": 87,
      "duration": 0.25,
      "velocity": 100
    },
    {
      "time": 34.25,
      "note": 91,
      "duration": 0.25,
      "velocity": 100
    },
    {
      "time": 34.25,
      "note": 86,
      "duration": 0.25,
      "velocity": 100
    },
    {
      "time": 34.5,
      "note": 89,
      "duration": 0.25,
      "velocity": 100
    },
    {
      "time": 34.5,
      "note": 84,
      "duration": 0.5,
      "velocity": 100
    },
    {
      "time": 35.0,
      "note": 87,
      "duration": 0.5,
      "velocity": 100
    },
    {
      "time": 35.0,
      "note": 72,
      "duration": 1.0,
      "velocity": 100
    },
    {
      "time": 36.0,
      "note": 75,
      "duration": 1.0,
      "velocity": 100
    },
    {
      "time": 36.0,
      "note": 79,
      "duration": 1.0,
      "velocity": 100
    },
    {
      "time": 36.0,
      "note": 84,
      "duration": 1.0,
      "velocity": 100
    }
  ],
  "chords": [
    {
      "time": 0.0,
      "notes": [
        60,
        63,
        67
      ],
      "duration": 1.6363636363636365
    },
    {
      "time": 1.6363636363636365,
      "notes": [
        70,
        74,
        77
      ],
      "duration": 1.6363636363636365
    },
    {
      "time": 3.272727272727273,
      "notes": [
        60,
        63,
        67
      ],
      "duration": 1.6363636363636365
    },
    {
      "time": 4.909090909090909,
      "notes": [
        70,
        74,
        77
      ],
      "duration": 1.6363636363636365
    },
    {
      "time": 6.545454545454546,
      "notes": [
        60,
        63,
        67
      ],
      "duration": 1.6363636363636365
    },
    {
      "time": 8.181818181818182,
      "notes": [
        63,
        67,
        70
      ],
      "duration": 1.6363636363636365
    },
    {
      "time": 9.818181818181818,
      "notes": [
        70,
        74,
        77
      ],
      "duration": 1.6363636363636365
    },
    {
      "time": 11.454545454545455,
      "notes": [
        60,
        63,
        67
      ],
      "duration": 1.6363636363636365
    },
    {
      "time": 13.090909090909092,
      "notes": [
        68,
        72,
        75
      ],
      "duration": 1.6363636363636365
    },
    {
      "time": 14.727272727272728,
      "notes": [
        70,
        74,
        77
      ],
      "duration": 1.6363636363636365
    },
    {
      "time": 16.363636363636363,
      "notes": [
        60,
        63,
        67
      ],
      "duration": 1.6363636363636365
    },
    {
      "time": 18.0,
      "notes": [
        67,
        71,
        74
      ],
      "duration": 1.6363636363636365
    },
    {
      "time": 19.636363636363637,
      "notes": [
        60,
        63,
        67
      ],
      "duration": 1.6363636363636365
    },
    {
      "time": 21.272727272727273,
      "notes": [
        67,
        71,
        74
      ],
      "duration": 1.6363636363636365
    },
    {
      "time": 22.90909090909091,
      "notes": [
        60,
        63,
        67
      ],
      "duration": 1.6363636363636365
    },
    {
      "time": 24.545454545454547,
      "notes": [
        70,
        74,
        77
      ],
      "duration": 1.6363636363636365
    },
    {
      "time": 26.181818181818183,
      "notes": [
        60,
        63,
        67
      ],
      "duration": 1.6363636363636365
    },
    {
      "time": 27.81818181818182,
      "notes": [
        70,
        74,
        77
      ],
      "duration": 1.6363636363636365
    },
    {
      "time": 29.454545454545457,
      "notes": [
        60,
        63,
        67
      ],
      "duration": 1.6363636363636365
    },
    {
      "time": 31.090909090909093,
      "notes": [
        60,
        63,
        67
      ],
      "duration": 1.6363636363636365
    },
    {
      "time": 32.72727272727273,
      "notes": [
        67,
        71,
        74
      ],
      "duration": 1.6363636363636365
    },
    {
      "time": 34.36363636363637,
      "notes": [
        60,
        63,
        67
      ],
      "duration": 1.6363636363636365
    }
  ]
}