{
  "title": "La Cotorra",
  "artist": "Agua Sucia",
  "bpm": 120,
  "duration": 32.875,
  "audioFile": "",
  "notes": [
    {
      "time": 0.375,
      "note": 91,
      "duration": 1.0,
      "velocity": 100
    },
    {
      "time": 1.5,
      "note": 83,
      "duration": 0.125,
      "velocity": 100
    },
    {
      "time": 1.625,
      "note": 83,
      "duration": 0.125,
      "velocity": 100
    },
    {
      "time": 1.75,
      "note": 83,
      "duration": 0.125,
      "velocity": 100
    },
    {
      "time": 1.875,
      "note": 88,
      "duration": 0.125,
      "velocity": 100
    },
    {
      "time": 2.0,
      "note": 88,
      "duration": 0.125,
      "velocity": 100
    },
    {
      "time": 2.125,
      "note": 84,
      "duration": 0.125,
      "velocity": 100
    },
    {
      "time": 2.25,
      "note": 84,
      "duration": 0.125,
      "velocity": 100
    },
    {
      "time": 2.375,
      "note": 86,
      "duration": 0.125,
      "velocity": 100
    },
    {
      "time": 2.5,
      "note": 86,
      "duration": 0.125,
      "velocity": 100
    },
    {
      "time": 2.625,
      "note": 83,
      "duration": 0.125,
      "velocity": 100
    },
    {
      "time": 2.75,
      "note": 83,
      "duration": 0.125,
      "velocity": 100
    },
    {
      "time": 2.875,
      "note": 84,
      "duration": 0.25,
      "velocity": 100
    },
    {
      "time": 3.125,
      "note": 81,
      "duration": 0.125,
      "velocity": 100
    },
    {
      "time": 3.25,
      "note": 77,
      "duration": 0.125,
      "velocity": 100
    },
    {
      "time": 3.5,
      "note": 83,
      "duration": 0.125,
      "velocity": 100
    },
    {
      "time": 3.625,
      "note": 83,
      "duration": 0.125,
      "velocity": 100
    },
    {
      "time": 3.75,
      "note": 83,
      "duration": 0.125,
      "velocity": 100
    },
    {
      "time": 3.875,
      "note": 86,
      "duration": 0.125,
      "velocity": 100
    },
    {
      "time": 4.0,
      "note": 86,
      "duration": 0.125,
      "velocity": 100
    },
    {
      "time": 4.125,
      "note": 83,
      "duration": 0.125,
      "velocity": 100
    },
    {
      "time": 4.25,
      "note": 83,
      "duration": 0.125,
      "velocity": 100
    },
    {
      "time": 4.375,
      "note": 84,
      "duration": 0.125,
      "velocity": 100
    },
    {
      "time": 4.5,
      "note": 84,
      "duration": 0.125,
      "velocity": 100
    },
    {
      "time": 4.625,
      "note": 81,
      "duration": 0.125,
      "velocity": 100
    },
    {
      "time": 4.75,
      "note": 81,
      "duration": 0.125,
      "velocity": 100
    },
    {
      "time": 4.875,
      "note": 50,
      "duration": 0.25,
      "velocity": 100
    },
    {
      "time": 5.125,
      "note": 47,
      "duration": 0.125,
      "velocity": 100
    },
    {
      "time": 5.25,
      "note": 43,
      "duration": 0.125,
      "velocity": 100
    },
    {
      "time": 5.5,
      "note": 50,
      "duration": 0.125,
      "velocity": 100
    },
    {
      "time": 5.625,
      "note": 50,
      "duration": 0.125,
      "velocity": 100
    },
    {
      "time": 5.75,
      "note": 50,
      "duration": 0.125,
      "velocity": 100
    },
    {
      "time": 5.875,
      "note": 55,
      "duration": 0.125,
      "velocity": 100
    },
    {
      "time": 6.0,
      "note": 55,
      "duration": 0.125,
      "velocity": 100
    },
    {
      "time": 6.125,
      "note": 52,
      "duration": 0.125,
      "velocity": 100
    },
    {
      "time": 6.25,
      "note": 52,
      "duration": 0.125,
      "velocity": 100
    },
    {
      "time": 6.375,
      "note": 53,
      "duration": 0.125,
      "velocity": 100
    },
    {
      "time": 6.5,
      "note": 53,
      "duration": 0.125,
      "velocity": 100
    },
    {
      "time": 6.625,
      "note": 50,
      "duration": 0.125,
      "velocity": 100
    },
    {
      "time": 6.75,
      "note": 50,
      "duration": 0.125,
      "velocity": 100
    },
    {
      "time": 6.875,
      "note": 52,
      "duration": 0.25,
      "velocity": 100
    },
    {
      "time": 7.125,
      "note": 48,
      "duration": 0.125,
      "velocity": 100
    },
    {
      "time": 7.25,
      "note": 45,
      "duration": 0.125,
      "velocity": 100
    },
    {
      "time": 7.5,
      "note": 45,
      "duration": 0.125,
      "velocity": 100
    },
    {
      "time": 7.625,
      "note": 47,
      "duration": 0.125,
      "velocity": 100
    },
    {
      "time": 7.75,
      "note": 48,
      "duration": 0.125,
      "velocity": 100
    },
    {
      "time": 7.875,
      "note": 50,
      "duration": 0.125,
      "velocity": 100
    },
    {
      "time": 8.0,
      "note": 55,
      "duration": 0.125,
      "velocity": 100
    },
    {
      "time": 8.125,
      "note": 53,
      "duration": 0.125,
      "velocity": 100
    },
    {
      "time": 8.25,
      "note": 52,
      "duration": 0.125,
      "velocity": 100
    },
    {
      "time": 8.375,
      "note": 50,
      "duration": 0.125,
      "velocity": 100
    },
    {
      "time": 8.5,
      "note": 48,
      "duration": 0.125,
      "velocity": 100
    },
    {
      "time": 8.625,
      "note": 47,
      "duration": 0.125,
      "velocity": 100
    },
    {
      "time": 8.75,
      "note": 45,
      "duration": 0.125,
      "velocity": 100
    },
    {
      "time": 8.875,
      "note": 76,
      "duration": 0.5,
      "velocity": 100
    },
    {
      "time": 9.375,
      "note": 79,
      "duration": 0.25,
      "velocity": 100
    },
    {
      "time": 9.625,
      "note": 83,
      "duration": 0.25,
      "velocity": 100
    },
    {
      "time": 9.875,
      "note": 84,
      "duration": 0.5,
      "velocity": 100
    },
    {
      "time": 10.375,
      "note": 83,
      "duration": 0.25,
      "velocity": 100
    },
    {
      "time": 10.625,
      "note": 79,
      "duration": 0.25,
      "velocity": 100
    },
    {
      "time": 10.875,
      "note": 76,
      "duration": 0.5,
      "velocity": 100
    },
    {
      "time": 11.375,
      "note": 79,
      "duration": 0.125,
      "velocity": 100
    },
    {
      "time": 11.5,
      "note": 83,
      "duration": 0.125,
      "velocity": 100
    },
    {
      "time": 11.625,
      "note": 79,
      "duration": 0.125,
      "velocity": 100
    },
    {
      "time": 11.75,
      "note": 83,
      "duration": 0.125,
      "velocity": 100
    },
    {
      "time": 11.875,
      "note": 84,
      "duration": 0.375,
      "velocity": 100
    },
    {
      "time": 12.25,
      "note": 84,
      "duration": 0.125,
      "velocity": 100
    },
    {
      "time": 12.375,
      "note": 83,
      "duration": 0.125,
      "velocity": 100
    },
    {
      "time": 12.5,
      "note": 84,
      "duration": 0.125,
      "velocity": 100
    },
    {
      "time": 12.625,
      "note": 83,
      "duration": 0.125,
      "velocity": 100
    },
    {
      "time": 12.75,
      "note": 79,
      "duration": 0.125,
      "velocity": 100
    },
    {
      "time": 12.625,
      "note": 71,
      "duration": 0.125,
      "velocity": 100
    },
    {
      "time": 12.75,
      "note": 71,
      "duration": 0.125,
      "velocity": 100
    },
    {
      "time": 13.125,
      "note": 76,
      "duration": 0.5,
      "velocity": 100
    },
    {
      "time": 13.125,
      "note": 76,
      "duration": 0.25,
      "velocity": 100
    },
    {
      "time": 13.375,
      "note": 76,
      "duration": 0.125,
      "velocity": 100
    },
    {
      "time": 13.5,
      "note": 79,
      "duration": 0.125,
      "velocity": 100
    },
    {
      "time": 13.625,
      "note": 79,
      "duration": 0.125,
      "velocity": 100
    },
    {
      "time": 13.75,
      "note": 79,
      "duration": 0.125,
      "velocity": 100
    },
    {
      "time": 13.875,
      "note": 77,
      "duration": 0.125,
      "velocity": 100
    },
    {
      "time": 14.0,
      "note": 79,
      "duration": 0.125,
      "velocity": 100
    },
    {
      "time": 14.125,
      "note": 76,
      "duration": 0.5,
      "velocity": 100
    },
    {
      "time": 14.75,
      "note": 71,
      "duration": 0.125,
      "velocity": 100
    },
    {
      "time": 14.875,
      "note": 71,
      "duration": 0.125,
      "velocity": 100
    },
    {
      "time": 15.0,
      "note": 71,
      "duration": 0.125,
      "velocity": 100
    },
    {
      "time": 15.125,
      "note": 76,
      "duration": 0.125,
      "velocity": 100
    },
    {
      "time": 15.25,
      "note": 76,
      "duration": 0.125,
      "velocity": 100
    },
    {
      "time": 15.375,
      "note": 76,
      "duration": 0.125,
      "velocity": 100
    },
    {
      "time": 15.5,
      "note": 76,
      "duration": 0.125,
      "velocity": 100
    },
    {
      "time": 15.625,
      "note": 79,
      "duration": 0.125,
      "velocity": 100
    },
    {
      "time": 15.75,
      "note": 79,
      "duration": 0.125,
      "velocity": 100
    },
    {
      "time": 15.875,
      "note": 77,
      "duration": 0.125,
      "velocity": 100
    },
    {
      "time": 16.0,
      "note": 79,
      "duration": 0.125,
      "velocity": 100
    },
    {
      "time": 16.125,
      "note": 81,
      "duration": 0.25,
      "velocity": 100
    },
    {
      "time": 16.375,
      "note": 77,
      "duration": 0.25,
      "velocity": 100
    },
    {
      "time": 16.625,
      "note": 77,
      "duration": 0.375,
      "velocity": 100
    },
    {
      "time": 17.0,
      "note": 71,
      "duration": 0.125,
      "velocity": 100
    },
    {
      "time": 17.125,
      "note": 74,
      "duration": 0.25,
      "velocity": 100
    },
    {
      "time": 17.375,
      "note": 74,
      "duration": 0.125,
      "velocity": 100
    },
    {
      "time": 17.5,
      "note": 77,
      "duration": 0.125,
      "velocity": 100
    },
    {
      "time": 17.625,
      "note": 77,
      "duration": 0.125,
      "velocity": 100
    },
    {
      "time": 17.75,
      "note": 77,
      "duration": 0.125,
      "velocity": 100
    },
    {
      "time": 17.875,
      "note": 76,
      "duration": 0.125,
      "velocity": 100
    },
    {
      "time": 18.0,
      "note": 77,
      "duration": 0.125,
      "velocity": 100
    },
    {
      "time": 17.625,
      "note": 74,
      "duration": 0.25,
      "velocity": 100
    },
    {
      "time": 17.875,
      "note": 74,
      "duration": 0.5,
      "velocity": 100
    },
    {
      "time": 18.375,
      "note": 71,
      "duration": 0.125,
      "velocity": 100
    },
    {
      "time": 18.5,
      "note": 71,
      "duration": 0.125,
      "velocity": 100
    },
    {
      "time": 18.625,
      "note": 74,
      "duration": 0.125,
      "velocity": 100
    },
    {
      "time": 18.75,
      "note": 74,
      "duration": 0.125,
      "velocity": 100
    },
    {
      "time": 18.875,
      "note": 74,
      "duration": 0.125,
      "velocity": 100
    },
    {
      "time": 19.0,
      "note": 74,
      "duration": 0.125,
      "velocity": 100
    },
    {
      "time": 19.125,
      "note": 77,
      "duration": 0.125,
      "velocity": 100
    },
    {
      "time": 19.25,
      "note": 77,
      "duration": 0.125,
      "velocity": 100
    },
    {
      "time": 19.375,
      "note": 76,
      "duration": 0.125,
      "velocity": 100
    },
    {
      "time": 19.5,
      "note": 77,
      "duration": 0.125,
      "velocity": 100
    },
    {
      "time": 19.625,
      "note": 79,
      "duration": 0.25,
      "velocity": 100
    },
    {
      "time": 19.875,
      "note": 76,
      "duration": 0.5,
      "velocity": 100
    },
    {
      "time": 20.375,
      "note": 71,
      "duration": 0.125,
      "velocity": 100
    },
    {
      "time": 20.5,
      "note": 71,
      "duration": 0.125,
      "velocity": 100
    },
    {
      "time": 20.625,
      "note": 74,
      "duration": 0.125,
      "velocity": 100
    },
    {
      "time": 20.75,
      "note": 74,
      "duration": 0.125,
      "velocity": 100
    },
    {
      "time": 20.875,
      "note": 74,
      "duration": 0.125,
      "velocity": 100
    },
    {
      "time": 21.0,
      "note": 74,
      "duration": 0.125,
      "velocity": 100
    },
    {
      "time": 21.125,
      "note": 77,
      "duration": 0.125,
      "velocity": 100
    },
    {
      "time": 21.25,
      "note": 77,
      "duration": 0.125,
      "velocity": 100
    },
    {
      "time": 21.375,
      "note": 76,
      "duration": 0.125,
      "velocity": 100
    },
    {
      "time": 21.5,
      "note": 77,
      "duration": 0.125,
      "velocity": 100
    },
    {
      "time": 20.625,
      "note": 74,
      "duration": 0.5,
      "velocity": 100
    },
    {
      "time": 21.25,
      "note": 71,
      "duration": 0.125,
      "velocity": 100
    },
    {
      "time": 21.375,
      "note": 71,
      "duration": 0.125,
      "velocity": 100
    },
    {
      "time": 21.5,
      "note": 71,
      "duration": 0.125,
      "velocity": 100
    },
    {
      "time": 21.625,
      "note": 74,
      "duration": 0.125,
      "velocity": 100
    },
    {
      "time": 21.75,
      "note": 74,
      "duration": 0.125,
      "velocity": 100
    },
    {
      "time": 21.875,
      "note": 74,
      "duration": 0.125,
      "velocity": 100
    },
    {
      "time": 22.0,
      "note": 76,
      "duration": 0.125,
      "velocity": 100
    },
    {
      "time": 22.125,
      "note": 77,
      "duration": 0.125,
      "velocity": 100
    },
    {
      "time": 22.25,
      "note": 77,
      "duration": 0.125,
      "velocity": 100
    },
    {
      "time": 22.375,
      "note": 76,
      "duration": 0.125,
      "velocity": 100
    },
    {
      "time": 22.5,
      "note": 74,
      "duration": 0.125,
      "velocity": 100
    },
    {
      "time": 22.625,
      "note": 76,
      "duration": 1.0,
      "velocity": 100
    },
    {
      "time": 23.875,
      "note": 76,
      "duration": 0.125,
      "velocity": 100
    },
    {
      "time": 24.0,
      "note": 76,
      "duration": 0.125,
      "velocity": 100
    },
    {
      "time": 24.125,
      "note": 76,
      "duration": 0.125,
      "velocity": 100
    },
    {
      "time": 24.25,
      "note": 76,
      "duration": 0.125,
      "velocity": 100
    },
    {
      "time": 24.375,
      "note": 76,
      "duration": 0.125,
      "velocity": 100
    },
    {
      "time": 24.5,
      "note": 76,
      "duration": 0.125,
      "velocity": 100
    },
    {
      "time": 24.625,
      "note": 76,
      "duration": 0.125,
      "velocity": 100
    },
    {
      "time": 24.75,
      "note": 76,
      "duration": 0.125,
      "velocity": 100
    },
    {
      "time": 24.875,
      "note": 76,
      "duration": 0.125,
      "velocity": 100
    },
    {
      "time": 25.0,
      "note": 71,
      "duration": 0.125,
      "velocity": 100
    },
    {
      "time": 25.125,
      "note": 71,
      "duration": 0.125,
      "velocity": 100
    },
    {
      "time": 25.25,
      "note": 71,
      "duration": 0.125,
      "velocity": 100
    },
    {
      "time": 25.375,
      "note": 76,
      "duration": 0.125,
      "velocity": 100
    },
    {
      "time": 25.5,
      "note": 71,
      "duration": 0.125,
      "velocity": 100
    },
    {
      "time": 25.625,
      "note": 71,
      "duration": 0.125,
      "velocity": 100
    },
    {
      "time": 25.75,
      "note": 71,
      "duration": 0.125,
      "velocity": 100
    },
    {
      "time": 25.875,
      "note": 71,
      "duration": 0.5,
      "velocity": 100
    },
    {
      "time": 26.5,
      "note": 71,
      "duration": 0.125,
      "velocity": 100
    },
    {
      "time": 26.625,
      "note": 71,
      "duration": 0.125,
      "velocity": 100
    },
    {
      "time": 26.75,
      "note": 71,
      "duration": 0.125,
      "velocity": 100
    },
    {
      "time": 26.875,
      "note": 74,
      "duration": 0.375,
      "velocity": 100
    },
    {
      "time": 27.25,
      "note": 74,
      "duration": 0.125,
      "velocity": 100
    },
    {
      "time": 27.375,
      "note": 77,
      "duration": 0.125,
      "velocity": 100
    },
    {
      "time": 27.5,
      "note": 77,
      "duration": 0.125,
      "velocity": 100
    },
    {
      "time": 27.625,
      "note": 76,
      "duration": 0.125,
      "velocity": 100
    },
    {
      "time": 27.75,
      "note": 74,
      "duration": 0.125,
      "velocity": 100
    },
    {
      "time": 27.875,
      "note": 77,
      "duration": 0.25,
      "velocity": 100
    },
    {
      "time": 28.125,
      "note": 76,
      "duration": 0.25,
      "velocity": 100
    },
    {
      "time": 28.375,
      "note": 76,
      "duration": 0.5,
      "velocity": 100
    },
    {
      "time": 28.875,
      "note": 64,
      "duration": 0.5,
      "velocity": 100
    },
    {
      "time": 29.375,
      "note": 77,
      "duration": 0.25,
      "velocity": 100
    },
    {
      "time": 29.625,
      "note": 76,
      "duration": 0.75,
      "velocity": 100
    },
    {
      "time": 30.375,
      "note": 67,
      "duration": 0.25,
      "velocity": 100
    },
    {
      "time": 30.625,
      "note": 71,
      "duration": 0.25,
      "velocity": 100
    },
    {
      "time": 30.875,
      "note": 71,
      "duration": 0.25,
      "velocity": 100
    },
    {
      "time": 31.125,
      "note": 67,
      "duration": 0.25,
      "velocity": 100
    },
    {
      "time": 31.375,
      "note": 64,
      "duration": 0.5,
      "velocity": 100
    },
    {
      "time": 31.875,
      "note": 67,
      "duration": 0.25,
      "velocity": 100
    },
    {
      "time": 32.125,
      "note": 71,
      "duration": 0.25,
      "velocity": 100
    },
    {
      "time": 32.375,
      "note": 71,
      "duration": 0.25,
      "velocity": 100
    },
    {
      "time": 32.625,
      "note": 67,
      "duration": 0.25,
      "velocity": 100
    },
    {
      "time": 32.625,
      "note": 71,
      "duration": 0.125,
      "velocity": 100
    },
    {
      "time": 32.75,
      "note": 71,
      "duration": 0.125,
      "velocity": 100
    }
  ],
  "chords": [
    {
      "time": 0.0,
      "notes": [
        64,
        68,
        71
      ],
      "duration": 1.5654761904761905
    },
    {
      "time": 1.5654761904761905,
      "notes": [
        71,
        75,
        78,
        81
      ],
      "duration": 1.5654761904761905
    },
    {
      "time": 3.130952380952381,
      "notes": [
        64,
        68,
        71
      ],
      "duration": 1.5654761904761905
    },
    {
      "time": 4.696428571428571,
      "notes": [
        71,
        75,
        78,
        81
      ],
      "duration": 1.5654761904761905
    },
    {
      "time": 6.261904761904762,
      "notes": [
        64,
        67,
        71
      ],
      "duration": 1.5654761904761905
    },
    {
      "time": 7.8273809523809526,
      "notes": [
        60,
        64,
        67
      ],
      "duration": 1.5654761904761905
    },
    {
      "time": 9.392857142857142,
      "notes": [
        64,
        67,
        71
      ],
      "duration": 1.5654761904761905
    },
    {
      "time": 10.958333333333334,
      "notes": [
        60,
        64,
        67
      ],
      "duration": 1.5654761904761905
    },
    {
      "time": 12.523809523809524,
      "notes": [
        64,
        67,
        71
      ],
      "duration": 1.5654761904761905
    },
    {
      "time": 14.089285714285714,
      "notes": [
        71,
        75,
        78,
        81
      ],
      "duration": 1.5654761904761905
    },
    {
      "time": 15.654761904761905,
      "notes": [
        71,
        75,
        78,
        81
      ],
      "duration": 1.5654761904761905
    },
    {
      "time": 17.220238095238095,
      "notes": [
        64,
        67,
        71
      ],
      "duration": 1.5654761904761905
    },
    {
      "time": 18.785714285714285,
      "notes": [
        71,
        75,
        78,
        81
      ],
      "duration": 1.5654761904761905
    },
    {
      "time": 20.351190476190474,
      "notes": [
        64,
        67,
        71
      ],
      "duration": 1.5654761904761905
    },
    {
      "time": 21.916666666666668,
      "notes": [
        64,
        67,
        71
      ],
      "duration": 1.5654761904761905
    },
    {
      "time": 23.482142857142858,
      "notes": [
        71,
        75,
        78,
        81
      ],
      "duration": 1.5654761904761905
    },
    {
      "time": 25.047619047619047,
      "notes": [
        64,
        67,
        71
      ],
      "duration": 1.5654761904761905
    },
    {
      "time": 26.613095238095237,
      "notes": [
        64,
        67,
        71
      ],
      "duration": 1.5654761904761905
    },
    {
      "time": 28.178571428571427,
      "notes": [
        60,
        64,
        67
      ],
      "duration": 1.5654761904761905
    },
    {
      "time": 29.74404761904762,
      "notes": [
        64,
        67,
        71
      ],
      "duration": 1.5654761904761905
    },
    {
      "time": 31.30952380952381,
      "notes": [
        60,
        64,
        67
      ],
      "duration": 1.5654761904761905
    }
  ]
}