{
  "title": "Nunca me faltes",
  "artist": "Antonio Rios",
  "bpm": 120,
  "duration": 64.25,
  "audioFile": "",
  "notes": [
    {
      "time": 0.0,
      "note": 71,
      "duration": 0.125,
      "velocity": 100
    },
    {
      "time": 0.125,
      "note": 74,
      "duration": 0.25,
      "velocity": 100
    },
    {
      "time": 0.375,
      "note": 76,
      "duration": 0.125,
      "velocity": 100
    },
    {
      "time": 0.5,
      "note": 79,
      "duration": 0.125,
      "velocity": 100
    },
    {
      "time": 0.75,
      "note": 79,
      "duration": 0.25,
      "velocity": 100
    },
    {
      "time": 1.0,
      "note": 77,
      "duration": 0.125,
      "velocity": 100
    },
    {
      "time": 1.125,
      "note": 79,
      "duration": 0.125,
      "velocity": 100
    },
    {
      "time": 1.25,
      "note": 77,
      "duration": 0.125,
      "velocity": 100
    },
    {
      "time": 1.375,
      "note": 79,
      "duration": 0.125,
      "velocity": 100
    },
    {
      "time": 1.5,
      "note": 77,
      "duration": 0.125,
      "velocity": 100
    },
    {
      "time": 1.625,
      "note": 76,
      "duration": 0.375,
      "velocity": 100
    },
    {
      "time": 2.0,
      "note": 71,
      "duration": 0.125,
      "velocity": 100
    },
    {
      "time": 2.125,
      "note": 74,
      "duration": 0.25,
      "velocity": 100
    },
    {
      "time": 2.375,
      "note": 76,
      "duration": 0.125,
      "velocity": 100
    },
    {
      "time": 2.5,
      "note": 79,
      "duration": 0.125,
      "velocity": 100
    },
    {
      "time": 2.75,
      "note": 79,
      "duration": 0.25,
      "velocity": 100
    },
    {
      "time": 3.0,
      "note": 77,
      "duration": 0.125,
      "velocity": 100
    },
    {
      "time": 3.125,
      "note": 79,
      "duration": 0.125,
      "velocity": 100
    },
    {
      "time": 3.25,
      "note": 77,
      "duration": 0.125,
      "velocity": 100
    },
    {
      "time": 3.375,
      "note": 79,
      "duration": 0.125,
      "velocity": 100
    },
    {
      "time": 3.5,
      "note": 77,
      "duration": 0.125,
      "velocity": 100
    },
    {
      "time": 3.625,
      "note": 72,
      "duration": 0.5,
      "velocity": 100
    },
    {
      "time": 4.625,
      "note": 81,
      "duration": 0.125,
      "velocity": 100
    },
    {
      "time": 4.75,
      "note": 79,
      "duration": 0.125,
      "velocity": 100
    },
    {
      "time": 4.875,
      "note": 77,
      "duration": 0.125,
      "velocity": 100
    },
    {
      "time": 5.0,
      "note": 76,
      "duration": 0.125,
      "velocity": 100
    },
    {
      "time": 5.125,
      "note": 74,
      "duration": 0.25,
      "velocity": 100
    },
    {
      "time": 5.375,
      "note": 72,
      "duration": 0.125,
      "velocity": 100
    },
    {
      "time": 5.5,
      "note": 74,
      "duration": 0.125,
      "velocity": 100
    },
    {
      "time": 6.0,
      "note": 74,
      "duration": 0.375,
      "velocity": 100
    },
    {
      "time": 7.125,
      "note": 81,
      "duration": 0.125,
      "velocity": 100
    },
    {
      "time": 7.25,
      "note": 79,
      "duration": 0.125,
      "velocity": 100
    },
    {
      "time": 7.375,
      "note": 77,
      "duration": 0.125,
      "velocity": 100
    },
    {
      "time": 7.5,
      "note": 76,
      "duration": 0.125,
      "velocity": 100
    },
    {
      "time": 7.625,
      "note": 74,
      "duration": 0.25,
      "velocity": 100
    },
    {
      "time": 7.875,
      "note": 72,
      "duration": 0.125,
      "velocity": 100
    },
    {
      "time": 8.0,
      "note": 74,
      "duration": 0.125,
      "velocity": 100
    },
    {
      "time": 8.25,
      "note": 74,
      "duration": 0.375,
      "velocity": 100
    },
    {
      "time": 8.75,
      "note": 79,
      "duration": 0.125,
      "velocity": 100
    },
    {
      "time": 8.875,
      "note": 81,
      "duration": 0.125,
      "velocity": 100
    },
    {
      "time": 9.0,
      "note": 81,
      "duration": 0.125,
      "velocity": 100
    },
    {
      "time": 9.125,
      "note": 83,
      "duration": 0.5,
      "velocity": 100
    },
    {
      "time": 9.75,
      "note": 83,
      "duration": 0.125,
      "velocity": 100
    },
    {
      "time": 9.875,
      "note": 84,
      "duration": 0.125,
      "velocity": 100
    },
    {
      "time": 10.0,
      "note": 86,
      "duration": 0.125,
      "velocity": 100
    },
    {
      "time": 10.125,
      "note": 86,
      "duration": 1.0,
      "velocity": 100
    },
    {
      "time": 11.125,
      "note": 86,
      "duration": 0.25,
      "velocity": 100
    },
    {
      "time": 11.375,
      "note": 84,
      "duration": 0.25,
      "velocity": 100
    },
    {
      "time": 11.625,
      "note": 83,
      "duration": 0.25,
      "velocity": 100
    },
    {
      "time": 11.875,
      "note": 81,
      "duration": 0.25,
      "velocity": 100
    },
    {
      "time": 12.25,
      "note": 71,
      "duration": 0.125,
      "velocity": 100
    },
    {
      "time": 12.375,
      "note": 71,
      "duration": 0.25,
      "velocity": 100
    },
    {
      "time": 12.625,
      "note": 72,
      "duration": 0.25,
      "velocity": 100
    },
    {
      "time": 12.875,
      "note": 74,
      "duration": 0.25,
      "velocity": 100
    },
    {
      "time": 13.125,
      "note": 83,
      "duration": 0.25,
      "velocity": 100
    },
    {
      "time": 13.375,
      "note": 83,
      "duration": 0.125,
      "velocity": 100
    },
    {
      "time": 13.5,
      "note": 83,
      "duration": 0.125,
      "velocity": 100
    },
    {
      "time": 13.625,
      "note": 83,
      "duration": 0.25,
      "velocity": 100
    },
    {
      "time": 13.875,
      "note": 83,
      "duration": 0.125,
      "velocity": 100
    },
    {
      "time": 14.0,
      "note": 83,
      "duration": 0.125,
      "velocity": 100
    },
    {
      "time": 14.125,
      "note": 83,
      "duration": 0.25,
      "velocity": 100
    },
    {
      "time": 14.375,
      "note": 83,
      "duration": 0.75,
      "velocity": 100
    },
    {
      "time": 15.125,
      "note": 83,
      "duration": 0.25,
      "velocity": 100
    },
    {
      "time": 15.375,
      "note": 83,
      "duration": 0.125,
      "velocity": 100
    },
    {
      "time": 15.5,
      "note": 83,
      "duration": 0.125,
      "velocity": 100
    },
    {
      "time": 15.75,
      "note": 83,
      "duration": 0.25,
      "velocity": 100
    },
    {
      "time": 16.0,
      "note": 83,
      "duration": 0.125,
      "velocity": 100
    },
    {
      "time": 16.125,
      "note": 83,
      "duration": 0.25,
      "velocity": 100
    },
    {
      "time": 16.375,
      "note": 83,
      "duration": 0.25,
      "velocity": 100
    },
    {
      "time": 16.625,
      "note": 83,
      "duration": 0.375,
      "velocity": 100
    },
    {
      "time": 17.0,
      "note": 83,
      "duration": 0.125,
      "velocity": 100
    },
    {
      "time": 17.125,
      "note": 83,
      "duration": 0.25,
      "velocity": 100
    },
    {
      "time": 17.375,
      "note": 83,
      "duration": 0.125,
      "velocity": 100
    },
    {
      "time": 17.5,
      "note": 83,
      "duration": 0.125,
      "velocity": 100
    },
    {
      "time": 17.625,
      "note": 83,
      "duration": 0.125,
      "velocity": 100
    },
    {
      "time": 17.75,
      "note": 81,
      "duration": 0.125,
      "velocity": 100
    },
    {
      "time": 17.875,
      "note": 83,
      "duration": 0.25,
      "velocity": 100
    },
    {
      "time": 18.125,
      "note": 84,
      "duration": 1.0,
      "velocity": 100
    },
    {
      "time": 19.125,
      "note": 84,
      "duration": 0.5,
      "velocity": 100
    },
    {
      "time": 19.625,
      "note": 83,
      "duration": 0.25,
      "velocity": 100
    },
    {
      "time": 19.875,
      "note": 84,
      "duration": 0.25,
      "velocity": 100
    },
    {
      "time": 20.125,
      "note": 81,
      "duration": 1.0,
      "velocity": 100
    },
    {
      "time": 21.125,
      "note": 81,
      "duration": 0.25,
      "velocity": 100
    },
    {
      "time": 21.375,
      "note": 81,
      "duration": 0.125,
      "velocity": 100
    },
    {
      "time": 21.5,
      "note": 81,
      "duration": 0.125,
      "velocity": 100
    },
    {
      "time": 21.625,
      "note": 81,
      "duration": 0.25,
      "velocity": 100
    },
    {
      "time": 21.875,
      "note": 81,
      "duration": 0.125,
      "velocity": 100
    },
    {
      "time": 22.0,
      "note": 81,
      "duration": 0.125,
      "velocity": 100
    },
    {
      "time": 22.375,
      "note": 88,
      "duration": 0.25,
      "velocity": 100
    },
    {
      "time": 22.625,
      "note": 84,
      "duration": 0.125,
      "velocity": 100
    },
    {
      "time": 22.75,
      "note": 84,
      "duration": 0.25,
      "velocity": 100
    },
    {
      "time": 23.0,
      "note": 88,
      "duration": 0.5,
      "velocity": 100
    },
    {
      "time": 22.125,
      "note": 81,
      "duration": 0.25,
      "velocity": 100
    },
    {
      "time": 22.375,
      "note": 81,
      "duration": 0.25,
      "velocity": 100
    },
    {
      "time": 23.0,
      "note": 74,
      "duration": 0.25,
      "velocity": 100
    },
    {
      "time": 23.25,
      "note": 81,
      "duration": 0.25,
      "velocity": 100
    },
    {
      "time": 23.25,
      "note": 81,
      "duration": 0.25,
      "velocity": 100
    },
    {
      "time": 23.5,
      "note": 81,
      "duration": 0.125,
      "velocity": 100
    },
    {
      "time": 23.625,
      "note": 81,
      "duration": 0.125,
      "velocity": 100
    },
    {
      "time": 23.75,
      "note": 81,
      "duration": 0.25,
      "velocity": 100
    },
    {
      "time": 24.0,
      "note": 81,
      "duration": 0.125,
      "velocity": 100
    },
    {
      "time": 24.125,
      "note": 81,
      "duration": 0.125,
      "velocity": 100
    },
    {
      "time": 24.5,
      "note": 88,
      "duration": 0.25,
      "velocity": 100
    },
    {
      "time": 24.75,
      "note": 84,
      "duration": 0.125,
      "velocity": 100
    },
    {
      "time": 24.875,
      "note": 84,
      "duration": 0.25,
      "velocity": 100
    },
    {
      "time": 25.125,
      "note": 88,
      "duration": 0.5,
      "velocity": 100
    },
    {
      "time": 24.25,
      "note": 81,
      "duration": 0.25,
      "velocity": 100
    },
    {
      "time": 24.5,
      "note": 81,
      "duration": 0.25,
      "velocity": 100
    },
    {
      "time": 25.25,
      "note": 81,
      "duration": 0.125,
      "velocity": 100
    },
    {
      "time": 25.375,
      "note": 81,
      "duration": 0.25,
      "velocity": 100
    },
    {
      "time": 25.625,
      "note": 81,
      "duration": 0.125,
      "velocity": 100
    },
    {
      "time": 25.75,
      "note": 81,
      "duration": 0.125,
      "velocity": 100
    },
    {
      "time": 25.875,
      "note": 79,
      "duration": 0.25,
      "velocity": 100
    },
    {
      "time": 26.125,
      "note": 81,
      "duration": 0.125,
      "velocity": 100
    },
    {
      "time": 26.25,
      "note": 84,
      "duration": 1.0,
      "velocity": 100
    },
    {
      "time": 27.25,
      "note": 84,
      "duration": 0.5,
      "velocity": 100
    },
    {
      "time": 27.75,
      "note": 86,
      "duration": 0.25,
      "velocity": 100
    },
    {
      "time": 28.0,
      "note": 84,
      "duration": 0.25,
      "velocity": 100
    },
    {
      "time": 28.25,
      "note": 83,
      "duration": 1.0,
      "velocity": 100
    },
    {
      "time": 29.25,
      "note": 83,
      "duration": 1.0,
      "velocity": 100
    },
    {
      "time": 30.75,
      "note": 83,
      "duration": 0.125,
      "velocity": 100
    },
    {
      "time": 30.875,
      "note": 83,
      "duration": 0.125,
      "velocity": 100
    },
    {
      "time": 31.125,
      "note": 83,
      "duration": 0.125,
      "velocity": 100
    },
    {
      "time": 31.25,
      "note": 83,
      "duration": 0.25,
      "velocity": 100
    },
    {
      "time": 31.5,
      "note": 88,
      "duration": 1.0,
      "velocity": 100
    },
    {
      "time": 32.5,
      "note": 88,
      "duration": 1.0,
      "velocity": 100
    },
    {
      "time": 33.5,
      "note": 86,
      "duration": 1.0,
      "velocity": 100
    },
    {
      "time": 34.5,
      "note": 86,
      "duration": 0.375,
      "velocity": 100
    },
    {
      "time": 34.875,
      "note": 88,
      "duration": 0.125,
      "velocity": 100
    },
    {
      "time": 35.0,
      "note": 88,
      "duration": 0.25,
      "velocity": 100
    },
    {
      "time": 35.25,
      "note": 86,
      "duration": 0.25,
      "velocity": 100
    },
    {
      "time": 35.5,
      "note": 86,
      "duration": 0.375,
      "velocity": 100
    },
    {
      "time": 35.875,
      "note": 83,
      "duration": 0.125,
      "velocity": 100
    },
    {
      "time": 36.0,
      "note": 83,
      "duration": 0.5,
      "velocity": 100
    },
    {
      "time": 36.5,
      "note": 88,
      "duration": 0.125,
      "velocity": 100
    },
    {
      "time": 36.625,
      "note": 89,
      "duration": 0.125,
      "velocity": 100
    },
    {
      "time": 36.75,
      "note": 91,
      "duration": 0.125,
      "velocity": 100
    },
    {
      "time": 36.875,
      "note": 89,
      "duration": 0.125,
      "velocity": 100
    },
    {
      "time": 37.125,
      "note": 89,
      "duration": 0.25,
      "velocity": 100
    },
    {
      "time": 37.375,
      "note": 88,
      "duration": 0.25,
      "velocity": 100
    },
    {
      "time": 36.5,
      "note": 83,
      "duration": 0.5,
      "velocity": 100
    },
    {
      "time": 37.5,
      "note": 91,
      "duration": 0.25,
      "velocity": 100
    },
    {
      "time": 37.75,
      "note": 91,
      "duration": 0.125,
      "velocity": 100
    },
    {
      "time": 37.875,
      "note": 89,
      "duration": 0.125,
      "velocity": 100
    },
    {
      "time": 38.0,
      "note": 89,
      "duration": 0.5,
      "velocity": 100
    },
    {
      "time": 37.75,
      "note": 71,
      "duration": 0.125,
      "velocity": 100
    },
    {
      "time": 37.875,
      "note": 72,
      "duration": 0.125,
      "velocity": 100
    },
    {
      "time": 38.0,
      "note": 71,
      "duration": 0.25,
      "velocity": 100
    },
    {
      "time": 37.75,
      "note": 83,
      "duration": 0.125,
      "velocity": 100
    },
    {
      "time": 37.875,
      "note": 83,
      "duration": 0.125,
      "velocity": 100
    },
    {
      "time": 38.0,
      "note": 83,
      "duration": 0.125,
      "velocity": 100
    },
    {
      "time": 38.125,
      "note": 83,
      "duration": 0.125,
      "velocity": 100
    },
    {
      "time": 38.25,
      "note": 83,
      "duration": 0.25,
      "velocity": 100
    },
    {
      "time": 38.5,
      "note": 88,
      "duration": 1.0,
      "velocity": 100
    },
    {
      "time": 39.5,
      "note": 88,
      "duration": 0.5,
      "velocity": 100
    },
    {
      "time": 40.0,
      "note": 91,
      "duration": 0.5,
      "velocity": 100
    },
    {
      "time": 40.5,
      "note": 89,
      "duration": 1.0,
      "velocity": 100
    },
    {
      "time": 41.5,
      "note": 86,
      "duration": 0.375,
      "velocity": 100
    },
    {
      "time": 41.875,
      "note": 88,
      "duration": 0.125,
      "velocity": 100
    },
    {
      "time": 42.0,
      "note": 88,
      "duration": 0.25,
      "velocity": 100
    },
    {
      "time": 42.25,
      "note": 86,
      "duration": 0.25,
      "velocity": 100
    },
    {
      "time": 42.5,
      "note": 86,
      "duration": 0.375,
      "velocity": 100
    },
    {
      "time": 42.875,
      "note": 83,
      "duration": 0.125,
      "velocity": 100
    },
    {
      "time": 43.0,
      "note": 83,
      "duration": 0.5,
      "velocity": 100
    },
    {
      "time": 43.5,
      "note": 83,
      "duration": 0.125,
      "velocity": 100
    },
    {
      "time": 43.625,
      "note": 88,
      "duration": 0.125,
      "velocity": 100
    },
    {
      "time": 43.625,
      "note": 89,
      "duration": 0.125,
      "velocity": 100
    },
    {
      "time": 43.75,
      "note": 91,
      "duration": 0.125,
      "velocity": 100
    },
    {
      "time": 43.875,
      "note": 89,
      "duration": 0.125,
      "velocity": 100
    },
    {
      "time": 44.125,
      "note": 89,
      "duration": 0.25,
      "velocity": 100
    },
    {
      "time": 44.375,
      "note": 88,
      "duration": 0.25,
      "velocity": 100
    },
    {
      "time": 44.75,
      "note": 84,
      "duration": 0.25,
      "velocity": 100
    },
    {
      "time": 45.0,
      "note": 84,
      "duration": 0.125,
      "velocity": 100
    },
    {
      "time": 44.75,
      "note": 79,
      "duration": 0.125,
      "velocity": 100
    },
    {
      "time": 44.875,
      "note": 79,
      "duration": 0.125,
      "velocity": 100
    },
    {
      "time": 45.0,
      "note": 79,
      "duration": 0.125,
      "velocity": 100
    },
    {
      "time": 45.125,
      "note": 79,
      "duration": 0.125,
      "velocity": 100
    },
    {
      "time": 45.25,
      "note": 79,
      "duration": 0.25,
      "velocity": 100
    },
    {
      "time": 45.0,
      "note": 84,
      "duration": 0.5,
      "velocity": 100
    },
    {
      "time": 44.5,
      "note": 84,
      "duration": 0.5,
      "velocity": 100
    },
    {
      "time": 45.0,
      "note": 84,
      "duration": 0.5,
      "velocity": 100
    },
    {
      "time": 45.5,
      "note": 84,
      "duration": 0.5,
      "velocity": 100
    },
    {
      "time": 46.0,
      "note": 88,
      "duration": 0.25,
      "velocity": 100
    },
    {
      "time": 46.25,
      "note": 88,
      "duration": 0.25,
      "velocity": 100
    },
    {
      "time": 46.5,
      "note": 89,
      "duration": 0.25,
      "velocity": 100
    },
    {
      "time": 46.75,
      "note": 86,
      "duration": 0.25,
      "velocity": 100
    },
    {
      "time": 47.0,
      "note": 83,
      "duration": 0.5,
      "velocity": 100
    },
    {
      "time": 47.5,
      "note": 83,
      "duration": 1.0,
      "velocity": 100
    },
    {
      "time": 48.5,
      "note": 74,
      "duration": 0.125,
      "velocity": 100
    },
    {
      "time": 48.625,
      "note": 74,
      "duration": 0.125,
      "velocity": 100
    },
    {
      "time": 48.75,
      "note": 74,
      "duration": 0.125,
      "velocity": 100
    },
    {
      "time": 48.875,
      "note": 74,
      "duration": 0.125,
      "velocity": 100
    },
    {
      "time": 49.0,
      "note": 74,
      "duration": 0.125,
      "velocity": 100
    },
    {
      "time": 49.125,
      "note": 74,
      "duration": 0.125,
      "velocity": 100
    },
    {
      "time": 49.25,
      "note": 74,
      "duration": 0.125,
      "velocity": 100
    },
    {
      "time": 49.375,
      "note": 74,
      "duration": 0.125,
      "velocity": 100
    },
    {
      "time": 49.5,
      "note": 74,
      "duration": 0.125,
      "velocity": 100
    },
    {
      "time": 49.625,
      "note": 74,
      "duration": 0.125,
      "velocity": 100
    },
    {
      "time": 49.75,
      "note": 74,
      "duration": 0.125,
      "velocity": 100
    },
    {
      "time": 49.875,
      "note": 74,
      "duration": 0.125,
      "velocity": 100
    },
    {
      "time": 50.0,
      "note": 77,
      "duration": 0.25,
      "velocity": 100
    },
    {
      "time": 50.25,
      "note": 74,
      "duration": 0.25,
      "velocity": 100
    },
    {
      "time": 50.5,
      "note": 76,
      "duration": 0.25,
      "velocity": 100
    },
    {
      "time": 50.75,
      "note": 76,
      "duration": 0.25,
      "velocity": 100
    },
    {
      "time": 51.0,
      "note": 76,
      "duration": 0.125,
      "velocity": 100
    },
    {
      "time": 51.125,
      "note": 79,
      "duration": 0.125,
      "velocity": 100
    },
    {
      "time": 51.25,
      "note": 77,
      "duration": 0.125,
      "velocity": 100
    },
    {
      "time": 51.375,
      "note": 76,
      "duration": 0.125,
      "velocity": 100
    },
    {
      "time": 51.5,
      "note": 76,
      "duration": 0.5,
      "velocity": 100
    },
    {
      "time": 52.5,
      "note": 74,
      "duration": 0.125,
      "velocity": 100
    },
    {
      "time": 52.625,
      "note": 74,
      "duration": 0.125,
      "velocity": 100
    },
    {
      "time": 52.75,
      "note": 74,
      "duration": 0.125,
      "velocity": 100
    },
    {
      "time": 52.875,
      "note": 74,
      "duration": 0.125,
      "velocity": 100
    },
    {
      "time": 53.0,
      "note": 74,
      "duration": 0.125,
      "velocity": 100
    },
    {
      "time": 53.125,
      "note": 74,
      "duration": 0.125,
      "velocity": 100
    },
    {
      "time": 53.25,
      "note": 74,
      "duration": 0.125,
      "velocity": 100
    },
    {
      "time": 53.375,
      "note": 74,
      "duration": 0.125,
      "velocity": 100
    },
    {
      "time": 53.5,
      "note": 74,
      "duration": 0.125,
      "velocity": 100
    },
    {
      "time": 53.625,
      "note": 74,
      "duration": 0.125,
      "velocity": 100
    },
    {
      "time": 53.75,
      "note": 74,
      "duration": 0.125,
      "velocity": 100
    },
    {
      "time": 53.875,
      "note": 74,
      "duration": 0.125,
      "velocity": 100
    },
    {
      "time": 54.0,
      "note": 77,
      "duration": 0.25,
      "velocity": 100
    },
    {
      "time": 54.25,
      "note": 74,
      "duration": 0.25,
      "velocity": 100
    },
    {
      "time": 54.5,
      "note": 72,
      "duration": 0.5,
      "velocity": 100
    },
    {
      "time": 55.125,
      "note": 67,
      "duration": 0.125,
      "velocity": 100
    },
    {
      "time": 55.25,
      "note": 69,
      "duration": 0.125,
      "velocity": 100
    },
    {
      "time": 55.375,
      "note": 72,
      "duration": 0.125,
      "velocity": 100
    },
    {
      "time": 55.5,
      "note": 71,
      "duration": 1.0,
      "velocity": 100
    },
    {
      "time": 57.0,
      "note": 91,
      "duration": 0.25,
      "velocity": 100
    },
    {
      "time": 57.25,
      "note": 91,
      "duration": 0.125,
      "velocity": 100
    },
    {
      "time": 57.375,
      "note": 91,
      "duration": 0.125,
      "velocity": 100
    },
    {
      "time": 57.5,
      "note": 91,
      "duration": 0.25,
      "velocity": 100
    },
    {
      "time": 57.75,
      "note": 88,
      "duration": 0.75,
      "velocity": 100
    },
    {
      "time": 58.0,
      "note": 71,
      "duration": 0.125,
      "velocity": 100
    },
    {
      "time": 58.125,
      "note": 76,
      "duration": 0.125,
      "velocity": 100
    },
    {
      "time": 58.25,
      "note": 79,
      "duration": 0.125,
      "velocity": 100
    },
    {
      "time": 58.875,
      "note": 91,
      "duration": 0.25,
      "velocity": 100
    },
    {
      "time": 59.125,
      "note": 91,
      "duration": 0.125,
      "velocity": 100
    },
    {
      "time": 59.25,
      "note": 91,
      "duration": 0.125,
      "velocity": 100
    },
    {
      "time": 58.375,
      "note": 77,
      "duration": 0.25,
      "velocity": 100
    },
    {
      "time": 58.625,
      "note": 71,
      "duration": 0.125,
      "velocity": 100
    },
    {
      "time": 58.75,
      "note": 79,
      "duration": 0.125,
      "velocity": 100
    },
    {
      "time": 58.875,
      "note": 79,
      "duration": 0.5,
      "velocity": 100
    },
    {
      "time": 59.375,
      "note": 91,
      "duration": 0.25,
      "velocity": 100
    },
    {
      "time": 59.625,
      "note": 88,
      "duration": 0.75,
      "velocity": 100
    },
    {
      "time": 59.875,
      "note": 72,
      "duration": 0.125,
      "velocity": 100
    },
    {
      "time": 60.0,
      "note": 76,
      "duration": 0.125,
      "velocity": 100
    },
    {
      "time": 60.125,
      "note": 79,
      "duration": 0.125,
      "velocity": 100
    },
    {
      "time": 60.75,
      "note": 91,
      "duration": 0.125,
      "velocity": 100
    },
    {
      "time": 60.875,
      "note": 91,
      "duration": 0.25,
      "velocity": 100
    },
    {
      "time": 61.125,
      "note": 91,
      "duration": 0.125,
      "velocity": 100
    },
    {
      "time": 60.25,
      "note": 77,
      "duration": 0.25,
      "velocity": 100
    },
    {
      "time": 60.5,
      "note": 76,
      "duration": 0.125,
      "velocity": 100
    },
    {
      "time": 60.625,
      "note": 84,
      "duration": 0.125,
      "velocity": 100
    },
    {
      "time": 60.75,
      "note": 84,
      "duration": 0.5,
      "velocity": 100
    },
    {
      "time": 61.25,
      "note": 86,
      "duration": 1.0,
      "velocity": 100
    },
    {
      "time": 62.0,
      "note": 77,
      "duration": 0.25,
      "velocity": 100
    },
    {
      "time": 62.25,
      "note": 86,
      "duration": 0.25,
      "velocity": 100
    },
    {
      "time": 62.5,
      "note": 81,
      "duration": 0.125,
      "velocity": 100
    },
    {
      "time": 62.625,
      "note": 77,
      "duration": 0.125,
      "velocity": 100
    },
    {
      "time": 62.75,
      "note": 88,
      "duration": 0.5,
      "velocity": 100
    },
    {
      "time": 62.75,
      "note": 89,
      "duration": 0.125,
      "velocity": 100
    },
    {
      "time": 62.875,
      "note": 89,
      "duration": 0.125,
      "velocity": 100
    },
    {
      "time": 63.0,
      "note": 89,
      "duration": 0.25,
      "velocity": 100
    },
    {
      "time": 63.25,
      "note": 89,
      "duration": 0.75,
      "velocity": 100
    },
    {
      "time": 64.0,
      "note": 86,
      "duration": 0.25,
      "velocity": 100
    },
    {
      "time": 64.25,
      "note": 86,
      "duration": 0.5,
      "velocity": 100
    },
    {
      "time": 63.75,
      "note": 91,
      "duration": 0.25,
      "velocity": 100
    },
    {
      "time": 64.0,
      "note": 91,
      "duration": 0.125,
      "velocity": 100
    },
    {
      "time": 64.125,
      "note": 91,
      "duration": 0.125,
      "velocity": 100
    },
    {
      "time": 63.25,
      "note": 83,
      "duration": 0.25,
      "velocity": 100
    },
    {
      "time": 63.5,
      "note": 81,
      "duration": 0.125,
      "velocity": 100
    },
    {
      "time": 63.625,
      "note": 83,
      "duration": 0.125,
      "velocity": 100
    },
    {
      "time": 63.75,
      "note": 83,
      "duration": 0.5,
      "velocity": 100
    }
  ],
  "chords": [
    {
      "time": 0.0,
      "notes": [
        64,
        67,
        71
      ],
      "duration": 1.946969696969697
    },
    {
      "time": 1.946969696969697,
      "notes": [
        60,
        64,
        67
      ],
      "duration": 1.946969696969697
    },
    {
      "time": 3.893939393939394,
      "notes": [
        62,
        66,
        69
      ],
      "duration": 1.946969696969697
    },
    {
      "time": 5.840909090909091,
      "notes": [
        67,
        71,
        74
      ],
      "duration": 1.946969696969697
    },
    {
      "time": 7.787878787878788,
      "notes": [
        71,
        75,
        78
      ],
      "duration": 1.946969696969697
    },
    {
      "time": 9.734848484848484,
      "notes": [
        71,
        75,
        78
      ],
      "duration": 1.946969696969697
    },
    {
      "time": 11.681818181818182,
      "notes": [
        64,
        67,
        71
      ],
      "duration": 1.946969696969697
    },
    {
      "time": 13.628787878787879,
      "notes": [
        60,
        64,
        67
      ],
      "duration": 1.946969696969697
    },
    {
      "time": 15.575757575757576,
      "notes": [
        62,
        66,
        69
      ],
      "duration": 1.946969696969697
    },
    {
      "time": 17.522727272727273,
      "notes": [
        60,
        64,
        67
      ],
      "duration": 1.946969696969697
    },
    {
      "time": 19.46969696969697,
      "notes": [
        71,
        75,
        78
      ],
      "duration": 1.946969696969697
    },
    {
      "time": 21.416666666666668,
      "notes": [
        64,
        67,
        71
      ],
      "duration": 1.946969696969697
    },
    {
      "time": 23.363636363636363,
      "notes": [
        60,
        64,
        67
      ],
      "duration": 1.946969696969697
    },
    {
      "time": 25.310606060606062,
      "notes": [
        62,
        66,
        69
      ],
      "duration": 1.946969696969697
    },
    {
      "time": 27.257575757575758,
      "notes": [
        67,
        71,
        74
      ],
      "duration": 1.946969696969697
    },
    {
      "time": 29.204545454545457,
      "notes": [
        62,
        66,
        69
      ],
      "duration": 1.946969696969697
    },
    {
      "time": 31.151515151515152,
      "notes": [
        64,
        67,
        71
      ],
      "duration": 1.946969696969697
    },
    {
      "time": 33.09848484848485,
      "notes": [
        60,
        64,
        67
      ],
      "duration": 1.946969696969697
    },
    {
      "time": 35.04545454545455,
      "notes": [
        62,
        66,
        69
      ],
      "duration": 1.946969696969697
    },
    {
      "time": 36.99242424242424,
      "notes": [
        67,
        71,
        74
      ],
      "duration": 1.946969696969697
    },
    {
      "time": 38.93939393939394,
      "notes": [
        62,
        66,
        69
      ],
      "duration": 1.946969696969697
    },
    {
      "time": 40.88636363636364,
      "notes": [
        64,
        67,
        71
      ],
      "duration": 1.946969696969697
    },
    {
      "time": 42.833333333333336,
      "notes": [
        60,
        64,
        67
      ],
      "duration": 1.946969696969697
    },
    {
      "time": 44.78030303030303,
      "notes": [
        71,
        75,
        78
      ],
      "duration": 1.946969696969697
    },
    {
      "time": 46.72727272727273,
      "notes": [
        62,
        66,
        69
      ],
      "duration": 1.946969696969697
    },
    {
      "time": 48.67424242424242,
      "notes": [
        64,
        67,
        71
      ],
      "duration": 1.946969696969697
    },
    {
      "time": 50.621212121212125,
      "notes": [
        62,
        66,
        69
      ],
      "duration": 1.946969696969697
    },
    {
      "time": 52.56818181818182,
      "notes": [
        60,
        64,
        67
      ],
      "duration": 1.946969696969697
    },
    {
      "time": 54.515151515151516,
      "notes": [
        71,
        75,
        78
      ],
      "duration": 1.946969696969697
    },
    {
      "time": 56.46212121212121,
      "notes": [
        64,
        67,
        71
      ],
      "duration": 1.946969696969697
    },
    {
      "time": 58.409090909090914,
      "notes": [
        60,
        64,
        67
      ],
      "duration": 1.946969696969697
    },
    {
      "time": 60.35606060606061,
      "notes": [
        62,
        66,
        69
      ],
      "duration": 1.946969696969697
    },
    {
      "time": 62.303030303030305,
      "notes": [
        71,
        75,
        78
      ],
      "duration": 1.946969696969697
    }
  ]
}