{
  "title": "Decile que lo quiero",
  "artist": "Los Sultanes",
  "bpm": 120,
  "duration": 41.75,
  "audioFile": "",
  "notes": [
    {
      "time": 0.25,
      "note": 72,
      "duration": 0.125,
      "velocity": 100
    },
    {
      "time": 0.375,
      "note": 72,
      "duration": 0.25,
      "velocity": 100
    },
    {
      "time": 0.625,
      "note": 72,
      "duration": 0.125,
      "velocity": 100
    },
    {
      "time": 0.75,
      "note": 75,
      "duration": 0.125,
      "velocity": 100
    },
    {
      "time": 0.875,
      "note": 75,
      "duration": 0.25,
      "velocity": 100
    },
    {
      "time": 1.125,
      "note": 75,
      "duration": 0.125,
      "velocity": 100
    },
    {
      "time": 1.25,
      "note": 74,
      "duration": 0.25,
      "velocity": 100
    },
    {
      "time": 1.5,
      "note": 67,
      "duration": 0.25,
      "velocity": 100
    },
    {
      "time": 1.75,
      "note": 70,
      "duration": 1.0,
      "velocity": 100
    },
    {
      "time": 2.75,
      "note": 70,
      "duration": 1.0,
      "velocity": 100
    },
    {
      "time": 3.75,
      "note": 70,
      "duration": 0.5,
      "velocity": 100
    },
    {
      "time": 4.25,
      "note": 72,
      "duration": 0.125,
      "velocity": 100
    },
    {
      "time": 4.375,
      "note": 72,
      "duration": 0.25,
      "velocity": 100
    },
    {
      "time": 4.625,
      "note": 72,
      "duration": 0.125,
      "velocity": 100
    },
    {
      "time": 4.75,
      "note": 75,
      "duration": 0.125,
      "velocity": 100
    },
    {
      "time": 4.875,
      "note": 75,
      "duration": 0.25,
      "velocity": 100
    },
    {
      "time": 5.125,
      "note": 75,
      "duration": 0.125,
      "velocity": 100
    },
    {
      "time": 5.25,
      "note": 74,
      "duration": 0.25,
      "velocity": 100
    },
    {
      "time": 5.5,
      "note": 67,
      "duration": 0.25,
      "velocity": 100
    },
    {
      "time": 6.25,
      "note": 69,
      "duration": 1.0,
      "velocity": 100
    },
    {
      "time": 7.25,
      "note": 69,
      "duration": 1.0,
      "velocity": 100
    },
    {
      "time": 8.25,
      "note": 69,
      "duration": 0.5,
      "velocity": 100
    },
    {
      "time": 8.75,
      "note": 72,
      "duration": 0.125,
      "velocity": 100
    },
    {
      "time": 8.875,
      "note": 72,
      "duration": 0.25,
      "velocity": 100
    },
    {
      "time": 9.125,
      "note": 72,
      "duration": 0.125,
      "velocity": 100
    },
    {
      "time": 9.25,
      "note": 72,
      "duration": 0.125,
      "velocity": 100
    },
    {
      "time": 9.375,
      "note": 72,
      "duration": 0.25,
      "velocity": 100
    },
    {
      "time": 9.625,
      "note": 72,
      "duration": 0.125,
      "velocity": 100
    },
    {
      "time": 9.75,
      "note": 72,
      "duration": 0.25,
      "velocity": 100
    },
    {
      "time": 10.0,
      "note": 72,
      "duration": 0.25,
      "velocity": 100
    },
    {
      "time": 10.25,
      "note": 72,
      "duration": 0.375,
      "velocity": 100
    },
    {
      "time": 10.625,
      "note": 69,
      "duration": 0.125,
      "velocity": 100
    },
    {
      "time": 10.75,
      "note": 69,
      "duration": 0.5,
      "velocity": 100
    },
    {
      "time": 11.25,
      "note": 75,
      "duration": 0.375,
      "velocity": 100
    },
    {
      "time": 11.625,
      "note": 72,
      "duration": 0.125,
      "velocity": 100
    },
    {
      "time": 11.75,
      "note": 72,
      "duration": 0.25,
      "velocity": 100
    },
    {
      "time": 12.0,
      "note": 69,
      "duration": 0.25,
      "velocity": 100
    },
    {
      "time": 12.25,
      "note": 67,
      "duration": 0.125,
      "velocity": 100
    },
    {
      "time": 12.375,
      "note": 71,
      "duration": 0.25,
      "velocity": 100
    },
    {
      "time": 12.625,
      "note": 72,
      "duration": 0.125,
      "velocity": 100
    },
    {
      "time": 12.75,
      "note": 74,
      "duration": 0.25,
      "velocity": 100
    },
    {
      "time": 13.0,
      "note": 75,
      "duration": 0.125,
      "velocity": 100
    },
    {
      "time": 13.125,
      "note": 79,
      "duration": 0.125,
      "velocity": 100
    },
    {
      "time": 13.375,
      "note": 79,
      "duration": 0.25,
      "velocity": 100
    },
    {
      "time": 13.625,
      "note": 77,
      "duration": 0.125,
      "velocity": 100
    },
    {
      "time": 13.75,
      "note": 75,
      "duration": 0.25,
      "velocity": 100
    },
    {
      "time": 14.0,
      "note": 74,
      "duration": 0.25,
      "velocity": 100
    },
    {
      "time": 14.25,
      "note": 72,
      "duration": 0.5,
      "velocity": 100
    },
    {
      "time": 14.75,
      "note": 75,
      "duration": 0.5,
      "velocity": 100
    },
    {
      "time": 15.25,
      "note": 79,
      "duration": 0.25,
      "velocity": 100
    },
    {
      "time": 15.5,
      "note": 77,
      "duration": 0.25,
      "velocity": 100
    },
    {
      "time": 15.75,
      "note": 75,
      "duration": 0.25,
      "velocity": 100
    },
    {
      "time": 16.0,
      "note": 74,
      "duration": 0.25,
      "velocity": 100
    },
    {
      "time": 16.25,
      "note": 72,
      "duration": 0.5,
      "velocity": 100
    },
    {
      "time": 16.75,
      "note": 84,
      "duration": 0.125,
      "velocity": 100
    },
    {
      "time": 16.875,
      "note": 84,
      "duration": 0.25,
      "velocity": 100
    },
    {
      "time": 17.125,
      "note": 84,
      "duration": 0.125,
      "velocity": 100
    },
    {
      "time": 17.5,
      "note": 77,
      "duration": 1.0,
      "velocity": 100
    },
    {
      "time": 18.5,
      "note": 87,
      "duration": 1.0,
      "velocity": 100
    },
    {
      "time": 17.5,
      "note": 82,
      "duration": 1.0,
      "velocity": 100
    },
    {
      "time": 18.5,
      "note": 82,
      "duration": 0.5,
      "velocity": 100
    },
    {
      "time": 20.0,
      "note": 84,
      "duration": 0.125,
      "velocity": 100
    },
    {
      "time": 20.125,
      "note": 84,
      "duration": 0.25,
      "velocity": 100
    },
    {
      "time": 20.375,
      "note": 84,
      "duration": 0.125,
      "velocity": 100
    },
    {
      "time": 20.5,
      "note": 87,
      "duration": 0.125,
      "velocity": 100
    },
    {
      "time": 20.625,
      "note": 87,
      "duration": 0.25,
      "velocity": 100
    },
    {
      "time": 20.875,
      "note": 87,
      "duration": 0.125,
      "velocity": 100
    },
    {
      "time": 21.125,
      "note": 86,
      "duration": 0.25,
      "velocity": 100
    },
    {
      "time": 21.375,
      "note": 79,
      "duration": 0.125,
      "velocity": 100
    },
    {
      "time": 21.5,
      "note": 81,
      "duration": 1.0,
      "velocity": 100
    },
    {
      "time": 22.5,
      "note": 81,
      "duration": 0.5,
      "velocity": 100
    },
    {
      "time": 24.125,
      "note": 84,
      "duration": 0.125,
      "velocity": 100
    },
    {
      "time": 24.25,
      "note": 84,
      "duration": 0.125,
      "velocity": 100
    },
    {
      "time": 24.375,
      "note": 84,
      "duration": 0.125,
      "velocity": 100
    },
    {
      "time": 24.5,
      "note": 84,
      "duration": 0.125,
      "velocity": 100
    },
    {
      "time": 23.875,
      "note": 74,
      "duration": 0.5,
      "velocity": 100
    },
    {
      "time": 24.375,
      "note": 77,
      "duration": 0.5,
      "velocity": 100
    },
    {
      "time": 24.375,
      "note": 84,
      "duration": 0.5,
      "velocity": 100
    },
    {
      "time": 24.375,
      "note": 84,
      "duration": 0.125,
      "velocity": 100
    },
    {
      "time": 24.5,
      "note": 84,
      "duration": 0.25,
      "velocity": 100
    },
    {
      "time": 24.75,
      "note": 84,
      "duration": 0.125,
      "velocity": 100
    },
    {
      "time": 24.875,
      "note": 84,
      "duration": 0.125,
      "velocity": 100
    },
    {
      "time": 25.0,
      "note": 84,
      "duration": 0.25,
      "velocity": 100
    },
    {
      "time": 25.25,
      "note": 84,
      "duration": 0.125,
      "velocity": 100
    },
    {
      "time": 25.375,
      "note": 74,
      "duration": 0.5,
      "velocity": 100
    },
    {
      "time": 25.875,
      "note": 84,
      "duration": 0.5,
      "velocity": 100
    },
    {
      "time": 25.875,
      "note": 81,
      "duration": 0.75,
      "velocity": 100
    },
    {
      "time": 26.875,
      "note": 81,
      "duration": 0.5,
      "velocity": 100
    },
    {
      "time": 28.25,
      "note": 74,
      "duration": 0.5,
      "velocity": 100
    },
    {
      "time": 28.75,
      "note": 77,
      "duration": 0.5,
      "velocity": 100
    },
    {
      "time": 28.75,
      "note": 84,
      "duration": 0.5,
      "velocity": 100
    },
    {
      "time": 28.75,
      "note": 84,
      "duration": 0.25,
      "velocity": 100
    },
    {
      "time": 29.0,
      "note": 84,
      "duration": 0.125,
      "velocity": 100
    },
    {
      "time": 29.125,
      "note": 84,
      "duration": 0.125,
      "velocity": 100
    },
    {
      "time": 29.375,
      "note": 84,
      "duration": 0.25,
      "velocity": 100
    },
    {
      "time": 29.625,
      "note": 84,
      "duration": 0.125,
      "velocity": 100
    },
    {
      "time": 29.75,
      "note": 84,
      "duration": 0.25,
      "velocity": 100
    },
    {
      "time": 30.0,
      "note": 83,
      "duration": 0.25,
      "velocity": 100
    },
    {
      "time": 30.25,
      "note": 75,
      "duration": 0.5,
      "velocity": 100
    },
    {
      "time": 30.75,
      "note": 86,
      "duration": 0.5,
      "velocity": 100
    },
    {
      "time": 30.75,
      "note": 84,
      "duration": 0.75,
      "velocity": 100
    },
    {
      "time": 31.5,
      "note": 84,
      "duration": 0.5,
      "velocity": 100
    },
    {
      "time": 32.0,
      "note": 84,
      "duration": 0.125,
      "velocity": 100
    },
    {
      "time": 32.125,
      "note": 84,
      "duration": 0.25,
      "velocity": 100
    },
    {
      "time": 32.375,
      "note": 84,
      "duration": 0.125,
      "velocity": 100
    },
    {
      "time": 33.125,
      "note": 74,
      "duration": 0.5,
      "velocity": 100
    },
    {
      "time": 33.625,
      "note": 77,
      "duration": 0.5,
      "velocity": 100
    },
    {
      "time": 33.625,
      "note": 84,
      "duration": 0.5,
      "velocity": 100
    },
    {
      "time": 32.5,
      "note": 84,
      "duration": 0.25,
      "velocity": 100
    },
    {
      "time": 32.75,
      "note": 84,
      "duration": 0.125,
      "velocity": 100
    },
    {
      "time": 32.875,
      "note": 88,
      "duration": 0.125,
      "velocity": 100
    },
    {
      "time": 33.125,
      "note": 86,
      "duration": 0.5,
      "velocity": 100
    },
    {
      "time": 32.5,
      "note": 86,
      "duration": 0.25,
      "velocity": 100
    },
    {
      "time": 32.75,
      "note": 83,
      "duration": 0.125,
      "velocity": 100
    },
    {
      "time": 32.875,
      "note": 83,
      "duration": 0.125,
      "velocity": 100
    },
    {
      "time": 33.0,
      "note": 83,
      "duration": 0.125,
      "velocity": 100
    },
    {
      "time": 33.125,
      "note": 83,
      "duration": 0.125,
      "velocity": 100
    },
    {
      "time": 33.25,
      "note": 83,
      "duration": 0.125,
      "velocity": 100
    },
    {
      "time": 33.375,
      "note": 83,
      "duration": 0.125,
      "velocity": 100
    },
    {
      "time": 33.5,
      "note": 83,
      "duration": 0.25,
      "velocity": 100
    },
    {
      "time": 33.75,
      "note": 83,
      "duration": 0.125,
      "velocity": 100
    },
    {
      "time": 33.875,
      "note": 86,
      "duration": 0.125,
      "velocity": 100
    },
    {
      "time": 34.125,
      "note": 84,
      "duration": 0.125,
      "velocity": 100
    },
    {
      "time": 34.25,
      "note": 83,
      "duration": 0.25,
      "velocity": 100
    },
    {
      "time": 34.5,
      "note": 84,
      "duration": 0.375,
      "velocity": 100
    },
    {
      "time": 34.875,
      "note": 84,
      "duration": 0.125,
      "velocity": 100
    },
    {
      "time": 35.0,
      "note": 84,
      "duration": 0.125,
      "velocity": 100
    },
    {
      "time": 35.125,
      "note": 84,
      "duration": 0.125,
      "velocity": 100
    },
    {
      "time": 35.25,
      "note": 84,
      "duration": 0.125,
      "velocity": 100
    },
    {
      "time": 35.375,
      "note": 84,
      "duration": 0.125,
      "velocity": 100
    },
    {
      "time": 35.75,
      "note": 84,
      "duration": 0.25,
      "velocity": 100
    },
    {
      "time": 36.0,
      "note": 84,
      "duration": 0.125,
      "velocity": 100
    },
    {
      "time": 36.125,
      "note": 84,
      "duration": 0.125,
      "velocity": 100
    },
    {
      "time": 36.375,
      "note": 84,
      "duration": 0.125,
      "velocity": 100
    },
    {
      "time": 36.5,
      "note": 84,
      "duration": 0.25,
      "velocity": 100
    },
    {
      "time": 36.75,
      "note": 84,
      "duration": 0.25,
      "velocity": 100
    },
    {
      "time": 37.0,
      "note": 81,
      "duration": 0.125,
      "velocity": 100
    },
    {
      "time": 37.125,
      "note": 84,
      "duration": 0.125,
      "velocity": 100
    },
    {
      "time": 37.25,
      "note": 84,
      "duration": 0.125,
      "velocity": 100
    },
    {
      "time": 37.375,
      "note": 84,
      "duration": 0.125,
      "velocity": 100
    },
    {
      "time": 37.5,
      "note": 84,
      "duration": 0.125,
      "velocity": 100
    },
    {
      "time": 37.625,
      "note": 84,
      "duration": 0.125,
      "velocity": 100
    },
    {
      "time": 37.75,
      "note": 83,
      "duration": 0.25,
      "velocity": 100
    },
    {
      "time": 38.0,
      "note": 83,
      "duration": 0.125,
      "velocity": 100
    },
    {
      "time": 38.125,
      "note": 81,
      "duration": 0.125,
      "velocity": 100
    },
    {
      "time": 38.375,
      "note": 81,
      "duration": 0.125,
      "velocity": 100
    },
    {
      "time": 38.5,
      "note": 79,
      "duration": 0.25,
      "velocity": 100
    },
    {
      "time": 38.75,
      "note": 81,
      "duration": 0.375,
      "velocity": 100
    },
    {
      "time": 39.125,
      "note": 84,
      "duration": 0.125,
      "velocity": 100
    },
    {
      "time": 39.25,
      "note": 84,
      "duration": 0.125,
      "velocity": 100
    },
    {
      "time": 39.375,
      "note": 84,
      "duration": 0.125,
      "velocity": 100
    },
    {
      "time": 39.5,
      "note": 84,
      "duration": 0.125,
      "velocity": 100
    },
    {
      "time": 39.625,
      "note": 84,
      "duration": 0.125,
      "velocity": 100
    },
    {
      "time": 39.75,
      "note": 83,
      "duration": 0.25,
      "velocity": 100
    },
    {
      "time": 40.0,
      "note": 83,
      "duration": 0.125,
      "velocity": 100
    },
    {
      "time": 40.125,
      "note": 86,
      "duration": 0.125,
      "velocity": 100
    },
    {
      "time": 40.375,
      "note": 84,
      "duration": 0.125,
      "velocity": 100
    },
    {
      "time": 40.5,
      "note": 83,
      "duration": 0.25,
      "velocity": 100
    },
    {
      "time": 40.75,
      "note": 84,
      "duration": 1.0,
      "velocity": 100
    }
  ],
  "chords": [
    {
      "time": 0.0,
      "notes": [
        60,
        63,
        67
      ],
      "duration": 2.1973684210526314
    },
    {
      "time": 2.1973684210526314,
      "notes": [
        67,
        70,
        74
      ],
      "duration": 2.1973684210526314
    },
    {
      "time": 4.394736842105263,
      "notes": [
        65,
        68,
        72
      ],
      "duration": 2.1973684210526314
    },
    {
      "time": 6.592105263157894,
      "notes": [
        68,
        72,
        75
      ],
      "duration": 2.1973684210526314
    },
    {
      "time": 8.789473684210526,
      "notes": [
        67,
        71,
        74,
        77
      ],
      "duration": 2.1973684210526314
    },
    {
      "time": 10.986842105263158,
      "notes": [
        60,
        63,
        67
      ],
      "duration": 2.1973684210526314
    },
    {
      "time": 13.184210526315788,
      "notes": [
        60,
        63,
        67
      ],
      "duration": 2.1973684210526314
    },
    {
      "time": 15.38157894736842,
      "notes": [
        67,
        70,
        74
      ],
      "duration": 2.1973684210526314
    },
    {
      "time": 17.57894736842105,
      "notes": [
        65,
        68,
        72
      ],
      "duration": 2.1973684210526314
    },
    {
      "time": 19.77631578947368,
      "notes": [
        68,
        72,
        75
      ],
      "duration": 2.1973684210526314
    },
    {
      "time": 21.973684210526315,
      "notes": [
        67,
        71,
        74,
        77
      ],
      "duration": 2.1973684210526314
    },
    {
      "time": 24.171052631578945,
      "notes": [
        60,
        63,
        67
      ],
      "duration": 2.1973684210526314
    },
    {
      "time": 26.368421052631575,
      "notes": [
        67,
        71,
        74,
        77
      ],
      "duration": 2.1973684210526314
    },
    {
      "time": 28.56578947368421,
      "notes": [
        60,
        64,
        67
      ],
      "duration": 2.1973684210526314
    },
    {
      "time": 30.76315789473684,
      "notes": [
        65,
        69,
        72
      ],
      "duration": 2.1973684210526314
    },
    {
      "time": 32.96052631578947,
      "notes": [
        67,
        71,
        74
      ],
      "duration": 2.1973684210526314
    },
    {
      "time": 35.1578947368421,
      "notes": [
        69,
        72,
        76
      ],
      "duration": 2.1973684210526314
    },
    {
      "time": 37.35526315789473,
      "notes": [
        67,
        71,
        74
      ],
      "duration": 2.1973684210526314
    },
    {
      "time": 39.55263157894736,
      "notes": [
        69,
        72,
        76
      ],
      "duration": 2.1973684210526314
    }
  ]
}