{
  "title": "Y volo, volo",
  "artist": "Rodrigo",
  "bpm": 120,
  "duration": 103.45833333333333,
  "audioFile": "",
  "notes": [
    {
      "time": 0.25,
      "note": 81,
      "duration": 0.5,
      "velocity": 100
    },
    {
      "time": 0.75,
      "note": 86,
      "duration": 0.125,
      "velocity": 100
    },
    {
      "time": 0.875,
      "note": 86,
      "duration": 0.25,
      "velocity": 100
    },
    {
      "time": 1.125,
      "note": 86,
      "duration": 0.125,
      "velocity": 100
    },
    {
      "time": 1.375,
      "note": 81,
      "duration": 0.125,
      "velocity": 100
    },
    {
      "time": 1.5,
      "note": 77,
      "duration": 0.25,
      "velocity": 100
    },
    {
      "time": 2.375,
      "note": 86,
      "duration": 0.125,
      "velocity": 100
    },
    {
      "time": 2.5,
      "note": 81,
      "duration": 0.125,
      "velocity": 100
    },
    {
      "time": 2.625,
      "note": 86,
      "duration": 0.125,
      "velocity": 100
    },
    {
      "time": 2.75,
      "note": 89,
      "duration": 0.5,
      "velocity": 100
    },
    {
      "time": 3.5,
      "note": 77,
      "duration": 0.25,
      "velocity": 100
    },
    {
      "time": 3.75,
      "note": 81,
      "duration": 0.25,
      "velocity": 100
    },
    {
      "time": 3.75,
      "note": 86,
      "duration": 0.25,
      "velocity": 100
    },
    {
      "time": 3.75,
      "note": 77,
      "duration": 0.5,
      "velocity": 100
    },
    {
      "time": 4.25,
      "note": 81,
      "duration": 0.5,
      "velocity": 100
    },
    {
      "time": 4.25,
      "note": 86,
      "duration": 0.5,
      "velocity": 100
    },
    {
      "time": 4.625,
      "note": 76,
      "duration": 0.25,
      "velocity": 100
    },
    {
      "time": 4.875,
      "note": 83,
      "duration": 0.25,
      "velocity": 100
    },
    {
      "time": 4.875,
      "note": 86,
      "duration": 0.125,
      "velocity": 100
    },
    {
      "time": 5.0,
      "note": 86,
      "duration": 0.25,
      "velocity": 100
    },
    {
      "time": 5.25,
      "note": 86,
      "duration": 0.125,
      "velocity": 100
    },
    {
      "time": 5.5,
      "note": 81,
      "duration": 0.125,
      "velocity": 100
    },
    {
      "time": 5.625,
      "note": 77,
      "duration": 0.25,
      "velocity": 100
    },
    {
      "time": 6.5,
      "note": 86,
      "duration": 0.125,
      "velocity": 100
    },
    {
      "time": 6.625,
      "note": 81,
      "duration": 0.125,
      "velocity": 100
    },
    {
      "time": 6.75,
      "note": 86,
      "duration": 0.125,
      "velocity": 100
    },
    {
      "time": 6.875,
      "note": 89,
      "duration": 0.5,
      "velocity": 100
    },
    {
      "time": 7.625,
      "note": 77,
      "duration": 0.25,
      "velocity": 100
    },
    {
      "time": 7.875,
      "note": 81,
      "duration": 0.25,
      "velocity": 100
    },
    {
      "time": 7.875,
      "note": 86,
      "duration": 0.25,
      "velocity": 100
    },
    {
      "time": 7.875,
      "note": 77,
      "duration": 0.5,
      "velocity": 100
    },
    {
      "time": 8.375,
      "note": 81,
      "duration": 0.5,
      "velocity": 100
    },
    {
      "time": 8.375,
      "note": 86,
      "duration": 0.5,
      "velocity": 100
    },
    {
      "time": 8.75,
      "note": 76,
      "duration": 0.25,
      "velocity": 100
    },
    {
      "time": 9.0,
      "note": 83,
      "duration": 0.25,
      "velocity": 100
    },
    {
      "time": 9.0,
      "note": 79,
      "duration": 0.125,
      "velocity": 100
    },
    {
      "time": 9.125,
      "note": 79,
      "duration": 0.25,
      "velocity": 100
    },
    {
      "time": 9.375,
      "note": 79,
      "duration": 0.125,
      "velocity": 100
    },
    {
      "time": 9.5,
      "note": 79,
      "duration": 0.125,
      "velocity": 100
    },
    {
      "time": 9.625,
      "note": 74,
      "duration": 0.125,
      "velocity": 100
    },
    {
      "time": 9.75,
      "note": 71,
      "duration": 0.25,
      "velocity": 100
    },
    {
      "time": 10.0,
      "note": 91,
      "duration": 0.5,
      "velocity": 100
    },
    {
      "time": 10.5,
      "note": 89,
      "duration": 0.5,
      "velocity": 100
    },
    {
      "time": 11.0,
      "note": 88,
      "duration": 1.0,
      "velocity": 100
    },
    {
      "time": 12.0,
      "note": 91,
      "duration": 0.5,
      "velocity": 100
    },
    {
      "time": 12.5,
      "note": 89,
      "duration": 0.5,
      "velocity": 100
    },
    {
      "time": 11.0,
      "note": 79,
      "duration": 0.125,
      "velocity": 100
    },
    {
      "time": 11.125,
      "note": 79,
      "duration": 0.25,
      "velocity": 100
    },
    {
      "time": 11.375,
      "note": 79,
      "duration": 0.125,
      "velocity": 100
    },
    {
      "time": 11.5,
      "note": 79,
      "duration": 0.125,
      "velocity": 100
    },
    {
      "time": 11.625,
      "note": 76,
      "duration": 0.125,
      "velocity": 100
    },
    {
      "time": 11.75,
      "note": 71,
      "duration": 0.25,
      "velocity": 100
    },
    {
      "time": 13.0,
      "note": 84,
      "duration": 1.0,
      "velocity": 100
    },
    {
      "time": 13.0,
      "note": 81,
      "duration": 0.125,
      "velocity": 100
    },
    {
      "time": 13.125,
      "note": 81,
      "duration": 0.25,
      "velocity": 100
    },
    {
      "time": 13.375,
      "note": 81,
      "duration": 0.125,
      "velocity": 100
    },
    {
      "time": 13.5,
      "note": 81,
      "duration": 0.125,
      "velocity": 100
    },
    {
      "time": 13.625,
      "note": 76,
      "duration": 0.125,
      "velocity": 100
    },
    {
      "time": 13.75,
      "note": 72,
      "duration": 0.25,
      "velocity": 100
    },
    {
      "time": 15.25,
      "note": 81,
      "duration": 0.25,
      "velocity": 100
    },
    {
      "time": 15.5,
      "note": 84,
      "duration": 0.25,
      "velocity": 100
    },
    {
      "time": 15.5,
      "note": 88,
      "duration": 0.25,
      "velocity": 100
    },
    {
      "time": 15.5,
      "note": 93,
      "duration": 0.25,
      "velocity": 100
    },
    {
      "time": 15.5,
      "note": 81,
      "duration": 0.5,
      "velocity": 100
    },
    {
      "time": 16.0,
      "note": 84,
      "duration": 0.5,
      "velocity": 100
    },
    {
      "time": 16.0,
      "note": 88,
      "duration": 0.5,
      "velocity": 100
    },
    {
      "time": 16.0,
      "note": 93,
      "duration": 0.5,
      "velocity": 100
    },
    {
      "time": 16.0,
      "note": 81,
      "duration": 0.25,
      "velocity": 100
    },
    {
      "time": 16.25,
      "note": 84,
      "duration": 0.25,
      "velocity": 100
    },
    {
      "time": 16.25,
      "note": 88,
      "duration": 0.25,
      "velocity": 100
    },
    {
      "time": 16.25,
      "note": 93,
      "duration": 0.25,
      "velocity": 100
    },
    {
      "time": 16.25,
      "note": 81,
      "duration": 0.25,
      "velocity": 100
    },
    {
      "time": 16.5,
      "note": 84,
      "duration": 0.25,
      "velocity": 100
    },
    {
      "time": 16.5,
      "note": 88,
      "duration": 0.25,
      "velocity": 100
    },
    {
      "time": 16.5,
      "note": 93,
      "duration": 0.25,
      "velocity": 100
    },
    {
      "time": 16.875,
      "note": 81,
      "duration": 0.125,
      "velocity": 100
    },
    {
      "time": 17.0,
      "note": 86,
      "duration": 0.125,
      "velocity": 100
    },
    {
      "time": 17.125,
      "note": 86,
      "duration": 0.25,
      "velocity": 100
    },
    {
      "time": 17.375,
      "note": 86,
      "duration": 0.125,
      "velocity": 100
    },
    {
      "time": 17.625,
      "note": 81,
      "duration": 0.125,
      "velocity": 100
    },
    {
      "time": 17.75,
      "note": 77,
      "duration": 0.25,
      "velocity": 100
    },
    {
      "time": 18.625,
      "note": 86,
      "duration": 0.125,
      "velocity": 100
    },
    {
      "time": 18.75,
      "note": 81,
      "duration": 0.125,
      "velocity": 100
    },
    {
      "time": 18.875,
      "note": 86,
      "duration": 0.125,
      "velocity": 100
    },
    {
      "time": 19.0,
      "note": 89,
      "duration": 0.5,
      "velocity": 100
    },
    {
      "time": 19.75,
      "note": 77,
      "duration": 0.25,
      "velocity": 100
    },
    {
      "time": 20.0,
      "note": 81,
      "duration": 0.25,
      "velocity": 100
    },
    {
      "time": 20.0,
      "note": 86,
      "duration": 0.25,
      "velocity": 100
    },
    {
      "time": 20.0,
      "note": 77,
      "duration": 0.5,
      "velocity": 100
    },
    {
      "time": 20.5,
      "note": 81,
      "duration": 0.5,
      "velocity": 100
    },
    {
      "time": 20.5,
      "note": 86,
      "duration": 0.5,
      "velocity": 100
    },
    {
      "time": 20.875,
      "note": 76,
      "duration": 0.25,
      "velocity": 100
    },
    {
      "time": 21.125,
      "note": 83,
      "duration": 0.25,
      "velocity": 100
    },
    {
      "time": 21.125,
      "note": 86,
      "duration": 0.125,
      "velocity": 100
    },
    {
      "time": 21.25,
      "note": 86,
      "duration": 0.25,
      "velocity": 100
    },
    {
      "time": 21.5,
      "note": 86,
      "duration": 0.125,
      "velocity": 100
    },
    {
      "time": 21.75,
      "note": 81,
      "duration": 0.125,
      "velocity": 100
    },
    {
      "time": 21.875,
      "note": 77,
      "duration": 0.25,
      "velocity": 100
    },
    {
      "time": 22.75,
      "note": 86,
      "duration": 0.125,
      "velocity": 100
    },
    {
      "time": 22.875,
      "note": 81,
      "duration": 0.125,
      "velocity": 100
    },
    {
      "time": 23.0,
      "note": 86,
      "duration": 0.125,
      "velocity": 100
    },
    {
      "time": 23.125,
      "note": 86,
      "duration": 0.5,
      "velocity": 100
    },
    {
      "time": 23.625,
      "note": 89,
      "duration": 0.5,
      "velocity": 100
    },
    {
      "time": 23.875,
      "note": 77,
      "duration": 0.25,
      "velocity": 100
    },
    {
      "time": 24.125,
      "note": 83,
      "duration": 0.25,
      "velocity": 100
    },
    {
      "time": 24.125,
      "note": 86,
      "duration": 0.25,
      "velocity": 100
    },
    {
      "time": 24.125,
      "note": 77,
      "duration": 0.5,
      "velocity": 100
    },
    {
      "time": 24.625,
      "note": 83,
      "duration": 0.5,
      "velocity": 100
    },
    {
      "time": 24.625,
      "note": 86,
      "duration": 0.5,
      "velocity": 100
    },
    {
      "time": 24.875,
      "note": 79,
      "duration": 0.125,
      "velocity": 100
    },
    {
      "time": 25.0,
      "note": 83,
      "duration": 0.125,
      "velocity": 100
    },
    {
      "time": 25.125,
      "note": 86,
      "duration": 0.125,
      "velocity": 100
    },
    {
      "time": 25.25,
      "note": 86,
      "duration": 0.25,
      "velocity": 100
    },
    {
      "time": 25.5,
      "note": 86,
      "duration": 0.125,
      "velocity": 100
    },
    {
      "time": 25.75,
      "note": 83,
      "duration": 0.125,
      "velocity": 100
    },
    {
      "time": 25.875,
      "note": 79,
      "duration": 0.25,
      "velocity": 100
    },
    {
      "time": 26.875,
      "note": 79,
      "duration": 0.125,
      "velocity": 100
    },
    {
      "time": 27.0,
      "note": 83,
      "duration": 0.125,
      "velocity": 100
    },
    {
      "time": 27.125,
      "note": 86,
      "duration": 0.125,
      "velocity": 100
    },
    {
      "time": 27.25,
      "note": 86,
      "duration": 0.25,
      "velocity": 100
    },
    {
      "time": 27.5,
      "note": 86,
      "duration": 0.125,
      "velocity": 100
    },
    {
      "time": 27.75,
      "note": 83,
      "duration": 0.125,
      "velocity": 100
    },
    {
      "time": 27.875,
      "note": 79,
      "duration": 0.25,
      "velocity": 100
    },
    {
      "time": 28.875,
      "note": 81,
      "duration": 0.125,
      "velocity": 100
    },
    {
      "time": 29.0,
      "note": 84,
      "duration": 0.125,
      "velocity": 100
    },
    {
      "time": 29.125,
      "note": 88,
      "duration": 0.125,
      "velocity": 100
    },
    {
      "time": 29.25,
      "note": 88,
      "duration": 0.25,
      "velocity": 100
    },
    {
      "time": 29.5,
      "note": 88,
      "duration": 0.125,
      "velocity": 100
    },
    {
      "time": 29.75,
      "note": 84,
      "duration": 0.125,
      "velocity": 100
    },
    {
      "time": 29.875,
      "note": 81,
      "duration": 0.25,
      "velocity": 100
    },
    {
      "time": 31.375,
      "note": 81,
      "duration": 0.25,
      "velocity": 100
    },
    {
      "time": 31.625,
      "note": 81,
      "duration": 0.5,
      "velocity": 100
    },
    {
      "time": 32.125,
      "note": 79,
      "duration": 0.25,
      "velocity": 100
    },
    {
      "time": 32.375,
      "note": 77,
      "duration": 0.25,
      "velocity": 100
    },
    {
      "time": 33.375,
      "note": 74,
      "duration": 0.25,
      "velocity": 100
    },
    {
      "time": 33.625,
      "note": 74,
      "duration": 0.25,
      "velocity": 100
    },
    {
      "time": 33.875,
      "note": 74,
      "duration": 0.25,
      "velocity": 100
    },
    {
      "time": 34.125,
      "note": 74,
      "duration": 0.25,
      "velocity": 100
    },
    {
      "time": 34.375,
      "note": 74,
      "duration": 0.25,
      "velocity": 100
    },
    {
      "time": 34.625,
      "note": 72,
      "duration": 0.25,
      "velocity": 100
    },
    {
      "time": 34.875,
      "note": 74,
      "duration": 0.25,
      "velocity": 100
    },
    {
      "time": 35.125,
      "note": 74,
      "duration": 0.25,
      "velocity": 100
    },
    {
      "time": 36.125,
      "note": 74,
      "duration": 0.25,
      "velocity": 100
    },
    {
      "time": 36.375,
      "note": 74,
      "duration": 0.5,
      "velocity": 100
    },
    {
      "time": 36.875,
      "note": 72,
      "duration": 0.25,
      "velocity": 100
    },
    {
      "time": 37.125,
      "note": 74,
      "duration": 0.25,
      "velocity": 100
    },
    {
      "time": 37.875,
      "note": 74,
      "duration": 0.25,
      "velocity": 100
    },
    {
      "time": 38.125,
      "note": 74,
      "duration": 0.25,
      "velocity": 100
    },
    {
      "time": 38.375,
      "note": 74,
      "duration": 0.25,
      "velocity": 100
    },
    {
      "time": 38.625,
      "note": 74,
      "duration": 0.25,
      "velocity": 100
    },
    {
      "time": 38.875,
      "note": 76,
      "duration": 0.25,
      "velocity": 100
    },
    {
      "time": 39.125,
      "note": 76,
      "duration": 0.25,
      "velocity": 100
    },
    {
      "time": 40.125,
      "note": 91,
      "duration": 0.25,
      "velocity": 100
    },
    {
      "time": 40.375,
      "note": 89,
      "duration": 0.25,
      "velocity": 100
    },
    {
      "time": 40.625,
      "note": 84,
      "duration": 0.25,
      "velocity": 100
    },
    {
      "time": 40.875,
      "note": 81,
      "duration": 0.25,
      "velocity": 100
    },
    {
      "time": 41.125,
      "note": 84,
      "duration": 0.25,
      "velocity": 100
    },
    {
      "time": 41.375,
      "note": 91,
      "duration": 0.25,
      "velocity": 100
    },
    {
      "time": 41.625,
      "note": 89,
      "duration": 1.0,
      "velocity": 100
    },
    {
      "time": 42.625,
      "note": 76,
      "duration": 0.25,
      "velocity": 100
    },
    {
      "time": 42.875,
      "note": 76,
      "duration": 0.25,
      "velocity": 100
    },
    {
      "time": 43.125,
      "note": 76,
      "duration": 0.25,
      "velocity": 100
    },
    {
      "time": 43.375,
      "note": 76,
      "duration": 0.25,
      "velocity": 100
    },
    {
      "time": 43.625,
      "note": 76,
      "duration": 0.5,
      "velocity": 100
    },
    {
      "time": 44.125,
      "note": 76,
      "duration": 0.25,
      "velocity": 100
    },
    {
      "time": 44.375,
      "note": 76,
      "duration": 0.25,
      "velocity": 100
    },
    {
      "time": 44.625,
      "note": 76,
      "duration": 0.25,
      "velocity": 100
    },
    {
      "time": 44.875,
      "note": 76,
      "duration": 0.25,
      "velocity": 100
    },
    {
      "time": 45.375,
      "note": 77,
      "duration": 0.25,
      "velocity": 100
    },
    {
      "time": 45.625,
      "note": 77,
      "duration": 0.25,
      "velocity": 100
    },
    {
      "time": 45.875,
      "note": 76,
      "duration": 0.5,
      "velocity": 100
    },
    {
      "time": 46.375,
      "note": 77,
      "duration": 0.25,
      "velocity": 100
    },
    {
      "time": 46.625,
      "note": 77,
      "duration": 0.25,
      "velocity": 100
    },
    {
      "time": 46.875,
      "note": 77,
      "duration": 0.25,
      "velocity": 100
    },
    {
      "time": 47.125,
      "note": 77,
      "duration": 0.25,
      "velocity": 100
    },
    {
      "time": 47.375,
      "note": 77,
      "duration": 0.25,
      "velocity": 100
    },
    {
      "time": 47.625,
      "note": 77,
      "duration": 0.25,
      "velocity": 100
    },
    {
      "time": 47.875,
      "note": 77,
      "duration": 0.25,
      "velocity": 100
    },
    {
      "time": 48.125,
      "note": 76,
      "duration": 0.25,
      "velocity": 100
    },
    {
      "time": 48.375,
      "note": 77,
      "duration": 0.25,
      "velocity": 100
    },
    {
      "time": 48.625,
      "note": 95,
      "duration": 0.25,
      "velocity": 100
    },
    {
      "time": 48.875,
      "note": 95,
      "duration": 0.25,
      "velocity": 100
    },
    {
      "time": 49.125,
      "note": 93,
      "duration": 0.25,
      "velocity": 100
    },
    {
      "time": 49.375,
      "note": 95,
      "duration": 0.125,
      "velocity": 100
    },
    {
      "time": 49.5,
      "note": 93,
      "duration": 0.125,
      "velocity": 100
    },
    {
      "time": 49.625,
      "note": 91,
      "duration": 0.25,
      "velocity": 100
    },
    {
      "time": 49.875,
      "note": 93,
      "duration": 0.125,
      "velocity": 100
    },
    {
      "time": 50.0,
      "note": 91,
      "duration": 0.125,
      "velocity": 100
    },
    {
      "time": 50.875,
      "note": 81,
      "duration": 0.125,
      "velocity": 100
    },
    {
      "time": 51.0,
      "note": 81,
      "duration": 0.125,
      "velocity": 100
    },
    {
      "time": 51.125,
      "note": 83,
      "duration": 0.5,
      "velocity": 100
    },
    {
      "time": 51.625,
      "note": 72,
      "duration": 0.5,
      "velocity": 100
    },
    {
      "time": 52.125,
      "note": 76,
      "duration": 0.5,
      "velocity": 100
    },
    {
      "time": 52.125,
      "note": 81,
      "duration": 0.5,
      "velocity": 100
    },
    {
      "time": 52.375,
      "note": 81,
      "duration": 0.25,
      "velocity": 100
    },
    {
      "time": 52.625,
      "note": 81,
      "duration": 0.25,
      "velocity": 100
    },
    {
      "time": 52.875,
      "note": 81,
      "duration": 0.25,
      "velocity": 100
    },
    {
      "time": 53.125,
      "note": 81,
      "duration": 0.25,
      "velocity": 100
    },
    {
      "time": 53.375,
      "note": 81,
      "duration": 0.5,
      "velocity": 100
    },
    {
      "time": 53.875,
      "note": 81,
      "duration": 0.25,
      "velocity": 100
    },
    {
      "time": 54.125,
      "note": 83,
      "duration": 0.25,
      "velocity": 100
    },
    {
      "time": 54.375,
      "note": 83,
      "duration": 0.25,
      "velocity": 100
    },
    {
      "time": 54.625,
      "note": 81,
      "duration": 0.25,
      "velocity": 100
    },
    {
      "time": 54.875,
      "note": 81,
      "duration": 0.25,
      "velocity": 100
    },
    {
      "time": 55.125,
      "note": 81,
      "duration": 0.25,
      "velocity": 100
    },
    {
      "time": 55.375,
      "note": 81,
      "duration": 0.5,
      "velocity": 100
    },
    {
      "time": 55.875,
      "note": 79,
      "duration": 0.25,
      "velocity": 100
    },
    {
      "time": 56.125,
      "note": 77,
      "duration": 0.25,
      "velocity": 100
    },
    {
      "time": 56.375,
      "note": 77,
      "duration": 1.5,
      "velocity": 100
    },
    {
      "time": 57.875,
      "note": 77,
      "duration": 0.25,
      "velocity": 100
    },
    {
      "time": 58.125,
      "note": 76,
      "duration": 0.25,
      "velocity": 100
    },
    {
      "time": 58.375,
      "note": 76,
      "duration": 1.0,
      "velocity": 100
    },
    {
      "time": 60.375,
      "note": 83,
      "duration": 0.25,
      "velocity": 100
    },
    {
      "time": 60.625,
      "note": 83,
      "duration": 0.25,
      "velocity": 100
    },
    {
      "time": 60.875,
      "note": 83,
      "duration": 0.25,
      "velocity": 100
    },
    {
      "time": 61.125,
      "note": 83,
      "duration": 0.25,
      "velocity": 100
    },
    {
      "time": 61.375,
      "note": 83,
      "duration": 0.25,
      "velocity": 100
    },
    {
      "time": 61.625,
      "note": 83,
      "duration": 0.25,
      "velocity": 100
    },
    {
      "time": 61.875,
      "note": 84,
      "duration": 0.5,
      "velocity": 100
    },
    {
      "time": 62.625,
      "note": 83,
      "duration": 0.25,
      "velocity": 100
    },
    {
      "time": 62.875,
      "note": 79,
      "duration": 0.25,
      "velocity": 100
    },
    {
      "time": 63.125,
      "note": 79,
      "duration": 0.25,
      "velocity": 100
    },
    {
      "time": 63.375,
      "note": 79,
      "duration": 0.5,
      "velocity": 100
    },
    {
      "time": 63.875,
      "note": 76,
      "duration": 0.25,
      "velocity": 100
    },
    {
      "time": 64.125,
      "note": 74,
      "duration": 0.25,
      "velocity": 100
    },
    {
      "time": 64.375,
      "note": 74,
      "duration": 1.5,
      "velocity": 100
    },
    {
      "time": 65.875,
      "note": 74,
      "duration": 0.25,
      "velocity": 100
    },
    {
      "time": 66.125,
      "note": 72,
      "duration": 0.25,
      "velocity": 100
    },
    {
      "time": 66.375,
      "note": 72,
      "duration": 1.0,
      "velocity": 100
    },
    {
      "time": 69.125,
      "note": 81,
      "duration": 0.125,
      "velocity": 100
    },
    {
      "time": 69.25,
      "note": 81,
      "duration": 0.125,
      "velocity": 100
    },
    {
      "time": 69.375,
      "note": 83,
      "duration": 0.5,
      "velocity": 100
    },
    {
      "time": 69.875,
      "note": 72,
      "duration": 0.5,
      "velocity": 100
    },
    {
      "time": 70.375,
      "note": 76,
      "duration": 0.5,
      "velocity": 100
    },
    {
      "time": 70.375,
      "note": 81,
      "duration": 0.5,
      "velocity": 100
    },
    {
      "time": 70.375,
      "note": 81,
      "duration": 0.25,
      "velocity": 100
    },
    {
      "time": 70.625,
      "note": 81,
      "duration": 0.25,
      "velocity": 100
    },
    {
      "time": 70.875,
      "note": 81,
      "duration": 0.25,
      "velocity": 100
    },
    {
      "time": 71.125,
      "note": 81,
      "duration": 0.25,
      "velocity": 100
    },
    {
      "time": 71.375,
      "note": 81,
      "duration": 0.5,
      "velocity": 100
    },
    {
      "time": 71.875,
      "note": 81,
      "duration": 0.25,
      "velocity": 100
    },
    {
      "time": 72.125,
      "note": 83,
      "duration": 0.25,
      "velocity": 100
    },
    {
      "time": 72.375,
      "note": 83,
      "duration": 0.25,
      "velocity": 100
    },
    {
      "time": 72.625,
      "note": 81,
      "duration": 0.25,
      "velocity": 100
    },
    {
      "time": 72.875,
      "note": 81,
      "duration": 0.25,
      "velocity": 100
    },
    {
      "time": 73.125,
      "note": 81,
      "duration": 0.25,
      "velocity": 100
    },
    {
      "time": 73.375,
      "note": 81,
      "duration": 0.5,
      "velocity": 100
    },
    {
      "time": 73.875,
      "note": 79,
      "duration": 0.25,
      "velocity": 100
    },
    {
      "time": 74.125,
      "note": 77,
      "duration": 0.25,
      "velocity": 100
    },
    {
      "time": 74.375,
      "note": 77,
      "duration": 1.5,
      "velocity": 100
    },
    {
      "time": 75.875,
      "note": 77,
      "duration": 0.25,
      "velocity": 100
    },
    {
      "time": 76.125,
      "note": 76,
      "duration": 0.25,
      "velocity": 100
    },
    {
      "time": 76.375,
      "note": 76,
      "duration": 1.0,
      "velocity": 100
    },
    {
      "time": 78.375,
      "note": 83,
      "duration": 0.25,
      "velocity": 100
    },
    {
      "time": 78.625,
      "note": 83,
      "duration": 0.25,
      "velocity": 100
    },
    {
      "time": 78.875,
      "note": 83,
      "duration": 0.25,
      "velocity": 100
    },
    {
      "time": 79.125,
      "note": 83,
      "duration": 0.25,
      "velocity": 100
    },
    {
      "time": 79.375,
      "note": 74,
      "duration": 0.5,
      "velocity": 100
    },
    {
      "time": 79.875,
      "note": 83,
      "duration": 0.5,
      "velocity": 100
    },
    {
      "time": 79.875,
      "note": 83,
      "duration": 0.5,
      "velocity": 100
    },
    {
      "time": 80.375,
      "note": 76,
      "duration": 0.5,
      "velocity": 100
    },
    {
      "time": 80.875,
      "note": 84,
      "duration": 0.5,
      "velocity": 100
    },
    {
      "time": 80.875,
      "note": 84,
      "duration": 0.25,
      "velocity": 100
    },
    {
      "time": 81.125,
      "note": 83,
      "duration": 0.25,
      "velocity": 100
    },
    {
      "time": 81.375,
      "note": 83,
      "duration": 0.25,
      "velocity": 100
    },
    {
      "time": 81.625,
      "note": 83,
      "duration": 0.25,
      "velocity": 100
    },
    {
      "time": 81.875,
      "note": 84,
      "duration": 0.25,
      "velocity": 100
    },
    {
      "time": 82.125,
      "note": 86,
      "duration": 0.25,
      "velocity": 100
    },
    {
      "time": 82.625,
      "note": 86,
      "duration": 0.25,
      "velocity": 100
    },
    {
      "time": 82.875,
      "note": 86,
      "duration": 0.25,
      "velocity": 100
    },
    {
      "time": 83.125,
      "note": 84,
      "duration": 0.25,
      "velocity": 100
    },
    {
      "time": 83.375,
      "note": 84,
      "duration": 1.5,
      "velocity": 100
    },
    {
      "time": 85.875,
      "note": 77,
      "duration": 0.5,
      "velocity": 100
    },
    {
      "time": 86.375,
      "note": 79,
      "duration": 0.5,
      "velocity": 100
    },
    {
      "time": 86.875,
      "note": 81,
      "duration": 0.5,
      "velocity": 100
    },
    {
      "time": 87.375,
      "note": 77,
      "duration": 0.25,
      "velocity": 100
    },
    {
      "time": 87.625,
      "note": 81,
      "duration": 0.25,
      "velocity": 100
    },
    {
      "time": 87.875,
      "note": 81,
      "duration": 1.0,
      "velocity": 100
    },
    {
      "time": 88.875,
      "note": 77,
      "duration": 0.25,
      "velocity": 100
    },
    {
      "time": 89.125,
      "note": 77,
      "duration": 0.25,
      "velocity": 100
    },
    {
      "time": 90.875,
      "note": 74,
      "duration": 0.25,
      "velocity": 100
    },
    {
      "time": 91.125,
      "note": 77,
      "duration": 0.25,
      "velocity": 100
    },
    {
      "time": 91.375,
      "note": 77,
      "duration": 0.25,
      "velocity": 100
    },
    {
      "time": 91.625,
      "note": 77,
      "duration": 0.25,
      "velocity": 100
    },
    {
      "time": 91.875,
      "note": 77,
      "duration": 0.5,
      "velocity": 100
    },
    {
      "time": 92.375,
      "note": 74,
      "duration": 0.25,
      "velocity": 100
    },
    {
      "time": 92.625,
      "note": 77,
      "duration": 0.25,
      "velocity": 100
    },
    {
      "time": 92.875,
      "note": 77,
      "duration": 1.0,
      "velocity": 100
    },
    {
      "time": 93.875,
      "note": 77,
      "duration": 0.25,
      "velocity": 100
    },
    {
      "time": 94.125,
      "note": 77,
      "duration": 0.25,
      "velocity": 100
    },
    {
      "time": 95.875,
      "note": 83,
      "duration": 0.16666666666666666,
      "velocity": 100
    },
    {
      "time": 96.04166666666667,
      "note": 83,
      "duration": 0.25,
      "velocity": 100
    },
    {
      "time": 94.375,
      "note": 77,
      "duration": 0.5,
      "velocity": 100
    },
    {
      "time": 94.875,
      "note": 74,
      "duration": 0.16666666666666666,
      "velocity": 100
    },
    {
      "time": 95.04166666666667,
      "note": 77,
      "duration": 0.16666666666666666,
      "velocity": 100
    },
    {
      "time": 95.45833333333333,
      "note": 83,
      "duration": 0.25,
      "velocity": 100
    },
    {
      "time": 95.70833333333333,
      "note": 83,
      "duration": 0.25,
      "velocity": 100
    },
    {
      "time": 95.95833333333333,
      "note": 83,
      "duration": 0.25,
      "velocity": 100
    },
    {
      "time": 96.20833333333333,
      "note": 83,
      "duration": 0.25,
      "velocity": 100
    },
    {
      "time": 96.45833333333333,
      "note": 83,
      "duration": 0.5,
      "velocity": 100
    },
    {
      "time": 96.95833333333333,
      "note": 81,
      "duration": 0.25,
      "velocity": 100
    },
    {
      "time": 97.20833333333333,
      "note": 81,
      "duration": 0.25,
      "velocity": 100
    },
    {
      "time": 97.45833333333333,
      "note": 81,
      "duration": 0.25,
      "velocity": 100
    },
    {
      "time": 97.70833333333333,
      "note": 79,
      "duration": 0.75,
      "velocity": 100
    },
    {
      "time": 99.45833333333333,
      "note": 83,
      "duration": 0.25,
      "velocity": 100
    },
    {
      "time": 99.70833333333333,
      "note": 81,
      "duration": 0.25,
      "velocity": 100
    },
    {
      "time": 99.95833333333333,
      "note": 83,
      "duration": 0.25,
      "velocity": 100
    },
    {
      "time": 100.20833333333333,
      "note": 83,
      "duration": 0.25,
      "velocity": 100
    },
    {
      "time": 100.45833333333333,
      "note": 83,
      "duration": 0.25,
      "velocity": 100
    },
    {
      "time": 100.70833333333333,
      "note": 83,
      "duration": 0.25,
      "velocity": 100
    },
    {
      "time": 100.95833333333333,
      "note": 83,
      "duration": 0.25,
      "velocity": 100
    },
    {
      "time": 101.20833333333333,
      "note": 83,
      "duration": 0.25,
      "velocity": 100
    },
    {
      "time": 101.45833333333333,
      "note": 83,
      "duration": 0.25,
      "velocity": 100
    },
    {
      "time": 101.70833333333333,
      "note": 81,
      "duration": 0.25,
      "velocity": 100
    },
    {
      "time": 101.95833333333333,
      "note": 81,
      "duration": 1.0,
      "velocity": 100
    },
    {
      "time": 102.95833333333333,
      "note": 77,
      "duration": 0.25,
      "velocity": 100
    },
    {
      "time": 103.20833333333333,
      "note": 79,
      "duration": 0.25,
      "velocity": 100
    }
  ],
  "chords": [
    {
      "time": 0.0,
      "notes": [
        62,
        66,
        69
      ],
      "duration": 3.448611111111111
    },
    {
      "time": 3.448611111111111,
      "notes": [
        71,
        74,
        78
      ],
      "duration": 3.448611111111111
    },
    {
      "time": 6.897222222222222,
      "notes": [
        67,
        71,
        74
      ],
      "duration": 3.448611111111111
    },
    {
      "time": 10.345833333333333,
      "notes": [
        64,
        67,
        71
      ],
      "duration": 3.448611111111111
    },
    {
      "time": 13.794444444444444,
      "notes": [
        69,
        73,
        76
      ],
      "duration": 3.448611111111111
    },
    {
      "time": 17.243055555555557,
      "notes": [
        62,
        66,
        69
      ],
      "duration": 3.448611111111111
    },
    {
      "time": 20.691666666666666,
      "notes": [
        71,
        74,
        78
      ],
      "duration": 3.448611111111111
    },
    {
      "time": 24.140277777777776,
      "notes": [
        67,
        71,
        74
      ],
      "duration": 3.448611111111111
    },
    {
      "time": 27.58888888888889,
      "notes": [
        64,
        67,
        71
      ],
      "duration": 3.448611111111111
    },
    {
      "time": 31.0375,
      "notes": [
        69,
        73,
        76,
        79
      ],
      "duration": 3.448611111111111
    },
    {
      "time": 34.486111111111114,
      "notes": [
        62,
        66,
        69
      ],
      "duration": 3.448611111111111
    },
    {
      "time": 37.93472222222222,
      "notes": [
        65,
        69,
        72
      ],
      "duration": 3.448611111111111
    },
    {
      "time": 41.38333333333333,
      "notes": [
        67,
        71,
        74
      ],
      "duration": 3.448611111111111
    },
    {
      "time": 44.831944444444446,
      "notes": [
        69,
        73,
        76
      ],
      "duration": 3.448611111111111
    },
    {
      "time": 48.28055555555555,
      "notes": [
        62,
        66,
        69
      ],
      "duration": 3.448611111111111
    },
    {
      "time": 51.729166666666664,
      "notes": [
        69,
        73,
        76
      ],
      "duration": 3.448611111111111
    },
    {
      "time": 55.17777777777778,
      "notes": [
        67,
        71,
        74
      ],
      "duration": 3.448611111111111
    },
    {
      "time": 58.62638888888889,
      "notes": [
        64,
        67,
        71
      ],
      "duration": 3.448611111111111
    },
    {
      "time": 62.075,
      "notes": [
        65,
        69,
        72
      ],
      "duration": 3.448611111111111
    },
    {
      "time": 65.52361111111111,
      "notes": [
        62,
        66,
        69
      ],
      "duration": 3.448611111111111
    },
    {
      "time": 68.97222222222223,
      "notes": [
        69,
        73,
        76
      ],
      "duration": 3.448611111111111
    },
    {
      "time": 72.42083333333333,
      "notes": [
        67,
        71,
        74
      ],
      "duration": 3.448611111111111
    },
    {
      "time": 75.86944444444444,
      "notes": [
        64,
        67,
        71
      ],
      "duration": 3.448611111111111
    },
    {
      "time": 79.31805555555556,
      "notes": [
        65,
        69,
        72
      ],
      "duration": 3.448611111111111
    },
    {
      "time": 82.76666666666667,
      "notes": [
        69,
        73,
        76
      ],
      "duration": 3.448611111111111
    },
    {
      "time": 86.21527777777777,
      "notes": [
        62,
        66,
        69
      ],
      "duration": 3.448611111111111
    },
    {
      "time": 89.66388888888889,
      "notes": [
        71,
        74,
        78
      ],
      "duration": 3.448611111111111
    },
    {
      "time": 93.1125,
      "notes": [
        67,
        71,
        74
      ],
      "duration": 3.448611111111111
    },
    {
      "time": 96.5611111111111,
      "notes": [
        64,
        67,
        71
      ],
      "duration": 3.448611111111111
    },
    {
      "time": 100.00972222222222,
      "notes": [
        69,
        73,
        76
      ],
      "duration": 3.448611111111111
    }
  ]
}