{
  "title": "Si vos queres",
  "artist": "Sudor Marika",
  "bpm": 120,
  "duration": 38.625,
  "audioFile": "",
  "notes": [
    {
      "time": 0.0,
      "note": 81,
      "duration": 0.125,
      "velocity": 100
    },
    {
      "time": 0.125,
      "note": 84,
      "duration": 0.125,
      "velocity": 100
    },
    {
      "time": 0.25,
      "note": 88,
      "duration": 0.25,
      "velocity": 100
    },
    {
      "time": 0.5,
      "note": 88,
      "duration": 0.125,
      "velocity": 100
    },
    {
      "time": 0.625,
      "note": 88,
      "duration": 0.125,
      "velocity": 100
    },
    {
      "time": 0.75,
      "note": 86,
      "duration": 0.125,
      "velocity": 100
    },
    {
      "time": 0.875,
      "note": 86,
      "duration": 0.125,
      "velocity": 100
    },
    {
      "time": 1.0,
      "note": 88,
      "duration": 0.125,
      "velocity": 100
    },
    {
      "time": 1.125,
      "note": 86,
      "duration": 0.125,
      "velocity": 100
    },
    {
      "time": 1.25,
      "note": 84,
      "duration": 0.25,
      "velocity": 100
    },
    {
      "time": 1.5,
      "note": 84,
      "duration": 0.125,
      "velocity": 100
    },
    {
      "time": 1.625,
      "note": 76,
      "duration": 0.125,
      "velocity": 100
    },
    {
      "time": 1.75,
      "note": 79,
      "duration": 0.25,
      "velocity": 100
    },
    {
      "time": 2.0,
      "note": 83,
      "duration": 0.25,
      "velocity": 100
    },
    {
      "time": 2.25,
      "note": 81,
      "duration": 0.25,
      "velocity": 100
    },
    {
      "time": 2.5,
      "note": 81,
      "duration": 0.125,
      "velocity": 100
    },
    {
      "time": 2.625,
      "note": 76,
      "duration": 0.125,
      "velocity": 100
    },
    {
      "time": 2.75,
      "note": 79,
      "duration": 0.25,
      "velocity": 100
    },
    {
      "time": 3.0,
      "note": 83,
      "duration": 0.25,
      "velocity": 100
    },
    {
      "time": 3.25,
      "note": 81,
      "duration": 0.5,
      "velocity": 100
    },
    {
      "time": 4.0,
      "note": 81,
      "duration": 0.125,
      "velocity": 100
    },
    {
      "time": 4.125,
      "note": 84,
      "duration": 0.125,
      "velocity": 100
    },
    {
      "time": 4.25,
      "note": 88,
      "duration": 0.25,
      "velocity": 100
    },
    {
      "time": 4.5,
      "note": 88,
      "duration": 0.125,
      "velocity": 100
    },
    {
      "time": 4.625,
      "note": 88,
      "duration": 0.125,
      "velocity": 100
    },
    {
      "time": 4.75,
      "note": 86,
      "duration": 0.125,
      "velocity": 100
    },
    {
      "time": 4.875,
      "note": 86,
      "duration": 0.125,
      "velocity": 100
    },
    {
      "time": 5.0,
      "note": 88,
      "duration": 0.125,
      "velocity": 100
    },
    {
      "time": 5.125,
      "note": 86,
      "duration": 0.125,
      "velocity": 100
    },
    {
      "time": 5.25,
      "note": 84,
      "duration": 0.25,
      "velocity": 100
    },
    {
      "time": 5.5,
      "note": 84,
      "duration": 0.125,
      "velocity": 100
    },
    {
      "time": 5.625,
      "note": 76,
      "duration": 0.125,
      "velocity": 100
    },
    {
      "time": 5.75,
      "note": 79,
      "duration": 0.25,
      "velocity": 100
    },
    {
      "time": 6.0,
      "note": 83,
      "duration": 0.25,
      "velocity": 100
    },
    {
      "time": 6.25,
      "note": 81,
      "duration": 0.25,
      "velocity": 100
    },
    {
      "time": 6.5,
      "note": 81,
      "duration": 0.125,
      "velocity": 100
    },
    {
      "time": 6.625,
      "note": 76,
      "duration": 0.125,
      "velocity": 100
    },
    {
      "time": 6.75,
      "note": 79,
      "duration": 0.25,
      "velocity": 100
    },
    {
      "time": 7.0,
      "note": 83,
      "duration": 0.25,
      "velocity": 100
    },
    {
      "time": 7.25,
      "note": 81,
      "duration": 1.0,
      "velocity": 100
    },
    {
      "time": 8.25,
      "note": 81,
      "duration": 0.5,
      "velocity": 100
    },
    {
      "time": 9.0,
      "note": 81,
      "duration": 0.125,
      "velocity": 100
    },
    {
      "time": 9.125,
      "note": 84,
      "duration": 0.125,
      "velocity": 100
    },
    {
      "time": 9.25,
      "note": 88,
      "duration": 0.25,
      "velocity": 100
    },
    {
      "time": 9.5,
      "note": 88,
      "duration": 0.125,
      "velocity": 100
    },
    {
      "time": 9.625,
      "note": 88,
      "duration": 0.125,
      "velocity": 100
    },
    {
      "time": 9.75,
      "note": 86,
      "duration": 0.125,
      "velocity": 100
    },
    {
      "time": 9.875,
      "note": 86,
      "duration": 0.125,
      "velocity": 100
    },
    {
      "time": 10.0,
      "note": 88,
      "duration": 0.125,
      "velocity": 100
    },
    {
      "time": 10.125,
      "note": 86,
      "duration": 0.125,
      "velocity": 100
    },
    {
      "time": 10.25,
      "note": 84,
      "duration": 0.25,
      "velocity": 100
    },
    {
      "time": 10.5,
      "note": 84,
      "duration": 0.125,
      "velocity": 100
    },
    {
      "time": 10.625,
      "note": 76,
      "duration": 0.125,
      "velocity": 100
    },
    {
      "time": 10.75,
      "note": 79,
      "duration": 0.25,
      "velocity": 100
    },
    {
      "time": 11.0,
      "note": 83,
      "duration": 0.25,
      "velocity": 100
    },
    {
      "time": 11.25,
      "note": 81,
      "duration": 0.25,
      "velocity": 100
    },
    {
      "time": 11.5,
      "note": 81,
      "duration": 0.125,
      "velocity": 100
    },
    {
      "time": 11.625,
      "note": 76,
      "duration": 0.125,
      "velocity": 100
    },
    {
      "time": 11.75,
      "note": 79,
      "duration": 0.25,
      "velocity": 100
    },
    {
      "time": 12.0,
      "note": 83,
      "duration": 0.25,
      "velocity": 100
    },
    {
      "time": 12.25,
      "note": 81,
      "duration": 0.5,
      "velocity": 100
    },
    {
      "time": 13.0,
      "note": 81,
      "duration": 0.125,
      "velocity": 100
    },
    {
      "time": 13.125,
      "note": 84,
      "duration": 0.125,
      "velocity": 100
    },
    {
      "time": 13.25,
      "note": 88,
      "duration": 0.125,
      "velocity": 100
    },
    {
      "time": 13.375,
      "note": 88,
      "duration": 0.125,
      "velocity": 100
    },
    {
      "time": 13.5,
      "note": 88,
      "duration": 0.125,
      "velocity": 100
    },
    {
      "time": 13.625,
      "note": 88,
      "duration": 0.125,
      "velocity": 100
    },
    {
      "time": 13.75,
      "note": 86,
      "duration": 0.125,
      "velocity": 100
    },
    {
      "time": 13.875,
      "note": 86,
      "duration": 0.125,
      "velocity": 100
    },
    {
      "time": 14.0,
      "note": 88,
      "duration": 0.125,
      "velocity": 100
    },
    {
      "time": 14.125,
      "note": 86,
      "duration": 0.125,
      "velocity": 100
    },
    {
      "time": 14.25,
      "note": 84,
      "duration": 0.25,
      "velocity": 100
    },
    {
      "time": 14.5,
      "note": 81,
      "duration": 0.125,
      "velocity": 100
    },
    {
      "time": 14.625,
      "note": 81,
      "duration": 0.125,
      "velocity": 100
    },
    {
      "time": 14.75,
      "note": 81,
      "duration": 0.125,
      "velocity": 100
    },
    {
      "time": 14.875,
      "note": 81,
      "duration": 0.125,
      "velocity": 100
    },
    {
      "time": 15.0,
      "note": 81,
      "duration": 0.125,
      "velocity": 100
    },
    {
      "time": 15.125,
      "note": 81,
      "duration": 0.125,
      "velocity": 100
    },
    {
      "time": 15.25,
      "note": 83,
      "duration": 0.25,
      "velocity": 100
    },
    {
      "time": 15.5,
      "note": 83,
      "duration": 0.125,
      "velocity": 100
    },
    {
      "time": 15.625,
      "note": 83,
      "duration": 0.125,
      "velocity": 100
    },
    {
      "time": 15.75,
      "note": 83,
      "duration": 0.125,
      "velocity": 100
    },
    {
      "time": 15.875,
      "note": 83,
      "duration": 0.125,
      "velocity": 100
    },
    {
      "time": 16.0,
      "note": 84,
      "duration": 0.125,
      "velocity": 100
    },
    {
      "time": 16.125,
      "note": 83,
      "duration": 0.125,
      "velocity": 100
    },
    {
      "time": 16.25,
      "note": 84,
      "duration": 0.25,
      "velocity": 100
    },
    {
      "time": 16.5,
      "note": 81,
      "duration": 0.125,
      "velocity": 100
    },
    {
      "time": 16.625,
      "note": 81,
      "duration": 0.125,
      "velocity": 100
    },
    {
      "time": 16.75,
      "note": 81,
      "duration": 0.125,
      "velocity": 100
    },
    {
      "time": 16.875,
      "note": 81,
      "duration": 0.125,
      "velocity": 100
    },
    {
      "time": 17.0,
      "note": 81,
      "duration": 0.125,
      "velocity": 100
    },
    {
      "time": 17.125,
      "note": 81,
      "duration": 0.125,
      "velocity": 100
    },
    {
      "time": 17.25,
      "note": 83,
      "duration": 0.25,
      "velocity": 100
    },
    {
      "time": 17.5,
      "note": 83,
      "duration": 0.125,
      "velocity": 100
    },
    {
      "time": 17.625,
      "note": 83,
      "duration": 0.125,
      "velocity": 100
    },
    {
      "time": 17.75,
      "note": 83,
      "duration": 0.125,
      "velocity": 100
    },
    {
      "time": 17.875,
      "note": 83,
      "duration": 0.125,
      "velocity": 100
    },
    {
      "time": 18.0,
      "note": 84,
      "duration": 0.125,
      "velocity": 100
    },
    {
      "time": 18.125,
      "note": 83,
      "duration": 0.125,
      "velocity": 100
    },
    {
      "time": 18.25,
      "note": 81,
      "duration": 0.25,
      "velocity": 100
    },
    {
      "time": 18.5,
      "note": 81,
      "duration": 0.75,
      "velocity": 100
    },
    {
      "time": 20.0,
      "note": 81,
      "duration": 0.125,
      "velocity": 100
    },
    {
      "time": 20.125,
      "note": 81,
      "duration": 0.125,
      "velocity": 100
    },
    {
      "time": 20.25,
      "note": 79,
      "duration": 0.125,
      "velocity": 100
    },
    {
      "time": 20.375,
      "note": 79,
      "duration": 0.125,
      "velocity": 100
    },
    {
      "time": 20.5,
      "note": 79,
      "duration": 0.125,
      "velocity": 100
    },
    {
      "time": 20.625,
      "note": 79,
      "duration": 0.125,
      "velocity": 100
    },
    {
      "time": 20.75,
      "note": 79,
      "duration": 0.125,
      "velocity": 100
    },
    {
      "time": 20.875,
      "note": 79,
      "duration": 0.125,
      "velocity": 100
    },
    {
      "time": 21.0,
      "note": 77,
      "duration": 0.125,
      "velocity": 100
    },
    {
      "time": 21.125,
      "note": 79,
      "duration": 0.125,
      "velocity": 100
    },
    {
      "time": 20.625,
      "note": 81,
      "duration": 0.25,
      "velocity": 100
    },
    {
      "time": 20.875,
      "note": 76,
      "duration": 0.25,
      "velocity": 100
    },
    {
      "time": 21.125,
      "note": 81,
      "duration": 0.125,
      "velocity": 100
    },
    {
      "time": 21.25,
      "note": 81,
      "duration": 0.125,
      "velocity": 100
    },
    {
      "time": 21.375,
      "note": 81,
      "duration": 0.125,
      "velocity": 100
    },
    {
      "time": 21.5,
      "note": 81,
      "duration": 0.125,
      "velocity": 100
    },
    {
      "time": 21.625,
      "note": 79,
      "duration": 1.0,
      "velocity": 100
    },
    {
      "time": 21.625,
      "note": 81,
      "duration": 0.25,
      "velocity": 100
    },
    {
      "time": 21.875,
      "note": 76,
      "duration": 0.25,
      "velocity": 100
    },
    {
      "time": 22.375,
      "note": 81,
      "duration": 0.125,
      "velocity": 100
    },
    {
      "time": 22.5,
      "note": 81,
      "duration": 0.125,
      "velocity": 100
    },
    {
      "time": 22.625,
      "note": 79,
      "duration": 1.0,
      "velocity": 100
    },
    {
      "time": 22.625,
      "note": 81,
      "duration": 0.25,
      "velocity": 100
    },
    {
      "time": 22.875,
      "note": 76,
      "duration": 0.125,
      "velocity": 100
    },
    {
      "time": 23.0,
      "note": 79,
      "duration": 0.5,
      "velocity": 100
    },
    {
      "time": 23.5,
      "note": 79,
      "duration": 0.125,
      "velocity": 100
    },
    {
      "time": 22.625,
      "note": 83,
      "duration": 0.125,
      "velocity": 100
    },
    {
      "time": 22.75,
      "note": 83,
      "duration": 0.125,
      "velocity": 100
    },
    {
      "time": 22.875,
      "note": 83,
      "duration": 0.125,
      "velocity": 100
    },
    {
      "time": 23.0,
      "note": 83,
      "duration": 0.125,
      "velocity": 100
    },
    {
      "time": 23.125,
      "note": 83,
      "duration": 0.125,
      "velocity": 100
    },
    {
      "time": 23.25,
      "note": 83,
      "duration": 0.125,
      "velocity": 100
    },
    {
      "time": 23.375,
      "note": 84,
      "duration": 0.125,
      "velocity": 100
    },
    {
      "time": 23.5,
      "note": 83,
      "duration": 0.125,
      "velocity": 100
    },
    {
      "time": 23.625,
      "note": 81,
      "duration": 0.25,
      "velocity": 100
    },
    {
      "time": 23.875,
      "note": 81,
      "duration": 0.25,
      "velocity": 100
    },
    {
      "time": 24.125,
      "note": 81,
      "duration": 0.125,
      "velocity": 100
    },
    {
      "time": 24.25,
      "note": 81,
      "duration": 0.125,
      "velocity": 100
    },
    {
      "time": 24.375,
      "note": 81,
      "duration": 0.125,
      "velocity": 100
    },
    {
      "time": 24.5,
      "note": 81,
      "duration": 0.125,
      "velocity": 100
    },
    {
      "time": 24.625,
      "note": 79,
      "duration": 1.0,
      "velocity": 100
    },
    {
      "time": 24.625,
      "note": 81,
      "duration": 0.25,
      "velocity": 100
    },
    {
      "time": 24.875,
      "note": 81,
      "duration": 0.75,
      "velocity": 100
    },
    {
      "time": 25.625,
      "note": 88,
      "duration": 0.25,
      "velocity": 100
    },
    {
      "time": 25.875,
      "note": 86,
      "duration": 0.25,
      "velocity": 100
    },
    {
      "time": 26.125,
      "note": 84,
      "duration": 0.25,
      "velocity": 100
    },
    {
      "time": 26.375,
      "note": 82,
      "duration": 0.25,
      "velocity": 100
    },
    {
      "time": 26.625,
      "note": 81,
      "duration": 0.5,
      "velocity": 100
    },
    {
      "time": 27.125,
      "note": 81,
      "duration": 0.125,
      "velocity": 100
    },
    {
      "time": 27.25,
      "note": 81,
      "duration": 0.25,
      "velocity": 100
    },
    {
      "time": 27.5,
      "note": 79,
      "duration": 0.125,
      "velocity": 100
    },
    {
      "time": 27.625,
      "note": 81,
      "duration": 1.0,
      "velocity": 100
    },
    {
      "time": 28.625,
      "note": 81,
      "duration": 0.375,
      "velocity": 100
    },
    {
      "time": 29.0,
      "note": 81,
      "duration": 0.125,
      "velocity": 100
    },
    {
      "time": 29.125,
      "note": 84,
      "duration": 0.375,
      "velocity": 100
    },
    {
      "time": 29.5,
      "note": 81,
      "duration": 0.125,
      "velocity": 100
    },
    {
      "time": 29.625,
      "note": 79,
      "duration": 1.0,
      "velocity": 100
    },
    {
      "time": 30.625,
      "note": 79,
      "duration": 0.375,
      "velocity": 100
    },
    {
      "time": 31.0,
      "note": 84,
      "duration": 0.125,
      "velocity": 100
    },
    {
      "time": 31.125,
      "note": 84,
      "duration": 0.375,
      "velocity": 100
    },
    {
      "time": 31.5,
      "note": 84,
      "duration": 0.125,
      "velocity": 100
    },
    {
      "time": 31.625,
      "note": 83,
      "duration": 0.375,
      "velocity": 100
    },
    {
      "time": 32.0,
      "note": 83,
      "duration": 0.125,
      "velocity": 100
    },
    {
      "time": 32.125,
      "note": 83,
      "duration": 0.125,
      "velocity": 100
    },
    {
      "time": 32.25,
      "note": 81,
      "duration": 0.25,
      "velocity": 100
    },
    {
      "time": 32.5,
      "note": 79,
      "duration": 0.125,
      "velocity": 100
    },
    {
      "time": 32.625,
      "note": 81,
      "duration": 0.375,
      "velocity": 100
    },
    {
      "time": 33.0,
      "note": 81,
      "duration": 0.125,
      "velocity": 100
    },
    {
      "time": 33.125,
      "note": 84,
      "duration": 0.375,
      "velocity": 100
    },
    {
      "time": 33.5,
      "note": 84,
      "duration": 0.125,
      "velocity": 100
    },
    {
      "time": 33.625,
      "note": 83,
      "duration": 0.375,
      "velocity": 100
    },
    {
      "time": 34.0,
      "note": 83,
      "duration": 0.125,
      "velocity": 100
    },
    {
      "time": 34.125,
      "note": 83,
      "duration": 0.125,
      "velocity": 100
    },
    {
      "time": 34.25,
      "note": 81,
      "duration": 0.25,
      "velocity": 100
    },
    {
      "time": 34.5,
      "note": 79,
      "duration": 0.125,
      "velocity": 100
    },
    {
      "time": 34.625,
      "note": 81,
      "duration": 0.5,
      "velocity": 100
    },
    {
      "time": 35.125,
      "note": 81,
      "duration": 0.125,
      "velocity": 100
    },
    {
      "time": 35.25,
      "note": 81,
      "duration": 0.25,
      "velocity": 100
    },
    {
      "time": 35.5,
      "note": 79,
      "duration": 0.125,
      "velocity": 100
    },
    {
      "time": 35.625,
      "note": 81,
      "duration": 1.0,
      "velocity": 100
    },
    {
      "time": 36.625,
      "note": 88,
      "duration": 0.25,
      "velocity": 100
    },
    {
      "time": 36.875,
      "note": 86,
      "duration": 0.25,
      "velocity": 100
    },
    {
      "time": 37.125,
      "note": 84,
      "duration": 0.25,
      "velocity": 100
    },
    {
      "time": 37.375,
      "note": 83,
      "duration": 0.25,
      "velocity": 100
    },
    {
      "time": 37.625,
      "note": 81,
      "duration": 0.5,
      "velocity": 100
    }
  ],
  "chords": [
    {
      "time": 0.0,
      "notes": [
        69,
        72,
        76
      ],
      "duration": 1.6793478260869565
    },
    {
      "time": 1.6793478260869565,
      "notes": [
        69,
        72,
        76
      ],
      "duration": 1.6793478260869565
    },
    {
      "time": 3.358695652173913,
      "notes": [
        67,
        71,
        74
      ],
      "duration": 1.6793478260869565
    },
    {
      "time": 5.038043478260869,
      "notes": [
        69,
        72,
        76
      ],
      "duration": 1.6793478260869565
    },
    {
      "time": 6.717391304347826,
      "notes": [
        67,
        71,
        74
      ],
      "duration": 1.6793478260869565
    },
    {
      "time": 8.396739130434783,
      "notes": [
        69,
        72,
        76
      ],
      "duration": 1.6793478260869565
    },
    {
      "time": 10.076086956521738,
      "notes": [
        64,
        68,
        71,
        74
      ],
      "duration": 1.6793478260869565
    },
    {
      "time": 11.755434782608695,
      "notes": [
        69,
        72,
        76
      ],
      "duration": 1.6793478260869565
    },
    {
      "time": 13.434782608695652,
      "notes": [
        64,
        68,
        71,
        74
      ],
      "duration": 1.6793478260869565
    },
    {
      "time": 15.11413043478261,
      "notes": [
        69,
        72,
        76
      ],
      "duration": 1.6793478260869565
    },
    {
      "time": 16.793478260869566,
      "notes": [
        64,
        68,
        71,
        74
      ],
      "duration": 1.6793478260869565
    },
    {
      "time": 18.472826086956523,
      "notes": [
        69,
        72,
        76
      ],
      "duration": 1.6793478260869565
    },
    {
      "time": 20.152173913043477,
      "notes": [
        64,
        68,
        71,
        74
      ],
      "duration": 1.6793478260869565
    },
    {
      "time": 21.831521739130434,
      "notes": [
        69,
        72,
        76
      ],
      "duration": 1.6793478260869565
    },
    {
      "time": 23.51086956521739,
      "notes": [
        64,
        68,
        71,
        74
      ],
      "duration": 1.6793478260869565
    },
    {
      "time": 25.190217391304348,
      "notes": [
        69,
        72,
        76
      ],
      "duration": 1.6793478260869565
    },
    {
      "time": 26.869565217391305,
      "notes": [
        65,
        69,
        72
      ],
      "duration": 1.6793478260869565
    },
    {
      "time": 28.54891304347826,
      "notes": [
        60,
        64,
        67
      ],
      "duration": 1.6793478260869565
    },
    {
      "time": 30.22826086956522,
      "notes": [
        64,
        68,
        71,
        74
      ],
      "duration": 1.6793478260869565
    },
    {
      "time": 31.907608695652176,
      "notes": [
        69,
        72,
        76
      ],
      "duration": 1.6793478260869565
    },
    {
      "time": 33.58695652173913,
      "notes": [
        64,
        68,
        71,
        74
      ],
      "duration": 1.6793478260869565
    },
    {
      "time": 35.266304347826086,
      "notes": [
        69,
        72,
        76
      ],
      "duration": 1.6793478260869565
    },
    {
      "time": 36.94565217391305,
      "notes": [
        69,
        72,
        76
      ],
      "duration": 1.6793478260869565
    }
  ]
}