{
  "title": "Una calle nos separa",
  "artist": "Leo Dan",
  "bpm": 120,
  "duration": 50.875,
  "audioFile": "",
  "notes": [
    {
      "time": 0.0,
      "note": 81,
      "duration": 0.125,
      "velocity": 100
    },
    {
      "time": 0.125,
      "note": 83,
      "duration": 0.125,
      "velocity": 100
    },
    {
      "time": 0.25,
      "note": 84,
      "duration": 0.25,
      "velocity": 100
    },
    {
      "time": 0.5,
      "note": 81,
      "duration": 0.25,
      "velocity": 100
    },
    {
      "time": 0.75,
      "note": 84,
      "duration": 0.25,
      "velocity": 100
    },
    {
      "time": 1.0,
      "note": 81,
      "duration": 0.125,
      "velocity": 100
    },
    {
      "time": 1.125,
      "note": 88,
      "duration": 0.125,
      "velocity": 100
    },
    {
      "time": 1.25,
      "note": 88,
      "duration": 0.25,
      "velocity": 100
    },
    {
      "time": 1.5,
      "note": 86,
      "duration": 0.25,
      "velocity": 100
    },
    {
      "time": 1.75,
      "note": 86,
      "duration": 0.5,
      "velocity": 100
    },
    {
      "time": 2.25,
      "note": 86,
      "duration": 1.0,
      "velocity": 100
    },
    {
      "time": 3.25,
      "note": 86,
      "duration": 0.5,
      "velocity": 100
    },
    {
      "time": 3.875,
      "note": 79,
      "duration": 0.25,
      "velocity": 100
    },
    {
      "time": 4.125,
      "note": 81,
      "duration": 0.125,
      "velocity": 100
    },
    {
      "time": 4.25,
      "note": 83,
      "duration": 0.25,
      "velocity": 100
    },
    {
      "time": 4.5,
      "note": 79,
      "duration": 0.25,
      "velocity": 100
    },
    {
      "time": 4.75,
      "note": 79,
      "duration": 0.125,
      "velocity": 100
    },
    {
      "time": 4.875,
      "note": 83,
      "duration": 0.25,
      "velocity": 100
    },
    {
      "time": 5.125,
      "note": 79,
      "duration": 0.125,
      "velocity": 100
    },
    {
      "time": 5.25,
      "note": 86,
      "duration": 0.25,
      "velocity": 100
    },
    {
      "time": 5.5,
      "note": 84,
      "duration": 0.25,
      "velocity": 100
    },
    {
      "time": 5.75,
      "note": 84,
      "duration": 0.5,
      "velocity": 100
    },
    {
      "time": 6.25,
      "note": 84,
      "duration": 1.0,
      "velocity": 100
    },
    {
      "time": 7.875,
      "note": 81,
      "duration": 0.25,
      "velocity": 100
    },
    {
      "time": 8.125,
      "note": 83,
      "duration": 0.125,
      "velocity": 100
    },
    {
      "time": 8.25,
      "note": 84,
      "duration": 0.25,
      "velocity": 100
    },
    {
      "time": 8.5,
      "note": 81,
      "duration": 0.25,
      "velocity": 100
    },
    {
      "time": 8.75,
      "note": 81,
      "duration": 0.125,
      "velocity": 100
    },
    {
      "time": 8.875,
      "note": 84,
      "duration": 0.25,
      "velocity": 100
    },
    {
      "time": 9.125,
      "note": 81,
      "duration": 0.125,
      "velocity": 100
    },
    {
      "time": 9.25,
      "note": 84,
      "duration": 0.25,
      "velocity": 100
    },
    {
      "time": 9.5,
      "note": 83,
      "duration": 0.25,
      "velocity": 100
    },
    {
      "time": 9.75,
      "note": 83,
      "duration": 0.5,
      "velocity": 100
    },
    {
      "time": 10.25,
      "note": 83,
      "duration": 0.5,
      "velocity": 100
    },
    {
      "time": 10.75,
      "note": 84,
      "duration": 0.25,
      "velocity": 100
    },
    {
      "time": 11.0,
      "note": 81,
      "duration": 0.125,
      "velocity": 100
    },
    {
      "time": 11.125,
      "note": 84,
      "duration": 0.125,
      "velocity": 100
    },
    {
      "time": 11.25,
      "note": 84,
      "duration": 0.25,
      "velocity": 100
    },
    {
      "time": 11.5,
      "note": 83,
      "duration": 0.25,
      "velocity": 100
    },
    {
      "time": 11.75,
      "note": 83,
      "duration": 0.5,
      "velocity": 100
    },
    {
      "time": 12.25,
      "note": 83,
      "duration": 0.5,
      "velocity": 100
    },
    {
      "time": 12.75,
      "note": 76,
      "duration": 0.25,
      "velocity": 100
    },
    {
      "time": 13.0,
      "note": 76,
      "duration": 0.125,
      "velocity": 100
    },
    {
      "time": 13.125,
      "note": 83,
      "duration": 0.125,
      "velocity": 100
    },
    {
      "time": 13.25,
      "note": 83,
      "duration": 0.25,
      "velocity": 100
    },
    {
      "time": 13.5,
      "note": 81,
      "duration": 0.25,
      "velocity": 100
    },
    {
      "time": 13.75,
      "note": 81,
      "duration": 0.5,
      "velocity": 100
    },
    {
      "time": 14.25,
      "note": 81,
      "duration": 1.0,
      "velocity": 100
    },
    {
      "time": 15.75,
      "note": 81,
      "duration": 0.5,
      "velocity": 100
    },
    {
      "time": 16.25,
      "note": 83,
      "duration": 0.5,
      "velocity": 100
    },
    {
      "time": 16.75,
      "note": 84,
      "duration": 0.5,
      "velocity": 100
    },
    {
      "time": 17.25,
      "note": 86,
      "duration": 0.5,
      "velocity": 100
    },
    {
      "time": 18.0,
      "note": 76,
      "duration": 0.5,
      "velocity": 100
    },
    {
      "time": 18.5,
      "note": 86,
      "duration": 0.5,
      "velocity": 100
    },
    {
      "time": 18.5,
      "note": 86,
      "duration": 0.375,
      "velocity": 100
    },
    {
      "time": 18.875,
      "note": 88,
      "duration": 0.125,
      "velocity": 100
    },
    {
      "time": 19.0,
      "note": 88,
      "duration": 0.25,
      "velocity": 100
    },
    {
      "time": 19.25,
      "note": 86,
      "duration": 0.125,
      "velocity": 100
    },
    {
      "time": 19.375,
      "note": 84,
      "duration": 0.125,
      "velocity": 100
    },
    {
      "time": 19.5,
      "note": 86,
      "duration": 0.5,
      "velocity": 100
    },
    {
      "time": 20.25,
      "note": 76,
      "duration": 0.5,
      "velocity": 100
    },
    {
      "time": 20.75,
      "note": 86,
      "duration": 0.5,
      "velocity": 100
    },
    {
      "time": 20.75,
      "note": 86,
      "duration": 0.375,
      "velocity": 100
    },
    {
      "time": 21.125,
      "note": 88,
      "duration": 0.125,
      "velocity": 100
    },
    {
      "time": 21.25,
      "note": 88,
      "duration": 0.25,
      "velocity": 100
    },
    {
      "time": 21.5,
      "note": 86,
      "duration": 0.125,
      "velocity": 100
    },
    {
      "time": 21.625,
      "note": 83,
      "duration": 0.125,
      "velocity": 100
    },
    {
      "time": 21.75,
      "note": 84,
      "duration": 0.5,
      "velocity": 100
    },
    {
      "time": 22.5,
      "note": 76,
      "duration": 0.5,
      "velocity": 100
    },
    {
      "time": 23.0,
      "note": 84,
      "duration": 0.5,
      "velocity": 100
    },
    {
      "time": 23.0,
      "note": 84,
      "duration": 0.375,
      "velocity": 100
    },
    {
      "time": 23.375,
      "note": 86,
      "duration": 0.125,
      "velocity": 100
    },
    {
      "time": 23.5,
      "note": 86,
      "duration": 0.25,
      "velocity": 100
    },
    {
      "time": 23.75,
      "note": 84,
      "duration": 0.125,
      "velocity": 100
    },
    {
      "time": 23.875,
      "note": 83,
      "duration": 0.125,
      "velocity": 100
    },
    {
      "time": 24.0,
      "note": 84,
      "duration": 0.5,
      "velocity": 100
    },
    {
      "time": 24.75,
      "note": 76,
      "duration": 0.5,
      "velocity": 100
    },
    {
      "time": 25.25,
      "note": 84,
      "duration": 0.5,
      "velocity": 100
    },
    {
      "time": 25.25,
      "note": 84,
      "duration": 0.75,
      "velocity": 100
    },
    {
      "time": 26.0,
      "note": 86,
      "duration": 0.5,
      "velocity": 100
    },
    {
      "time": 26.5,
      "note": 86,
      "duration": 0.25,
      "velocity": 100
    },
    {
      "time": 26.75,
      "note": 84,
      "duration": 0.125,
      "velocity": 100
    },
    {
      "time": 26.875,
      "note": 81,
      "duration": 0.125,
      "velocity": 100
    },
    {
      "time": 27.0,
      "note": 83,
      "duration": 0.5,
      "velocity": 100
    },
    {
      "time": 27.75,
      "note": 81,
      "duration": 0.25,
      "velocity": 100
    },
    {
      "time": 28.0,
      "note": 83,
      "duration": 0.375,
      "velocity": 100
    },
    {
      "time": 28.375,
      "note": 81,
      "duration": 0.125,
      "velocity": 100
    },
    {
      "time": 28.5,
      "note": 81,
      "duration": 0.25,
      "velocity": 100
    },
    {
      "time": 28.75,
      "note": 83,
      "duration": 0.125,
      "velocity": 100
    },
    {
      "time": 28.875,
      "note": 81,
      "duration": 0.125,
      "velocity": 100
    },
    {
      "time": 29.0,
      "note": 83,
      "duration": 0.5,
      "velocity": 100
    },
    {
      "time": 29.75,
      "note": 76,
      "duration": 0.25,
      "velocity": 100
    },
    {
      "time": 30.0,
      "note": 76,
      "duration": 0.5,
      "velocity": 100
    },
    {
      "time": 30.5,
      "note": 84,
      "duration": 0.5,
      "velocity": 100
    },
    {
      "time": 30.5,
      "note": 83,
      "duration": 0.5,
      "velocity": 100
    },
    {
      "time": 30.0,
      "note": 81,
      "duration": 1.0,
      "velocity": 100
    },
    {
      "time": 31.0,
      "note": 81,
      "duration": 1.0,
      "velocity": 100
    },
    {
      "time": 32.0,
      "note": 81,
      "duration": 0.25,
      "velocity": 100
    },
    {
      "time": 32.25,
      "note": 84,
      "duration": 0.125,
      "velocity": 100
    },
    {
      "time": 32.375,
      "note": 81,
      "duration": 0.125,
      "velocity": 100
    },
    {
      "time": 32.5,
      "note": 81,
      "duration": 0.125,
      "velocity": 100
    },
    {
      "time": 32.625,
      "note": 84,
      "duration": 0.125,
      "velocity": 100
    },
    {
      "time": 32.75,
      "note": 81,
      "duration": 0.125,
      "velocity": 100
    },
    {
      "time": 32.875,
      "note": 86,
      "duration": 0.125,
      "velocity": 100
    },
    {
      "time": 33.0,
      "note": 86,
      "duration": 0.875,
      "velocity": 100
    },
    {
      "time": 33.875,
      "note": 76,
      "duration": 0.5,
      "velocity": 100
    },
    {
      "time": 34.375,
      "note": 79,
      "duration": 0.5,
      "velocity": 100
    },
    {
      "time": 34.375,
      "note": 86,
      "duration": 0.5,
      "velocity": 100
    },
    {
      "time": 34.375,
      "note": 86,
      "duration": 0.125,
      "velocity": 100
    },
    {
      "time": 34.5,
      "note": 88,
      "duration": 0.125,
      "velocity": 100
    },
    {
      "time": 34.625,
      "note": 86,
      "duration": 0.125,
      "velocity": 100
    },
    {
      "time": 34.75,
      "note": 88,
      "duration": 0.125,
      "velocity": 100
    },
    {
      "time": 34.875,
      "note": 86,
      "duration": 0.25,
      "velocity": 100
    },
    {
      "time": 35.125,
      "note": 84,
      "duration": 0.125,
      "velocity": 100
    },
    {
      "time": 35.25,
      "note": 83,
      "duration": 0.125,
      "velocity": 100
    },
    {
      "time": 35.375,
      "note": 83,
      "duration": 0.75,
      "velocity": 100
    },
    {
      "time": 36.125,
      "note": 79,
      "duration": 0.125,
      "velocity": 100
    },
    {
      "time": 36.25,
      "note": 83,
      "duration": 0.125,
      "velocity": 100
    },
    {
      "time": 36.625,
      "note": 79,
      "duration": 0.25,
      "velocity": 100
    },
    {
      "time": 36.875,
      "note": 83,
      "duration": 0.125,
      "velocity": 100
    },
    {
      "time": 37.0,
      "note": 79,
      "duration": 0.125,
      "velocity": 100
    },
    {
      "time": 37.125,
      "note": 79,
      "duration": 0.125,
      "velocity": 100
    },
    {
      "time": 37.25,
      "note": 83,
      "duration": 0.125,
      "velocity": 100
    },
    {
      "time": 37.375,
      "note": 79,
      "duration": 0.125,
      "velocity": 100
    },
    {
      "time": 37.5,
      "note": 84,
      "duration": 0.125,
      "velocity": 100
    },
    {
      "time": 37.625,
      "note": 84,
      "duration": 0.5,
      "velocity": 100
    },
    {
      "time": 38.125,
      "note": 84,
      "duration": 0.375,
      "velocity": 100
    },
    {
      "time": 38.5,
      "note": 84,
      "duration": 0.125,
      "velocity": 100
    },
    {
      "time": 38.625,
      "note": 84,
      "duration": 0.125,
      "velocity": 100
    },
    {
      "time": 38.75,
      "note": 86,
      "duration": 0.125,
      "velocity": 100
    },
    {
      "time": 38.875,
      "note": 84,
      "duration": 0.125,
      "velocity": 100
    },
    {
      "time": 39.0,
      "note": 86,
      "duration": 0.125,
      "velocity": 100
    },
    {
      "time": 39.125,
      "note": 84,
      "duration": 0.25,
      "velocity": 100
    },
    {
      "time": 39.375,
      "note": 83,
      "duration": 0.125,
      "velocity": 100
    },
    {
      "time": 39.5,
      "note": 81,
      "duration": 0.125,
      "velocity": 100
    },
    {
      "time": 39.625,
      "note": 81,
      "duration": 1.0,
      "velocity": 100
    },
    {
      "time": 40.625,
      "note": 84,
      "duration": 0.125,
      "velocity": 100
    },
    {
      "time": 40.75,
      "note": 82,
      "duration": 0.0625,
      "velocity": 100
    },
    {
      "time": 40.8125,
      "note": 82,
      "duration": 0.0625,
      "velocity": 100
    },
    {
      "time": 40.875,
      "note": 81,
      "duration": 0.125,
      "velocity": 100
    },
    {
      "time": 41.0,
      "note": 84,
      "duration": 0.125,
      "velocity": 100
    },
    {
      "time": 41.125,
      "note": 83,
      "duration": 0.125,
      "velocity": 100
    },
    {
      "time": 41.25,
      "note": 84,
      "duration": 0.125,
      "velocity": 100
    },
    {
      "time": 41.375,
      "note": 83,
      "duration": 0.125,
      "velocity": 100
    },
    {
      "time": 41.5,
      "note": 81,
      "duration": 0.125,
      "velocity": 100
    },
    {
      "time": 41.625,
      "note": 81,
      "duration": 0.375,
      "velocity": 100
    },
    {
      "time": 42.0,
      "note": 86,
      "duration": 0.375,
      "velocity": 100
    },
    {
      "time": 42.0,
      "note": 81,
      "duration": 0.125,
      "velocity": 100
    },
    {
      "time": 42.125,
      "note": 86,
      "duration": 0.125,
      "velocity": 100
    },
    {
      "time": 42.125,
      "note": 81,
      "duration": 0.375,
      "velocity": 100
    },
    {
      "time": 42.5,
      "note": 86,
      "duration": 0.375,
      "velocity": 100
    },
    {
      "time": 42.5,
      "note": 81,
      "duration": 0.125,
      "velocity": 100
    },
    {
      "time": 42.625,
      "note": 86,
      "duration": 0.125,
      "velocity": 100
    },
    {
      "time": 42.625,
      "note": 81,
      "duration": 0.375,
      "velocity": 100
    },
    {
      "time": 43.0,
      "note": 86,
      "duration": 0.375,
      "velocity": 100
    },
    {
      "time": 43.0,
      "note": 81,
      "duration": 0.125,
      "velocity": 100
    },
    {
      "time": 43.125,
      "note": 86,
      "duration": 0.125,
      "velocity": 100
    },
    {
      "time": 43.125,
      "note": 86,
      "duration": 0.125,
      "velocity": 100
    },
    {
      "time": 43.25,
      "note": 84,
      "duration": 0.125,
      "velocity": 100
    },
    {
      "time": 43.375,
      "note": 82,
      "duration": 0.125,
      "velocity": 100
    },
    {
      "time": 43.5,
      "note": 81,
      "duration": 0.125,
      "velocity": 100
    },
    {
      "time": 43.625,
      "note": 79,
      "duration": 1.0,
      "velocity": 100
    },
    {
      "time": 43.625,
      "note": 79,
      "duration": 1.0,
      "velocity": 100
    },
    {
      "time": 43.625,
      "note": 81,
      "duration": 0.25,
      "velocity": 100
    },
    {
      "time": 43.875,
      "note": 84,
      "duration": 0.125,
      "velocity": 100
    },
    {
      "time": 44.0,
      "note": 88,
      "duration": 0.125,
      "velocity": 100
    },
    {
      "time": 44.0,
      "note": 84,
      "duration": 0.125,
      "velocity": 100
    },
    {
      "time": 44.125,
      "note": 88,
      "duration": 0.125,
      "velocity": 100
    },
    {
      "time": 44.125,
      "note": 81,
      "duration": 0.25,
      "velocity": 100
    },
    {
      "time": 44.375,
      "note": 84,
      "duration": 0.125,
      "velocity": 100
    },
    {
      "time": 44.5,
      "note": 88,
      "duration": 0.125,
      "velocity": 100
    },
    {
      "time": 44.5,
      "note": 84,
      "duration": 0.125,
      "velocity": 100
    },
    {
      "time": 44.625,
      "note": 88,
      "duration": 0.125,
      "velocity": 100
    },
    {
      "time": 44.875,
      "note": 79,
      "duration": 0.125,
      "velocity": 100
    },
    {
      "time": 45.0,
      "note": 83,
      "duration": 0.125,
      "velocity": 100
    },
    {
      "time": 45.0,
      "note": 76,
      "duration": 0.125,
      "velocity": 100
    },
    {
      "time": 45.125,
      "note": 79,
      "duration": 0.125,
      "velocity": 100
    },
    {
      "time": 45.25,
      "note": 83,
      "duration": 0.125,
      "velocity": 100
    },
    {
      "time": 45.375,
      "note": 83,
      "duration": 0.25,
      "velocity": 100
    },
    {
      "time": 45.625,
      "note": 88,
      "duration": 0.25,
      "velocity": 100
    },
    {
      "time": 45.625,
      "note": 83,
      "duration": 0.25,
      "velocity": 100
    },
    {
      "time": 45.875,
      "note": 88,
      "duration": 0.25,
      "velocity": 100
    },
    {
      "time": 45.875,
      "note": 81,
      "duration": 0.25,
      "velocity": 100
    },
    {
      "time": 46.125,
      "note": 84,
      "duration": 0.125,
      "velocity": 100
    },
    {
      "time": 46.25,
      "note": 88,
      "duration": 0.125,
      "velocity": 100
    },
    {
      "time": 46.25,
      "note": 84,
      "duration": 0.125,
      "velocity": 100
    },
    {
      "time": 46.375,
      "note": 88,
      "duration": 0.125,
      "velocity": 100
    },
    {
      "time": 46.375,
      "note": 81,
      "duration": 0.25,
      "velocity": 100
    },
    {
      "time": 46.625,
      "note": 84,
      "duration": 0.125,
      "velocity": 100
    },
    {
      "time": 46.75,
      "note": 88,
      "duration": 0.125,
      "velocity": 100
    },
    {
      "time": 46.75,
      "note": 84,
      "duration": 0.125,
      "velocity": 100
    },
    {
      "time": 46.875,
      "note": 88,
      "duration": 0.125,
      "velocity": 100
    },
    {
      "time": 46.875,
      "note": 79,
      "duration": 0.125,
      "velocity": 100
    },
    {
      "time": 47.0,
      "note": 83,
      "duration": 0.125,
      "velocity": 100
    },
    {
      "time": 47.0,
      "note": 76,
      "duration": 0.125,
      "velocity": 100
    },
    {
      "time": 47.125,
      "note": 79,
      "duration": 0.125,
      "velocity": 100
    },
    {
      "time": 47.25,
      "note": 83,
      "duration": 0.125,
      "velocity": 100
    },
    {
      "time": 47.375,
      "note": 83,
      "duration": 0.25,
      "velocity": 100
    },
    {
      "time": 47.625,
      "note": 88,
      "duration": 0.25,
      "velocity": 100
    },
    {
      "time": 47.625,
      "note": 83,
      "duration": 0.25,
      "velocity": 100
    },
    {
      "time": 47.875,
      "note": 88,
      "duration": 0.25,
      "velocity": 100
    },
    {
      "time": 47.875,
      "note": 81,
      "duration": 0.25,
      "velocity": 100
    },
    {
      "time": 48.125,
      "note": 84,
      "duration": 0.125,
      "velocity": 100
    },
    {
      "time": 48.25,
      "note": 88,
      "duration": 0.125,
      "velocity": 100
    },
    {
      "time": 48.25,
      "note": 84,
      "duration": 0.125,
      "velocity": 100
    },
    {
      "time": 48.375,
      "note": 88,
      "duration": 0.125,
      "velocity": 100
    },
    {
      "time": 48.375,
      "note": 79,
      "duration": 0.25,
      "velocity": 100
    },
    {
      "time": 48.625,
      "note": 83,
      "duration": 0.125,
      "velocity": 100
    },
    {
      "time": 48.75,
      "note": 86,
      "duration": 0.125,
      "velocity": 100
    },
    {
      "time": 48.75,
      "note": 83,
      "duration": 0.125,
      "velocity": 100
    },
    {
      "time": 48.875,
      "note": 86,
      "duration": 0.125,
      "velocity": 100
    },
    {
      "time": 48.875,
      "note": 81,
      "duration": 0.25,
      "velocity": 100
    },
    {
      "time": 49.125,
      "note": 84,
      "duration": 0.125,
      "velocity": 100
    },
    {
      "time": 49.25,
      "note": 88,
      "duration": 0.125,
      "velocity": 100
    },
    {
      "time": 49.25,
      "note": 84,
      "duration": 0.125,
      "velocity": 100
    },
    {
      "time": 49.375,
      "note": 88,
      "duration": 0.125,
      "velocity": 100
    },
    {
      "time": 49.375,
      "note": 79,
      "duration": 0.25,
      "velocity": 100
    },
    {
      "time": 49.625,
      "note": 83,
      "duration": 0.125,
      "velocity": 100
    },
    {
      "time": 49.75,
      "note": 86,
      "duration": 0.125,
      "velocity": 100
    },
    {
      "time": 49.75,
      "note": 83,
      "duration": 0.125,
      "velocity": 100
    },
    {
      "time": 49.875,
      "note": 86,
      "duration": 0.125,
      "velocity": 100
    },
    {
      "time": 49.875,
      "note": 81,
      "duration": 0.75,
      "velocity": 100
    },
    {
      "time": 50.625,
      "note": 84,
      "duration": 0.75,
      "velocity": 100
    },
    {
      "time": 50.625,
      "note": 88,
      "duration": 0.75,
      "velocity": 100
    },
    {
      "time": 50.625,
      "note": 81,
      "duration": 0.125,
      "velocity": 100
    },
    {
      "time": 50.75,
      "note": 83,
      "duration": 0.125,
      "velocity": 100
    }
  ],
  "chords": [
    {
      "time": 0.0,
      "notes": [
        69,
        72,
        76
      ],
      "duration": 1.8842592592592593
    },
    {
      "time": 1.8842592592592593,
      "notes": [
        62,
        65,
        69
      ],
      "duration": 1.8842592592592593
    },
    {
      "time": 3.7685185185185186,
      "notes": [
        67,
        71,
        74
      ],
      "duration": 1.8842592592592593
    },
    {
      "time": 5.652777777777778,
      "notes": [
        60,
        64,
        67
      ],
      "duration": 1.8842592592592593
    },
    {
      "time": 7.537037037037037,
      "notes": [
        69,
        72,
        76
      ],
      "duration": 1.8842592592592593
    },
    {
      "time": 9.421296296296296,
      "notes": [
        71,
        74,
        78
      ],
      "duration": 1.8842592592592593
    },
    {
      "time": 11.305555555555555,
      "notes": [
        64,
        68,
        71
      ],
      "duration": 1.8842592592592593
    },
    {
      "time": 13.189814814814815,
      "notes": [
        69,
        72,
        76
      ],
      "duration": 1.8842592592592593
    },
    {
      "time": 15.074074074074074,
      "notes": [
        62,
        65,
        69
      ],
      "duration": 1.8842592592592593
    },
    {
      "time": 16.958333333333332,
      "notes": [
        60,
        64,
        67
      ],
      "duration": 1.8842592592592593
    },
    {
      "time": 18.84259259259259,
      "notes": [
        64,
        68,
        71
      ],
      "duration": 1.8842592592592593
    },
    {
      "time": 20.72685185185185,
      "notes": [
        69,
        72,
        76
      ],
      "duration": 1.8842592592592593
    },
    {
      "time": 22.61111111111111,
      "notes": [
        62,
        65,
        69
      ],
      "duration": 1.8842592592592593
    },
    {
      "time": 24.49537037037037,
      "notes": [
        67,
        71,
        74
      ],
      "duration": 1.8842592592592593
    },
    {
      "time": 26.37962962962963,
      "notes": [
        60,
        64,
        67
      ],
      "duration": 1.8842592592592593
    },
    {
      "time": 28.26388888888889,
      "notes": [
        69,
        72,
        76
      ],
      "duration": 1.8842592592592593
    },
    {
      "time": 30.14814814814815,
      "notes": [
        71,
        74,
        78
      ],
      "duration": 1.8842592592592593
    },
    {
      "time": 32.032407407407405,
      "notes": [
        64,
        68,
        71
      ],
      "duration": 1.8842592592592593
    },
    {
      "time": 33.916666666666664,
      "notes": [
        69,
        72,
        76
      ],
      "duration": 1.8842592592592593
    },
    {
      "time": 35.800925925925924,
      "notes": [
        64,
        68,
        71
      ],
      "duration": 1.8842592592592593
    },
    {
      "time": 37.68518518518518,
      "notes": [
        69,
        72,
        76
      ],
      "duration": 1.8842592592592593
    },
    {
      "time": 39.56944444444444,
      "notes": [
        64,
        68,
        71
      ],
      "duration": 1.8842592592592593
    },
    {
      "time": 41.4537037037037,
      "notes": [
        69,
        72,
        76
      ],
      "duration": 1.8842592592592593
    },
    {
      "time": 43.33796296296296,
      "notes": [
        67,
        71,
        74
      ],
      "duration": 1.8842592592592593
    },
    {
      "time": 45.22222222222222,
      "notes": [
        69,
        72,
        76
      ],
      "duration": 1.8842592592592593
    },
    {
      "time": 47.10648148148148,
      "notes": [
        67,
        71,
        74
      ],
      "duration": 1.8842592592592593
    },
    {
      "time": 48.99074074074074,
      "notes": [
        69,
        72,
        76
      ],
      "duration": 1.8842592592592593
    }
  ]
}