{
  "title": "Bombon Asesino",
  "artist": "Los Palmeras",
  "bpm": 120,
  "duration": 27.25,
  "audioFile": "",
  "notes": [
    {
      "time": 0.25,
      "note": 86,
      "duration": 0.25,
      "velocity": 100
    },
    {
      "time": 0.5,
      "note": 86,
      "duration": 0.125,
      "velocity": 100
    },
    {
      "time": 0.625,
      "note": 81,
      "duration": 0.125,
      "velocity": 100
    },
    {
      "time": 0.75,
      "note": 86,
      "duration": 0.125,
      "velocity": 100
    },
    {
      "time": 0.875,
      "note": 89,
      "duration": 0.125,
      "velocity": 100
    },
    {
      "time": 1.0,
      "note": 86,
      "duration": 0.125,
      "velocity": 100
    },
    {
      "time": 1.125,
      "note": 89,
      "duration": 0.125,
      "velocity": 100
    },
    {
      "time": 1.25,
      "note": 86,
      "duration": 0.25,
      "velocity": 100
    },
    {
      "time": 1.5,
      "note": 86,
      "duration": 0.125,
      "velocity": 100
    },
    {
      "time": 1.625,
      "note": 81,
      "duration": 0.125,
      "velocity": 100
    },
    {
      "time": 1.75,
      "note": 86,
      "duration": 0.125,
      "velocity": 100
    },
    {
      "time": 1.875,
      "note": 89,
      "duration": 0.125,
      "velocity": 100
    },
    {
      "time": 2.0,
      "note": 86,
      "duration": 0.125,
      "velocity": 100
    },
    {
      "time": 2.125,
      "note": 89,
      "duration": 0.125,
      "velocity": 100
    },
    {
      "time": 2.25,
      "note": 93,
      "duration": 0.25,
      "velocity": 100
    },
    {
      "time": 2.5,
      "note": 89,
      "duration": 0.125,
      "velocity": 100
    },
    {
      "time": 2.625,
      "note": 86,
      "duration": 0.125,
      "velocity": 100
    },
    {
      "time": 2.75,
      "note": 86,
      "duration": 0.5,
      "velocity": 100
    },
    {
      "time": 3.25,
      "note": 93,
      "duration": 0.25,
      "velocity": 100
    },
    {
      "time": 3.5,
      "note": 89,
      "duration": 0.125,
      "velocity": 100
    },
    {
      "time": 3.625,
      "note": 86,
      "duration": 0.125,
      "velocity": 100
    },
    {
      "time": 3.75,
      "note": 86,
      "duration": 0.5,
      "velocity": 100
    },
    {
      "time": 4.25,
      "note": 84,
      "duration": 0.25,
      "velocity": 100
    },
    {
      "time": 4.5,
      "note": 84,
      "duration": 0.125,
      "velocity": 100
    },
    {
      "time": 4.625,
      "note": 81,
      "duration": 0.125,
      "velocity": 100
    },
    {
      "time": 4.75,
      "note": 84,
      "duration": 0.125,
      "velocity": 100
    },
    {
      "time": 4.875,
      "note": 88,
      "duration": 0.125,
      "velocity": 100
    },
    {
      "time": 5.0,
      "note": 84,
      "duration": 0.125,
      "velocity": 100
    },
    {
      "time": 5.125,
      "note": 88,
      "duration": 0.125,
      "velocity": 100
    },
    {
      "time": 5.25,
      "note": 84,
      "duration": 0.25,
      "velocity": 100
    },
    {
      "time": 5.5,
      "note": 84,
      "duration": 0.125,
      "velocity": 100
    },
    {
      "time": 5.625,
      "note": 81,
      "duration": 0.125,
      "velocity": 100
    },
    {
      "time": 5.75,
      "note": 84,
      "duration": 0.125,
      "velocity": 100
    },
    {
      "time": 5.875,
      "note": 88,
      "duration": 0.125,
      "velocity": 100
    },
    {
      "time": 6.0,
      "note": 84,
      "duration": 0.125,
      "velocity": 100
    },
    {
      "time": 6.125,
      "note": 88,
      "duration": 0.125,
      "velocity": 100
    },
    {
      "time": 6.25,
      "note": 84,
      "duration": 0.125,
      "velocity": 100
    },
    {
      "time": 6.375,
      "note": 82,
      "duration": 0.125,
      "velocity": 100
    },
    {
      "time": 6.5,
      "note": 81,
      "duration": 0.125,
      "velocity": 100
    },
    {
      "time": 6.625,
      "note": 79,
      "duration": 0.125,
      "velocity": 100
    },
    {
      "time": 6.75,
      "note": 82,
      "duration": 0.125,
      "velocity": 100
    },
    {
      "time": 6.875,
      "note": 81,
      "duration": 0.125,
      "velocity": 100
    },
    {
      "time": 7.0,
      "note": 79,
      "duration": 0.125,
      "velocity": 100
    },
    {
      "time": 7.125,
      "note": 81,
      "duration": 0.125,
      "velocity": 100
    },
    {
      "time": 7.25,
      "note": 93,
      "duration": 0.25,
      "velocity": 100
    },
    {
      "time": 7.5,
      "note": 91,
      "duration": 0.25,
      "velocity": 100
    },
    {
      "time": 7.75,
      "note": 89,
      "duration": 0.25,
      "velocity": 100
    },
    {
      "time": 8.0,
      "note": 88,
      "duration": 0.25,
      "velocity": 100
    },
    {
      "time": 8.5,
      "note": 86,
      "duration": 0.25,
      "velocity": 100
    },
    {
      "time": 8.75,
      "note": 86,
      "duration": 0.25,
      "velocity": 100
    },
    {
      "time": 9.0,
      "note": 84,
      "duration": 0.25,
      "velocity": 100
    },
    {
      "time": 9.25,
      "note": 86,
      "duration": 0.25,
      "velocity": 100
    },
    {
      "time": 9.5,
      "note": 86,
      "duration": 0.125,
      "velocity": 100
    },
    {
      "time": 9.625,
      "note": 81,
      "duration": 0.25,
      "velocity": 100
    },
    {
      "time": 9.875,
      "note": 81,
      "duration": 0.125,
      "velocity": 100
    },
    {
      "time": 10.0,
      "note": 81,
      "duration": 0.125,
      "velocity": 100
    },
    {
      "time": 10.125,
      "note": 81,
      "duration": 0.125,
      "velocity": 100
    },
    {
      "time": 10.25,
      "note": 81,
      "duration": 0.125,
      "velocity": 100
    },
    {
      "time": 10.375,
      "note": 81,
      "duration": 0.125,
      "velocity": 100
    },
    {
      "time": 10.5,
      "note": 86,
      "duration": 0.25,
      "velocity": 100
    },
    {
      "time": 10.75,
      "note": 86,
      "duration": 0.25,
      "velocity": 100
    },
    {
      "time": 11.0,
      "note": 84,
      "duration": 0.25,
      "velocity": 100
    },
    {
      "time": 11.25,
      "note": 86,
      "duration": 0.25,
      "velocity": 100
    },
    {
      "time": 11.5,
      "note": 86,
      "duration": 0.125,
      "velocity": 100
    },
    {
      "time": 11.625,
      "note": 81,
      "duration": 0.25,
      "velocity": 100
    },
    {
      "time": 11.875,
      "note": 81,
      "duration": 0.125,
      "velocity": 100
    },
    {
      "time": 12.0,
      "note": 81,
      "duration": 0.125,
      "velocity": 100
    },
    {
      "time": 12.125,
      "note": 81,
      "duration": 0.125,
      "velocity": 100
    },
    {
      "time": 12.25,
      "note": 81,
      "duration": 0.125,
      "velocity": 100
    },
    {
      "time": 12.375,
      "note": 81,
      "duration": 0.125,
      "velocity": 100
    },
    {
      "time": 12.5,
      "note": 84,
      "duration": 0.25,
      "velocity": 100
    },
    {
      "time": 12.75,
      "note": 84,
      "duration": 0.25,
      "velocity": 100
    },
    {
      "time": 13.0,
      "note": 83,
      "duration": 0.25,
      "velocity": 100
    },
    {
      "time": 13.25,
      "note": 84,
      "duration": 0.25,
      "velocity": 100
    },
    {
      "time": 13.5,
      "note": 84,
      "duration": 0.125,
      "velocity": 100
    },
    {
      "time": 13.625,
      "note": 81,
      "duration": 0.25,
      "velocity": 100
    },
    {
      "time": 13.875,
      "note": 81,
      "duration": 0.125,
      "velocity": 100
    },
    {
      "time": 14.0,
      "note": 81,
      "duration": 0.125,
      "velocity": 100
    },
    {
      "time": 14.125,
      "note": 81,
      "duration": 0.125,
      "velocity": 100
    },
    {
      "time": 14.25,
      "note": 81,
      "duration": 0.125,
      "velocity": 100
    },
    {
      "time": 14.375,
      "note": 81,
      "duration": 0.125,
      "velocity": 100
    },
    {
      "time": 14.5,
      "note": 84,
      "duration": 0.25,
      "velocity": 100
    },
    {
      "time": 14.75,
      "note": 84,
      "duration": 0.25,
      "velocity": 100
    },
    {
      "time": 15.0,
      "note": 83,
      "duration": 0.25,
      "velocity": 100
    },
    {
      "time": 15.25,
      "note": 84,
      "duration": 0.25,
      "velocity": 100
    },
    {
      "time": 15.5,
      "note": 84,
      "duration": 0.125,
      "velocity": 100
    },
    {
      "time": 15.625,
      "note": 81,
      "duration": 0.25,
      "velocity": 100
    },
    {
      "time": 15.875,
      "note": 81,
      "duration": 0.125,
      "velocity": 100
    },
    {
      "time": 16.0,
      "note": 81,
      "duration": 0.125,
      "velocity": 100
    },
    {
      "time": 16.125,
      "note": 81,
      "duration": 0.125,
      "velocity": 100
    },
    {
      "time": 16.25,
      "note": 81,
      "duration": 0.125,
      "velocity": 100
    },
    {
      "time": 16.375,
      "note": 81,
      "duration": 0.125,
      "velocity": 100
    },
    {
      "time": 16.75,
      "note": 86,
      "duration": 0.25,
      "velocity": 100
    },
    {
      "time": 17.0,
      "note": 86,
      "duration": 0.25,
      "velocity": 100
    },
    {
      "time": 17.25,
      "note": 84,
      "duration": 0.25,
      "velocity": 100
    },
    {
      "time": 17.5,
      "note": 86,
      "duration": 0.25,
      "velocity": 100
    },
    {
      "time": 17.75,
      "note": 86,
      "duration": 0.125,
      "velocity": 100
    },
    {
      "time": 17.875,
      "note": 89,
      "duration": 0.25,
      "velocity": 100
    },
    {
      "time": 18.125,
      "note": 81,
      "duration": 0.125,
      "velocity": 100
    },
    {
      "time": 18.25,
      "note": 81,
      "duration": 0.125,
      "velocity": 100
    },
    {
      "time": 18.375,
      "note": 81,
      "duration": 0.125,
      "velocity": 100
    },
    {
      "time": 18.5,
      "note": 81,
      "duration": 0.125,
      "velocity": 100
    },
    {
      "time": 18.625,
      "note": 81,
      "duration": 0.125,
      "velocity": 100
    },
    {
      "time": 18.75,
      "note": 86,
      "duration": 0.25,
      "velocity": 100
    },
    {
      "time": 19.0,
      "note": 86,
      "duration": 0.25,
      "velocity": 100
    },
    {
      "time": 19.25,
      "note": 84,
      "duration": 0.25,
      "velocity": 100
    },
    {
      "time": 19.5,
      "note": 86,
      "duration": 0.25,
      "velocity": 100
    },
    {
      "time": 19.75,
      "note": 86,
      "duration": 0.125,
      "velocity": 100
    },
    {
      "time": 19.875,
      "note": 89,
      "duration": 0.25,
      "velocity": 100
    },
    {
      "time": 20.125,
      "note": 81,
      "duration": 0.125,
      "velocity": 100
    },
    {
      "time": 20.25,
      "note": 81,
      "duration": 0.125,
      "velocity": 100
    },
    {
      "time": 20.375,
      "note": 81,
      "duration": 0.125,
      "velocity": 100
    },
    {
      "time": 20.5,
      "note": 81,
      "duration": 0.125,
      "velocity": 100
    },
    {
      "time": 20.625,
      "note": 81,
      "duration": 0.125,
      "velocity": 100
    },
    {
      "time": 20.75,
      "note": 84,
      "duration": 0.25,
      "velocity": 100
    },
    {
      "time": 21.0,
      "note": 84,
      "duration": 0.25,
      "velocity": 100
    },
    {
      "time": 21.25,
      "note": 83,
      "duration": 0.25,
      "velocity": 100
    },
    {
      "time": 21.5,
      "note": 84,
      "duration": 0.25,
      "velocity": 100
    },
    {
      "time": 21.75,
      "note": 84,
      "duration": 0.125,
      "velocity": 100
    },
    {
      "time": 21.875,
      "note": 81,
      "duration": 0.25,
      "velocity": 100
    },
    {
      "time": 22.125,
      "note": 81,
      "duration": 0.125,
      "velocity": 100
    },
    {
      "time": 22.25,
      "note": 81,
      "duration": 0.125,
      "velocity": 100
    },
    {
      "time": 22.375,
      "note": 81,
      "duration": 0.125,
      "velocity": 100
    },
    {
      "time": 22.5,
      "note": 81,
      "duration": 0.125,
      "velocity": 100
    },
    {
      "time": 22.625,
      "note": 81,
      "duration": 0.125,
      "velocity": 100
    },
    {
      "time": 22.75,
      "note": 84,
      "duration": 0.25,
      "velocity": 100
    },
    {
      "time": 23.0,
      "note": 84,
      "duration": 0.25,
      "velocity": 100
    },
    {
      "time": 23.25,
      "note": 83,
      "duration": 0.25,
      "velocity": 100
    },
    {
      "time": 23.5,
      "note": 84,
      "duration": 0.25,
      "velocity": 100
    },
    {
      "time": 23.75,
      "note": 84,
      "duration": 0.125,
      "velocity": 100
    },
    {
      "time": 23.875,
      "note": 81,
      "duration": 0.25,
      "velocity": 100
    },
    {
      "time": 24.125,
      "note": 81,
      "duration": 0.125,
      "velocity": 100
    },
    {
      "time": 24.25,
      "note": 81,
      "duration": 0.125,
      "velocity": 100
    },
    {
      "time": 24.375,
      "note": 81,
      "duration": 0.125,
      "velocity": 100
    },
    {
      "time": 24.5,
      "note": 81,
      "duration": 0.125,
      "velocity": 100
    },
    {
      "time": 24.625,
      "note": 81,
      "duration": 0.125,
      "velocity": 100
    },
    {
      "time": 24.75,
      "note": 84,
      "duration": 0.125,
      "velocity": 100
    },
    {
      "time": 24.875,
      "note": 81,
      "duration": 0.25,
      "velocity": 100
    },
    {
      "time": 25.125,
      "note": 88,
      "duration": 0.125,
      "velocity": 100
    },
    {
      "time": 25.25,
      "note": 88,
      "duration": 0.125,
      "velocity": 100
    },
    {
      "time": 25.375,
      "note": 86,
      "duration": 0.125,
      "velocity": 100
    },
    {
      "time": 25.5,
      "note": 84,
      "duration": 0.25,
      "velocity": 100
    },
    {
      "time": 25.75,
      "note": 86,
      "duration": 1.0,
      "velocity": 100
    }
  ],
  "chords": [
    {
      "time": 0.0,
      "notes": [
        62,
        65,
        69
      ],
      "duration": 3.892857142857143
    },
    {
      "time": 3.892857142857143,
      "notes": [
        69,
        73,
        76
      ],
      "duration": 3.892857142857143
    },
    {
      "time": 7.785714285714286,
      "notes": [
        62,
        65,
        69
      ],
      "duration": 3.892857142857143
    },
    {
      "time": 11.678571428571429,
      "notes": [
        69,
        73,
        76
      ],
      "duration": 3.892857142857143
    },
    {
      "time": 15.571428571428571,
      "notes": [
        62,
        65,
        69
      ],
      "duration": 3.892857142857143
    },
    {
      "time": 19.464285714285715,
      "notes": [
        69,
        73,
        76
      ],
      "duration": 3.892857142857143
    },
    {
      "time": 23.357142857142858,
      "notes": [
        62,
        65,
        69
      ],
      "duration": 3.892857142857143
    }
  ]
}